<?xml version="1.0" encoding="UTF-8" standalone="no"?>
<!-- Generator: Adobe Illustrator 22.1.0, SVG Export Plug-In . SVG Version: 6.00 Build 0)  -->

<svg
   version="1.1"
   id="圖層_1"
   x="0px"
   y="0px"
   viewBox="0 0 200 157.31155"
   xml:space="preserve"
   sodipodi:docname="logo-v.svg"
   width="200"
   height="157.31155"
   inkscape:version="1.2.2 (732a01da63, 2022-12-09)"
   xmlns:inkscape="http://www.inkscape.org/namespaces/inkscape"
   xmlns:sodipodi="http://sodipodi.sourceforge.net/DTD/sodipodi-0.dtd"
   xmlns:xlink="http://www.w3.org/1999/xlink"
   xmlns="http://www.w3.org/2000/svg"
   xmlns:svg="http://www.w3.org/2000/svg"><defs
   id="defs702" /><sodipodi:namedview
   id="namedview700"
   pagecolor="#ffffff"
   bordercolor="#000000"
   borderopacity="0.25"
   inkscape:showpageshadow="2"
   inkscape:pageopacity="0.0"
   inkscape:pagecheckerboard="0"
   inkscape:deskcolor="#d1d1d1"
   showgrid="false"
   inkscape:zoom="4.2896476"
   inkscape:cx="103.97125"
   inkscape:cy="82.174583"
   inkscape:window-width="1920"
   inkscape:window-height="991"
   inkscape:window-x="-9"
   inkscape:window-y="-9"
   inkscape:window-maximized="1"
   inkscape:current-layer="圖層_1" />
<style
   type="text/css"
   id="style418">
	.st0{fill:#007B99;}
	.st1{clip-path:url(#SVGID_2_);fill:url(#SVGID_3_);}
	.st2{clip-path:url(#SVGID_5_);fill:url(#SVGID_6_);}
	.st3{clip-path:url(#SVGID_8_);fill:url(#SVGID_9_);}
	.st4{clip-path:url(#SVGID_11_);fill:url(#SVGID_12_);}
	.st5{clip-path:url(#SVGID_14_);fill:url(#SVGID_15_);}
	.st6{clip-path:url(#SVGID_17_);fill:url(#SVGID_18_);}
	.st7{clip-path:url(#SVGID_20_);fill:url(#SVGID_21_);}
</style>
<path
   class="st0"
   d="m -282.9,-566 0.8,0.1 c -0.2,1 -0.5,1.9 -0.8,2.7 l -0.8,-0.3 c 0.3,-0.8 0.6,-1.7 0.8,-2.5 m 2.6,-7.1 0.8,0.3 c -0.5,1 -1.1,1.9 -1.6,2.7 0.3,0 0.6,-0.1 0.9,-0.1 0.3,-0.5 0.6,-1 1,-1.6 l 0.8,0.3 c -1,1.7 -2,3 -3,4.1 0.5,0 0.9,-0.1 1.2,-0.2 0,-0.3 0,-0.7 0,-1 l 0.8,-0.2 c 0.1,0.6 0.1,1.4 0.1,2.2 l -0.9,0.2 c 0,-0.1 0,-0.3 0,-0.4 -0.7,0.2 -1.6,0.3 -2.8,0.4 l -0.1,-0.9 c 0.2,0 0.4,0 0.6,0 0.5,-0.6 1,-1.2 1.6,-2.1 -0.5,0.1 -1.1,0.2 -1.8,0.3 v -0.9 c 0.2,0 0.4,0 0.5,0 0.8,-1 1.3,-2 1.9,-3.1 m -0.7,7 c 0,0.6 0,1.4 -0.1,2.4 l -0.9,0.1 c 0.2,-1 0.2,-1.8 0.2,-2.4 z m 1.1,-0.1 c 0.1,0.8 0.2,1.4 0.2,2.1 l -0.9,0.3 c 0,-0.7 0,-1.5 0,-2.2 z m 7.5,-6.5 -1.5,8.3 c -0.1,0.4 -0.2,0.6 -0.4,0.8 -0.2,0.2 -0.4,0.2 -0.7,0.2 h -1.3 v -1 h 1.1 c 0.2,0 0.3,-0.2 0.4,-0.4 l 0.4,-2.4 h -2.3 l -0.2,1.1 c 0,0.2 0.1,0.3 0.3,0.3 h 1.5 l -0.1,0.8 h -1.7 c -0.3,0 -0.6,-0.1 -0.7,-0.2 -0.2,-0.1 -0.2,-0.4 -0.2,-0.6 l 0.3,-1.4 h -0.7 l -0.7,3.8 h -0.9 l 1.7,-9.4 z m -5.6,4.8 h 1.4 l 0.2,-1.3 h -1.4 z m 0.4,-2.1 h 0.8 c -0.1,-0.5 -0.2,-1 -0.3,-1.4 l 0.9,-0.1 c 0.1,0.4 0.2,1 0.2,1.5 h 0.5 c 0.3,-0.5 0.5,-1 0.7,-1.5 l 0.9,0.1 c -0.2,0.5 -0.4,1 -0.6,1.4 h 0.8 l 0.3,-1.9 h -3.8 z m 2.2,0.9 -0.2,1.3 h 1.5 l 0.2,-1.3 z"
   id="path420" />
<path
   class="st0"
   d="m -270.7,-572.7 h 3.4 l -0.3,1.8 c 0.5,-0.3 0.9,-0.6 1.3,-0.9 0.3,-0.3 0.7,-0.7 1,-1.3 l 1,0.1 c -0.2,0.3 -0.3,0.5 -0.5,0.8 h 2.9 l -0.1,0.8 c -0.7,0.9 -1.4,1.6 -2.1,2.1 0.5,0.4 1.2,0.7 2.2,1 l -0.6,0.9 c -1.1,-0.5 -1.9,-0.9 -2.4,-1.3 -0.8,0.5 -1.9,1 -3.1,1.3 l -0.1,-0.2 -0.1,0.8 h -1.1 l -0.3,1.8 c 0.5,-0.1 0.9,-0.3 1.3,-0.4 l -0.2,0.9 c -1.2,0.4 -2.6,0.8 -4.1,1.1 l -0.1,-0.9 c 0.2,0 0.4,-0.1 0.6,-0.1 l 0.7,-4.1 h 0.8 l -0.7,4 c 0.2,0 0.5,-0.1 0.7,-0.2 l 0.8,-4.5 h -1.4 z m 2,2.6 0.3,-1.8 h -1.6 l -0.3,1.8 z m 0.4,2.3 -0.2,-0.5 c 1.1,-0.3 2,-0.6 2.8,-1 -0.3,-0.3 -0.6,-0.7 -0.8,-1.2 -0.3,0.2 -0.6,0.4 -0.9,0.6 l -0.3,-0.5 -0.2,1.2 h -1.1 l -0.3,1.5 z m 5.4,0.4 -0.7,4.2 h -1 l 0.1,-0.4 h -2.7 l -0.1,0.4 h -1 l 0.7,-4.2 z m -4.2,2.8 h 2.7 l 0.3,-1.8 h -2.7 z m 1.3,-6.5 c 0.3,0.5 0.6,0.9 0.9,1.2 0.5,-0.3 1,-0.8 1.5,-1.4 h -2.3 c 0,0.1 0,0.2 -0.1,0.2"
   id="path422" />
<path
   class="st0"
   d="m -251.6,-571 -1.2,6.6 c -0.1,0.4 -0.2,0.6 -0.4,0.8 -0.2,0.2 -0.4,0.3 -0.7,0.3 h -1.8 v -1.1 l 1.6,0.1 c 0.2,0 0.4,-0.2 0.4,-0.5 l 0.3,-1.4 -0.8,0.7 c -0.5,-0.6 -0.9,-1.1 -1.2,-1.7 -0.3,-0.5 -0.5,-1.1 -0.6,-1.8 -0.2,0.4 -0.5,0.8 -0.7,1.1 -0.6,0.8 -1.5,1.7 -2.6,2.5 l -0.3,-0.7 -0.5,2.7 h -1 l 1.4,-7.7 h 3.7 l 0.2,-1.1 h -2.3 l 0.1,-0.8 h 3.4 l -0.3,1.9 z m -8.1,4.6 c 1,-0.8 1.7,-1.4 2.2,-2.1 0.3,-0.4 0.7,-1 1,-1.6 h -2.5 z m 4.4,-3.7 c 0.1,0.7 0.3,1.3 0.5,1.8 0.3,0.6 0.7,1.2 1.3,1.8 l 0.6,-3.6 z"
   id="path424" />
<path
   class="st0"
   d="m -245.3,-569.5 h 0.4 c 0.6,0.6 1.2,1.1 1.8,1.5 0.5,0.3 1.3,0.7 2.5,1 l -0.8,0.9 c -0.3,-0.1 -0.6,-0.2 -0.8,-0.3 l -0.6,3.2 h -1 l 0.1,-0.5 h -5.1 l -0.1,0.5 h -1.1 l 0.6,-3.3 c -0.3,0.1 -0.7,0.3 -1,0.4 l -0.3,-0.9 c 1.3,-0.4 2.3,-0.8 3,-1.2 0.6,-0.3 1.2,-0.8 1.9,-1.3 z m 0.9,-3.6 c 0.1,0.3 0.2,0.6 0.2,1 h 4.1 l -0.4,2.1 h -1 l 0.2,-1.1 h -7.5 l -0.2,1.1 h -1 l 0.4,-2.1 h 4.3 c -0.1,-0.3 -0.2,-0.5 -0.3,-0.8 z m -1.9,2.1 0.6,0.6 c -1,0.8 -2.2,1.5 -3.6,2.2 l -0.5,-0.8 c 1.2,-0.6 2.4,-1.2 3.5,-2 m -2.3,6.4 h 5.1 l 0.3,-1.4 h -5.1 z m 0.4,-2.4 h 4.9 c -0.7,-0.4 -1.4,-1 -2.1,-1.7 -0.7,0.6 -1.5,1 -2.1,1.4 -0.3,0.1 -0.5,0.2 -0.7,0.3 m 4.5,-3.9 c 1.2,0.7 2.2,1.3 3,2 l -0.9,0.8 c -0.6,-0.6 -1.6,-1.3 -2.9,-2.1 z"
   id="path426" />
<path
   class="st0"
   d="m -238.5,-572.7 h 3.4 l -0.1,0.8 c -0.4,0.8 -0.8,1.7 -1.3,2.6 0.2,0.5 0.3,0.9 0.3,1.3 0.1,0.4 0.1,0.7 0,1 -0.1,0.6 -0.3,1 -0.6,1.2 -0.3,0.3 -0.9,0.4 -1.7,0.4 l -0.1,-1 c 0.2,0 0.3,0 0.5,0 0.3,0 0.4,0 0.6,-0.2 0.1,-0.1 0.2,-0.3 0.3,-0.5 0.1,-0.3 0.1,-0.6 0,-0.9 0,-0.4 -0.2,-0.8 -0.4,-1.3 0.6,-1 1,-1.9 1.2,-2.6 h -1.4 l -1.5,8.5 h -1 z m 6.2,-0.4 c 0.2,0.5 0.3,1 0.5,1.5 h 2.6 l -0.2,1 h -3.6 l -0.3,1.4 h 3.1 c -0.6,2.8 -1,4.5 -1.2,5 -0.3,0.5 -0.7,0.7 -1.4,0.7 -0.6,0 -1.1,0 -1.4,0 l -0.1,-1.1 c 0.5,0.1 1.1,0.1 1.6,0.1 0.3,0 0.5,-0.2 0.6,-0.6 0.1,-0.3 0.3,-1.3 0.7,-3.2 h -2.1 c -0.2,0.9 -0.5,1.7 -1,2.3 -0.5,0.9 -1.4,1.7 -2.6,2.6 l -0.7,-0.8 c 1.1,-0.7 1.9,-1.4 2.4,-2.2 0.5,-0.6 0.8,-1.6 1,-2.9 l 0.3,-1.5 h -1.4 l 0.2,-1 h 2.4 c -0.1,-0.5 -0.3,-1 -0.5,-1.4 z"
   id="path428" />
<path
   class="st0"
   d="m -225.8,-567 -0.5,3.1 h -2.1 l -0.1,0.7 h -1 l 0.7,-3.8 z m -2.7,-1.7 h 3 l -0.1,0.8 h -3 z m 2.5,-4.4 c 0,0.3 0,0.7 0.1,1.2 h 1.3 l 0.1,-0.5 h 1.3 l 0.1,-0.6 h 0.9 l -0.1,0.6 h 1.7 l 0.1,-0.6 h 0.9 l -0.1,0.6 h 1.3 l -0.1,0.7 h -1.3 l -0.1,0.5 h -0.9 l 0.1,-0.5 h -1.7 l -0.1,0.5 h -0.9 l 0.1,-0.5 h -1.3 l -0.1,0.8 h -3.8 l 0.2,-0.9 h 1.4 c 0,-0.4 -0.1,-0.7 -0.1,-1.1 z m -2.2,2.8 h 3 l -0.1,0.8 c 0.7,-0.5 1.3,-1.1 1.7,-1.7 l 0.8,0.2 c -0.1,0.1 -0.2,0.3 -0.3,0.4 h 1.2 c -0.1,-0.2 -0.1,-0.4 -0.2,-0.6 l 0.9,-0.1 c 0.1,0.2 0.1,0.4 0.2,0.7 h 2.3 l -0.1,0.7 h -2.2 l -0.1,0.5 h 2 l -0.1,0.6 h -2 l -0.1,0.5 h 2 l -0.1,0.6 h -2 l -0.1,0.5 h 2.3 l -0.1,0.7 h -5.7 l 0.4,-2.4 c -0.2,0.2 -0.4,0.3 -0.5,0.4 l -0.5,-0.7 c 0.1,-0.1 0.2,-0.1 0.2,-0.2 h -2.9 z m 0,5.4 h 1.1 l 0.2,-1.3 h -1.1 z m 2.9,-1.3 h 5.6 l -0.1,0.6 c -0.5,0.4 -1.1,0.8 -1.9,1.2 0.6,0.1 1.3,0.3 2.1,0.4 l -0.6,0.7 c -1.2,-0.2 -2.1,-0.4 -2.7,-0.6 -0.9,0.3 -1.9,0.6 -3,0.7 l -0.2,-0.8 c 0.9,-0.1 1.6,-0.2 2.3,-0.4 -0.4,-0.2 -0.8,-0.5 -1.1,-0.8 l 0.6,-0.3 h -1.1 z m 2.8,-1.1 0.1,-0.5 h -1.6 l -0.1,0.5 z m -1.6,1.9 c 0.3,0.3 0.8,0.6 1.3,0.8 0.5,-0.2 1,-0.5 1.5,-0.8 z m 1.8,-3.1 0.1,-0.5 h -1.6 l -0.1,0.5 z m 0.2,-1.1 0.1,-0.5 h -1.6 l -0.1,0.5 z"
   id="path430" />
<path
   class="st0"
   d="m -217.6,-571 h 1.1 l 0.4,-2 h 0.9 l -0.4,2 h 0.8 l -0.2,0.9 h -0.8 l -0.1,0.6 c 0.3,0.5 0.6,1 0.9,1.6 l -0.2,0.3 h 0.9 c 0.1,-0.2 0.1,-0.5 0.2,-0.8 -0.2,0 -0.5,0.1 -0.7,0.1 v -0.8 c 0.2,0 0.3,0 0.5,0 0.3,-0.3 0.6,-0.7 0.9,-1.2 -0.4,0.1 -0.8,0.1 -1.2,0.2 v -0.7 c 0.1,0 0.3,0 0.4,0 0.5,-0.6 0.8,-1.3 1.1,-2 l 0.7,0.1 c -0.3,0.7 -0.6,1.3 -1,1.8 0.2,0 0.3,-0.1 0.5,-0.1 0.2,-0.3 0.4,-0.6 0.5,-0.9 l 0.7,0.2 c -0.6,1 -1.2,1.8 -1.8,2.5 0.3,0 0.5,0 0.7,-0.1 0,-0.2 0,-0.4 -0.1,-0.6 l 0.6,-0.1 c 0.1,0.6 0.2,1.1 0.3,1.6 l -0.7,0.3 c 0,-0.2 0,-0.3 0,-0.5 -0.2,0 -0.3,0 -0.5,0.1 -0.1,0.3 -0.1,0.6 -0.2,0.9 h 1.4 c 0,-1.1 0.2,-2.9 0.6,-5.3 h 0.8 c -0.4,2.5 -0.6,4.3 -0.6,5.3 h 1 c 0,-0.2 -0.1,-0.4 -0.2,-0.7 -0.2,0 -0.4,0 -0.6,0.1 l -0.1,-0.8 c 0.2,0 0.3,0 0.5,0 0.3,-0.4 0.6,-0.8 0.9,-1.3 -0.4,0.1 -0.8,0.1 -1.2,0.2 v -0.7 c 0.1,0 0.3,0 0.4,0 0.4,-0.6 0.8,-1.3 1,-2 l 0.7,0.1 c -0.3,0.7 -0.6,1.3 -1,1.8 0.2,0 0.3,0 0.5,-0.1 0.1,-0.2 0.3,-0.5 0.4,-0.7 l 0.7,0.2 c -0.6,1 -1.1,1.8 -1.7,2.4 0.3,0 0.5,-0.1 0.7,-0.1 0,-0.2 0,-0.4 -0.1,-0.6 l 0.6,-0.1 c 0.1,0.6 0.2,1.1 0.3,1.6 l -0.7,0.3 c 0,-0.2 0,-0.3 0,-0.5 -0.2,0 -0.4,0.1 -0.6,0.1 0.1,0.2 0.1,0.5 0.2,0.8 h 1 l -0.1,0.8 h -2.7 c 0,0.5 0.1,0.9 0.1,1.2 0.3,-0.3 0.6,-0.6 0.9,-1 l 0.7,0.4 c -0.4,0.5 -0.8,1 -1.3,1.4 0.2,0.6 0.5,0.8 0.7,0.8 0.1,0 0.1,0 0.1,-0.1 0.1,-0.1 0.2,-0.6 0.4,-1.4 l 0.8,0.5 c -0.3,0.8 -0.5,1.3 -0.7,1.6 -0.2,0.2 -0.4,0.3 -0.7,0.3 -0.4,0 -0.9,-0.4 -1.3,-1.2 v 0 c -0.6,0.4 -1.3,0.8 -2.2,1.1 l -0.3,-0.7 c 0.8,-0.3 1.5,-0.6 2.1,-1 0,0 0.1,-0.1 0.1,-0.1 -0.1,-0.5 -0.2,-1.1 -0.3,-1.8 h -1.6 c 0,0.1 -0.1,0.3 -0.1,0.4 0.5,0.3 0.9,0.7 1.2,1.1 l -0.6,0.8 c -0.3,-0.4 -0.6,-0.7 -0.9,-1 -0.2,0.6 -0.5,1 -0.8,1.3 -0.3,0.4 -0.7,0.8 -1.2,1.2 l -0.5,-0.8 c 0.5,-0.4 0.9,-0.8 1.2,-1.2 0.2,-0.3 0.5,-0.8 0.7,-1.5 0,-0.1 0.1,-0.2 0.1,-0.2 h -1.1 l 0.1,-0.5 -0.2,0.2 c -0.2,-0.5 -0.3,-0.9 -0.4,-1.2 l -0.9,5.2 h -0.9 l 0.8,-4.6 c -0.4,0.7 -0.8,1.3 -1.2,1.9 l -0.2,-1.1 c 0.7,-0.8 1.2,-1.8 1.8,-2.9 v -0.2 h -1.1 z"
   id="path432" />
<path
   class="st0"
   d="m -206.8,-571 h 1.2 l 0.4,-2.1 h 0.9 l -0.4,2.1 h 1 l -0.2,0.9 h -1 l -0.1,0.3 c 0.3,0.5 0.6,1 0.8,1.5 l -0.7,0.8 c -0.1,-0.4 -0.2,-0.8 -0.4,-1.1 l -1,5.4 h -0.9 l 0.9,-5 c -0.4,0.7 -0.8,1.3 -1.2,1.9 l -0.2,-1.1 c 0.6,-0.8 1.2,-1.7 1.7,-2.7 h -1.1 z m 3.4,-1.3 h 1.3 l 0.1,-0.8 h 0.9 l -0.1,0.8 h 1.8 l 0.1,-0.8 h 0.9 l -0.1,0.8 h 1.5 l -0.1,0.8 h -1.5 l -0.1,0.5 h 1.1 l -0.1,0.7 h -1.1 l -0.1,0.6 h 1.6 l -0.1,0.8 h -3 l -0.1,0.5 h 2.4 l -0.5,2.6 h 0.6 l -0.1,0.8 h -0.6 l -0.2,0.9 c -0.1,0.3 -0.2,0.5 -0.4,0.7 -0.2,0.1 -0.4,0.2 -0.7,0.2 h -1.3 v -0.8 h 1.1 c 0.2,0 0.3,-0.1 0.4,-0.4 l 0.1,-0.6 h -3.8 l -0.3,1.9 h -0.9 l 0.3,-1.9 h -0.9 l 0.1,-0.8 h 0.9 l 0.5,-2.6 h 2.3 l 0.1,-0.5 h -2.8 l 0.1,-0.8 h 1.4 l 0.1,-0.6 h -1 l 0.1,-0.7 h 1 l 0.1,-0.5 h -1.3 z m 0.2,6.4 h 1.4 l 0.1,-0.6 h -1.4 z m 0.2,-1.3 h 1.4 l 0.1,-0.5 h -1.4 z m 1.4,-2.5 h 1.8 l 0.1,-0.6 h -1.8 z m 2.1,-1.3 0.1,-0.5 h -1.8 l -0.1,0.5 z m -1.4,5.1 h 1.5 l 0.1,-0.6 h -1.5 z m 0.3,-1.8 -0.1,0.5 h 1.5 l 0.1,-0.5 z"
   id="path434" />
<polygon
   class="st0"
   points="-235,-551.6 -236.7,-543.8 -237.7,-543.8 -236.1,-551.6 "
   id="polygon436"
   transform="translate(-30.9,-8.6000004)" />
<path
   class="st0"
   d="m -265.9,-552.4 1.2,-5.7 h 0.9 l -0.2,1 c 0.4,-0.4 0.7,-0.7 1.1,-0.8 0.4,-0.1 0.7,-0.3 1,-0.3 0.5,0 0.8,0.1 1.1,0.4 0.3,0.2 0.4,0.6 0.4,1 0,0.2 0,0.5 -0.1,1 l -0.7,3.4 h -1 l 0.8,-3.6 c 0.1,-0.3 0.1,-0.6 0.1,-0.8 0,-0.2 -0.1,-0.3 -0.2,-0.5 -0.1,-0.2 -0.3,-0.2 -0.6,-0.2 -0.5,0 -0.9,0.2 -1.3,0.5 -0.4,0.4 -0.7,1 -0.9,1.8 l -0.6,2.6 z"
   id="path438" />
<path
   class="st0"
   d="m -259.7,-554.3 1,-0.1 c 0,0.3 0,0.5 0.1,0.7 0.1,0.2 0.2,0.4 0.5,0.5 0.2,0.1 0.5,0.2 0.8,0.2 0.4,0 0.7,-0.1 1,-0.3 0.2,-0.2 0.3,-0.4 0.3,-0.6 0,-0.2 -0.1,-0.3 -0.2,-0.5 -0.1,-0.1 -0.5,-0.3 -1,-0.6 -0.5,-0.2 -0.8,-0.4 -1,-0.5 -0.2,-0.1 -0.4,-0.3 -0.5,-0.5 -0.1,-0.2 -0.2,-0.4 -0.2,-0.7 0,-0.4 0.2,-0.8 0.5,-1.2 0.3,-0.4 0.9,-0.5 1.5,-0.5 0.7,0 1.3,0.2 1.6,0.5 0.4,0.3 0.6,0.8 0.6,1.3 l -0.9,0.1 c 0,-0.3 -0.1,-0.6 -0.4,-0.8 -0.2,-0.2 -0.6,-0.3 -1,-0.3 -0.3,0 -0.6,0.1 -0.8,0.2 -0.2,0.2 -0.3,0.3 -0.3,0.5 0,0.2 0.1,0.3 0.2,0.5 0.1,0.1 0.4,0.2 0.8,0.4 0.7,0.3 1.2,0.6 1.4,0.8 0.3,0.3 0.5,0.7 0.5,1.1 0,0.3 -0.1,0.6 -0.3,0.8 -0.2,0.3 -0.4,0.5 -0.8,0.6 -0.4,0.2 -0.8,0.2 -1.3,0.2 -0.7,0 -1.2,-0.2 -1.7,-0.5 -0.2,0 -0.4,-0.6 -0.4,-1.3"
   id="path440" />
<path
   class="st0"
   d="m -252,-553.1 -0.2,0.8 c -0.2,0.1 -0.5,0.1 -0.7,0.1 -0.4,0 -0.7,-0.1 -0.9,-0.3 -0.2,-0.1 -0.3,-0.3 -0.3,-0.6 0,-0.1 0,-0.4 0.1,-0.9 l 0.7,-3.3 h -0.8 l 0.2,-0.7 h 0.8 l 0.3,-1.4 1.1,-0.7 -0.4,2.1 h 1 l -0.2,0.7 h -0.9 l -0.7,3.1 c -0.1,0.4 -0.1,0.6 -0.1,0.7 0,0.1 0,0.2 0.1,0.3 0.1,0.1 0.2,0.1 0.3,0.1 0.2,0 0.4,0 0.6,0"
   id="path442" />
<path
   class="st0"
   d="m -251.3,-552.4 1.2,-5.7 h 1 l -1.2,5.7 z m 1.4,-6.7 0.2,-1.1 h 1 l -0.2,1.1 z"
   id="path444" />
<path
   class="st0"
   d="m -246.6,-553.1 -0.2,0.8 c -0.2,0.1 -0.5,0.1 -0.7,0.1 -0.4,0 -0.7,-0.1 -0.9,-0.3 -0.2,-0.1 -0.3,-0.3 -0.3,-0.6 0,-0.1 0,-0.4 0.1,-0.9 l 0.7,-3.3 h -0.8 l 0.2,-0.7 h 0.8 l 0.3,-1.4 1.1,-0.7 -0.4,2.1 h 1 l -0.2,0.7 h -0.9 l -0.7,3.1 c -0.1,0.4 -0.1,0.6 -0.1,0.7 0,0.1 0,0.2 0.1,0.3 0.1,0.1 0.2,0.1 0.3,0.1 0.3,0 0.5,0 0.6,0"
   id="path446" />
<path
   class="st0"
   d="m -241.9,-553.4 c -0.7,0.8 -1.4,1.2 -2.1,1.2 -0.4,0 -0.8,-0.1 -1.1,-0.4 -0.3,-0.3 -0.4,-0.6 -0.4,-0.9 0,-0.2 0.1,-0.6 0.2,-1.2 l 0.7,-3.3 h 1 l -0.8,3.6 c -0.1,0.3 -0.1,0.5 -0.1,0.7 0,0.2 0.1,0.4 0.2,0.5 0.1,0.1 0.3,0.2 0.6,0.2 0.3,0 0.5,-0.1 0.8,-0.2 0.3,-0.1 0.5,-0.3 0.7,-0.5 0.2,-0.2 0.3,-0.5 0.5,-0.8 0.1,-0.2 0.2,-0.5 0.3,-1 l 0.5,-2.5 h 1 l -1.2,5.7 h -0.9 z"
   id="path448" />
<path
   class="st0"
   d="m -237.4,-553.1 -0.2,0.8 c -0.2,0.1 -0.5,0.1 -0.7,0.1 -0.4,0 -0.7,-0.1 -0.9,-0.3 -0.2,-0.1 -0.3,-0.3 -0.3,-0.6 0,-0.1 0,-0.4 0.1,-0.9 l 0.7,-3.3 h -0.8 l 0.2,-0.7 h 0.8 l 0.3,-1.4 1.1,-0.7 -0.4,2.1 h 1 l -0.2,0.7 h -0.9 l -0.7,3.1 c -0.1,0.4 -0.1,0.6 -0.1,0.7 0,0.1 0,0.2 0.1,0.3 0.1,0.1 0.2,0.1 0.3,0.1 0.2,0 0.4,0 0.6,0"
   id="path450" />
<path
   class="st0"
   d="m -232.5,-554.3 0.9,0.1 c -0.1,0.5 -0.4,0.9 -0.9,1.3 -0.5,0.4 -1.1,0.6 -1.7,0.6 -0.4,0 -0.8,-0.1 -1.2,-0.3 -0.4,-0.2 -0.6,-0.5 -0.8,-0.8 -0.2,-0.4 -0.3,-0.8 -0.3,-1.3 0,-0.6 0.1,-1.2 0.4,-1.8 0.3,-0.6 0.7,-1 1.1,-1.3 0.5,-0.3 0.9,-0.4 1.5,-0.4 0.7,0 1.2,0.2 1.6,0.6 0.4,0.4 0.6,1 0.6,1.7 0,0.3 0,0.6 -0.1,0.9 h -4.2 c 0,0.1 0,0.2 0,0.3 0,0.5 0.1,0.9 0.4,1.2 0.2,0.3 0.5,0.4 0.9,0.4 0.3,0 0.7,-0.1 1,-0.3 0.4,-0.2 0.6,-0.5 0.8,-0.9 m -2.8,-1.4 h 3.2 c 0,-0.1 0,-0.2 0,-0.2 0,-0.5 -0.1,-0.9 -0.4,-1.1 -0.2,-0.3 -0.6,-0.4 -0.9,-0.4 -0.4,0 -0.8,0.1 -1.1,0.4 -0.4,0.3 -0.6,0.7 -0.8,1.3"
   id="path452" />
<path
   class="st0"
   d="m -227.4,-554.5 c 0,-1.1 0.3,-2 1,-2.8 0.5,-0.6 1.2,-0.9 2.1,-0.9 0.7,0 1.2,0.2 1.7,0.6 0.4,0.4 0.6,1 0.6,1.7 0,0.7 -0.1,1.3 -0.4,1.8 -0.3,0.6 -0.6,1 -1.1,1.3 -0.5,0.3 -1,0.4 -1.5,0.4 -0.4,0 -0.8,-0.1 -1.2,-0.3 -0.4,-0.2 -0.6,-0.5 -0.8,-0.8 -0.3,-0.2 -0.4,-0.6 -0.4,-1 m 1,-0.1 c 0,0.5 0.1,0.9 0.4,1.2 0.3,0.3 0.6,0.4 1,0.4 0.2,0 0.4,0 0.6,-0.1 0.2,-0.1 0.4,-0.2 0.6,-0.4 0.2,-0.2 0.3,-0.4 0.4,-0.6 0.1,-0.2 0.2,-0.5 0.3,-0.7 0.1,-0.4 0.2,-0.7 0.2,-1 0,-0.5 -0.1,-0.9 -0.4,-1.2 -0.3,-0.3 -0.6,-0.4 -1,-0.4 -0.3,0 -0.6,0.1 -0.8,0.2 -0.2,0.1 -0.5,0.4 -0.7,0.6 -0.2,0.3 -0.4,0.6 -0.4,1 -0.2,0.4 -0.2,0.7 -0.2,1"
   id="path454" />
<path
   class="st0"
   d="m -221.3,-552.4 1,-4.9 h -0.9 l 0.2,-0.7 h 0.9 l 0.2,-0.8 c 0.1,-0.4 0.2,-0.7 0.3,-0.9 0.1,-0.2 0.2,-0.3 0.4,-0.4 0.2,-0.1 0.5,-0.2 0.8,-0.2 0.2,0 0.6,0.1 1.1,0.2 l -0.2,0.8 c -0.3,-0.1 -0.6,-0.1 -0.8,-0.1 -0.2,0 -0.3,0 -0.4,0.1 -0.1,0.1 -0.2,0.3 -0.3,0.7 l -0.1,0.6 h 1.1 l -0.2,0.7 h -1.1 l -1,4.9 z"
   id="path456" />
<path
   class="st0"
   d="m -300,-541 -0.5,-7.8 h 1.1 l 0.2,3.9 c 0,0.2 0,0.7 0.1,1.5 0,0.2 0,0.4 0,0.5 0,0.1 0,0.2 0,0.5 0.4,-0.9 0.7,-1.5 0.9,-1.9 l 2.4,-4.5 h 1.1 l 0.3,4.6 c 0,0.5 0,1.2 0.1,1.9 0.1,-0.2 0.2,-0.5 0.3,-0.8 0.3,-0.6 0.5,-1 0.6,-1.2 l 2.2,-4.4 h 1.1 l -4,7.8 h -1.1 l -0.3,-4.7 c 0,-0.4 0,-0.9 -0.1,-1.5 -0.2,0.5 -0.4,0.9 -0.5,1.2 l -2.7,5.1 z"
   id="path458" />
<path
   class="st0"
   d="m -287.6,-541.7 c -0.3,0.3 -0.7,0.5 -1,0.6 -0.3,0.1 -0.6,0.2 -1,0.2 -0.5,0 -0.9,-0.2 -1.3,-0.5 -0.3,-0.3 -0.5,-0.7 -0.5,-1.2 0,-0.3 0.1,-0.6 0.2,-0.8 0.1,-0.2 0.3,-0.4 0.6,-0.6 0.2,-0.1 0.5,-0.3 0.9,-0.3 0.2,0 0.6,-0.1 1.2,-0.1 0.6,0 1,-0.1 1.3,-0.2 0.1,-0.3 0.1,-0.5 0.1,-0.7 0,-0.2 -0.1,-0.4 -0.2,-0.5 -0.2,-0.2 -0.6,-0.3 -1,-0.3 -0.4,0 -0.7,0.1 -1,0.3 -0.3,0.2 -0.4,0.4 -0.6,0.8 l -1,-0.1 c 0.2,-0.6 0.5,-1 0.9,-1.3 0.4,-0.3 1,-0.4 1.6,-0.4 0.7,0 1.3,0.2 1.7,0.5 0.3,0.2 0.5,0.6 0.5,1 0,0.3 0,0.7 -0.1,1.1 l -0.3,1.4 c -0.1,0.4 -0.1,0.8 -0.1,1.1 0,0.2 0,0.4 0.1,0.8 h -1 c 0.1,-0.3 0.1,-0.5 0,-0.8 m 0.4,-2.2 c -0.1,0.1 -0.3,0.1 -0.4,0.1 -0.2,0 -0.4,0.1 -0.8,0.1 -0.6,0 -1,0.1 -1.2,0.2 -0.2,0.1 -0.4,0.2 -0.5,0.4 -0.1,0.2 -0.2,0.4 -0.2,0.6 0,0.3 0.1,0.5 0.3,0.7 0.2,0.2 0.5,0.3 0.8,0.3 0.3,0 0.6,-0.1 0.9,-0.3 0.3,-0.2 0.5,-0.4 0.7,-0.7 0.2,-0.4 0.3,-0.8 0.4,-1.4"
   id="path460" />
<path
   class="st0"
   d="m -283,-541.8 -0.2,0.8 c -0.2,0.1 -0.5,0.1 -0.7,0.1 -0.4,0 -0.7,-0.1 -0.9,-0.3 -0.2,-0.1 -0.3,-0.3 -0.3,-0.6 0,-0.1 0,-0.4 0.1,-0.9 l 0.7,-3.3 h -0.8 l 0.2,-0.7 h 0.8 l 0.3,-1.4 1.1,-0.7 -0.4,2.1 h 0.9 l -0.2,0.7 h -0.9 l -0.7,3.1 c -0.1,0.4 -0.1,0.6 -0.1,0.7 0,0.1 0,0.2 0.1,0.3 0.1,0.1 0.2,0.1 0.3,0.1 0.3,0.1 0.5,0.1 0.7,0"
   id="path462" />
<path
   class="st0"
   d="m -278.4,-543.1 1,0.1 c -0.2,0.7 -0.6,1.2 -1,1.6 -0.4,0.3 -1,0.5 -1.5,0.5 -0.6,0 -1.1,-0.2 -1.5,-0.6 -0.4,-0.4 -0.6,-1 -0.6,-1.7 0,-0.6 0.1,-1.2 0.4,-1.8 0.2,-0.6 0.6,-1.1 1.1,-1.4 0.5,-0.3 1,-0.5 1.6,-0.5 0.6,0 1.1,0.2 1.4,0.5 0.4,0.3 0.5,0.8 0.5,1.4 l -1,0.1 c 0,-0.4 -0.1,-0.6 -0.3,-0.8 -0.2,-0.2 -0.5,-0.3 -0.8,-0.3 -0.4,0 -0.7,0.1 -1,0.4 -0.3,0.2 -0.5,0.6 -0.7,1.1 -0.2,0.5 -0.2,1 -0.2,1.4 0,0.5 0.1,0.8 0.3,1.1 0.2,0.2 0.5,0.4 0.8,0.4 0.3,0 0.6,-0.1 0.9,-0.4 0.3,-0.2 0.5,-0.6 0.6,-1.1"
   id="path464" />
<path
   class="st0"
   d="m -276.8,-541 1.6,-7.8 h 1 l -0.6,3 c 0.4,-0.3 0.7,-0.6 1,-0.8 0.3,-0.2 0.6,-0.2 1,-0.2 0.5,0 0.8,0.1 1.1,0.4 0.3,0.2 0.4,0.6 0.4,1 0,0.2 -0.1,0.6 -0.2,1.1 l -0.7,3.3 h -1 l 0.7,-3.4 c 0.1,-0.5 0.2,-0.8 0.2,-0.9 0,-0.2 -0.1,-0.3 -0.2,-0.5 -0.1,-0.1 -0.3,-0.2 -0.6,-0.2 -0.4,0 -0.7,0.1 -1,0.3 -0.3,0.2 -0.6,0.4 -0.7,0.8 -0.2,0.3 -0.3,0.8 -0.5,1.5 l -0.5,2.4 z"
   id="path466" />
<polygon
   class="st0"
   points="-233.8,-540.2 -235.5,-532.4 -236.5,-532.4 -234.9,-540.2 "
   id="polygon468"
   transform="translate(-30.9,-8.6000004)" />
<path
   class="st0"
   d="m -264.6,-541 1.2,-5.7 h 0.9 l -0.2,1 c 0.4,-0.4 0.7,-0.7 1.1,-0.8 0.3,-0.2 0.7,-0.3 1,-0.3 0.5,0 0.8,0.1 1.1,0.4 0.3,0.2 0.4,0.6 0.4,1 0,0.2 0,0.5 -0.1,1 l -0.7,3.4 h -1 l 0.8,-3.6 c 0.1,-0.3 0.1,-0.6 0.1,-0.8 0,-0.2 -0.1,-0.3 -0.2,-0.5 -0.1,-0.1 -0.3,-0.2 -0.6,-0.2 -0.5,0 -0.9,0.2 -1.3,0.5 -0.4,0.4 -0.7,1 -0.9,1.8 l -0.6,2.6 z"
   id="path470" />
<path
   class="st0"
   d="m -256.3,-541.8 -0.2,0.8 c -0.2,0.1 -0.5,0.1 -0.7,0.1 -0.4,0 -0.7,-0.1 -0.9,-0.3 -0.2,-0.1 -0.3,-0.3 -0.3,-0.6 0,-0.1 0,-0.4 0.1,-0.9 l 0.7,-3.3 h -0.8 l 0.2,-0.7 h 0.8 l 0.3,-1.4 1.1,-0.7 -0.4,2.1 h 1 l -0.2,0.7 h -0.9 l -0.7,3.1 c -0.1,0.4 -0.1,0.6 -0.1,0.7 0,0.1 0,0.2 0.1,0.3 0.1,0.1 0.2,0.1 0.3,0.1 0.2,0.1 0.4,0.1 0.6,0"
   id="path472" />
<path
   class="st0"
   d="m -251.3,-542.9 0.9,0.1 c -0.1,0.5 -0.4,0.9 -0.9,1.3 -0.5,0.4 -1.1,0.6 -1.7,0.6 -0.4,0 -0.8,-0.1 -1.2,-0.3 -0.4,-0.2 -0.6,-0.5 -0.8,-0.8 -0.2,-0.4 -0.3,-0.8 -0.3,-1.3 0,-0.6 0.1,-1.2 0.4,-1.8 0.3,-0.6 0.7,-1 1.1,-1.3 0.5,-0.3 0.9,-0.4 1.5,-0.4 0.7,0 1.2,0.2 1.6,0.6 0.4,0.4 0.6,1 0.6,1.7 0,0.3 0,0.6 -0.1,0.9 h -4.2 c 0,0.1 0,0.2 0,0.3 0,0.5 0.1,0.9 0.4,1.2 0.2,0.3 0.5,0.4 0.9,0.4 0.3,0 0.7,-0.1 1,-0.3 0.3,-0.2 0.6,-0.5 0.8,-0.9 m -2.9,-1.4 h 3.2 c 0,-0.1 0,-0.2 0,-0.2 0,-0.5 -0.1,-0.9 -0.4,-1.1 -0.2,-0.3 -0.6,-0.4 -0.9,-0.4 -0.4,0 -0.8,0.1 -1.1,0.4 -0.3,0.3 -0.6,0.7 -0.8,1.3"
   id="path474" />
<path
   class="st0"
   d="m -249.4,-541 1.2,-5.7 h 0.9 l -0.2,1.2 c 0.3,-0.4 0.6,-0.8 0.9,-1 0.3,-0.2 0.6,-0.3 0.9,-0.3 0.2,0 0.4,0.1 0.7,0.2 l -0.4,0.9 c -0.2,-0.1 -0.4,-0.2 -0.6,-0.2 -0.3,0 -0.7,0.2 -1,0.6 -0.4,0.4 -0.6,1.1 -0.8,2 l -0.5,2.3 z"
   id="path476" />
<path
   class="st0"
   d="m -245.8,-541 1.2,-5.7 h 0.9 l -0.2,1 c 0.4,-0.4 0.7,-0.7 1.1,-0.8 0.3,-0.2 0.7,-0.3 1,-0.3 0.5,0 0.8,0.1 1.1,0.4 0.3,0.2 0.4,0.6 0.4,1 0,0.2 0,0.5 -0.1,1 l -0.7,3.4 h -1 l 0.8,-3.6 c 0.1,-0.3 0.1,-0.6 0.1,-0.8 0,-0.2 -0.1,-0.3 -0.2,-0.5 -0.1,-0.1 -0.3,-0.2 -0.6,-0.2 -0.5,0 -0.9,0.2 -1.3,0.5 -0.4,0.4 -0.7,1 -0.9,1.8 l -0.5,2.6 z"
   id="path478" />
<path
   class="st0"
   d="m -235.5,-542.9 0.9,0.1 c -0.1,0.5 -0.4,0.9 -0.9,1.3 -0.5,0.4 -1.1,0.6 -1.7,0.6 -0.4,0 -0.8,-0.1 -1.2,-0.3 -0.4,-0.2 -0.6,-0.5 -0.8,-0.8 -0.2,-0.4 -0.3,-0.8 -0.3,-1.3 0,-0.6 0.1,-1.2 0.4,-1.8 0.3,-0.6 0.7,-1 1.1,-1.3 0.4,-0.3 0.9,-0.4 1.5,-0.4 0.7,0 1.2,0.2 1.6,0.6 0.4,0.4 0.6,1 0.6,1.7 0,0.3 0,0.6 -0.1,0.9 h -4.2 c 0,0.1 0,0.2 0,0.3 0,0.5 0.1,0.9 0.4,1.2 0.2,0.3 0.5,0.4 0.9,0.4 0.3,0 0.7,-0.1 1,-0.3 0.3,-0.2 0.6,-0.5 0.8,-0.9 m -2.8,-1.4 h 3.2 c 0,-0.1 0,-0.2 0,-0.2 0,-0.5 -0.1,-0.9 -0.4,-1.1 -0.2,-0.3 -0.6,-0.4 -0.9,-0.4 -0.4,0 -0.8,0.1 -1.1,0.4 -0.4,0.3 -0.7,0.7 -0.8,1.3"
   id="path480" />
<path
   class="st0"
   d="m -231.4,-541.8 -0.2,0.8 c -0.2,0.1 -0.5,0.1 -0.7,0.1 -0.4,0 -0.7,-0.1 -0.9,-0.3 -0.2,-0.1 -0.3,-0.3 -0.3,-0.6 0,-0.1 0,-0.4 0.1,-0.9 l 0.7,-3.3 h -0.8 l 0.2,-0.7 h 0.8 l 0.3,-1.4 1.1,-0.7 -0.4,2.1 h 0.9 l -0.2,0.7 h -0.9 l -0.7,3.1 c -0.1,0.4 -0.1,0.6 -0.1,0.7 0,0.1 0,0.2 0.1,0.3 0.1,0.1 0.2,0.1 0.3,0.1 0.4,0.1 0.6,0.1 0.7,0"
   id="path482" />
<path
   class="st0"
   d="m -227.4,-541 1.6,-7.8 h 1 l 1.3,2.9 c 0.4,0.9 0.7,1.7 1,2.3 0.1,0.4 0.3,0.8 0.5,1.4 0.1,-0.7 0.2,-1.3 0.4,-2 l 1,-4.6 h 1 l -1.6,7.8 h -1 l -1.9,-4.5 c -0.3,-0.8 -0.6,-1.5 -0.8,-2.1 -0.1,0.5 -0.2,1.1 -0.3,1.9 l -1,4.8 h -1.2 z"
   id="path484" />
<path
   class="st0"
   d="m -215.5,-542.9 0.9,0.1 c -0.1,0.5 -0.4,0.9 -0.9,1.3 -0.5,0.4 -1.1,0.6 -1.7,0.6 -0.4,0 -0.8,-0.1 -1.2,-0.3 -0.4,-0.2 -0.6,-0.5 -0.8,-0.8 -0.2,-0.4 -0.3,-0.8 -0.3,-1.3 0,-0.6 0.1,-1.2 0.4,-1.8 0.3,-0.6 0.7,-1 1.1,-1.3 0.4,-0.3 0.9,-0.4 1.5,-0.4 0.7,0 1.2,0.2 1.6,0.6 0.4,0.4 0.6,1 0.6,1.7 0,0.3 0,0.6 -0.1,0.9 h -4.2 c 0,0.1 0,0.2 0,0.3 0,0.5 0.1,0.9 0.4,1.2 0.2,0.3 0.5,0.4 0.9,0.4 0.3,0 0.7,-0.1 1,-0.3 0.4,-0.2 0.6,-0.5 0.8,-0.9 m -2.8,-1.4 h 3.2 c 0,-0.1 0,-0.2 0,-0.2 0,-0.5 -0.1,-0.9 -0.4,-1.1 -0.2,-0.3 -0.6,-0.4 -0.9,-0.4 -0.4,0 -0.8,0.1 -1.1,0.4 -0.4,0.3 -0.6,0.7 -0.8,1.3"
   id="path486" />
<path
   class="st0"
   d="m -211.3,-541.8 -0.2,0.8 c -0.2,0.1 -0.5,0.1 -0.7,0.1 -0.4,0 -0.7,-0.1 -0.9,-0.3 -0.2,-0.1 -0.3,-0.3 -0.3,-0.6 0,-0.1 0,-0.4 0.1,-0.9 l 0.7,-3.3 h -0.8 l 0.2,-0.7 h 0.8 l 0.3,-1.4 1.1,-0.7 -0.4,2.1 h 0.9 l -0.2,0.7 h -0.9 l -0.7,3.1 c -0.1,0.4 -0.1,0.6 -0.1,0.7 0,0.1 0,0.2 0.1,0.3 0.1,0.1 0.2,0.1 0.3,0.1 0.3,0.1 0.5,0.1 0.7,0"
   id="path488" />
<path
   class="st0"
   d="m -209.4,-541 -0.6,-5.7 h 0.9 l 0.3,2.5 0.1,1.4 c 0,0.1 0,0.3 0,0.6 0.1,-0.4 0.2,-0.6 0.3,-0.8 0.1,-0.2 0.2,-0.5 0.4,-0.8 l 1.4,-3 h 1.1 l 0.2,2.8 c 0,0.4 0,1 0.1,1.7 0.2,-0.5 0.5,-1.1 0.9,-2 l 1.2,-2.6 h 1 l -2.8,5.7 h -1 l -0.2,-3.3 c 0,-0.2 0,-0.6 0,-1.2 -0.1,0.4 -0.3,0.8 -0.5,1.2 l -1.5,3.3 z"
   id="path490" />
<path
   class="st0"
   d="m -202.4,-543.1 c 0,-1.1 0.3,-2 1,-2.8 0.5,-0.6 1.2,-0.9 2.1,-0.9 0.7,0 1.2,0.2 1.7,0.6 0.4,0.4 0.6,1 0.6,1.7 0,0.7 -0.1,1.3 -0.4,1.8 -0.3,0.6 -0.6,1 -1.1,1.3 -0.5,0.3 -1,0.4 -1.5,0.4 -0.4,0 -0.8,-0.1 -1.2,-0.3 -0.4,-0.2 -0.6,-0.5 -0.8,-0.8 -0.2,-0.3 -0.4,-0.6 -0.4,-1 m 0.9,-0.1 c 0,0.5 0.1,0.9 0.4,1.2 0.3,0.3 0.6,0.4 1,0.4 0.2,0 0.4,0 0.6,-0.1 0.2,-0.1 0.4,-0.2 0.6,-0.4 0.2,-0.2 0.3,-0.4 0.4,-0.6 0.1,-0.2 0.2,-0.5 0.3,-0.7 0.1,-0.4 0.2,-0.7 0.2,-1 0,-0.5 -0.1,-0.9 -0.4,-1.2 -0.3,-0.3 -0.6,-0.4 -1,-0.4 -0.3,0 -0.6,0.1 -0.8,0.2 -0.2,0.1 -0.5,0.4 -0.7,0.6 -0.2,0.3 -0.4,0.6 -0.4,1 -0.1,0.4 -0.2,0.7 -0.2,1"
   id="path492" />
<path
   class="st0"
   d="m -196.5,-541 1.2,-5.7 h 0.9 l -0.2,1.2 c 0.3,-0.4 0.6,-0.8 0.9,-1 0.3,-0.2 0.6,-0.3 0.9,-0.3 0.2,0 0.4,0.1 0.7,0.2 l -0.4,0.9 c -0.2,-0.1 -0.4,-0.2 -0.6,-0.2 -0.3,0 -0.7,0.2 -1,0.6 -0.3,0.4 -0.6,1.1 -0.8,2 l -0.5,2.3 z"
   id="path494" />
<polygon
   class="st0"
   points="-159.4,-540.2 -160.4,-535.4 -157.6,-538.1 -156.3,-538.1 -158.7,-535.9 -157.3,-532.4 -158.3,-532.4 -159.4,-535.3 -160.6,-534.3 -161,-532.4 -162,-532.4 -160.3,-540.2 "
   id="polygon496"
   transform="translate(-30.9,-8.6000004)" />
<g
   id="g697"
   transform="matrix(0.96215018,0,0,0.96215018,-29.730441,-8.2744919)">
	<g
   id="g513">
		<g
   id="g511">
			<defs
   id="defs499">
				<path
   id="SVGID_1_"
   d="m 151.2,8.6 h -8 c 0,0 -0.4,2.4 -1,5.6 l -7.6,44.3 -7.9,-49.9 h -14.6 l 13.7,79.1 h 17.3 l 13.7,-71.1 1.5,-8 c 0.1,0 -7.1,0 -7.1,0 z" />
			</defs>
			<clipPath
   id="SVGID_2_">
				<use
   xlink:href="#SVGID_1_"
   style="overflow:visible"
   id="use501" />
			</clipPath>
			
				<linearGradient
   id="SVGID_3_"
   gradientUnits="userSpaceOnUse"
   x1="-698.14441"
   y1="-94.654297"
   x2="-695.79303"
   y2="-94.654297"
   gradientTransform="matrix(0,34.2329,34.2329,0,3375.5776,23908.744)">
				<stop
   offset="0"
   style="stop-color:#007B99"
   id="stop504" />
				<stop
   offset="1"
   style="stop-color:#007B99"
   id="stop506" />
			</linearGradient>
			<rect
   x="112.1"
   y="8.6000004"
   class="st1"
   width="46.299999"
   height="79.099998"
   clip-path="url(#SVGID_2_)"
   id="rect509"
   style="fill:url(#SVGID_3_)" />
		</g>
	</g>
	<g
   id="g530">
		<g
   id="g528">
			<defs
   id="defs516">
				<path
   id="SVGID_4_"
   d="M 112.4,8.6 106.3,58.5 98.4,14.2 C 97.8,11 95,8.6 91.7,8.6 h -2.3 -7.2 -6.5 c 4.2,1.3 6.8,3.9 8.1,8 l 13.7,71.1 h 17.3 L 127,8.6 c 0.1,0 -14.6,0 -14.6,0 z" />
			</defs>
			<clipPath
   id="SVGID_5_">
				<use
   xlink:href="#SVGID_4_"
   style="overflow:visible"
   id="use518" />
			</clipPath>
			
				<linearGradient
   id="SVGID_6_"
   gradientUnits="userSpaceOnUse"
   x1="-698.14441"
   y1="-131.24541"
   x2="-695.79303"
   y2="-131.24541"
   gradientTransform="matrix(0,34.2329,-34.2329,0,-4391.5073,23908.744)">
				<stop
   offset="0"
   style="stop-color:#007B99"
   id="stop521" />
				<stop
   offset="1"
   style="stop-color:#5EB994"
   id="stop523" />
			</linearGradient>
			<rect
   x="75.699997"
   y="8.6000004"
   class="st2"
   width="51.299999"
   height="79.099998"
   clip-path="url(#SVGID_5_)"
   id="rect526"
   style="fill:url(#SVGID_6_)" />
		</g>
	</g>
	<g
   id="g547">
		<g
   id="g545">
			<defs
   id="defs533">
				<path
   id="SVGID_7_"
   d="M 224,15.6 215.6,63 208.6,8.7 H 194 l 13.7,79.1 H 225 l 13.7,-71.2 c 0,0 1.2,-7.9 -6.5,-7.9 -6.6,-0.1 -7.6,3.6 -8.2,6.9" />
			</defs>
			<clipPath
   id="SVGID_8_">
				<use
   xlink:href="#SVGID_7_"
   style="overflow:visible"
   id="use535" />
			</clipPath>
			
				<linearGradient
   id="SVGID_9_"
   gradientUnits="userSpaceOnUse"
   x1="-698.14441"
   y1="-93.276604"
   x2="-695.79303"
   y2="-93.276604"
   gradientTransform="matrix(0,34.2329,34.2329,0,3410.0464,23908.744)">
				<stop
   offset="0"
   style="stop-color:#007B99"
   id="stop538" />
				<stop
   offset="1"
   style="stop-color:#007B99"
   id="stop540" />
			</linearGradient>
			<rect
   x="193.89999"
   y="8.6000004"
   class="st3"
   width="46"
   height="79.099998"
   clip-path="url(#SVGID_8_)"
   id="rect543"
   style="fill:url(#SVGID_9_)" />
		</g>
	</g>
	<g
   id="g564">
		<g
   id="g562">
			<defs
   id="defs550">
				<polygon
   id="SVGID_10_"
   points="183.5,8.6 168.9,8.6 153.4,87.7 169.2,87.7 " />
			</defs>
			<clipPath
   id="SVGID_11_">
				<use
   xlink:href="#SVGID_10_"
   style="overflow:visible"
   id="use552" />
			</clipPath>
			
				<linearGradient
   id="SVGID_12_"
   gradientUnits="userSpaceOnUse"
   x1="-698.14441"
   y1="-132.3707"
   x2="-695.79303"
   y2="-132.3707"
   gradientTransform="matrix(0,34.2329,-34.2329,0,-4362.9761,23908.744)">
				<stop
   offset="0"
   style="stop-color:#5EB994"
   id="stop555" />
				<stop
   offset="1"
   style="stop-color:#007B99"
   id="stop557" />
			</linearGradient>
			<rect
   x="153.39999"
   y="8.6000004"
   class="st4"
   width="30.1"
   height="79.099998"
   clip-path="url(#SVGID_11_)"
   id="rect560"
   style="fill:url(#SVGID_12_)" />
		</g>
	</g>
	<g
   id="g581">
		<g
   id="g579">
			<defs
   id="defs567">
				<polygon
   id="SVGID_13_"
   points="208.6,8.6 193.9,8.6 178.5,87.7 194.3,87.7 " />
			</defs>
			<clipPath
   id="SVGID_14_">
				<use
   xlink:href="#SVGID_13_"
   style="overflow:visible"
   id="use569" />
			</clipPath>
			
				<linearGradient
   id="SVGID_15_"
   gradientUnits="userSpaceOnUse"
   x1="-698.14441"
   y1="-132.79201"
   x2="-695.79303"
   y2="-132.79201"
   gradientTransform="matrix(0,34.2329,-34.2329,0,-4352.3198,23908.744)">
				<stop
   offset="0"
   style="stop-color:#5EB994"
   id="stop572" />
				<stop
   offset="1"
   style="stop-color:#007B99"
   id="stop574" />
			</linearGradient>
			<rect
   x="178.5"
   y="8.6000004"
   class="st5"
   width="30.1"
   height="79.099998"
   clip-path="url(#SVGID_14_)"
   id="rect577"
   style="fill:url(#SVGID_15_)" />
		</g>
	</g>
	<g
   id="g598">
		<g
   id="g596">
			<defs
   id="defs584">
				<path
   id="SVGID_16_"
   d="m 78.3,8.6 c -6.2,0 -11.7,4.2 -13.3,10.1 -1.3,4.6 2.2,9.1 7,9.1 3.1,0 5.9,-2 6.9,-5 C 82.1,13 86.4,9.6 91,8.6 Z" />
			</defs>
			<clipPath
   id="SVGID_17_">
				<use
   xlink:href="#SVGID_16_"
   style="overflow:visible"
   id="use586" />
			</clipPath>
			
				<linearGradient
   id="SVGID_18_"
   gradientUnits="userSpaceOnUse"
   x1="-696.41431"
   y1="-133.5368"
   x2="-694.06451"
   y2="-133.5368"
   gradientTransform="matrix(0,29.6784,-29.6784,0,-3885.7788,20676.937)">
				<stop
   offset="0"
   style="stop-color:#F6C984"
   id="stop589" />
				<stop
   offset="1"
   style="stop-color:#E76D3B"
   id="stop591" />
			</linearGradient>
			<rect
   x="63.700001"
   y="8.6000004"
   class="st6"
   width="27.299999"
   height="19.299999"
   clip-path="url(#SVGID_17_)"
   id="rect594"
   style="fill:url(#SVGID_18_)" />
		</g>
	</g>
	<g
   id="g615">
		<g
   id="g613">
			<defs
   id="defs601">
				<polygon
   id="SVGID_19_"
   points="75.1,35.5 60.4,35.5 46.1,87.7 61.3,87.7 " />
			</defs>
			<clipPath
   id="SVGID_20_">
				<use
   xlink:href="#SVGID_19_"
   style="overflow:visible"
   id="use603" />
			</clipPath>
			
				<linearGradient
   id="SVGID_21_"
   gradientUnits="userSpaceOnUse"
   x1="-696.41382"
   y1="-133.22141"
   x2="-694.06348"
   y2="-133.22141"
   gradientTransform="matrix(0,29.6782,-29.6782,0,-3893.1555,20676.81)">
				<stop
   offset="0"
   style="stop-color:#F6C984"
   id="stop606" />
				<stop
   offset="1"
   style="stop-color:#E76D3B"
   id="stop608" />
			</linearGradient>
			<rect
   x="46.099998"
   y="35.5"
   class="st7"
   width="29"
   height="52.200001"
   clip-path="url(#SVGID_20_)"
   id="rect611"
   style="fill:url(#SVGID_21_)" />
		</g>
	</g>
	<path
   class="st0"
   d="m 32.9,125.8 1.8,0.2 c -0.6,2.5 -1.1,4.5 -1.8,6.2 l -2,-0.6 c 0.8,-1.8 1.5,-3.8 2,-5.8 m 6,-16.7 2,0.7 c -1.2,2.4 -2.5,4.5 -3.8,6.4 0.7,-0.1 1.5,-0.2 2.2,-0.3 0.7,-1.1 1.5,-2.4 2.3,-3.7 l 1.9,0.8 c -2.4,3.9 -4.7,7.2 -7,9.6 1.1,-0.1 2.1,-0.2 2.9,-0.5 0,-0.8 0,-1.6 0,-2.3 l 1.9,-0.6 c 0.1,1.5 0.2,3.2 0.2,5.1 l -2.1,0.5 c 0,-0.3 0,-0.6 0,-0.9 -1.7,0.4 -3.8,0.7 -6.5,0.9 l -0.2,-2.2 c 0.5,0 1,0 1.4,0 1.2,-1.3 2.5,-2.9 3.8,-4.8 -1.3,0.2 -2.7,0.5 -4.2,0.7 l -0.1,-2.1 c 0.4,0 0.8,-0.1 1.3,-0.1 1.4,-2.1 2.7,-4.6 4,-7.2 m -1.6,16.6 c 0.1,1.4 0,3.2 -0.3,5.5 l -2,0.2 c 0.4,-2.4 0.6,-4.2 0.6,-5.5 z m 2.6,-0.4 c 0.2,1.8 0.4,3.4 0.4,4.9 l -2,0.7 c 0,-1.7 0,-3.5 -0.1,-5.1 z M 57.5,110.2 54,129.7 c -0.1,0.8 -0.5,1.5 -0.9,1.9 -0.4,0.4 -0.9,0.6 -1.6,0.6 h -3 l -0.1,-2.3 2.7,0.1 c 0.5,-0.1 0.7,-0.4 0.9,-1 l 1,-5.7 h -5.3 l -0.5,2.7 c -0.1,0.5 0.1,0.8 0.7,0.8 h 3.5 l -0.3,1.9 h -4 c -0.7,0 -1.3,-0.1 -1.7,-0.5 -0.4,-0.3 -0.5,-0.8 -0.4,-1.5 l 0.6,-3.4 H 44 l -1.6,8.9 h -2.2 l 3.9,-22.1 z m -13.2,11.2 h 3.4 l 0.5,-3 h -3.4 z m 0.9,-4.9 h 1.9 c -0.2,-1.2 -0.4,-2.3 -0.7,-3.3 l 2.1,-0.3 c 0.2,1 0.4,2.2 0.6,3.6 h 1.2 c 0.6,-1.1 1.1,-2.3 1.5,-3.6 l 2,0.3 c -0.4,1.2 -0.9,2.3 -1.5,3.3 h 1.8 L 55,112 h -9 z m 5.2,2 -0.5,3 h 3.4 l 0.5,-3 z"
   id="path617" />
	<path
   class="st0"
   d="m 61.5,110.2 h 8 l -0.7,4.2 c 1.2,-0.7 2.2,-1.4 3.1,-2.2 0.8,-0.7 1.6,-1.6 2.4,-3 l 2.3,0.3 c -0.4,0.6 -0.8,1.2 -1.2,1.8 h 6.7 l -0.3,1.8 c -1.7,2 -3.3,3.6 -4.9,4.9 1.2,0.8 2.9,1.7 5.1,2.5 l -1.4,2.1 c -2.5,-1.1 -4.4,-2.1 -5.8,-3.1 -1.9,1.2 -4.4,2.3 -7.4,3.1 L 67.3,122.2 67,124 h -2.7 l -0.8,4.3 c 1.1,-0.3 2.1,-0.6 3.1,-0.9 l -0.4,2.1 c -2.9,1 -6.1,1.9 -9.7,2.7 L 56.3,130 c 0.5,-0.1 0.9,-0.2 1.3,-0.3 l 1.7,-9.7 h 1.9 l -1.6,9.3 c 0.6,-0.1 1.1,-0.2 1.6,-0.4 l 1.9,-10.6 H 60 Z m 4.8,6.1 0.7,-4.2 h -3.9 l -0.7,4.2 z m 0.9,5.4 -0.5,-1.3 c 2.6,-0.7 4.8,-1.5 6.5,-2.5 -0.7,-0.7 -1.3,-1.6 -2,-2.7 -0.7,0.5 -1.4,0.9 -2.1,1.3 l -0.7,-1.2 -0.5,2.9 h -2.7 l -0.6,3.5 z m 12.5,0.9 -1.7,9.8 h -2.3 l 0.2,-1 h -6.3 l -0.2,1 h -2.3 l 1.7,-9.8 z m -9.7,6.6 h 6.3 l 0.8,-4.3 h -6.3 z m 3.1,-15.3 c 0.8,1.2 1.5,2.2 2.2,2.8 1.1,-0.8 2.3,-1.9 3.6,-3.2 h -5.4 c -0.1,0.1 -0.3,0.3 -0.4,0.4"
   id="path619" />
	<path
   class="st0"
   d="m 106.4,114.2 -2.7,15.4 c -0.2,0.9 -0.5,1.5 -1,2 -0.5,0.4 -1,0.6 -1.7,0.6 h -4.3 v -2.5 l 3.7,0.2 c 0.5,-0.1 0.9,-0.4 1,-1.1 l 0.6,-3.3 -1.8,1.7 c -1.2,-1.4 -2.1,-2.7 -2.8,-4 -0.6,-1.2 -1.1,-2.7 -1.5,-4.2 -0.6,1 -1.1,1.8 -1.7,2.6 -1.5,2 -3.6,4 -6.1,6 l -0.7,-1.6 -1.1,6.3 H 83.8 L 87,114.2 h 8.6 l 0.4,-2.5 h -5.4 l 0.3,-2 h 7.9 l -0.8,4.5 z m -19,10.8 c 2.3,-1.8 4,-3.4 5.1,-4.9 0.8,-1 1.6,-2.3 2.4,-3.8 H 89 Z m 10.2,-8.7 c 0.3,1.6 0.7,3 1.3,4.3 0.6,1.4 1.6,2.8 3.1,4.2 l 1.5,-8.5 z"
   id="path621" />
	<path
   class="st0"
   d="m 121.2,117.6 h 1 c 1.3,1.5 2.8,2.7 4.3,3.6 1.1,0.7 3,1.5 5.8,2.5 l -1.8,2.1 c -0.7,-0.2 -1.3,-0.4 -2,-0.7 l -1.3,7.4 h -2.5 l 0.2,-1.2 h -12 l -0.2,1.2 h -2.5 l 1.3,-7.7 c -0.8,0.3 -1.6,0.6 -2.4,0.9 l -0.7,-2.2 c 3,-0.9 5.4,-1.9 7.1,-2.8 1.4,-0.8 2.9,-1.8 4.5,-3.1 z m 2.1,-8.4 c 0.2,0.7 0.4,1.4 0.5,2.3 h 9.8 l -0.9,4.9 h -2.4 l 0.5,-2.6 h -17.6 l -0.5,2.6 h -2.4 l 0.9,-4.9 h 10.1 c -0.2,-0.7 -0.4,-1.3 -0.6,-1.9 z m -4.5,4.9 1.3,1.4 c -2.3,1.9 -5.2,3.6 -8.4,5.1 l -1.1,-2 c 2.9,-1.2 5.6,-2.7 8.2,-4.5 m -5.4,15.1 h 12 l 0.6,-3.4 h -12 z m 1,-5.6 h 11.5 c -1.7,-1 -3.4,-2.3 -5,-4 -1.8,1.3 -3.4,2.4 -5,3.3 -0.5,0.2 -1,0.5 -1.5,0.7 m 10.6,-9.2 c 2.8,1.6 5.1,3.1 7,4.6 l -2.1,1.8 c -1.5,-1.5 -3.8,-3.1 -6.9,-4.9 z"
   id="path623" />
	<path
   class="st0"
   d="m 137.2,110.2 h 8.1 L 145,112 c -0.9,1.9 -1.9,4 -3,6.1 0.4,1.1 0.7,2.2 0.8,3.1 0.2,0.9 0.2,1.8 0.1,2.4 -0.3,1.3 -0.7,2.3 -1.4,2.8 -0.7,0.7 -2,1 -4,1 l -0.3,-2.4 c 0.4,0.1 0.8,0.1 1.2,0.1 0.6,0 1,-0.1 1.4,-0.4 0.4,-0.2 0.6,-0.6 0.7,-1.2 0.1,-0.8 0.1,-1.5 0,-2.1 -0.1,-0.9 -0.4,-1.9 -1,-3.1 1.3,-2.4 2.3,-4.4 2.9,-6 H 139 l -3.5,20.1 h -2.4 z m 14.7,-1 c 0.4,1.1 0.8,2.3 1.1,3.6 h 6.2 l -0.4,2.3 h -8.5 l -0.6,3.4 h 7.4 c -1.3,6.7 -2.3,10.6 -2.9,11.8 -0.7,1.1 -1.7,1.7 -3.3,1.7 -1.5,0 -2.6,0 -3.2,-0.1 l -0.1,-2.5 c 1.2,0.2 2.5,0.3 3.8,0.3 0.6,0 1.1,-0.5 1.4,-1.5 0.3,-0.7 0.8,-3.1 1.6,-7.4 h -5 c -0.5,2.1 -1.3,3.9 -2.2,5.4 -1.2,2 -3.3,4.1 -6.2,6.2 l -1.7,-1.8 c 2.6,-1.6 4.5,-3.3 5.7,-5.1 1.1,-1.5 1.9,-3.8 2.4,-6.8 l 0.6,-3.5 h -3.4 l 0.4,-2.3 h 5.6 c -0.3,-1.2 -0.7,-2.3 -1.2,-3.3 z"
   id="path625" />
	<path
   class="st0"
   d="m 167.2,123.4 -1.3,7.2 h -4.8 l -0.3,1.7 h -2.3 l 1.6,-8.9 z m -6.5,-4 h 7.1 l -0.4,2 h -7.1 z m 5.9,-10.2 c 0.1,0.8 0.1,1.7 0.1,2.8 h 3.1 l 0.2,-1.3 h 3.2 l 0.3,-1.5 h 2.1 l -0.3,1.5 h 4 l 0.3,-1.5 h 2.1 l -0.3,1.5 h 3.2 l -0.3,1.6 h -3.2 l -0.2,1.1 h -2.1 l 0.2,-1.1 h -4 l -0.2,1.1 h -2.1 l 0.2,-1.1 h -3 l -0.3,1.8 h -8.9 l 0.4,-2.1 h 3.2 c -0.1,-0.9 -0.1,-1.7 -0.2,-2.5 z m -5.3,6.5 h 7 l -0.3,1.8 c 1.6,-1.2 3,-2.6 4,-4.1 l 1.9,0.4 c -0.2,0.3 -0.4,0.6 -0.7,0.9 h 2.9 c -0.2,-0.5 -0.4,-1 -0.6,-1.4 l 2.1,-0.3 c 0.2,0.5 0.3,1 0.5,1.7 h 5.3 l -0.3,1.6 H 178 l -0.2,1.1 h 4.7 l -0.2,1.4 h -4.7 l -0.2,1.3 h 4.7 l -0.2,1.4 h -4.7 l -0.2,1.3 h 5.3 l -0.3,1.6 h -13.4 l 1,-5.6 c -0.4,0.4 -0.8,0.7 -1.3,1 l -1.1,-1.7 c 0.2,-0.1 0.4,-0.3 0.5,-0.4 H 161 Z m 0.1,12.8 h 2.6 l 0.5,-3.1 H 162 Z m 6.8,-3 h 13 l -0.2,1.4 c -1.2,1 -2.6,2 -4.4,2.8 1.4,0.3 3,0.6 5,0.9 l -1.4,1.7 c -2.8,-0.5 -4.8,-0.9 -6.3,-1.5 -2.2,0.8 -4.5,1.3 -7.1,1.7 l -0.6,-1.8 c 2,-0.2 3.8,-0.5 5.4,-0.9 -1,-0.6 -1.9,-1.2 -2.6,-1.9 l 1.4,-0.7 h -2.6 z m 6.5,-2.8 0.2,-1.3 h -3.6 l -0.2,1.3 z m -3.6,4.5 c 0.8,0.7 1.8,1.3 3.1,1.8 1.3,-0.5 2.4,-1.1 3.5,-1.8 z m 4.1,-7.2 0.2,-1.3 h -3.6 l -0.2,1.3 z m 0.5,-2.6 0.2,-1.1 h -3.6 l -0.2,1.1 z"
   id="path627" />
	<path
   class="st0"
   d="m 186.4,114 h 2.6 l 0.8,-4.8 h 2.2 l -0.8,4.8 h 2 l -0.4,2.1 h -2 l -0.2,1.4 c 0.7,1.1 1.4,2.3 2.1,3.7 l -0.5,0.6 h 2.1 c 0.1,-0.6 0.3,-1.2 0.4,-1.8 -0.6,0.1 -1.1,0.1 -1.7,0.2 l -0.1,-1.8 c 0.4,0 0.8,0 1.2,-0.1 0.7,-0.8 1.4,-1.7 2.2,-2.7 -0.9,0.2 -1.8,0.3 -2.8,0.5 l -0.1,-1.7 c 0.3,0 0.7,-0.1 1,-0.1 1.1,-1.5 2,-3.1 2.6,-4.8 l 1.8,0.2 c -0.7,1.5 -1.5,3 -2.4,4.3 0.4,-0.1 0.8,-0.1 1.1,-0.2 0.4,-0.6 0.8,-1.3 1.2,-2 l 1.6,0.6 c -1.5,2.3 -2.9,4.3 -4.2,5.8 0.6,-0.1 1.2,-0.1 1.7,-0.1 0,-0.5 -0.1,-1 -0.2,-1.4 l 1.3,-0.3 c 0.3,1.4 0.5,2.6 0.6,3.7 l -1.7,0.6 c 0,-0.4 0,-0.8 0,-1.1 -0.4,0 -0.7,0.1 -1.1,0.2 -0.1,0.7 -0.3,1.4 -0.4,2.1 h 3.3 c 0.1,-2.6 0.6,-6.8 1.5,-12.6 h 2 c -0.9,5.9 -1.4,10.1 -1.5,12.6 h 2.4 c -0.1,-0.5 -0.2,-1 -0.4,-1.5 -0.4,0.1 -0.9,0.1 -1.4,0.2 l -0.2,-1.8 c 0.4,0 0.8,0 1.1,0 0.7,-0.8 1.5,-1.8 2.2,-3 -0.9,0.2 -1.8,0.3 -2.8,0.5 l -0.1,-1.7 c 0.3,0 0.6,-0.1 0.9,-0.1 1,-1.5 1.8,-3.1 2.4,-4.8 l 1.7,0.2 c -0.6,1.6 -1.4,3 -2.2,4.3 0.4,0 0.8,-0.1 1.2,-0.2 0.3,-0.5 0.7,-1.1 1,-1.7 l 1.6,0.6 c -1.4,2.3 -2.7,4.1 -3.9,5.6 0.6,-0.1 1.1,-0.2 1.6,-0.3 0,-0.5 -0.1,-0.9 -0.1,-1.3 l 1.3,-0.3 c 0.3,1.3 0.5,2.5 0.6,3.6 l -1.7,0.6 c 0,-0.4 0,-0.8 -0.1,-1.1 -0.4,0.1 -0.8,0.2 -1.3,0.3 0.2,0.6 0.3,1.2 0.4,1.8 h 2.3 l -0.3,1.9 h -6.3 c 0,1.1 0.1,2.1 0.3,2.9 0.7,-0.7 1.4,-1.4 2.1,-2.3 l 1.5,0.9 c -1,1.3 -2,2.4 -3,3.3 0.6,1.3 1.1,2 1.7,2 0.1,0 0.2,-0.1 0.3,-0.3 0.1,-0.2 0.4,-1.3 0.9,-3.3 l 1.8,1.1 c -0.6,1.9 -1.1,3.2 -1.6,3.8 -0.4,0.5 -1,0.8 -1.7,0.8 -1,0 -2,-0.9 -3,-2.7 v -0.1 c -1.3,1 -3,1.8 -5.1,2.5 l -0.8,-1.7 c 2,-0.7 3.6,-1.5 5,-2.4 0.1,-0.1 0.2,-0.1 0.3,-0.2 -0.3,-1.2 -0.5,-2.6 -0.6,-4.3 h -3.8 c -0.1,0.3 -0.2,0.6 -0.3,0.9 1.1,0.8 2,1.6 2.9,2.6 l -1.5,1.8 c -0.7,-0.9 -1.4,-1.7 -2.1,-2.4 -0.6,1.3 -1.1,2.4 -1.8,3.1 -0.7,0.9 -1.6,1.8 -2.8,2.8 l -1.2,-1.9 c 1.2,-1 2.2,-1.9 2.8,-2.8 0.5,-0.7 1.1,-1.9 1.7,-3.6 0.1,-0.2 0.1,-0.4 0.2,-0.5 h -2.5 l 0.2,-1.2 -0.5,0.6 c -0.4,-1.1 -0.7,-2.1 -1,-2.8 l -2.2,12.2 h -2.2 l 1.9,-10.9 c -0.9,1.7 -1.8,3.2 -2.9,4.5 l -0.4,-2.5 c 1.5,-2 2.9,-4.3 4.2,-6.8 l 0.1,-0.6 h -2.6 z"
   id="path629" />
	<path
   class="st0"
   d="m 211.7,114 h 2.8 l 0.9,-4.8 h 2.2 l -0.9,4.8 h 2.3 l -0.4,2.1 h -2.3 l -0.1,0.7 c 0.7,1.1 1.3,2.3 1.9,3.5 l -1.6,2 c -0.3,-1 -0.6,-1.9 -0.8,-2.6 l -2.2,12.7 h -2.2 l 2.1,-11.7 c -0.9,1.7 -1.8,3.1 -2.9,4.4 l -0.5,-2.7 c 1.5,-1.9 2.9,-4 4.1,-6.4 h -2.7 z m 8,-3 h 3.2 l 0.3,-1.9 h 2.2 l -0.3,1.9 h 4.3 l 0.3,-1.9 h 2.2 l -0.3,1.9 h 3.6 l -0.3,1.8 h -3.6 L 231,114 h 2.7 l -0.3,1.7 h -2.7 l -0.2,1.4 h 3.8 l -0.3,1.8 h -6.9 l -0.2,1.2 h 5.6 l -1.1,6.1 h 1.4 l -0.3,1.9 H 231 l -0.4,2.1 c -0.1,0.7 -0.4,1.3 -0.9,1.7 -0.4,0.3 -0.9,0.5 -1.5,0.5 h -3.1 l -0.1,-2 2.7,0.1 c 0.5,0 0.7,-0.3 0.8,-0.9 l 0.3,-1.5 h -9 l -0.8,4.4 h -2.2 l 0.8,-4.4 h -2.1 l 0.3,-1.9 h 2.1 l 1.1,-6.1 h 5.4 l 0.2,-1.2 h -6.5 l 0.3,-1.8 h 3.3 l 0.2,-1.4 h -2.4 l 0.3,-1.7 h 2.4 l 0.2,-1.2 h -3.2 z m 0.4,15.2 h 3.3 l 0.2,-1.4 h -3.3 z m 0.6,-3.1 h 3.3 l 0.2,-1.3 h -3.3 z m 3.3,-6 h 4.3 l 0.2,-1.4 h -4.3 z m 4.8,-3.1 0.2,-1.2 h -4.3 l -0.2,1.2 z m -3.1,12.2 h 3.5 l 0.2,-1.4 h -3.5 z m 0.7,-4.4 -0.2,1.3 h 3.5 l 0.2,-1.3 z"
   id="path631" />
	<g
   id="g695">
		<polygon
   class="st0"
   points="92.6,153.2 90.8,153.2 93.5,140.3 95.3,140.3 "
   id="polygon633" />
		<path
   class="st0"
   d="m 95.4,153.2 2,-9.3 h 1.4 l -0.3,1.6 c 0.6,-0.6 1.2,-1.1 1.8,-1.4 0.5,-0.3 1.1,-0.4 1.7,-0.4 0.8,0 1.3,0.2 1.8,0.6 0.4,0.4 0.6,1 0.6,1.6 0,0.3 -0.1,0.9 -0.2,1.6 l -1.2,5.7 h -1.6 l 1.2,-5.9 c 0.1,-0.6 0.2,-1 0.2,-1.3 0,-0.3 -0.1,-0.6 -0.3,-0.8 -0.2,-0.2 -0.5,-0.3 -0.9,-0.3 -0.8,0 -1.5,0.3 -2.2,0.9 -0.6,0.6 -1.1,1.6 -1.4,3 l -0.9,4.3 z"
   id="path635" />
		<path
   class="st0"
   d="m 105.6,150 1.6,-0.1 c 0,0.5 0.1,0.8 0.2,1.2 0.1,0.3 0.4,0.6 0.8,0.8 0.4,0.2 0.8,0.3 1.3,0.3 0.7,0 1.2,-0.1 1.6,-0.4 0.4,-0.3 0.5,-0.6 0.5,-1 0,-0.3 -0.1,-0.5 -0.3,-0.8 -0.2,-0.2 -0.7,-0.5 -1.6,-0.9 -0.8,-0.4 -1.4,-0.6 -1.6,-0.8 -0.4,-0.2 -0.7,-0.5 -0.9,-0.9 -0.2,-0.3 -0.3,-0.7 -0.3,-1.1 0,-0.7 0.3,-1.4 0.9,-1.9 0.6,-0.5 1.4,-0.8 2.5,-0.8 1.2,0 2.1,0.3 2.7,0.8 0.6,0.5 0.9,1.3 1,2.1 l -1.6,0.1 c 0,-0.6 -0.2,-1 -0.6,-1.3 -0.4,-0.3 -0.9,-0.5 -1.6,-0.5 -0.6,0 -1,0.1 -1.3,0.4 -0.3,0.3 -0.5,0.5 -0.5,0.8 0,0.3 0.1,0.6 0.4,0.8 0.2,0.2 0.6,0.4 1.4,0.7 1.2,0.5 2,0.9 2.3,1.2 0.5,0.5 0.8,1.1 0.8,1.8 0,0.5 -0.1,0.9 -0.4,1.4 -0.3,0.4 -0.7,0.8 -1.3,1.1 -0.6,0.3 -1.3,0.4 -2.1,0.4 -1.1,0 -2,-0.3 -2.8,-0.8 -0.8,-0.5 -1.2,-1.4 -1.1,-2.6"
   id="path637" />
		<path
   class="st0"
   d="m 118.1,151.9 -0.3,1.3 c -0.4,0.1 -0.8,0.1 -1.1,0.1 -0.6,0 -1.1,-0.2 -1.5,-0.5 -0.3,-0.2 -0.4,-0.6 -0.4,-1 0,-0.2 0.1,-0.7 0.2,-1.4 l 1.1,-5.4 H 115 l 0.3,-1.2 h 1.3 l 0.5,-2.3 1.8,-1.1 -0.7,3.4 h 1.6 l -0.3,1.2 h -1.6 l -1.1,5.2 c -0.1,0.7 -0.2,1 -0.2,1.2 0,0.2 0.1,0.3 0.2,0.4 0.1,0.1 0.3,0.1 0.5,0.1 0.3,0.1 0.6,0.1 0.8,0"
   id="path639" />
		<path
   class="st0"
   d="m 119.4,153.2 1.9,-9.3 h 1.6 l -1.9,9.3 z m 2.3,-11.1 0.4,-1.8 h 1.6 l -0.4,1.8 z"
   id="path641" />
		<path
   class="st0"
   d="m 127.2,151.9 -0.3,1.3 c -0.4,0.1 -0.8,0.1 -1.1,0.1 -0.6,0 -1.1,-0.2 -1.5,-0.5 -0.3,-0.2 -0.4,-0.6 -0.4,-1 0,-0.2 0.1,-0.7 0.2,-1.4 l 1.1,-5.4 H 124 l 0.3,-1.2 h 1.3 l 0.5,-2.3 1.8,-1.1 -0.7,3.4 h 1.6 l -0.3,1.2 h -1.6 l -1.1,5.2 c -0.1,0.7 -0.2,1 -0.2,1.2 0,0.2 0.1,0.3 0.2,0.4 0.1,0.1 0.3,0.1 0.5,0.1 0.3,0.1 0.6,0.1 0.9,0"
   id="path643" />
		<path
   class="st0"
   d="m 134.8,151.5 c -1.1,1.3 -2.3,1.9 -3.4,1.9 -0.7,0 -1.3,-0.2 -1.7,-0.6 -0.4,-0.4 -0.7,-0.9 -0.7,-1.5 0,-0.4 0.1,-1.1 0.3,-2 l 1.1,-5.4 h 1.6 l -1.2,6 c -0.1,0.5 -0.2,0.9 -0.2,1.2 0,0.4 0.1,0.6 0.3,0.8 0.2,0.2 0.5,0.3 0.9,0.3 0.4,0 0.9,-0.1 1.3,-0.3 0.4,-0.2 0.8,-0.5 1.1,-0.9 0.3,-0.4 0.6,-0.8 0.8,-1.3 0.1,-0.3 0.3,-0.9 0.5,-1.7 l 0.8,-4 h 1.6 l -2,9.3 h -1.5 z"
   id="path645" />
		<path
   class="st0"
   d="m 142.2,151.9 -0.3,1.3 c -0.4,0.1 -0.8,0.1 -1.1,0.1 -0.6,0 -1.1,-0.2 -1.5,-0.5 -0.3,-0.2 -0.4,-0.6 -0.4,-1 0,-0.2 0.1,-0.7 0.2,-1.4 l 1.1,-5.4 H 139 l 0.3,-1.2 h 1.3 l 0.5,-2.3 1.8,-1.1 -0.7,3.4 h 1.6 l -0.3,1.2 h -1.6 l -1.1,5.2 c -0.1,0.7 -0.2,1 -0.2,1.2 0,0.2 0.1,0.3 0.2,0.4 0.1,0.1 0.3,0.1 0.5,0.1 0.3,0.1 0.6,0.1 0.9,0"
   id="path647" />
		<path
   class="st0"
   d="m 150.3,150 1.5,0.2 c -0.2,0.8 -0.7,1.5 -1.5,2.2 -0.8,0.7 -1.8,1 -2.9,1 -0.7,0 -1.3,-0.2 -1.9,-0.5 -0.6,-0.3 -1,-0.8 -1.3,-1.4 -0.3,-0.6 -0.5,-1.3 -0.5,-2.1 0,-1 0.2,-2 0.7,-3 0.5,-1 1.1,-1.7 1.8,-2.1 0.7,-0.5 1.6,-0.7 2.4,-0.7 1.1,0 2,0.3 2.7,1 0.7,0.7 1,1.6 1,2.8 0,0.5 0,0.9 -0.1,1.4 h -6.9 c 0,0.2 0,0.3 0,0.5 0,0.9 0.2,1.5 0.6,2 0.4,0.5 0.9,0.7 1.5,0.7 0.5,0 1.1,-0.2 1.6,-0.5 0.6,-0.3 1,-0.8 1.3,-1.5 m -4.6,-2.3 h 5.2 c 0,-0.2 0,-0.3 0,-0.4 0,-0.8 -0.2,-1.4 -0.6,-1.8 -0.4,-0.4 -0.9,-0.6 -1.5,-0.6 -0.7,0 -1.3,0.2 -1.9,0.7 -0.5,0.4 -0.9,1.2 -1.2,2.1"
   id="path649" />
		<path
   class="st0"
   d="m 158.7,149.6 c 0,-1.8 0.5,-3.3 1.6,-4.5 0.9,-1 2,-1.5 3.5,-1.5 1.1,0 2,0.4 2.7,1.1 0.7,0.7 1,1.7 1,2.8 0,1.1 -0.2,2.1 -0.7,3 -0.4,0.9 -1.1,1.6 -1.9,2.1 -0.8,0.5 -1.6,0.7 -2.5,0.7 -0.7,0 -1.4,-0.2 -2,-0.5 -0.6,-0.3 -1,-0.7 -1.4,-1.3 -0.1,-0.5 -0.3,-1.1 -0.3,-1.9 m 1.6,-0.1 c 0,0.9 0.2,1.5 0.6,2 0.4,0.5 1,0.7 1.6,0.7 0.3,0 0.7,-0.1 1,-0.2 0.3,-0.1 0.6,-0.3 0.9,-0.6 0.3,-0.3 0.5,-0.6 0.7,-1 0.2,-0.4 0.4,-0.7 0.5,-1.2 0.2,-0.6 0.3,-1.1 0.3,-1.7 0,-0.8 -0.2,-1.5 -0.6,-2 -0.4,-0.5 -1,-0.7 -1.6,-0.7 -0.5,0 -1,0.1 -1.4,0.4 -0.4,0.2 -0.8,0.6 -1.1,1 -0.3,0.5 -0.6,1 -0.7,1.6 -0.1,0.7 -0.2,1.2 -0.2,1.7"
   id="path651" />
		<path
   class="st0"
   d="m 168.7,153.2 1.7,-8.1 H 169 l 0.3,-1.2 h 1.4 l 0.3,-1.3 c 0.1,-0.7 0.3,-1.1 0.4,-1.4 0.2,-0.3 0.4,-0.5 0.7,-0.7 0.3,-0.2 0.8,-0.3 1.4,-0.3 0.4,0 1,0.1 1.8,0.3 l -0.3,1.4 c -0.5,-0.1 -1,-0.2 -1.4,-0.2 -0.3,0 -0.5,0.1 -0.7,0.2 -0.2,0.2 -0.3,0.5 -0.4,1.1 l -0.2,1 h 1.8 l -0.3,1.2 H 172 l -1.7,8.1 z"
   id="path653" />
		<path
   class="st0"
   d="M 39.2,171.9 38.4,159 h 1.8 l 0.3,6.4 c 0,0.3 0,1.1 0.1,2.5 0,0.4 0,0.6 0,0.8 0,0.1 0,0.4 0,0.9 0.7,-1.5 1.2,-2.5 1.5,-3.1 L 46,159 h 1.8 l 0.4,7.5 c 0,0.9 0.1,1.9 0.1,3.1 0.1,-0.3 0.3,-0.7 0.6,-1.3 0.4,-1 0.7,-1.6 0.9,-2 l 3.7,-7.3 h 1.8 l -6.6,12.9 h -1.8 l -0.4,-7.8 c 0,-0.7 -0.1,-1.5 -0.1,-2.5 -0.4,0.8 -0.7,1.4 -0.9,1.9 l -4.5,8.4 z"
   id="path655" />
		<path
   class="st0"
   d="m 59.7,170.7 c -0.6,0.5 -1.1,0.8 -1.6,1 -0.5,0.2 -1.1,0.3 -1.6,0.3 -0.9,0 -1.6,-0.3 -2.1,-0.8 -0.5,-0.5 -0.8,-1.2 -0.8,-1.9 0,-0.5 0.1,-1 0.4,-1.4 0.2,-0.4 0.6,-0.7 0.9,-1 0.4,-0.2 0.9,-0.4 1.4,-0.5 0.4,-0.1 1,-0.1 2,-0.2 1,0 1.7,-0.1 2.2,-0.3 0.1,-0.4 0.2,-0.8 0.2,-1.1 0,-0.4 -0.1,-0.7 -0.4,-0.9 -0.4,-0.3 -0.9,-0.4 -1.6,-0.4 -0.7,0 -1.2,0.1 -1.6,0.4 -0.4,0.3 -0.7,0.7 -0.9,1.3 l -1.6,-0.1 c 0.3,-0.9 0.8,-1.6 1.6,-2.1 0.7,-0.5 1.6,-0.7 2.7,-0.7 1.2,0 2.1,0.3 2.7,0.8 0.5,0.4 0.8,0.9 0.8,1.6 0,0.5 -0.1,1.1 -0.2,1.7 l -0.5,2.3 c -0.2,0.7 -0.2,1.3 -0.2,1.8 0,0.3 0.1,0.7 0.2,1.3 h -1.6 c -0.3,-0.2 -0.4,-0.6 -0.4,-1.1 m 0.6,-3.5 c -0.2,0.1 -0.5,0.2 -0.7,0.2 -0.3,0 -0.7,0.1 -1.3,0.1 -0.9,0.1 -1.6,0.2 -2,0.3 -0.4,0.1 -0.7,0.3 -0.9,0.6 -0.2,0.3 -0.3,0.6 -0.3,0.9 0,0.4 0.2,0.8 0.5,1.1 0.3,0.3 0.7,0.4 1.3,0.4 0.5,0 1,-0.1 1.5,-0.4 0.5,-0.3 0.9,-0.7 1.2,-1.2 0.3,-0.4 0.5,-1.1 0.7,-2"
   id="path657" />
		<path
   class="st0"
   d="m 67.1,170.6 -0.3,1.3 c -0.4,0.1 -0.7,0.1 -1.1,0.1 -0.6,0 -1.1,-0.2 -1.5,-0.5 -0.3,-0.2 -0.4,-0.6 -0.4,-1 0,-0.2 0.1,-0.7 0.2,-1.4 l 1.1,-5.4 h -1.3 l 0.3,-1.2 h 1.3 l 0.5,-2.3 1.8,-1.1 -0.7,3.4 h 1.6 l -0.3,1.2 h -1.6 l -1.1,5.2 c -0.1,0.7 -0.2,1 -0.2,1.2 0,0.2 0.1,0.3 0.2,0.4 0.1,0.1 0.3,0.1 0.5,0.1 0.4,0.1 0.7,0.1 1,0"
   id="path659" />
		<path
   class="st0"
   d="m 74.8,168.5 1.6,0.2 c -0.4,1.2 -1,2 -1.7,2.6 -0.7,0.6 -1.6,0.8 -2.5,0.8 -1,0 -1.8,-0.3 -2.5,-1 -0.6,-0.7 -0.9,-1.6 -0.9,-2.8 0,-1 0.2,-2 0.6,-3 0.4,-1 1,-1.7 1.7,-2.2 0.8,-0.5 1.6,-0.8 2.6,-0.8 1,0 1.8,0.3 2.4,0.8 0.6,0.6 0.9,1.3 0.9,2.2 l -1.6,0.1 c 0,-0.6 -0.2,-1.1 -0.5,-1.4 -0.3,-0.3 -0.8,-0.5 -1.3,-0.5 -0.6,0 -1.2,0.2 -1.7,0.6 -0.5,0.4 -0.8,1 -1.1,1.8 -0.3,0.8 -0.4,1.6 -0.4,2.4 0,0.8 0.2,1.4 0.5,1.8 0.4,0.4 0.8,0.6 1.3,0.6 0.5,0 1,-0.2 1.5,-0.6 0.5,-0.2 0.9,-0.8 1.1,-1.6"
   id="path661" />
		<path
   class="st0"
   d="M 77.4,171.9 80.1,159 h 1.6 l -1,5 c 0.6,-0.6 1.1,-1 1.7,-1.2 0.5,-0.3 1,-0.4 1.6,-0.4 0.8,0 1.4,0.2 1.8,0.6 0.4,0.4 0.6,0.9 0.6,1.6 0,0.3 -0.1,0.9 -0.3,1.8 l -1.2,5.5 h -1.6 l 1.2,-5.7 c 0.2,-0.8 0.3,-1.3 0.3,-1.5 0,-0.3 -0.1,-0.6 -0.3,-0.7 -0.2,-0.2 -0.5,-0.3 -0.9,-0.3 -0.6,0 -1.1,0.2 -1.6,0.5 -0.5,0.3 -0.9,0.7 -1.2,1.2 -0.3,0.5 -0.6,1.4 -0.8,2.5 l -0.8,4 z"
   id="path663" />
		<polygon
   class="st0"
   points="94.6,171.9 92.8,171.9 95.5,159 97.3,159 "
   id="polygon665" />
		<path
   class="st0"
   d="m 97.4,171.9 2,-9.3 h 1.4 l -0.3,1.6 c 0.6,-0.6 1.2,-1.1 1.8,-1.4 0.5,-0.3 1.1,-0.4 1.7,-0.4 0.8,0 1.4,0.2 1.8,0.6 0.4,0.4 0.6,1 0.6,1.6 0,0.3 -0.1,0.9 -0.2,1.6 l -1.2,5.7 h -1.6 l 1.2,-5.9 c 0.1,-0.6 0.2,-1 0.2,-1.3 0,-0.3 -0.1,-0.6 -0.3,-0.8 -0.2,-0.2 -0.5,-0.3 -0.9,-0.3 -0.8,0 -1.5,0.3 -2.2,0.9 -0.6,0.6 -1.1,1.6 -1.4,3 l -0.9,4.3 z"
   id="path667" />
		<path
   class="st0"
   d="m 111.1,170.6 -0.3,1.3 c -0.4,0.1 -0.7,0.1 -1.1,0.1 -0.6,0 -1.1,-0.2 -1.5,-0.5 -0.3,-0.2 -0.4,-0.6 -0.4,-1 0,-0.2 0.1,-0.7 0.2,-1.4 l 1.1,-5.4 h -1.3 l 0.3,-1.2 h 1.3 l 0.5,-2.3 1.8,-1.1 -0.7,3.4 h 1.6 l -0.3,1.2 h -1.6 l -1.1,5.2 c -0.1,0.7 -0.2,1 -0.2,1.2 0,0.2 0.1,0.3 0.2,0.4 0.1,0.1 0.3,0.1 0.5,0.1 0.5,0.1 0.8,0.1 1,0"
   id="path669" />
		<path
   class="st0"
   d="m 119.3,168.7 1.5,0.2 c -0.2,0.8 -0.7,1.5 -1.5,2.2 -0.8,0.7 -1.8,1 -2.9,1 -0.7,0 -1.3,-0.2 -1.9,-0.5 -0.6,-0.3 -1,-0.8 -1.3,-1.4 -0.3,-0.6 -0.5,-1.3 -0.5,-2.1 0,-1 0.2,-2 0.7,-3 0.5,-1 1.1,-1.7 1.8,-2.1 0.7,-0.5 1.6,-0.7 2.4,-0.7 1.1,0 2,0.3 2.7,1 0.7,0.7 1,1.6 1,2.8 0,0.5 0,0.9 -0.1,1.4 h -6.9 c 0,0.2 0,0.3 0,0.5 0,0.9 0.2,1.5 0.6,2 0.4,0.5 0.9,0.7 1.5,0.7 0.5,0 1.1,-0.2 1.6,-0.5 0.6,-0.3 1,-0.8 1.3,-1.5 m -4.6,-2.3 h 5.2 c 0,-0.2 0,-0.3 0,-0.4 0,-0.8 -0.2,-1.4 -0.6,-1.8 -0.4,-0.4 -0.9,-0.6 -1.5,-0.6 -0.7,0 -1.3,0.2 -1.9,0.7 -0.5,0.5 -1,1.2 -1.2,2.1"
   id="path671" />
		<path
   class="st0"
   d="m 122.4,171.9 2,-9.3 h 1.4 l -0.4,1.9 c 0.5,-0.7 1,-1.3 1.4,-1.6 0.5,-0.3 0.9,-0.5 1.4,-0.5 0.3,0 0.7,0.1 1.2,0.3 l -0.7,1.5 c -0.3,-0.2 -0.6,-0.3 -0.9,-0.3 -0.6,0 -1.1,0.3 -1.7,0.9 -0.6,0.6 -1,1.7 -1.4,3.3 l -0.8,3.7 h -1.5 z"
   id="path673" />
		<path
   class="st0"
   d="m 128.4,171.9 2,-9.3 h 1.4 l -0.3,1.6 c 0.6,-0.6 1.2,-1.1 1.8,-1.4 0.5,-0.3 1.1,-0.4 1.7,-0.4 0.8,0 1.3,0.2 1.8,0.6 0.4,0.4 0.6,1 0.6,1.6 0,0.3 -0.1,0.9 -0.2,1.6 l -1.2,5.7 h -1.6 l 1.2,-5.9 c 0.1,-0.6 0.2,-1 0.2,-1.3 0,-0.3 -0.1,-0.6 -0.3,-0.8 -0.2,-0.2 -0.5,-0.3 -0.9,-0.3 -0.8,0 -1.5,0.3 -2.2,0.9 -0.6,0.6 -1.1,1.6 -1.4,3 l -0.9,4.3 z"
   id="path675" />
		<path
   class="st0"
   d="m 145.3,168.7 1.5,0.2 c -0.2,0.8 -0.7,1.5 -1.5,2.2 -0.8,0.7 -1.8,1 -2.9,1 -0.7,0 -1.3,-0.2 -1.9,-0.5 -0.6,-0.3 -1,-0.8 -1.3,-1.4 -0.3,-0.6 -0.5,-1.3 -0.5,-2.1 0,-1 0.2,-2 0.7,-3 0.5,-1 1.1,-1.7 1.8,-2.1 0.8,-0.5 1.6,-0.7 2.4,-0.7 1.1,0 2,0.3 2.7,1 0.7,0.7 1,1.6 1,2.8 0,0.5 0,0.9 -0.1,1.4 h -6.9 c 0,0.2 0,0.3 0,0.5 0,0.9 0.2,1.5 0.6,2 0.4,0.5 0.9,0.7 1.5,0.7 0.5,0 1.1,-0.2 1.6,-0.5 0.6,-0.3 1,-0.8 1.3,-1.5 m -4.6,-2.3 h 5.2 c 0,-0.2 0,-0.3 0,-0.4 0,-0.8 -0.2,-1.4 -0.6,-1.8 -0.4,-0.4 -0.9,-0.6 -1.5,-0.6 -0.7,0 -1.3,0.2 -1.9,0.7 -0.5,0.5 -0.9,1.2 -1.2,2.1"
   id="path677" />
		<path
   class="st0"
   d="m 152.2,170.6 -0.3,1.3 c -0.4,0.1 -0.8,0.1 -1.1,0.1 -0.6,0 -1.1,-0.2 -1.5,-0.5 -0.3,-0.2 -0.4,-0.6 -0.4,-1 0,-0.2 0.1,-0.7 0.2,-1.4 l 1.1,-5.4 H 149 l 0.3,-1.2 h 1.3 l 0.5,-2.3 1.8,-1.1 -0.7,3.4 h 1.6 l -0.3,1.2 h -1.6 l -1.1,5.2 c -0.1,0.7 -0.2,1 -0.2,1.2 0,0.2 0.1,0.3 0.2,0.4 0.1,0.1 0.3,0.1 0.5,0.1 0.3,0.1 0.6,0.1 0.9,0"
   id="path679" />
		<path
   class="st0"
   d="m 158.7,171.9 2.7,-12.9 h 1.7 l 2.2,4.8 c 0.7,1.5 1.2,2.7 1.6,3.7 0.2,0.6 0.5,1.4 0.8,2.4 0.2,-1.1 0.4,-2.2 0.6,-3.4 l 1.6,-7.6 h 1.7 l -2.7,12.9 h -1.7 l -3.2,-7.4 c -0.6,-1.3 -1,-2.5 -1.3,-3.5 -0.1,0.8 -0.3,1.9 -0.5,3.1 l -1.6,7.8 z"
   id="path681" />
		<path
   class="st0"
   d="m 178.3,168.7 1.5,0.2 c -0.2,0.8 -0.7,1.5 -1.5,2.2 -0.8,0.7 -1.8,1 -2.9,1 -0.7,0 -1.3,-0.2 -1.9,-0.5 -0.6,-0.3 -1,-0.8 -1.3,-1.4 -0.3,-0.6 -0.5,-1.3 -0.5,-2.1 0,-1 0.2,-2 0.7,-3 0.5,-1 1.1,-1.7 1.8,-2.1 0.7,-0.5 1.6,-0.7 2.4,-0.7 1.1,0 2,0.3 2.7,1 0.7,0.7 1,1.6 1,2.8 0,0.5 0,0.9 -0.1,1.4 h -6.9 c 0,0.2 0,0.3 0,0.5 0,0.9 0.2,1.5 0.6,2 0.4,0.5 0.9,0.7 1.5,0.7 0.5,0 1.1,-0.2 1.6,-0.5 0.6,-0.3 1,-0.8 1.3,-1.5 m -4.6,-2.3 h 5.2 c 0,-0.2 0,-0.3 0,-0.4 0,-0.8 -0.2,-1.4 -0.6,-1.8 -0.4,-0.4 -0.9,-0.6 -1.5,-0.6 -0.7,0 -1.3,0.2 -1.9,0.7 -0.5,0.5 -0.9,1.2 -1.2,2.1"
   id="path683" />
		<path
   class="st0"
   d="m 185.2,170.6 -0.3,1.3 c -0.4,0.1 -0.7,0.1 -1.1,0.1 -0.6,0 -1.1,-0.2 -1.5,-0.5 -0.3,-0.2 -0.4,-0.6 -0.4,-1 0,-0.2 0.1,-0.7 0.2,-1.4 l 1.1,-5.4 H 182 l 0.3,-1.2 h 1.3 l 0.5,-2.3 1.8,-1.1 -0.7,3.4 h 1.6 l -0.3,1.2 h -1.6 l -1.1,5.2 c -0.1,0.7 -0.2,1 -0.2,1.2 0,0.2 0.1,0.3 0.2,0.4 0.1,0.1 0.3,0.1 0.5,0.1 0.3,0.1 0.6,0.1 0.9,0"
   id="path685" />
		<path
   class="st0"
   d="m 188.3,171.9 -1,-9.3 h 1.5 l 0.4,4.2 0.2,2.4 c 0,0.2 0,0.5 0.1,1.1 0.2,-0.6 0.3,-1.1 0.4,-1.4 0.1,-0.3 0.3,-0.8 0.6,-1.4 l 2.2,-4.9 h 1.7 l 0.3,4.7 c 0,0.7 0.1,1.7 0.1,2.8 0.3,-0.8 0.8,-1.9 1.4,-3.3 l 2,-4.2 h 1.6 l -4.6,9.3 h -1.7 l -0.3,-5.5 c 0,-0.3 0,-1 -0.1,-2 -0.2,0.6 -0.5,1.3 -0.9,2 l -2.5,5.4 h -1.4 z"
   id="path687" />
		<path
   class="st0"
   d="m 199.8,168.4 c 0,-1.8 0.5,-3.3 1.6,-4.5 0.9,-1 2,-1.5 3.5,-1.5 1.1,0 2,0.4 2.7,1.1 0.7,0.7 1,1.7 1,2.8 0,1.1 -0.2,2.1 -0.7,3 -0.4,0.9 -1.1,1.6 -1.8,2.1 -0.8,0.5 -1.6,0.7 -2.5,0.7 -0.7,0 -1.4,-0.2 -2,-0.5 -0.6,-0.3 -1,-0.7 -1.4,-1.3 -0.3,-0.6 -0.4,-1.2 -0.4,-1.9 m 1.6,-0.2 c 0,0.9 0.2,1.5 0.6,2 0.4,0.5 1,0.7 1.6,0.7 0.3,0 0.7,-0.1 1,-0.2 0.3,-0.1 0.6,-0.3 0.9,-0.6 0.3,-0.3 0.5,-0.6 0.7,-1 0.2,-0.4 0.4,-0.7 0.5,-1.2 0.2,-0.6 0.3,-1.1 0.3,-1.7 0,-0.8 -0.2,-1.5 -0.6,-2 -0.4,-0.5 -1,-0.7 -1.6,-0.7 -0.5,0 -1,0.1 -1.4,0.4 -0.4,0.2 -0.8,0.6 -1.1,1 -0.3,0.5 -0.6,1 -0.7,1.6 -0.2,0.7 -0.2,1.2 -0.2,1.7"
   id="path689" />
		<path
   class="st0"
   d="m 209.5,171.9 2,-9.3 h 1.4 l -0.4,1.9 c 0.5,-0.7 1,-1.3 1.4,-1.6 0.5,-0.3 0.9,-0.5 1.4,-0.5 0.3,0 0.7,0.1 1.2,0.3 l -0.7,1.5 c -0.3,-0.2 -0.6,-0.3 -0.9,-0.3 -0.6,0 -1.1,0.3 -1.7,0.9 -0.6,0.6 -1,1.7 -1.4,3.3 l -0.8,3.7 h -1.5 z"
   id="path691" />
		<polygon
   class="st0"
   points="218.1,167 222.8,162.6 224.9,162.6 220.9,166 223.3,171.9 221.5,171.9 219.7,167.1 217.8,168.8 217.1,171.9 215.5,171.9 218.2,159 219.8,159 "
   id="polygon693" />
	</g>
</g>
</svg>
