<?xml version="1.0" encoding="utf-8"?>
<!-- Generator: Adobe Illustrator 26.4.1, SVG Export Plug-In . SVG Version: 6.00 Build 0)  -->
<svg version="1.1" id="Layer_1" xmlns="http://www.w3.org/2000/svg" xmlns:xlink="http://www.w3.org/1999/xlink" x="0px" y="0px"
	 viewBox="0 0 552.08 434.11" style="enable-background:new 0 0 552.08 434.11;" xml:space="preserve">
<style type="text/css">
	.st0{fill:#231815;}
	.st1{fill:#271D1A;}
	.st2{fill:#77716F;}
	.st3{fill:#797371;}
	.st4{fill:#241917;}
	.st5{fill:#251A18;}
	.st6{fill:#251A17;}
</style>
<g>
	<path class="st0" d="M162.62,164.93c0,25.15,0,50.3,0,75.44c0,1,0.1,2.01-0.03,2.99c-0.14,1.13,0.72,3.02-1.53,2.88
		c-1.62-0.1-1.33-1.63-1.42-2.73c-0.69-7.78-1.26-15.57-2.07-23.33c-1.05-10.08-2.69-20.06-6.18-29.63
		c-4.93-13.49-16.88-22.02-31.12-22.55c-2.73-0.1-3.71,0.41-3.7,3.41c0.1,40.13,0.05,80.26,0.1,120.39
		c0.01,4.82,0.55,9.61,1.89,14.29c2.82,9.83,8.45,14.72,18.71,15.77c2.42,0.25,3.5,0.7,3.44,3.42c-0.06,3.05-1.97,2.49-3.72,2.49
		c-26.48,0.01-52.97,0.01-79.45,0.01c-1.68,0-3.44,0.28-3.23-2.4c0.15-1.97,0.32-3.21,2.94-3.49c14.23-1.54,19.21-7.11,20.28-22.08
		c0.75-10.46,1.09-20.93,1.08-31.43c-0.1-77.61-0.11-155.22-0.2-232.83c0-3.48-0.32-6.99-0.84-10.43
		C75.77,12.95,69.7,7.07,57.03,5.23c-1.91-0.28-2.98-0.48-2.98-2.82c0-2.68,1.61-2.36,3.28-2.36c44.81,0,89.61,0.03,134.42-0.06
		c2.88-0.01,3.61,0.88,3.6,3.66c-0.09,28.31-0.04,56.63-0.1,84.94c0,1.29,0.91,3.48-1.33,3.61c-2.18,0.12-1.69-2.26-1.84-3.48
		c-1.82-14.17-4.03-28.26-8.38-41.93c-8.15-25.62-18.93-32.1-45.83-33.54c-5.63-0.3-11.31,0.54-16.96,0.39
		c-3.54-0.09-4.37,1.07-4.34,4.5c0.16,18.15,0.04,36.31,0.02,54.46c-0.02,25.81,0.06,51.63-0.15,77.44c-0.03,4,0.96,5.04,4.93,4.54
		c19.74-2.47,29.2-11.67,33.92-33.86c2.28-10.74,3.44-21.66,4.33-32.6c0.13-1.59-0.92-4.41,1.82-4.28c2.28,0.11,1.14,2.71,1.14,4.14
		C162.64,113.64,162.62,139.29,162.62,164.93z"/>
	<path class="st0" d="M303.18,299.71c-2.08-0.93-2.02,1.92-2.75,3.14c-1.26,2.11-2.7,4.11-5.34,3.8c-2.85-0.34-4.12-2.65-4.47-5.3
		c-0.45-3.45-0.99-6.94-1-10.41c-0.1-41.63,0-83.27-0.21-124.9c-0.08-15.83-1.78-31.49-7.54-46.46
		c-9.26-24.03-34.16-32.51-55.73-18.48c-23.18,15.08-30.92,37.59-29.17,64.08c0.5,7.55,2.91,14.65,8.7,20.1
		c5.6,5.27,13.11,4.8,17.92-1.17c3.88-4.84,5.17-10.58,6.01-16.59c1.54-11.08-2.59-20.91-6.32-30.84c-1.75-4.68-2.26-9.31-0.69-14.1
		c2.11-6.39,9.05-12.13,15.44-12.48c7.27-0.39,11.14,4.2,13.92,10.08c2.22,4.7,3.35,9.68,3.74,14.87
		c1.15,15.63,0.26,31.29,0.62,46.93c0.05,2.28-0.89,3.67-2.43,5.09c-10.65,9.81-20.69,20.22-30.79,30.59
		c-21.95,22.54-30.84,49.47-28.42,80.42c0.79,10.16,2.91,20.03,9.1,28.58c5.06,6.99,12.11,9.06,20.15,5.66
		c6.11-2.59,10.86-6.91,15.12-11.89c6.34-7.43,11.5-15.68,16.84-23.94c0.48,9.59,1.54,18.78,5.91,27.24
		c6.33,12.26,21.07,13.9,30.21,3.56c5.75-6.51,8.5-14.51,11.74-22.31C304.59,302.94,305.26,300.64,303.18,299.71z M255.97,260.47
		c-0.01,5.32-0.31,10.64-0.12,15.96c0.31,8.69-5.08,14.06-11.04,18.86c-3.45,2.77-7.87,1.55-11.39-2.53
		c-4.88-5.66-6.47-12.6-6.86-19.84c-1.18-22.3,7.67-41.32,19.64-59.27c1.84-2.75,4.01-5.28,6.08-7.88c0.92-1.15,1.98-2.18,3.69-4.06
		C255.97,222.02,255.98,241.24,255.97,260.47z"/>
	<path class="st0" d="M494.89,263.72c-0.32,1.03-0.49,1.67-0.72,2.29c-3.79,10.06-7.02,20.44-14.64,28.5
		c-7.14,7.55-16.29,7.61-23.67,0.39c-6.11-5.99-9.55-13.55-12.25-21.41c-7.14-20.8-9.48-42.39-10.14-64.25
		c-0.11-3.5,0.76-4.4,4.29-4.36c18.66,0.19,37.33,0,55.98,0.17c3.33,0.02,4.07-0.89,4.01-4.16c-0.25-15.32-1.31-30.54-4.27-45.6
		c-3.18-16.18-7.12-32.13-16.22-46.17c-4.77-7.36-10.64-13.73-20.32-14.3c-13.91-0.81-23.91,6.07-31.34,16.92
		c-13.86,20.24-19.18,43.43-22.13,67.31c-2.69,21.74-2.59,43.55-0.85,65.32c1.63,20.41,4.79,40.57,12.85,59.62
		c4.19,9.9,9.42,19.16,18.76,25.18c14.68,9.47,31.78,5.19,42.76-10.64c10.47-15.1,15.33-32.51,20.3-49.86
		C497.9,266.56,496.71,265.27,494.89,263.72z M432.48,188.85c0.59-22.92,0.59-45.9,7.84-68.03c1.95-5.94,4.46-12.57,11.8-12.36
		c7.43,0.21,9.19,7.39,10.97,13.16c3.87,12.48,4.39,25.5,5.15,38.42c0.54,9.13,0.27,18.31,0.56,27.46c0.08,2.75-0.62,3.81-3.55,3.67
		c-4.98-0.23-9.99-0.06-14.98-0.06c-5,0-10-0.02-14.99,0.01C433.66,191.13,432.42,191.17,432.48,188.85z"/>
	<path class="st0" d="M394.69,102.15c-6.01,7.05-11.31,13.19-16.52,19.4c-1.59,1.89-3.64,1.28-5.55,1.29
		c-11.17,0.08-11.18,0.06-11.17,11.4c0.03,48.12,0.02,96.24,0.16,144.36c0.02,7.62,0.25,15.34,3.67,22.43
		c3.02,6.25,7.37,6.87,12.01,1.73c4.86-5.38,6.97-12.25,9.65-18.85c1.31,0.65,2.65,1.38,2.27,2.93
		c-3.42,13.72-7.27,27.35-18.26,37.28c-10.86,9.81-23.16,8.11-31.2-4.24c-8.67-13.33-12.09-28.22-12.09-43.99
		c-0.01-48.95-0.11-97.91,0.14-146.86c0.03-5.41-1.6-7.02-6.55-6.18c-0.81,0.14-1.68,0.11-2.49,0c-2.04-0.28-4.93,1.14-5.96-0.88
		c-1.31-2.59-0.04-5.35,1.77-7.8c5.62-7.61,10.45-15.74,14.89-24.09c11.98-22.56,20.7-46.4,28.01-70.81
		c0.19-0.63,0.34-1.28,0.61-1.88c0.55-1.21,0.14-3.51,2.42-2.96c1.74,0.42,0.93,2.26,0.93,3.43c0.05,21.31,0.04,42.63,0.04,63.94
		c0,5.33,0.21,10.67-0.08,15.98c-0.18,3.39,0.62,4.58,4.28,4.46C374.94,101.96,384.24,102.15,394.69,102.15z"/>
	<path class="st1" d="M509.36,359.77c-125.07,0.62-250.14,1.94-375.21,0.48c-30.47-0.36-60.95-0.33-91.43-0.48
		c0.64-2.61,2.72-1.23,4.07-1.28c9.95-0.34,19.92,0.38,29.88-0.41c132.92-1.02,265.83-1,398.75,0c9.95,0.79,19.93,0.07,29.88,0.41
		C506.64,358.53,508.71,357.16,509.36,359.77z"/>
	<path class="st2" d="M76.66,358.07c-9.35,1.41-18.78,0.4-28.15,1c-1.94,0.12-3.98-0.49-5.79,0.69c-12.42-0.04-24.85-0.1-37.27-0.13
		c-1.82,0-3.63,0.08-5.45,0.13c8.21-1.49,16.54-0.94,24.8-1.27C42.08,357.81,59.37,357.55,76.66,358.07z"/>
	<path class="st3" d="M509.36,359.77c-7.17-1.49-14.45-0.52-21.66-1c-4.1-0.27-8.25,0.54-12.29-0.7c21.96-0.6,43.9,0.01,65.84,0.88
		c3.61,0.14,7.3-0.41,10.83,0.82c-12.43,0.07-24.85,0.16-37.28,0.21C512.99,359.99,511.17,359.84,509.36,359.77z"/>
	<path class="st4" d="M166.6,412.03c1.99-0.01,3.99,0,5.98,0c6.27-0.01,6.32-0.06,4.88-6.38c-1.48-6.5-5.89-11.25-10.8-11.61
		c-4.89-0.36-10.95,4.19-12.9,10.14c-2.06,6.29-2.12,12.77-0.09,19.09c2.1,6.53,6.27,9.71,11.79,9.57
		c5.86-0.15,10.26-4.21,12.41-12.65c-3.04,3.73-4.61,7.51-8.95,6.49c-4.3-1-5.86-4.6-6.96-8.34
		C160.3,412.7,160.85,412.03,166.6,412.03z M161.06,406.78c0.74-3.61-0.48-9.42,4.51-9.59c5.19-0.18,3.91,5.47,4.22,8.97
		c0.32,3.5,0.06,3.52-4.77,3.49C163.32,409.39,160.27,410.59,161.06,406.78z"/>
	<path class="st4" d="M397.71,423.75c-2.06,2.5-4.33,4.02-7.72,2.32c-3.31-1.67-7.62-9.57-6.2-12.67c1.3-2.84,4.38-0.97,6.63-1.32
		c1.78-0.27,3.69-0.29,5.47-0.01c4.78,0.76,5.24-1.74,4.32-5.4c-0.32-1.28-0.68-2.57-1.14-3.81c-1.66-4.43-4.32-8.12-9.33-8.63
		c-4.85-0.5-8.6,1.89-11.23,5.98c-4.89,7.59-4.8,15.65-1.98,23.83c2.1,6.1,6.91,9.35,12.3,8.77c5.51-0.58,10.01-5.16,11.18-11.37
		C398.66,421.62,398.4,422.91,397.71,423.75z M388.38,396.89c4.53,1.14,3.24,5.48,4.13,8.56c0.37,2.75-0.03,4.89-3.49,4.13
		c-2.08-0.45-5.73,2.02-5.59-3.01C383.59,401.22,385.82,396.24,388.38,396.89z"/>
	<path class="st5" d="M471.89,393.63c0.23,4.93,0.41,8.8,0.58,12.66c-0.29,0.1-0.58,0.19-0.86,0.29c-1.27-2.16-2.33-4.49-3.87-6.43
		c-1.75-2.21-4.13-4.53-7-1.95c-2.86,2.58-0.57,4.71,1.46,6.59c3.04,2.81,6.33,5.4,9.05,8.49c3.81,4.34,3.71,11.76-0.02,16.05
		c-3.02,3.47-6.89,4.48-11.25,2.67c-2.17-0.9-4.27-2.29-6.64,0.39c0-3.27,0-6.54,0-9.81c0-0.78,0-1.56,0-3.84
		c2.23,3.62,2.92,6.61,5.1,8.52c2.11,1.86,4.6,4.27,7.28,1.46c2.35-2.47,1.14-5.21-1.19-7.35c-2.69-2.47-5.54-4.77-8.06-7.4
		c-4.26-4.44-4.84-10.5-1.78-15.5c2.48-4.05,6.22-5.52,10.64-3.68C467.54,395.72,469.44,396.42,471.89,393.63z"/>
	<path class="st6" d="M97.47,394.78c0,3.77,0,7.54,0,12.43c-1.94-3.16-3.1-5.66-4.83-7.68c-1.74-2.04-4.25-3.97-6.79-1.29
		c-2.3,2.44-0.4,4.61,1.49,6.36c2.32,2.14,4.83,4.07,7.15,6.22c4.24,3.92,6.04,8.56,4.18,14.36c-1.99,6.2-6.87,8.78-13.13,6.84
		c-2.03-0.63-4.27-2.65-6.49,2.1c-0.19-3.76-0.34-5.83-0.39-7.9c-0.05-1.98-0.01-3.95-0.01-6.56c2.62,2.09,2.55,5.33,4.67,7.12
		c2.28,1.93,4.6,4.81,7.57,2.02c3.1-2.91,0.91-5.72-1.55-8.02c-2.79-2.6-5.97-4.87-8.38-7.78c-5.4-6.53-2.58-16.84,4.75-18.68
		c2.12-0.53,4.03-0.09,5.8,0.74C93.48,395.98,95.2,396.49,97.47,394.78z"/>
	<path class="st4" d="M247.15,431.83c-5.65,0-10.29,0.01-14.94-0.01c-0.63,0-1.26-0.12-2-0.19c4.55-5.38,4.73-30.67-0.14-36.6
		c3.41,0,6.33,0.17,9.23-0.05c2.64-0.2,3.66,0.72,3.33,3.35c-0.16,1.22-0.03,2.48-0.03,5.1c2.45-3.92,4.06-6.85,7.07-8.4
		c2.02-1.04,4.25-1.7,5.82,0.53c1.8,2.56,1.7,5.42-0.22,7.89c-1.8,2.32-3.84,1.39-5.57-0.24c-3.23-3.04-4.71-0.04-5.44,2.02
		c-2.55,7.22-1.67,14.79-1.49,22.25C242.84,429.68,245.32,429.69,247.15,431.83z"/>
	<path class="st4" d="M306.51,431.38c5.67-4.29,5.71-31.41,0.16-35.63c3.88-1.38,7.65-0.53,11.32-0.68
		c2.43-0.09,1.78,1.93,1.79,3.26c0.05,8.46,0.05,16.93,0.01,25.39c-0.01,3.02,0.12,5.9,3.56,7.65
		C317.92,431.38,312.5,431.38,306.51,431.38z"/>
	<path class="st1" d="M320.35,383.44c-0.37,3.43-1.98,5.96-5.17,5.92c-3.45-0.04-5.26-2.69-4.99-6.08c0.23-2.91,1.37-5.62,5.01-5.59
		C319.11,377.72,319.85,380.66,320.35,383.44z"/>
</g>
</svg>
