<?xml version="1.0" encoding="UTF-8"?>
<!-- Created with Inkscape by VulcanSphere (http://www.inkscape.org/ and http://vulcansphere.com) -->
<svg width="187.15" height="250.41" version="1.1" viewBox="0 0 187.15 250.41" xml:space="preserve" xmlns="http://www.w3.org/2000/svg"><title>Zenless Zone Zero curved box logo</title><desc>Video game by miHoYo/HoYoverse</desc><g transform="translate(41.794 413.93)"><rect x="-41.794" y="-413.93" width="187.15" height="250.41" ry="11.37" stroke-width="1.3021"/><g transform="matrix(.55443 0 0 .56937 114.96 -268.49)" fill="#fff"><g transform="matrix(1.0117 0 0 1 73.966 -16.685)" fill="#fff"><g transform="translate(-73.113 17.387)"><path d="m-205.5 49.083c-0.56136-0.71992-2.1999-10.039-3.6413-20.709l-2.6206-19.4 8.5205-15.966c4.6863-8.7812 8.3369-16.15 8.1124-16.374-0.22448-0.22449-4.8598 0.0108-10.301 0.52294-5.4409 0.51211-10.197 0.63549-10.57 0.2742-0.3726-0.3613-1.8885-8.6515-3.3687-18.423l-2.6912-17.766 6.6326-15.939c3.6479-8.7663 6.909-16.659 7.2469-17.54 0.54227-1.4131-0.54024-1.5651-9.2301-1.2955l-9.8444 0.30537-4.737-37.86 11.728-30.837c9.6496-25.372 12.192-32.649 13.925-33.067 1.1585-0.27955 39.053-0.0813 80.949-0.0834l83.319-0.14921 5.9446 30.638s-21.581 35.99-22.01 36.466c5.5485-0.35569 9.9565-0.46883 19.847-0.96882 3.8243-0.19333 9.6404 0.0318 9.9019 0.45506 0.3551 0.57485 2.6622 12.209 6.3944 23.042 0 0 2.6625 12.13 4.6057 20.025-6.959 12.897-16.038 27.18-14.782 27.758 0.90148 0.44788 4.6651-0.33576 9.3488-0.62701 6.2067-0.38596 10.039-0.86295 12.66 0.0056 2.8553 3.2973 9.8479 39.915 9.8479 44.588 0 3.8768-2.5165 4.7361-27.259 24.134l-24.75 19.403-16.5 2.2376c-9.075 1.2307-41.7 5.6356-72.5 9.7889s-57.61 7.8031-59.579 8.1109c-2.3435 0.3665-3.9309 0.10789-4.5993-0.74928z" fill="#fff" stroke-width="4.4275"/><g transform="translate(280.48 -1.8629)" fill="#f00"><g transform="translate(-279)"><path d="m-198.3-184.32 146.98 0.56816 3.1302 18.388-80.694 128.23 34.378-2.8108 27.942-48.899-22.656 1.0163 21.584-29.061 33.339-1.3148 7.2302 27.967-24.109 46.848 31.402-3.2266 6.3313 27.882-153.47 17.223-5.5101-33.06 31.511-48.816-39.315 1.6437-5.5065-32.511 31.308-42.959-40.378 0.51657z" fill="#000" stroke-width="4.4275"/><path d="m-116.89-157.74 19.04 0.12749-24.671 40.941-23.672-0.0436z" fill="#fff" stroke-width=".89333"/></g></g></g></g></g><g transform="matrix(.97551 0 0 .96723 1.2691 -295.99)" fill="#fff"><g transform="translate(0,12.753)" fill="#fff"><rect transform="matrix(.35818 0 0 .35818 162.76 21.275)" x="-170" y="-386.5" width="17.556" height="6.6761" ry="1.7421"/><path d="m101.86-113.91c-0.0837 0.11266-0.16123 1.7567-0.012 1.8038 0.26875 0.0847 4.574-0.0225 4.574-0.0225s-0.0938 2.095-0.0359 2.142c0.17136 0.13917 1.6839 0.0634 1.7823-0.0157 0.0549-0.12777 0.0795-3.8084-0.0198-3.9314-0.10969-0.0775-6.1448-0.16975-6.2886 0.0238z"/><path d="m108.85-117.15c-0.23708 0.18937-0.16442 6.7855 0.0654 7.0173 0.10968 0.11063 0.61556 0.16811 1.1101 0.16304 0.54156-6e-3 1.0733-0.0826 1.1483-0.16304 0.14353-0.15383 0.13285-3.9133 0.13285-3.9133s2.188 3.8163 2.4104 3.9769c0.10815 0.0781 0.3834 0.12977 0.66006 0.13742 0.2921 8e-3 0.58578-0.0329 0.68598-0.1433 0.19498-0.21498 0.22901-3.9247 0.22901-3.9247s2.0475 3.7031 2.3081 3.9167c0.12769 0.10464 0.42125 0.12807 0.72691 0.12352 0.31817-5e-3 0.64785-0.0412 0.73441-0.12352 0.16972-0.16139 0.28677-6.7532-5e-3 -7.0782-0.13171-0.14672-0.4819-0.15062-0.76675-0.1498-0.34616 9.8e-4 -0.63223 0.0339-0.77555 0.14293-0.26126 0.19876-0.14068 3.8197-0.14068 3.8197s-1.8236-3.5511-2.1258-3.8073c-0.17231-0.14606-0.42263-0.16798-0.71636-0.14215-0.22144 0.0194-0.50051 0.0585-0.60428 0.1343-0.24141 0.17621-0.18472 4.0484-0.18472 4.0484s-2.4152-3.8715-2.7069-4.0448c-0.17039-0.10126-0.78717-0.16294-1.3339-0.1445-0.38946 0.0131-0.8211 0.0577-0.85141 0.15431z"/></g></g></g><g transform="matrix(1.0266 0 0 1 -3.7434 -.63999)"><g transform="matrix(.35818 0 0 .35818 206.22 435.16)"><g transform="matrix(.77912 0 0 .77912 -604.61 -517.27)" fill="#fff"><g transform="translate(0,-225.98)"><g transform="matrix(1.0034,0,0,1.2343,20.351,-541.41)"><ellipse cx="277.74" cy="484.7" rx="9.0904" ry="7.3042"/><ellipse cx="421.69" cy="484.7" rx="9.0904" ry="7.3042"/></g><g transform="translate(0,-229.7)"><g transform="translate(0,-75.323)" fill="#fff"><g transform="matrix(1 0 0 1.0422 .50349 62.764)"><path d="m196.36 318.12s0.0333-10.042 0.0333-13.297l37.915-32.511c-11.218-0.0922-40.043-0.0488-40.043-0.0488l0.51535-8.7516 0.28833-5.7944 30.299-0.11239 32.045-0.32099 0.23148 5.3469-0.44948 7.7426c-10.432 10.247-23.317 21.46-37.332 34.329l18.289-0.084 18.235 0.65106v12.596l-29.447 0.31827z" fill="#fff"/></g><g transform="matrix(1,0,0,1.0422,145.59,62.764)"><path d="m196.36 318.12s0.0333-10.042 0.0333-13.297l37.915-32.511c-11.218-0.0922-40.043-0.0488-40.043-0.0488l0.51535-8.7516 0.28833-5.7944 30.299-0.11239 32.045-0.32099 0.23148 5.3469-0.44948 7.7426c-10.432 10.247-23.317 21.46-37.332 34.329l18.289-0.084 18.235 0.65106v12.596l-29.447 0.31827z" fill="#fff"/></g><g transform="matrix(1,0,0,1.0422,290.68,62.764)"><path d="m196.36 318.12s0.0333-10.042 0.0333-13.297l37.915-32.511c-11.218-0.0922-40.043-0.0488-40.043-0.0488l0.51535-8.7516 0.28833-5.7944 30.299-0.11239 32.045-0.32099 0.23148 5.3469-0.44948 7.7426c-10.432 10.247-23.317 21.46-37.332 34.329l18.289-0.084 18.235 0.65106v12.596l-29.447 0.31827z" fill="#fff"/></g></g></g></g></g></g><g transform="matrix(.13322 0 0 .14631 105.08 112.16)" fill="#fff" stroke-width=".93318"><path d="m-455.31 768.43c0-3.6604 1.166-5.1224 9.6757-12.131l9.6757-7.9695-19.351-0.0974v-9.3438l38.035 0.64371 0.40453 3.6106c0.35864 3.2012-0.73688 4.4986-9.6613 11.441-5.5362 4.3068-9.7366 8.2936-9.3341 8.8596 0.40241 0.56597 4.9001 1.029 9.9949 1.029h9.2633v8.1201h-38.703zm48.807 2.3391c-1.6907-1.4696-2.0972-4.7359-2.0972-16.852v-15.029l38.035 0.64371 0.79896 13.296-7.3419 4.0823c-4.038 2.2452-7.9574 4.0823-8.7098 4.0823-0.75236 0-2.4114-1.3842-3.6867-3.076-2.2266-2.9538-2.2146-3.1361 0.30288-4.5896 8.525-4.9218 8.5231-5.122-0.0476-4.808l-8.0075 0.29337-0.40714 6.1843c-0.58333 8.8606 0.40713 9.476 15.251 9.476h12.515v8.1201h-17.254c-13.906 0-17.661-0.35372-19.351-1.8229zm44.91-14.707 0.37029-16.53 15.45-0.32508c14.003-0.29463 15.784-0.0966 19.018 2.1142 3.5253 2.4103 3.5677 2.6107 3.5677 16.855v14.416h-10.677v-10.788c0-6.8441-0.58549-11.297-1.6015-12.18-0.88081-0.76561-4.4842-1.392-8.0074-1.392h-6.406v24.36h-12.084zm48.912 14.616c-1.339-1.3997-1.8316-5.8457-1.8316-16.53v-14.616h9.342l0.66729 12.18 0.66728 12.18 27.359 0.66117v8.039h-17.186c-14.344 0-17.489-0.31666-19.018-1.9147zm47.147 0.52265c-1.085-0.94313-1.6015-6.3672-1.6015-16.82v-15.428h37.368v14.59l-7.0714 3.7252c-3.8893 2.0488-7.6634 3.7252-8.387 3.7252s-2.3224-1.4814-3.5529-3.292l-2.2373-3.292 5.286-2.5823c2.9073-1.4203 5.286-2.8099 5.286-3.0881s-3.6308-0.50578-8.0684-0.50578h-8.0684l0.3946 7.8301 0.39463 7.8301 26.024 0.66402v8.0361h-17.083c-11.507 0-17.605-0.45434-18.684-1.392zm45.358-2.378 0.4182-3.77 13.679-0.33059c12.579-0.304 13.679-0.51387 13.679-2.61 0-2.1217-0.97317-2.2794-14.065-2.2794h-14.065l0.38559-10.15 0.38561-10.15 36.701-0.64548v8.1856h-13.346c-12.456 0-13.346 0.15467-13.346 2.32 0 2.1654 0.88971 2.32 13.346 2.32h13.346v20.88h-37.537zm47.796-0.25727v-4.0928h13.346c12.456 0 13.346-0.15467 13.346-2.32 0-2.1654-0.88972-2.32-13.346-2.32h-13.346v-20.946l36.701 0.64548v6.9601l-13.679 0.33058c-12.493 0.30192-13.679 0.52476-13.679 2.5695s1.1864 2.2676 13.679 2.5695l13.679 0.33058v19.72l-36.701 0.64548z"/><path d="m-107.05 767.52c0.0975-3.882 1.0946-5.099 9.2664-11.31 5.0364-3.8281 9.1912-7.3516 9.2328-7.8301 0.04164-0.47851-4.1645-0.87001-9.3469-0.87001h-9.4226l0.4142-4.3501 0.41421-4.3501h37.368l0.40687 3.6379c0.36121 3.2297-0.72455 4.5286-9.6757 11.575-5.5454 4.3655-10.083 8.34-10.083 8.8323s4.5042 0.89495 10.009 0.89495h10.009v8.1201h-38.703zm49.367 1.2936c-2.3293-2.574-2.766-4.692-2.766-13.416 0-11.868 0.96299-14.104 6.8438-15.886 5.3572-1.6233 19.536-1.66 24.803-0.0643 5.4971 1.6656 7.056 5.3465 7.056 16.661 0 8.0053-0.47123 10.17-2.766 12.706-2.67 2.9504-3.2457 3.0565-16.585 3.0565-13.34 0-13.915-0.10608-16.585-3.0565zm24.593-13.184v-7.5401l-16.682-0.69072v7.4021c0 4.0712 0.42657 7.7729 0.94794 8.2261 0.52136 0.45317 4.2749 0.67067 8.3411 0.48333l7.3931-0.34061zm19.648-0.29001 0.37028-16.53h16.212c22.118 0 21.823-0.25302 21.823 18.74v14.32h-10.677v-10.788c0-6.8441-0.58549-11.297-1.6015-12.18-0.88082-0.76561-4.4842-1.392-8.0074-1.392h-6.406v24.36h-12.084zm48.912 14.616c-1.339-1.3997-1.8316-5.8457-1.8316-16.53v-14.616h37.368l0.75584 13.92-15.973 8.6372-2.9234-3.5686c-3.173-3.8732-3.1774-3.8656 4.4614-7.461 2.0185-0.95004 3.6701-1.975 3.6701-2.2776 0-0.30263-3.6308-0.55022-8.0684-0.55022h-8.0684l0.39462 7.8301 0.39463 7.8301 26.024 0.66402v8.0361h-17.186c-14.344 0-17.489-0.31666-19.018-1.9147z"/><path d="m101.74 767.73c0-3.4586 1.2281-4.9476 9.3291-11.31 5.131-4.03 9.3349-7.7187 9.342-8.1972 7e-3 -0.47851-4.191-0.87002-9.3291-0.87002h-9.342v-8.1201h38.703v3.3655c0 2.6926-2.0013 4.99-10.009 11.49-5.5051 4.4687-10.009 8.4354-10.009 8.8147s4.5042 0.68976 10.009 0.68976h10.009v8.1201h-38.703zm48.312 2.591c-1.0788-0.93768-1.6015-6.2383-1.6015-16.24v-14.848h38.703l-0.0294 13.34-16.491 8.8735-2.3868-2.6967c-3.391-3.8313-3.0568-4.9456 2.2248-7.4179 2.5691-1.2026 4.671-2.6158 4.671-3.1406s-3.4532-0.79756-7.6738-0.60622l-7.6738 0.34789v15.08l27.359 0.66117v8.039h-17.75c-12.026 0-18.266-0.44889-19.351-1.392zm46.665-12.633c0.58211-18.329 0.72735-18.455 21.279-18.455h14.532v8.0298l-23.355 0.67032-0.76066 23.78h-12.141zm48.363 11.583c-2.1357-2.0512-2.5424-4.2585-2.5424-13.798 0-15.748 0.57267-16.24 18.891-16.24 18.56 0 19.144 0.48758 19.144 15.982 0 16.258-0.27078 16.498-18.553 16.498-12.942 0-14.655-0.24685-16.94-2.4418zm25.484-13.798v-7.5401h-17.349l-0.40944 6.2418c-0.60806 9.2696-0.28545 9.5848 9.4005 9.1842l8.3584-0.34575z"/></g></g></svg>
