<?xml version="1.0" encoding="UTF-8" standalone="no"?>
<!-- Created with Inkscape (http://www.inkscape.org/) -->
<svg
   xmlns:dc="http://purl.org/dc/elements/1.1/"
   xmlns:cc="http://web.resource.org/cc/"
   xmlns:rdf="http://www.w3.org/1999/02/22-rdf-syntax-ns#"
   xmlns:svg="http://www.w3.org/2000/svg"
   xmlns="http://www.w3.org/2000/svg"
   xmlns:sodipodi="http://sodipodi.sourceforge.net/DTD/sodipodi-0.dtd"
   xmlns:inkscape="http://www.inkscape.org/namespaces/inkscape"
   id="svg2"
   sodipodi:version="0.32"
   inkscape:version="0.45.1"
   width="141"
   height="132"
   version="1.0"
   sodipodi:docbase="C:\Documents and Settings\ex100187\Desktop"
   sodipodi:docname="S-sharp-s-Lucida-Sans1.svg"
   inkscape:output_extension="org.inkscape.output.svg.inkscape">
  <metadata
     id="metadata7">
    <rdf:RDF>
      <cc:Work
         rdf:about="">
        <dc:format>image/svg+xml</dc:format>
        <dc:type
           rdf:resource="http://purl.org/dc/dcmitype/StillImage" />
      </cc:Work>
    </rdf:RDF>
  </metadata>
  <defs
     id="defs5" />
  <sodipodi:namedview
     inkscape:window-height="721"
     inkscape:window-width="1024"
     inkscape:pageshadow="2"
     inkscape:pageopacity="0.0"
     guidetolerance="10.0"
     gridtolerance="10.0"
     objecttolerance="10.0"
     borderopacity="1.0"
     bordercolor="#666666"
     pagecolor="#ffffff"
     id="base"
     inkscape:zoom="2.8636364"
     inkscape:cx="74.996835"
     inkscape:cy="91.142857"
     inkscape:window-x="0"
     inkscape:window-y="20"
     inkscape:current-layer="svg2" />
  <path
     style="font-size:144px;font-style:normal;font-variant:normal;font-weight:normal;font-stretch:normal;text-align:start;line-height:125%;writing-mode:lr-tb;text-anchor:start;fill:#000000;fill-opacity:1;stroke:none;stroke-width:1px;stroke-linecap:butt;stroke-linejoin:miter;stroke-opacity:1;font-family:Lucida Sans"
     d="M 37.578999,120.78719 L 37.578999,39.857506 C 37.578985,30.857596 38.399296,24.482602 40.039936,20.732506 C 41.680543,16.98261 44.352415,13.924019 48.055561,11.556725 C 51.758658,9.1896486 56.868028,8.0060561 63.383686,8.0059433 C 71.961763,8.0060561 78.371913,9.8810542 82.614155,13.630943 C 86.856279,17.381047 88.977371,21.693542 88.977436,26.568443 C 88.977371,29.099785 88.555496,31.713064 87.711811,34.408287 C 86.867998,37.103683 84.219563,41.40446 79.766499,47.310631 C 77.891444,49.748202 76.520352,51.681794 75.653217,53.111412 C 74.785979,54.541166 74.352385,55.912258 74.352436,57.224693 C 74.352385,58.584131 74.645354,59.88491 75.231342,61.127037 C 75.817228,62.369283 78.102382,64.701312 82.086811,68.123131 L 93.407124,77.685631 C 101.51642,84.529417 105.5711,91.912222 105.57119,99.834068 C 105.5711,105.74033 103.61407,111.00205 99.700092,115.61922 C 95.785958,120.23641 89.586745,122.545 81.102436,122.54501 C 74.49301,122.545 67.883642,121.18563 61.274311,118.46688 L 61.274311,106.58407 C 69.85239,110.2872 76.461758,112.13876 81.102436,112.13876 C 84.618,112.13876 87.395341,111.0958 89.434467,109.00985 C 91.473462,106.92393 92.492992,104.26377 92.493061,101.02938 C 92.492992,98.873153 92.04768,96.95128 91.157124,95.263756 C 90.266432,93.576283 88.016434,91.18566 84.407124,88.091881 L 70.977436,76.560631 C 65.11802,71.49818 62.188335,66.365373 62.188374,61.162193 C 62.188335,59.381005 62.493022,57.482569 63.102436,55.466881 C 63.711771,53.451323 65.750832,49.771639 69.219624,44.427818 C 71.703951,40.631023 73.297699,37.59587 74.000874,35.32235 C 74.703948,33.049 75.05551,30.951346 75.055561,29.029381 C 75.05551,25.748226 73.977386,23.158385 71.821186,21.25985 C 69.66489,19.361513 66.758643,18.412296 63.102436,18.412193 C 59.211776,18.412296 56.29381,19.713076 54.34853,22.314537 C 52.403189,24.916195 51.430533,28.818535 51.430561,34.021568 L 51.430561,120.78719 L 37.578999,120.78719 z "
     id="text2158" />
</svg>
