<?xml version="1.0" encoding="utf-8"?>
<!-- Generator: Adobe Illustrator 22.0.1, SVG Export Plug-In . SVG Version: 6.00 Build 0)  -->
<svg version="1.1" id="圖層_1" xmlns="http://www.w3.org/2000/svg" xmlns:xlink="http://www.w3.org/1999/xlink" x="0px" y="0px"
	 viewBox="0 0 798.2 800" style="enable-background:new 0 0 798.2 800;" xml:space="preserve">
<style type="text/css">
	.st0{fill:#FDFEFE;}
	.st1{fill:#5A5B5B;}
	.st2{fill:#959595;}
	.st3{fill:#F9FAFA;}
	.st4{fill:#030303;}
	.st5{fill:#F8F8F8;}
	.st6{fill:#080808;}
	.st7{fill:#989898;}
	.st8{fill:#959696;}
	.st9{fill:#F3F4F4;}
	.st10{fill:#929292;}
	.st11{fill:#5B5B5B;}
	.st12{fill:#060606;}
	.st13{fill:#949595;}
	.st14{fill:#F6F6F6;}
	.st15{fill:#979797;}
	.st16{fill:#050606;}
	.st17{fill:#040505;}
	.st18{fill:#040404;}
	.st19{fill:#060707;}
	.st20{fill:#030404;}
	.st21{fill:#090909;}
	.st22{fill:#050505;}
	.st23{fill:#070707;}
	.st24{fill:#020303;}
	.st25{fill:#969696;}
	.st26{fill:#909191;}
	.st27{fill:#F9F9F9;}
	.st28{fill:#F4F5F5;}
	.st29{fill:#070808;}
	.st30{fill:#939393;}
	.st31{fill:#F4F4F4;}
	.st32{fill:#F6F7F7;}
	.st33{fill:#0A0A0A;}
	.st34{fill:#5D5E5E;}
	.st35{fill:#F1F2F2;}
	.st36{fill:#F0F1F1;}
	.st37{fill:#F5F5F5;}
	.st38{fill:#F2F3F3;}
	.st39{fill:#989999;}
	.st40{fill:#909090;}
	.st41{fill:#F7F7F7;}
	.st42{fill:#888888;}
	.st43{fill:#090A0A;}
	.st44{fill:#EFEFEF;}
	.st45{fill:#7C7C7C;}
	.st46{fill:#ECEDED;}
	.st47{fill:#EFF0F0;}
	.st48{fill:#F1F1F1;}
	.st49{fill:#0A0B0B;}
	.st50{fill:#080909;}
	.st51{fill:#F3F3F3;}
	.st52{fill:#0E0F0F;}
	.st53{fill:#0B0B0B;}
	.st54{fill:#E8E9E9;}
	.st55{fill:#9C9C9C;}
	.st56{fill:#EDEDED;}
	.st57{fill:#F5F6F6;}
	.st58{fill:#E5E6E6;}
	.st59{fill:#6A6A6A;}
	.st60{fill:#9C9D9D;}
	.st61{fill:#A2A2A2;}
	.st62{fill:#9B9B9B;}
	.st63{fill:#F8F9F9;}
	.st64{fill:#F2F2F2;}
	.st65{fill:#F7F8F8;}
	.st66{fill:#E6E6E6;}
	.st67{fill:#0C0D0D;}
	.st68{fill:#EEEFEF;}
	.st69{fill:#EBEBEB;}
	.st70{fill:#949494;}
	.st71{fill:#979898;}
	.st72{fill:#9D9D9D;}
	.st73{fill:#5D5D5D;}
	.st74{fill:#9A9A9A;}
	.st75{fill:#5A5A5A;}
	.st76{fill:#919191;}
	.st77{fill:#555555;}
	.st78{fill:#9B9C9C;}
	.st79{fill:#9E9E9E;}
	.st80{fill:#5F5F5F;}
</style>
<g>
	<path d="M690.9,127.6c-0.5-0.4-1-0.9-1.4-1.5c-0.1-0.1-0.1-0.1-0.2-0.2C615.2,47.4,496,0.6,415.4,1C179.8,2.1-2,183.8,0.3,399.7
		C0.5,507,37.8,599.7,111.6,677.3c74,77.8,165.7,119.4,272.7,123.4c110.2,4.1,207.2-31.7,287.9-107.5
		c79.5-74.6,122.4-167.4,126.5-276.2C802.9,306.1,766.8,208.7,690.9,127.6z"/>
	<path class="st0" d="M118.9,404.9c-6.1-4.3-9.7-10.6-13.2-17c-1.2-4.5,0.2-11-7.7-10.6c-3.5-1-4.4-4.1-5.5-7.1
		c-0.7-2.5-1.3-5-2-7.5c-3-4,0.7-6.6,2.2-9.6c-5.3,1.8-6.5-1.9-7.7-5.7c-8.3-24.8-6-50.3-4.4-75.6c0.7-10.3,1.5-20.8,7.6-29.9
		c4.2-1.6,8-1.1,11.3,2.1c1.5,1.9,2.9,3.9,4.4,5.8c0.4,4.7,4.1,6.1,7.7,7.6c1.4,1.1,2.8,2.2,4.1,3.2c0.8,2.7,2.4,4.3,5.3,4.5
		c2,1.2,4,2.4,5.9,3.5c3.1,2.2,6.7,2.8,10.2,3.8c2-0.1,3.9,0.2,5.3,1.9c0.6,2.6-0.8,5.8,2.6,7.4c3.2,1.6,7.2,5.7,6.6-2.6
		c-0.1-1.7,1.7-1.4,3-1.6c13.8-0.2,27.7,1.2,41.2-3.1c7.7-3.2,15.5-4.8,23.3-0.2c1.7,3.8-2.6,4.9-3.6,7.8c4.7,1.6,5.1-10.6,11.2-3.5
		c1.2,0.8,2.4,1.6,3.6,2.4c-0.1,2.8,1.8,3.3,4,3.4c9.8,6,15.8,15.2,21,25c0.3,0.5,0.4,1.1,0.3,1.7c-0.1,1-1.2,1.9-0.5,3.1
		c0.3-1.4,1.1-1.9,2.4-1.1c6.8,6.7,6.5,16.7,11.5,24.2c-1.2,6.4,2.3,11.2,5.5,16.1c2.6,5.7,5.1,11.4,7.7,17.1c1.3,1.8,1,3.3-1,4.4
		c-1.1-0.4-2-1.2-3.3-0.9c-0.1,0,0,0.4,0.1,0.4c0.9-0.2,1.8-0.3,2.6,0.3c3.2,7.1,8.4,13,11.5,20.2c1.1-1.2,0.3-4.7,3.8-3.3
		c16.3,18.1,35.2,30.2,61,26.7c3-0.6,7.2-2.5,8,1.7c0.9,4.8-4.1,5.8-7.6,7.1c-49.3,17.8-94,10.5-133.8-24.3
		c-2.4-2.1-4.4-4.7-7.2-6.1c-2.6,1-0.2,1.8,0.1,2.7c0.6,0.5,1.1,1.1,1.6,1.7c1.6,2.4,3.7,4.1,6.2,5.5c3.6,2.9,8.6,4.5,9.1,10.2
		c-0.1,1.3-2,2.5-1.5,3.1c2.3,2.6,4.5-0.3,6.8-0.5c2.8,0.3,5.1,1.4,6.1,4.2c5.1,7.8,13.4,7,21,8c24.4,8,49.3,5.1,74.1,3.3
		c3.5,0.1,7.1,0.6,10.4-1.2c3.3-1.5,6.7-2.3,10.4-2.3c3.1,0.2,6.3,0,8.2,3.3c-0.5,3.6-2.4,5.6-6.2,5.5c-18.5,11.8-38,21-59.4,26.3
		c-5,1.5-10.5,1.5-15.3,3.9l0.1,0c-6.5,0.7-13,1.8-19.2,4c-34,8-64.3-1.5-93.5-18.5c-15-8.8-27.3-20.7-40.4-31.7
		c-2.2-0.5-3.6-1.9-4-4.2c-1.9-2.5-3.9-5-5.8-7.5c-1.6-1.6-3.2-3.7-2.5-5.8c1.5-4.5-0.7-7.5-3.5-9.9c0,1.6,2,2.9,2.6,4.7
		C122.3,403.1,122.6,405.7,118.9,404.9z"/>
	<path class="st0" d="M316.3,134.3c3.9-5.6,7.8-11.1,11.7-16.7c6.8-10.5,14.9-19.6,26.4-25.2c3.9-2.5,7.8-5.1,11.7-7.6
		c3.6-3,8.1,1.5,11.5-1.6c-1.4-1.1-5-0.6-3.8-4.4c0.4-1.8,1.7-1.9,3.1-2c2.7-0.4,5.7-0.1,6.4-3.9c1.5-1.9,3.4-3.1,5.8-3.5
		c2.5-2,3.8,0.6,5.7,1.4c5.9,2.4,8.3,0.3,7.6-6c-0.2-1.4,1.1-2.1,2.2-2.8c1.4-1.6,3-2.7,5.3-2.3c4.5-1.5,9.6-1.1,13.7-4
		c13.1-4.8,26.6-3.5,40.1-2.4c4.3,0.4,3.6,2.3,2.3,4.8c-0.9,3.5-2.2,6.7-6.4,7.2c-1.1,1.4-2.1,2.7-3.2,4.1c-3.8,8.1-7,16.7-15,22
		c-5.5-1.4-5.6-5-4.8-7.5c-1.4,3.1-4.8,7.5-3,13.6c0.5,1.6-2,2.9-3.7,3.8c-3.5,1.3-7.4,1.8-9.8,5.1c-2.8,3.8,0.1,9.3-3.7,12.8
		c-0.1,0.9-2.7-1-1.6,1.5c0.8,3.5,4.3,1.6,6.1,3.1c0.8,0.4,1.3,1.1,1.6,1.9c-0.2,1.9-0.4,3.7,1.9,4.7c5.3,2.4,4.6,6,1.8,9.9
		c-0.7,0.5-1.6,0.7-2.5,0.7c-2.4-0.7-4.6-2.5-7.4-1.5c-3.8,2.8-1.1,7.2-2.5,10.6c0.3,2.2-4,6.8,3.3,5.1c4.3-1,7.6,3.9,12.2,3.4
		c-1-5.3-1.2-10.3,5.4-12.5c1.2-0.2,2.5-0.3,3.7-0.3c5-2.5-0.1-7.2,2.2-10.3c6.8-2.2,6.4,3.3,6.7,6.9c0.6,7.2,0.4,14.5,0.1,21.8
		c-0.1,1.1-0.3,2.2-0.5,3.2c-2.3,8.3-0.6,16.9-1.2,25.3c0,2-0.3,3.9-1.1,5.8c-3.4,2.6-1.3,5.9-1.2,9c0,4.3-1.7,8-3.7,11.7
		c-1.4,2.4-3.1,4.5-5.1,6.4c-2.1,1.8-4.3,3.2-6.9,4.1c-1.3,0.4-2.6,0.4-3.9,0c-8.8-5.6-4.4,2.2-5,4.9c-6.4,6.8-11.3,15.1-19.5,20.1
		c-8.7-1.7-10.5,0.3-10.3,12.2c-0.5,3.4-1.9,6.2-4.8,8.1c-10.2,1.2-6.1-5.2-4.8-10.2c-3.9,0.9-2.4,3.9-2.9,5.7
		c-0.7,2.6,0,5.5-1.2,8.4c-0.4,0.9,3.7,0.6,3.9,3.1c0.6,3.7-1.4,6.1-4.2,8.1c-8.9,4.9-9.9,7.4-6.5,16.6c-0.8,7.4-5,13.9-5.8,21.3
		c-0.6,4.2-1.2,8.4-1.8,12.6c1.8,3.2-0.8,7.2,2,10.2l-0.1-0.2c0.6,3,2.5,6.4-1.3,8.3c-2.4,1.2-5,0.6-6.3-2.3
		c-8.5-15.9-10.9-33.5-13.1-51c-2.8-22.5-2.1-45,6.2-66.6c0.8-2,1.7-4.1,0.5-7.1c-8.8,6.4-8.7,16.9-12.6,25.2
		c-0.6,0.7-1.3,0.7-2,0.1c-0.5-0.4-1-1.1-1.8-0.4c1.5-0.3,2,0.8,2.4,1.9c-0.2,2.7,0.5,5.5-0.7,8.1l0.1-0.2c-3,3.5,0.2,8.1-2,11.8
		c-1.4,21.8,0.8,43.4,5.6,64.7c1.5,3.2,0.7,7.2,4,9.7c0.7,1,1.3,2.1,2,3.1c-0.2,5.1-1.9,6.8-5.9,2.5c-1.8-2-2.7-4.8-5-7.2
		c1.5,4.8,3,9.2-2.6,11.8c-6.7-0.3-7.9-6.4-11.2-10.4c-1.2-1.9-2.6-3.5-4.1-5.1c-3.8-4-7.5-8-7.8-13.9c1.1-5.2,1.9-10.4,0.5-15.5
		c0,0.2-0.1,0.2-0.1,0.4c-0.8,3.1,3.1,8-3.6,8.4c-0.9,0-1.7-0.3-2.4-0.9c0.1-6.4-5.2-10.8-6.1-16.9c-1-2.7-1.7-5.6-3.5-7.9
		c-13.9-33.1-15.7-67-6.2-101.6c2-4.4,2.7-9.2,3.8-13.9c0.4-1.9-0.7-4.2,1.8-5.4c5.6-1.3,1.5-6.9,4.1-9.5c1-4.2,2.6-8.2,5.4-11.6
		c3.2-0.3,6.9,1,8.2-3.8C311,148.4,316.1,142.2,316.3,134.3z"/>
	<path class="st0" d="M149.8,661.3c-5.8-2-9.8-6.6-14.5-10c-1.6-1.1-4.8-2.9-0.9-5.4c3.3-1.5,6.6-1.1,10-0.2l-0.2,0
		c3.1,2,6.2,2.1,9.3,0c3.5-2.6,8.4-2.1,11.5-5.5c0.5-0.4,1.2-0.9,1.6-0.7c4.5,2.7,4.3-0.3,4.2-3.4c0.7-0.7,1.3-1.4,2-2.1
		c1.6-2.3,1.5-5.9,5.1-6.5c2.2-0.1,3.5-1.1,3.4-3.5c2.9-3.1,4.5-7.4,8.4-9.6c5-0.1,2.3-4.8,4.1-6.8c3-8.8,4.1-17.9,5.9-27
		c4.7-24.3,20.3-42,37.9-58.1c5.6-5.1,11.2-10.4,18.8-12.8c4.8-1.5,8.8-5.6,14.9-3c2.8,1.2,5.9-4.7,7.9-4.8c8.5-0.4,17-1.3,25.6-1.3
		c10.3,0,20.6-0.6,30.7-2.3c2.8-1.7,5.9-1.8,9-1.9c4.1-0.9,8.5-1,12-3.9c7.1-4.6,15.4-7.1,21.5-13.1c6.5,1.4,5.4-4.5,7.3-7.6
		c15.9-12.8,11.6-31.3,12.5-49.5c10.9,13.9,10.9,47.1,1.2,70.6c-1.9,2.5-2.7,5.4-3.9,8.2c-0.8,1.1-1.5,2.1-2.3,3.2
		c-0.4,2.4-5.2,2.2-3.6,5.8l0-0.1c-1.7,2.9-4.7,2.8-7.4,3.5c-1.8,0.5-4.8,0.6-4.9,2.3c-0.6,10-11.4,12.4-14.7,20.4
		c-5.4,4.4-13.6,5.7-15.3,14.1c-11,0.5-8.4,9.7-10.1,16c-0.5,0.8-1.1,1.3-2,1.6c-2.5-0.2-3.6-3.7-7.3-2.8c0.6,5.1-2.2,11.6,6.4,13
		c2.2,2.5,3.9,6.1,8.1,3.2c-1.9,0-4.2,0.9-5.1-1.7c-1.2-3.7,3.9-3.3,4.2-6.1c5.8-4.3,11.8-7.9,19.2-8.7c0.8,0.4,2,0.9,2.1,1.6
		c0.4,7.3,5.5,11.5,10.4,15.9c0,1.4-0.6,2.5-1.9,3.2c-4.7-1.1-5.3,1.1-3.8,4.8c-2.2,4.7-7.1,7.3-9.1,12.1c-1.8,2.9-2.8,6.2-3.9,9.3
		c-1.3,2.8-2.4,5.7-4.7,7.8c-7.4-1.7-10.4,1.7-10.3,8.8c0,2.2,0.1,4.3-0.2,6.5c-1.4,4.2-3.9,7.1-8.3,8.2c-6.1-2.3-3.3,5.1-6.5,6
		c-1.5,2.3-3.3,4.3-5.6,5.9c-8.2,4.1-16.1,8.8-24.7,11.9c-3.1,0.6-6.1,1.7-9.3,1.9c-6.4-5.6-9.8,0.2-13.9,3.6
		c-1.7,1-3.5,1.8-5.3,2.5c-9.9,3-20,4.8-30.3,4.3c-13.2-0.1-26.4,0-39.6,0c-4.9-0.1-9.9-0.1-14.4-2.5c-3.8-2.4-7.6-5-12.3-5.5
		l0.2,0.1c-0.6-1.7-2.2-2-3.7-2.5c-6.8-2.3-3.3-4.8,0.4-7.7C159.8,665,154.8,663.3,149.8,661.3z"/>
	<path class="st1" d="M699.6,333.7c2.8,2.7,1.8,6.3,2.2,9.6c-3.7,4.5-4.8,13.1-14.7,8.7c6.7,6,13.7,10.5,20.1,15.7
		c2.7,2.2,8.2,3.8,4.5,9.4c-2,1.3-4.2,1.8-6.5,1.2c-5.6-4.6-11.7-8.4-17.3-13.1c-9.1-7.6-19-9-30.1-5c-5.9,2.2-11.8,4.6-18.3,4.9
		c-4,0.1-8,0-12,0.1c-4,0-8-0.6-11.6-2.4c-1.8-0.8-3.5-1.8-5.1-2.9c-2-1.4-3.9-3-5.8-4.5c-17.7-6.8-34.7-4.1-51.7,3.2
		c-13.8,5.9-27.8,11.1-43.3,6.9c-4-0.4-7.8-1.7-11.7-2.8c-5.6-1.9-11.3-1.6-16.9-0.2c-3.3,0.7-6.7,1-10,1.5
		c-6.4-0.5-12.5,1.4-18.7,2.7c-3.7,0.8-7.4,2.2-11.2,0.7c-3-1.1-7.1-0.9-7.7-5.5c3-9.7,11.4-15.5,17.4-23c4.5-5.6,10.3-10.2,15-15.8
		c8.5-5.2,14.6-13.7,23.7-18.1c6.2-3.4,13-5.2,19.8-7.1c1-0.3,1.9-0.5,2.9-0.7c7.8-0.4,15.6-0.8,23.3,0.3c5.5,1.4,11.2,2.1,16.5,4.2
		c10,4.1,20.1,8,29.4,13.6c12.5,7.5,25.9,7.8,39.7,5.2c5.6-1.1,11.3-2,16.8-3.7c18.4-5.7,35.1-2.3,50.6,8.8
		C692.8,327.7,694.7,332.7,699.6,333.7z"/>
	<path class="st2" d="M510,299.4c-6.5,2.5-12.9,4.9-19.4,7.4c-11.1,2.7-18.5,8.4-22.8,17.5c-10.9,12.1-21.8,24.2-32.7,36.3
		c-1.5,1.9-2.3,4.4-5.1,4.9c-2.5,0.5-3.2,2.4-3.7,4.5c-0.7,1.9-2.3,2.9-3.8,4.1c-1,0.8-2,1.7-3.2,2c-4.7,1.4-10,5.7-14.3,1.7
		c-3.3-3.1-1.9-8.8-0.4-13.4c7.7-17.9,15.3-35.9,27.4-51.4c2.5-3.2,4.6-6.8,8.5-8.7c1.6,0.7,2.3,0.4,1.7-1.5
		c36.5-24.8,76-32.8,117.8-17.2c18.6,6.9,36.5,11.5,55.6,5.8c24.2-7.2,45.1-1.8,64,13.9c5.6,0.6,7,4.9,8.3,9.3
		c1.9,2.7,3.8,5.4,5.7,8.1c1.7,4.1,0,5.6-4,5.5c-12.1-6.3-23.7-14.2-38.4-11.5c-8.1,1.5-16.2,3.2-24.2,5.2
		c-17.4,4.4-33.9,3.6-49.7-6.1c-8.1-5-17-8.5-25.6-12.6c-9.8-7-21.4-6.7-32.5-6.7c-5.1,0-10.6,0-15.7,1.9c-1.2,0.5,0.3,1.9-0.2,0.7
		c-0.2-0.4,0.1-0.5,0.6-0.8C506.3,297.4,508.3,297.4,510,299.4z"/>
	<path class="st2" d="M554.2,716.9c-2-7.1-4-14.2-5.9-21.3c-2.3-5.3-0.9-11.1-2.6-16.4c-0.8-11.3,1.1-22.7-1.2-34
		c-2.7-12.2-4.3-24.6-8.5-36.4c-2.1-12.3-9.2-22.2-15.6-32.4c-17.7-28.6-32.4-58.4-36.8-92.2c-1.3-10-2.8-20-3.6-30.1
		c0.8-1.5,1.8-2.5,3.6-1.8c15.2,6.7,27.8,17.9,42.7,25.3c7.3,3.6,9.9,11.5,7.6,19.9c-1.9,7-4.2,13.9-8.7,19.8
		c-7.3,5-3.8,12.7-5,19.8c2-4.8-3.2-10.5,3.2-13.7c-0.2,3.8-0.4,7.6-0.5,11.4c-0.2,6.8,2.5,11.9,9.2,14c8.3,2.6,13.3,8.7,16.7,16
		c6.5,13.8,12.9,27.6,18.4,41.8c7.5,19.3,3.2,38.8-0.8,58.2c-0.7,3.4-1.9,6.7-2.9,10c-1.4,11.6-1.7,23.2,0.4,34.8
		c1.1,6.1,2.1,12.6-1.2,18.6c-0.9,0.8-2,1-3.2,0.7l0.3-0.8C557.3,724.6,558.5,719.4,554.2,716.9z"/>
	<path class="st1" d="M481,454.8c5.7,12.4,3.7,26.2,6.6,39.1c6.6,29.8,19.6,56.8,35.8,82.3c6.3,9.9,12.8,19.7,15.3,31.5
		c-4.1,5.2,1.4,10,0.5,15.2c-0.8,4.9-0.8,9.9-8.1,8.1c-2.9-1.6-4.5-4.5-6.4-7c-7.2-9.2-15.7-16.6-26.9-20.8
		c-13.6-5.1-23.5-13-21.2-29.7c0.8-5.5-2.3-10.5-3.6-15.8c-3-11.5-3.4-23.3-5.2-35c-0.8-4.2-0.8-8.4,0-12.6
		c2.4-11.8,1-23.6,0.9-35.4c-0.3-0.9-0.6-1.8-0.7-2.8c-0.6-3.1-0.5-6.4-1.9-9.4c-0.8-3-2.2-5.8-2.1-9c-1.7-4-0.7-8.9-4.1-12.2
		c-1.5-1.1-1.7-2.6-1.2-4.3c2-1.7,4.5-1.7,6.1-0.1C470.6,442.4,478.1,446.6,481,454.8z"/>
	<path class="st2" d="M469.8,523.4c2.8,10.7,2.2,22,5.5,32.6c2.9,9.1,4.2,18.3,4.2,28c0,8.5,7.7,12.3,14.5,14.7
		c17.1,5.9,29.4,17.2,38.7,32.3c6.3,4.6,6.5,12.3,9.4,18.6c0.8,2.2,1.4,4.5,2.1,6.8c0.8,5.1,2.3,10.1,2.1,15.4
		c-0.1,2.5,0.2,5-0.3,7.4c-0.6,2.8,1.8,0.1,2.1,1.1c2.6,5.1,0.8,10.2,0.2,15.3c-6.9-9.9-10.3-21.6-15.9-32.2c-4-2.1-4.2-6.2-5.1-10
		c-2.8-8.1-8.3-14.8-12.2-22.4c0.5-1.4,0.9-2.7-1.5-1.9c-7-7.7-14.8-12.7-26.2-12.8c-11.8-0.1-19.7-7.2-19.7-19.3
		c0.1-21.1-6.8-40-13.6-59.3c-6.7-18.7-2.8-36.3,7.8-52.6c3.8-2-0.5-5.8,1.9-8.1c0-6-0.1-12-0.1-18c0-2.4-2.7-5.6,2.1-6.3
		c0.5,3.2,0.1,6.5,2.1,9.3c2.2,2.9-0.6,6.9,2,9.7l0-0.1c0.7,9.7,2.4,19.5-2.5,28.8c-1.5,2.9-0.6,6.3,0.2,9.4
		C468.6,514.3,466,519.4,469.8,523.4z"/>
	<path class="st2" d="M356.8,601.9c1.2-5.5,5.9-8.3,9.4-12c1.9-1.3,1.6-4.4,4.3-5c0.5-0.7,1.1-1.3,1.6-2
		c4.9-9.8,12.1-17.9,18.3-26.7c6.3-8.8,12.6-17.6,15-28.5c7.7-15.2,15.8-30.3,14-48.3c-0.2-2.2,0.5-4.4,2.5-5.9
		c2.9,4,1.9,8.6,1.7,12.9c-1.6,31.4-2.3,62.9-15.2,92.4c-3.4,9.2-5,19.2-11.1,27.4c-2.7,0.9-4.8,0.4-6.1-2.3
		c-9.5-6.7-15.3-5.6-21.3,4c-1.1,1.8-2.4,3.6-3.5,5.4c-1.1-1.4-1.6-3-2.2-4.6c0.6,1.6,1.1,3.3,2.2,4.6c-0.5,1.4-1.1,2.9-1.6,4.3
		c-2.1-0.3-3.4-1.9-4.9-3.1c-1.8-1.6-6.2,0.5-5.9-4.1C354.2,607.4,355.5,604.7,356.8,601.9z"/>
	<path class="st2" d="M382.8,274.4c1.6-2.3,3.2-4.6,4.9-7c1.4-6.5,5.4-10.9,11.1-14.1c6.4-6.5,12.8-13,19.2-19.5c1.8-2.1,3-5,6.4-5
		c1-0.2,2.1-0.4,3.1-0.6c2,0.8,3.6,0,5.2-1.1c2.3-0.8,3.7-2.9,5.8-4c2.6-1.1,4.8-4.1,8-1.5c0.6,0.7,0.8,1.5,0.8,2.4
		c-1.5,3.4-4,6.4-4.7,10.2c-1,1.9-3.2,4-3,5.8c1.8,17-9.9,24.8-21.7,32.7c-1,1.1-2.3,1.3-3.7,1.1c-11.2,0.6-19.6,5.6-24.5,15.9
		c0.3,2.1-1,3.1-2.7,3.8c-4,2.4-6.9,5.9-9.3,10c-1.3,1.2-0.8,3.9-3.3,4.2c-1.2-0.3-2.2-0.2-2.4,1.4c-3.2,6.4-6.4,12.8-9.7,19.1
		c-1.6-8,2.9-15,3.9-22.6c1.7-5.6,0.7-12.5,7.4-15.8c1.3-2.5,2.7-5,4-7.5C378.4,278.9,379.9,276.3,382.8,274.4z"/>
	<path class="st3" d="M407.1,529.4c0.2,6.6-3.8,11.4-7.1,16.3c-8.5,13-16.4,26.4-27.9,37.2c-9.1-2.2-11.2-9.2-11.6-17.3
		c-0.4-0.6-0.6-1.4-0.3-1.7c9.2-8.4,15.9-18.8,22.9-28.9c0.5-0.8,1.5-1.1,2.5-1.4c8.3-5.8,9.5-16.2,15.3-23.6c1.8-1.9,4-3.7,6.4-1.4
		c3.2,3.1,3.5,7.3,2.3,11.3C408.6,523.1,405.9,525.7,407.1,529.4z"/>
	<path class="st4" d="M340.7,437c-22.8,2.1-45.6,5.5-68.2-1.3c-3-0.9-6.1-1.6-9.2-2.4c-7.1-2.1-13.9-4.5-19.5-9.6
		c-1.8-1.3-3.6-2.5-5.4-3.8c-2.4-0.8-5.6-0.5-5.9-4.2c-3.5-3-7-5.9-10.5-8.9c-1.9-1.7-3.5-3.7-5.3-5.5l-0.2-0.2
		c-2.7-2.6-6.6-4.9-3.2-9.6c10.1,7.6,20,15.6,30.4,22.6c37.7,25.5,77.4,23.1,118,7.9c1-0.4,1.9-1.4,3.3-2.4
		c-2.9-2.4-5.9-0.9-8.4-1.7c5.9-4.4,8.8-0.5,11.5,4.1c2.4-0.1,2.4-2.7,3.8-3.8c3.5,4.2,1.6,8.1-0.8,11.9c-2.5,5.1-7.8,0.6-11,3.3
		c-3.3-0.1-6.6-0.5-9.3,2.1C347.7,437.3,343.9,435.4,340.7,437z"/>
	<path class="st2" d="M444.9,167.2c0.3-0.5,0.3-1,0-1.5c0.8-1,1.5-1,2.4-0.1c0.7,5,0.2,10.1,0.3,15.1c0,0.6-0.4,1.1-0.4,1.1
		c2.7-8.4-2.4-17.8,1.7-26.5c1.4-0.7,2.8-0.6,4.1,0.3c2.1,1.6,2.5,4,3,6.4c1.5,1.7,2.9,3.3,4.4,5c5.6,2.2,3.9,7.8,5.4,11.9
		c1.1,6.9,0.6,13.7,0,20.6c-0.9,1.2-0.2,3.1-1.7,4.1c-4.5,3.9-6.4,9.2-8.1,14.7c-0.2,1.8-1,3-2.9,3.2c-2.5-1.3-3.9,2.7-6.4,1.2l0,0
		c-1.6-3.8-4.1-2.8-6.7-1.3c-1.5-0.1-2.2-1.1-2.5-2.4c1.3-3.8,4.1-7.1,3.5-11.5c2.1-2.3-0.2-5.5,1.7-7.8c0.1-1.8,0.2-3.6,0.3-5.4
		C445.6,185.4,442,176.1,444.9,167.2z"/>
	<path class="st2" d="M509.9,363c15.3,3.4,29.3-0.5,42.9-7.3c15.1-7.5,31.2-7.4,47.4-6c3.1,0.3,6.1,1.9,7.7,5
		c-1.1,6.8-6,5.1-10.3,4.8c-6.8-0.4-14.1-1.8-17.4,6.8c-3.2,1.8-4.9-0.4-6.7-2.4c1.4,2.4,3.2,4.3,6,4.7c0.8,0.4,1.4,1,1.8,1.8
		c-1.5,2.9-3.1,5.7-4.6,8.6c-3,3.6-5.3,1.6-7.6-0.9c-5-13.9-5.9-14.4-22.5-11.5c-9.3,9.3-19.2-1.3-28.7,0.7c2.9,0.5,6-0.7,8.8,0.9
		c-2.4,4.8-8.4,7.4-13.4,5.3C508.6,371.4,506.4,368,509.9,363z"/>
	<path class="st5" d="M407.1,529.4c0.1-2.9-7.8-5.2-0.1-8.9c3.6-1.8,0.8-6.5,0.2-9.6c-0.7-4.1-4.1-0.4-6.2-1
		c9.4-21.8,9-44.9,10.1-68.3c5.8,9.9,8.4,20.8,10.8,31.8C423.5,493.9,418.6,512.5,407.1,529.4z"/>
	<path class="st6" d="M385.7,533.7c-6.1,12.5-13.2,24.2-25.1,32c-6.3,3.2-12.7,6.3-19,9.5c-2.7,1.1-5.4,1.9-8.2,2.7
		c-6.2-3.4-5.9-5.1,2.2-10.4l0,0c8.7-11.2,17.4-22.4,30.6-28.9c6.6,2.5,9.8-3.3,14.3-6c-2.8-4-0.8-6.2,3.1-5.8
		C388.1,527.2,384.9,531.3,385.7,533.7z"/>
	<path class="st2" d="M509.9,363c-0.6,14.8,9.5,6.7,17.1,8.1c-4-4.5-8.4-1.3-11.7-4.1c6.7-1.3,13.4,0.7,20.3-3.4
		c-1.7,2.8-2.5,4.2-3.4,5.6c1.9,0.4,3.9,0.8,5.8,1.2c0.1-7.4,5.9-2,8.5-3.8c-1.8,3.4-5.7,5.3-6.5,9.4c-1.9,0.7-3.9,1.3-3.1,4.1
		c-5.9,7.6-11.8,0.4-17.7-0.1c-2.5-1.3-5.9-0.7-7.6-3.6c-3.2-2-6.3-4-9.5-6c-5.5-2.1-11.1-0.5-16.7-1c-5.8,0.1-12.1,1.2-13.8-6.9
		c2.5-3.4,6.1-1.3,9.2-1.8c5.9-1.3,11.8-1.3,17.7,0C502.4,361.4,506.1,362.2,509.9,363z"/>
	<path class="st7" d="M689.9,364.5c5,4.5,12.5,6.1,14.9,13.4c-0.5,0.7-1,0.7-1.5,0c-7.3-0.9-12.1-7.3-19.4-8.7
		c-6.1-1.2-10.9-0.5-15.8,3.5c-11.7,9.6-25,11.9-39.5,7.2c-4-0.8-4.1-4.7-5.8-7.3c-1-2.2-2.5-3.9-4.9-4.6c-2.8-0.8-6.2,1.5-8.5-1.7
		c-0.3-0.8-0.2-1.6,0.4-2.3c1.5-1.8,5.3,0.3,5.6-3.4c3.7,1,7.1,3,11.2,2.2c1.1,0.7,2.4,1.1,3.6,1.5c2.6,0.5,5.7,1.3,5.4,4.3
		c-0.9,8.2,4.2,7.2,8.8,5.8c7.3-2.3,16.5-1.1,20.4-10.5c0.8-2,3.5-2.7,5.8-2.3C676.9,362.5,683.7,361.7,689.9,364.5z"/>
	<path class="st2" d="M354.7,611.3c0.9,3.6,5.9-4.2,5.8,2.1c2.9,4-1.2,7.5-0.9,11.1c1.1-2,0.4-5.6,4.5-5.4c0.8,3.7,4.2,5.1,6.7,7.3
		c-3.1,4.5-5.3,9.7-10.5,12.4c-1.5,0.8-0.3,2.1,0.2,3.2c-2.7,4.1-7,6.1-11.2,8.3c-2.8-0.5-5.3-1.4-6.6-4.3c-0.1-1.3,0.4-2.5,1.3-3.4
		c-1.8,1.1-1.6,3.4-3,4.7c-2.1,1.9-4.5,2.8-6.8,0.9c-2.6-2.2-1.2-4.6,0.4-6.6c2.4-2.9,6.1-4.8,5.5-9.4c1.1-5.5,4.1-9.7,8.5-13.1
		c1.4-2.6,2.8-5.2,4.2-7.7C353.4,610.6,354.1,610.6,354.7,611.3z"/>
	<path class="st8" d="M343.3,646c2.2,1.2,4.8,1.8,6,4.4c-20.2,12.9-41.7,22.9-65.3,28.2c-3.1,1.5-6.2,1.2-9.4,0.2
		c-0.4-0.5-0.6-1-0.6-1.6c0-0.6,0.1-0.9,0.2-0.9c2.7-2.6,7.1-3.2,8.4-7.4c0.3-0.8,0.9-1.3,1.6-1.8c3.1-0.6,6.2-1.2,9.2-1.8
		c1.1,0.6-1,0.6,0.3,0.9c5.9,1.3,22.4-4.8,24.4-9.3c0.5-1-0.4-2.5-0.4-3.7c1.5-1.6,3.1-3.3,4.6-4.9c0.4-0.9,1.1-1.2,2.1-1
		C331.3,655,337.2,649.4,343.3,646z"/>
	<path class="st9" d="M329.9,362.6c4.9-4.7,0.6-9.2-0.9-14.3c6.6,0,8.2,4.8,10.2,8.7c3,5.9,3.1,0.1,4.5-0.9
		c6.8,10.2,14,20.1,18.9,31.3c0.6,1.3,3,2.9,0.4,4.7c-2.5,1.7-3.2-0.9-4.4-1.9c-5-4.2-9.9-8.6-14.8-12.9l-0.5,0.6l0.5-0.5
		c-3.9-3.9-7.8-7.9-11.7-11.8C330.3,365.3,329.5,364.4,329.9,362.6z"/>
	<path class="st4" d="M455.9,78.4c4.8,8.6,6,17.4,1.5,26.5c-0.5,1-1,2.8-0.5,3.5c6.6,9.3,2.1,19.6,3.2,29.4c0.5,4.3-1.5,7.5-5.6,6.7
		c-4.1-0.9-1.3-4.4-0.8-6.9c1.4-6.6,3.9-13.1,1.9-20.3c-2.4,2.3-0.2,6-2.9,7.8c-4.1-3.2-1.9-8.2-3.6-12c-0.3-0.9-0.5-1.9-0.7-2.8
		c-0.7-4.8-0.1-9.7-1.7-14.4C446,88,448.3,81.8,455.9,78.4z"/>
	<path class="st10" d="M481,454.8c-7.7-5.6-11.9-15.6-22.4-17.7c-0.1-0.6-0.4-1.1-0.8-1.6c-3.6-2.3-5.5-5.9-7.4-9.5
		c-4.2-3.6-9.7-3.9-14.6-5.6c-2.2-0.8-4.7-1.5-4.4-4c0.5-4,4.3-2.4,6.1-2c12.8,3.3,24.8,8.2,32.7,19.9c2.1,3.1,4.6,5.9,6.9,8.8
		c1.8,0.8,3.4,1.6,3.2,4c1.1,1.7,2.2,3.5,3.3,5.2C482.7,453.1,481.9,454,481,454.8z"/>
	<path class="st11" d="M710.8,376.1c-1.4-8.4-10.2-9.3-15.2-13.8c-3.8-3.5-7.4-9.5-14.8-8.8c4.2-1.7,6.8-6,11.7-2.8
		c2.1,1.4,5.7-0.1,4.5-3.6c-2.4-7,2.8-3.1,4.8-3.7c3.5,13.6,9.5,25.9,18.6,36.5c-0.7,0.7-1.6,1.2-2.5,1.5
		C714.3,381.3,710.9,380.9,710.8,376.1z"/>
	<path class="st12" d="M329.9,362.6c0.7,1,1.5,2,2.2,3c-0.1,0.9-0.2,1.8-0.3,2.7c-6,5.6-5.4-2-7.7-3.8c-0.8-1.9-2-2.9-4.3-3
		c-2.1-0.1-5.9-0.7-6.1-1.7c-1.7-8.4-5.5-13.3-14.9-11.6c-0.2,0-1.3-1.9-1-2.3c3.4-6.2-0.3-13.8,3.6-19.9c0.6,0.1,1.2,0.1,1.7,0
		c3.7,1.2,3.6,5.3,5.8,7.7c0.2,5.8,5.5,8.6,7.8,13.2c0.7,1.8,0.8,4,3.4,4.3C324.5,353.9,324.8,360.3,329.9,362.6z"/>
	<path class="st13" d="M236.5,676.8c10.3,0.6,20-3.3,30.2-4c3.5-0.5,8.4-4,7.7,3.9h0c-13.5,6.2-28,6.4-42.4,7.3
		c-6.8-1.8-13.7-0.6-20.5-1c-0.9,0.3-1.6,0.8-2.2,1.5c-10.3-1.2-20.5-2.5-30.2-6.3l0,0c-1.4-1.2-2.7-2.3-4.1-3.5
		c1.8-1.3,3.7-1.1,5.6-0.1c4,3,8.6,2.1,13.1,2.3C207.9,678.2,222.2,678.1,236.5,676.8z"/>
	<path class="st14" d="M366.2,538.5c-10.2,9.6-20.4,19.3-30.6,28.9c0-3.1,0.1-6.3,0-9.4c-0.2-5-0.3-9.8,7.2-8.5
		c3.1,0.5,5-1.4,5.8-4.6c1.8-6.7,1.9-6.5,8.8-6c0.9,0.1,2-2.5,3.1-3.9c1.8,1.2,5.4-2.8,5.8,2.1C366.3,537.5,366.2,538,366.2,538.5z"
		/>
	<path class="st15" d="M455.9,78.4c-3.9,5.1-7.7,10.3-7.1,17.3c1.8,5.2-1.1,10.9,1.8,16l0-0.1c1.3,6.4,1.5,12.8-0.1,19.3
		c0,0.6-0.1,1.2-0.4,1.8c-6.5-4.4-0.4-10.4-2.3-15.1c-0.8,2.9,0.7,6.5-1,9.7c-6.3-5.4-10.1-30-5.7-36.5c5.7-6.6,8.6-15.2,15.2-21.1
		C458.8,72.6,455.7,75.4,455.9,78.4z"/>
	<path class="st16" d="M354.4,92.4c-8.8,8.4-17.6,16.8-26.4,25.2c-2.5-1.2-4.8-2.5-3.9-5.9c1.5-1.6,1.9-3.6,1.9-5.8
		c-3-8.7,3.5-3,5.8-3.8c4.1-0.9,7.9-2,5.7-7.7c-4.4-11.1,3.6-5.8,7.7-5.7c2.7,1.1,6,0.7,7.9,3.6C353.6,92.3,354,92.4,354.4,92.4z"/>
	<path class="st17" d="M471.7,362.4c3.7,3.2,6.8,7.7,12.8,6.1c0.8,0.2,1.1,0.7,1,1.5c-6.8,4.9-12.8,4.7-18.1-2.4
		c-0.3-0.4-1.7-0.4-1.7-0.4c-2.3,10.2-10.6,1.5-15.2,4.8c-5.2,3.8-7.7-0.2-10.1-4c-0.3-0.7-0.1-1.2,0.5-1.6
		C451.3,365.6,460.9,359.2,471.7,362.4z"/>
	<path class="st9" d="M355,356.8c6.6,3.2,7.8-0.5,7.6-6c4.3,12.8,12.5,24.1,13.1,38.2c-2.8,2.5-4.3,0.7-5.6-1.7
		C365,377.2,358,368,355,356.8z"/>
	<path class="st18" d="M404.6,364.5c-0.2,2.5-0.6,5-0.6,7.5c0,5.3,2.6,6.5,7.3,4.6c4.1-1.6,8.2-3,12.4-4.4c1.9-1.4,3.9-1.8,5.8,0.1
		c-2.4,2.5-8.6,2.1-6,8.6c1.1,2.9-0.6,4-4.3,3.7c-5.5-0.4-11.2-0.1-16.5,1.4c-4.5,1.2-5.9-0.4-4.8-3.7c1.7-5.2-0.1-10.6,2.2-17.9
		c0.5,4.6,0.8,7.2,1.2,10.5C403.9,371.2,401,366.9,404.6,364.5z"/>
	<path class="st9" d="M366.3,537c-1.3-2.6-4.8,1.2-5.8-2.1c5.2-2.4,2.3-13.7,12.2-11.1c0.1,0,0.7-1,0.6-1.5
		c-2.6-14.5,9-10.4,16-12.3C383.5,520.6,375.7,529.5,366.3,537z"/>
	<path class="st5" d="M335.5,498.3c-2.9,3.7-7.2,1.3-10.6,2.3c-15.3,4.3-31,1-46.5,2c0.1,2.6,2.7,1.2,3.4,2.5
		c-3.6,1.8-9.7,5.8-10.4,5c-5.4-6-10.1,0.6-15-0.2c9.2-6.8,19.7-9.6,30.9-10.1C303.4,499,319.5,498.7,335.5,498.3z"/>
	<path class="st19" d="M189.3,615c-2.3,3.3-4.6,6.7-6.9,10c-0.8,1.8-2.4,2.7-4,3.7c-3.3,0.2-2.5,4.9-5.7,5.3
		c-0.1-0.3-0.1-0.7-0.2-0.9c-1.8-3.5-9.4,0.8-8.5-5.5c0.8-5.5,7.3-3.8,10.7-6.5c3.1-1.3,1.4-2.5,0-3.8c1.1-2.2-2.4-8.4,5-5
		c5.8,2.7,5.7-4.1,8.4-6.5c0.2,2.6-0.7,5.4,1.3,7.6C190.8,614.1,190.7,614.6,189.3,615z"/>
	<path class="st20" d="M255.1,695.4c-10.2,2.9-20.1-0.1-30.1-0.4c-1.2,0-2.5-0.5-3.6-1c-3-1.2-8.8,4.6-8.8-2c0-3.6,6.5-1.5,10-1.9
		c3.1-0.3,6.3-0.2,9.5-0.1C240.1,690.4,248.6,687.9,255.1,695.4z"/>
	<path class="st2" d="M232.2,682.4c11.9-1.9,24.2-2,35.7-6c2.4-0.9,4.3,0.5,6.5,0.3c2.7,3.2,6.4,1.4,9.7,2
		c-5.5,2.6-11.4,3.5-17.4,3.8c-1.2-0.4,0.5-0.1-0.7-0.6c-1.4-0.5-2.9-0.2-4.2-0.5c1.2,0.5,2.9-0.1,3.6,1.4c-3.6,2-7.5,2-11.4,1.8
		c-14.5,1.2-29,1.2-43.5,0l-0.6,0.3c0,0-0.6-0.3-0.6-0.3c0-0.7,0-1.4,0-2.1C216.9,680.9,224.5,680.9,232.2,682.4z"/>
	<path class="st12" d="M414.2,272.8c1.3-0.1,2.5-0.1,3.8-0.2c-0.6,2.3,8.5,0.7,2.2,5.9c-2.3,1.9,3.1,5.1,2.1,9.4
		c-4.6-4-9.2-6.1-14.4-1.6c-3.7,3.1-6.2-1-9.2-2.3C400.8,276.1,406.7,273.3,414.2,272.8z"/>
	<path class="st21" d="M609.3,364.7c2.3,2.6,6.5,0.1,8.6,3.2c-3.5,9.6-11,1.7-16.4,3.1c-1.4,0.4-5.5-2.5-9-2.1
		c-0.6,0.1-5.2,0.5-1.3-3.9c3.8-4.2-4.3-0.4-4.7-3.4C593.6,357.1,601.6,358.2,609.3,364.7z"/>
	<path class="st14" d="M316.3,134.3c2.8,3.9,1.6,7.6-0.5,11.4c-1.9,3.6-3.4,7.4-5,11.2c-2.3,5.3-5.4,6.7-10,2.5
		C304.6,150.2,309.9,141.9,316.3,134.3z"/>
	<path class="st22" d="M396.4,605.5c4.8-8.5,4.7-19.2,12-26.7c5.8,6.2,1.5,12.6-0.5,18.3c-1.4,4.1-5.9,7.1-9,10.5
		C397.7,607.3,396.8,606.7,396.4,605.5z"/>
	<path class="st23" d="M130.9,419.5c1.3,1.4,2.6,2.8,4,4.2c0.9,4.3-2.8,7-3.8,10.8c-0.8,2.9-5.4,1.6-5-1.4c0.9-7.3-3.5-9-8.8-10.7
		c-1.6-0.5-2.8-2.5-4.1-3.9c-0.9-1-1.5-2.7-0.2-3.2c1.2-0.4,2.9,0.5,4.4,0.9c2.8-0.2,4.9,2,7.7,1.9
		C127.1,418,128.1,422.7,130.9,419.5z"/>
	<path class="st14" d="M295.7,391.2c-1.5,2.3-2.9,4.7-4.7,6.7c-0.6,0.7-2.6,0.9-3.4,0.4c-2.2-1.6,0.8-2.9,0.8-3
		c-1.2-3.3-1.9-7.6-4.4-9.4c-4.6-3.3-3.6-7.6-4-11.8c1.6-0.9,1.8-2.4,2-3.9C286.6,377.1,291.1,384.1,295.7,391.2z"/>
	<path class="st7" d="M609.3,364.7c-7.5-1.5-14.8-5.2-22.8-3.1c-1.7,2.9-3.4,5.9-5.1,8.8c-0.8-0.1-1.7-0.1-2.5-0.2
		c-1.1-1.3-1.2-2.5,0-3.8c3.2-10.6,11.6-10.7,20-9.2c3.9,0.7,6.6,0.5,9.1-2.5c1.2,1.3,2.4,2.6,3.6,3.8c1.5,2.6-0.4,4.1-1.8,5.7
		L609.3,364.7z"/>
	<path class="st24" d="M237.9,480.8c-7.1,1.3-13,9.8-21,4.9c-3.3-2-4.1-5.3-4.3-9.3C221.1,477.9,229.5,479.4,237.9,480.8z"/>
	<path class="st19" d="M370.2,387.3c1.8,0.9,3.2,2.9,5.6,1.7c-0.7,1-2.1,2.3-1.9,3.1c0.4,1.6,1.9,0.9,2.9,0.2
		c3.6-2.3,4.3-12.8,1.3-17.9c6.3,2.2,9.1,13.2,4.4,17.4c-1.2,1.1-2.4,2.3-3.8,2.8c-3.1,1.1-5.6,6.2-9,3.3
		C366.3,395,368.5,390.8,370.2,387.3z"/>
	<path class="st25" d="M414.2,272.8c-5.6,3.2-11.2,6.4-15.6,11.2c-3.2,1.1-5.5,3.2-7.4,5.9c-0.5,0.7-1.1,0.7-1.7,0
		c-3.6-2.7-0.8-4.4,1.2-5.8c3.7-2.6-1.8-4.5-0.5-6.4c2.5-3.3,4.5,2,6.3,0.9c4-2.4,7.4-5.6,11.8-7.6
		C411.6,269.6,413,269.8,414.2,272.8z"/>
	<path class="st26" d="M446.4,127.6c0.2-4,0.5-8,0.8-13.2c3.3,6.6-0.6,13,3,18.2c0.1,1.2,0.2,2.5,0.3,3.7c-1.4,4.7-1.3,9.5-0.1,14.3
		c0.2,1,0.5,2.1,0.7,3.1c0.5,0.7,0.5,1.3-0.1,1.9c-4.4,9.2-1,19.3-4.5,28.8c0-6.5,0-13,0-19.6C446.2,152.4,444,140,446.4,127.6z"/>
	<path class="st27" d="M151.8,278.3c1.5,2,3,4,4.5,6c-8.3,5.3-13-2-18.9-5.4c-0.1-3.4,4.4-2.2,5-4.8c3.2,0.6,6.4,1.2,9.6,1.8
		C152.9,276.8,152.9,277.6,151.8,278.3z"/>
	<path class="st28" d="M404.6,62.1c-3.3,5.7,4.3,5,5,8.4c-13.4,4.8-13.4,4.8-20.4-1C393.8,66.1,398.7,63.1,404.6,62.1z"/>
	<path class="st12" d="M139,637.5c-1.9,6.2-14.6,6-9.2,16.2c0.1,0.1-1.3,1.4-1.9,1.4c-0.8,0-2.1-0.7-2.2-1.3
		c-1.5-5.3-1.9-11.5,0.9-15.7C128.9,634.5,134.7,634.6,139,637.5z"/>
	<path class="st22" d="M192,577.1c-0.2,5.6,2.4,10.7,1.8,16.6c-0.6,5.1-1.1,9.3-5.6,12.1c1.2-5.5,1.5-11.1-0.7-16.3
		C185.1,583.7,186.8,579.8,192,577.1L192,577.1z"/>
	<path class="st20" d="M551.6,274.7c4.9,0,9.8-0.5,14.6,0.2c3,0.4,6.4,2.9,5.7,6.2c-0.8,4.2-4.4,1.6-7,1.3
		C559.7,281.9,555.7,279.1,551.6,274.7z"/>
	<path class="st29" d="M465.7,179c-1.8-4-3.6-7.9-5.4-11.9c1.6-2.5,5.5-1.3,7-4.5c0.2-0.4,3.6-0.9,5,0.9c1.1,1.4,1.5,3.1,0.6,4.4
		C470.4,171.6,470.6,176.9,465.7,179z"/>
	<path class="st25" d="M360.4,642.1c-2.4-0.2-5.8,0.6-6.2-2.7c-0.4-2.9,2.9-2.3,4.8-3.1c4.7-2.2,6-8.7,11.8-9.8
		c3.3,0.2,3.8,1.7,1.9,4.2C369.2,635.2,365.8,639.7,360.4,642.1z"/>
	<path class="st12" d="M450.4,426c4.3,1.7,6.5,5.1,7.4,9.5c-3.5,3.4,0.4,8.7-5,14.2C453.7,440.3,444.4,434.6,450.4,426z"/>
	<path class="st18" d="M688,314.7c-2.8-3.1-5.5-6.2-8.3-9.3c3.7-1.3-3.1-5.9,2.6-7.1c5.6-1.2,1.8,4.2,4.4,5.3
		c3.8,1.6,5.2,6.8,10,6.9C696,317.1,688.9,309.1,688,314.7z"/>
	<path class="st12" d="M250,277.5c-4.3,2.8,0.2,9.7-5.4,9.1c-3.9-0.4-8.3-4.9-8.9-8.8c-0.9-5.6,5.3-1.1,7.8-3.5
		C245.1,272.9,247.5,275.8,250,277.5z"/>
	<path class="st22" d="M449.8,560.4c-0.7-8.5-1.5-17-2.3-26.9C456.8,548.2,457.2,554.4,449.8,560.4z"/>
	<path class="st19" d="M527.3,653.4c2.7,2.8,3.8,6.5,5.1,10c-1.5,1.7-6.6-0.4-4.7,4.7c0.8,2.2,1.8,4.7-2,4.3c-2.5-0.3-3.8-2.9-3-5
		c1.6-4,1.5-6.9-0.4-11.2C519.2,649.3,527,657.3,527.3,653.4z"/>
	<path class="st30" d="M561.4,729.1c3.1-6.6,2-13.3,1.2-20.2c-1.2-11.3-2.9-22.9,0.9-34.1c-1.7,18.3,2.5,36.5,1.6,54.8
		C563.6,732.1,562.3,731.5,561.4,729.1z"/>
	<path class="st19" d="M383.5,464.1c2.2-7.8,4.4-15.6,6.7-23.8C395.7,451.3,392.8,461.3,383.5,464.1L383.5,464.1z"/>
	<path class="st17" d="M324.7,486.3c7.2-2.3,13.1-1.6,18.3,5.4C335.5,493.3,329.1,494.7,324.7,486.3z"/>
	<path class="st20" d="M254.5,480.1c4.9-0.5,9.8-1.3,14.7-1.5c2.2-0.1,4.7,0.8,4.6,3.7c-0.2,3.2-3,2.7-5.1,2.8
		C263.7,485.5,259,483.9,254.5,480.1z"/>
	<path class="st23" d="M309.3,674.7c-2.7,8.1-13.1,11.5-25.8,8.8C291.6,678.5,301.4,680.4,309.3,674.7z"/>
	<path class="st19" d="M383.5,464.1c1.8,7.5-5.4,8.8-8.8,12.7c-0.2,0.2-1.3-0.1-1.6-0.5c-1.3-1.4-0.3-4.2,0-4.1c10,4.1-7.3-16,7-7.9
		C380.9,464.8,382.3,464.2,383.5,464.1C383.5,464.1,383.5,464.1,383.5,464.1z"/>
	<path class="st23" d="M362.5,439.7c1.9-1.6,3.8-3.1,5.6-4.7c0.8-0.5,1.4-0.4,2,0.3c0.7,1.1,1.4,2.1,2,3.2c1.9,3.3-0.3,5.5-2.4,7.3
		c-1.8,1.5-4.1,3.5-6.8,2.1C358.7,445.5,366.1,442.2,362.5,439.7z"/>
	<path class="st22" d="M78,258.2c-2-6.1-0.1-11.4-1.8-16.6c-1.5-4.2,4-0.8,4.9-3.5c0.5-1.6,2.5-2,3.8-0.4c1.5,1.9-1,2.5-1.4,3.8
		C81.7,246.8,80,252.1,78,258.2z"/>
	<path class="st22" d="M399.3,411.9c4,3.6,9.6-3.5,11.1,0.9c1.3,3.7-1.1,9.4-5.5,13.4C404.8,420.7,401.9,416.8,399.3,411.9z"/>
	<path class="st20" d="M507.8,629.7c-0.5,2.6-1.6,4.6-3.7,4.1c-4.1-1.1-6.9-4-7.5-8.5c-0.2-1.9,0.3-4.2,3-3.3
		C503.6,623.4,506.3,626.3,507.8,629.7z"/>
	<path class="st12" d="M459.5,65.5c2.1-2.4,4.3-4.8,6.4-7.2c0.8,3.9,4.8-3.5,6.4,2.2c1.6,5.6-3.3,4.8-4.6,7.2l0,0
		C464.2,70,460.9,71.5,459.5,65.5z"/>
	<path class="st31" d="M226.6,278.3c-1.6,1-5.3-2.6-4.9,1c0.4,3.8-0.1,6-3.6,7.3c-0.5-5-5.2,0.1-5.9-2.2c-1-3.6,2.2-5.4,4.7-7.3
		c0.9-0.7,1.5-2,2.2-3C222,274.7,225.1,275,226.6,278.3z"/>
	<path class="st12" d="M569.1,584.8c6.3,7.1-0.4,14.9,2.8,21.4C566.3,600,564.6,593.3,569.1,584.8z"/>
	<path class="st32" d="M118.9,404.9c4.6-6.3-5.5-8.1-3.3-15.1c4.1,5.3,11.5,7,9,15.9c-0.5,1.9,0.3,4.2,0.5,6.3
		C122.2,410.3,120.4,407.7,118.9,404.9z"/>
	<path class="st33" d="M92.5,370.1c3,0.9,3.1,4.5,5.4,6c2,1.3,3.4,2.9,2.4,5.5c-3.1,3.1-7.3,2.7-9-0.1
		C89.3,378.3,87.4,373.4,92.5,370.1z"/>
	<path class="st34" d="M429.5,372.3c-1.9,0-3.8-0.1-5.8-0.1c0.7-1.3,1.3-2.5,2-3.8c0.5-2.1,2.1-3,3.9-3.6c1.9-1.4,3.7-2.7,5.6-4.1
		c-0.3,4.2,4.6,3.2,5.8,5.9c-0.2,0.5-0.4,1-0.5,1.6C436.3,368.2,432.9,370.4,429.5,372.3z"/>
	<path class="st16" d="M79,347.2c1.2,1.8,2.9,3.5,3.4,5.5c0.5,2.2,3.1,4.7,0.7,7c-1.7,1.6-4.5,1.4-6.3,0.1c-2.7-1.9-1.7-5.2-1.5-8
		C75.4,349.7,79.7,350.4,79,347.2L79,347.2z"/>
	<path class="st16" d="M561,384.2c-0.8-8.1-2.8-13.3-13.1-13c7.3-3.8,11.6-3.1,14.7-0.1C566.2,374.4,565,378.6,561,384.2z"/>
	<path class="st29" d="M265,497.4c-3.4,6.1-7.9,6.4-11.1,8.5c-2.1,1.4-4.3,1.6-5-1.5c-0.6-2.3-0.1-4.4,2.8-4.9
		C255.5,498.9,259.3,498.3,265,497.4z"/>
	<path class="st19" d="M142.5,269.2c-4.7-1.2-9-0.9-10.8-4.7c-0.7-1.5,2.7-4,3.7-2.5c3.1,4.7,10.4-2.9,11.6,4.1
		C147.4,268.8,144.7,270.7,142.5,269.2z"/>
	<path class="st35" d="M149.8,661.3c5,0,10.1,0,15.8,0c-6.9,6.4,3.9,6,3.1,10.1C161.6,669.6,155.4,666,149.8,661.3z"/>
	<path class="st36" d="M151.8,278.3c0.1-0.8,0.1-1.6,0.2-2.3c14.7,1.4,29.3,0.2,43.8-1.7c-10,5.7-21.1,3.8-31.8,4.1
		C159.9,278.5,155.8,278.3,151.8,278.3z"/>
	<path class="st37" d="M85,347.3c2.5,6.4,6.9,3.6,11.1,1.6c2.4,6.8-7.4,7.8-5.6,13.7C86.9,358.1,85.5,352.9,85,347.3z"/>
	<path class="st16" d="M347.2,660.1c2.1-5.9,5.3-8.9,10.4-9.4c1.4-0.1,2.9,1.8,2.3,3.5C357.9,659.7,352.9,659.4,347.2,660.1z"/>
	<path class="st22" d="M286.8,182.7c-1.8-7.7-0.5-12.8,1.5-17.8c0.6-1.5,1.6-3,3.4-2.5c2,0.5,1.8,2.4,1.3,3.8
		C291.2,171.1,289.3,175.9,286.8,182.7z"/>
	<path class="st16" d="M534.9,681.6c4.8,4.1,4.9,7.6,6,10.7c0.6,1.8,2.7,4.1-1.6,4.4c-2.6,0.2-4.4,0.1-4.4-3
		C534.8,690.4,534.9,687.1,534.9,681.6z"/>
	<path class="st23" d="M527.1,536.8c0.8-4.3,6.7-4.8,7.7-9.4c0,4.9,0.3,9.9-0.1,14.7c-0.4,5.3-2.5,0.2-3.8,0.4
		C528,541.8,528.7,538.6,527.1,536.8z"/>
	<path class="st12" d="M277.1,266.7c4.5,4.5-1.2,11.9,4.3,16.3c0.2,0.2-0.8,2.6-1.7,3.1c-2,1.2-2.5-0.8-3.2-2.2
		C273.5,278.1,274.8,272.4,277.1,266.7z"/>
	<path class="st16" d="M100.6,238.3c3.4,5.2,10.2-7.1,12.2,2c0.3,1.3-1.4,4.2-2.7,4.6C104.7,246.7,103.6,241.1,100.6,238.3z"/>
	<path class="st16" d="M416.3,49.6c-4.4,6.5-9.7,6.5-14,8.1c-0.6,0.2-2.1-0.3-2.4-0.9c-0.8-1.6,0.4-2.9,1.5-4
		C405.2,48.7,410.1,52.3,416.3,49.6z"/>
	<path class="st16" d="M212,265.6c-6.5,5.5-13.9-2.5-19.6,3.7C195.2,262.4,199.5,261.7,212,265.6z"/>
	<path class="st17" d="M274.7,187.9c7.2,1.4,8.2,2.2,6.6,4.3c-2.2,2.9,4.2,7.8-2.8,9.2c-3,0.6-2.3-0.8-2.3-2.2
		C276.4,195.5,276.1,191.7,274.7,187.9z"/>
	<path class="st19" d="M276.6,347.2c11.4,3.4,12.9,7.2,6.4,16.6C285.7,356.2,280.8,352,276.6,347.2z"/>
	<path class="st32" d="M100.3,381.7c-0.8-1.8-1.6-3.7-2.4-5.5c4.2-3.6,7.2,0.4,9.6,2.3c4.4,3.4-3,5.9-1.7,9.5
		C103.9,385.8,102.1,383.7,100.3,381.7z"/>
	<path class="st13" d="M210.5,684.5c14.5,0,29,0,43.5,0C239.5,687.3,225,687.5,210.5,684.5z"/>
	<path class="st38" d="M373.8,78.9c2,3.2,7.5,2,8.3,6.6c-5.3,0.9-10.7,1.4-16-0.7C367.9,81.8,370.8,80.3,373.8,78.9z"/>
	<path class="st39" d="M523.4,523.4c-4.4,5.8-0.4,13-3.3,20.7c-1.4-10.4-0.7-19.1,1.2-27.8c0.3-1.3-0.2-3.8,2.4-2.3
		c0.8,0.5,1,2.2,1.4,3.3C523,518.9,523.7,521.3,523.4,523.4z"/>
	<path class="st6" d="M396.4,605.5c0.8,0.7,1.6,1.4,2.4,2.2c-6.6,1.7-13.2,2.7-18.9-3.1c3.9-3.5,7.8,3.2,11.2-0.6
		C392.9,604.5,394.6,605,396.4,605.5z"/>
	<path class="st40" d="M689.7,328.3c2.4-1,4-2.7,4-5.5c3.7,2.7,4.6,6.9,5.9,10.9c-0.5,1.6-0.6,4.1-3.1,1.7
		C694.1,333.2,691.9,330.7,689.7,328.3z"/>
	<path class="st15" d="M446.7,222.8c2-0.2,2.3-5.8,5.8-1.9c0.6,0.5,0.7,0.9,0.4,1.3c-0.2,0.3-0.5,0.5-0.7,0.5
		c-1.8,2.6-3.6,5.3-5.4,7.9c-0.8,1-0.8,2.5-2.2,3c-0.6,0.2-1.3,0.4-1.9,0.6C438.2,228.3,445.2,226.5,446.7,222.8z"/>
	<path class="st19" d="M307.7,140.2c-0.9,2.8-2.1,5.7-5.1,6.5c-2.5,0.7-3.3-1.8-3.1-3.6c0.4-3.1,2.3-5.4,5.4-5.9
		C306.6,137,307.9,138.2,307.7,140.2z"/>
	<path class="st12" d="M188.3,468.7c-4.5-3.2-15.3,1.1-13.8-10.2C179.4,462.1,183.9,465.4,188.3,468.7z"/>
	<path class="st12" d="M660.4,382.4c3.3-1.8,6.2-3.5,9.3-5.3c2.4,4.2,0.3,7-2.6,8.9C663.4,388.5,662.7,384.2,660.4,382.4z"/>
	<path class="st41" d="M274.4,353c-4.1-0.9-3.7-8.6-11.1-5.8c2.1-4.2,6-6.3,5.6-10.3C271.9,341.8,273.9,347.2,274.4,353z"/>
	<path class="st17" d="M512.8,462.8c3.5-0.2,6.5-4.6,9.7,0.3c1,1.6,1.4,4.7-0.3,5C518.5,468.8,514.9,467.6,512.8,462.8z"/>
	<path class="st22" d="M511.8,376.3c3.2-0.1,5.6,1.4,7.6,3.6c-3,1.8,3,4-0.1,5.3c-3,1.3-5-2-7.6-2.9
		C507.9,381.1,511.2,378.4,511.8,376.3z"/>
	<path class="st19" d="M456,162.1c-1.7-1.1-3.1-2.4-3.3-4.5c0.8-2.5,0-5.3,1.7-7.6c4.4-2.1,4.6,1.6,5.5,4.1
		C461.4,158,459,160.3,456,162.1z"/>
	<path class="st23" d="M419.3,450c-1.9-3.1,0.5-6.9-3.4-8.6c-1.9-0.9-1.6-3.4,0.3-4.6c3-1.9,3.9,0.9,4.6,2.8
		C422.2,442.8,422.7,446.1,419.3,450z"/>
	<path class="st17" d="M422.6,314c-0.1-4.2,2.1-7.6,0.3-11.1c-1.3-2.6,0.5-3.2,2.9-2.7c1.8,0.4,4.9,0.3,3.3,2.9
		C426.9,306.4,427.6,311.2,422.6,314z"/>
	<path class="st20" d="M552.4,733c-6.3-4.8-4.6-10.6-1.8-18.7C552.7,721.7,548,727.9,552.4,733z"/>
	<path class="st23" d="M431.7,422.4c-3.9,0.1-6.3-0.3-8.2-2.1c-2.6-2.4,0-4.7,0.3-7c0.2-1.6,1.4-1.8,2.8-1.3
		c3.2,1.2,0.1,3.2,0.6,4.4C427.8,418.3,429.5,419.7,431.7,422.4z"/>
	<path class="st22" d="M385.2,628c-0.4,2.4-1.6,4.1-4.1,4.3c-2.5,0.2-3.2-1.5-3.1-3.6c0.1-2.8,1.1-5.1,4.3-4.8
		C384.2,624,385.1,625.9,385.2,628z"/>
	<path class="st18" d="M275.5,224.3c-0.7-2-1.2-2.6-1.1-3.1c0.6-3.8-2-8.2,2.1-11.3c0.3-0.2,1.6,0.2,1.6,0.3
		C278.2,214.6,279.3,219.2,275.5,224.3z"/>
	<path class="st21" d="M310.1,395.5c-1.7-2.3-7.3,0.8-6-4.1c0.6-2.1,1.8-6,4.8-4.7C312.5,388.3,309.9,392.3,310.1,395.5z"/>
	<path class="st42" d="M465.7,452.7c-2.3,1.6-1.5,4.2-2.1,6.3c-2.2-5.7-3.9-11.5-3.8-17.7C465.9,443,463.8,448.9,465.7,452.7z"/>
	<path class="st21" d="M315.6,400.1c2.8,1.4,7.5-2.6,8.4,3c0.3,1.7-0.9,3-2.7,3.3C316.8,407.1,316.1,403.8,315.6,400.1z"/>
	<path class="st12" d="M565.4,732.1c3.4-2.4,3.3-6.4,4.6-10.2c2.9,4.4,3.1,8.7,1.5,13.2c0,0.1-2.7-0.7-4.2-1.1
		C565.3,734.8,564.9,733.9,565.4,732.1z"/>
	<path class="st21" d="M343.8,377.3c-1.1,2.5,2.5,6.6-2.3,7.8c-3.2,0.8-4.8-2-5-4.2C335.5,373.3,341.9,379.9,343.8,377.3
		c0.1,0.1-0.4,0.5-0.4,0.5L343.8,377.3z"/>
	<path class="st6" d="M708.2,336.1c-3-2.5-7.1-4.4-4.8-9.1c1.5-3,4.1-4.1,4.6-0.2C708.4,329.6,706.9,332.8,708.2,336.1z"/>
	<path class="st33" d="M203.1,561c-3.5-4.6-2.1-7.8,0.7-10.7c0.3-0.4,2-0.2,2.3,0.3C208.6,554.7,205.6,557.4,203.1,561z"/>
	<path class="st22" d="M144.8,641.7c5.4-5.2,9.1-6.1,14.7-3.8C155.2,640.8,151.4,641.6,144.8,641.7z"/>
	<path class="st6" d="M339.1,326c6,4.7,3.1,10,5.2,13.7C337.5,337.5,340.9,332,339.1,326z"/>
	<path class="st12" d="M419.4,326.4c-1.2,2.2-2,4.9-4.9,5.7c-0.5-1.8-4.2-0.1-3.6-3.2c0.7-3.5,5.2-2.3,6.6-5.2
		C417.6,323.4,419.2,325,419.4,326.4z"/>
	<path class="st23" d="M458.4,236.3c-2.7-2-4.9-3.6-7.2-5.2c1.6-3.8,5.1-2.1,8.1-3.7C459,230.5,458.7,233,458.4,236.3z"/>
	<path class="st29" d="M143.8,669.1c0.1,2-0.7,3.4-2.6,2.9c-1.9-0.6-4.6-1.1-4-4c0.4-1.6,0.9-4.1,3.3-3.7
		C142.9,664.7,143.2,667.3,143.8,669.1z"/>
	<path class="st23" d="M145.4,664.3c3.2,1.9,8.5,1.7,7.5,6.7c-0.1,0.4-6.3,4.5-6.1-2.5C146.9,667.1,145.9,665.7,145.4,664.3z"/>
	<path class="st12" d="M472.9,281c1.3-5.3,5.4-5,9.8-6C481.2,281.5,476.2,279.7,472.9,281z"/>
	<path class="st43" d="M336.7,456.5c5.6,0.6,8.8-1.9,11.8,0.5c0.4,0.3-0.2,2.6-0.9,3.2C343.9,463.4,341.6,460.2,336.7,456.5z"/>
	<path class="st44" d="M385.4,471.8c-0.3,4,0.9,8.2-1.5,11.9c-3-0.5-2.5-4.9-5.8-4.3C378.8,475.2,384.4,475.7,385.4,471.8z"/>
	<path class="st21" d="M389.6,289.9c0.6-0.1,1.1-0.1,1.7,0c1.5,2.9,4.9,2.2,7.5,3.9c-4.3,5.6-7.9,2.4-11.6-0.3
		C388,292.3,388.8,291.1,389.6,289.9z"/>
	<path class="st23" d="M125,418.1c-4.2,6.1-5.2-1.1-7.7-1.9c0.3-1.5,0.7-3,1-4.4C121.6,412.7,123.3,415.4,125,418.1z"/>
	<path class="st17" d="M381.5,68c-1.8,3-4,3.8-6.8,3.3c-1.4-0.3-2.5-1.2-1.8-2.6c1.1-2.1,2.1-5,5.5-3
		C379.6,66.3,380.5,67.2,381.5,68z"/>
	<path class="st31" d="M268.7,473.9c5.9-3.9,12.1-5.8,19.2-4C281.8,472.9,275.3,473.6,268.7,473.9z"/>
	<path class="st22" d="M318.4,466c3.2-2.9,5.1-2.1,5.6,2c0.2,2.1,0.6,5.2-2.6,5.1c-4.9-0.1-0.6-4-1.8-5.7
		C319.3,466.9,318.8,466.4,318.4,466L318.4,466z"/>
	<path class="st45" d="M710.8,376.1c1.7,3,4.4,4,7.6,3.9c-0.6,4.9-3.9,1.9-6.1,2.1c-3.3-0.8-6.7-1.2-9-4.1c0.5-0.1,1-0.1,1.5,0
		C706.8,377.3,708.8,376.7,710.8,376.1z"/>
	<path class="st46" d="M111.6,257.2c-6.3,1.2-10.8,0.7-7.7-7.6C107.4,251.2,109.4,254.3,111.6,257.2z"/>
	<path class="st7" d="M364.1,619.2c-1.6,2.6-3.1,5.1-4.8,7.8c-2-4.9,0.5-9.2,1.2-13.6c2,0.8,3.3,2.3,4.1,4.2
		C364.7,618.3,364.6,618.8,364.1,619.2z"/>
	<path class="st23" d="M324.1,364.5c3.1,0.1,3.1,6.6,7.7,3.8c0.3,1.4,0.7,2.8,1,4.2c-2.3-0.1-5.1,1.4-6.6-0.8
		C324.7,369.7,322.2,367.6,324.1,364.5z"/>
	<path class="st16" d="M372,418.1c-0.6,2,1.3,6.5-3.8,3.8c0.7-1.7,1.1-3.3,0.5-5.3c-0.8-2.5,0.3-4.7,3.1-3.8
		C375.1,414,372.4,416.3,372,418.1z"/>
	<path class="st22" d="M452.5,494.1c-1.9-0.2-3.2-1.2-3.1-2.9c0.2-2.4,2.3-3.6,4.1-4.6c1-0.5,2.3,1.1,2.1,2.4
		C455.5,491.1,454.8,493.2,452.5,494.1z"/>
	<path class="st29" d="M448.7,413.4c5.4-2.7,8.7-2,11.1,1.6c0.4,0.6,0,1.8,0,2.7C456.6,416.4,453.3,415.2,448.7,413.4z"/>
	<path class="st6" d="M296.3,372.1c1.1,4.3,3.5,6.7,2.1,10.5C294.3,380.3,292.1,378,296.3,372.1z"/>
	<path class="st47" d="M189.3,615c0.1-0.5,0.2-1.1,0.2-1.6c1.5-1.9,2.9-3.9,4.4-5.8c1,2.6,2.1,5.2,3.2,7.9
		C194.3,618.3,191.9,614.5,189.3,615z"/>
	<path class="st12" d="M702.1,382.6c-0.4,1.8-1.6,2.6-3.3,2.7c-2.5,0.1-3-1.7-3.1-3.8c0-1.4,0.6-2.5,2.2-2.1
		C699.7,379.8,701.6,380.4,702.1,382.6z"/>
	<path class="st6" d="M464.1,203.7c-0.3-1.7,0.5-3,1.7-4.1c0.5,0.8,0.9,1.7,1.4,2.4c1.5,2,3.5,4,1.4,6.5c-0.6,0.7-3.7,4.4-3.6-0.7
		C465,206.1,465.7,204.7,464.1,203.7z"/>
	<path class="st48" d="M170.8,636.2c0.4,0.8,0.9,1.6,1.2,2.5c0.8,2.1,3.6,4.8,0.1,6.4c-3.4,1.6-1.1-3.6-3.5-3.9
		c-1.2-0.2-2.4-0.6-3.6-1C167,638.8,168.9,637.5,170.8,636.2z"/>
	<path class="st22" d="M267.9,319.9c6.3,2,7.2,4.9,5.1,10C269.7,327,269.6,323.5,267.9,319.9z"/>
	<path class="st22" d="M216.2,263.4c3.9-0.6,6.6-0.5,7.5,3c0.1,0.5-0.9,1.8-1.4,1.8C219,268.7,217.2,266.9,216.2,263.4z"/>
	<path class="st26" d="M450.5,130.8c0-6.4,0.1-12.8,0.1-19.3c2.9,4.2,1.8,9,2.2,13.5C452,127,451.3,128.9,450.5,130.8z"/>
	<path class="st29" d="M353.1,92.3c-3.3,0.2-5.9-1.1-7.9-3.6C348.9,87.5,353.9,83.5,353.1,92.3z"/>
	<path class="st49" d="M360.4,79.9c2.3-4.6,4.8-5,8.5-3.9C367.1,79.5,364.7,80.5,360.4,79.9z"/>
	<path class="st38" d="M383.3,73c0.6,2,2.9,4,0.8,5.9c-3.2,2.9-4.6-2-7.2-2.1C378.6,74.7,380.7,73.5,383.3,73z"/>
	<path class="st29" d="M622.8,372.5c2.5,2,4.9,4.1,5.8,7.3C619.1,383.3,622.7,376.5,622.8,372.5z"/>
	<path class="st12" d="M461.7,609c0-3.6,0-6.5,0-10.4C466.2,602.4,466.3,605.2,461.7,609z"/>
	<path class="st28" d="M423.6,55.8c0.1,1.3,1.6,4-0.3,3.4c-4.8-1.5-9,2.1-13.5,0.6C414.1,57.3,418.6,55.9,423.6,55.8z"/>
	<path class="st17" d="M380.8,68c2.5-4.7,5.1-6.1,9.3-5.5C388.2,66.5,384.8,66.9,380.8,68z"/>
	<path class="st31" d="M234.2,284c-1.8,1.3-3.5,4.2-6.1,1.5c-2.7-2.9,1.5-3.2,2.1-4.9C232.4,280.8,234.2,281.4,234.2,284z"/>
	<path class="st29" d="M337.5,94.5c2,6.4,0.6,8.3-5.7,7.7C333.7,99.5,337.9,98.7,337.5,94.5z"/>
	<path class="st30" d="M554.2,716.9c6,1.6,5.2,6.7,5.6,11.2C556.6,725,556.5,720.3,554.2,716.9z"/>
	<path class="st50" d="M569.2,378.1c2.3,2.1,4.8,2.6,7.6,0.9c-0.9,3.8-4.6,2.3-6.9,3.4c-1.3,0.7-3.3,1.4-3.5-0.9
		C566.3,380.4,568.2,379.2,569.2,378.1z"/>
	<path class="st51" d="M295.4,171c0,3.2,0.5,6.5-0.1,9.5c-1,5.1-2.7-0.6-4.1,0C292.1,177.1,292.8,173.6,295.4,171z"/>
	<path class="st48" d="M120.9,264.9c-1.5,0.5-1.8,3.7-4.3,2c-2.7-1.8-2.3-4.1-0.9-6.5C117.8,261.5,120.1,262.3,120.9,264.9z"/>
	<path class="st29" d="M268.6,320.4c-2.7-0.4-3.6-1.5-3.7-3.2c-0.1-1.8-0.1-3.7,2.7-5C269.4,314.7,268.3,317.7,268.6,320.4z"/>
	<path class="st52" d="M355.4,394.3c-3.2-0.1-3.6-3.2-5.8-4.5c2.5-2.7,3.7-0.7,4.9,0.4C355.4,391.1,356.9,392.2,355.4,394.3z"/>
	<path class="st12" d="M333.5,663.8c2.2,0.4,2.7,2.3,2.9,4.1c0.1,0.6-1.1,1.9-1.6,1.8c-2-0.2-3.4-1.6-3.7-3.5
		C330.8,664.9,332.1,664.1,333.5,663.8z"/>
	<path class="st31" d="M287.8,469.9c4.4-3.9,9.8-4.3,15.3-3.9C298.2,468.2,293.2,469.9,287.8,469.9z"/>
	<path class="st2" d="M463.8,477c0.1,2.6,0.4,4.9,2.6,6.8c1.4,1.2,1,3.3-0.8,3.6c-1.1,0.2-2.4-1.5-3.7-2.4
		C461.9,482.2,462.3,479.5,463.8,477z"/>
	<path class="st50" d="M218,535.5c0.3,3.7-1.5,5.1-3.9,5.9c-0.4,0.1-1.8-1.1-1.7-1.6C212.8,537.2,214.6,535.8,218,535.5z"/>
	<path class="st21" d="M367.5,343.1c-2-4.6-0.9-7.2,1.8-9.7C370.6,336.7,370.4,339.4,367.5,343.1z"/>
	<path class="st2" d="M485.5,370c-0.3-0.5-0.7-1-1-1.5c5.9,0.6,12.2-2.1,17.8,1.8C496.7,370.2,491.1,370.1,485.5,370z"/>
	<path class="st12" d="M467.8,67.7c1.5,0.3,4.2,0.7,4.2,0.9c-0.3,3-2.7,4.2-5.8,6.5C466.9,71.7,467.3,69.7,467.8,67.7
		C467.8,67.6,467.8,67.7,467.8,67.7z"/>
	<path class="st19" d="M544.4,547.5c2,0.1,3,0.9,3.1,2.3c0.1,1.5-1,2.2-2.4,2.2c-1.6,0-3.3-0.7-3.1-2.5
		C542.2,548.6,543.8,547.9,544.4,547.5z"/>
	<path class="st19" d="M480.3,447.1c-1.1-1.3-2.1-2.7-3.2-4c2.5-1.3,5.3-1.7,6.6,1.1C485,447,481.9,446.5,480.3,447.1z"/>
	<path class="st47" d="M257.4,312.7c-2.7,1.6,0.9,4-1,5.9c-4-2.6-3.2-5.9-1.2-9.5C256.8,309.7,257.3,311,257.4,312.7z"/>
	<path class="st19" d="M444.1,261c-1.2-3.5-2.9-5.4-2.2-8.5C445,254.3,447.6,255.8,444.1,261z"/>
	<path class="st12" d="M255.9,299c4.5,2.3,7.7,3.8,4.2,8.7C258.7,305,257.6,302.6,255.9,299z"/>
	<path class="st22" d="M358.2,413.3c-3.9,1.1-6.2,1.7-8.7-1.1C352.3,409.5,354.5,411.4,358.2,413.3z"/>
	<path class="st18" d="M695.6,301.9c-0.2,1.3-0.8,2.7-2.2,2.2c-0.9-0.3-1.8-1.8-2-2.8c-0.3-2.1,1.4-2.6,3-2.4
		C695.9,299.2,695.5,300.8,695.6,301.9z"/>
	<path class="st51" d="M289.5,185.9c0.6,5.1-0.2,9.9-3.8,13.9C285.8,194.8,287,190.1,289.5,185.9z"/>
	<path class="st23" d="M224.5,528c0.8-5.3,3.9-4.7,7.1-5.2C230.3,526,228,527.1,224.5,528z"/>
	<path class="st2" d="M537.1,380c-1.5-0.8-3.9-1.5-2.9-3.7c1.5-3.3,3.9-1.4,6-0.4C540.1,378,539.1,379.4,537.1,380z"/>
	<path class="st53" d="M174.8,617.3c1.4-0.3,3.3-2.3,4-0.9c1.2,2.4-0.8,4.9-2.4,6.4c-1.6,1.6-1.2-0.9-1.6-1.7
		C174.8,619.8,174.8,618.5,174.8,617.3z"/>
	<path class="st50" d="M373.9,307c1.3-1.2,2.7-2.3,4-3.5c0.4,1.5,3.6,1.7,2,4.2c-1.7,2.5-3.8,2.5-6.2,1.1
		C373.2,308.1,373.3,307.5,373.9,307z"/>
	<path class="st54" d="M370.1,435.3c-0.7-0.1-1.3-0.2-2-0.3c-2.2-2.4-5.3-0.8-7.8-1.6c3.7-1.1,7.3-2.2,11-3.3
		C372,432,371.1,433.7,370.1,435.3z"/>
	<path class="st19" d="M444.5,233.6c0.7-1,1.5-2,2.2-3c0.5,1.2,1.4,2.4,1.3,3.5c-0.2,1.4-1.4,4-1.9,3.9
		C443.4,237.6,445.3,235,444.5,233.6z"/>
	<path class="st23" d="M452.2,222.6c0.2-0.6,0.3-1.1,0.3-1.7c1.2-0.9,2.3-1.7,3.5-2.6c0.7,2.2,3.4,4.5,0.5,6.6
		C454.4,226.5,453.9,222.9,452.2,222.6z"/>
	<path class="st22" d="M192,577.1c-0.2-3.8,2.8-3.2,4.4-2.5c2,0.9,0.3,2.8-0.4,3.8C193.8,581.3,193.5,576.9,192,577.1L192,577.1z"/>
	<path class="st22" d="M500.5,374.7c1.4,0.2,2.6,1,2.4,2.2c-0.1,0.9-1.5,1.6-2.5,2.1c-0.2,0.1-1.5-1-1.6-1.7
		C498.5,376.1,498.9,374.9,500.5,374.7z"/>
	<path class="st16" d="M79,347.2c-2.3-2.3-3-5.1-2.7-10.2C79.9,340.9,78.7,344.3,79,347.2C79,347.2,79,347.2,79,347.2z"/>
	<path class="st46" d="M356.6,492.5c-3,4.5-7.4,4.5-12,3.9C348.6,495.1,352.6,493.8,356.6,492.5z"/>
	<path class="st12" d="M431.3,268.6c2.8-0.7,3.4-0.1,3.5,0.9c0.2,1.4-0.5,2.5-2,2.7c-1.3,0.2-2.8,0-2.6-1.7
		C430.5,269.3,431.5,268.3,431.3,268.6z"/>
	<path class="st4" d="M450.3,150.6c-2.4-4.8-2.1-9.5,0.1-14.3C450.4,141.1,450.4,145.8,450.3,150.6z"/>
	<path class="st55" d="M513.6,629.1c1.1-2.1,2.1-4.3,5.1-4.7c0.3,3.2-1.3,5.1-3.6,6.6C514.6,630.4,514.1,629.7,513.6,629.1z"/>
	<path class="st12" d="M493.6,274.7c-2,2.6-3.8,3.8-6.1,2.6c-0.5-0.2-0.4-1.4-0.6-2.2C488.9,274.9,490.9,274.8,493.6,274.7z"/>
	<path class="st56" d="M99.5,243.9c-3.8-0.7-7.5-1.4-11.3-2.1C92.9,237.5,96.5,239.2,99.5,243.9z"/>
	<path class="st21" d="M391.1,516.5c1.7,0.4,2,1.6,1.5,2.9c-0.3,0.7-1.3,1.6-1.9,1.5c-1.3,0-2.3-1-2.2-2.4
		C388.7,517,389.9,516.5,391.1,516.5z"/>
	<path class="st20" d="M565.4,732.1c0.6,0.7,1.3,1.3,1.9,2c-5.1,1.9-6.1-2.3-7.8-5.3c0.6,0,1.2,0.1,1.8,0.3c1,1.9,2.5,0.9,3.8,0.5
		C565.3,730.4,565.4,731.3,565.4,732.1z"/>
	<path class="st35" d="M180.5,674.5c-1.9,0-3.7,0.1-5.6,0.1c-2.1-1.1-4.2-2.2-6.3-3.3C173.1,670.4,176.9,672.1,180.5,674.5z"/>
	<path class="st17" d="M179,678.2c-1.4,1.5-1.2,4.4-4,4.6c-0.5,0-1.6-1.4-1.4-2C174.2,677.7,177.1,678.9,179,678.2
		C179,678.2,179,678.2,179,678.2z"/>
	<path class="st23" d="M347.5,347.6c-0.9,0.9-1.4,1.5-1.9,2c-0.7-1-1.6-1.9-2-2.9c-0.2-0.4,0.8-1.2,1.3-1.9
		C345.7,345.7,346.5,346.6,347.5,347.6z"/>
	<path class="st22" d="M403.3,609.7c1.4-3.2,2.5-5.7,4.9-4.5c2.2,1.1,0.2,2.3-1.1,3C406.3,608.7,405.5,608.9,403.3,609.7z"/>
	<path class="st43" d="M311.8,133.4c-0.8-2.8,0.7-4.6,1.8-7C315,129.4,315.1,131.7,311.8,133.4z"/>
	<path class="st48" d="M137.1,272.3c-4.1,0.6-7.7-0.3-10.2-3.8C130.7,268.6,134,270.2,137.1,272.3z"/>
	<path class="st9" d="M341.6,353c-4.7-1.8-4.1-5.8-4-9.7C339.8,346.2,341.2,349.4,341.6,353z"/>
	<path class="st57" d="M331.9,278.7c0.3-4-1.9-8.4,2-11.8C333.8,270.9,333.7,274.9,331.9,278.7z"/>
	<path class="st58" d="M153.6,645.7c-3.1,3.4-6.2,3.3-9.3,0C147.4,645.7,150.5,645.7,153.6,645.7z"/>
	<path class="st59" d="M712.3,382c2.1-0.6,4.6,0.3,6.1-2.1c0.7,0,1.4-0.1,2-0.1C719.5,386.8,715.5,383.1,712.3,382z"/>
	<path class="st9" d="M362.7,351c-3.7-2.8-1.9-6.7-2-10.2C362.5,344,362.5,347.5,362.7,351z"/>
	<path class="st4" d="M454.4,150c-0.3,2.6,0.8,5.5-1.7,7.6c-0.6-0.7-1.1-1.3-1.7-2c0.1-0.6,0.1-1.3,0.1-1.9
		C452.1,152.5,453.3,151.2,454.4,150z"/>
	<path class="st57" d="M333.7,257.2c0.8,0,1.5,0.1,2.3,0.1c-0.1,3.3-0.3,6.7-2.1,9.7C333.8,263.8,333.8,260.5,333.7,257.2
		L333.7,257.2z"/>
	<path class="st48" d="M389.3,510.1c-2.5-4.2,1.5-4.4,3.6-5.8C393.3,507.2,391.3,508.7,389.3,510.1z"/>
	<path class="st60" d="M442.3,302.9c1.6,1,3.4,2.8,1.7,4.1c-2.1,1.6-2.5-1.4-3.4-2.6C441.2,303.9,441.7,303.4,442.3,302.9z"/>
	<path class="st50" d="M480.8,619.9c2.2-1.3,4.7-0.3,4.5,1.4c-0.3,2.5-2.2,0.3-3.4,0C481.4,621.1,481.2,620.4,480.8,619.9z"/>
	<path class="st29" d="M326,105.9c3.4,3.3,0.2,4.3-1.9,5.8C324.2,109.6,323.8,107.3,326,105.9z"/>
	<path class="st61" d="M265.4,682.7c-2.1-0.2-4.2-0.5-7.8-0.9c4.2-1.6,6.8-2.2,9.1,0.6l-0.6,0.4L265.4,682.7z"/>
	<path class="st62" d="M373.9,307c-0.1,0.6-0.2,1.2-0.3,1.8c-0.5,0-1,0.1-1.5,0.2c-2.2-1.4-2.2-3.3-0.1-4.3
		C373.9,303.9,373.7,305.9,373.9,307z"/>
	<path class="st44" d="M291.8,301.3c3.4,1.7,4,4.6,3.5,7.9C293,307.1,292.1,304.3,291.8,301.3z"/>
	<path class="st22" d="M318.4,466c-1.5,2.2-3.6,2.9-6.6,3.5C313.2,465.3,316.1,466.2,318.4,466L318.4,466z"/>
	<path class="st48" d="M395.3,501.1c-0.2-3.5,0.8-6.4,3.9-8.2C398.9,496.1,397.6,498.9,395.3,501.1z"/>
	<path class="st52" d="M527.1,536.8c1.3,1.9,2.6,3.8,3.8,5.7C525.8,543.3,527.6,539.3,527.1,536.8z"/>
	<path class="st53" d="M517.6,641.6c0.4,0.8,1.1,1.6,1.1,2.3c0,1.1-1.1,1.6-1.9,1c-0.6-0.5-0.7-1.6-0.8-2.5
		C516,642.2,516.9,641.9,517.6,641.6z"/>
	<path class="st58" d="M144.4,645.7c-3.3,0.1-6.7,0.1-10,0.2C137.7,643.8,141,644.1,144.4,645.7z"/>
	<path class="st63" d="M308.9,444.1c11-1.2,19.1-2.2,27.1-3c2.5-0.2,5.7-0.1,6.2,3c0.6,3.3-3,3.7-5.1,4.7c-4.9,2.4-11,1.7-15.1,6.3
		c-1.2,1.3-3.1,0.7-3.5-1.3C317.8,449.6,314.9,447,308.9,444.1z"/>
	<path class="st5" d="M330.8,423.5c-1.6-0.4-3.2-1-3.3-0.8c-3.9,7.4-8.2-0.5-12.4,0.3c-1.4,0.3-5.5,0.5-4-3.1
		c0.9-2.2-1.7-5.3,1.4-6.4c2.4-0.8,3.8,0.2,5.5,3.1C320.3,420.6,328.2,415.7,330.8,423.5z"/>
	<path class="st32" d="M224.1,462.9c-5.7,0.6-8.5,8.9-14.2,2.6c-1-1.1-2.8-3-1.4-3.9C213.1,458.9,217.9,459.8,224.1,462.9z"/>
	<path class="st64" d="M243.8,423.6c6.5,3.2,13,6.4,19.5,9.6c-7.5,1.1-13.8-3.4-21-4.5C237.9,428.1,243.8,425.6,243.8,423.6z"/>
	<path class="st14" d="M248.5,404.3c0.6,2.6,0.5,5.9-2.3,4.3c-1.5-0.9-6.4,0.6-4.5-1.9c2.2-2.8-1.7-8.1,3.6-8.3
		C249.4,398.2,249,401.7,248.5,404.3z"/>
	<path class="st64" d="M232.5,415.6c2,1.4,3.9,2.8,5.9,4.2c-3.9,7.2-8.5-0.7-13.4,3C226.5,416.7,231.6,419.1,232.5,415.6z"/>
	<path class="st65" d="M299.7,444.9c-5.4,2.4-9,2.4-14.4,0C290.7,442.5,294.4,442.5,299.7,444.9z"/>
	<path class="st28" d="M171.5,447.2c-1.1-3.4-2.3-6.9-3.5-10.8C178.7,437.1,171,443.5,171.5,447.2z"/>
	<path class="st14" d="M274.8,378.9c-0.6-3.9-0.9-6.6,0.4-9.3C280.3,373.3,280.3,373.3,274.8,378.9z"/>
	<path class="st63" d="M285.3,444.5c-4.9,2.7-7.6,3.4-10.2,0.6c-0.4-0.4-0.3-2.2,0.2-2.5C278.6,440.7,280.6,443.5,285.3,444.5z"/>
	<path class="st14" d="M308.3,411.6c-2.5-0.7-5-1.5-7.4-2.2c0.9-1.6,1.8-3.1,2.7-4.7c2.1,1.8,4.1,3.5,6.2,5.3
		C309.3,410.5,308.8,411,308.3,411.6z"/>
	<path class="st37" d="M95.3,359.2c2-0.1,3.4,0.6,3.4,1.9c0,0.8-1.5,1.7-2.5,2.2c-1.4,0.6-2.7-0.2-2.6-1.7
		C93.7,360.7,94.9,359.8,95.3,359.2z"/>
	<path class="st66" d="M213.4,391.4c-3,4.5,2,6.4,3.2,9.6C211.4,399.2,208.2,396.7,213.4,391.4z"/>
	<path class="st32" d="M141.3,423c6.6,0.3,6.5,3.1,6.4,6C146.1,427.5,144.6,426.1,141.3,423z"/>
	<path class="st14" d="M185.4,451.3c0.5,0.6,1.4,1.4,1.9,2.4c0.2,0.3-0.8,1.2-1.2,1.8c-0.8-0.8-1.7-1.5-2.3-2.5
		C183.3,452.1,183.8,451.4,185.4,451.3z"/>
	<path class="st54" d="M340.7,437c3.2-2.1,6.8-1.4,10.3-1.5C347.9,438.5,344.2,437.3,340.7,437z"/>
	<path class="st57" d="M295.9,424.8c1.4,1.6,2,2.2,2.5,2.7c-0.6,0.5-1.3,1.4-1.7,1.3c-0.7-0.2-1.6-0.9-1.7-1.6
		C294.8,426.7,295.5,425.8,295.9,424.8z"/>
	<path class="st66" d="M216.8,401.2c2.3,1.3,4.3,2.9,5.3,5.5C218.7,406.3,217.1,404.4,216.8,401.2z"/>
	<path class="st63" d="M446.4,127.6c0,12.4,0.1,24.8,0.1,37.2c-0.5,0.3-1,0.6-1.5,0.9c-0.1-8.4,0-16.9-0.4-25.3c0-1,0.9-7.3-3.6-2
		c-0.7,0.6-1.5,0.8-2.4,0.8c-4.8-1.8-8.7-1.7-9.8,4.6c-1.9,2.6,0.7,8.7-5.9,7.7c-2-3.6-2.1-7.1,0.4-10.5c8-8.9-2.2-8.4-6.3-11.3
		c1.8-1.7,3.3-3.2,4.9-4.6c3.5-3.7,9.2-4.8,11.6-9.9c1.4-2.7,1.6-5.4,0.1-8.1c-1.4-2.5-4.2-4.2-4.1-7.5c0.9-0.8,2.6-2.3,2.5-2.4
		c-7.2-10.6,7.6-12.7,7.3-20.7c0.3,5.1-4.6,10.2,1.8,14.3c-0.2,2.8-2.3,5.2-1,8.3C444.1,108.1,444.3,118.1,446.4,127.6z"/>
	<path class="st17" d="M429.5,99.6c2.4,1.6,4.7,3.3,5.8,6.1c1.4,3.5,1.1,7,0.1,10.5c-1.8,7.2-7.6,8.1-13.6,8.8l0,0
		c-8.2-5.7-4.5-13.7-3.9-21C420.8,100,425.3,100.1,429.5,99.6z"/>
	<path class="st27" d="M423.4,151.8c4.2-1.9,0.5-7.3,4.2-9.5c4.4-0.7,6.9,1.5,8.3,5.4c-6,4.2-6.2,4.4-2.5,8.6c1,1.2,1.5,2,0.6,3.1
		c-1,1.1-2.9,3-3.5,2.7c-2.9-1.4-8.3-1.2-8.5-1.6c-3.3-6.5-7-1.3-10.9,0c-0.8-4.2-2-7.6,1.5-10.7
		C416.3,149.6,419.8,151.2,423.4,151.8z"/>
	<path class="st67" d="M423.4,151.8c-4.5,4.4-7.6,0.9-10.8-1.9c1.1-4.4-5.6-10.5,3.1-13.1c2.7,1.2,6.1,1.1,7.7,4.2c0,0,0,0,0,0
		C424.5,144.6,424.1,148.2,423.4,151.8z"/>
	<path class="st3" d="M382.8,274.4c-1.7,2.6-3.3,5.2-5,7.9c-1-1.8-5.6,0.7-4.4-4.7c1-4.7,3.4-10.2-0.6-15.2c8.7,0.3,8.4,0.2,5.7,8.1
		C377.7,273.1,380.5,274.1,382.8,274.4z"/>
	<path class="st29" d="M435.9,147.8c-2.8-1.8-5.5-3.6-8.3-5.4c-0.4-2.9-0.9-5.9,2.4-7.5c4.4-2.1,6.7,1.5,9.6,3.7
		c3,3.6,4.8,7-1.3,9.2C437.4,147.8,436.6,147.8,435.9,147.8z"/>
	<path class="st3" d="M398.7,253.4c-3.7,4.7-7.4,9.4-11.1,14.1c-6.1-7.4,3.1-11.6,3.3-17.5C394.7,249.2,395.5,253.8,398.7,253.4z"/>
	<path class="st5" d="M373.9,289.8c-2.5,5.2-5,10.5-7.4,15.8c0.6-2.8-6.6-2.1-2.9-6.4C366.6,295.6,365.7,287.7,373.9,289.8z"/>
	<path class="st65" d="M360.5,225.8c0,3-0.3,5.8,0.1,8.5c0.5,3.3-0.8,3.6-3.8,4c-2.1,0.3-3.7,1.3-3.8-1.5c-0.1-2.3-0.6-7.1,1-6.4
		C361.2,233.4,355.3,224.7,360.5,225.8z"/>
	<path class="st63" d="M418,104c-0.5,7.3-1.8,14.8,3.9,21c-2.1,0-4.3,0.2-6.4-0.1c-5.5-0.6-4-3-1.3-5.6
		C418.7,115.1,413.3,108.3,418,104z"/>
	<path class="st68" d="M308.9,333.7c-3.8-1.2-3.4-5.5-5.8-7.7c6.5-1.1,0.2-7.2,3.8-9.4l0,0C311.4,321.9,311,327.7,308.9,333.7z"/>
	<path class="st27" d="M424.3,228.8c-1.7,2.2-3.6,4.1-6.4,5c0.1-3.5-4.2-3.7-4.9-7.5C416.2,231.8,421.8,217.9,424.3,228.8z"/>
	<path class="st27" d="M444.9,167.2c-0.3,9.1,1.1,18.3-1.9,27.2C443.8,185.3,440.5,176,444.9,167.2z"/>
	<path class="st63" d="M411.6,111.4c-1.7-3.9-2.1-7,1.5-10.5C414.2,105,415.4,108.2,411.6,111.4z"/>
	<path class="st57" d="M326.6,264.5c-3-4.3-3-7.1,0-10.3C328.5,257.8,328.4,260.6,326.6,264.5z"/>
	<path class="st40" d="M437.5,219c0.5,0.6,1,1.2,1.5,1.8c1.2,1.3,1.1,2.6,0,3.8c-2,1.2-2.8,4.1-5.7,3.8c-1.3-1.4-0.9-3-0.3-4.5
		C434.5,222.4,436,220.7,437.5,219z"/>
	<path class="st44" d="M293.3,294.9c-1.8-2.6-2.6-5.1-0.3-7.4c0.2-0.2,1.7,0.6,2.2,1.2C297.8,292,293.3,292.6,293.3,294.9z"/>
	<path class="st31" d="M355.3,337.2c1.5,0.6,3,1.3,3,3.2c0,1.4-0.9,2.8-2.2,2c-1.2-0.7-1.9-2.4-2.5-3.8
		C353.2,337.5,354,336.8,355.3,337.2z"/>
	<path class="st27" d="M438.2,147.8c3.5-2.6,3.7-5.8,1.3-9.2c0.5,0,1,0,1.5-0.1C444.3,146.3,443.9,147.8,438.2,147.8z"/>
	<path class="st30" d="M433,224c0.1,1.5,0.2,3,0.3,4.5c-2.1,1.8-4.2,4.6-5.9-0.3C429.3,226.8,431.2,225.4,433,224z"/>
	<path class="st23" d="M320,351.1c-1.5,0.4-1.8,4.1-4.2,1.7c-2.1-2.1,0.3-4,0.8-6C317.8,348.3,318.9,349.7,320,351.1z"/>
	<path class="st57" d="M333.7,257.2c-1.1,1.3-2.1,2.7-3.4,4.4c-0.2-2.9-1.8-5.7,1.8-7.2C332.2,254.4,333.1,256.3,333.7,257.2
		L333.7,257.2z"/>
	<path class="st5" d="M367.4,287.1c-1.4,1.9-2.6,3.5-4.5,6C362.6,288.9,362.8,286.5,367.4,287.1z"/>
	<path class="st68" d="M306.9,316.6c-1.9-0.2-3.7-0.6-3.5-3.2c0-0.4,0.7-1.2,1-1.1C306.7,312.8,306.7,314.8,306.9,316.6
		C306.9,316.6,306.9,316.6,306.9,316.6z"/>
	<path class="st27" d="M442.7,199.8c0.2,2.8,0.4,5.5-1.7,7.8C442.5,205.2,437.4,201.3,442.7,199.8z"/>
	<path class="st63" d="M423.4,141c-2.6-1.4-5.2-2.8-7.7-4.2C419.1,136.5,422.5,136.4,423.4,141z"/>
	<path class="st63" d="M410.9,116.7c0.4-0.5,0.9-1.5,1.6-1.6c1.9-0.3,1.5,1.4,1.5,2.4c0,0.5,1.1,2-0.8,1.7
		C412,119,411,118.5,410.9,116.7z"/>
	<path class="st30" d="M343.3,646c-4.8,9-13.6,10.2-19.1,2.4c0.8-3.1,3.2-4.7,5.9-6.1c3.2-2,5.7-4.5,7.5-7.8
		c0.6-1.4,1.7-2.1,3.2-2.1c4.3,5.1-0.8,6.7-3.4,9.3c-1.4,1.4-4.5,2.9-2.1,5.3c2,2,4,0.1,5.5-1.7c0.2-0.2,0.3-0.6,0.5-0.8
		c2.7-1.8,3.3-9.6,7.5-5.4C352.8,643.1,342.7,641.6,343.3,646z"/>
	<path class="st2" d="M317.7,653.3c2,1.2,4.3,3.6,2.8,5.2c-3.4,3.7-7.7,8-12.5,7.9c-4.6-0.1-8.3-0.9-11.4,3.5
		c-1,1.5-4.1,1.8-5.2,0.4c-1.4-1.8,1.5-3.1,2-4.9C301.6,661.3,309.6,657.3,317.7,653.3z"/>
	<path class="st14" d="M335.5,567.4c-1.4,1.6-2.7,3.2-4.1,4.8c-3.7,4-1.7,5.1,2.6,4.9c1-0.3,1.9,0.1,1.8,1c-0.1,0.9-1.1,1.1-2.1,0.8
		c-3.2,0.1-6.4,0.1-9.2-1.9c3.4-4.6-1.7-9.2,0.1-13.8c0.6-1.6,1.7-2.3,3.6-2.3C332.6,561,333.5,564.9,335.5,567.4z"/>
	<path class="st3" d="M340.7,632.4c-1.1,0.7-2.1,1.4-3.2,2.1c-0.3-4.7-2.5-9.2,0.9-14c3.3-4.7,5.7-8.7,10.2-1.4
		C347.5,624.4,342.9,627.7,340.7,632.4z"/>
	<path class="st3" d="M333.7,579c0.3-0.4,0.7-0.8,0.9-1.3c0-0.1-0.4-0.4-0.6-0.6c2.1-2.3,5.1-1.2,7.6-2c1.4,3.5-3.7,0.6-2.6,4.2
		c2.2,1.5,6.6-2.8,9.5,2.1C342.8,583.2,337.3,589.4,333.7,579z"/>
	<path class="st2" d="M274.3,676.6c-0.6-5.2-4.7-3.4-7.7-3.9c1.3-0.7,2.6-1.4,3.9-2c4.2-1.2,8-5,12.9-2
		C284.2,673.7,282.3,675.3,274.3,676.6z"/>
	<path class="st35" d="M236.5,676.8c-14.3,2.7-28.6,2.9-42.9,0C207.9,676.8,222.2,676.8,236.5,676.8z"/>
	<path class="st3" d="M283.5,668.8c-4.3,0.7-8.6,1.3-12.9,2c0.4-0.5,0.9-0.9,1.3-1.4c5.3-7.5,5.3-7.5,12.4-2.1
		C284,667.7,283.7,668.3,283.5,668.8z"/>
	<path class="st27" d="M370.5,584.9c-0.8,2.2-1.7,4.3-4.3,5c0.4-3.9-4.9-1-5.1-5.2C364.1,582.8,367.2,583,370.5,584.9z"/>
	<path class="st5" d="M318.2,505.1c3.3-1.8,6.6-0.3,10.6-1C324.2,508.4,324.2,508.4,318.2,505.1z"/>
	<path class="st28" d="M330,642.3c-2,2-3.9,4.1-5.9,6.1c0,0-0.9,0-0.9,0s-0.9,0-0.9,0c1.9-3.6,3.8-7.3,5.7-10.9
		C330.6,638.7,327.6,641.4,330,642.3z"/>
	<path class="st27" d="M354.8,590.5c0,3.4-2.5,5.4-5.4,9C348.8,593.9,349.7,591,354.8,590.5L354.8,590.5z"/>
	<path class="st3" d="M267.7,663.2c-0.2,1.7-1.5,1.9-2.7,1.8c-0.9,0-2.4-0.5-2.4-0.9c-0.2-1.4,1-2.2,2.3-2.5
		C266.1,661.4,267.3,661.6,267.7,663.2z"/>
	<path class="st27" d="M354.8,590.5c0.2-1.7-0.6-3.9,1.7-4.7c0.4-0.1,1.6,0.9,1.7,1.4C358.6,589.7,356.7,590.2,354.8,590.5
		L354.8,590.5z"/>
	<path class="st27" d="M354.7,611.3l-0.9,0.2c0,0-0.9-0.1-0.9-0.1c-0.1-3.7,0.8-7.1,3.9-9.5C356.1,605.1,355.4,608.2,354.7,611.3z"
		/>
	<path class="st65" d="M257.7,515.9c-0.8,0.4-1.6,1-2.4,1c-1.1,0-1.5-1.2-0.9-1.9c0.5-0.6,1.6-0.6,2.5-0.7
		C257.1,514.2,257.3,515.2,257.7,515.9z"/>
	<path class="st14" d="M218.7,553.3c-0.5,0.6-1,1.6-1.7,1.7c-1.1,0.2-1.7-0.8-1.3-1.7c0.3-0.7,1.3-1.2,1.9-1.8
		C218,552.1,218.3,552.6,218.7,553.3z"/>
	<path class="st47" d="M197.7,621.3c-1.4,0.5-2.3,1.1-2.8,0.8c-0.7-0.3-1-1.3-1.5-2c0.6-0.2,1.2-0.7,1.7-0.6
		C195.8,619.7,196.4,620.4,197.7,621.3z"/>
	<path class="st69" d="M178.5,628.7c1.3-1.2,2.7-2.4,4-3.7c0.4,1.3,0.7,2.7,1.1,4C181.9,629,180.2,628.8,178.5,628.7z"/>
	<path class="st48" d="M392.9,498.1c-0.5,0.4-1.1,1-1.7,1.6c-0.4-0.7-1-1.3-1.1-2c-0.1-0.4,0.6-1.1,1.1-1.4
		C392.6,495.7,392.7,496.7,392.9,498.1z"/>
	<path class="st70" d="M689.9,364.5c-6.3,1.2-12.6,0.4-18.7-0.9c-3.1-0.7-5.3,0.1-6.4,2.4c-0.9,2,2,6.5-1.8,6.5
		c-9.4,0-17.6,7.6-27.5,4.1c-1.7-0.6-5.3-0.3-2.7-3.9c4.1-5.7-2.3-5.7-4.3-8c3.6-2.6,8.1,0.4,11.7-2c7.3-2,14.8-3.7,22-6.1
		C673.5,352.8,682.1,357,689.9,364.5z"/>
	<path class="st25" d="M510,299.4c-2.5,0-5,0-7.5,0c5.9-4.7,12.9-5.4,19.5-5.6c10.7-0.4,21.1,2.9,31.2,6c4.1,1.3,0.7,2.9-1.4,3.5
		c-5.1-1-10.4-1.3-15.1-3.8C527.8,297.6,518.8,297.7,510,299.4L510,299.4z"/>
	<path class="st71" d="M467.9,324.3c-4.3-5.4,2.2-7.8,4-9.7c4.7-5,10.9-9.2,18.8-7.8C483,312.6,475.5,318.5,467.9,324.3z"/>
	<path class="st2" d="M509.9,299.5c8.9-3.2,17.9-3.3,26.8,0.1C527.8,299.5,518.8,299.5,509.9,299.5z"/>
	<path class="st72" d="M609.7,364.2c0.6-1.9,1.2-3.8,1.8-5.7c1.5,0.3,3,0.4,3.8,2C617.1,367.2,611.9,363.5,609.7,364.2z"/>
	<path class="st2" d="M498.7,360.6c-5.9,0-11.8,0-17.7,0C486.8,358,492.7,358,498.7,360.6z"/>
	<path class="st73" d="M640.3,362.7c-3.5,3-7.8,1.3-11.7,2c-0.7-0.6-1.5-1.3-2.2-1.9C631.1,362.7,635.7,362.7,640.3,362.7z"/>
	<path class="st74" d="M429.6,364.7c-1.3,1.2-2.6,2.4-3.9,3.6c-1.2-0.8-2-1.9-0.8-3C426.1,364.2,427.8,362.4,429.6,364.7z"/>
	<path class="st75" d="M540.1,650.1c-2.5-6.4-4.9-12.8-7.4-19.1c7.4-4.2,5.1-11.5,2.7-16c-2.9-5.5,0.5-5.6,3.2-7.2
		c3.5,11.9,6.8,23.7,7.8,36.2c0.9,1.2,0.9,2.5,0.6,3.8c-0.4,0.8-1,1.5-1.8,2C543.6,650.5,541.9,651.1,540.1,650.1z"/>
	<path class="st73" d="M546.2,647.9c0.1-1.4,0.1-2.7,0.2-4.1c3.8,12,1,24.3,1.7,36.4c-1.2,0.1-2.7,5.1-3.6-0.1c-0.4-2.4,0-5,0-7.4
		c2.3-5-0.6-9.9-0.2-14.9C544.6,654.4,543.4,650.8,546.2,647.9z"/>
	<path class="st76" d="M559.9,703c-0.3,5.4-0.5,7.8-0.7,11.7C557.4,710.5,557.2,707.9,559.9,703z"/>
	<path class="st2" d="M465.9,510c-2.8-2.1-2.9-5.9-1.7-7.8c6.1-9.6,4.6-20.3,5.6-30.6c3.4,12.9,2.9,25.8,0,38.6
		c-0.5-0.4-0.9-0.8-1-1.4c-0.4-1.6-0.1-3.2-0.4-4.8c-0.5,1.4,0.1,2.9-0.5,4.3C467.4,509.2,466.7,509.7,465.9,510z"/>
	<path class="st7" d="M465.9,510c1.8-2.9,0.1-6.9,3.9-10.6c0,4.3,0,7.6,0,10.8c0,4.4,0,8.7,0,13.1
		C462.5,520.7,467.2,514.5,465.9,510z"/>
	<path class="st2" d="M469.8,471.7c-3.4-2.7-1.6-6.4-2-9.7C470.5,464.8,469.6,468.4,469.8,471.7z"/>
	<path class="st77" d="M546.2,647.9c-0.9,8.2,2.2,16.7-1.7,24.8c-0.7-5.6-1.5-11.3-2.2-16.9c-1.9-3.3,0.8-5.4,2.1-7.9
		C545,647.9,545.6,647.9,546.2,647.9z"/>
	<path class="st78" d="M468.8,530.7c1.1,3,1.4,5.5-0.2,8.4C467.5,536.2,467.2,533.6,468.8,530.7z"/>
	<path class="st73" d="M544.4,647.9c-0.7,2.6-1.4,5.3-2.1,7.9c-1.9-1.5-1.8-3.7-2.2-5.7C541.5,649.4,543,648.6,544.4,647.9z"/>
	<path class="st79" d="M490.3,614.4c2.1-1.4,5.3-1.4,5.5-0.5c0.7,2.5-1.8,1-2.9,1.3C492.2,615.4,491.4,614.7,490.3,614.4z"/>
	<path class="st2" d="M366.2,613.4c-3.8-2.2-5.4-5.5-5.4-11.1C365.3,605.7,366.3,609.3,366.2,613.4L366.2,613.4z"/>
	<path class="st15" d="M439,224.7c0-1.3,0-2.6,0-3.8c3.5-3,7.1-6.7,7.7,1.9C443.3,220.2,441.9,225.3,439,224.7z"/>
	<path class="st31" d="M376.1,562.4c2.8,1.4,5,2.7,4.2,4.4c-1.6,3.2-2.5,0.4-3.3-1C376.6,565.1,376.6,564.2,376.1,562.4z"/>
	<path class="st40" d="M578.8,366.4c0,1.3,0,2.5,0,3.8c-5.8-0.2-6.1-6.2-10.4-8.9C574.1,360.1,575.3,365.4,578.8,366.4z"/>
	<path class="st53" d="M363.7,551.7c-0.8-0.9-1.3-1.6-1.8-2.2c0.7-0.4,1.5-1,2.2-1c0.8-0.1,1.7,0.4,2.5,0.7
		C365.7,549.9,364.9,550.7,363.7,551.7z"/>
	<path class="st26" d="M450.7,111.7c-4.4-4.9-2.3-10.5-1.8-16C449.4,101,450.1,106.3,450.7,111.7z"/>
	<path class="st40" d="M232.2,682.4c-7.7,0-15.3,0-23,0C216.9,679.4,224.5,679.3,232.2,682.4z"/>
	<path class="st53" d="M435.4,116.2c0-3.5-0.1-7-0.1-10.5C437.6,109.2,437.4,112.7,435.4,116.2z"/>
	<path class="st80" d="M540.2,623.3c0.3,2.7,0.5,5.3,0.8,8C538.2,628.9,538.5,626.1,540.2,623.3z"/>
</g>
</svg>
