<?xml version="1.0" encoding="UTF-8" standalone="no"?>
<svg
   width="118"
   height="118"
   viewBox="0 0 118 118"
   fill="none"
   version="1.1"
   id="svg4"
   xmlns="http://www.w3.org/2000/svg"
   xmlns:svg="http://www.w3.org/2000/svg">
  <defs
     id="defs8" />
  <circle
     style="fill:#13152c;fill-opacity:1;stroke-width:0.999996;stroke-linecap:round;stroke-linejoin:bevel;stroke-opacity:0.998178"
     id="path1013"
     cx="59"
     cy="59"
     r="59" />
  <path
     fill-rule="evenodd"
     clip-rule="evenodd"
     d="M 34.676973,84.64763 C 31.582458,79.675978 27.825392,75.516655 23.405836,72.589107 21.956895,71.629344 21.589788,69.523042 22.646906,68.143519 30.855491,57.431226 43.382249,30.594096 50.292324,15.143752 c 1.132274,-2.531596 5.013085,-1.709886 5.013085,1.063375 v 39.745717 c -3.633755,1.610281 -6.168593,5.248692 -6.168593,9.479118 0,1.405877 0.279901,2.746379 0.787123,3.968794 z m 3.732169,7.071081 c 1.509827,3.380853 2.779156,6.988962 3.807986,10.733299 0.309566,1.12674 1.324265,1.92373 2.492634,1.92373 h 14.790225 14.790162 c 1.168432,0 2.183068,-0.79699 2.492698,-1.92373 1.028767,-3.744337 2.298095,-7.352446 3.807857,-10.733299 l -7.808152,-7.808236 -6.53138,6.531902 c 0.103126,0.474251 0.157427,0.967594 0.157427,1.473033 0,3.81563 -3.093178,6.908755 -6.908739,6.908755 -3.815561,0 -6.908675,-3.093125 -6.908675,-6.908755 0,-3.815633 3.093114,-6.908753 6.908675,-6.908753 0.433061,0 0.856765,0.0401 1.267673,0.115857 l 6.613496,-6.613383 -3.62548,-3.625423 c -1.298358,0.585523 -2.738989,0.911386 -4.255689,0.911386 -1.516765,0 -2.95746,-0.325863 -4.255816,-0.91145 z M 84.322811,84.64763 c 3.094259,-4.971652 6.851956,-9.130912 11.271054,-12.058523 1.449477,-0.959763 1.816144,-3.066065 0.759428,-4.445588 C 88.144672,57.431226 75.617725,30.594096 68.707585,15.143752 c -1.13221,-2.531596 -5.01302,-1.709886 -5.01302,1.063375 v 39.745845 c 3.633565,1.610344 6.168339,5.248692 6.168339,9.47899 0,1.405941 -0.279966,2.746442 -0.787188,3.968921 l 6.407628,6.407578 z"
     fill="white"
     id="path2"
     style="fill:#f5f3c2;fill-opacity:1;stroke-width:0.999993" />
</svg>
