<?xml version="1.0" encoding="UTF-8" standalone="no"?>
<svg
   width="25"
   height="22"
   viewBox="0 0 18.749747 16.5"
   version="1.1"
   id="svg15"
   xml:space="preserve"
   xmlns:xlink="http://www.w3.org/1999/xlink"
   xmlns="http://www.w3.org/2000/svg"
   xmlns:svg="http://www.w3.org/2000/svg"><defs
     id="defs15"><linearGradient
       xlink:href="#linearGradient20"
       id="linearGradient23"
       x1="708.40222"
       y1="-7.2701979"
       x2="640.25482"
       y2="298.59769"
       gradientUnits="userSpaceOnUse"
       gradientTransform="matrix(0.04331572,0,0,0.04315589,-19.816939,13.564002)" /><linearGradient
       id="linearGradient20"><stop
         style="stop-color:#ffffff;stop-opacity:0.7124542;"
         offset="0"
         id="stop20" /><stop
         style="stop-color:#9295c9;stop-opacity:0.65201467;"
         offset="1"
         id="stop21" /></linearGradient><linearGradient
       xlink:href="#a"
       id="b"
       gradientUnits="userSpaceOnUse"
       x1="6"
       y1="9.375"
       x2="10.75"
       y2="5.75"
       gradientTransform="matrix(0.71422619,0,0,0.71422619,11.072031,8.6435112)" /><linearGradient
       x1="67.535004"
       y1="422.77301"
       x2="412.71301"
       y2="79.813004"
       id="a"
       gradientUnits="userSpaceOnUse"><stop
         offset="0"
         stop-color="#f6b"
         id="stop1" /><stop
         offset="1"
         stop-color="#0c30ad"
         id="stop2" /></linearGradient></defs><g
     id="g24"
     transform="matrix(1.2499999,0,0,1.2499999,-2.333406,-16.562811)"><path
       style="fill:#9599e2;fill-opacity:1;stroke:none;stroke-width:0.0972806"
       d="m 10.86801,13.25025 c -3.4694843,0 -7.3954024,2.600406 -8.3207539,5.876059 -1.3356443,4.728049 1.9031215,7.323941 5.3689,7.323941 3.7725119,0 7.6094139,-2.303028 8.7981329,-6.723017 0.757998,-2.818446 -1.331662,-6.476983 -5.846279,-6.476983 z"
       id="path16" /><path
       style="fill:url(#linearGradient23);fill-opacity:1;stroke:none;stroke-width:0.0972806"
       d="m 10.86801,13.25025 c -3.4694843,0 -7.3954024,2.600406 -8.3207539,5.876059 -1.3356443,4.728049 1.9031215,7.323941 5.3689,7.323941 3.7725119,0 7.6094139,-2.303028 8.7981329,-6.723017 0.757998,-2.818446 -1.331662,-6.476983 -5.846279,-6.476983 z"
       id="path16-7" /><path
       id="path17"
       style="fill:#ffffff;fill-opacity:1;stroke:none;stroke-width:0.0972806"
       d="m 2.9641326,17.423693 1.2221252,2.309178 -2.3196327,2.517084 1.015085,1.2e-5 1.6638056,-1.838339 0.9729541,1.838339 H 6.5005606 L 5.1553413,19.737739 7.2496591,17.423693 h -0.93539 l -1.516727,1.645845 -0.8813309,-1.645845 z" /><path
       id="path17-5"
       style="fill:#ffffff;fill-opacity:1;stroke:none;stroke-width:0.0972806"
       d="m 7.6747006,17.423693 1.222125,2.309178 -2.3196325,2.517096 h 1.0150845 l 1.6638065,-1.838339 0.9729529,1.838339 h 0.98209 L 9.8659091,19.737739 11.960228,17.423693 h -0.935391 l -1.5167269,1.645845 -0.881331,-1.645845 z" /><path
       id="path17-5-8"
       style="fill:#ffffff;fill-opacity:1;stroke:none;stroke-width:0.0972806"
       d="m 12.36319,17.423693 1.222125,2.309178 -2.319634,2.517096 h 1.015086 l 1.663805,-1.838339 0.972954,1.838339 h 0.982091 l -1.345219,-2.512228 2.094318,-2.314046 h -0.93539 l -1.516727,1.645845 -0.881332,-1.645845 z" /></g></svg>
