<?xml version="1.0" encoding="UTF-8" standalone="no"?>
<!-- Generator: Adobe Illustrator 27.7.0, SVG Export Plug-In . SVG Version: 6.00 Build 0)  -->

<svg
   version="1.1"
   id="Layer_1"
   x="0px"
   y="0px"
   viewBox="0 0 1421.8 235.6"
   xml:space="preserve"
   sodipodi:docname="Patreon logo (2023).svg"
   width="1421.8"
   height="235.60001"
   inkscape:version="1.3 (0e150ed6c4, 2023-07-21)"
   xmlns:inkscape="http://www.inkscape.org/namespaces/inkscape"
   xmlns:sodipodi="http://sodipodi.sourceforge.net/DTD/sodipodi-0.dtd"
   xmlns="http://www.w3.org/2000/svg"
   xmlns:svg="http://www.w3.org/2000/svg"><defs
   id="defs1" /><sodipodi:namedview
   id="namedview1"
   pagecolor="#ffffff"
   bordercolor="#000000"
   borderopacity="0.25"
   inkscape:showpageshadow="2"
   inkscape:pageopacity="0.0"
   inkscape:pagecheckerboard="0"
   inkscape:deskcolor="#d1d1d1"
   inkscape:zoom="0.38876416"
   inkscape:cx="709.94199"
   inkscape:cy="105.4624"
   inkscape:window-width="1280"
   inkscape:window-height="898"
   inkscape:window-x="1016"
   inkscape:window-y="-8"
   inkscape:window-maximized="1"
   inkscape:current-layer="Layer_1" />&#10;<path
   d="M 0,21.6 C 0,11.6 7.4,4.8 19,4.8 h 55.5 c 50.3,0 84.5,27.7 84.5,68.4 0,40 -33.9,69.7 -84.5,69.7 h -7.7 c -19.4,0 -29.4,10 -29.4,26.1 v 45.6 c 0,12.9 -7.4,21 -18.7,21 C 7.4,235.6 0,227.5 0,214.6 Z m 37.4,57.8 c 0,20.3 10.3,30 30,30 h 4.8 c 27.7,0 48.1,-11.3 48.1,-36.1 0,-24.8 -20.3,-36.1 -48.1,-36.1 h -4.7 c -19.7,0 -30,9.7 -30,30 v 12.2 z m 121.7,138.4 c 0,10.6 7.4,17.7 18.7,17.7 7.4,0 14.2,-4.8 18.1,-14.8 l 6.8,-18.1 c 5.5,-14.5 15.2,-21.3 25.8,-21.3 h 61.3 c 10.6,0 20.3,6.8 25.8,21.3 l 6.8,18.1 c 3.9,10 10.6,14.8 18.1,14.8 11.3,0 18.7,-7.1 18.7,-17.7 0,-2.9 -0.6,-6.5 -1.9,-10 L 284.1,17.4 C 279.6,5.8 269.3,0 259.3,0 249.3,0 239,5.8 234.5,17.4 l -73.2,190.4 c -1.6,3.6 -2.2,7.1 -2.2,10 z m 71.3,-86.5 c 0,-3.5 1,-6.8 2.6,-11.6 l 13.9,-38.4 c 2.6,-7.4 7.1,-11 12.3,-11 5.2,0 9.7,3.5 12.3,11 l 13.9,38.4 c 1.6,4.8 2.6,8.1 2.6,11.6 0,9.7 -5.5,16.5 -20,16.5 h -17.4 c -14.7,0 -20.2,-6.8 -20.2,-16.5 z m 116.5,-109 c 0,-10.3 7.4,-17.4 19.4,-17.4 h 148.4 c 11.9,0 19.4,7.1 19.4,17.4 0,10.3 -7.4,17.4 -19.4,17.4 h -24.8 c -19.7,0 -30.3,10 -30.3,32.9 v 141.7 c 0,13.2 -7.4,21.3 -19,21.3 -11.6,0 -19,-8.1 -19,-21.3 V 72.6 C 421.6,49.7 411,39.7 391.3,39.7 h -24.8 c -12.2,0 -19.6,-7.1 -19.6,-17.4 z m 222,192.3 c 0,12.9 7.4,21 18.7,21 11.3,0 18.7,-8.1 18.7,-21 v -51.3 c 0,-14.5 8.4,-20.7 18.7,-20.7 h 2.6 c 6.8,0 13.6,4.2 17.7,10.3 l 49,72 c 4.5,6.8 10.3,10.6 17.7,10.6 9.7,0 17.4,-8.1 17.4,-17.7 0,-3.9 -1.3,-8.1 -4.2,-12.3 l -32.6,-45.8 c -3.9,-5.5 -5.5,-10 -5.5,-13.9 0,-8.1 7.1,-13.9 15.5,-20 15.2,-11.3 31.6,-26.1 31.6,-54.5 0,-39.7 -31,-66.5 -82,-66.5 h -64.9 c -11.6,0 -18.7,6.8 -18.7,16.8 v 193 z M 606.3,76.5 v -9.7 c 0,-21 11,-29.7 27.7,-29.7 h 16.1 c 27.7,0 45.5,10.3 45.5,34.2 0,23.9 -18.7,34.8 -46.5,34.8 h -15.2 c -16.6,0.1 -27.6,-8.6 -27.6,-29.6 z M 782.2,213.9 V 21.6 c 0,-10 7.1,-16.8 18.7,-16.8 h 122 c 11.6,0 18.7,6.8 18.7,16.8 0,10 -7.1,16.8 -18.7,16.8 h -77.1 c -15.2,0 -26.1,9 -26.1,26.1 v 7.1 c 0,17.1 11,26.1 26.1,26.1 h 59.7 c 11.6,0 18.7,6.8 18.7,16.8 0,10 -7.1,16.8 -18.7,16.8 h -57.4 c -15.2,0 -28.4,9.4 -28.4,28.4 v 9 c 0,19 13.2,28.4 28.4,28.4 H 923 c 11.6,0 18.7,6.8 18.7,16.8 0,10 -7.1,16.8 -18.7,16.8 H 801 c -11.7,0 -18.8,-6.8 -18.8,-16.8 z M 963.8,117.8 C 963.8,48.1 1016.1,0 1077.4,0 c 61.3,0 113.6,48.1 113.6,117.8 0,69.7 -52.3,117.8 -113.6,117.8 -61.3,0 -113.6,-48.1 -113.6,-117.8 z m 42.6,0 c 0,49 29,80.3 71,80.3 41.9,0 71,-31.3 71,-80.3 0,-49.4 -29,-80.3 -71,-80.3 -41.9,-0.1 -71,30.9 -71,80.3 z m 229.4,96.8 c 0,12.9 7.4,21 18.7,21 11.3,0 18.7,-8.1 18.7,-21 v -98.7 c 0,-11.9 7.1,-17.7 14.5,-17.7 5.8,0 10.6,3.2 14.2,9 l 61.9,103.6 c 8.4,14.2 16.1,24.8 31.9,24.8 15.2,0 26.1,-11 26.1,-28.7 V 21 c 0,-12.9 -7.4,-21 -18.7,-21 -11.3,0 -18.7,8.1 -18.7,21 v 98.7 c 0,11.9 -7.1,17.7 -14.5,17.7 -5.8,0 -10.7,-3.2 -14.2,-9 L 1293.8,24.8 C 1285.4,10.6 1277.7,0 1261.9,0 c -15.2,0 -26.1,11 -26.1,28.7 z"
   id="path1" />&#10;</svg>
