<?xml version="1.0" encoding="UTF-8" standalone="no"?>
<!-- Created with Inkscape (http://www.inkscape.org/) -->
<svg id="svg2" xmlns:rdf="http://www.w3.org/1999/02/22-rdf-syntax-ns#" xmlns="http://www.w3.org/2000/svg" height="240" width="280" version="1.1" xmlns:cc="http://creativecommons.org/ns#" xmlns:dc="http://purl.org/dc/elements/1.1/" viewBox="0 0 280 240.00017">
 <metadata id="metadata7">
  <rdf:RDF>
   <cc:Work rdf:about="">
    <dc:format>image/svg+xml</dc:format>
    <dc:type rdf:resource="http://purl.org/dc/dcmitype/StillImage"/>
    <dc:title/>
   </cc:Work>
  </rdf:RDF>
 </metadata>
 <g id="layer1" transform="translate(-108.6 -129.31)">
  <g id="g3864" transform="matrix(.82893 0 0 .82893 18.578 63.179)">
   <g id="g3384" transform="matrix(5.1899 0 0 -5.1899 133.37 291.98)">
    <path id="path3386" d="m0 0c0.185-0.023 0.374-0.045 0.566-0.069 0.167-0.022 0.335-0.043 0.505-0.063 0.362-0.041 0.735-0.082 1.117-0.125 0.587-0.067 1.199-0.129 1.828-0.193 0.108-0.011 0.218-0.022 0.327-0.034 0.531-0.05 1.077-0.098 1.634-0.146 0.215-0.019 0.433-0.038 0.65-0.057 0.126-0.011 0.251-0.022 0.377-0.033 0.268-0.022 0.536-0.042 0.807-0.063 0.082-0.006 0.163-0.012 0.245-0.018 0.318-0.022 0.64-0.043 0.963-0.066 0.4-0.026 0.802-0.05 1.207-0.075 0.42-0.026 0.844-0.055 1.273-0.079 0.84-0.043 1.698-0.076 2.561-0.111 0.244-0.009 0.488-0.02 0.733-0.028 0.188-0.008 0.378-0.015 0.569-0.021 0.202-0.004 0.403-0.01 0.605-0.016 0.231-0.004 0.463-0.007 0.696-0.011 0.158-0.004 0.317-0.008 0.474-0.01 0.151-0.004-0.212-0.005 0.168-0.007v2.365c-0.877 0.002-0.706 0.003-0.826 0.005-0.135 0.001-1.05 0.003-1.186 0.004-0.134 0.005-1.035 0.01-1.169 0.015-0.268 0.008-2.103 0.018-2.366 0.028-0.263 0.015-2.025 0.028-2.28 0.043-0.128 0.009-0.93 0.013-1.055 0.023-0.125 0.011-0.898 0.021-1.02 0.031-0.246 0.019-1.895 0.038-2.128 0.057-0.234 0.025-1.774 0.048-1.993 0.072-0.109 0.011-0.79 0.022-0.895 0.032-0.105 0.011-0.75 0.027-0.852 0.039-0.402 0.056-2.912 0.097-3.234 0.151-0.162 0.026-1.17 0.049-1.311 0.071-0.07 0.011-0.429 0.019-0.495 0.031-0.064 0.011-0.381 0.023-0.44 0.035-0.008 0.002-0.02 0.003-0.03 0.004 0.102-0.43 0.212-0.853 0.328-1.268 0.118-0.018 0.237-0.038 0.364-0.058 0.68-0.104 1.477-0.216 2.373-0.334 0.293-0.041 0.597-0.081 0.91-0.121m-2.384 11.15c0.606-0.064 1.244-0.124 1.91-0.187 0.666-0.065 1.362-0.125 2.081-0.183 0.719-0.061 1.463-0.12 2.228-0.176 0.383-0.03 0.771-0.058 1.163-0.089 0.394-0.025 0.791-0.05 1.194-0.076 0.805-0.049 1.628-0.102 2.465-0.146 1.669-0.103 3.42-0.156 5.188-0.228 0.443-0.012 0.887-0.025 1.333-0.039 0.441-0.009 0.884-0.017 1.327-0.026 0.343-0.007 0.105-0.012 0.8-0.017v3.012h-21.929c-0.064-0.569-0.112-1.033-0.146-1.587 0.216-0.024 0.436-0.049 0.664-0.075 0.541-0.063 1.116-0.121 1.722-0.183m44.579 5.126c-0.031 0.155-0.06 0.308-0.094 0.464-0.099 0.458-0.193 0.806-0.287 1.241-0.428 0.046-0.876 0.092-1.344 0.14-0.606 0.063-1.244 0.123-1.912 0.186-0.664 0.066-1.358 0.126-2.078 0.184-0.72 0.062-1.463 0.119-2.228 0.175-0.383 0.03-0.771 0.059-1.164 0.089-0.392 0.025-0.79 0.051-1.193 0.076-0.805 0.049-1.629 0.103-2.465 0.146-1.668 0.104-3.419 0.156-5.188 0.227-0.444 0.014-0.888 0.028-1.333 0.041-0.442 0.009-0.884 0.017-1.327 0.026-0.844 0.019-1.691 0.022-2.538 0.034-0.847-0.012-1.695-0.015-2.539-0.034-0.443-0.009-0.886-0.017-1.327-0.026-0.446-0.013-0.89-0.027-1.333-0.041-1.768-0.071-3.519-0.123-5.188-0.227-0.837-0.043-1.66-0.097-2.465-0.146-0.403-0.025-0.8-0.051-1.194-0.076-0.392-0.03-0.78-0.059-1.163-0.089-0.765-0.056-1.509-0.113-2.228-0.175-0.719-0.058-1.415-0.118-2.081-0.184-0.666-0.063-1.304-0.123-1.91-0.186-0.467-0.048-0.915-0.094-1.343-0.14-0.093-0.435-0.188-0.783-0.287-1.241-0.033-0.156-0.062-0.309-0.094-0.464h23.152 23.151zm-40.643-21.175c0.169-0.023 0.341-0.048 0.514-0.072 0.152-0.022 0.305-0.042 0.46-0.062 0.332-0.041 0.669-0.082 1.017-0.123 0.548-0.067 1.116-0.133 1.702-0.199 0.101-0.012 0.203-0.024 0.306-0.036 0.496-0.049 1.002-0.096 1.521-0.147 0.201-0.018 0.405-0.038 0.61-0.056 0.115-0.012 0.233-0.024 0.35-0.033 0.248-0.024 0.5-0.044 0.753-0.067 0.076-0.006 0.152-0.012 0.227-0.018 0.298-0.021 0.599-0.042 0.901-0.063 0.37-0.026 0.746-0.051 1.123-0.077 0.392-0.026 0.788-0.052 1.188-0.077 0.784-0.044 1.583-0.075 2.387-0.108 0.227-0.01 0.452-0.02 0.68-0.028 0.177-0.006 0.354-0.013 0.531-0.019 0.188-0.004 0.376-0.01 0.564-0.014 0.216-0.005 0.432-0.008 0.649-0.013 0.089 0 0.18-0.003 0.27-0.003v1.99c-0.584 0.001-0.253 0.003-0.378 0.004-0.205 0.002-0.928 0.004-1.131 0.007-0.202 0.007-0.915 0.014-1.115 0.023-0.404 0.013-1.849 0.026-2.244 0.041-0.393 0.022-1.786 0.043-2.168 0.066-0.192 0.011-0.833 0.02-1.02 0.034-0.188 0.016-0.806 0.031-0.989 0.046-0.368 0.029-1.668 0.057-2.018 0.085-0.348 0.038-1.564 0.072-1.893 0.108-0.164 0.016-0.707 0.032-0.866 0.048-0.158 0.018-0.673 0.04-0.824 0.06-0.605 0.081-2.59 0.142-3.074 0.226-0.244 0.038-1.043 0.073-1.254 0.106-0.106 0.015-0.403 0.03-0.499 0.047-0.041 0.008-0.112 0.014-0.186 0.022 0.167-0.4 0.34-0.791 0.517-1.171 0.124-0.023 0.253-0.044 0.388-0.068 0.632-0.108 1.357-0.219 2.161-0.337 0.272-0.04 0.552-0.081 0.84-0.122m15.753-8.706c-0.553 0.004-0.252 0.006-0.503 0.009-0.339 0.013-0.676 0.025-1.01 0.037-0.672 0.023-1.339 0.046-1.997 0.069-0.657 0.038-1.306 0.075-1.945 0.111-0.318 0.019-0.636 0.032-0.948 0.059-0.314 0.025-0.623 0.049-0.928 0.074-0.614 0.048-1.214 0.097-1.797 0.143-0.582 0.061-1.148 0.121-1.694 0.18-0.274 0.026-0.543 0.054-0.809 0.08-0.263 0.03-0.52 0.067-0.772 0.098-0.46 0.063-0.903 0.118-1.325 0.172 0.368-0.409 0.709-0.767 1.011-1.069 0.024-0.004 0.046-0.01 0.071-0.013 0.254-0.046 0.513-0.096 0.779-0.138 0.267-0.041 0.537-0.082 0.813-0.122 0.554-0.079 1.127-0.161 1.714-0.245 0.593-0.069 1.2-0.138 1.821-0.209 0.312-0.034 0.626-0.069 0.944-0.104 0.318-0.033 0.641-0.051 0.965-0.079 0.65-0.051 1.31-0.102 1.979-0.153 0.671-0.042 1.35-0.071 2.036-0.1 0.342-0.015 0.686-0.029 1.03-0.045 0.271-0.004-0.019-0.035 0.565-0.047v1.292zm-12.398 3.893c0.508-0.068 1.034-0.136 1.574-0.204 0.096-0.012 0.19-0.024 0.287-0.036 0.459-0.049 0.93-0.099 1.409-0.148 0.187-0.02 0.376-0.04 0.566-0.059 0.108-0.012 0.215-0.022 0.325-0.032 0.231-0.024 0.464-0.045 0.699-0.07 0.07-0.005 0.141-0.012 0.212-0.018 0.275-0.021 0.554-0.04 0.834-0.061 0.345-0.026 0.692-0.051 1.041-0.075 0.365-0.026 0.734-0.053 1.105-0.079 0.727-0.043 1.465-0.072 2.211-0.104 0.208-0.009 0.417-0.017 0.627-0.027 0.165-0.005 0.329-0.012 0.493-0.02 0.174-0.002 0.35-0.007 0.524-0.01 0.164-0.003 0.328-0.006 0.491-0.01v1.623c-0.134 0-0.069 0 0 0.001v0.001c-0.286 0.004-0.75 0.006-0.996 0.008-0.271 0.011-0.796 0.021-1.065 0.029-0.536 0.02-1.592 0.038-2.119 0.057-0.525 0.029-1.545 0.058-2.057 0.088-0.254 0.016-0.734 0.026-0.983 0.047-0.25 0.02-0.714 0.039-0.959 0.059-0.491 0.04-1.441 0.078-1.907 0.115-0.465 0.049-1.356 0.097-1.793 0.143-0.219 0.022-0.626 0.044-0.838 0.065-0.211 0.023-0.595 0.053-0.798 0.079-0.806 0.11-2.266 0.19-2.912 0.301-0.201 0.031-0.504 0.062-0.772 0.091 0.241-0.388 0.483-0.761 0.726-1.116 0.467-0.084 0.973-0.168 1.51-0.255 0.251-0.042 0.509-0.082 0.773-0.125 0.151-0.024 0.305-0.047 0.46-0.073 0.137-0.02 0.276-0.042 0.416-0.063 0.3-0.04 0.604-0.081 0.916-0.122m-6.462 15.129c0.203-0.024 0.41-0.046 0.622-0.071 0.179-0.02 0.362-0.041 0.548-0.061 0.393-0.042 0.801-0.084 1.219-0.125 0.626-0.067 1.279-0.127 1.953-0.189 0.115-0.01 0.231-0.022 0.348-0.033 0.567-0.049 1.151-0.097 1.746-0.144 0.23-0.019 0.46-0.038 0.693-0.057 0.134-0.011 0.268-0.022 0.403-0.033 0.284-0.021 0.572-0.04 0.861-0.061 0.087-0.006 0.173-0.01 0.261-0.017 0.34-0.022 0.682-0.044 1.028-0.066 0.426-0.028 0.857-0.052 1.29-0.078 0.447-0.027 0.899-0.055 1.355-0.078 0.899-0.044 1.815-0.078 2.739-0.113 0.26-0.011 0.522-0.022 0.784-0.032 0.203-0.007 0.404-0.014 0.607-0.02 0.215-0.006 0.43-0.012 0.647-0.018 0.245-0.006 0.492-0.009 0.74-0.014 0.169-0.003 0.339-0.006 0.508-0.009 0.253-0.005-0.047-0.009 0.508-0.012v2.737c-1.115 0.001-1.199 0.001-1.273 0.003-0.068 0-1.175 0.001-1.242 0.001-0.067 0.003-1.155 0.006-1.222 0.008-0.135 0.005-2.357 0.01-2.489 0.013-0.131 0.009-2.266 0.015-2.393 0.023-0.065 0.004-1.027 0.006-1.09 0.013-0.062 0.004-0.99 0.009-1.051 0.014-0.123 0.009-2.121 0.019-2.239 0.028-0.115 0.013-1.98 0.024-2.09 0.036-0.056 0.005-0.874 0.011-0.926 0.016-0.053 0.006-0.825 0.013-0.876 0.02-0.202 0.027-3.236 0.048-3.398 0.075-0.081 0.012-1.296 0.025-1.366 0.035-0.028 0.005-0.296 0.008-0.424 0.012 0.029-0.478 0.069-0.95 0.118-1.415 0.625-0.084 1.336-0.174 2.124-0.271 0.314-0.04 0.64-0.079 0.977-0.117m5.345 33.127c0.203 0.026 0.587 0.056 0.798 0.079 0.212 0.02 0.619 0.043 0.838 0.065 0.437 0.046 1.328 0.094 1.793 0.143 0.466 0.037 1.416 0.075 1.907 0.114 0.245 0.02 0.709 0.04 0.959 0.06 0.249 0.021 0.729 0.031 0.983 0.047 0.512 0.029 1.532 0.059 2.057 0.089 0.527 0.018 1.583 0.036 2.119 0.055 0.269 0.009 0.794 0.019 1.065 0.029 0.27 0.003 0.802 0.006 1.074 0.009 0.401 0.004 1.101 0.008 1.661 0.012 0.559-0.004 1.259-0.008 1.66-0.012 0.272-0.003 0.804-0.006 1.074-0.009 0.272-0.01 0.795-0.02 1.064-0.029 0.537-0.019 1.592-0.037 2.12-0.055 0.525-0.03 1.546-0.06 2.056-0.089 0.255-0.016 0.734-0.026 0.985-0.047 0.249-0.02 0.713-0.04 0.958-0.06 0.49-0.039 1.44-0.077 1.907-0.114 0.465-0.049 1.355-0.097 1.793-0.143 0.22-0.022 0.626-0.045 0.837-0.065 0.212-0.023 0.597-0.053 0.799-0.079 0.807-0.109 2.267-0.19 2.912-0.302 0.261-0.04 0.689-0.078 0.994-0.114-0.046 0.322-0.092 0.651-0.14 0.985-0.118 0.024-0.241 0.049-0.368 0.073-0.585 0.112-1.239 0.223-1.95 0.337-0.252 0.041-0.51 0.083-0.774 0.125-0.151 0.023-0.304 0.049-0.459 0.073-0.137 0.022-0.276 0.043-0.417 0.063-0.298 0.04-0.604 0.08-0.915 0.122-0.509 0.067-1.034 0.135-1.575 0.204-0.095 0.012-0.189 0.024-0.286 0.035-0.459 0.05-0.929 0.099-1.409 0.148-0.187 0.02-0.377 0.04-0.567 0.06-0.107 0.01-0.215 0.022-0.324 0.032-0.231 0.024-0.464 0.046-0.7 0.069-0.068 0.006-0.139 0.012-0.21 0.018-0.275 0.023-0.554 0.04-0.835 0.063-0.344 0.024-0.691 0.05-1.042 0.075-0.364 0.027-0.733 0.053-1.103 0.079-0.729 0.041-1.467 0.072-2.212 0.103l-0.627 0.027c-0.165 0.006-0.329 0.012-0.493 0.019-0.174 0.004-0.35 0.008-0.524 0.011-0.201 0.005-0.401 0.007-0.602 0.012-0.137 0.001-0.274 0.004-0.411 0.006-0.404 0.008-0.811 0.014-1.216 0.019-0.406-0.005-0.812-0.011-1.215-0.019-0.139-0.002-0.277-0.005-0.413-0.006-0.201-0.005-0.402-0.007-0.602-0.012-0.174-0.003-0.35-0.007-0.524-0.011-0.164-0.007-0.328-0.013-0.493-0.019-0.21-0.009-0.419-0.018-0.627-0.027-0.746-0.031-1.484-0.062-2.211-0.103-0.371-0.026-0.74-0.052-1.105-0.079-0.349-0.025-0.696-0.051-1.041-0.075-0.28-0.023-0.559-0.04-0.834-0.063-0.071-0.006-0.142-0.012-0.212-0.018-0.235-0.023-0.468-0.045-0.699-0.069-0.11-0.01-0.217-0.022-0.325-0.032-0.19-0.02-0.379-0.04-0.566-0.06-0.479-0.049-0.95-0.098-1.409-0.148-0.097-0.011-0.191-0.023-0.287-0.035-0.54-0.069-1.066-0.137-1.574-0.204-0.312-0.042-0.616-0.082-0.916-0.122-0.14-0.02-0.279-0.041-0.416-0.063-0.155-0.024-0.309-0.05-0.46-0.073-0.264-0.042-0.522-0.084-0.773-0.125-0.711-0.114-1.364-0.225-1.949-0.337-0.128-0.024-0.251-0.049-0.369-0.073-0.048-0.334-0.095-0.663-0.14-0.985 0.305 0.036 0.733 0.074 0.994 0.114 0.646 0.112 2.106 0.193 2.912 0.302m13.515-49.214v0.002c-0.056 0-0.093-0.001 0-0.002m0 4.549v0.002c-0.036 0-0.049-0.002 0-0.002m-14.646 39.925c0.151 0.02 0.666 0.042 0.824 0.06 0.159 0.015 0.702 0.032 0.866 0.048 0.329 0.034 1.545 0.071 1.893 0.108 0.35 0.027 1.65 0.057 2.018 0.085 0.183 0.015 0.801 0.03 0.989 0.046 0.187 0.014 0.828 0.022 1.02 0.034 0.382 0.023 1.775 0.045 2.168 0.067 0.395 0.014 1.84 0.027 2.244 0.041 0.2 0.007 0.913 0.015 1.115 0.023 0.203 0.003 0.926 0.003 1.131 0.007 0.355 0.002 1.543 0.006 2.117 0.01 0.573-0.004 1.761-0.008 2.116-0.01 0.205-0.004 0.928-0.004 1.131-0.007 0.202-0.008 0.915-0.016 1.117-0.023 0.402-0.014 1.847-0.027 2.242-0.041 0.394-0.022 1.786-0.044 2.169-0.067 0.192-0.012 0.832-0.02 1.019-0.034 0.187-0.016 0.806-0.031 0.989-0.046 0.368-0.028 1.668-0.058 2.018-0.085 0.348-0.037 1.564-0.074 1.893-0.108 0.164-0.016 0.708-0.033 0.866-0.048 0.159-0.018 0.673-0.04 0.825-0.06 0.604-0.081 2.59-0.143 3.074-0.226 0.085-0.012 0.241-0.026 0.417-0.039-0.071 0.42-0.14 0.831-0.205 1.237-0.419 0.066-0.864 0.132-1.339 0.203-0.273 0.039-0.553 0.081-0.841 0.122-0.169 0.024-0.34 0.048-0.514 0.071-0.151 0.022-0.305 0.043-0.461 0.063-0.33 0.04-0.669 0.081-1.015 0.123-0.55 0.067-1.117 0.134-1.702 0.199-0.102 0.011-0.203 0.024-0.307 0.035-0.495 0.049-1.003 0.098-1.521 0.147-0.202 0.019-0.405 0.039-0.609 0.058-0.116 0.011-0.233 0.022-0.35 0.033-0.249 0.022-0.5 0.044-0.754 0.066-0.076 0.006-0.151 0.013-0.226 0.018-0.299 0.022-0.599 0.042-0.901 0.063-0.371 0.026-0.746 0.051-1.124 0.076-0.392 0.027-0.789 0.055-1.189 0.079-0.784 0.042-1.581 0.075-2.386 0.107-0.226 0.01-0.452 0.018-0.68 0.028-0.176 0.007-0.354 0.013-0.531 0.019-0.188 0.005-0.376 0.01-0.564 0.013-0.216 0.005-0.432 0.009-0.648 0.013-0.148 0.002-0.296 0.005-0.445 0.008-0.52 0.011-1.042 0.017-1.564 0.024-0.523-0.007-1.045-0.013-1.566-0.024-0.148-0.003-0.297-0.006-0.443-0.008-0.217-0.004-0.433-0.008-0.649-0.013-0.188-0.003-0.376-0.008-0.564-0.013-0.177-0.006-0.354-0.012-0.531-0.019-0.228-0.01-0.453-0.018-0.68-0.028-0.804-0.032-1.603-0.065-2.387-0.107-0.4-0.024-0.796-0.052-1.188-0.079-0.377-0.025-0.753-0.05-1.123-0.076-0.302-0.021-0.603-0.041-0.901-0.063-0.075-0.005-0.151-0.012-0.227-0.018-0.253-0.022-0.505-0.044-0.753-0.066-0.117-0.011-0.235-0.022-0.35-0.033-0.205-0.019-0.409-0.039-0.61-0.058-0.519-0.049-1.025-0.098-1.521-0.147-0.103-0.011-0.205-0.024-0.306-0.035-0.586-0.065-1.154-0.132-1.702-0.199-0.348-0.042-0.685-0.083-1.017-0.123-0.155-0.02-0.308-0.041-0.46-0.063-0.173-0.023-0.345-0.047-0.514-0.071-0.288-0.041-0.568-0.083-0.84-0.122-0.476-0.071-0.922-0.137-1.34-0.203-0.066-0.406-0.133-0.817-0.205-1.237 0.175 0.013 0.331 0.027 0.418 0.039 0.484 0.083 2.469 0.145 3.074 0.226m-1.369-11.399c0.052 0.006 0.87 0.011 0.926 0.015 0.11 0.013 1.975 0.026 2.09 0.037 0.118 0.009 2.116 0.019 2.239 0.027 0.061 0.006 0.989 0.011 1.051 0.017 0.063 0.004 1.025 0.008 1.09 0.011 0.127 0.008 2.262 0.015 2.393 0.022 0.132 0.005 2.354 0.01 2.489 0.015 0.067 0.002 1.155 0.004 1.222 0.007 0.067 0 1.174 0.001 1.242 0.002 0.137 0.001 2.474 0.003 2.611 0.004 0.033-0.001 0.185-0.001 0.401-0.001 0.214 0 0.368 0 0.401 0.001 0.136-0.001 2.474-0.003 2.61-0.004 0.068-0.001 1.175-0.002 1.242-0.002 0.067-0.003 1.155-0.005 1.222-0.007 0.134-0.005 2.358-0.01 2.488-0.015 0.132-0.007 2.267-0.014 2.395-0.022 0.063-0.003 1.026-0.007 1.089-0.011 0.062-0.006 0.99-0.011 1.051-0.017 0.123-0.008 2.12-0.018 2.238-0.027 0.116-0.011 1.982-0.024 2.091-0.037 0.055-0.004 0.873-0.009 0.926-0.015 0.053-0.005 0.825-0.013 0.875-0.019 0.184-0.025 2.715-0.044 3.289-0.068-0.118 0.567-0.231 1.109-0.339 1.632h-0.002c-0.315 0.039-0.642 0.079-0.979 0.117-0.203 0.023-0.41 0.046-0.621 0.07-0.179 0.02-0.362 0.04-0.548 0.061-0.394 0.041-0.8 0.083-1.217 0.126-0.627 0.066-1.28 0.126-1.955 0.187-0.115 0.012-0.231 0.023-0.348 0.033-0.568 0.049-1.15 0.097-1.747 0.146-0.229 0.019-0.46 0.037-0.693 0.056-0.133 0.011-0.267 0.023-0.402 0.033-0.285 0.021-0.571 0.039-0.861 0.06-0.088 0.006-0.174 0.012-0.261 0.019-0.339 0.021-0.682 0.043-1.028 0.066-0.427 0.027-0.857 0.051-1.291 0.078-0.446 0.027-0.898 0.054-1.354 0.077-0.898 0.045-1.815 0.078-2.739 0.114-0.261 0.01-0.522 0.022-0.784 0.032-0.202 0.007-0.404 0.012-0.607 0.019-0.214 0.007-0.431 0.013-0.646 0.018-0.247 0.005-0.494 0.01-0.742 0.014-0.168 0.004-0.338 0.007-0.507 0.009-0.746 0.016-1.497 0.022-2.246 0.032-0.75-0.01-1.5-0.016-2.247-0.032-0.169-0.002-0.339-0.005-0.508-0.009-0.248-0.004-0.495-0.009-0.74-0.014-0.217-0.005-0.432-0.011-0.647-0.018-0.203-0.007-0.404-0.012-0.607-0.019-0.262-0.01-0.524-0.022-0.784-0.032-0.924-0.036-1.84-0.069-2.739-0.114-0.456-0.023-0.908-0.05-1.355-0.077-0.433-0.027-0.864-0.051-1.29-0.078-0.346-0.023-0.688-0.045-1.028-0.066-0.088-0.007-0.174-0.013-0.261-0.019-0.289-0.021-0.577-0.039-0.861-0.06-0.135-0.01-0.269-0.022-0.403-0.033-0.233-0.019-0.463-0.037-0.693-0.056-0.595-0.049-1.179-0.097-1.746-0.146-0.117-0.01-0.233-0.021-0.348-0.033-0.674-0.061-1.327-0.121-1.953-0.187-0.418-0.043-0.826-0.085-1.219-0.126-0.186-0.021-0.369-0.041-0.548-0.061-0.212-0.024-0.419-0.047-0.622-0.07-0.337-0.038-0.663-0.078-0.977-0.117h-0.002c-0.109-0.523-0.221-1.065-0.34-1.632 0.574 0.024 3.105 0.043 3.288 0.068 0.051 0.006 0.823 0.014 0.876 0.019m-2.798 5.842c-0.012-0.003-0.031-0.005-0.052-0.007 0.099 0.504 0.192 0.987 0.279 1.45 0.184 0.025 0.369 0.05 0.561 0.076 0.293 0.039 0.597 0.08 0.91 0.12 0.186 0.023 0.375 0.046 0.568 0.07 0.166 0.022 0.333 0.043 0.503 0.062 0.363 0.042 0.736 0.082 1.118 0.125 0.587 0.067 1.198 0.129 1.827 0.194 0.109 0.011 0.218 0.022 0.328 0.034 0.531 0.049 1.077 0.097 1.634 0.145 0.215 0.02 0.432 0.038 0.651 0.057 0.125 0.011 0.249 0.023 0.376 0.033 0.267 0.023 0.536 0.042 0.808 0.064 0.081 0.006 0.162 0.011 0.243 0.017 0.319 0.023 0.64 0.043 0.965 0.065 0.399 0.027 0.8 0.052 1.207 0.078 0.42 0.026 0.842 0.054 1.272 0.078 0.841 0.043 1.697 0.076 2.561 0.11 0.244 0.01 0.488 0.02 0.733 0.029 0.188 0.007 0.378 0.014 0.569 0.02 0.202 0.005 0.403 0.011 0.605 0.016 0.231 0.005 0.462 0.009 0.695 0.013 0.158 0.003 0.316 0.007 0.474 0.008 0.635 0.014 1.271 0.021 1.906 0.029 0.637-0.008 1.273-0.015 1.907-0.029 0.159-0.001 0.318-0.005 0.475-0.008 0.232-0.004 0.464-0.008 0.695-0.013 0.203-0.005 0.405-0.011 0.606-0.016 0.19-0.006 0.38-0.013 0.569-0.02 0.245-0.009 0.488-0.019 0.732-0.029 0.864-0.034 1.721-0.067 2.562-0.11 0.428-0.024 0.853-0.052 1.272-0.078 0.406-0.026 0.808-0.051 1.207-0.078 0.324-0.022 0.645-0.042 0.964-0.065 0.082-0.006 0.162-0.011 0.245-0.017 0.27-0.022 0.539-0.041 0.806-0.064 0.126-0.01 0.252-0.022 0.376-0.033 0.219-0.019 0.436-0.037 0.652-0.057 0.557-0.048 1.102-0.096 1.634-0.145 0.109-0.012 0.219-0.023 0.328-0.034 0.628-0.065 1.24-0.127 1.826-0.194 0.383-0.043 0.757-0.083 1.118-0.125 0.17-0.019 0.338-0.04 0.503-0.062 0.194-0.024 0.383-0.047 0.568-0.07 0.313-0.04 0.617-0.081 0.91-0.12 0.191-0.026 0.378-0.051 0.561-0.076 0.088-0.463 0.181-0.946 0.28-1.45-0.022 0.002-0.039 0.004-0.052 0.007-0.323 0.055-2.832 0.095-3.235 0.151-0.101 0.012-0.746 0.026-0.851 0.039-0.105 0.009-0.787 0.02-0.896 0.032-0.218 0.023-1.759 0.047-1.991 0.071-0.234 0.018-1.884 0.038-2.129 0.057-0.122 0.01-0.895 0.02-1.02 0.031-0.125 0.009-0.927 0.015-1.053 0.023-0.257 0.014-2.02 0.029-2.283 0.045-0.263 0.009-2.097 0.017-2.365 0.027-0.134 0.005-1.035 0.009-1.17 0.014-0.135 0.003-1.049 0.003-1.187 0.005-0.27 0.003-2.195 0.004-2.468 0.008-0.022 0-0.055 0-0.096-0.001-0.038 0.001-0.072 0.001-0.093 0.001-0.274-0.004-2.198-0.005-2.469-0.008-0.137-0.002-1.052-0.002-1.187-0.005-0.135-0.005-1.034-0.009-1.169-0.014-0.269-0.01-2.103-0.018-2.367-0.027-0.262-0.016-2.024-0.031-2.28-0.045-0.128-0.008-0.929-0.014-1.055-0.023-0.124-0.011-0.897-0.021-1.02-0.031-0.246-0.019-1.895-0.039-2.128-0.057-0.232-0.024-1.773-0.048-1.992-0.071-0.109-0.012-0.789-0.023-0.896-0.032-0.105-0.013-0.749-0.027-0.851-0.039-0.402-0.056-2.913-0.096-3.234-0.151" fill="#b2b2b2"/>
   </g>
   <path id="path3388" d="m229.21 224.54h217.17v144.78h-217.17v-144.78z" fill="#164194"/>
   <g id="g3390" transform="matrix(5.1899 0 0 -5.1899 333.18 256.08)">
    <path id="path3392" d="m0 0 0.882 0.645 0.883-0.645-0.336 1.041 0.896 0.644h-1.105l-0.338 1.055-0.337-1.055h-1.107l0.896-0.644-0.334-1.041z" fill="#ffed00"/>
   </g>
   <g id="g3394" transform="matrix(5.1899 0 0 -5.1899 309.46 262.45)">
    <path id="path3396" d="m0 0 0.884 0.644 0.881-0.644-0.335 1.042 0.895 0.645h-1.105l-0.337 1.055-0.338-1.058-1.106 0.003 0.896-0.645-0.335-1.042z" fill="#ffed00"/>
   </g>
   <g id="g3398" transform="matrix(5.1899 0 0 -5.1899 296.69 265.61)">
    <path id="path3400" d="m0 0-0.339-1.056-1.104 0.001 0.896-0.645-0.337-1.042 0.884 0.644 0.883-0.644-0.336 1.042l0.895 0.645h-1.104l-0.338 1.055z" fill="#ffed00"/>
   </g>
   <g id="g3402" transform="matrix(5.1899 0 0 -5.1899 290.33 300.18)">
    <path id="path3404" d="m0 0 0.882-0.645-0.336 1.043 0.897 0.644h-1.104l-0.339 1.056-0.338-1.059-1.106 0.003 0.898-0.644-0.337-1.043 0.883 0.645z" fill="#ffed00"/>
   </g>
   <g id="g3406" transform="matrix(5.1899 0 0 -5.1899 298.45 318.53)">
    <path id="path3408" d="m0 0-0.338 1.056-0.339-1.056h-1.104l0.896-0.643-0.337-1.042 0.884 0.645 0.883-0.645-0.336 1.042 0.895 0.643h-1.104z" fill="#ffed00"/>
   </g>
   <g id="g3410" transform="matrix(5.1899 0 0 -5.1899 315.83 335.92)">
    <path id="path3412" d="m0 0-0.338 1.055-0.338-1.056-1.104 0.001 0.895-0.644-0.335-1.042 0.882 0.645 0.883-0.645-0.337 1.042 0.897 0.644h-1.105z" fill="#ffed00"/>
   </g>
   <g id="g3414" transform="matrix(5.1899 0 0 -5.1899 339.51 342.21)">
    <path id="path3416" d="m0 0-0.337 1.055-0.339-1.056-1.105 0.001 0.897-0.646-0.336-1.04 0.883 0.643 0.882-0.643-0.336 1.04 0.898 0.646h-1.107z" fill="#ffed00"/>
   </g>
   <g id="g3418" transform="matrix(5.1899 0 0 -5.1899 363.2 335.92)">
    <path id="path3420" d="m0 0-0.338 1.055-0.339-1.056-1.103 0.001 0.894-0.644-0.336-1.042 0.884 0.645 0.883-0.645-0.337 1.042 0.898 0.644h-1.106z" fill="#ffed00"/>
   </g>
   <g id="g3422" transform="matrix(5.1899 0 0 -5.1899 380.59 318.53)">
    <path id="path3424" d="m0 0-0.34 1.056-0.339-1.056h-1.103l0.896-0.643-0.336-1.042 0.882 0.645 0.884-0.645-0.337 1.042 0.897 0.643h-1.104z" fill="#ffed00"/>
   </g>
   <g id="g3426" transform="matrix(5.1899 0 0 -5.1899 392.62 294.71)">
    <path id="path3428" d="m0 0h-1.105l-0.339 1.056-0.338-1.056h-1.105l0.896-0.643-0.335-1.044 0.882 0.647 0.883-0.647-0.336 1.044 0.897 0.643z" fill="#ffed00"/>
   </g>
   <g id="g3430" transform="matrix(5.1899 0 0 -5.1899 374.25 279.77)">
    <path id="path3432" d="m0 0 0.882 0.645 0.883-0.645-0.336 1.042 0.897 0.641h-1.104l-0.34 1.057-0.338-1.057h-1.104l0.896-0.641-0.336-1.042z" fill="#ffed00"/>
   </g>
   <g id="g3434" transform="matrix(5.1899 0 0 -5.1899 361.51 248.22)">
    <path id="path3436" d="m0 0-0.337-1.058-1.106 0.004 0.895-0.647-0.334-1.042 0.883 0.646 0.883-0.646-0.337 1.042 0.896 0.647h-1.105l-0.338 1.054z" fill="#ffed00"/>
   </g>
  </g>
 </g>
</svg>