<?xml version="1.0" encoding="UTF-8" standalone="no"?>
<!-- Created with Inkscape (http://www.inkscape.org/) -->
<svg
   xmlns:dc="http://purl.org/dc/elements/1.1/"
   xmlns:cc="http://web.resource.org/cc/"
   xmlns:rdf="http://www.w3.org/1999/02/22-rdf-syntax-ns#"
   xmlns:svg="http://www.w3.org/2000/svg"
   xmlns="http://www.w3.org/2000/svg"
   xmlns:xlink="http://www.w3.org/1999/xlink"
   xmlns:sodipodi="http://sodipodi.sourceforge.net/DTD/sodipodi-0.dtd"
   xmlns:inkscape="http://www.inkscape.org/namespaces/inkscape"
   id="svg9925"
   sodipodi:version="0.32"
   inkscape:version="0.44.1"
   width="266"
   height="266"
   version="1.0"
   sodipodi:docbase="C:\Documents and Settings\Sigurd\Mine dokumenter\Mine bilder"
   sodipodi:docname="CURIA_RATIONUM_logo.png.svg">
  <metadata
     id="metadata9930">
    <rdf:RDF>
      <cc:Work
         rdf:about="">
        <dc:format>image/svg+xml</dc:format>
        <dc:type
           rdf:resource="http://purl.org/dc/dcmitype/StillImage" />
      </cc:Work>
    </rdf:RDF>
  </metadata>
  <defs
     id="defs9928">
    <g
       id="star">
      <g
         id="cone">
        <path
           transform="translate(0,-1) rotate(18)"
           d="M0,0 v1 h0.5 z"
           id="triangle" />
        <use
           id="use11148"
           transform="scale(-1,1)"
           xlink:href="#triangle" />
      </g>
      <use
         id="use11150"
         transform="rotate(72)"
         xlink:href="#cone" />
      <use
         id="use11152"
         transform="rotate(144)"
         xlink:href="#cone" />
      <use
         id="use11154"
         transform="rotate(216)"
         xlink:href="#cone" />
      <use
         id="use11156"
         transform="rotate(288)"
         xlink:href="#cone" />
    </g>
  </defs>
  <sodipodi:namedview
     inkscape:window-height="719"
     inkscape:window-width="1028"
     inkscape:pageshadow="2"
     inkscape:pageopacity="0.0"
     guidetolerance="10.0"
     gridtolerance="10.0"
     objecttolerance="10.0"
     borderopacity="1.0"
     bordercolor="#666666"
     pagecolor="#ffffff"
     id="base"
     showguides="true"
     inkscape:guide-bbox="true"
     inkscape:zoom="2.6447627"
     inkscape:cx="95.121063"
     inkscape:cy="178.19541"
     inkscape:window-x="-4"
     inkscape:window-y="-4"
     inkscape:current-layer="svg9925" />
  <path
     style="fill:#c5a05f;fill-rule:evenodd;stroke:none;stroke-width:1px;stroke-linecap:butt;stroke-linejoin:miter;stroke-opacity:1;fill-opacity:1"
     d="M 8.4815301,145.26292 C 8.4815301,145.26292 32.241614,160.32582 35.422861,180.68579 C 37.917429,196.65102 45.900045,195.65319 45.900045,195.65319 C 45.900045,195.65319 35.354635,196.323 26.597568,187.52282 C 19.123682,180.01214 13.765442,164.79042 8.4815301,145.26292 z "
     id="path9934"
     sodipodi:nodetypes="cscsc" />
  <path
     sodipodi:nodetypes="cscsc"
     id="path9938"
     d="M 18.07515,202.43681 C 18.07515,202.43681 46.197829,203.17671 59.373801,219.02103 C 69.705712,231.44533 76.045836,226.49349 76.045836,226.49349 C 76.045836,226.49349 67.337601,232.47855 55.306034,229.41738 C 45.037463,226.80476 32.628904,216.48783 18.07515,202.43681 z "
     style="fill:#c5a05f;fill-rule:evenodd;stroke:none;stroke-width:1px;stroke-linecap:butt;stroke-linejoin:miter;stroke-opacity:1;fill-opacity:1" />
  <path
     style="fill:#c5a05f;fill-rule:evenodd;stroke:none;stroke-width:1px;stroke-linecap:butt;stroke-linejoin:miter;stroke-opacity:1;fill-opacity:1"
     d="M 60.780588,241.95774 C 60.780588,241.95774 86.575048,230.72928 105.21736,239.51068 C 119.8357,246.39659 123.48521,239.22728 123.48521,239.22728 C 123.48521,239.22728 118.12716,248.33474 105.9304,250.6517 C 95.520831,252.62915 79.912527,248.53131 60.780588,241.95774 z "
     id="path9940"
     sodipodi:nodetypes="cscsc" />
  <path
     style="fill:#22196c;fill-rule:evenodd;stroke:none;stroke-width:1px;stroke-linecap:butt;stroke-linejoin:miter;stroke-opacity:1;fill-opacity:1"
     d="M 129.69027,216.09004 L 66.168507,192.64748 L 66.168507,83.374919 L 130.06838,106.06126 L 129.69027,216.09004 z "
     id="path9942" />
  <path
     sodipodi:nodetypes="cscsc"
     id="path10913"
     d="M 256.06838,145.26292 C 256.06838,145.26292 232.3083,160.32582 229.12705,180.68579 C 226.63248,196.65102 218.64987,195.65319 218.64987,195.65319 C 218.64987,195.65319 229.19528,196.323 237.95234,187.52282 C 245.42623,180.01214 250.78447,164.79042 256.06838,145.26292 z "
     style="fill:#c5a05f;fill-opacity:1;fill-rule:evenodd;stroke:none;stroke-width:1px;stroke-linecap:butt;stroke-linejoin:miter;stroke-opacity:1" />
  <path
     style="fill:#c5a05f;fill-opacity:1;fill-rule:evenodd;stroke:none;stroke-width:1px;stroke-linecap:butt;stroke-linejoin:miter;stroke-opacity:1"
     d="M 246.47476,202.43681 C 246.47476,202.43681 218.35208,203.17671 205.17611,219.02103 C 194.8442,231.44533 188.50407,226.49349 188.50407,226.49349 C 188.50407,226.49349 197.21231,232.47855 209.24388,229.41738 C 219.51245,226.80476 231.92101,216.48783 246.47476,202.43681 z "
     id="path10915"
     sodipodi:nodetypes="cscsc" />
  <path
     sodipodi:nodetypes="cscsc"
     id="path10917"
     d="M 203.76932,241.95774 C 203.76932,241.95774 177.97486,230.72928 159.33255,239.51068 C 144.71421,246.39659 141.0647,239.22728 141.0647,239.22728 C 141.0647,239.22728 146.42275,248.33474 158.61951,250.6517 C 169.02908,252.62915 184.63738,248.53131 203.76932,241.95774 z "
     style="fill:#c5a05f;fill-opacity:1;fill-rule:evenodd;stroke:none;stroke-width:1px;stroke-linecap:butt;stroke-linejoin:miter;stroke-opacity:1" />
  <path
     id="path10919"
     d="M 134.85964,216.09004 L 198.3814,192.64748 L 198.3814,83.374919 L 134.48153,106.06126 L 134.85964,216.09004 z "
     style="fill:#22196c;fill-opacity:1;fill-rule:evenodd;stroke:none;stroke-width:1px;stroke-linecap:butt;stroke-linejoin:miter;stroke-opacity:1" />
  <g
     id="g11190"
     transform="matrix(5.149448,0,0,5.149448,-6.925496,93.06557)"
     style="fill:#d49f55;fill-opacity:1">
    <g
       id="g11160"
       style="fill:#d49f55;fill-opacity:1"
       transform="matrix(1.6956096,0,0,1.6956096,27.117589,4.4998181)">
      <use
         id="use11162"
         y="-6"
         xlink:href="#star"
         x="0"
         width="266"
         height="266"
         style="fill:#d49f55;fill-opacity:1" />
      <g
         id="rtl"
         style="fill:#d49f55;fill-opacity:1">
        <use
           id="use11165"
           transform="matrix(0.309017,0.9510565,-0.9510565,0.309017,-3,5.1961524)"
           xlink:href="#star"
           x="0"
           y="0"
           width="266"
           height="266"
           style="fill:#d49f55;fill-opacity:1" />
        <use
           id="use11167"
           transform="matrix(0.309017,0.9510565,-0.9510565,0.309017,-5.1961524,3)"
           xlink:href="#star"
           x="0"
           y="0"
           width="266"
           height="266"
           style="fill:#d49f55;fill-opacity:1" />
        <use
           id="use11169"
           x="6"
           xlink:href="#star"
           y="0"
           width="266"
           height="266"
           style="fill:#d49f55;fill-opacity:1" />
        <use
           id="use11171"
           transform="matrix(-0.809017,0.5877853,-0.5877853,-0.809017,-5.1961524,-3)"
           xlink:href="#star"
           x="0"
           y="0"
           width="266"
           height="266"
           style="fill:#d49f55;fill-opacity:1" />
        <use
           id="use11173"
           transform="matrix(-0.809017,-0.5877853,0.5877853,-0.809017,-3,-5.1961524)"
           xlink:href="#star"
           x="0"
           y="0"
           width="266"
           height="266"
           style="fill:#d49f55;fill-opacity:1" />
      </g>
      <use
         id="use11175"
         y="6"
         xlink:href="#star"
         x="0"
         width="266"
         height="266"
         style="fill:#d49f55;fill-opacity:1" />
      <use
         id="use11177"
         transform="scale(-1,1)"
         xlink:href="#rtl"
         x="0"
         y="0"
         width="266"
         height="266"
         style="fill:#d49f55;fill-opacity:1" />
    </g>
  </g>
  <path
     transform="matrix(0.254629,-0.9670388,0.9670388,0.254629,0,0)"
     style="font-size:36.69326019px;font-style:normal;font-weight:normal;fill:black;fill-opacity:1;stroke:none;stroke-width:1px;stroke-linecap:butt;stroke-linejoin:miter;stroke-opacity:1;font-family:Sylfaen"
     d="M -102.27883,34.21785 C -101.8369,34.217876 -101.33524,34.247737 -100.77383,34.307433 C -100.21246,34.367181 -99.645102,34.441833 -99.071752,34.531391 C -98.498439,34.620999 -97.934066,34.719541 -97.378631,34.827016 C -96.823236,34.93454 -96.342473,35.024123 -95.936342,35.095765 C -95.804975,35.119678 -95.739281,35.1794 -95.739259,35.274931 L -95.739259,40.829087 C -95.739281,40.94855 -95.804975,41.008272 -95.936342,41.008253 L -97.351756,41.008253 C -97.411498,41.008272 -97.459276,40.996327 -97.495089,40.97242 C -97.530942,40.94855 -97.548859,40.912717 -97.548839,40.86492 L -98.28342,36.744095 C -98.28344,36.672451 -98.331217,36.612729 -98.426754,36.564929 C -98.641772,36.517174 -98.916493,36.45148 -99.250919,36.367846 C -99.58538,36.284258 -99.928782,36.203633 -100.28112,36.125971 C -100.6335,36.048356 -100.99781,35.985648 -101.37404,35.937847 C -101.7503,35.890093 -102.11162,35.866204 -102.458,35.86618 C -104.09439,35.866204 -105.54863,36.117036 -106.8207,36.618679 C -108.09279,37.120367 -109.1648,37.831059 -110.03673,38.750758 C -110.90868,39.670498 -111.57159,40.77237 -112.02548,42.056376 C -112.47937,43.340418 -112.70631,44.752844 -112.70631,46.29366 C -112.70631,47.906168 -112.46743,49.435052 -111.98964,50.880317 C -111.51187,52.325599 -110.83104,53.597679 -109.94715,54.696559 C -109.06327,55.79545 -107.99723,56.661419 -106.74903,57.294471 C -105.50085,57.927527 -104.11828,58.244054 -102.60133,58.244052 C -102.33857,58.244054 -102.01607,58.232109 -101.63383,58.208219 C -101.25163,58.184332 -100.87239,58.148498 -100.49612,58.100719 C -100.11989,58.052943 -99.74663,57.993221 -99.376335,57.921553 C -99.006077,57.849888 -98.68955,57.742388 -98.426754,57.599054 C -98.331217,57.539333 -98.28344,57.473639 -98.28342,57.401971 L -97.548839,53.263229 C -97.548859,53.239346 -97.530942,53.209485 -97.495089,53.173646 C -97.459276,53.137819 -97.411498,53.119902 -97.351756,53.119896 L -95.936342,53.119896 C -95.804975,53.119902 -95.739281,53.179624 -95.739259,53.299062 L -95.739259,58.835301 C -95.739281,58.906968 -95.804975,58.96669 -95.936342,59.014467 C -96.342473,59.121968 -96.790389,59.229467 -97.280089,59.336967 C -97.76983,59.444467 -98.304343,59.545994 -98.883628,59.64155 C -99.46295,59.737105 -100.08705,59.817729 -100.75592,59.883424 C -101.42482,59.949118 -102.16537,59.981965 -102.97758,59.981966 C -104.31537,59.981965 -105.57252,59.835646 -106.74903,59.543008 C -107.92556,59.25037 -109.00952,58.826344 -110.0009,58.270927 C -110.99229,57.715513 -111.87319,57.052599 -112.6436,56.282181 C -113.41402,55.51177 -114.062,54.657745 -114.58755,53.720103 C -115.11311,52.782473 -115.52221,51.755254 -115.81484,50.638443 C -116.10748,49.521649 -116.2538,48.366028 -116.2538,47.171574 C -116.2538,45.79798 -116.08359,44.5259 -115.74318,43.355332 C -115.40276,42.184796 -114.91902,41.115772 -114.29193,40.148255 C -113.66485,39.180777 -112.9243,38.329738 -112.07027,37.595135 C -111.21625,36.860576 -110.27563,36.242453 -109.2484,35.740764 C -108.22119,35.239122 -107.11334,34.859887 -105.92486,34.603058 C -104.73641,34.346278 -103.52106,34.217876 -102.27883,34.21785 L -102.27883,34.21785 z "
     id="text11204" />
  <path
     transform="matrix(0.4513656,-0.8923391,0.8923391,0.4513656,0,0)"
     style="font-size:36.69326019px;font-style:normal;font-weight:normal;fill:black;fill-opacity:1;stroke:none;stroke-width:1px;stroke-linecap:butt;stroke-linejoin:miter;stroke-opacity:1;font-family:Sylfaen"
     d="M -75.737547,55.369864 C -75.737551,55.250443 -75.797273,55.190721 -75.916714,55.190698 L -78.998374,54.886115 C -79.117819,54.886139 -79.177541,54.826417 -79.17754,54.706949 L -79.17754,53.757368 C -79.177541,53.637948 -79.117819,53.578226 -78.998374,53.578201 L -69.054644,53.578201 C -68.93521,53.578226 -68.875488,53.637948 -68.875478,53.757368 L -68.875478,54.706949 C -68.875488,54.826417 -68.93521,54.886139 -69.054644,54.886115 L -72.351304,55.190698 C -72.4827,55.190721 -72.548394,55.250443 -72.548387,55.369864 L -72.548387,68.610255 C -72.548394,70.437759 -72.446867,71.847199 -72.243804,72.83858 C -72.088534,73.603027 -71.772008,74.25997 -71.294223,74.809409 C -70.016179,76.278575 -68.170768,77.013156 -65.757984,77.013155 C -63.166061,77.013156 -61.231067,75.985937 -59.952995,73.931494 C -59.546905,73.2865 -59.278156,72.277198 -59.146747,70.903583 C -59.075101,70.163037 -59.039268,69.267207 -59.039247,68.216089 L -59.039247,55.369864 C -59.039268,55.250443 -59.09899,55.190721 -59.218413,55.190698 L -62.335907,54.886115 C -62.455369,54.886139 -62.515091,54.826417 -62.515074,54.706949 L -62.515074,53.757368 C -62.515091,53.637948 -62.455369,53.578226 -62.335907,53.578201 L -53.825508,53.578201 C -53.706089,53.578226 -53.646367,53.637948 -53.646341,53.757368 L -53.646341,54.706949 C -53.646367,54.826417 -53.706089,54.886139 -53.825508,54.886115 L -56.835502,55.190698 C -56.954969,55.190721 -57.014691,55.250443 -57.014668,55.369864 L -57.014668,68.072756 C -57.014691,72.086087 -57.838855,74.887051 -59.487163,76.475656 C -61.087734,78.016486 -63.345227,78.786901 -66.259649,78.786901 C -69.544375,78.786901 -72.016868,77.962736 -73.677135,76.314406 C -74.40575,75.585799 -74.907415,74.827329 -75.182132,74.038994 C -75.552413,72.975946 -75.737551,71.608311 -75.737547,69.936085 L -75.737547,55.369864 z "
     id="text11208" />
  <path
     transform="matrix(0.597451,-0.8019054,0.8019054,0.597451,0,0)"
     style="font-size:36.69326401px;font-style:normal;font-weight:normal;fill:black;fill-opacity:1;stroke:none;stroke-width:1px;stroke-linecap:butt;stroke-linejoin:miter;stroke-opacity:1;font-family:Sylfaen"
     d="M -35.740455,73.075387 C -35.740463,73.194844 -35.692685,73.254566 -35.597122,73.254553 C -33.901024,73.254566 -32.712555,73.224705 -32.031712,73.16497 C -30.28784,73.009706 -29.01576,72.322902 -28.215469,71.104557 C -27.761597,70.411797 -27.534653,69.563744 -27.534637,68.560396 C -27.534653,65.036812 -29.780202,63.275012 -34.271291,63.274989 L -35.561288,63.274989 C -35.680741,63.275012 -35.740463,63.334734 -35.740455,63.454155 L -35.740455,73.075387 z M -33.662125,61.590825 C -30.34159,61.59085 -27.952708,62.10446 -26.495472,63.131656 C -24.787439,64.338064 -23.933414,65.974448 -23.933394,68.040813 C -23.933414,70.417769 -25.097994,72.221375 -27.427137,73.451636 C -28.143818,73.83387 -28.914233,74.13248 -29.738383,74.347468 C -28.472289,74.956645 -27.283821,76.330252 -26.172973,78.468293 L -23.019645,84.524115 C -22.971889,84.619672 -22.882306,84.66745 -22.750896,84.667448 L -20.081318,84.954115 C -19.961897,84.954116 -19.902175,85.01981 -19.902151,85.151198 L -19.902151,86.100779 C -19.902175,86.220223 -19.961897,86.279945 -20.081318,86.279945 L -25.832557,86.279945 C -25.963963,86.279945 -26.053546,86.232168 -26.101306,86.136612 L -29.254634,79.525375 C -30.771588,76.348169 -32.730472,74.759562 -35.131289,74.75955 L -35.561288,74.75955 C -35.680741,74.759562 -35.740463,74.80734 -35.740455,74.902884 L -35.740455,84.488282 C -35.740463,84.595784 -35.680741,84.655506 -35.561288,84.667448 L -32.085462,84.954115 C -31.954085,84.96606 -31.888391,85.031755 -31.888379,85.151198 L -31.888379,86.100779 C -31.888391,86.220223 -31.954085,86.279945 -32.085462,86.279945 L -42.315859,86.279945 C -42.435305,86.279945 -42.495027,86.220223 -42.495025,86.100779 L -42.495025,85.151198 C -42.495027,85.01981 -42.435305,84.954116 -42.315859,84.954115 L -39.198365,84.667448 C -39.078925,84.66745 -39.019203,84.607728 -39.019199,84.488282 L -39.019199,63.382489 C -39.019203,63.263067 -39.078925,63.203345 -39.198365,63.203322 L -42.315859,62.89874 C -42.435305,62.898763 -42.495027,62.839041 -42.495025,62.719573 L -42.495025,61.769992 C -42.495027,61.650572 -42.435305,61.59085 -42.315859,61.590825 L -33.662125,61.590825 z "
     id="text11212" />
  <path
     transform="matrix(0.781113,-0.6243897,0.6243897,0.781113,0,0)"
     style="font-size:36.69326782px;font-style:normal;font-weight:normal;fill:black;fill-opacity:1;stroke:none;stroke-width:1px;stroke-linecap:butt;stroke-linejoin:miter;stroke-opacity:1;font-family:Sylfaen"
     d="M 14.060021,63.199763 C 14.179453,63.199788 14.239175,63.25951 14.239187,63.378929 L 14.239187,64.328511 C 14.239175,64.447979 14.179453,64.507701 14.060021,64.507677 L 10.942526,64.81226 C 10.823074,64.812283 10.763352,64.872005 10.76336,64.991426 L 10.76336,86.097222 C 10.763352,86.216668 10.823074,86.27639 10.942526,86.276388 L 14.060021,86.563055 C 14.179453,86.563056 14.239175,86.62875 14.239187,86.760138 L 14.239187,87.709719 C 14.239175,87.829163 14.179453,87.888885 14.060021,87.888885 L 4.1879549,87.888885 C 4.0685092,87.888885 4.0087872,87.829163 4.0087885,87.709719 L 4.0087885,86.760138 C 4.0087872,86.62875 4.0685092,86.563056 4.1879549,86.563055 L 7.3054493,86.276388 C 7.4248888,86.27639 7.4846108,86.216668 7.4846157,86.097222 L 7.4846157,64.991426 C 7.4846108,64.872005 7.4248888,64.812283 7.3054493,64.81226 L 4.1879549,64.507677 C 4.0685092,64.507701 4.0087872,64.447979 4.0087885,64.328511 L 4.0087885,63.378929 C 4.0087872,63.25951 4.0685092,63.199788 4.1879549,63.199763 L 14.060021,63.199763 z "
     id="text11216" />
  <path
     transform="matrix(0.8561718,-0.5166913,0.5166913,0.8561718,0,0)"
     style="font-size:36.69326782px;font-style:normal;font-weight:normal;fill:black;fill-opacity:1;stroke:none;stroke-width:1px;stroke-linecap:butt;stroke-linejoin:miter;stroke-opacity:1;font-family:Sylfaen"
     d="M 38.945028,65.567957 C 38.897237,65.49631 38.84946,65.460477 38.801695,65.460457 C 38.730016,65.460477 38.682238,65.49631 38.658361,65.567957 L 35.200451,74.347108 C 35.128776,74.51434 35.182526,74.597951 35.361701,74.59794 L 41.990856,74.59794 C 42.181951,74.597951 42.247645,74.51434 42.187938,74.347108 L 38.945028,65.567957 z M 42.510438,85.312088 C 42.390978,85.312088 42.331256,85.252366 42.331272,85.132922 L 42.331272,84.18334 C 42.331256,84.051953 42.390978,83.986258 42.510438,83.986257 L 45.377099,83.699591 C 45.448747,83.699593 45.496525,83.675704 45.520433,83.627924 C 45.544302,83.580148 45.544302,83.520426 45.520433,83.448758 L 42.797104,76.246271 C 42.74931,76.174613 42.701532,76.13878 42.653771,76.138771 L 34.662952,76.138771 C 34.603222,76.150725 34.555444,76.186558 34.519619,76.246271 L 31.617124,83.520425 C 31.557397,83.675704 31.617119,83.759315 31.79629,83.771257 L 34.555452,83.986257 C 34.674888,83.998203 34.73461,84.063897 34.734618,84.18334 L 34.734618,85.132922 C 34.73461,85.252366 34.674888,85.312088 34.555452,85.312088 L 26.618383,85.312088 C 26.498939,85.312088 26.439217,85.252366 26.439217,85.132922 L 26.439217,84.18334 C 26.439217,84.051953 26.498939,83.986258 26.618383,83.986257 L 29.628378,83.699591 C 29.688096,83.687648 29.735874,83.651815 29.771711,83.592091 L 39.106277,60.103383 C 39.154042,60.031742 39.20182,59.995909 39.24961,59.995883 L 40.163359,59.995883 C 40.223067,60.007853 40.270845,60.043686 40.306692,60.103383 L 48.88876,83.556258 C 48.912626,83.627926 48.966376,83.663759 49.05001,83.663758 L 51.970421,83.986257 C 52.077895,83.986258 52.131645,84.051953 52.131671,84.18334 L 52.131671,85.132922 C 52.131645,85.252366 52.065951,85.312088 51.934588,85.312088 L 42.510438,85.312088 z "
     id="text11220" />
  <path
     transform="matrix(0.974899,-0.222648,0.222648,0.974899,0,0)"
     style="font-size:36.69326782px;font-style:normal;font-weight:normal;fill:black;fill-opacity:1;stroke:none;stroke-width:1px;stroke-linecap:butt;stroke-linejoin:miter;stroke-opacity:1;font-family:Sylfaen"
     d="M 92.547167,49.935184 C 92.547158,50.054641 92.594936,50.114363 92.6905,50.11435 C 94.386598,50.114363 95.575067,50.084502 96.25591,50.024767 C 97.999782,49.869503 99.271862,49.182699 100.07215,47.964354 C 100.52603,47.271594 100.75297,46.42354 100.75299,45.420192 C 100.75297,41.896609 98.50742,40.134808 94.016331,40.134785 L 92.726333,40.134785 C 92.606881,40.134808 92.547158,40.19453 92.547167,40.313951 L 92.547167,49.935184 z M 94.625496,38.450621 C 97.946032,38.450646 100.33491,38.964256 101.79215,39.991452 C 103.50018,41.19786 104.35421,42.834245 104.35423,44.90061 C 104.35421,47.277566 103.18963,49.081172 100.86049,50.311433 C 100.1438,50.693667 99.373389,50.992278 98.549239,51.207265 C 99.815333,51.816442 101.0038,53.190049 102.11465,55.328091 L 105.26798,61.383914 C 105.31573,61.479471 105.40532,61.527248 105.53673,61.527247 L 108.20631,61.813913 C 108.32573,61.813914 108.38545,61.879608 108.38547,62.010996 L 108.38547,62.960577 C 108.38545,63.080022 108.32573,63.139744 108.20631,63.139744 L 102.45507,63.139744 C 102.32366,63.139744 102.23408,63.091966 102.18632,62.996411 L 99.032988,56.385173 C 97.516034,53.207966 95.55715,51.619359 93.156332,51.619348 L 92.726333,51.619348 C 92.606881,51.619359 92.547158,51.667137 92.547167,51.762681 L 92.547167,61.34808 C 92.547158,61.455582 92.606881,61.515304 92.726333,61.527247 L 96.20216,61.813913 C 96.333537,61.825859 96.399231,61.891553 96.399243,62.010996 L 96.399243,62.960577 C 96.399231,63.080022 96.333537,63.139744 96.20216,63.139744 L 85.971762,63.139744 C 85.852316,63.139744 85.792594,63.080022 85.792595,62.960577 L 85.792595,62.010996 C 85.792594,61.879608 85.852316,61.813914 85.971762,61.813913 L 89.089256,61.527247 C 89.208696,61.527248 89.268418,61.467526 89.268422,61.34808 L 89.268422,40.242285 C 89.268418,40.122863 89.208696,40.063141 89.089256,40.063118 L 85.971762,39.758536 C 85.852316,39.758559 85.792594,39.698837 85.792595,39.579369 L 85.792595,38.629788 C 85.792594,38.510368 85.852316,38.450646 85.971762,38.450621 L 94.625496,38.450621 z "
     id="text11224" />
  <path
     transform="matrix(0.999835,1.816794e-2,-1.816794e-2,0.999835,0,0)"
     style="font-size:36.69327927px;font-style:normal;font-weight:normal;fill:black;fill-opacity:1;stroke:none;stroke-width:1px;stroke-linecap:butt;stroke-linejoin:miter;stroke-opacity:1;font-family:Sylfaen"
     d="M 134.52672,15.377845 C 134.47893,15.306198 134.43115,15.270365 134.38339,15.270345 C 134.31171,15.270365 134.26393,15.306198 134.24005,15.377845 L 130.78214,24.156999 C 130.71047,24.324232 130.76422,24.407842 130.94339,24.407832 L 137.57255,24.407832 C 137.76364,24.407842 137.82934,24.324232 137.76963,24.156999 L 134.52672,15.377845 z M 138.09213,35.121983 C 137.97267,35.121983 137.91295,35.06226 137.91296,34.942816 L 137.91296,33.993234 C 137.91295,33.861847 137.97267,33.796153 138.09213,33.796151 L 140.95879,33.509485 C 141.03044,33.509487 141.07822,33.485598 141.10213,33.437818 C 141.126,33.390042 141.126,33.33032 141.10213,33.258652 L 138.3788,26.056163 C 138.331,25.984505 138.28323,25.948672 138.23546,25.948663 L 130.24464,25.948663 C 130.18491,25.960616 130.13713,25.99645 130.10131,26.056163 L 127.19881,33.330319 C 127.13909,33.485598 127.19881,33.569209 127.37798,33.581152 L 130.13714,33.796151 C 130.25658,33.808097 130.3163,33.873791 130.31631,33.993234 L 130.31631,34.942816 C 130.3163,35.06226 130.25658,35.121983 130.13714,35.121983 L 122.20007,35.121983 C 122.08063,35.121983 122.0209,35.06226 122.0209,34.942816 L 122.0209,33.993234 C 122.0209,33.861847 122.08063,33.796153 122.20007,33.796151 L 125.21007,33.509485 C 125.26979,33.497542 125.31756,33.461709 125.3534,33.401985 L 134.68797,9.9132697 C 134.73573,9.8416284 134.78351,9.8057952 134.8313,9.8057699 L 135.74505,9.8057699 C 135.80476,9.8177396 135.85254,9.8535729 135.88838,9.9132697 L 144.47045,33.366152 C 144.49432,33.43782 144.54807,33.473653 144.6317,33.473652 L 147.55212,33.796151 C 147.65959,33.796153 147.71334,33.861847 147.71337,33.993234 L 147.71337,34.942816 C 147.71334,35.06226 147.64765,35.121983 147.51628,35.121983 L 138.09213,35.121983 z "
     id="text11228" />
  <path
     transform="matrix(0.979821,0.199878,-0.199878,0.979821,0,0)"
     style="font-size:36.69333267px;font-style:normal;font-weight:normal;fill:black;fill-opacity:1;stroke:none;stroke-width:1px;stroke-linecap:butt;stroke-linejoin:miter;stroke-opacity:1;font-family:Sylfaen"
     d="M 170.10368,-16.838089 C 170.22311,-16.838064 170.28283,-16.778342 170.28285,-16.658922 L 170.28285,-10.907672 C 170.28283,-10.776265 170.22311,-10.71057 170.10368,-10.710589 L 168.74202,-10.710589 C 168.62255,-10.71057 168.56283,-10.758348 168.56285,-10.853922 L 167.82827,-15.010589 C 167.82825,-15.106121 167.76853,-15.153899 167.6491,-15.153922 L 161.70077,-15.153922 C 161.6052,-15.153899 161.55742,-15.094177 161.55743,-14.974755 L 161.55743,6.0594109 C 161.55742,6.1669126 161.61714,6.2266348 161.7366,6.2385776 L 165.21243,6.5252442 C 165.34381,6.53719 165.4095,6.6028844 165.40952,6.7223276 L 165.40952,7.6719109 C 165.4095,7.7913554 165.34381,7.8510776 165.21243,7.8510776 L 154.69535,7.8510776 C 154.56396,7.8510776 154.49826,7.7913554 154.49827,7.6719109 L 154.49827,6.7223276 C 154.49826,6.6028844 154.56396,6.53719 154.69535,6.5252442 L 158.17118,6.2385776 C 158.29062,6.2266348 158.35034,6.1669126 158.35035,6.0594109 L 158.35035,-14.974755 C 158.35034,-15.094177 158.30256,-15.153899 158.20702,-15.153922 L 152.25868,-15.153922 C 152.13924,-15.153899 152.07951,-15.106121 152.07952,-15.010589 L 151.34493,-10.853922 C 151.34493,-10.758348 151.28521,-10.71057 151.16577,-10.710589 L 149.8041,-10.710589 C 149.68466,-10.71057 149.62493,-10.776265 149.62493,-10.907672 L 149.62493,-16.658922 C 149.62493,-16.778342 149.68466,-16.838064 149.8041,-16.838089 L 170.10368,-16.838089 z "
     id="text11232" />
  <path
     transform="matrix(0.931498,0.363745,-0.363745,0.931498,0,0)"
     style="font-size:36.69328308px;font-style:normal;font-weight:normal;fill:black;fill-opacity:1;stroke:none;stroke-width:1px;stroke-linecap:butt;stroke-linejoin:miter;stroke-opacity:1;font-family:Sylfaen"
     d="M 179.79788,-45.726353 C 179.91731,-45.726328 179.97704,-45.666606 179.97705,-45.547186 L 179.97705,-44.597604 C 179.97704,-44.478137 179.91731,-44.418415 179.79788,-44.418438 L 176.68038,-44.113855 C 176.56093,-44.113832 176.50121,-44.05411 176.50122,-43.934689 L 176.50122,-22.828884 C 176.50121,-22.709438 176.56093,-22.649716 176.68038,-22.649718 L 179.79788,-22.363052 C 179.91731,-22.36305 179.97704,-22.297356 179.97705,-22.165968 L 179.97705,-21.216386 C 179.97704,-21.096942 179.91731,-21.03722 179.79788,-21.03722 L 169.92581,-21.03722 C 169.80636,-21.03722 169.74664,-21.096942 169.74664,-21.216386 L 169.74664,-22.165968 C 169.74664,-22.297356 169.80636,-22.36305 169.92581,-22.363052 L 173.04331,-22.649718 C 173.16275,-22.649716 173.22247,-22.709438 173.22247,-22.828884 L 173.22247,-43.934689 C 173.22247,-44.05411 173.16275,-44.113832 173.04331,-44.113855 L 169.92581,-44.418438 C 169.80636,-44.418415 169.74664,-44.478137 169.74664,-44.597604 L 169.74664,-45.547186 C 169.74664,-45.666606 169.80636,-45.726328 169.92581,-45.726353 L 179.79788,-45.726353 z "
     id="text11236" />
  <path
     transform="matrix(0.890216,0.455539,-0.455539,0.890216,0,0)"
     style="font-size:35.85897827px;font-style:normal;font-weight:normal;fill:black;fill-opacity:1;stroke:none;stroke-width:1px;stroke-linecap:butt;stroke-linejoin:miter;stroke-opacity:1;font-family:Sylfaen"
     d="M 190.72176,-64.630777 C 194.34032,-64.630752 197.26437,-63.440124 199.4939,-61.058887 C 201.6767,-58.735972 202.76811,-55.753563 202.76813,-52.111651 C 202.76811,-48.493061 201.67086,-45.49898 199.47639,-43.129398 C 197.22351,-40.6781 194.3053,-39.452452 190.72176,-39.452452 C 187.12651,-39.452452 184.17328,-40.637245 181.86207,-43.006833 C 179.55084,-45.376415 178.39523,-48.36466 178.39523,-51.971577 C 178.39523,-55.613489 179.53333,-58.62508 181.80954,-61.006359 C 184.13243,-63.422614 187.10317,-64.630752 190.72176,-64.630777 L 190.72176,-64.630777 z M 190.30153,-63.019925 C 187.61677,-63.019902 185.49815,-61.96351 183.94567,-59.850747 C 182.5566,-57.948056 181.86206,-55.607653 181.86207,-52.829531 C 181.86206,-50.833464 182.20058,-48.98332 182.87761,-47.279094 C 183.63633,-45.388088 184.74525,-43.879374 186.20437,-42.752948 C 187.66346,-41.626517 189.32684,-41.063303 191.19451,-41.063304 C 193.89092,-41.063303 195.96868,-42.148876 197.42781,-44.320028 C 198.67678,-46.199349 199.30128,-48.557262 199.3013,-51.393772 C 199.30128,-54.568771 198.51336,-57.259359 196.93755,-59.465543 C 195.24497,-61.835109 193.03296,-63.019902 190.30153,-63.019925 L 190.30153,-63.019925 z "
     id="text11240" />
  <path
     transform="matrix(0.760116,0.649788,-0.649788,0.760116,0,0)"
     style="font-size:35.85900116px;font-style:normal;font-weight:normal;fill:black;fill-opacity:1;stroke:none;stroke-width:1px;stroke-linecap:butt;stroke-linejoin:miter;stroke-opacity:1;font-family:Sylfaen"
     d="M 188.82829,-108.41702 C 188.82829,-108.53373 188.88666,-108.59209 189.00339,-108.59212 L 195.32424,-108.59212 C 195.38259,-108.58042 195.42928,-108.55707 195.46431,-108.52208 L 208.77136,-90.925256 L 208.77136,-106.70112 C 208.77134,-106.81782 208.71881,-106.87619 208.61378,-106.87621 L 205.96988,-107.15636 C 205.85313,-107.15633 205.79477,-107.22053 205.79478,-107.34896 L 205.79478,-108.41702 C 205.79477,-108.53373 205.85313,-108.59209 205.96988,-108.59212 L 213.42883,-108.59212 C 213.54553,-108.59209 213.6039,-108.53373 213.60392,-108.41702 L 213.60392,-107.34896 C 213.6039,-107.22053 213.54553,-107.15633 213.42883,-107.15636 L 210.7324,-106.87621 C 210.61565,-106.87619 210.55728,-106.81782 210.55731,-106.70112 L 210.55731,-84.359277 C 210.55728,-84.242549 210.48725,-84.184184 210.3472,-84.184184 L 209.66433,-84.184184 C 209.60595,-84.195857 209.54758,-84.230876 209.48924,-84.28924 L 194.02855,-104.75759 L 194.02855,-86.372844 C 194.02854,-86.244441 194.07523,-86.18024 194.16862,-86.180242 L 196.79501,-85.900093 C 196.91173,-85.900092 196.9701,-85.841728 196.97011,-85.725001 L 196.97011,-84.639425 C 196.9701,-84.522697 196.91173,-84.464333 196.79501,-84.464333 L 189.33606,-84.464333 C 189.20766,-84.464333 189.14346,-84.522697 189.14346,-84.639425 L 189.14346,-85.725001 C 189.14346,-85.841728 189.20766,-85.900092 189.33606,-85.900093 L 192.05,-86.180242 C 192.1784,-86.18024 192.2426,-86.244441 192.2426,-86.372844 L 192.2426,-106.70112 C 192.2426,-106.81782 192.1784,-106.87619 192.05,-106.87621 L 189.00339,-107.15636 C 188.88666,-107.15633 188.82829,-107.22053 188.82829,-107.34896 L 188.82829,-108.41702 z "
     id="text11244" />
  <path
     transform="matrix(0.490852,0.871243,-0.871243,0.490852,0,0)"
     style="font-size:35.85897446px;font-style:normal;font-weight:normal;fill:black;fill-opacity:1;stroke:none;stroke-width:1px;stroke-linecap:butt;stroke-linejoin:miter;stroke-opacity:1;font-family:Sylfaen"
     d="M 175.61094,-175.04 C 175.61094,-175.15671 175.55257,-175.21507 175.43585,-175.2151 L 172.42425,-175.51275 C 172.30753,-175.51273 172.24916,-175.57109 172.24916,-175.68785 L 172.24916,-176.61584 C 172.24916,-176.73254 172.30753,-176.79091 172.42425,-176.79093 L 182.1419,-176.79093 C 182.25861,-176.79091 182.31698,-176.73254 182.31699,-176.61584 L 182.31699,-175.68785 C 182.31698,-175.57109 182.25861,-175.51273 182.1419,-175.51275 L 178.92019,-175.2151 C 178.79178,-175.21507 178.72758,-175.15671 178.72759,-175.04 L 178.72759,-162.10066 C 178.72758,-160.3147 178.8268,-158.93731 179.02525,-157.96847 C 179.17699,-157.2214 179.48632,-156.5794 179.95324,-156.04245 C 181.20222,-154.60669 183.00568,-153.88881 185.3636,-153.88881 C 187.89659,-153.88881 189.78759,-154.89267 191.0366,-156.9004 C 191.43346,-157.53073 191.6961,-158.51709 191.82452,-159.85947 C 191.89454,-160.58318 191.92956,-161.45864 191.92958,-162.48586 L 191.92958,-175.04 C 191.92956,-175.15671 191.87119,-175.21507 191.75448,-175.2151 L 188.70787,-175.51275 C 188.59113,-175.51273 188.53276,-175.57109 188.53278,-175.68785 L 188.53278,-176.61584 C 188.53276,-176.73254 188.59113,-176.79091 188.70787,-176.79093 L 197.02477,-176.79093 C 197.14148,-176.79091 197.19984,-176.73254 197.19986,-176.61584 L 197.19986,-175.68785 C 197.19984,-175.57109 197.14148,-175.51273 197.02477,-175.51275 L 194.08322,-175.2151 C 193.96646,-175.21507 193.9081,-175.15671 193.90812,-175.04 L 193.90812,-162.62593 C 193.9081,-158.70385 193.10268,-155.96657 191.49184,-154.41409 C 189.92767,-152.90829 187.7215,-152.15539 184.87334,-152.15539 C 181.6633,-152.15539 179.24702,-152.96082 177.62451,-154.57167 C 176.91246,-155.28371 176.4222,-156.02494 176.15373,-156.79535 C 175.79187,-157.83423 175.61094,-159.17077 175.61094,-160.80497 L 175.61094,-175.04 z "
     id="text11248" />
  <path
     transform="matrix(0.19334,0.981132,-0.981132,0.19334,0,0)"
     style="font-size:35.85897446px;font-style:normal;font-weight:normal;fill:black;fill-opacity:1;stroke:none;stroke-width:1px;stroke-linecap:butt;stroke-linejoin:miter;stroke-opacity:1;font-family:Sylfaen"
     d="M 146.79378,-230.76694 C 146.85214,-230.75525 146.89883,-230.72023 146.93386,-230.66189 L 154.58541,-211.80441 L 162.25446,-230.66189 C 162.27779,-230.7319 162.32448,-230.76692 162.39454,-230.76694 L 169.53832,-230.76694 C 169.65501,-230.76692 169.71338,-230.70855 169.71341,-230.59185 L 169.71341,-229.66386 C 169.71338,-229.54711 169.65501,-229.48874 169.53832,-229.48877 L 166.49171,-229.19111 C 166.36328,-229.19109 166.29908,-229.13272 166.2991,-229.01602 L 166.2991,-208.3901 C 166.29908,-208.28504 166.36328,-208.22668 166.49171,-208.21501 L 169.71341,-207.93486 C 169.83011,-207.92319 169.88847,-207.85899 169.8885,-207.74226 L 169.8885,-206.81427 C 169.88847,-206.69754 169.83011,-206.63918 169.71341,-206.63918 L 159.62807,-206.63918 C 159.51132,-206.63918 159.45296,-206.69754 159.45298,-206.81427 L 159.45298,-207.74226 C 159.45296,-207.85899 159.51132,-207.92319 159.62807,-207.93486 L 163.00736,-208.21501 C 163.12407,-208.22668 163.18243,-208.28504 163.18245,-208.3901 L 163.18245,-228.29814 L 163.04238,-228.29814 L 154.18269,-206.39405 C 154.15933,-206.34735 154.10097,-206.32401 154.0076,-206.32401 L 153.63991,-206.32401 C 153.54651,-206.32401 153.48814,-206.34735 153.46481,-206.39405 L 144.60512,-228.05301 L 144.46505,-228.05301 L 144.46505,-208.3901 C 144.46504,-208.27337 144.52341,-208.21501 144.64014,-208.21501 L 147.61672,-207.93486 C 147.74511,-207.93486 147.80931,-207.87066 147.80932,-207.74226 L 147.80932,-206.81427 C 147.80931,-206.69754 147.74511,-206.63918 147.61672,-206.63918 L 139.40487,-206.63918 C 139.28814,-206.63918 139.22978,-206.69754 139.22978,-206.81427 L 139.22978,-207.74226 C 139.22978,-207.85899 139.28814,-207.92319 139.40487,-207.93486 L 142.60907,-208.21501 C 142.72579,-208.22668 142.78416,-208.28504 142.78416,-208.3901 L 142.78416,-229.01602 C 142.78416,-229.13272 142.72579,-229.19109 142.60907,-229.19111 L 139.56246,-229.48877 C 139.43405,-229.48874 139.36985,-229.54711 139.36985,-229.66386 L 139.36985,-230.59185 C 139.36985,-230.70855 139.43405,-230.76692 139.56246,-230.76694 L 146.79378,-230.76694 z "
     id="text11252" />
</svg>
