<?xml version="1.0" encoding="UTF-8" standalone="no"?>
<!-- Created with Inkscape (http://www.inkscape.org/) -->

<svg
   xmlns:dc="http://purl.org/dc/elements/1.1/"
   xmlns:cc="http://creativecommons.org/ns#"
   xmlns:rdf="http://www.w3.org/1999/02/22-rdf-syntax-ns#"
   xmlns:svg="http://www.w3.org/2000/svg"
   xmlns="http://www.w3.org/2000/svg"
   xmlns:sodipodi="http://sodipodi.sourceforge.net/DTD/sodipodi-0.dtd"
   xmlns:inkscape="http://www.inkscape.org/namespaces/inkscape"
   id="svg2985"
   version="1.1"
   inkscape:version="0.48.2 r9819"
   width="374.33334"
   height="219.88919"
   xml:space="preserve"
   sodipodi:docname="Logo.pdf"><metadata
     id="metadata2991"><rdf:RDF><cc:Work
         rdf:about=""><dc:format>image/svg+xml</dc:format><dc:type
           rdf:resource="http://purl.org/dc/dcmitype/StillImage" /><dc:title></dc:title></cc:Work></rdf:RDF></metadata><defs
     id="defs2989" /><sodipodi:namedview
     pagecolor="#ffffff"
     bordercolor="#666666"
     borderopacity="1"
     objecttolerance="10"
     gridtolerance="10"
     guidetolerance="10"
     inkscape:pageopacity="0"
     inkscape:pageshadow="2"
     inkscape:window-width="1920"
     inkscape:window-height="1138"
     id="namedview2987"
     showgrid="false"
     fit-margin-bottom="4"
     fit-margin-top="4"
     fit-margin-left="4"
     fit-margin-right="4"
     inkscape:zoom="2.1649824"
     inkscape:cx="106.81734"
     inkscape:cy="88.923486"
     inkscape:window-x="-8"
     inkscape:window-y="-8"
     inkscape:window-maximized="1"
     inkscape:current-layer="g2993" /><g
     id="g2993"
     inkscape:groupmode="layer"
     inkscape:label="Logo"
     transform="matrix(1.25,0,0,-1.25,-419.36394,503.01322)"><g
       id="g3790"
       transform="translate(130.07034,43.972767)"><g
         transform="translate(0,-43.972644)"
         id="g3700"><g
           transform="translate(382.659,245.6453)"
           id="g3702"><path
             inkscape:connector-curvature="0"
             id="path3704"
             style="fill:#7a868e;fill-opacity:1;fill-rule:nonzero;stroke:none"
             d="m 0,0 -5.114,0 0,-6.842 5.817,0 0,-2.972 -9.235,0 0,21.541 8.853,0 0,-2.969 -5.435,0 0,-5.916 L 0,2.842 0,0 z" /></g><g
           transform="translate(397.2255,240.3711)"
           id="g3706"><path
             inkscape:connector-curvature="0"
             id="path3708"
             style="fill:#7a868e;fill-opacity:1;fill-rule:nonzero;stroke:none"
             d="m 0,0 c 0,-1.69 0.065,-3.226 0.127,-4.539 l -2.972,0 -0.191,1.631 -0.064,0 c -0.606,-0.925 -1.855,-1.885 -3.485,-1.885 -2.842,0 -3.992,2.14 -3.992,6.199 l 0,9.621 3.417,0 0,-9.206 c 0,-2.236 0.384,-3.769 1.792,-3.769 1.055,0 1.596,0.895 1.755,1.533 0.129,0.351 0.194,0.828 0.194,1.34 l 0,10.102 3.419,0 L 0,0 z" /></g><g
           transform="translate(401.6544,247.0162)"
           id="g3710"><path
             inkscape:connector-curvature="0"
             id="path3712"
             style="fill:#7a868e;fill-opacity:1;fill-rule:nonzero;stroke:none"
             d="m 0,0 c 0,1.438 -0.064,3.068 -0.127,4.383 l 2.969,0 0.191,-2.337 0.098,0 c 0.605,1.563 1.886,2.589 3.166,2.589 0.319,0 0.508,-0.029 0.733,-0.061 l 0,-3.393 C 6.805,1.214 6.584,1.214 6.297,1.214 5.114,1.214 3.93,0.226 3.545,-1.467 3.482,-1.821 3.417,-2.363 3.417,-2.939 l 0,-8.245 -3.417,0 L 0,0 z" /></g><g
           transform="translate(416.8336,238.1996)"
           id="g3714"><path
             inkscape:connector-curvature="0"
             id="path3716"
             style="fill:#7a868e;fill-opacity:1;fill-rule:nonzero;stroke:none"
             d="m 0,0 c 1.694,0 2.078,3.067 2.078,5.432 0,2.266 -0.384,5.4 -2.141,5.4 -1.852,0 -2.205,-3.134 -2.205,-5.4 C -2.268,2.81 -1.821,0 -0.029,0 L 0,0 z m -0.126,-2.622 c -3.293,0 -5.561,2.749 -5.561,7.988 0,5.658 2.78,8.086 5.687,8.086 3.26,0 5.497,-2.844 5.497,-7.987 0,-6.295 -3.259,-8.087 -5.592,-8.087 l -0.031,0 z" /></g><g
           transform="translate(429.12078,241.5211)"
           id="g3718"><path
             inkscape:connector-curvature="0"
             id="path3720"
             style="fill:#7a868e;fill-opacity:1;fill-rule:nonzero;stroke:none"
             d="m 0,0 c 0,-0.478 0.064,-0.958 0.16,-1.309 0.416,-1.501 1.215,-1.822 1.791,-1.822 1.723,0 2.299,2.461 2.299,5.209 0,3.097 -0.734,5.175 -2.299,5.175 C 1.086,7.253 0.321,6.292 0.127,5.238 0.031,4.892 0,4.507 0,4.092 L 0,0 z m -3.387,4.986 c 0,2.111 -0.063,3.578 -0.129,4.891 l 2.972,0 0.191,-1.889 0.064,0 c 0.738,1.474 1.918,2.142 3.262,2.142 3.098,0 4.696,-3.323 4.696,-7.985 0,-5.691 -2.427,-8.089 -4.952,-8.089 -1.376,0 -2.205,0.828 -2.653,1.629 l -0.064,0 0,-7.507 -3.387,0 0,16.808 z" /></g><g
           transform="translate(461.38788,245.1341)"
           id="g3722"><path
             inkscape:connector-curvature="0"
             id="path3724"
             style="fill:#7a868e;fill-opacity:1;fill-rule:nonzero;stroke:none"
             d="M 0,0 C 0.031,2.489 -0.799,3.962 -2.014,3.962 -3.482,3.962 -4.153,1.817 -4.219,0 L 0,0 z m -4.219,-2.432 c 0.032,-3.482 1.632,-4.438 3.453,-4.438 1.148,0 2.109,0.253 2.78,0.539 L 2.527,-8.759 C 1.535,-9.206 0.031,-9.49 -1.375,-9.49 c -4.026,0 -6.167,2.906 -6.167,7.73 0,5.145 2.46,8.277 5.785,8.277 3.259,0 4.921,-2.974 4.921,-7.122 0,-0.897 -0.033,-1.412 -0.097,-1.827 l -7.286,0 z" /></g><g
           transform="translate(212.00781,247.0495)"
           id="g3734"><path
             inkscape:connector-curvature="0"
             id="path3736"
             style="fill:#7a868e;fill-opacity:1;fill-rule:nonzero;stroke:none"
             d="m 0,0 c 0.256,-0.067 0.478,-0.067 0.83,-0.067 2.242,0 3.486,1.536 3.486,4.001 0,2.007 -0.831,3.705 -3.137,3.705 C 0.703,7.639 0.286,7.578 0,7.479 L 0,0 z m -3.387,10.003 c 1.087,0.254 2.492,0.416 3.993,0.416 2.272,0 4.128,-0.416 5.403,-1.632 1.148,-1.086 1.726,-2.749 1.726,-4.601 0,-2.172 -0.605,-3.645 -1.6,-4.791 -1.279,-1.502 -3.354,-2.24 -5.177,-2.24 -0.352,0 -0.642,0 -0.958,0.035 l 0,-8.408 -3.387,0 0,21.221 z" /></g><g
           transform="translate(229.18311,243.6322)"
           id="g3738"><path
             inkscape:connector-curvature="0"
             id="path3740"
             style="fill:#7a868e;fill-opacity:1;fill-rule:nonzero;stroke:none"
             d="m 0,0 c -1.347,-0.033 -3.743,-0.388 -3.743,-3.102 0,-1.758 0.929,-2.397 1.695,-2.397 0.862,0 1.664,0.577 1.95,1.79 C -0.033,-3.484 0,-3.194 0,-2.912 L 0,0 z m 3.353,-4.252 c 0,-1.213 0.03,-2.526 0.192,-3.548 l -3.067,0 -0.188,1.57 -0.067,0 c -0.796,-1.188 -1.951,-1.825 -3.294,-1.825 -2.238,0 -3.928,1.855 -3.928,4.603 0,3.993 3.39,5.687 6.901,5.718 l 0,0.414 c 0,1.632 -0.639,2.751 -2.334,2.751 -1.117,0 -2.04,-0.321 -2.905,-0.866 l -0.64,2.337 c 0.766,0.478 2.396,1.117 4.281,1.117 4.027,0 5.049,-2.75 5.049,-6.068 l 0,-6.203 z" /></g><g
           transform="translate(236.89461,247.0162)"
           id="g3742"><path
             inkscape:connector-curvature="0"
             id="path3744"
             style="fill:#7a868e;fill-opacity:1;fill-rule:nonzero;stroke:none"
             d="m 0,0 c 0,1.438 -0.067,3.068 -0.131,4.383 l 2.975,0 0.192,-2.337 0.093,0 c 0.607,1.563 1.887,2.589 3.172,2.589 0.313,0 0.506,-0.029 0.728,-0.061 l 0,-3.393 C 6.807,1.214 6.587,1.214 6.301,1.214 5.11,1.214 3.93,0.226 3.545,-1.467 3.482,-1.821 3.415,-2.363 3.415,-2.939 l 0,-8.245 -3.415,0 L 0,0 z" /></g><path
           inkscape:connector-curvature="0"
           id="path3746"
           style="fill:#7a868e;fill-opacity:1;fill-rule:nonzero;stroke:none"
           d="m 246.98011,257.944 3.421,0 0,-22.111 -3.421,0 0,22.111 z" /><g
           transform="translate(260.71251,243.6322)"
           id="g3750"><path
             inkscape:connector-curvature="0"
             id="path3752"
             style="fill:#7a868e;fill-opacity:1;fill-rule:nonzero;stroke:none"
             d="m 0,0 c -1.339,-0.033 -3.736,-0.388 -3.736,-3.102 0,-1.758 0.926,-2.397 1.691,-2.397 0.863,0 1.661,0.577 1.949,1.79 C -0.029,-3.484 0,-3.194 0,-2.912 L 0,0 z m 3.358,-4.252 c 0,-1.213 0.033,-2.526 0.192,-3.548 l -3.072,0 -0.192,1.57 -0.06,0 c -0.802,-1.188 -1.95,-1.825 -3.291,-1.825 -2.238,0 -3.934,1.855 -3.934,4.603 0,3.993 3.387,5.687 6.903,5.718 l 0,0.414 c 0,1.632 -0.639,2.751 -2.331,2.751 -1.118,0 -2.046,-0.321 -2.91,-0.866 l -0.638,2.337 c 0.769,0.478 2.398,1.117 4.279,1.117 4.032,0 5.054,-2.75 5.054,-6.068 l 0,-6.203 z" /></g><g
           transform="translate(268.41861,247.0162)"
           id="g3754"><path
             inkscape:connector-curvature="0"
             id="path3756"
             style="fill:#7a868e;fill-opacity:1;fill-rule:nonzero;stroke:none"
             d="m 0,0 c 0,1.759 -0.067,3.002 -0.126,4.383 l 2.969,0 0.159,-1.859 0.066,0 c 0.73,1.183 2.01,2.111 3.643,2.111 1.596,0 2.75,-0.768 3.321,-2.237 l 0.065,0 c 0.383,0.67 0.958,1.276 1.534,1.662 0.64,0.383 1.375,0.575 2.174,0.575 2.491,0 3.898,-1.919 3.898,-5.754 l 0,-10.065 -3.389,0 0,9.427 c 0,1.888 -0.254,3.549 -1.756,3.549 -0.894,0 -1.597,-0.672 -1.884,-1.825 -0.097,-0.314 -0.131,-0.762 -0.131,-1.245 l 0,-9.906 -3.383,0 0,9.973 c 0,1.37 -0.194,3.003 -1.726,3.003 -0.836,0 -1.636,-0.639 -1.917,-1.887 -0.067,-0.351 -0.132,-0.8 -0.132,-1.247 l 0,-9.842 -3.385,0 L 0,0 z" /></g><g
           transform="translate(297.44631,245.1341)"
           id="g3758"><path
             inkscape:connector-curvature="0"
             id="path3760"
             style="fill:#7a868e;fill-opacity:1;fill-rule:nonzero;stroke:none"
             d="M 0,0 C 0.033,2.489 -0.798,3.962 -2.011,3.962 -3.484,3.962 -4.152,1.817 -4.215,0 L 0,0 z m -4.215,-2.432 c 0.03,-3.482 1.628,-4.438 3.451,-4.438 1.146,0 2.107,0.253 2.779,0.539 L 2.524,-8.759 C 1.531,-9.206 0.033,-9.49 -1.372,-9.49 c -4.031,0 -6.171,2.906 -6.171,7.73 0,5.145 2.463,8.277 5.784,8.277 3.258,0 4.922,-2.974 4.922,-7.122 0,-0.897 -0.034,-1.412 -0.096,-1.827 l -7.282,0 z" /></g><g
           transform="translate(304.30111,247.0162)"
           id="g3762"><path
             inkscape:connector-curvature="0"
             id="path3764"
             style="fill:#7a868e;fill-opacity:1;fill-rule:nonzero;stroke:none"
             d="m 0,0 c 0,1.759 -0.067,3.002 -0.127,4.383 l 2.975,0 0.156,-1.827 0.067,0 c 0.731,1.25 2.041,2.079 3.674,2.079 2.618,0 3.991,-2.013 3.991,-5.623 l 0,-10.196 -3.417,0 0,9.873 C 7.319,0.258 7,1.759 5.497,1.759 4.664,1.759 3.901,1.12 3.578,-0.158 3.486,-0.48 3.421,-0.988 3.421,-1.565 l 0,-9.619 -3.421,0 L 0,0 z" /></g><g
           transform="translate(323.37781,255.2642)"
           id="g3766"><path
             inkscape:connector-curvature="0"
             id="path3768"
             style="fill:#7a868e;fill-opacity:1;fill-rule:nonzero;stroke:none"
             d="m 0,0 0,-3.866 3.002,0 0,-2.465 -3.002,0 0,-8.082 c 0,-1.917 0.738,-2.396 1.6,-2.396 0.382,0 0.701,0.033 1.054,0.095 l 0.063,-2.652 c -0.511,-0.161 -1.278,-0.254 -2.236,-0.254 -1.085,0 -2.074,0.283 -2.749,0.955 -0.769,0.77 -1.151,1.889 -1.151,4.219 l 0,8.115 -1.853,0 0,2.465 1.853,0 0,2.681 L 0,0 z" /></g><g
           id="g3770"
           transform="translate(341.16948,240.3711)"><path
             d="m 0,0 c 0,-1.69 0.065,-3.226 0.127,-4.539 l -2.972,0 -0.191,1.631 -0.064,0 c -0.606,-0.925 -1.855,-1.885 -3.485,-1.885 -2.842,0 -3.992,2.14 -3.992,6.199 l 0,9.621 3.417,0 0,-9.206 c 0,-2.236 0.384,-3.769 1.792,-3.769 1.055,0 1.596,0.895 1.755,1.533 0.129,0.351 0.194,0.828 0.194,1.34 l 0,10.102 3.419,0 L 0,0 z"
             style="fill:#7a868e;fill-opacity:1;fill-rule:nonzero;stroke:none"
             id="path3772"
             inkscape:connector-curvature="0" /></g><g
           id="g3774"
           transform="translate(346.01739,247.0162)"><path
             d="m 0,0 c 0,1.759 -0.067,3.002 -0.126,4.383 l 2.969,0 0.159,-1.859 0.066,0 c 0.73,1.183 2.01,2.111 3.643,2.111 1.596,0 2.75,-0.768 3.321,-2.237 l 0.065,0 c 0.383,0.67 0.958,1.276 1.534,1.662 0.64,0.383 1.375,0.575 2.174,0.575 2.491,0 3.898,-1.919 3.898,-5.754 l 0,-10.065 -3.389,0 0,9.427 c 0,1.888 -0.254,3.549 -1.756,3.549 -0.894,0 -1.597,-0.672 -1.884,-1.825 -0.097,-0.314 -0.131,-0.762 -0.131,-1.245 l 0,-9.906 -3.383,0 0,9.973 c 0,1.37 -0.194,3.003 -1.726,3.003 -0.836,0 -1.636,-0.639 -1.917,-1.887 -0.067,-0.351 -0.132,-0.8 -0.132,-1.247 l 0,-9.842 -3.385,0 L 0,0 z"
             style="fill:#7a868e;fill-opacity:1;fill-rule:nonzero;stroke:none"
             id="path3776"
             inkscape:connector-curvature="0" /></g><g
           id="g3778"
           transform="translate(446.59501,243.6322)"><path
             d="m 0,0 c -1.339,-0.033 -3.736,-0.388 -3.736,-3.102 0,-1.758 0.926,-2.397 1.691,-2.397 0.863,0 1.661,0.577 1.949,1.79 C -0.029,-3.484 0,-3.194 0,-2.912 L 0,0 z m 3.358,-4.252 c 0,-1.213 0.033,-2.526 0.192,-3.548 l -3.072,0 -0.192,1.57 -0.06,0 c -0.802,-1.188 -1.95,-1.825 -3.291,-1.825 -2.238,0 -3.934,1.855 -3.934,4.603 0,3.993 3.387,5.687 6.903,5.718 l 0,0.414 c 0,1.632 -0.639,2.751 -2.331,2.751 -1.118,0 -2.046,-0.321 -2.91,-0.866 l -0.638,2.337 c 0.769,0.478 2.398,1.117 4.279,1.117 4.032,0 5.054,-2.75 5.054,-6.068 l 0,-6.203 z"
             style="fill:#7a868e;fill-opacity:1;fill-rule:nonzero;stroke:none"
             id="path3780"
             inkscape:connector-curvature="0" /></g><g
           transform="translate(479.13657,240.3711)"
           id="g3782"><path
             inkscape:connector-curvature="0"
             id="path3784"
             style="fill:#7a868e;fill-opacity:1;fill-rule:nonzero;stroke:none"
             d="m 0,0 c 0,-1.69 0.065,-3.226 0.127,-4.539 l -2.972,0 -0.191,1.631 -0.064,0 c -0.606,-0.925 -1.855,-1.885 -3.485,-1.885 -2.842,0 -3.992,2.14 -3.992,6.199 l 0,9.621 3.417,0 0,-9.206 c 0,-2.236 0.384,-3.769 1.792,-3.769 1.055,0 1.596,0.895 1.755,1.533 0.129,0.351 0.194,0.828 0.194,1.34 l 0,10.102 3.419,0 L 0,0 z" /></g><g
           transform="translate(483.98448,247.0162)"
           id="g3786"><path
             inkscape:connector-curvature="0"
             id="path3788"
             style="fill:#7a868e;fill-opacity:1;fill-rule:nonzero;stroke:none"
             d="m 0,0 c 0,1.759 -0.067,3.002 -0.126,4.383 l 2.969,0 0.159,-1.859 0.066,0 c 0.73,1.183 2.01,2.111 3.643,2.111 1.596,0 2.75,-0.768 3.321,-2.237 l 0.065,0 c 0.383,0.67 0.958,1.276 1.534,1.662 0.64,0.383 1.375,0.575 2.174,0.575 2.491,0 3.898,-1.919 3.898,-5.754 l 0,-10.065 -3.389,0 0,9.427 c 0,1.888 -0.254,3.549 -1.756,3.549 -0.894,0 -1.597,-0.672 -1.884,-1.825 -0.097,-0.314 -0.131,-0.762 -0.131,-1.245 l 0,-9.906 -3.383,0 0,9.973 c 0,1.37 -0.194,3.003 -1.726,3.003 -0.836,0 -1.636,-0.639 -1.917,-1.887 -0.067,-0.351 -0.132,-0.8 -0.132,-1.247 l 0,-9.842 -3.385,0 L 0,0 z" /></g></g></g><g
       id="g3567"><path
         inkscape:connector-curvature="0"
         id="path3123"
         style="fill:#034ea2;fill-opacity:1;fill-rule:nonzero;stroke:none"
         d="m 631.591,342.879 -107.13,0 0,-71.473 107.13,0 0,71.473 z" /><g
         transform="translate(577.9709,335.1126)"
         id="g3125"><path
           inkscape:connector-curvature="0"
           id="path3127"
           style="fill:#fff200;fill-opacity:1;fill-rule:nonzero;stroke:none"
           d="M 0,0 1.021,-3.172 4.347,-3.155 1.644,-5.102 2.689,-8.266 0,-6.296 l -2.679,-1.97 1.042,3.164 -2.704,1.947 3.324,-0.017 L 0,0 z" /></g><g
         transform="translate(577.9709,287.4329)"
         id="g3129"><path
           inkscape:connector-curvature="0"
           id="path3131"
           style="fill:#fff200;fill-opacity:1;fill-rule:nonzero;stroke:none"
           d="M 0,0 1.021,-3.16 4.347,-3.147 1.644,-5.098 2.689,-8.264 0,-6.297 -2.679,-8.264 -1.637,-5.098 -4.341,-3.147 -1.017,-3.16 0,0 z" /></g><g
         transform="translate(566.1135,331.9409)"
         id="g3133"><path
           inkscape:connector-curvature="0"
           id="path3135"
           style="fill:#fff200;fill-opacity:1;fill-rule:nonzero;stroke:none"
           d="M 0,0 1.017,-3.168 4.344,-3.159 1.649,-5.098 2.69,-8.26 0,-6.293 -2.679,-8.26 -1.641,-5.098 -4.332,-3.159 -1.008,-3.168 0,0 z" /></g><g
         transform="translate(557.3887,323.1889)"
         id="g3137"><path
           inkscape:connector-curvature="0"
           id="path3139"
           style="fill:#fff200;fill-opacity:1;fill-rule:nonzero;stroke:none"
           d="M 0,0 1.013,-3.169 4.342,-3.147 1.637,-5.097 2.676,-8.256 0,-6.287 l -2.683,-1.969 1.042,3.159 -2.711,1.95 3.338,-0.022 L 0,0 z" /></g><g
         transform="translate(554.1689,311.296)"
         id="g3141"><path
           inkscape:connector-curvature="0"
           id="path3143"
           style="fill:#fff200;fill-opacity:1;fill-rule:nonzero;stroke:none"
           d="M 0,0 1.008,-3.16 4.342,-3.144 1.641,-5.096 2.67,-8.253 0,-6.283 -2.684,-8.253 -1.638,-5.096 -4.347,-3.144 -1.018,-3.16 0,0 z" /></g><g
         transform="translate(557.3505,299.4102)"
         id="g3145"><path
           inkscape:connector-curvature="0"
           id="path3147"
           style="fill:#fff200;fill-opacity:1;fill-rule:nonzero;stroke:none"
           d="M 0,0 1.021,-3.181 4.337,-3.155 1.641,-5.104 2.688,-8.265 0,-6.287 -2.683,-8.265 -1.637,-5.104 -4.344,-3.16 -1.017,-3.181 0,0 z" /></g><g
         transform="translate(566.1135,290.662)"
         id="g3149"><path
           inkscape:connector-curvature="0"
           id="path3151"
           style="fill:#fff200;fill-opacity:1;fill-rule:nonzero;stroke:none"
           d="M 0,0 1.017,-3.168 4.344,-3.153 1.649,-5.096 2.69,-8.259 0,-6.294 -2.679,-8.259 -1.641,-5.096 -4.332,-3.153 -1.008,-3.168 0,0 z" /></g><g
         transform="translate(589.8454,331.9409)"
         id="g3153"><path
           inkscape:connector-curvature="0"
           id="path3155"
           style="fill:#fff200;fill-opacity:1;fill-rule:nonzero;stroke:none"
           d="M 0,0 -1.016,-3.168 -4.35,-3.159 -1.645,-5.098 -2.687,-8.26 0,-6.293 2.679,-8.26 1.642,-5.098 4.339,-3.159 1.023,-3.168 0,0 z" /></g><g
         transform="translate(598.577,323.1889)"
         id="g3157"><path
           inkscape:connector-curvature="0"
           id="path3159"
           style="fill:#fff200;fill-opacity:1;fill-rule:nonzero;stroke:none"
           d="m 0,0 -1.017,-3.169 -3.332,0.022 2.703,-1.95 L -2.69,-8.256 0,-6.287 2.687,-8.256 1.641,-5.097 4.336,-3.147 1.012,-3.169 0,0 z" /></g><g
         transform="translate(601.7969,311.296)"
         id="g3161"><path
           inkscape:connector-curvature="0"
           id="path3163"
           style="fill:#fff200;fill-opacity:1;fill-rule:nonzero;stroke:none"
           d="M 0,0 -1.017,-3.16 -4.351,-3.144 -1.646,-5.096 -2.688,-8.253 0,-6.283 2.683,-8.253 1.644,-5.096 4.336,-3.144 1.012,-3.16 0,0 z" /></g><g
         transform="translate(598.5973,299.4102)"
         id="g3165"><path
           inkscape:connector-curvature="0"
           id="path3167"
           style="fill:#fff200;fill-opacity:1;fill-rule:nonzero;stroke:none"
           d="M 0,0 -1.002,-3.181 -4.334,-3.155 -1.628,-5.104 -2.675,-8.265 0,-6.287 2.698,-8.265 1.654,-5.104 4.357,-3.16 1.026,-3.181 0,0 z" /></g><g
         transform="translate(589.8454,290.662)"
         id="g3169"><path
           inkscape:connector-curvature="0"
           id="path3171"
           style="fill:#fff200;fill-opacity:1;fill-rule:nonzero;stroke:none"
           d="M 0,0 -1.016,-3.168 -4.35,-3.153 -1.645,-5.096 -2.687,-8.259 0,-6.294 2.679,-8.259 1.642,-5.096 4.339,-3.153 1.023,-3.168 0,0 z" /></g><g
         transform="translate(541.5179,357.1241)"
         id="g3173"><path
           inkscape:connector-curvature="0"
           id="path3175"
           style="fill:#7a868e;fill-opacity:1;fill-rule:nonzero;stroke:none"
           d="m 0,0 0,5.909 c -2.152,1.842 -10.743,5.529 -15.98,6.687 l 0,-4.161 C -9.99,6.963 -2.528,2.632 0,0" /></g><g
         transform="translate(545.8729,348.3046)"
         id="g3177"><path
           inkscape:connector-curvature="0"
           id="path3179"
           style="fill:#7a868e;fill-opacity:1;fill-rule:nonzero;stroke:none"
           d="m 0,0 5.09,0 c 0.155,7.456 -5.899,12.073 -6.766,12.741 l 0,-7.104 C 0.27,2.486 0,0 0,0" /></g><g
         transform="translate(558.5387,363.3127)"
         id="g3181"><path
           inkscape:connector-curvature="0"
           id="path3183"
           style="fill:#7a868e;fill-opacity:1;fill-rule:nonzero;stroke:none"
           d="m 0,0 0,-6.414 c 2.558,-2.678 4.093,-4.773 5.31,-8.624 l 5.388,0 C 9.259,-9.151 5.834,-4.337 0,0" /></g><g
         transform="translate(555.258,359.7957)"
         id="g3185"><path
           inkscape:connector-curvature="0"
           id="path3187"
           style="fill:#7a868e;fill-opacity:1;fill-rule:nonzero;stroke:none"
           d="m 0,0 0,5.779 c -4.946,3.198 -14.718,7.58 -24.483,9.616 l 0,-4.145 C -15.101,8.977 -5.13,4.116 0,0" /></g><g
         transform="translate(569.1082,363.3035)"
         id="g3189"><path
           inkscape:connector-curvature="0"
           id="path3191"
           style="fill:#7a868e;fill-opacity:1;fill-rule:nonzero;stroke:none"
           d="m 0,0 0,5.718 c -5.931,3.74 -18.142,8.969 -32.558,12.012 l 0,-4.137 C -18.718,10.249 -8.215,5.479 0,0" /></g><g
         transform="translate(572.9427,366.5887)"
         id="g3193"><path
           inkscape:connector-curvature="0"
           id="path3195"
           style="fill:#7a868e;fill-opacity:1;fill-rule:nonzero;stroke:none"
           d="m 0,0 c -0.008,0.004 -0.015,-6.148 -0.015,-6.148 3.787,-3.004 7.445,-6.96 9.884,-12.167 l 5.72,0 C 13.633,-11.836 6.311,-3.982 0,0" /></g><g
         transform="translate(584.5607,366.863)"
         id="g3197"><path
           inkscape:connector-curvature="0"
           id="path3199"
           style="fill:#7a868e;fill-opacity:1;fill-rule:nonzero;stroke:none"
           d="M 0,0 0,5.721 C -11.345,12.432 -28.352,18.33 -41.854,20.71 l 0,-4.124 C -26.601,13.525 -8.433,5.987 0,0" /></g><g
         transform="translate(602.9062,348.2744)"
         id="g3201"><path
           inkscape:connector-curvature="0"
           id="path3203"
           style="fill:#7a868e;fill-opacity:1;fill-rule:nonzero;stroke:none"
           d="M 0,0 5.993,0 C 1.682,10.318 -9.108,18.588 -14.15,21.737 l 0,-6.069 C -6.517,10.012 -3.695,5.969 0,0" /></g><g
         transform="translate(599.7658,370.4767)"
         id="g3205"><path
           inkscape:connector-curvature="0"
           id="path3207"
           style="fill:#7a868e;fill-opacity:1;fill-rule:nonzero;stroke:none"
           d="m 0,0 0,5.925 c -9.189,5.624 -27.782,14.039 -50.42,18.4 l 0,-4.304 C -33.197,16.442 -11.234,7.896 0,0" /></g><g
         transform="translate(622.3514,348.2744)"
         id="g3209"><path
           inkscape:connector-curvature="0"
           id="path3211"
           style="fill:#7a868e;fill-opacity:1;fill-rule:nonzero;stroke:none"
           d="M 0,0 6.555,0 C -0.712,12.364 -9.028,19.434 -18.01,25.278 l 0,-6.21 C -11.351,14.393 -4.214,7.422 0,0" /></g><g
         transform="translate(521.2458,366.7197)"
         id="g3213"><path
           inkscape:connector-curvature="0"
           id="path3215"
           style="fill:#7a868e;fill-opacity:1;fill-rule:nonzero;stroke:none"
           d="M 0,0 0,3.908 C -5.897,5.015 -16.261,5.723 -20.815,5.13 l 0,-3.062 C -13.976,2.424 -3.905,1.153 0,0" /></g><g
         transform="translate(495.8445,368.5083)"
         id="g3217"><path
           inkscape:connector-curvature="0"
           id="path3219"
           style="fill:#7a868e;fill-opacity:1;fill-rule:nonzero;stroke:none"
           d="M 0,0 0,2.923 C -10.942,1.781 -18.447,-1.98 -22.788,-5.187 l 0,-2.515 C -16.589,-2.698 -8.001,-0.626 0,0" /></g><g
         transform="translate(470.5265,358.183)"
         id="g3221"><path
           inkscape:connector-curvature="0"
           id="path3223"
           style="fill:#7a868e;fill-opacity:1;fill-rule:nonzero;stroke:none"
           d="M 0,0 0.001,2.845 C -10.065,-8.463 2.529,-17.881 3.869,-18.82 l 0,3.867 C -3.171,-9.632 -2.344,-3.148 0,0" /></g><g
         transform="translate(478.206,340.8343)"
         id="g3225"><path
           inkscape:connector-curvature="0"
           id="path3227"
           style="fill:#7a868e;fill-opacity:1;fill-rule:nonzero;stroke:none"
           d="m 0,0 0,-4.147 c 6.835,-3.783 13.714,-6.175 23.499,-7.927 l -0.071,5.62 C 16.779,-6.051 7.639,-4.155 0,0" /></g><g
         transform="translate(504.9706,334.2033)"
         id="g3229"><path
           inkscape:connector-curvature="0"
           id="path3231"
           style="fill:#7a868e;fill-opacity:1;fill-rule:nonzero;stroke:none"
           d="m 0,0 -0.029,-5.846 c 5.723,-0.476 11.123,-0.62 14.072,-0.616 l 0,6.577 C 9.699,-0.178 1.646,-0.233 0,0" /></g><g
         transform="translate(526.4825,372.0543)"
         id="g3233"><path
           inkscape:connector-curvature="0"
           id="path3235"
           style="fill:#7a868e;fill-opacity:1;fill-rule:nonzero;stroke:none"
           d="m 0,0 0,3.986 c -7.042,1.426 -20.7,2.49 -28.79,1.735 l 0,-3.101 C -18.113,3.014 -7.551,1.65 0,0" /></g><g
         transform="translate(498.0141,317.4888)"
         id="g3237"><path
           inkscape:connector-curvature="0"
           id="path3239"
           style="fill:#7a868e;fill-opacity:1;fill-rule:nonzero;stroke:none"
           d="m 0,0 0,6.259 c -10.478,0.926 -26.586,4.583 -36.589,11.927 l 0,-4.173 C -25.62,5.739 -8.27,1.152 0,0" /></g><g
         transform="translate(457.6275,334.6345)"
         id="g3241"><path
           inkscape:connector-curvature="0"
           id="path3243"
           style="fill:#7a868e;fill-opacity:1;fill-rule:nonzero;stroke:none"
           d="m 0,0 0,4.133 c -8.875,8.44 -7.142,17.026 -1.411,22.558 l 0,2.585 C -12.427,19.272 -8.392,7.166 0,0" /></g><g
         transform="translate(501.6935,323.4117)"
         id="g3245"><path
           inkscape:connector-curvature="0"
           id="path3247"
           style="fill:#7a868e;fill-opacity:1;fill-rule:nonzero;stroke:none"
           d="m 0,0 0,-6.481 c 6.377,-0.896 11.906,-1.184 17.319,-1.184 l 0,7.152 C 11.485,-0.546 2.591,-0.243 0,0" /></g><g
         transform="translate(459.1849,366.3468)"
         id="g3249"><path
           inkscape:connector-curvature="0"
           id="path3251"
           style="fill:#7a868e;fill-opacity:1;fill-rule:nonzero;stroke:none"
           d="M 0,0 0,-2.436 C 9.547,4.666 23.862,7.529 33.924,8.075 l 0,2.976 C 21.462,10.237 7.147,5.461 0,0" /></g><g
         transform="translate(443.653,330.8444)"
         id="g3253"><path
           inkscape:connector-curvature="0"
           id="path3255"
           style="fill:#7a868e;fill-opacity:1;fill-rule:nonzero;stroke:none"
           d="m 0,0 0,-4.48 c 13.694,-12.348 36.223,-19.073 49.834,-21.421 l 0,6.98 C 37.293,-17.514 14.632,-12.654 0,0" /></g><g
         transform="translate(532.2582,377.9217)"
         id="g3257"><path
           inkscape:connector-curvature="0"
           id="path3259"
           style="fill:#7a868e;fill-opacity:1;fill-rule:nonzero;stroke:none"
           d="m 0,0 0,3.934 c -8.846,1.611 -24.14,3.368 -38.46,2.058 l 0,-3.116 C -26.425,3.714 -9.437,2.148 0,0" /></g><g
         transform="translate(497.5157,311.4693)"
         id="g3261"><path
           inkscape:connector-curvature="0"
           id="path3263"
           style="fill:#7a868e;fill-opacity:1;fill-rule:nonzero;stroke:none"
           d="M 0,0 0,-7.222 C 6.071,-8.436 16.058,-9.001 21.498,-9.2 l 0,8.048 C 18.253,-1.265 4.049,-0.45 0,0" /></g><g
         transform="translate(489.2037,380.5072)"
         id="g3265"><path
           inkscape:connector-curvature="0"
           id="path3267"
           style="fill:#7a868e;fill-opacity:1;fill-rule:nonzero;stroke:none"
           d="M 0,0 0,3.028 C -10.646,2.112 -29.68,-1.68 -42.309,-10.226 l 0,-2.453 C -30.019,-4.31 -10.998,-0.596 0,0" /></g><g
         transform="translate(443.4302,365.3335)"
         id="g3269"><path
           inkscape:connector-curvature="0"
           id="path3271"
           style="fill:#7a868e;fill-opacity:1;fill-rule:nonzero;stroke:none"
           d="m 0,0 0,2.495 c -5.776,-4.358 -19.943,-19.047 -3.545,-37.641 l 0,4.511 C -7.189,-26.561 -15.988,-13.362 0,0" /></g><g
         transform="translate(538.4143,384.3725)"
         id="g3273"><path
           inkscape:connector-curvature="0"
           id="path3275"
           style="fill:#7a868e;fill-opacity:1;fill-rule:nonzero;stroke:none"
           d="m 0,0 0,4.039 c -10.721,2.103 -31.603,3.922 -48.021,2.312 l 0,-3.121 C -33.507,4.352 -12.858,2.716 0,0" /></g><g
         transform="translate(493.0493,299.099)"
         id="g3277"><path
           inkscape:connector-curvature="0"
           id="path3279"
           style="fill:#7a868e;fill-opacity:1;fill-rule:nonzero;stroke:none"
           d="m 0,0 0,-7.639 c 8.084,-1.572 18.151,-2.547 25.964,-2.812 l 0,8.668 C 16.616,-1.624 8.556,-1.181 0,0" /></g><g
         transform="translate(488.6353,292.1825)"
         id="g3281"><path
           inkscape:connector-curvature="0"
           id="path3283"
           style="fill:#7a868e;fill-opacity:1;fill-rule:nonzero;stroke:none"
           d="m 0,0 0,7.392 c -22.472,3.178 -47.233,11.364 -62.576,26.406 l 0,-4.767 C -44.399,10.924 -14.244,2.576 0,0" /></g><g
         transform="translate(434.4803,374.6077)"
         id="g3285"><path
           inkscape:connector-curvature="0"
           id="path3287"
           style="fill:#7a868e;fill-opacity:1;fill-rule:nonzero;stroke:none"
           d="m 0,0 0,-2.404 c 15.023,9.561 35.605,13.672 51.326,15.066 l 0,3.042 C 36.212,14.393 14.076,9.245 0,0" /></g><g
         transform="translate(422.2666,325.8328)"
         id="g3289"><path
           inkscape:connector-curvature="0"
           id="path3291"
           style="fill:#7a868e;fill-opacity:1;fill-rule:nonzero;stroke:none"
           d="m 0,0 0,4.912 c -5.881,8.021 -11.654,23.839 8.672,38.986 l 0,2.473 C -14.155,30.049 -8.466,10.072 0,0" /></g><g
         transform="translate(406.5047,322.7477)"
         id="g3293"><path
           inkscape:connector-curvature="0"
           id="path3295"
           style="fill:#7a868e;fill-opacity:1;fill-rule:nonzero;stroke:none"
           d="m 0,0 0,-5.325 c 17.243,-22.369 52.849,-35.537 74.99,-40.202 l 0,8.168 C 51.728,-33.421 16.385,-22.026 0,0" /></g><g
         transform="translate(545.0052,391.4218)"
         id="g3297"><path
           inkscape:connector-curvature="0"
           id="path3299"
           style="fill:#7a868e;fill-opacity:1;fill-rule:nonzero;stroke:none"
           d="m 0,0 0,4.192 c -10.599,2.214 -36.366,5.071 -59.054,2.71 l 0,-3.222 C -40.083,5.349 -16.138,3.312 0,0" /></g><g
         transform="translate(481.3668,394.71)"
         id="g3301"><path
           inkscape:connector-curvature="0"
           id="path3303"
           style="fill:#7a868e;fill-opacity:1;fill-rule:nonzero;stroke:none"
           d="M 0,0 0,3.15 C -19.689,1.14 -44.136,-5.669 -58.42,-15.004 l 0,-2.497 C -40.475,-6.496 -16.658,-1.575 0,0" /></g><g
         transform="translate(486.3027,284.6094)"
         id="g3305"><path
           inkscape:connector-curvature="0"
           id="path3307"
           style="fill:#7a868e;fill-opacity:1;fill-rule:nonzero;stroke:none"
           d="m 0,0 0,-8.374 c 5.057,-1.287 24.248,-4.033 32.71,-4.1 l 0,9.6 C 19.794,-2.465 6.603,-1.062 0,0" /></g><g
         transform="translate(419.0967,374.6742)"
         id="g3309"><path
           inkscape:connector-curvature="0"
           id="path3311"
           style="fill:#7a868e;fill-opacity:1;fill-rule:nonzero;stroke:none"
           d="m 0,0 0,2.535 c -5.779,-3.726 -33.141,-24.27 -16.332,-53.915 l 0,5.978 C -26.846,-23.548 -10.821,-7.688 0,0" /></g></g></g></svg>