<svg width="710" height="816.158" viewBox="0 0 710 816.158" xmlns="http://www.w3.org/2000/svg"><path d="m 492.45576,-11.232282 c -0.56037,-0.535157 -4.15046,-2.278948 -7.97798,-3.87509 -3.82752,-1.596141 -15.87031,-7.227076 -26.76178,-12.513198 l -19.80265,-9.611138 -6.48514,1.819432 c -12.79192,3.588802 -33.85269,10.950261 -38.37692,13.41404 -1.02426,0.557776 -2.37794,1.014149 -3.00817,1.014149 -1.16766,0 -9.70341,3.524206 -13.07905,5.400019 -1.02426,0.569177 -2.48721,1.034869 -3.25101,1.034869 -1.30988,0 -13.65512,-11.732206 -13.65512,-12.977035 0,-0.319707 3.25766,-0.664327 7.23925,-0.765806 8.02659,-0.204586 28.95299,-2.8124 37.26872,-4.64437 10.82193,-2.384093 23.17109,-6.477873 22.80988,-7.56153 -0.20424,-0.612719 -5.59901,-3.799265 -11.98837,-7.081219 l -11.61703,-5.967201 -13.5445,4.515512 c -17.38297,5.795207 -25.79243,7.533495 -40.35653,8.341985 -9.86481,0.547609 -13.33885,0.284916 -21.20808,-1.60366 -5.17592,-1.242201 -10.88999,-3.023486 -12.6979,-3.958389 -3.11104,-1.608787 -3.19104,-1.806016 -1.4935,-3.681786 0.98651,-1.09007 4.16832,-2.551626 7.0707,-3.247892 2.90237,-0.696276 5.53922,-1.690145 5.85964,-2.208604 0.32043,-0.518459 0.0374,-2.762401 -0.62897,-4.986523 l -1.21158,-4.043867 -15.72967,-0.01887 c -14.49471,-0.01737 -16.4875,-0.267241 -25.382,-3.183039 -9.23366,-3.026972 -23.87914,-10.54911 -30.24686,-15.535236 -1.65004,-1.29203 -5.82341,-5.012875 -9.27415,-8.268553 -7.5705,-7.142533 -7.09759,-8.956188 1.77998,-6.826494 4.95127,1.187794 6.2796,1.148949 9.41906,-0.275414 6.7218,-3.04965 18.25361,-4.29361 34.64454,-3.73715 12.83059,0.43559 15.6633,0.26515 15.6633,-0.94245 0,-1.9643 -15.17677,-11.79594 -20.77171,-13.45607 -2.96341,-0.87932 -13.66975,-1.34433 -32.31612,-1.40357 -22.35059,-0.071 -28.99913,-0.43003 -33.50086,-1.80896 -7.00677,-2.14621 -19.73397,-8.95813 -27.6151,-14.78027 -7.9481,-5.87162 -17.71143,-16.04635 -17.71143,-18.45778 0,-2.05047 0.18965,-2.09662 10.18858,-2.47885 9.85368,-0.37667 9.36554,-0.16465 8.58289,-3.72801 -0.49808,-2.26776 0.003,-4.61975 1.71759,-8.05158 2.381,-4.76747 2.38682,-4.87354 0.3503,-6.38475 -1.13902,-0.84521 -4.0014,-1.83482 -6.36086,-2.19913 -11.88195,-1.83465 -16.97412,-3.36733 -26.84483,-8.07999 -15.42966,-7.36671 -25.60582,-15.45986 -38.98522,-31.00512 -9.74845,-11.32655 -20.95142,-30.00258 -19.10492,-31.84909 0.4096,-0.4096 3.27857,0.50601 6.37549,2.0347 9.48531,4.6821 19.36998,9.03736 23.57987,10.38946 2.20378,0.7078 4.28339,1.7343 4.62135,2.28114 1.08873,1.76159 3.70532,1.05736 3.70532,-0.99725 0,-1.89988 -8.14962,-13.63551 -12.97318,-18.68165 -20.01894,-20.94269 -28.71235,-44.44904 -30.035042,-81.21261 -0.207793,-5.77559 -1.952184,-13.97465 -3.355601,-15.77213 -1.18625,-1.51933 -0.205552,-3.53253 1.720807,-3.53253 1.480003,0 15.965466,14.71326 19.533706,19.8409 11.40346,16.38701 18.51882,37.09047 21.9311,63.81264 1.90092,14.88651 2.9429,19.80768 5.77719,27.28524 3.40581,8.98539 5.9861,12.5626 16.88597,23.41005 4.6049,4.58274 10.81841,11.82199 13.8078,16.08722 9.03303,12.88821 16.64636,20.79455 23.96519,24.88747 8.05849,4.50655 9.23591,4.63996 9.23591,1.04641 0,-3.72867 -2.41385,-8.19246 -9.38965,-17.36379 -5.42941,-7.13823 -10.9875,-16.58053 -10.9875,-18.66599 0,-1.68915 -6.34001,-14.67461 -7.52113,-15.40458 -0.66079,-0.40839 -1.80194,0.0787 -2.5359,1.08247 -2.06764,2.82766 -10.67713,3.40279 -15.1202,1.01004 -4.73847,-2.55183 -6.47994,-6.00061 -6.37852,-12.63188 0.0749,-4.89401 0.47029,-5.72643 4.28993,-9.03044 3.9254,-3.3955 4.63887,-3.61617 10.64236,-3.29164 l 6.43489,0.34785 0.72192,-11.66123 c 0.39705,-6.41368 1.24547,-12.18478 1.88539,-12.8247 2.78288,-2.78289 20.80751,19.46009 27.22944,33.60202 7.68565,16.92481 10.37899,29.95598 10.38729,50.25698 0.006,16.04593 1.06541,21.79817 4.44875,24.16795 2.87872,2.01634 4.29211,1.36879 6.27008,-2.87268 1.06751,-2.28914 3.33094,-4.30382 6.72799,-5.98859 4.91348,-2.43685 5.09192,-2.68476 4.43869,-6.16677 -0.37431,-1.99532 -0.41112,-3.62785 -0.0818,-3.62785 0.32934,0 3.70652,2.35221 7.50483,5.22714 3.79831,2.87495 9.25331,6.03671 12.1222,7.02618 8.15993,2.81429 20.54669,9.33806 25.05131,13.19385 2.25525,1.9304 4.47681,3.50982 4.9368,3.50982 1.59669,0 12.29148,12.36593 15.76827,18.23219 1.92279,3.24425 4.83922,9.51827 6.48095,13.94225 1.64174,4.424 4.24861,11.42194 5.79304,15.55098 2.85556,7.63437 7.77971,13.963851 10.19927,13.110124 1.44621,-0.510287 1.43581,-1.393121 -0.0873,-7.408094 -1.22224,-4.82677 1.17791,-9.51458 6.20151,-12.11239 3.86713,-1.99977 3.97195,-2.97954 1.03029,-9.62966 -1.22901,-2.7784 -2.0271,-5.25911 -1.77351,-5.5127 0.2536,-0.25359 3.79289,0.80355 7.8651,2.34921 4.07223,1.54565 9.74897,3.51669 12.61498,4.38008 14.51694,4.37323 33.02938,18.32634 42.43397,31.983137 4.77829,6.93875 9.88669,17.21915 12.38583,24.92584 l 2.32958,7.183813 15.47279,7.862436 15.47277,7.862436 4.82617,-1.551698 c 2.65439,-0.853427 7.64589,-2.384802 11.09222,-3.403037 3.44634,-1.018246 9.19305,-3.843505 12.77047,-6.278349 5.19722,-3.537312 7.24993,-5.827982 10.21401,-11.398129 9.24497,-17.373255 28.53123,-39.419279 44.21444,-50.541289 14.45214,-10.24896 35.24975,-20.74212 37.21536,-18.7765 0.33662,0.33662 -0.29157,1.9543 -1.39599,3.59483 -3.05483,4.53771 -8.0146,14.5216 -7.47972,15.05647 0.26049,0.26051 2.22658,-0.10489 4.36908,-0.81197 7.03419,-2.3215 12.92201,0.23768 16.4914,7.1681 2.88482,5.60126 -0.33169,13.953323 -6.3306,16.438155 -7.90117,3.272763 -18.20248,-2.20633 -18.20248,-9.681575 0,-4.44952 -3.05937,-4.20549 -6.26327,0.49958 -3.3561,4.928588 -28.80997,29.676289 -33.17539,32.254995 -3.42638,2.024019 -4.67302,4.799204 -2.15585,4.799204 1.18513,0 7.7407,-2.138034 13.17375,-4.296489 2.87745,-1.143158 11.18661,-4.86691 20.56704,-9.217119 4.23351,-1.963306 11.71406,-4.830339 16.62347,-6.371194 12.75929,-4.004603 17.43437,-6.322696 22.88595,-11.347797 6.21263,-5.72658 10.01959,-12.64303 14.98118,-27.21763 4.95927,-14.56782 9.2356,-23.81927 14.85369,-32.13454 5.44606,-8.06066 19.64504,-22.92347 28.06163,-29.37353 3.53919,-2.71227 7.40012,-5.8202 8.57985,-6.9065 1.17973,-1.08631 3.76255,-2.97806 5.73962,-4.20389 2.98196,-1.8489 3.75606,-1.97389 4.54162,-0.7333 1.41879,2.24064 1.22681,3.35132 -1.73822,10.05576 -3.07265,6.94781 -2.40998,9.13568 2.76707,9.13568 3.21387,0 9.6033,4.62524 9.6033,6.95172 0,1.94017 2.84497,2.84791 4.06269,1.29626 0.55114,-0.70227 1.31165,-2.96601 1.69002,-5.03053 0.63888,-3.48595 1.73094,-8.6619 4.97819,-23.59459 6.43049,-29.57099 9.28245,-35.85459 22.59245,-49.77711 10.64211,-11.13184 20.76364,-18.82777 22.4906,-17.10081 0.71769,0.71769 -0.20635,6.03499 -2.78259,16.01215 -2.12141,8.2157 -4.23052,16.38549 -4.68692,18.15508 -2.72174,10.55307 -8.24519,24.7484 -14.09019,36.21193 -3.7152,7.28644 -3.8444,8.29605 -1.0617,8.29605 5.05111,0 13.76006,-13.98129 20.37551,-32.71068 3.47312,-9.83298 4.76737,-15.06608 9.18389,-37.13386 3.0811,-15.39512 7.55489,-26.34222 15.91956,-38.9543 6.95601,-10.48811 22.14455,-26.44724 32.07622,-33.70362 3.39944,-2.48373 7.44516,-6.42645 8.99049,-8.7616 3.12183,-4.71742 6.45129,-5.86673 5.30897,-1.83265 -0.37582,1.3272 -2.61882,10.37626 -4.98444,20.10903 -6.67448,27.46058 -10.37585,36.74157 -18.49129,46.36602 -2.37675,2.81868 -4.12292,5.30215 -3.88039,5.51883 0.24253,0.21667 2.00131,1.18741 3.90838,2.15722 4.27767,2.1753 6.72117,6.68282 6.72117,12.3985 0,5.32631 1.67662,5.60896 9.85831,1.662 8.81019,-4.25018 10.89157,-3.34966 5.09461,2.20419 -1.8036,1.72795 -7.40228,9.26813 -12.44151,16.75594 -15.09708,22.43278 -18.21399,25.02294 -47.74423,39.67548 -9.24662,4.58807 -17.09358,8.79747 -17.43768,9.35423 -0.62647,1.01364 2.09032,4.40265 3.52939,4.40265 1.49825,0 4.44456,6.28424 4.44456,9.47987 0,5.0322 -1.70597,8.37266 -5.37802,10.53074 -2.27878,1.33926 -4.7947,4.73785 -7.81371,10.55511 -12.15421,23.41956 -36.95439,37.00061 -67.56638,37.00061 h -9.58038 l 0.74764,2.94932 c 1.82238,7.18901 1.82829,10.792277 0.0222,13.548715 -2.91301,4.445811 -1.49415,6.024064 5.4157,6.024064 10.77174,0 13.37874,3.609307 5.33724,7.389257 -2.64797,1.24469 -5.2863,2.263075 -5.86299,2.263075 -0.57668,0 -6.01137,2.361583 -12.0771,5.247963 -31.13275,14.814539 -59.74849,17.006788 -83.23427,6.376567 -3.70749,-1.678101 -4.95595,-1.837129 -6.21558,-0.791728 -0.89197,0.74027 -1.2684,2.0483 -0.86712,3.013158 1.91119,4.595454 2.61666,10.052197 1.47709,11.425284 -2.40244,2.894767 0.0566,5.288749 9.71549,9.458138 6.87091,2.965926 9.64556,4.702091 9.64556,6.035443 0,3.02651 -2.18843,4.077553 -15.55098,7.468675 -6.19638,1.572493 -27.93303,1.282709 -34.85565,-0.464696 -12.21067,-3.082215 -18.61617,-5.738644 -26.59108,-11.027607 l -5.67768,-3.76545 -8.80082,2.390829 c -4.84044,1.314948 -9.44421,2.58276 -10.23059,2.817355 -2.94466,0.878437 -0.32559,3.24047 8.46176,7.631327 7.99862,3.996741 33.97814,15.392542 42.03405,18.438036 1.62213,0.613245 2.94933,1.512595 2.94933,1.998558 0,2.483073 -13.37633,4.6144474 -15.60461,2.48643 z m 44.02537,-25.687302 c 5.31557,-0.568297 6.43488,-1.035459 6.43488,-2.685676 0,-4.027886 -26.06775,-10.477253 -42.70084,-10.564531 -17.3069,-0.09084 -18.10188,2.364049 -2.79065,8.61742 11.74966,4.798775 23.95844,6.246947 39.05661,4.632787 z M 371.91916,-48.948085 c 4.97869,-1.223444 10.57295,-2.912602 12.43169,-3.753685 1.85874,-0.841083 3.85077,-1.52924 4.42672,-1.52924 0.57597,0 1.67853,-0.760711 2.45016,-1.690467 1.16271,-1.400972 1.13929,-1.857302 -0.13679,-2.664773 -5.42624,-3.433581 -56.52108,3.032741 -63.03617,7.977556 -1.17297,0.890267 -1.08593,1.348034 0.4731,2.488029 3.32004,2.427668 32.40171,1.87312 43.39129,-0.82742 z m 158.17582,-4.69794 c 3.08451,-3.0845 3.4055,-7.081091 0.75562,-9.408 -3.33609,-2.929483 -6.16961,-3.166308 -9.21569,-0.770267 -3.82107,3.005661 -3.83142,7.592911 -0.0239,10.587922 3.66119,2.879903 5.2722,2.802115 8.48396,-0.409655 z M 342.02277,-59.96189 c 2.42907,-1.846598 3.5785,-6.782908 2.01742,-8.663912 -1.82568,-2.19982 -12.26585,1.530699 -12.73216,4.549498 -0.65024,4.209629 6.81743,7.077187 10.71474,4.114414 z m 21.78885,-3.410855 c 4.71892,-0.402524 8.96525,-0.966349 9.43629,-1.252948 1.49209,-0.907845 -1.413,-3.381609 -4.86044,-4.138792 -1.82576,-0.401011 -6.42225,-2.121185 -10.21444,-3.822624 -11.88126,-5.330758 -12.23064,-4.865676 -7.19823,9.582075 0.271,0.777999 1.33968,1.178217 2.37484,0.889355 1.03517,-0.288862 5.74306,-0.854542 10.46198,-1.257066 z m 136.20514,-6.775991 c 4.12905,-2.653587 9.67914,-6.530854 12.33353,-8.616144 9.42314,-7.402814 26.42714,-25.4613 31.93591,-33.91636 8.72086,-13.38511 7.6985,-14.15 -7.16967,-5.36414 -20.26989,11.97784 -31.92501,23.587641 -44.46347,44.290564 -2.26753,3.744044 -3.81099,7.477116 -3.46464,8.379705 0.69722,1.816923 0.30251,1.990933 10.82834,-4.773625 z m -100.27701,2.187368 c 0,-3.228758 -8.80964,-19.194113 -13.94226,-25.266986 -8.63587,-10.217886 -20.15767,-18.460066 -34.69887,-24.822016 -5.57222,-2.43791 -6.86102,-0.95942 -3.84916,4.41568 10.96905,19.575871 27.54009,36.469255 43.60852,44.456796 7.2768,3.617265 8.88177,3.837092 8.88177,1.216526 z m 199.48154,-2.176783 c 14.93255,-4.45187 31.10196,-11.290955 31.10196,-13.155025 0,-2.140844 -6.38388,-3.257812 -21.9517,-3.840834 -22.47056,-0.841544 -42.36725,2.796291 -57.76356,10.56126 -7.14134,3.601661 -7.00042,5.179656 0.64013,7.16808 7.85386,2.043924 9.53443,2.159302 25.45106,1.74734 11.31531,-0.292873 17.44972,-0.968579 22.52211,-2.480821 z m -268.12035,-2.795401 c 8.348,-3.062428 11.79729,-4.944922 11.79729,-6.438514 0,-1.783161 -15.20745,-9.281318 -24.7296,-12.193126 -18.22997,-5.574598 -46.37152,-7.054515 -58.92395,-3.098721 -5.10832,1.609848 -6.91443,4.533047 -3.56483,5.769671 1.07586,0.397194 3.40396,1.808322 5.17356,3.13585 5.16424,3.874157 20.7759,10.887949 29.49324,13.250325 6.67792,1.809705 10.41081,2.108928 21.98586,1.762377 9.37454,-0.280658 15.5234,-0.99744 18.76843,-2.187862 z m 35.16909,-5.975084 c -0.74213,-1.938542 -15.38422,-17.149149 -16.50817,-17.149149 -0.68122,0 -1.84098,0.725856 -2.57726,1.613012 -0.73627,0.887146 -2.84648,2.003717 -4.68936,2.48125 -1.84288,0.477544 -3.35069,1.488025 -3.35069,2.245519 0,1.762065 7.44007,5.94855 14.72268,8.284383 3.10996,0.997493 6.55445,2.422252 7.65443,3.166147 2.00073,1.353064 5.33924,0.902268 4.74837,-0.641162 z m 244.18358,-16.737391 c 3.49176,-3.491763 -0.75026,-7.094603 -5.53198,-4.698413 -4.27726,2.143398 -6.8184,4.417734 -6.148,5.502474 1.02011,1.650559 9.83198,1.043953 11.67998,-0.804061 z m 16.37232,-0.679878 c 3.8788,-4.180425 3.31482,-9.043955 -1.33746,-11.533785 -5.35541,-2.86613 -11.39523,3.10347 -9.14039,9.034131 1.9299,5.076044 6.97139,6.278767 10.47785,2.499654 z m -283.80585,-0.869568 c 4.96914,-2.659411 4.77487,-9.736137 -0.33988,-12.381077 -2.84405,-1.47071 -3.42107,-1.46638 -5.7246,0.043 -3.6965,2.42204 -4.97888,5.31145 -3.76931,8.49286 1.67668,4.409997 5.7803,6.014612 9.83379,3.845261 z m 224.47222,-3.051917 c 4.52779,-5.00316 -1.31954,-14.8662 -7.01453,-11.83184 -5.50191,2.93147 -6.50134,6.60629 -3.00542,11.05064 2.67248,3.397507 7.32403,3.760156 10.01995,0.7812 z m 37.2523,-15.91942 c 22.56633,-18.17446 36.7977,-38.72393 40.66492,-58.71835 0.57044,-2.94933 1.30285,-6.20699 1.62758,-7.23925 1.30933,-4.16228 -3.90242,-1.66569 -10.75254,5.1508 -10.54099,10.48923 -19.97394,23.64431 -26.66535,37.18719 -10.65519,21.56521 -12.31604,29.61279 -4.87461,23.61961 z m -296.64502,-0.56614 c 0.62049,-1.61699 -4.86407,-13.2921 -9.15439,-19.48716 -9.90814,-14.30696 -29.46692,-28.62835 -42.717,-31.27837 -4.21821,-0.84364 -4.26497,-0.1413 -0.52369,7.86686 7.88313,16.8738 23.51463,32.00799 40.83795,39.53874 4.3258,1.8805 8.16013,3.71414 8.52075,4.07476 1.07641,1.07641 2.4754,0.74705 3.03638,-0.71483 z m 353.86941,-2.7116 c 12.68678,-3.38461 22.73336,-8.87517 33.5075,-18.31219 8.65458,-7.5805 8.75288,-9.1648 0.51412,-8.28614 -12.57655,1.34129 -29.25356,5.71562 -39.648,10.39956 -2.5005,1.12679 -4.76055,2.04869 -5.02234,2.04869 -0.57883,0 -16.23287,9.49263 -19.79741,12.00518 -1.72332,1.21471 -2.32501,2.39722 -1.84986,3.63545 0.62832,1.63735 2.0019,1.76397 12.74265,1.17473 6.62113,-0.36323 15.42015,-1.5626 19.55334,-2.66528 z m -32.42708,-6.50565 c 3.67399,-2.87394 9.52666,-7.03684 13.00594,-9.25088 6.74248,-4.29059 16.7324,-13.54527 16.7324,-15.50093 0,-0.64784 -1.3272,-1.66135 -2.94933,-2.25226 -1.62213,-0.59091 -4.58623,-1.90616 -6.5869,-2.92278 -3.09305,-1.57171 -3.71881,-1.61673 -4.1802,-0.30075 -1.09501,3.1232 -14.55111,22.19549 -19.11655,27.09527 -4.03834,4.33407 -6.03366,8.35768 -4.14461,8.35768 0.30759,0 3.56525,-2.35141 7.23925,-5.22535 z m -371.36971,1.43176 c 0,-2.22014 -23.53851,-13.08379 -39.50497,-18.23263 -8.17737,-2.63702 -21.5739,-5.54031 -28.06135,-6.08144 -5.56964,-0.46458 -4.79532,2.02744 2.14496,6.90318 17.97443,12.62754 32.13685,17.79552 52.01535,18.98079 11.82165,0.70488 13.40601,0.51934 13.40601,-1.5699 z m -12.33353,-17.04791 c 0,-1.91817 -23.9704,-18.84031 -26.6875,-18.84031 -0.58249,0 -4.9507,8.39086 -4.9507,9.50975 0,0.47512 5.67074,2.64083 12.60165,4.81267 6.93091,2.17185 13.32558,4.42203 14.21038,5.00042 1.87226,1.22389 4.82617,0.92855 4.82617,-0.48253 z m 5.22142,-11.09434 c -1.45992,-2.31445 -5.08265,-2.41537 -5.51821,-0.15372 -0.1796,0.93258 0.77766,2.20399 2.13028,2.82943 3.11593,1.44078 5.03066,-0.0714 3.38793,-2.67571 z m 427.52482,1.95551 c 2.06453,-0.55625 5.92546,-1.30146 8.57985,-1.65601 16.84167,-2.24957 18.64694,-3.5058 13.06274,-9.09 -1.87573,-1.87571 -3.41041,-4.35365 -3.41041,-5.50652 0,-1.15287 -0.70154,-2.36533 -1.55898,-2.69437 -1.82394,-0.69991 -3.44233,0.3542 -11.96192,7.79121 -3.47599,3.0343 -7.48268,6.45511 -8.90373,7.6018 -1.47546,1.19059 -2.25337,2.6194 -1.81354,3.33105 0.9272,1.50024 1.22403,1.51125 6.00599,0.22284 z m -469.02113,-5.67968 c 3.26245,-3.62441 3.81382,-6.16231 1.95509,-8.99908 -1.26729,-1.93415 -2.6315,-2.53009 -5.79166,-2.53009 -6.99771,0 -9.54283,5.91293 -4.71441,10.95271 3.4682,3.62002 5.67731,3.76895 8.55098,0.57646 z m 35.66081,-3.6302 c 2.78089,-3.53533 2.78089,-4.75525 0,-8.29058 -2.74736,-3.4927 -6.90564,-3.69191 -10.30974,-0.49393 -3.06683,2.88114 -3.13327,5.13097 -0.2594,8.78451 2.98677,3.79706 7.58237,3.79706 10.56914,0 z m 416.93586,-1.65103 c 3.97896,-3.73805 3.13301,-8.51916 -1.9747,-11.16046 -2.89417,-1.49663 -3.35891,-1.4488 -6.30492,0.64894 -2.35579,1.67748 -3.18044,3.12759 -3.18044,5.59276 0,6.72231 6.54846,9.53296 11.46006,4.91876 z m 52.41058,-4.57721 c 2.31026,-3.52591 1.62755,-6.89817 -1.93268,-9.54642 -2.36902,-1.76219 -3.52566,-1.98878 -5.89615,-1.15513 -4.05827,1.42722 -6.17908,5.95814 -4.33163,9.25415 1.90511,3.3989 2.99543,4.03124 6.98346,4.05017 2.49732,0.0118 3.93863,-0.71278 5.177,-2.60277 z m -22.38788,-24.46096 c 5.91971,-9.01643 11.20975,-20.72902 16.22377,-35.92081 5.12311,-15.5223 7.71484,-24.20337 7.71484,-25.84113 0,-2.84525 -3.32812,-0.86939 -8.28793,4.92042 -13.34309,15.57599 -18.59481,27.45358 -21.69474,49.06603 -2.35924,16.44839 -0.89057,18.33778 6.04406,7.77549 z M 212.1528,-202.46795 c -2.14678,-24.59414 -10.4221,-45.59069 -22.48049,-57.03862 -6.02081,-5.71602 -7.13765,-1.1411 -4.93366,20.20964 1.54412,14.95836 10.50784,34.45708 22.85302,49.71204 5.536,6.84084 6.13509,5.1487 4.56113,-12.88306 z m -34.4167,15.20346 c 0,-4.46156 -21.82972,-26.64043 -34.42919,-34.97988 -11.55211,-7.6462 -27.77473,-14.22247 -27.77473,-11.25923 0,2.06088 10.94396,16.26812 17.81545,23.12766 9.01051,8.99485 19.58031,16.05666 30.98245,20.69979 8.76598,3.56965 13.40602,4.40436 13.40602,2.41166 z m 552.60111,-11.35248 c 20.41087,-10.25095 36.85141,-23.75597 44.66741,-36.6919 2.41644,-3.99936 4.39354,-7.60452 4.39354,-8.01145 0,-3.89378 -25.51711,7.19798 -36.46436,15.85031 -6.45002,5.09785 -16.5256,16.5709 -20.94453,23.84947 -2.63726,4.34394 -4.79503,8.36357 -4.79503,8.93251 0,1.9925 3.34184,0.9935 13.14297,-3.92894 z m 9.64425,-33.26034 c 3.68831,-2.73723 9.2347,-6.14861 12.32529,-7.58083 l 5.61927,-2.60404 -2.66995,-3.92919 c -1.46846,-2.16104 -2.66994,-4.51258 -2.66994,-5.22564 0,-2.83757 -2.46913,-2.45668 -8.85969,1.36672 -3.68022,2.20182 -6.82337,4.09502 -6.9848,4.20709 -0.16143,0.11208 -1.27022,3.53045 -2.46398,7.59639 -1.19377,4.06594 -2.44517,8.23719 -2.7809,9.26946 -0.99103,3.04704 1.35861,2.18859 8.4847,-3.09996 z m -564.33389,-0.44602 c 2.65173,-2.8387 2.91492,-3.66466 1.96437,-6.16481 -2.707,-7.11993 -7.20317,-8.46243 -12.73957,-3.80386 -2.74088,2.30629 -3.24452,3.36438 -2.67727,5.62452 0.86518,3.44716 2.47943,5.45207 5.31519,6.60152 3.68816,1.49495 4.96226,1.14149 8.13728,-2.25737 z m 593.4837,-17.65687 c 1.51774,-1.40659 2.75952,-3.56766 2.75952,-4.80237 0,-2.89559 -4.61272,-7.50983 -7.50737,-7.50983 -2.57197,0 -7.50737,4.49672 -7.50737,6.8401 0,2.4264 4.89557,7.68302 7.3258,7.86608 1.19345,0.0899 3.41168,-0.98739 4.92942,-2.39398 z m -24.67196,-6.01361 c 17.28049,-14.57796 30.21202,-32.71549 36.49436,-51.18633 3.18306,-9.3586 4.4114,-16.81598 2.9215,-17.73679 -1.55296,-0.95979 -15.8065,10.71104 -22.2474,18.21622 -13.438,15.65842 -23.38411,35.44363 -25.69388,51.11132 -0.98231,6.66322 0.21486,6.60643 8.52542,-0.40442 z m -610.21093,-1.92417 c 0.62876,-1.01734 -0.46613,-9.51967 -3.39098,-26.33268 -2.9561,-16.99263 -10.08328,-34.47218 -18.91394,-46.38685 -5.74671,-7.75367 -8.13856,-8.08138 -7.5654,-1.03653 0.2012,2.47309 0.5851,8.35745 0.85311,13.07637 0.91471,16.1058 7.81353,36.84616 16.27212,48.91998 8.56883,12.23119 11.04287,14.51396 12.74509,11.75971 z m 314.82551,-37.15859 c -11.62501,-1.46971 -17.36385,-2.5333 -28.42075,-5.26726 -7.28182,-1.80052 -22.89874,-5.18171 -34.85565,-7.54653 -10.47048,-2.07083 -27.98384,-2.03476 -37.08694,0.0764 -5.82566,1.35106 -8.60159,1.44868 -14.6241,0.51426 -9.56152,-1.48352 -14.79178,-4.21356 -29.30803,-15.29786 -19.10169,-14.58565 -30.70136,-20.62566 -53.89774,-28.06485 -23.9836,-7.69166 -56.8719,-15.66011 -64.64008,-15.66154 -5.39676,-10e-4 -18.23766,-2.45746 -26.20044,-5.01214 -14.85775,-4.76677 -28.12081,-14.50114 -40.54808,-29.76009 -4.53741,-5.57128 -8.24983,-10.5542 -8.24983,-11.07315 0,-0.51894 2.89608,-0.73405 6.43573,-0.47801 l 6.43573,0.46552 1.50568,-3.61453 c 0.82812,-1.988 4.41707,-12.06032 7.97544,-22.38296 9.70045,-28.14043 21.7791,-62.7748 28.61292,-82.04482 3.34699,-9.43784 6.47812,-18.36625 6.95806,-19.84091 0.47996,-1.47466 3.32855,-9.63225 6.3302,-18.12799 3.00164,-8.49573 5.45753,-15.61432 5.45753,-15.8191 0,-0.41878 21.44182,-0.52288 21.46353,-0.10414 0.10382,2.00312 11.94847,34.64255 12.65725,34.87881 0.53782,0.17928 5.30201,-5.84563 10.58708,-13.38868 5.28508,-7.54306 11.19184,-15.88641 13.12611,-18.54081 14.81903,-20.33597 24.72595,-34.90682 24.38476,-35.86448 -0.22261,-0.62487 -1.31804,-0.99034 -2.43429,-0.81216 -1.11624,0.17818 -6.13178,1.02542 -11.14563,1.88275 -16.38852,2.80233 -31.52579,4.72183 -37.53685,4.7599 0,0 -25.27241,0.77194 -29.6481,-3.21293 -2.36387,0 -14.79273,-5.91273 -19.88708,-9.4608 -8.86673,-6.17542 -16.18684,-14.16667 -12.93686,-14.12298 0.4424,0.006 5.58989,1.68269 11.43888,3.72608 19.61985,6.85437 40.77074,7.35302 66.04144,1.55701 36.27643,-8.32026 55.94901,-12.93935 57.10632,-13.40847 0.74271,-0.30106 5.93524,-7.02814 11.53895,-14.94906 l 10.18858,-14.40167 3.21744,3.46081 c 4.13561,4.44841 12.53993,14.37095 13.53278,15.97742 0.57484,0.93011 3.13069,0.85843 10.24009,-0.28718 13.48555,-2.17307 41.82097,-1.82763 52.02029,0.63418 14.64181,3.5341 22.67109,9.01943 26.77167,18.28948 4.39946,9.94571 2.03355,19.1636 -6.10127,23.7713 -10.95325,6.20411 -22.967,0.1987 -25.08504,-12.53945 -0.53515,-3.21842 -1.18351,-3.87363 -4.89572,-4.94745 -5.21167,-1.50754 -29.6836,-1.44488 -30.19066,0.0773 -0.50523,1.51667 15.75267,15.44954 31.08844,26.64254 16.33219,11.92022 44.07955,28.48944 45.43669,27.13231 0.62612,-0.62614 0.44492,-51.11175 -0.18713,-52.13443 -0.23022,-0.37249 -0.53038,-11.61399 -0.66703,-24.98109 -0.13664,-13.36711 -0.59799,-24.86942 -1.02523,-25.5607 -0.58034,-0.939 -2.77254,-0.75463 -8.66816,0.72903 -9.85445,2.47991 -21.5851,2.52009 -27.93333,0.0957 -7.87088,-3.00596 -13.74119,-10.95099 -13.74119,-18.59772 0,-2.23067 0.36079,-2.45429 2.94932,-1.82788 1.62213,0.39255 3.91456,1.05356 5.09429,1.46893 4.18092,1.47205 12.7171,0.12605 27.34827,-4.31233 5.60372,-1.69988 11.63643,-3.23412 13.40602,-3.40939 l 3.21745,-0.3187 1.32811,-25.73956 c 0.73047,-14.15675 1.80238,-30.0831 2.38204,-35.39188 0.57965,-5.30878 1.57198,-16.16766 2.20516,-24.13083 1.57899,-19.85792 3.16855,-32.53925 4.2116,-33.59969 6.02856,-2.627 12.02217,-2.37104 18.02817,-1.6e-4 l 0.60598,8.25623 c 0.30886,4.20808 1.81463,21.17328 3.29188,37.7046 1.47724,16.5313 3.01429,39.21429 3.41567,50.40662 0.40137,11.19234 1.21067,20.95298 1.79844,21.69031 0.58778,0.73733 1.95126,1.3406 3.02999,1.3406 1.94243,0 6.32288,1.12243 20.81119,5.33256 7.99298,2.32266 18.17737,2.81641 23.9492,1.16108 4.734,-1.3577 5.18471,0.1617 2.31957,7.81947 -2.34588,6.26993 -6.09954,10.09662 -12.30806,12.54753 -4.66414,1.84123 -20.8086,1.51694 -27.95855,-0.56161 -3.3392,-0.97073 -6.6621,-1.53825 -7.38421,-1.26115 -1.36208,0.52267 -1.48397,2.99648 -3.81312,77.38409 -0.59103,18.87567 -1.29195,35.28865 -1.55762,36.47328 -1.04678,4.66768 0.91749,5.28298 7.27058,2.27749 9.79113,-4.63195 24.62837,-9.18535 36.35073,-11.1557 9.18767,-1.5443 16.16577,-1.78419 41.60492,-1.43026 51.45473,0.71585 63.16805,0.6809 80.81948,-0.2412 9.35375,-0.48862 16.76802,-0.48862 16.47615,0 -0.74084,1.24029 -8.53906,17.77383 -25.71141,54.5125 -4.41143,9.43783 -9.48736,20.29671 -11.27986,24.13083 -1.7925,3.83412 -4.46377,9.62552 -5.93616,12.86977 -1.47237,3.24426 -5.43173,11.69005 -8.79855,18.76843 -7.14717,15.02614 -12.07369,25.54457 -15.82308,33.78316 -1.47645,3.24426 -4.85214,10.48351 -7.50152,16.08722 -2.64939,5.60372 -6.03232,12.84297 -7.51764,16.08723 -1.48532,3.24425 -5.55974,11.93135 -9.05426,19.30466 -3.49452,7.37331 -8.2281,17.50826 -10.51907,22.52211 -6.58014,14.40088 -6.43702,14.2653 -17.86971,16.9277 -16.32589,3.80193 -20.14465,4.39485 -32.51716,5.04887 -20.69401,1.0939 -37.64998,-1.35111 -90.08844,-12.99052 -6.7092,-1.48919 -13.65392,-1.91646 -31.85245,-1.95967 -24.29157,-0.0577 -27.55226,0.50008 -24.49054,4.18922 1.11747,1.34648 4.29097,1.66672 17.06062,1.72166 21.56846,0.0928 32.0856,1.35944 57.51456,6.92693 7.07837,1.54976 16.24809,3.50808 20.37714,4.35181 4.12906,0.84373 10.40307,2.13496 13.94226,2.86941 8.88232,1.84323 47.33598,1.77895 55.76903,-0.0932 3.53919,-0.78571 11.50237,-2.95748 17.69595,-4.82616 l 11.26105,-3.39759 4.29358,-8.57985 c 2.36148,-4.71892 5.29891,-10.75163 6.52764,-13.40602 5.89133,-12.72694 19.40094,-41.14792 28.2042,-59.33493 5.37487,-11.10418 9.77249,-20.36585 9.77249,-20.58152 0,-0.21566 3.55927,-7.78072 7.9095,-16.81124 9.50137,-19.72363 15.44494,-32.24761 19.75293,-41.62244 4.30581,-9.37005 18.74183,-39.84422 31.118,-65.68949 3.53164,-7.37515 5.56402,-10.45669 6.89657,-10.45669 2.28699,0 2.35176,0.86929 0.36727,4.92951 -3.64992,7.4677 -25.84557,54.11359 -28.52883,59.95561 -2.94203,6.40539 -9.1401,19.45742 -20.881,43.97174 -7.10889,14.84294 -13.78529,28.94942 -18.78082,39.68181 -1.92192,4.12905 -6.62091,14.02269 -10.44221,21.98587 -3.82129,7.96317 -9.0965,19.06336 -11.72267,24.66707 -2.62618,5.60372 -8.06197,16.94521 -12.07952,25.20331 -4.01755,8.25811 -7.62416,16.04872 -8.01471,17.31248 -0.66825,2.16242 -1.79897,2.80775 -9.75483,5.56725 -8.15344,2.82804 -22.99808,5.63972 -35.57145,6.73749 -24.72913,2.15909 -40.29689,0.44051 -89.07477,-9.83327 -15.68036,-3.30266 -55.11141,-5.57415 -56.54332,-3.25727 -1.575,2.54842 0.8063,4.38675 5.68546,4.3891 8.38619,0.004 35.42657,3.01099 47.88326,5.32477 6.48606,1.20475 12.99938,2.40636 14.47404,2.67027 1.47466,0.26391 7.26606,1.48766 12.86977,2.71945 39.22959,8.62332 62.90852,8.22546 97.05957,-1.63083 4.71892,-1.36191 9.90441,-2.76541 11.52331,-3.11889 3.18755,-0.69597 5.15247,-3.97608 14.81756,-24.73558 5.07938,-10.90993 11.24138,-23.81836 23.8661,-49.99576 3.87371,-8.03213 8.70554,-18.16708 10.73742,-22.52211 2.03187,-4.35503 6.45903,-13.70964 9.83813,-20.78802 3.37909,-7.07837 7.48317,-15.76547 9.12018,-19.30466 1.63701,-3.53919 8.09746,-16.99109 14.35654,-29.8931 6.2591,-12.90202 11.38018,-23.58767 11.38018,-23.74588 0,-0.36925 13.61615,-28.83803 20.63911,-43.15247 2.96635,-6.04611 5.7816,-10.99293 6.25609,-10.99293 2.30142,0 1.74626,2.70306 -2.13297,10.38532 -6.19271,12.26376 -25.83471,52.93327 -25.83471,53.49175 0,0.2629 -3.43949,7.5952 -7.64332,16.29401 -4.20383,8.6988 -9.93332,20.64217 -12.73222,26.54082 -2.79889,5.89865 -7.74406,16.2749 -10.98925,23.05835 -3.2452,6.78344 -7.95775,16.67708 -10.47234,21.98587 -2.51458,5.30878 -7.4558,15.68504 -10.98049,23.05835 -9.08632,19.00768 -16.35523,34.32453 -21.88561,46.1167 -2.62809,5.60371 -5.30976,11.1538 -5.95929,12.33353 -0.64953,1.17973 -1.5243,2.86889 -1.94395,3.75369 -4.37595,9.22652 -5.24426,10.19681 -10.90945,12.1908 -8.0218,2.82342 -30.33951,8.18634 -34.06739,8.18634 -1.71589,0 -4.40736,0.48954 -5.98108,1.08787 -4.32629,1.64485 -39.25149,1.339 -49.29369,-0.43168 -8.09252,-1.4269 -17.57283,-3.25669 -50.30356,-9.70899 -7.61155,-1.50049 -19.78481,-3.04601 -27.05168,-3.43449 -12.09724,-0.64671 -13.27486,-0.54378 -13.95146,1.2194 -1.14203,2.9761 2.42269,4.83301 9.27795,4.83301 9.87898,0 27.04571,2.72191 57.36168,9.09513 26.46181,5.56298 31.60794,6.17028 51.89466,6.12414 15.98627,-0.0364 21.03172,-0.47401 32.83137,-2.84776 7.66824,-1.54265 15.3901,-3.2674 17.1597,-3.83281 1.76959,-0.56542 7.50708,-2.31299 12.74997,-3.88352 l 9.53252,-2.85551 9.04151,-18.86389 c 4.97282,-10.37516 11.14279,-23.20746 13.71103,-28.51624 2.56824,-5.30879 6.82057,-14.23719 9.44962,-19.84091 5.32954,-11.35966 15.41836,-32.51602 23.27025,-48.7979 6.41531,-13.30295 17.36885,-36.30473 21.70561,-45.58046 1.79259,-3.83412 6.1454,-13.00384 9.67291,-20.37715 3.5275,-7.37331 8.34189,-17.50826 10.69863,-22.52211 2.35674,-5.01385 8.31401,-17.45493 13.23837,-27.64686 8.36366,-17.31022 9.12021,-18.48891 11.48604,-17.89512 3.12427,0.78414 4.67168,-0.92665 6.47686,-7.16072 l 1.35375,-4.67505 10.40844,-0.11097 c 6.46387,-0.069 10.74541,0.33754 11.29758,1.07248 0.48902,0.6509 2.61965,6.25092 4.7347,12.4445 6.07413,17.78699 13.3166,38.47694 16.33078,46.65295 1.52222,4.12905 4.433,12.33353 6.4684,18.23218 2.0354,5.89865 9.44461,26.89247 16.46491,46.65294 l 12.76418,35.92813 6.24647,0.11172 c 3.43557,0.0614 6.3918,0.54769 6.56943,1.08054 0.17761,0.53286 -0.77701,2.17174 -2.12138,3.64197 -1.34437,1.47022 -4.74407,5.67904 -7.55487,9.35293 -6.13345,8.01675 -20.46661,19.47728 -29.85171,23.86886 -15.54549,7.27423 -38.84877,10.38781 -56.48973,7.54769 -8.65204,-1.39295 -25.18076,-6.64855 -28.01581,-8.90812 -0.91602,-0.73009 -3.35467,-2.24293 -5.41919,-3.36188 -6.44449,-3.49282 -16.77919,-13.21926 -24.65608,-23.20491 -4.16175,-5.27591 -7.19396,-9.6337 -6.73823,-9.68399 0.45572,-0.0503 3.24167,-0.0406 6.191,0.0215 2.94932,0.0621 6.00425,-0.31108 6.78873,-0.8292 0.78447,-0.51814 2.79879,-4.99198 4.47626,-9.94189 1.67746,-4.9499 5.77826,-16.72168 9.11286,-26.15952 3.33461,-9.43784 9.34658,-26.57073 13.35991,-38.07309 4.01334,-11.50236 8.34953,-23.80909 9.63597,-27.34827 10.22356,-28.12652 11.89829,-33.78317 10.00204,-33.78317 -1.78974,0 -4.15182,3.49718 -8.33035,12.33354 -5.69483,12.04284 -15.57894,32.67444 -24.40552,50.94286 -4.1325,8.55304 -10.76952,22.30762 -14.74894,30.56572 -3.97942,8.25811 -10.7326,22.25399 -15.00706,31.10196 -7.36618,15.24772 -12.74275,26.3928 -29.4908,61.13144 -21.09058,43.74591 -26.09696,53.74403 -27.46209,54.84389 -0.82353,0.66353 -5.35828,2.49428 -10.07719,4.06835 -26.95369,8.99084 -59.1572,12.15219 -87.40724,8.58061 z M 345.583,-315.25021 c 1.97921,-1.44723 1.97937,-1.54422 0.008,-4.55805 -3.48916,-5.33416 -12.57874,-14.34039 -14.47282,-14.34039 -3.49441,0 -12.55849,12.14706 -10.93137,14.64948 3.06289,4.71059 20.72438,7.66543 25.39668,4.24896 z m -29.71485,-12.64023 c 0.39677,-2.08284 -8.84605,-8.36089 -25.06906,-17.02779 -10.82233,-5.78167 -29.67461,-13.89749 -32.28257,-13.89749 -0.79524,0 -2.28393,-0.46716 -3.30819,-1.03813 -2.17892,-1.21463 -15.50817,-4.91197 -27.28744,-7.56913 -8.89145,-2.00573 -18.01035,-1.70783 -18.01035,0.58838 0,1.45967 2.16858,2.57504 6.43489,3.30966 31.7208,5.46212 63.97565,17.55507 86.87099,32.5696 8.164,5.35387 12.03698,6.2921 12.65173,3.0649 z m 181.65371,-4.17006 c 14.35186,-2.83725 21.94768,-4.62226 23.93506,-5.62473 1.18494,-0.5977 2.87835,-1.42081 3.76315,-1.82911 1.73072,-0.79868 5.33401,-7.43985 12.7999,-23.59131 5.691,-12.31173 21.16631,-45.33068 27.14311,-57.91399 2.38146,-5.01385 5.89287,-12.49441 7.80312,-16.62347 1.91025,-4.12905 4.92369,-10.64437 6.69653,-14.47849 3.56237,-7.70429 10.28708,-21.95145 19.23619,-40.7543 3.22855,-6.78344 6.99389,-14.74662 8.36744,-17.69594 6.99484,-15.01959 11.07081,-23.70785 16.78319,-35.77463 3.45053,-7.28889 6.27347,-13.80421 6.2732,-14.4785 -3.6e-4,-0.90655 -16.13782,-1.20215 -61.9358,-1.13449 -52.50727,0.0775 -63.28646,0.35637 -70.81143,1.83166 -8.68581,1.70289 -27.31742,7.67829 -36.21922,11.61598 l -4.4763,1.98008 -0.69371,7.79138 c -1.25353,14.07903 -5.02953,60.06498 -6.08778,74.14008 -0.57055,7.58842 -1.23474,15.06898 -1.47597,16.62346 -3.59369,23.28423 -3.85293,48.67673 -8.75101,72.11234 0,0 -11.8949,-99.88122 -12.70311,-115.87629 -0.43231,-8.55546 -2.58028,-6.83878 -11.32793,9.05343 -1.9481,3.53919 -7.26236,12.95022 -11.80947,20.91339 -9.24573,16.19169 -9.45649,16.56649 -26.53664,47.18918 -6.74457,12.09223 -13.13736,23.43372 -14.2062,25.20332 -1.06884,1.76959 -3.60905,6.35445 -5.64491,10.18857 -4.47933,8.43588 -8.45506,15.59452 -13.33776,24.01575 -3.72121,6.41799 -3.99657,10.04271 -0.66582,8.76459 4.05277,-1.5552 22.35516,-1.92482 33.2788,-0.67207 11.92823,1.36795 32.32778,5.14344 46.41585,8.59049 7.92156,1.93824 22.79809,4.53221 36.46437,6.35817 10.0824,1.34711 31.07818,1.3891 37.72315,0.0754 z m -176.72424,-2.71211 c 0.35805,-0.93304 0.65099,-1.85834 0.65099,-2.05623 0,-0.42498 -12.91503,-9.11711 -13.54648,-9.11711 -0.23776,0 -3.978,-2.15238 -8.31163,-4.78308 -14.03282,-8.51848 -32.9554,-16.06232 -54.01506,-21.53408 -11.74314,-3.05112 -14.53095,-3.23528 -16.32125,-1.07809 -1.69329,2.04029 -0.53235,3.80066 2.50646,3.80066 3.72543,0 26.83464,6.75298 38.20885,11.1654 9.72088,3.77104 31.53568,15.2424 41.82677,21.9947 5.48583,3.59941 8.06062,4.05933 9.00135,1.60783 z m 6.54963,-8.93044 c 0,-2.4058 -20.2645,-15.74389 -34.3194,-22.58904 -17.66987,-8.60574 -42.37245,-16.08343 -48.25462,-14.60711 -4.82467,1.21092 -2.07987,5.99626 3.43936,5.99626 1.08829,0 8.47992,2.11288 16.42585,4.6953 15.94277,5.18138 36.62362,14.76709 49.83904,23.10072 8.3611,5.27251 12.86977,6.46498 12.86977,3.40387 z m 13.19383,-17.52576 c 4.11869,-7.22584 9.04439,-16.03359 10.94599,-19.57278 5.91616,-11.01092 9.89562,-18.18828 10.70341,-19.30467 0.4268,-0.58986 2.21956,-3.72687 3.9839,-6.97113 10.73376,-19.73715 22.78995,-41.42176 27.28796,-49.08088 2.86271,-4.87457 5.20493,-9.07161 5.20493,-9.32676 0,-0.25516 1.62371,-3.26482 3.60825,-6.68814 3.94907,-6.81213 7.51405,-13.23363 13.27962,-23.92017 2.06857,-3.83412 5.15387,-9.19472 6.85622,-11.91243 l 3.0952,-4.9413 -1.11425,-21.33449 c -0.61284,-11.73398 -1.33271,-22.34318 -1.59972,-23.57601 -0.28987,-1.3384 -2.11499,-2.93016 -4.52991,-3.95072 -12.81996,-5.41781 -35.549,-19.83062 -51.76986,-32.828 -6.19358,-4.96277 -11.51953,-9.31362 -11.83545,-9.66856 -0.31593,-0.35495 -4.48173,-4.43821 -9.25734,-9.07391 l -8.68292,-8.42855 -11.11981,1.74348 c -12.84909,2.01463 -43.63375,7.80956 -49.29257,9.27888 -4.02786,1.04585 -4.29477,1.38844 -32.28974,41.44692 -3.95234,5.65547 -8.65785,12.11411 -10.4567,14.35253 -1.79883,2.2384 -3.2706,4.41038 -3.2706,4.82662 0,0.41624 -1.57875,2.73696 -3.50833,5.15718 -1.92958,2.4202 -4.87081,6.42249 -6.53606,8.89395 l -3.02775,4.49358 2.28301,6.23123 c 1.25565,3.42719 2.56732,6.95517 2.91485,7.83997 0.90581,2.30622 10.3709,29.28217 13.1706,37.53685 1.30039,3.83412 2.77407,7.93636 3.27482,9.11609 0.50075,1.17973 1.63738,4.31674 2.52583,6.97113 5.76029,17.20961 15.70917,45.26867 16.96914,47.85841 1.40575,2.88942 1.88827,3.0766 7.63065,2.96006 3.3715,-0.0684 6.13001,0.32708 6.13001,0.87891 0,1.69278 -14.00086,19.04171 -17.83736,22.10285 -5.80434,4.6313 -5.5585,4.86551 9.25751,8.81929 9.76359,2.60549 24.37284,7.9212 33.24692,12.0972 10.00185,4.7067 26.33989,14.48935 30.88976,18.49571 1.59137,1.40128 3.45317,2.56303 4.13733,2.58167 0.68415,0.0187 4.61376,-5.87816 8.73246,-13.10401 z m 369.39616,-15.95395 c 8.8148,-2.43522 19.45634,-7.57339 28.48257,-13.75254 7.29637,-4.99492 13.80828,-11.49521 12.66306,-12.64046 -1.34862,-1.34865 -128.26982,-1.178 -128.25057,0.17244 0.0264,1.85019 1.1675,3.0136 9.0448,9.22136 8.24965,6.50118 8.9068,6.91157 18.70405,11.6805 17.82723,8.6776 40.00459,10.66485 59.35609,5.3187 z m -494.12805,-0.90593 c 4.12905,-1.33286 9.67914,-3.42208 12.33353,-4.64269 9.987,-4.59247 27.88452,-17.87364 27.88452,-20.69219 0,-1.27977 -9.60708,-1.50885 -63.2764,-1.50885 -34.80202,0 -63.59815,-0.12066 -63.9914,-0.26812 -0.39323,-0.14747 -0.92085,0.3495 -1.17247,1.10435 -0.77307,2.31921 9.82051,10.88664 24.40958,19.74095 3.19587,1.93963 14.50244,6.02988 21.98586,7.95359 8.75715,2.25114 32.60686,1.28919 41.82678,-1.68704 z m -76.68242,-37.3898 c 0,-4.58554 0.9795,-4.72 4.8085,-0.66007 3.47044,3.67975 8.2307,4.95511 9.68882,2.59583 0.37491,-0.60662 -1.76838,-3.30573 -4.76287,-5.99804 -3.68101,-3.30954 -5.44453,-5.73136 -5.44453,-7.47691 0,-1.42 0.37591,-2.58182 0.83535,-2.58182 0.45944,0 3.95841,3.17316 7.77549,7.05144 7.56993,7.69131 11.26812,10.10827 15.46674,10.10827 4.25415,0 3.29943,-2.62003 -2.50819,-6.88322 -6.96203,-5.1106 -18.3668,-17.3919 -18.29393,-19.69994 0.032,-1.01067 1.84172,-4.37707 4.0218,-7.48089 5.65552,-8.0518 22.77494,-32.03206 25.94967,-36.34933 1.47466,-2.00538 4.49289,-6.20481 6.70719,-9.33208 l 4.02598,-5.68593 0.15443,-33.10949 c 0.1748,-37.47221 -0.71641,-41.02602 -5.90903,-23.56291 -0.87697,2.94933 -3.28063,10.18858 -5.34146,16.08722 -2.06082,5.89865 -6.16245,17.72276 -9.11473,26.2758 -2.95228,8.55304 -8.3378,23.99677 -11.96783,34.3194 -9.27323,26.37011 -12.08997,34.47099 -16.03512,46.1167 -1.89833,5.60372 -3.85037,11.15381 -4.33785,12.33354 -2.50875,6.07125 -2.27909,6.97113 1.77912,6.97113 2.0328,0 2.50245,-0.57029 2.50245,-3.0387 z m 46.94012,2.14284 c 1.05143,-0.66737 1.36946,-8.86923 1.40288,-36.17982 0.0382,-31.18291 -0.15297,-35.35752 -1.63289,-35.66456 -0.92186,-0.19125 -2.03577,0.5706 -2.47536,1.69304 -0.77749,1.98522 -6.92671,10.71655 -20.12916,28.5816 -3.55306,4.80788 -7.59594,10.33671 -8.98418,12.28631 l -2.52407,3.54472 4.69427,4.83524 c 6.15055,6.33525 25.31278,21.80394 26.98413,21.78291 0.7176,-0.009 1.91657,-0.40479 2.66438,-0.87944 z m 63.87958,0.11804 c 0.28974,-0.46878 -0.91925,-4.94975 -2.68661,-9.95771 -8.92597,-25.29236 -10.89465,-30.88844 -16.97456,-48.25095 -3.61473,-10.32263 -9.04578,-25.88702 -12.069,-34.58752 -3.02323,-8.70051 -6.00814,-15.79544 -6.63315,-15.76651 -0.625,0.029 -4.46287,4.42601 -8.5286,9.7713 l -7.39223,9.71871 0.0933,44.0207 c 0.0708,33.40405 0.40892,44.21577 1.40202,44.82954 1.76376,1.09006 52.12149,1.30226 52.78886,0.22244 z m 432.28766,-0.12563 c 0.30709,-0.49689 0.6154,-34.1594 0.68511,-74.80558 0.10167,-59.29028 -0.14393,-73.90213 -1.24225,-73.90213 -1.27088,0 -5.72279,11.80317 -17.19205,45.58046 -2.30334,6.78345 -4.63151,13.29877 -5.17368,14.4785 -0.54218,1.17973 -3.23744,8.66029 -5.98947,16.62346 -2.75204,7.96318 -6.13969,17.61551 -7.52812,21.44963 -1.38842,3.83412 -4.75374,13.48645 -7.47847,21.44963 -2.72475,7.96317 -6.10589,17.56414 -7.51362,21.33549 -1.40775,3.77135 -2.30409,7.27032 -1.99188,7.77549 0.73582,1.19059 52.68886,1.20521 53.42443,0.015 z m 62.32134,-0.19 c 0.64807,-1.0486 -0.72557,-6.72803 -2.71854,-11.24009 -0.52109,-1.17973 -3.41905,-9.38421 -6.43992,-18.23218 -3.02087,-8.84797 -6.71575,-19.22423 -8.21086,-23.05835 -1.49509,-3.83412 -3.59767,-9.62552 -4.67239,-12.86978 -2.88943,-8.7223 -9.91118,-28.8694 -14.95142,-42.89926 -2.43697,-6.78344 -6.40094,-18.12493 -8.80885,-25.20331 -4.37494,-12.86079 -5.66029,-15.55098 -7.43012,-15.55098 -0.53085,0 -0.94116,32.45614 -0.94116,74.44809 0,58.55497 0.28619,74.56356 1.3406,74.98902 2.69125,1.08595 52.14638,0.72728 52.83266,-0.38316 z m -302.9572,-21.16054 c 0.0175,-0.4424 0.75405,-7.561 1.63687,-15.8191 5.01865,-46.94559 9.51803,-139.2268 9.56929,-196.2641 l 0.0232,-25.73955 -12.24313,-0.30491 c -6.73371,-0.1677 -12.59384,0.0736 -13.02247,0.53624 -0.7583,0.81842 0.34927,67.20194 1.66025,99.50944 2.31847,57.13551 4.06543,83.96204 8.01128,123.02145 1.21315,12.00895 2.03388,15.86489 3.3768,15.86489 0.52591,0 0.9705,-0.36196 0.98796,-0.80436 z m -241.64609,-81.50859 c 0.38451,-1.03226 2.59464,-4.40464 4.91138,-7.49415 3.42972,-4.57375 4.11611,-6.26731 3.69474,-9.1161 -0.92442,-6.24976 -10.1506,-31.38329 -11.52039,-31.38329 -1.01738,0 -1.31201,5.69326 -1.26267,24.39895 0.0354,13.41942 0.0933,24.64026 0.12869,24.93519 0.16766,1.39717 3.43097,0.3165 4.04825,-1.3406 z m 37.30664,-93.4867 c 3.53918,-0.64228 8.12404,-1.38977 10.18857,-1.6611 2.06453,-0.27133 6.16677,-0.94277 9.11609,-1.49208 2.94933,-0.54932 9.70596,-1.78814 15.01474,-2.75293 5.30878,-0.9648 17.13289,-3.24142 26.2758,-5.05915 25.48414,-5.06661 39.25155,-7.25335 50.40662,-8.0063 10.52946,-0.71073 30.60519,0.91522 36.44768,2.95193 3.00426,1.04729 3.23064,1.4543 2.61983,4.71021 -0.95383,5.08434 2.11763,9.8713 7.33714,11.4351 3.5686,1.06918 4.44129,0.95176 6.98919,-0.94043 5.00012,-3.71331 6.30788,-7.04729 4.63291,-11.8111 -2.71363,-7.71787 -8.79195,-12.51545 -21.02614,-16.59579 -6.81284,-2.27223 -9.39252,-2.50386 -27.88452,-2.50386 -12.09794,0 -22.77375,0.53167 -26.27579,1.30859 -3.24426,0.71972 -10.2422,2.0716 -15.55098,3.00418 -12.57362,2.20876 -14.89794,2.72069 -43.4355,9.5665 -13.27196,3.18378 -29.68092,7.06736 -36.46437,8.63019 -6.78344,1.56285 -14.264,3.29024 -16.62346,3.83866 -7.34598,1.70749 -22.26356,3.10788 -28.15263,2.64285 -5.92851,-0.46815 -7.18072,0.65125 -3.75369,3.35557 1.49954,1.18332 6.081,1.38714 22.79023,1.01389 11.50236,-0.25693 23.80909,-0.99265 27.34828,-1.63493 z m 65.42136,-30.68395 c 2.35946,-0.85002 5.63227,-1.55276 7.27291,-1.56164 1.64065,-0.009 3.25313,-0.72014 3.58331,-1.58058 0.66482,-1.73249 -5.81351,-10.18269 -7.83018,-10.21353 -1.36779,-0.0209 -11.06965,12.19214 -11.06965,13.9349 0,1.46513 2.96099,1.25193 8.04361,-0.57915 z m 110.46808,-34.39776 c 7.72073,-2.00932 14.47518,-2.93238 24.12834,-3.29735 13.28844,-0.50243 16.51709,-0.0914 33.24692,4.23275 7.64235,1.9753 19.21279,1.63873 24.41555,-0.71023 4.33684,-1.95802 8.608,-6.5954 7.2892,-7.9142 -0.35259,-0.3526 -4.13144,-0.7135 -8.39742,-0.802 -4.89827,-0.10167 -12.10344,-1.3632 -19.55364,-3.42368 -16.26217,-4.4976 -23.31403,-5.67519 -33.84773,-5.65218 -11.61934,0.0254 -21.98915,1.85401 -42.29845,7.45903 -6.25314,1.72577 -10.10676,2.19359 -14.21038,1.72511 -5.09401,-0.58154 -5.63053,-0.44271 -5.63053,1.45695 0,2.34485 5.27368,6.70427 10.18857,8.42229 5.44754,1.9042 13.47332,1.41735 24.66957,-1.49649 z m 37.82848,-42.14442 c 0.16698,-10.59246 -0.40195,-26.35663 -1.316,-36.46437 -0.88556,-9.79289 -2.34842,-25.94051 -3.25078,-35.88361 -0.90237,-9.94309 -1.90717,-18.50954 -2.23287,-19.03654 -0.76429,-1.23666 -6.59429,-1.24881 -7.35662,-0.0153 -0.60829,0.98423 -2.88644,22.212 -4.84803,45.17384 -0.92021,10.77181 -2.05056,32.12144 -3.17391,59.94789 -0.19458,4.8199 1.55241,5.5753 12.12656,5.24346 l 9.75752,-0.30622 z m 230.0552,116.51133 -16.22508,-1.04931 c -9.57787,-0.61942 -17.65194,-1.88666 -48.96209,-7.2887 -2.94932,-0.50886 -11.87773,-2.18502 -19.8409,-3.7248 -7.96318,-1.53977 -20.0286,-3.72055 -26.81204,-4.84618 -6.78344,-1.12562 -15.47054,-2.64845 -19.30467,-3.38406 -9.25794,-1.77625 -43.68818,-1.82034 -46.82443,-0.06 -1.54003,0.86441 -2.5752,2.8317 -3.0884,5.86938 -0.54131,3.20398 -1.94788,5.74509 -4.70767,8.50488 -9.32101,9.321 -24.19205,5.31744 -28.0475,-7.55091 -1.20221,-4.01262 -1.12148,-5.32957 0.64534,-10.52744 2.21157,-6.50637 8.54486,-13.89601 14.59021,-17.02379 10.1588,-5.25603 35.98668,-8.06037 54.72034,-5.94143 15.37135,1.73863 35.59769,5.72129 67.40867,13.27307 6.19358,1.47032 18.01768,4.18947 26.27579,6.04254 8.25811,1.85307 16.7039,3.81421 18.76842,4.35808 8.51832,2.24405 14.00683,3.20268 25.36599,4.43042 15.72594,1.69973 29.48884,0.1987 44.57572,-4.86155 6.06685,-2.03487 11.41049,-3.32395 11.87475,-2.86461 1.10418,1.09247 -5.96394,8.46561 -12.16089,12.68565 -6.11948,4.16729 -21.29611,11.9999 -23.71351,11.9999 z m 13.43797,-9.41428 c 1.29095,-1.20271 2.34718,-2.38573 2.34718,-2.62895 0,-0.24321 -3.01635,-0.24338 -6.703,-3.8e-4 -11.89738,0.7842 -26.04438,-1.71548 -69.97941,-12.36488 -41.70181,-10.10808 -46.39559,-11.1413 -63.81265,-14.04678 -38.44759,-6.41375 -66.67521,-2.75161 -77.97306,10.11593 -5.87005,6.68562 -5.56797,15.16117 0.65507,18.37923 4.62626,2.39234 7.11742,2.06702 11.04512,-1.44237 2.9997,-2.68023 3.47637,-3.81144 3.50249,-8.31173 l 0.0302,-5.20927 6.43489,-1.44981 c 10.82194,-2.43822 39.54787,-2.11733 54.16031,0.60504 6.78345,1.26379 25.12288,4.71687 40.75429,7.67353 15.63142,2.95665 34.45347,6.34223 41.82678,7.52353 7.37331,1.18129 14.61256,2.35116 16.08722,2.59968 1.47466,0.24853 10.91534,0.51759 20.97928,0.59792 17.04293,0.13604 18.45908,-0.004 20.64527,-2.04069 z" fill="#c38c33" transform="translate(-90.464857,821.51822)"/><g transform="translate(-62.51518,-299.89886)" fill="#c38c33"><path d="m 468.76849,942.9429 -4.56717,6.00698 h 25.42132 l -4.36591,-6.00698 v -67.29996 l 4.0871,-7.46215 -25.40573,0.0929 4.92311,7.01348 -0.0929,67.65588 z"/><path d="m 522.34216,892.11262 6.34759,16.34891 h -12.60246 z m -18.48542,49.68152 8.73165,-24.95688 h 19.35241 l 9.95503,26.1335 -3.94805,6.05329 h 25.9324 l -4.08708,-6.08426 -28.93588,-74.74676 h -6.93591 l -28.68817,74.56098 -3.76197,6.27004 h 17.43267 z"/><path d="m 406.40572,875.28839 c 6.71931,0 17.92823,0.35609 19.5382,16.34893 1.59479,15.97735 -14.38272,17.74229 -19.5382,16.81337 z m -19.75495,73.69386 h 25.74646 l -5.99151,-6.03796 v -25.96321 c 0,0 5.52705,-0.12382 7.44695,-0.12382 11.50293,10.54321 14.38272,23.98137 27.80541,32.60495 5.7438,2.87965 14.38271,1.91961 20.14214,-0.95988 l 2.86401,-2.87964 c -18.2066,-1.9196 -22.04611,-22.04628 -35.46896,-31.62958 7.6634,-7.67904 14.67672,-14.55303 13.73233,-24.35308 -2.98801,-30.73164 -34.60212,-16.65857 -53.79957,-21.45796 l -2.12118,2.64741 4.84584,7.67889 -0.062,64.43579 -5.13999,6.03796 z"/><path d="m 340.88601,949.29528 h 6.93592 l 28.5798,-73.64754 5.41851,-7.55504 -18.98084,0.0929 5.55801,7.46228 -19.75478,50.81172 -18.28417,-51.16779 5.63541,-7.10621 h -30.18991 l 7.47777,7.33844 27.60428,73.77141 z"/><path d="m 270.90939,947.20986 c 8.6389,3.83953 20.25036,0.95989 26.38106,-2.53902 6.11551,-3.49892 10.26466,-8.65457 9.30463,-13.43832 -2.86415,-1.91993 -5.66638,-3.01914 -8.87114,-3.0035 0,0 1.13016,2.55437 0,4.7994 -2.13651,4.22641 -7.26088,8.51506 -17.04562,7.07525 -9.78457,-1.43983 -19.18196,-18.46995 -19.18196,-32.31096 0,-11.5184 2.84866,-24.15181 9.95489,-30.90194 5.65074,-5.37207 13.51571,-5.37207 19.15115,-2.0899 5.63542,3.29749 8.37573,8.4841 9.13433,13.05127 2.07458,-0.30964 6.68819,-3.855 8.09691,-7.43132 -2.87949,-5.7438 -7.47778,-9.49044 -14.38272,-12.46312 -6.92026,-2.97253 -16.79774,-4.95406 -28.56417,1.33145 -11.95189,6.37855 -18.65557,22.34059 -18.65557,37.60562 0,16.8753 9.33561,34.55582 24.67821,40.31509"/></g><circle cx="101.154" cy="228.551" r="11" fill="#c38c33"/><circle cx="596.079" cy="228.551" r="11" fill="#c38c33"/></svg>