<svg xmlns="http://www.w3.org/2000/svg" viewBox="0 0 357.9854 360.7657"><defs><style>.cls-1{fill:#fff;}.cls-2{fill:#000091;}.cls-3{fill:#e1000f;}.cls-4{fill:gray;}</style></defs><g id="Calque_2" data-name="Calque 2"><rect class="cls-1" x="-468.12063" y="-552.58556" width="1510.15581" height="1153.45192"/></g><g id="Calque_5" data-name="Calque 5"><path class="cls-2" d="M88.95548,83.8609c.097-.079.187-.146.285-.218l.036.012a1.45487,1.45487,0,0,1-.291.187.10326.10326,0,0,1-.03.019m14.15911-4.72171c-.036.024-.066.048-.103.072.055-.006.103-.018.103-.072m-4.47591,4.936a18.87782,18.87782,0,0,1-3.721,2.124,32.37054,32.37054,0,0,0-4.715,2.433h-35.811v-38.631h50.431a19.36339,19.36339,0,0,0-1.936.738,6.05537,6.05537,0,0,0-2.257,1.464,6.41571,6.41571,0,0,0-1.386,2.33,6.24225,6.24225,0,0,0-2.045,2.342c-.654,1.241-1.61,2.336-1.459,3.721.14,1.168.436,2.264.654,3.504a8.31005,8.31005,0,0,0,.29,1.241c.152.435,0,.95.218,1.313.151.217.079.514.369.659v.291c.079.073.079.145.218.145v.291a11.23715,11.23715,0,0,1,1.676,2.196c.152.436-.726.218-1.089.067a8.16567,8.16567,0,0,1-1.749-1.458.24655.24655,0,0,0-.078.145c.296.514,1.385,1.168.804,1.531-.29.151-.659-.218-.95.078-.072.145,0,.29,0,.436-.441-.291-.877-.146-1.313-.291-.29-.072-.369-.659-.726-.659a18.79785,18.79785,0,0,0-2.777-.509,13.902,13.902,0,0,0-3.873-.145,4.20706,4.20706,0,0,0-2.772,1.822v.224c.509.066.733-.369,1.168-.515.726-.145,1.386-.441,2.118-.587a12.08844,12.08844,0,0,1,3.135-.435,2.50065,2.50065,0,0,1,.738,0,10.8059,10.8059,0,0,0-3.728.732,12.35407,12.35407,0,0,0-2.559.726,16.44311,16.44311,0,0,1,5.621.805,8.34,8.34,0,0,1,1.828.877,5.09579,5.09579,0,0,0,.732.581,1.46943,1.46943,0,0,0,1.241.079h.369a6.01544,6.01544,0,0,0,2.989-1.392c0,.073.072.073.145.073a5.15814,5.15814,0,0,1-.653,1.755c0,.072-.079.217.072.29h.146c-.079,0-.146,0-.146.072,0,.146.218,0,.285.146a1.43181,1.43181,0,0,0-.944.442c0,.072.151.072.218.072-.146.146-.364.073-.436.218a.24942.24942,0,0,0,.139.073c-.067,0-.139,0-.139.072v.218c-.218,0-.297.145-.436.224.291.218.508,0,.805,0-.805.29-1.47.726-2.263.944-.151,0,0,.224-.151.224.218.139.369-.079.587-.079-1.023.587-2.046,1.096-3.147,1.755a.513.513,0,0,0-.139.29h-.297c-.139.073-.072.297-.218.436.364.224.805-.29,1.023,0,.073,0-.145.079-.29.079-.079,0-.079.145-.146.145h-.223c-.146.145-.285.218-.285.436-.151,0-.296,0-.369.145,1.61-.218,3.285-.073,4.817-.871a11.31735,11.31735,0,0,0,3.213-2.415.28225.28225,0,0,1,.072.151,3.20092,3.20092,0,0,1-1.24,1.677c-.436.217-.726.587-1.095.732q-.327.21749-.654.436c-2.704.949-5.918.508-8.254,2.335,0-.072-.073-.072-.145-.072-.145.145-.369.218-.435.369a.064.064,0,0,0,.018.048.18114.18114,0,0,0,.181.067.60424.60424,0,0,1,.121-.067,4.92768,4.92768,0,0,1,1.162-.568.91232.91232,0,0,0-.121.103c-.284.157-.557.326-.835.465h.018a1.64415,1.64415,0,0,0-.496.436.09012.09012,0,0,1,.048.133c-.024.043-.048.085-.072.133a.63364.63364,0,0,0-.049.079c-.03.054-.06.103-.096.157-.013.024-.025.042-.037.067-.018.03-.03.06-.048.091a.21406.21406,0,0,1-.031.054.35927.35927,0,0,1-.036.061.5863.5863,0,0,1-.03.066c-.006.006-.012.012-.012.018-.006.006-.006.012-.013.018-.005.006-.005.013-.011.018a.6046.6046,0,0,0,.078.025.42035.42035,0,0,0,.109.012c.266.006.406-.315.581-.472a2.82406,2.82406,0,0,1,.345-.242c.018.024.036.042.048.06-.005.018-.012.043-.018.067-.042.061-.078.133-.127.193-.036.055.037.097.085.079v.012a6.53877,6.53877,0,0,0-1.229.914.11.11,0,0,1,.097.036.06687.06687,0,0,1,.006.097c-.103.145-.212.291-.314.442-.067.115-.14.224-.212.339-.061.102-.121.206-.188.309-.012.023-.03.048-.042.072a.00588.00588,0,0,0-.006.006.34851.34851,0,0,0,.224-.03c.399-.369.781-.751,1.18-1.126a.21354.21354,0,0,0,.109-.03,7.46235,7.46235,0,0,1,1.21-.956,1.62522,1.62522,0,0,0,.502-.43l.109-.127a.21154.21154,0,0,1,.048-.03,6.25579,6.25579,0,0,1,1.356-.551c.03-.006.055-.012.079-.018a24.04342,24.04342,0,0,1,2.662-.472,7.73128,7.73128,0,0,0,1.816-.073c.46-.103.883-.369,1.319-.508v.139c1.095-.435,1.9-1.386,2.989-1.748.079,0,.218.145.369.072a2.96144,2.96144,0,0,1,2.336-1.095c0,.072,0,.145.073.145h.048l-.781.587c-.072.073,0,.145.079.145.357-.145.581-.435.944-.587-.073.079-.073.218-.139.297a6.853,6.853,0,0,0-.799.635,24.18122,24.18122,0,0,0-2.438,2.481h.011c-.417.448-.835.896-1.252,1.307m-11.225-5.228c.514-.218,1.101,0,1.537-.436-.151-.151-.369-.078-.514-.296-.146-.073-.364.073-.509.145-.296.151-.805.151-.877.514-.073.146.218.073.363.073m-11.171-1.604a24.67941,24.67941,0,0,1,5.628-5.04c.139-.073-.224.218.073.145.95-.218,1.24-1.168,1.676-1.894.587-.95,1.609-1.319,2.336-2.118a.26616.26616,0,0,1-.073.218.26849.26849,0,0,0,.218.072c.296-.217.659-.145.877-.435a2.84725,2.84725,0,0,0-1.9-.079,14.31266,14.31266,0,0,0-4.091,3.213,9.87545,9.87545,0,0,1-2.48,2.045,22.20124,22.20124,0,0,1-2.33,3.722.26252.26252,0,0,0,.066.151m6.064-4.822c0-.073,0-.146-.079-.146a.90973.90973,0,0,0-.581.66c0,.073.079.073.145.073a.57759.57759,0,0,0,.297-.291c.066-.133.139-.151.218-.296m3.389,10.94c.06-.145-.327-.109-.388-.066a.97611.97611,0,0,0-.157.163,3.25284,3.25284,0,0,1-.303.284c-.181.17-.351.352-.538.515-.121.103.278.163.363.085.09-.085.187-.17.278-.255.049,0,.091-.012.109-.012a1.584,1.584,0,0,0,.551-.387c.06-.054-.006-.097-.097-.115a.66363.66363,0,0,0,.182-.212m-1.308-.605c.599-.375,1.204-.781,1.864-1.138a1.10905,1.10905,0,0,0-.66-.145c-.363.073-.804-.145-1.167,0-.926.43-2.1.4-2.796,1.078-.006,0-.006.005-.012.005a1.13373,1.13373,0,0,0-.157.182.18816.18816,0,0,1-.037.03c-.066.061-.139.109-.224.176a3.621,3.621,0,0,0-.375.369c0,.006,0,.006-.006.012-.055.048-.103.103-.164.151-.096.067.055.164.128.109.102-.078.169-.169.272-.236l.037-.018a2.39869,2.39869,0,0,0-.291.393.06709.06709,0,0,1,.006.049c-.006.036-.018.073-.024.109a.02306.02306,0,0,1-.006.018.50609.50609,0,0,1-.024.079.14335.14335,0,0,1-.013.048.022.022,0,0,0-.006.018,1.42984,1.42984,0,0,1-.066.17c-.006.011-.006.018-.013.03-.005,0-.005.006-.005.012l-.013.012a1.5741,1.5741,0,0,1-.078.145c-.03.055-.067.103-.097.158a.25522.25522,0,0,1-.03.042c-.006.006-.006.006-.006.012-.073.103-.151.206-.23.308-.012.019-.031.037-.042.055-.043.055-.085.109-.127.157a.98549.98549,0,0,0-.073.097c-.006,0-.006.006-.012.012-.079.097-.158.182-.236.266.006.012.011.025.018.037v.006a.7164.7164,0,0,0,.066.115l.018.036a.31919.31919,0,0,0,.031.043.0828.0828,0,0,0,.06-.031h.006a.6983.6983,0,0,0,.049-.078l.006-.006c.006-.012.012-.019.018-.031l.024-.024c.006-.006.006-.018.012-.024a.00586.00586,0,0,0,.006-.006,3.38411,3.38411,0,0,1,.43-.448c.085-.078.176-.151.266-.224.006-.012.03-.018.048-.018a.12.12,0,0,1,.049.006c.036-.018.079-.042.115-.06a1.114,1.114,0,0,1,.127-.067v.012c-.012.085.115.085.163.055a.74257.74257,0,0,0,.097-.097c.055-.073.109-.121.157-.176v-.006c.007-.006.013-.006.013-.012.036-.036.072-.067.108-.103l.007-.006.006-.006c.036-.036.066-.066.103-.097a3.65712,3.65712,0,0,1,.732-.563.09232.09232,0,0,1,.121.031c.006.006.012.012.012.018.327-.151.653-.29.962-.472.29-.169.563-.363.835-.557.006-.006.013-.006.018-.012m1.495-5.077c.218.218.653.146.95,0a1.1963,1.1963,0,0,1,.726-.145c.073,0,.073-.146.073-.224a1.5385,1.5385,0,0,0,.586.078,20.22443,20.22443,0,0,0,5.041-1.536c-1.906-1.459-4.308-1.967-6.571-2.627.217,0,.435.218.653,0-.363-.29-.805-.145-1.167-.362.078,0,.223.072.296-.079a8.49819,8.49819,0,0,0-1.755-.436.70742.70742,0,0,0,.581-.726c0-.079-.145-.079-.218-.079a3.94112,3.94112,0,0,0-1.827,2.197c.514.284,1.101.066,1.609.145-.218.218-.587.218-.871.291-.23.054-.442.217-.369.362a.27372.27372,0,0,0,.163.109.96837.96837,0,0,0-.454.261c.291.218.581.072.878.072,0,.146.145.146.218.218a1.29975,1.29975,0,0,0-.732.654c-.146.369-.509.514-.727.805v.217a12.76749,12.76749,0,0,0-2.118,1.9c.073,0,.073.073.073.146-.151.217-.442.29-.515.514,0,.073,0,.139.073.139.878-.29,1.531-.944,2.336-1.24.587-.145,1.023-.508,1.537-.654.363-.072.799-.218,1.162-.291,0,.073,0,.146.078.146h.582c-.073.145-.364.073-.291.145"/><path class="cls-3" d="M160.96128,50h-41.56a1.47921,1.47921,0,0,1,.393.182c.339.181.775.417,1.054.562a3.49591,3.49591,0,0,1,1.391,1.162c.145.224.364.659.218.95-.145.369-.218.95-.587,1.095a2.72052,2.72052,0,0,1-1.531.146,3.57581,3.57581,0,0,1-.871-.146,5.99276,5.99276,0,0,1,2.844,1.973c.072.145.363.218.66.218.066,0,.066.145.066.218-.145.151-.285.218-.218.441h.218c.369-.145.297-.877.805-.659a.8208.8208,0,0,1,.29,1.095,7.83623,7.83623,0,0,1-.871.732.62667.62667,0,0,0,0,.509,2.25625,2.25625,0,0,1,.363.877c.218.508.291,1.095.508,1.61a10.11763,10.11763,0,0,1,.515,3.28c0,.587-.297,1.095-.073,1.682a6.17143,6.17143,0,0,0,.799,1.531,11.02264,11.02264,0,0,1,.805,1.167c.435.733,1.24,1.459.871,2.336-.212.515-1.01.442-1.525.732-.441.364-.073.951.145,1.314.37.659-.436,1.095-.95,1.313.145.218.436.145.514.29.067.369.436.587.218.95-.296.442-1.174.66-.732,1.313a1.92585,1.92585,0,0,1-.072,1.61,1.79469,1.79469,0,0,1-1.313,1.095,2.98092,2.98092,0,0,1-1.386.073,1.08618,1.08618,0,0,0-.442-.146,32.77553,32.77553,0,0,0-3.721-.514,4.22483,4.22483,0,0,0-1.023.291,6.60332,6.60332,0,0,0-.884.786l-.005.007a1.93046,1.93046,0,0,0-.164.181c-.03.03-.061.073-.091.109-.024.024-.042.049-.066.072a8.62685,8.62685,0,0,0-.575.841.39.39,0,0,0-.031.061c-.018.031-.036.067-.054.097a7.24379,7.24379,0,0,0-.557,1.343c-.496,1.671-.278,3.105.073,3.455.097.098,2.408.811,4.018,1.525a13.50539,13.50539,0,0,1,1.724.872h40.81Z"/><path class="cls-4" d="M121.87728,64.09378c.291.073.726.073.726.218-.139.587-1.023.732-1.458,1.313h-.218c-.218.145-.152.514-.369.514a1.02846,1.02846,0,0,0-.654.073,1.24093,1.24093,0,0,0,1.089.436.32622.32622,0,0,1,.23.296.20858.20858,0,0,0,.139-.079c.079,0,.146,0,.146.079v.291c-.218.29-.581.145-.872.217a3.28326,3.28326,0,0,0,1.677,0c.441-.145,0-.877.29-1.24-.139,0,0-.224-.139-.224.139-.139.29-.363.435-.436a.52384.52384,0,0,0,.436-.217c0-.146-.296-.219-.218-.364.436-.29.805-.732.654-1.168-.067-.217-.654-.217-1.017-.369a2.46689,2.46689,0,0,0-1.246.073,5.51872,5.51872,0,0,0-1.089.296,5.10058,5.10058,0,0,0-1.393.727,10.222,10.222,0,0,1,1.61-.436,4.731,4.731,0,0,1,1.241,0"/><path d="M148.714,300.76269c.786,0,1.464.6,1.101,2.112l-3.655.847c.635-1.7,1.7-2.959,2.554-2.959m2.021,5.9h-.726c-.914,1.083-1.894,1.93-2.868,1.93-1.005,0-1.513-.593-1.513-1.93a8.15073,8.15073,0,0,1,.169-1.615l5.894-1.943c1.15-2.723-.23-3.915-1.852-3.915-2.789,0-5.954,4.659-5.954,8.75,0,1.827.865,2.826,2.233,2.826,1.597,0,3.255-1.555,4.617-4.103m-1.174-8.556,4.151-3.873v-.448h-2.233l-2.553,4.321Zm-12.72,2.723h1.955l-3.111,8.49a.98823.98823,0,0,0,.86,1.446,7.22264,7.22264,0,0,0,5.615-4.127h-.557a7.73649,7.73649,0,0,1-3.594,2.172l2.85-7.981h2.917l.363-1.211h-2.832l1.089-3.068h-1.131l-2.021,3.068-2.403.339Zm-2.644-.405a.87223.87223,0,0,0-.696-1.235c-1.707,0-3.728,1.537-4.532,3.685h.55a4.30574,4.30574,0,0,1,2.36-1.809l-3.256,8.465a.84769.84769,0,0,0,.709,1.235c1.615,0,3.509-1.555,4.314-3.679h-.55a4.35653,4.35653,0,0,1-2.367,1.809Zm.599-4.255a1.4035,1.4035,0,1,0-1.404-1.404,1.40131,1.40131,0,0,0,1.404,1.404m-18.747,13.023c-.424.956.025,1.573.956,1.573a.95315.95315,0,0,0,1.065-.763l2.258-5.978c1.04-1.277,3.194-2.639,4.042-2.639.617,0,.532.509.126,1.271l-3.467,6.663a.97891.97891,0,0,0,.854,1.446c1.7,0,3.721-1.531,4.532-3.679h-.557a4.35932,4.35932,0,0,1-2.36,1.809l2.977-6.021a4.87243,4.87243,0,0,0,.582-2.063,1.47209,1.47209,0,0,0-1.58-1.622c-1.464,0-2.953,1.664-4.72,3.703v-1.573c0-1.125-.363-2.13-1.386-2.13-.635,0-1.258.557-1.833,1.343v.212c1.107-.067,1.597,1.597.811,3.34Zm-.042-7.407c.405-1.38.194-2.596-.871-2.596-1.253,0-1.574.956-2.851,3.703v-1.573c0-1.125-.363-2.13-1.379-2.13-1.199,0-2.282,1.852-3.111,3.685h.551c.575-.835,1.108-1.325,1.537-1.325.508,0,.787.792,0,2.535l-2.3,5.108c-.429.956.019,1.573.956,1.573a.95358.95358,0,0,0,1.066-.763l2.257-5.978c.635-.793,1.21-1.471,1.93-2.239Zm-13.065-1.023c.787,0,1.465.6,1.108,2.112l-3.661.847c.641-1.7,1.706-2.959,2.553-2.959m2.021,5.9h-.726c-.908,1.083-1.888,1.93-2.874,1.93-.999,0-1.507-.593-1.507-1.93a7.72142,7.72142,0,0,1,.176-1.615l5.887-1.943c1.15-2.723-.236-3.915-1.845-3.915-2.79,0-5.967,4.659-5.967,8.75,0,1.827.878,2.826,2.239,2.826,1.598,0,3.262-1.555,4.617-4.103m-13.893-5.833h1.954l-3.104,8.49a.98247.98247,0,0,0,.847,1.446,7.22366,7.22366,0,0,0,5.622-4.127h-.557a7.783,7.783,0,0,1-3.588,2.172l2.844-7.981h2.916l.364-1.211H95.541l1.078-3.068h-1.12l-2.027,3.068-2.402.339Zm-10.747,6.614c0-2.614,2.917-6.166,4.556-6.166a3.73218,3.73218,0,0,1,.999.126l-1.7,4.533c-.987,1.192-2.494,2.638-3.196,2.638-.405,0-.659-.338-.659-1.131m8.956-8.744-.89-.061-.998.98h-.212c-4.853,0-9.047,5.447-9.047,9.404a1.61068,1.61068,0,0,0,1.749,1.743c1.253,0,2.487-1.785,3.866-3.704l-.06.684c-.175,1.961.424,3.02,1.447,3.02,1.192,0,2.275-1.852,3.104-3.679h-.551c-.575.829-1.107,1.319-1.531,1.319-.448,0-.768-.811,0-2.536Zm-10.342,3.086c.412-1.38.2-2.596-.865-2.596-1.259,0-1.579.956-2.856,3.703v-1.573c0-1.125-.358-2.13-1.38-2.13-1.198,0-2.276,1.852-3.111,3.685h.557c.569-.835,1.102-1.325,1.531-1.325.515,0,.787.792,0,2.535l-2.299,5.108c-.43.956.024,1.573.956,1.573a.94654.94654,0,0,0,1.065-.763l2.257-5.978c.635-.793,1.21-1.471,1.936-2.239Zm-16.296,8.556.212-.659c-2.832-.533-3.189-.533-2.064-3.619l1.15-3.171h3.129c1.404,0,1.428.575,1.216,2.106h.805l1.869-5.125h-.804c-.702,1.21-1.259,2.105-2.79,2.105H62.278l1.64-4.49c.508-1.428.811-1.724,2.723-1.724h1.361c1.979,0,2.215.533,2.215,2.535h.787l.659-3.491H59.918l-.212.659c2.275.466,2.487.678,1.422,3.619l-2.553,6.977c-1.065,2.917-1.507,3.147-4.127,3.619l-.194.659Z"/><path d="M120.22038,274.16939c.787,0,1.47.593,1.107,2.106l-3.66.853c.641-1.706,1.706-2.959,2.553-2.959m2.021,5.894h-.726c-.914,1.084-1.888,1.937-2.869,1.937-.998,0-1.506-.594-1.506-1.937a7.82449,7.82449,0,0,1,.163-1.616l5.9-1.942c1.144-2.723-.242-3.915-1.851-3.915-2.79,0-5.961,4.665-5.961,8.75,0,1.828.872,2.832,2.233,2.832,1.597,0,3.255-1.555,4.617-4.109m-1.168-8.557,4.151-3.872v-.448h-2.239l-2.553,4.32Zm-12.732,2.724h1.967l-3.11,8.489a.99034.99034,0,0,0,.853,1.453,7.22485,7.22485,0,0,0,5.616-4.133h-.551a7.72573,7.72573,0,0,1-3.595,2.172l2.844-7.981h2.917l.363-1.21h-2.826l1.077-3.068h-1.125l-2.021,3.068-2.409.338Zm-2.632-.4a.875.875,0,0,0-.702-1.24c-1.706,0-3.727,1.537-4.532,3.685h.55a4.32388,4.32388,0,0,1,2.367-1.809l-3.256,8.465a.84961.84961,0,0,0,.696,1.241c1.622,0,3.516-1.555,4.32-3.685h-.55a4.33817,4.33817,0,0,1-2.36,1.809Zm.599-4.26a1.40428,1.40428,0,0,0,1.404-1.403,1.407,1.407,0,0,0-2.814,0,1.39425,1.39425,0,0,0,1.41,1.403m-11.328,12.726,5.942-15.552-.193-.236-3.728.424v.448l.732.55c.654.515.442,1.005-.157,2.578l-4.629,12.211a.97924.97924,0,0,0,.847,1.453c1.701,0,3.51-1.537,4.321-3.685h-.557a4.79274,4.79274,0,0,1-2.578,1.809m-11.273-1.446c0-2.62,2.917-6.172,4.55-6.172a3.70542,3.70542,0,0,1,1.005.127l-1.7,4.532c-.981,1.192-2.494,2.638-3.195,2.638-.406,0-.66-.339-.66-1.125m8.961-8.75-.895-.061-1.004.981h-.212c-4.853,0-9.041,5.445-9.041,9.403a1.61122,1.61122,0,0,0,1.743,1.749c1.259,0,2.493-1.792,3.879-3.703l-.067.678c-.169,1.96.424,3.025,1.447,3.025,1.186,0,2.275-1.858,3.104-3.685h-.551c-.581.828-1.113,1.319-1.537,1.319-.442,0-.762-.805,0-2.535Zm-21.663,14.13c0-1.126,1.083-1.828,2.639-2.445a18.12748,18.12748,0,0,0,2.299.871c1.616.533,2.233.75,2.233,1.235,0,1.047-1.767,1.833-4.169,1.833-2.022,0-3.002-.43-3.002-1.494m4.406-6.869c-.703,0-.981-.599-.981-1.276,0-1.895,1.023-4.684,2.62-4.684.702,0,.975.593.975,1.277,0,1.893-1.017,4.683-2.614,4.683m4.617,5.828c0-1.362-1.211-1.852-3.195-2.445-1.701-.514-2.469-.66-2.469-1.21a1.73489,1.73489,0,0,1,1.089-1.368,4.962,4.962,0,0,0,4.599-4.762,2.967,2.967,0,0,0-.236-1.174h2.36l.363-1.21h-3.746a2.89841,2.89841,0,0,0-1.513-.43,4.9366,4.9366,0,0,0-4.871,4.707,2.73837,2.73837,0,0,0,2.251,2.827c-1.379.617-2.142,1.343-2.142,2.19a1.33989,1.33989,0,0,0,.569,1.15c-3.189.938-4.441,2.003-4.441,3.51,0,1.47,1.93,2.087,4.229,2.087,3.897,0,7.153-2.105,7.153-3.872m-14.874-9.107c1.404,0,1.422.574,1.21,2.105h.811l1.87-5.125h-.805c-.708,1.21-1.259,2.106-2.79,2.106h-3.086l1.555-4.279c.509-1.428.805-1.7,2.724-1.7h1.355c1.984,0,2.221.533,2.221,2.511h.786l.66-3.491h-11.746l-.217.659c2.275.467,2.486.684,1.427,3.619l-2.553,6.977c-1.065,2.916-1.507,3.153-4.127,3.619l-.194.659h13.065l2.342-3.703h-.895a8.56457,8.56457,0,0,1-5.979,2.747c-3.468,0-3.147-.151-1.997-3.322l1.234-3.382Zm1.7-8.914,4.151-2.85v-.448h-2.511l-2.3,3.298Z"/><path d="M118.84048,247.56979c.786,0,1.464.593,1.101,2.106l-3.655.853c.635-1.706,1.7-2.959,2.554-2.959m2.021,5.894h-.726c-.92,1.084-1.894,1.937-2.875,1.937-.998,0-1.513-.599-1.513-1.937a8.24731,8.24731,0,0,1,.17-1.615l5.9-1.937c1.149-2.729-.236-3.915-1.858-3.915-2.784,0-5.954,4.659-5.954,8.744,0,1.827.877,2.832,2.233,2.832,1.597,0,3.255-1.555,4.623-4.109m-1.174-8.556,4.151-3.873v-.442h-2.233l-2.554,4.315Zm-12.193,2.729h1.555l-3.105,8.484a.99024.99024,0,0,0,.854,1.452,7.22741,7.22741,0,0,0,5.609-4.127h-.544a7.82665,7.82665,0,0,1-3.601,2.166l2.85-7.975h2.917l.363-1.216h-2.832l1.083-3.062h-1.125l-2.021,3.062-2.003.338Zm-1.532.956c.406-1.386.194-2.596-.871-2.596-1.259,0-1.573.956-2.85,3.697v-1.573c0-1.125-.363-2.124-1.386-2.124-1.191,0-2.275,1.852-3.104,3.679h.551c.574-.829,1.107-1.319,1.53-1.319.515,0,.787.787,0,2.529l-2.299,5.108c-.423.962.025,1.579.963,1.579.574,0,.829-.151,1.058-.768l2.257-5.979c.642-.787,1.217-1.47,1.943-2.233Zm-13.064-1.023c.793,0,1.471.593,1.101,2.106l-3.655.853c.636-1.706,1.701-2.959,2.554-2.959m2.021,5.894h-.72c-.92,1.084-1.9,1.937-2.874,1.937-.999,0-1.513-.599-1.513-1.937a8.24694,8.24694,0,0,1,.169-1.615l5.894-1.937c1.15-2.729-.23-3.915-1.852-3.915-2.789,0-5.954,4.659-5.954,8.744,0,1.827.871,2.832,2.233,2.832,1.597,0,3.256-1.555,4.617-4.109m-14.45,2.385c-.575,0-1.398-.533-1.398-.999a11.96914,11.96914,0,0,1,.569-1.64l.962-2.535c1.017-1.211,2.572-2.512,3.443-2.512.533,0,.938.345.938,1.132,0,2.317-2.166,6.554-4.514,6.554m6.705-7.492c0-1.725-.636-2.36-1.828-2.36-1.489,0-2.898,1.573-4.296,3.486l3.551-9.337-.193-.236-3.727.423v.448l.726.557c.665.508.453,1.041-.145,2.571l-3.831,9.876a10.88929,10.88929,0,0,0-.617,1.809c0,1.017,1.379,1.979,2.638,1.979,2.893,0,7.722-5.216,7.722-9.216m-11.576-1.125a.8685.8685,0,0,0-.703-1.235c-1.7,0-3.721,1.531-4.532,3.679h.557a4.34059,4.34059,0,0,1,2.36-1.809l-3.262,8.472a.855.855,0,0,0,.708,1.234c1.616,0,3.516-1.555,4.321-3.685h-.551a4.32645,4.32645,0,0,1-2.366,1.809Zm.599-4.261a1.39981,1.39981,0,0,0,1.398-1.403,1.4015,1.4015,0,1,0-2.803,0,1.39,1.39,0,0,0,1.405,1.403m-8.575-1.361h-7.746l-.212.66c2.276.471,2.488.683,1.423,3.618l-2.511,6.977c-1.066,2.917-1.507,3.153-4.127,3.619l-.194.66h11.788l2.553-4.557h-.889c-1.453,1.604-3.153,3.601-5.767,3.601-1.985,0-2.215-.339-1.15-3.323l2.512-6.977c1.04-2.917,1.506-3.147,4.127-3.618Z"/><path d="M61.57812,107.97559h7.69141l10.958,28.94629H73.9834l-2.77051-7.52637H59.63477l-2.77051,7.52637H50.62012Zm7.81543,16.417-3.96972-10.876-3.96973,10.876Z"/><path d="M84.69238,107.97559h7.31934L99.083,120.13281l7.07129-12.15722h7.31836v28.94629h-5.8711V116.16309l-6.45117,10.834H97.01562l-6.45117-10.834v20.75879H84.69238Z"/><path d="M121.53613,107.97559h8.51758c6.03809,0,9.71777,2.97753,9.71777,7.85644a6.60987,6.60987,0,0,1-3.10156,5.707,7.36428,7.36428,0,0,1,4.75586,6.86426c0,5.293-4.09375,8.51856-10.751,8.51856h-9.13867Zm5.8711,4.87988v6.5332h2.77148c2.23242,0,3.55567-1.19922,3.55567-3.30859,0-2.02539-1.32325-3.22461-3.55567-3.22461Zm0,11.41308V132.042h3.59765c2.7295,0,4.38379-1.44726,4.38379-3.88672,0-2.48144-1.65429-3.88672-4.38379-3.88672Z"/><path d="M154.78223,107.97559h7.69043l10.959,28.94629H167.1875l-2.77051-7.52637h-11.5791l-2.77051,7.52637h-6.24414Zm7.81445,16.417-3.96973-10.876-3.96972,10.876Z"/><path d="M179.55078,128.98242a8.34868,8.34868,0,0,0,6.40918,3.55567c2.31543,0,3.72168-1.24024,3.72168-3.30762,0-5.335-13.14941-3.8877-13.14941-13.6875,0-4.58985,3.80371-8.39453,9.3457-8.39453a12.84635,12.84635,0,0,1,10.13086,4.87988L191.708,115.915c-1.69531-2.19141-3.59766-3.63867-5.78906-3.63867a3.1317,3.1317,0,0,0-3.43262,3.05957c0,5.252,13.15039,3.76367,13.15039,13.6875-.083,5.458-4.30078,8.72558-9.63477,8.72558a12.97012,12.97012,0,0,1-10.71-4.83886Z"/><path d="M203.45117,128.98242a8.34868,8.34868,0,0,0,6.40918,3.55567c2.31543,0,3.72168-1.24024,3.72168-3.30762,0-5.335-13.14941-3.8877-13.14941-13.6875,0-4.58985,3.80371-8.39453,9.3457-8.39453a12.84635,12.84635,0,0,1,10.13086,4.87988L215.6084,115.915c-1.69531-2.19141-3.59766-3.63867-5.78906-3.63867a3.1317,3.1317,0,0,0-3.43262,3.05957c0,5.252,13.15039,3.76367,13.15039,13.6875-.083,5.458-4.30078,8.72558-9.63477,8.72558a12.97012,12.97012,0,0,1-10.71-4.83886Z"/><path d="M233.01758,107.97559H240.708l10.959,28.94629h-6.24414l-2.77051-7.52637h-11.5791l-2.77051,7.52637h-6.24414Zm7.81445,16.417-3.96973-10.876-3.96972,10.876Z"/><path d="M256.13184,107.97559h11.37207c9.17968,0,15.38281,6.65722,15.38281,14.47265s-6.20313,14.47364-15.38281,14.47364H256.13184Zm5.87207,5.334v18.27734h5.583a9.1395,9.1395,0,1,0,0-18.27734Z"/><path d="M288.55078,107.97559h16.87207v4.87988h-11v6.86426h9.3457v4.8789h-9.3457V132.042h11v4.87989H288.55078Z"/><path d="M54.25879,149.97559H65.63086c9.17969,0,15.38281,6.65722,15.38281,14.47265s-6.20312,14.47364-15.38281,14.47364H54.25879Zm5.87207,5.334v18.27734h5.582a9.1395,9.1395,0,1,0,0-18.27734Z"/><path d="M86.67773,149.97559h16.8711v4.87988H92.5498v6.86426h9.34571v4.8789H92.5498V174.042h10.999v4.87989H86.67773Z"/><path d="M121.12207,149.97559h16.87109v4.87988h-10.999v6.86426h9.3457v4.8789h-9.3457v12.32325h-5.87207Z"/><path d="M143.16211,149.97559h8.84961c6.36816,0,10.2959,3.2666,10.2959,8.64257a7.76606,7.76606,0,0,1-4.67285,7.48438l9.05664,12.81934h-6.90625l-7.73243-11.70313h-3.01855v11.70313h-5.87207Zm5.87207,4.87988v7.48437h3.30762c2.48144,0,3.92871-1.44726,3.92871-3.80468,0-2.19141-1.44727-3.67969-3.92871-3.67969Z"/><path d="M177.73145,149.97559h7.6914l10.958,28.94629h-6.24414l-2.77051-7.52637H175.78809l-2.77051,7.52637h-6.24414Zm7.81543,16.417-3.96973-10.876-3.96973,10.876Z"/><path d="M200.84668,149.97559h7.52539l12.94336,20.92382V149.97559h5.87207v28.94629h-7.52637l-12.94336-20.92383v20.92383h-5.87109Z"/><path d="M255.76074,170.2793l4.63086,3.55566a14.80379,14.80379,0,0,1-12.19824,5.91406,15.301,15.301,0,1,1,12.19824-24.72851l-4.63086,3.59765a9.05144,9.05144,0,0,0-7.56738-3.96972c-5.459,0-9.3457,4.25879-9.3457,9.7998s3.88672,9.80078,9.3457,9.80078A9.05385,9.05385,0,0,0,255.76074,170.2793Z"/><path d="M265.47656,149.97559h16.87207v4.87988h-11v6.86426h9.34571v4.8789h-9.34571V174.042h11v4.87989H265.47656Z"/><path d="M54.25879,191.97559H71.12988v4.8789h-10.999v6.86426h9.3457v4.87988h-9.3457V216.041h10.999v4.87988H54.25879Z"/><path d="M77.95312,191.97559h7.5254l12.94336,20.92285V191.97559H104.294V220.9209H96.76758L83.82422,199.99707V220.9209h-5.8711Z"/><path d="M143.61719,212.27832,148.249,215.835a14.8036,14.8036,0,0,1-12.19922,5.91309A15.30052,15.30052,0,1,1,148.249,197.02051l-4.63183,3.59668a9.05124,9.05124,0,0,0-7.56739-3.96973c-5.458,0-9.34472,4.25977-9.34472,9.80078s3.88672,9.79981,9.34472,9.79981A9.04886,9.04886,0,0,0,143.61719,212.27832Z"/><path d="M153.334,191.97559h5.87207v11.53613h14.59668V191.97559h5.87207V220.9209h-5.87207V208.84668H159.20605V220.9209H153.334Z"/><path d="M187.7793,191.97559h5.87109V220.9209H187.7793Z"/><path d="M201.75586,191.97559h7.52539l12.94336,20.92285V191.97559h5.87207V220.9209h-7.52637L207.627,199.99707V220.9209h-5.87109Z"/><path d="M236.2002,191.97559h16.87207v4.8789h-11v6.86426h9.3457v4.87988h-9.3457V216.041h11v4.87988H236.2002Z"/></g></svg>