<?xml version="1.0" encoding="utf-8"?>
<!-- Generator: Adobe Illustrator 22.0.1, SVG Export Plug-In . SVG Version: 6.00 Build 0)  -->
<svg version="1.1" id="레이어_1" xmlns="http://www.w3.org/2000/svg" xmlns:xlink="http://www.w3.org/1999/xlink" x="0px"
	 y="0px" viewBox="0 0 424 70" enable-background="new 0 0 424 70" xml:space="preserve">
<g>
	<path d="M63.125,67.08c-0.173,0-0.337-0.091-0.426-0.245c-0.103-0.178-0.086-0.401,0.045-0.56c0.548-0.667,1.148-1.233,1.728-1.78
		c0.799-0.753,1.553-1.464,2.074-2.349c0.01-0.017,0.022-0.034,0.034-0.05c3.539-4.61,5.522-10.341,6.243-18.035
		c0.71-7.58,1.125-15.233,1.408-21.053c0.238-4.897,2.023-8.964,5.45-12.394c0,0-8.784,0-10.735,0.002
		c-0.361,0-0.721,0.011-1.082,0.022c-0.293,0.009-0.586,0.017-0.879,0.021l-0.074,0c-0.498,0-1.215-0.055-1.685-0.531
		c-0.299-0.304-0.447-0.725-0.439-1.25c0.018-1.149,0.755-1.731,2.192-1.731h0.055c1.062,0.008,2.125,0.012,3.187,0.017
		c3.393,0.014,6.901,0.03,10.352,0.143c0.159,0.005,0.313,0.008,0.464,0.008c1.326,0,2.059-0.247,2.392-1.601
		c0.255-1.038,1.023-1.708,1.956-1.708c0.038,0,0.077,0.001,0.117,0.003c0.846,0.048,1.471,0.677,1.713,1.727
		c0.295,1.281,1.036,1.506,2.483,1.506l0.2-0.001c1.443-0.015,2.887-0.022,4.33-0.022c3.104,0,6.259,0.029,9.311,0.058
		c0,0,0.144,0.001,0.145,0.001c0.126,0,0.23-0.004,0.338-0.009c0.128-0.005,0.259-0.011,0.389-0.011c1.081,0,1.65,0.479,1.69,1.421
		c0.024,0.57-0.124,1.027-0.44,1.357c-0.504,0.526-1.306,0.596-2.024,0.596l-3.369-0.032c-4.481-0.044-9.113-0.089-13.668-0.089
		l-0.776,0c-3.391,0.003-6.321,2.531-6.966,6.01c-0.098,0.526-0.003,0.647-0.002,0.648c0,0,0.041,0.036,0.228,0.036
		c0.135,0,0.28-0.016,0.422-0.032c0.174-0.018,0.347-0.036,0.504-0.036c3.151,0.031,6.28,0.048,9.409,0.065
		c2.199,0.012,4.398,0.024,6.597,0.041c1.121,0.009,2.816,0.022,2.996,2.097c-0.004,3.23,0.037,6.472,0.076,9.607
		c0.103,8.148,0.209,16.573-0.502,24.861c-0.832,5.044-2.761,8.966-5.902,12.028c-0.076,0.075-0.167,0.133-0.268,0.174l-0.917,0.356
		c-0.093,0.037-0.19,0.055-0.289,0.055c-0.243,0-0.479-0.115-0.629-0.309c-0.151-0.193-0.203-0.442-0.143-0.68
		c0.059-0.237,0.144-0.512,0.315-0.754c3.705-5.225,4.11-11.237,4.22-17.455c0.027-1.533-0.092-3.095-0.207-4.606
		c-0.136-1.788-0.276-3.637-0.183-5.488c0.123-2.447,0.174-4.941,0.223-7.354c0.048-2.346,0.097-4.772,0.213-7.158
		c0.036-0.737-0.069-1.225-0.322-1.49c-0.249-0.262-0.719-0.383-1.477-0.383c-0.159,0-0.327,0.005-0.503,0.015
		c-2.647,0.142-4.829,0.209-6.865,0.209c-1.944,0-3.723-0.061-5.44-0.186c-0.242-0.017-0.467-0.027-0.676-0.027
		c-0.787,0-1.286,0.132-1.569,0.417c-0.295,0.296-0.431,0.829-0.429,1.675c0.004,1.166,0.017,2.332,0.03,3.497
		c0.05,4.482,0.102,9.117-0.4,13.716c-0.994,9.096-2.693,16.469-7.754,22.89c-0.03,0.038-0.065,0.071-0.105,0.099
		c-0.559,0.39-1.072,0.847-1.614,1.331c-1.287,1.148-2.618,2.336-4.682,2.689C63.181,67.077,63.153,67.08,63.125,67.08z"/>
	<path fill="#FFFFFF" d="M69.223,62.649c-1.927,1.343-3.336,3.465-6.097,3.939c1.28-1.559,2.899-2.583,3.846-4.192
		c4.139-5.392,5.727-11.716,6.342-18.289c0.656-7.008,1.068-14.043,1.41-21.074c0.247-5.087,2.153-9.285,6.194-12.911
		c-4.177,0-8.074-0.002-11.971,0.002c-0.656,0.001-1.311,0.034-1.967,0.042c-0.895,0.011-1.717-0.178-1.7-1.281
		c0.017-1.11,0.888-1.252,1.751-1.246c4.509,0.032,9.02,0.012,13.526,0.16c1.652,0.054,2.888-0.089,3.35-1.967
		c0.173-0.702,0.704-1.38,1.566-1.331c0.753,0.043,1.113,0.704,1.261,1.346c0.409,1.774,1.649,1.903,3.168,1.887
		c4.59-0.049,9.181-0.005,13.771,0.037c0.761,0.007,1.884-0.251,1.935,0.931c0.057,1.33-1.013,1.449-2.077,1.439
		c-5.903-0.054-11.806-0.126-17.709-0.12c-3.667,0.004-6.778,2.787-7.45,6.413c-0.317,1.707,0.88,1.191,1.654,1.199
		c5.328,0.053,10.656,0.065,15.984,0.107c1.171,0.009,2.369,0.038,2.509,1.647c-0.023,11.462,0.557,22.932-0.426,34.383
		c-0.741,4.486-2.45,8.495-5.755,11.718c-0.03,0.03-0.067,0.053-0.107,0.069c-0.304,0.119-0.608,0.237-0.912,0.355
		c-0.229,0.089-0.465-0.117-0.406-0.355c0.054-0.215,0.12-0.421,0.239-0.589c3.789-5.343,4.2-11.496,4.311-17.731
		c0.06-3.367-0.56-6.695-0.391-10.078c0.243-4.833,0.202-9.679,0.436-14.512c0.1-2.066-0.827-2.481-2.82-2.374
		c-4.079,0.22-8.169,0.321-12.243,0.024c-2.361-0.172-3.21,0.41-3.203,2.557c0.019,5.719,0.26,11.416-0.368,17.158
		C75.98,48.185,74.458,56.006,69.223,62.649z"/>
	<path d="M25.911,67.498c-0.133,0-0.264-0.054-0.359-0.156c-1.335-1.424-1.51-3.301-1.569-4.949
		c-0.058-1.622-0.12-3.244-0.182-4.865c-0.29-7.6-0.59-15.459-0.452-23.205l0.012-0.497c0.011-0.396,0.022-0.807,0.01-1.202
		l-0.002-0.069c-0.126-4.375-0.126-4.375-4.332-5.371c-4.715-1.117-7.468-4.171-8.185-9.079c-0.07-0.479-0.182-0.97-0.301-1.489
		c-0.356-1.558-0.724-3.169,0.034-4.611c0.45-0.856,1.119-1.289,1.989-1.289c0.55,0,1.118,0.167,1.667,0.329
		c0.508,0.15,1.034,0.304,1.493,0.304c0.125,0,0.238-0.011,0.346-0.033c1.206-0.253,2.426-0.287,3.565-0.287
		c0.318,0,0.637,0.003,0.956,0.006c0.316,0.003,0.631,0.006,0.947,0.006c0.333,0,0.664-0.003,0.994-0.013
		c1.277-0.04,1.644-0.263,1.635-0.992c-0.01-0.761-0.432-0.896-1.697-0.915c-2.351-0.035-4.744-0.04-7.058-0.044
		c-1.091-0.002-2.182-0.004-3.274-0.01c-0.677-0.003-1.464-0.01-2.237-0.051C9.094,8.972,7.575,8.892,7.492,7.474
		C7.464,6.996,7.59,6.601,7.867,6.3c0.538-0.586,1.479-0.611,2.102-0.627c3.804-0.1,7.671-0.125,11.411-0.149l1.147-0.008
		c1.521-0.01,2.411-0.314,2.762-1.888c0.05-0.227,0.252-0.386,0.48-0.386c0.013,0,0.026,0,0.039,0.001
		c0.245,0.019,0.438,0.216,0.453,0.461c0.101,1.65,0.794,1.952,2.123,1.952c0.154,0,0.313-0.004,0.475-0.012
		c2.167-0.101,4.369-0.123,6.499-0.144c0.791-0.008,1.582-0.016,2.373-0.028l0.211-0.004c0.178-0.003,0.357-0.006,0.535-0.006
		c0.86,0,1.773,0.075,2.624,0.614c0.061,0.039,0.113,0.09,0.152,0.152c0.969,1.521-0.253,2.437-0.91,2.929
		c-0.065,0.049-0.141,0.081-0.222,0.093c-0.549,0.083-1.142,0.123-1.814,0.123c-0.109,0-0.217-0.001-0.326-0.003
		c0.306,0.05,0.587,0.22,0.849,0.402c0.123,0.086,0.199,0.221,0.21,0.368c0.876,4.105,0.535,8.155-1.013,12.04
		c-1.638,4.112-5.474,5.043-9.01,5.411c-1.159,0.121-1.3,0.379-1.399,1.429c-0.391,4.132-0.39,8.351-0.388,12.431
		c0,1.499,0.001,2.998-0.017,4.497c-0.064,5.401-0.159,10.892-0.25,16.202l-0.068,3.962l0.001,0.099
		c0.008,0.301,0.026,0.928-0.809,1.254C26.031,67.487,25.971,67.498,25.911,67.498z M27.898,18.936
		c-0.149,0-0.342,0.017-0.417,0.098c-0.038,0.041-0.122,0.18-0.09,0.595c0.049,0.639-0.028,1.281-0.101,1.902
		c-0.153,1.287-0.287,2.405,0.596,3.388c0.085-0.014,0.17-0.025,0.244-0.026c2.372-0.015,5.935-2.457,6.688-4.582
		c0.314-0.886,0.227-1.152,0.176-1.225c-0.055-0.077-0.226-0.122-0.469-0.122c-0.171,0-0.377,0.022-0.611,0.065
		c-0.88,0.163-1.767,0.17-2.354,0.175c-0.175,0.001-0.32,0.002-0.424,0.008c-0.009,0-0.055,0-0.069-0.001
		c-0.45-0.038-0.813-0.067-1.118-0.091c-0.561-0.045-0.933-0.075-1.303-0.118l-0.095-0.011
		C28.315,18.962,28.093,18.936,27.898,18.936z M15.169,19.225c-0.37,0-0.464,0.084-0.541,0.322c-0.153,0.472,0.112,0.95,0.59,1.567
		c1.708,2.207,4.235,2.995,6.712,3.517c0.248,0.052,0.468,0.079,0.655,0.079c0.51,0,0.976-0.116,1.083-1.515l0.013-0.164
		c0.146-1.926,0.235-3.089-0.126-3.478c-0.274-0.295-1.014-0.354-2.12-0.354c-0.411,0-0.879,0.008-1.409,0.018l-0.606,0.001
		c-0.049,0.018-0.102,0.028-0.156,0.028c-0.319,0-0.638-0.004-0.957-0.007c-0.315-0.004-0.631-0.007-0.946-0.007
		c-0.492,0-0.894,0.009-1.266,0.029c-0.044,0.002-0.088,0.003-0.133,0.003c-0.136,0-0.278-0.01-0.423-0.02
		C15.415,19.234,15.29,19.225,15.169,19.225z M15.006,13.797c-0.619,0-1.016,0.21-1.079,1.253c-0.025,0.425,0.058,0.768,0.236,0.966
		c0.136,0.151,0.334,0.23,0.607,0.243c1.357,0.063,2.476,0.092,3.522,0.092c0,0,0,0,0,0c1.831,0,3.453-0.093,4.959-0.285
		c0.605-0.076,0.769-0.348,0.798-1.32c0.008-0.263-0.045-0.456-0.159-0.576c-0.174-0.184-0.511-0.23-0.764-0.237l-1.286-0.032
		c-1.243-0.03-2.527-0.061-2.847-0.089c-0.077-0.007-0.152-0.009-0.229-0.009l-2.178,0.006c-0.515,0-1.029-0.002-1.544-0.011
		l-0.037-0.493V13.797z M32.962,16.274c0.489,0,0.893,0.015,1.271,0.049c0.122,0.011,0.238,0.017,0.347,0.017
		c0.667,0,0.995-0.161,1.06-1.073c0.026-0.373-0.028-0.639-0.161-0.791c-0.217-0.247-0.747-0.297-1.226-0.325
		c-0.616-0.035-1.232-0.061-1.849-0.088c-1.321-0.056-2.686-0.114-4.027-0.265c-0.167-0.019-0.321-0.029-0.462-0.029
		c-0.372,0-0.622,0.07-0.764,0.212c-0.184,0.186-0.273,0.563-0.269,1.152c0.006,1.111,0.361,1.195,0.902,1.195
		c0.14,0,0.304-0.013,0.486-0.037c0.322-0.043,0.666-0.063,1.082-0.063c0.282,0,0.566,0.009,0.849,0.018
		c0.273,0.009,0.545,0.018,0.817,0.018c0.064,0,0.126,0.013,0.183,0.035c0.26-0.002,0.52-0.008,0.78-0.013
		C32.307,16.281,32.635,16.274,32.962,16.274z M28.659,10.85c0.838,0,1.688,0.13,2.51,0.256c0.821,0.126,1.597,0.244,2.358,0.244
		c1.514,0,2.607-0.505,3.543-1.64c0.164-0.199,0.375-0.317,0.617-0.347c-0.415-0.012-0.829-0.035-1.233-0.056l-0.338-0.018
		c-1.507-0.078-3.111-0.113-5.2-0.113c-0.947,0-1.894,0.007-2.84,0.014l-0.518,0.004c-0.183,0.001-0.742,0.005-0.922,0.208
		c-0.072,0.081-0.098,0.224-0.076,0.424c0.08,0.729,0.355,1.212,0.501,1.212C27.578,10.909,28.088,10.85,28.659,10.85z"/>
	<path fill="#FFFFFF" d="M38.547,10.179c0.875,4.039,0.537,8.025-0.975,11.819c-1.51,3.789-5.014,4.73-8.603,5.104
		c-1.399,0.146-1.717,0.585-1.839,1.872c-0.535,5.65-0.34,11.311-0.407,16.968c-0.08,6.721-0.205,13.441-0.318,20.161
		c-0.005,0.301,0.095,0.673-0.495,0.903c-1.209-1.29-1.377-2.984-1.436-4.63c-0.334-9.345-0.801-18.687-0.634-28.043
		c0.01-0.574,0.039-1.149,0.022-1.722c-0.136-4.722-0.116-4.816-4.713-5.905c-4.672-1.107-7.143-4.097-7.811-8.671
		c-0.281-1.927-1.226-4.073-0.318-5.801c1.175-2.236,3.383-0.064,5.159-0.436c2.055-0.43,4.245-0.212,6.377-0.279
		c1.035-0.032,2.129-0.166,2.112-1.49c-0.018-1.363-1.214-1.387-2.182-1.401C19.041,8.576,15.595,8.59,12.15,8.573
		c-0.738-0.003-1.477-0.011-2.214-0.05C9.106,8.48,8.04,8.41,7.984,7.445c-0.072-1.22,1.175-1.259,1.999-1.28
		c4.181-0.109,8.366-0.128,12.549-0.156c1.499-0.01,2.796-0.281,3.239-2.273c0.139,2.268,1.442,2.48,3.113,2.402
		c2.949-0.136,5.904-0.127,8.857-0.172c1.064-0.016,2.14-0.081,3.099,0.528c0.693,1.088-0.016,1.69-0.79,2.27
		c-1.304,0.197-2.597,0.102-3.91,0.034c-2.857-0.148-5.724-0.116-8.587-0.096c-0.717,0.005-1.601,0.115-1.485,1.178
		c0.079,0.721,0.42,1.818,1.155,1.629c3.36-0.865,7.273,2.091,10.226-1.485c0.299-0.362,0.757-0.087,1.102,0.153L38.547,10.179z
		 M19.263,18.724c0,0.01,0,0.019,0,0.029c-1.065,0-2.133-0.041-3.195,0.015c-0.68,0.036-1.601-0.317-1.907,0.626
		c-0.244,0.752,0.212,1.431,0.669,2.021c1.771,2.29,4.311,3.131,7,3.698c1.573,0.332,2.207-0.252,2.33-1.881
		c0.349-4.595,0.404-4.59-4.158-4.509C19.755,18.728,19.509,18.724,19.263,18.724z M31.107,18.721
		c-1.266-0.108-1.838-0.142-2.405-0.208c-0.926-0.109-1.912-0.276-1.803,1.154c0.147,1.927-0.953,4.025,0.763,5.733
		c0.076,0.076,0.309-0.013,0.469-0.014c2.554-0.017,6.322-2.574,7.149-4.91c0.463-1.308,0.462-2.286-1.458-1.93
		C32.711,18.752,31.552,18.697,31.107,18.721z M19.038,13.321c-0.091-0.008-0.182-0.011-0.273-0.011
		c-1.238,0.001-2.476,0.015-3.714-0.005c-1.185-0.019-1.556,0.724-1.615,1.715c-0.056,0.922,0.31,1.684,1.313,1.731
		c2.857,0.132,5.717,0.166,8.566-0.196c1.092-0.139,1.202-0.933,1.228-1.794c0.029-0.966-0.587-1.299-1.402-1.321
		C21.877,13.406,19.462,13.359,19.038,13.321z M31.017,16.758c0,0.012,0,0.024,0,0.036c1.058,0,2.123-0.074,3.173,0.02
		c1.183,0.105,1.85-0.211,1.942-1.512c0.101-1.429-0.809-1.582-1.851-1.642c-1.951-0.112-3.911-0.131-5.849-0.351
		c-1.497-0.169-2.052,0.315-2.043,1.827c0.008,1.449,0.616,1.82,1.945,1.644C29.214,16.664,30.122,16.758,31.017,16.758z"/>
	<path d="M196.269,65.434c-5.532,0-10.182-4.675-11.482-9.195c-1.014-3.525-1.553-6.921-1.649-10.381
		c-0.343-12.389-0.577-22.435-0.736-31.613l-0.003-0.161c-0.095-5.467,0.057-5.978,5.706-6.157l12.237-0.001l1.104,0.043
		c0.019,0,0.038,0.002,0.057,0.005c0.496,0.077,1.017,0.115,1.592,0.115c0.942,0,1.908-0.103,2.843-0.204
		c0.595-0.064,1.21-0.13,1.822-0.17c0.28-0.018,0.577-0.063,0.892-0.11c0.452-0.067,0.919-0.137,1.387-0.137
		c1.28,0,2.174,0.569,2.733,1.741c0.032,0.066,0.048,0.139,0.048,0.213c-0.004,2.656-0.004,5.313-0.003,7.969
		c0,6.333,0.001,12.882-0.054,19.324c-0.034,3.93-0.012,8.086,0.069,13.077c0.108,6.655-2.675,11.56-8.271,14.58
		c-1.751,0.945-3.571,1.022-5.597,1.022l-0.68-0.001c-0.493,0-1.019,0.003-1.53,0.03C196.592,65.43,196.43,65.434,196.269,65.434z
		 M188.698,11.091c-1.6,0-2.116,0.511-2.125,2.104c-0.009,1.777-0.024,3.555-0.039,5.332c-0.094,11.12-0.191,22.619,1.193,33.858
		c0.599,4.863,2.817,7.923,6.782,9.354c1.128,0.407,2.403,0.622,3.685,0.622c5.034,0,10.313-3.146,10.76-10.177
		c0.339-5.33,0.37-10.753,0.399-15.997c0.008-1.382,0.015-2.765,0.029-4.147l-0.002-5.072c-0.003-4.95-0.007-10.068,0.02-15.102
		c0.001-0.167,0.004-0.678-0.131-0.813c-0.062-0.062-0.238-0.136-0.73-0.136l-0.14,0.002c-5.074,0.123-10.318,0.185-15.586,0.185
		c-1.358,0-2.716-0.004-4.074-0.012l-0.04-0.492V11.091z"/>
	<path fill="#FFFFFF" d="M201.428,8.461c2.142,0.334,4.242-0.115,6.365-0.255c1.565-0.103,3.507-0.939,4.535,1.215
		c-0.013,9.096,0.021,18.193-0.058,27.289c-0.038,4.365-0.002,8.727,0.069,13.089c0.102,6.295-2.407,11.114-8.013,14.138
		c-2.377,1.283-5.032,0.861-7.598,0.992c-5.424,0.276-10.192-4.387-11.468-8.827c-0.975-3.391-1.533-6.781-1.63-10.259
		c-0.292-10.535-0.553-21.071-0.736-31.608c-0.093-5.39-0.152-5.647,5.227-5.817c4.074,0,8.148-0.001,12.221-0.001
		C200.705,8.432,201.067,8.447,201.428,8.461z M209.874,32.044c0-6.726-0.018-13.451,0.018-20.177
		c0.006-1.136-0.222-1.473-1.505-1.442c-6.546,0.158-13.097,0.211-19.645,0.172c-1.939-0.012-2.651,0.752-2.66,2.594
		c-0.068,13.099-0.449,26.213,1.157,39.253c0.545,4.427,2.449,8.078,7.103,9.757c5.793,2.091,14.517-0.747,15.104-9.987
		C209.873,45.488,209.81,38.769,209.874,32.044z"/>
	<path d="M336.744,66.911c-0.262,0-0.488-0.116-0.619-0.318c-0.203-0.314-0.159-0.742,0.149-1.434
		c0.035-0.079,0.09-0.147,0.16-0.198c6.277-4.559,13.328-10.343,18.026-18.674c1.555-2.757,2.68-5.77,3.769-8.682
		c0.303-0.81,0.606-1.62,0.917-2.426c0.521-1.348,1.031-2.701,1.541-4.055c2.333-6.19,4.742-12.584,8.359-18.595
		c-1.111,0.001-2.204,0.004-3.281,0.007c-1.314,0.003-2.605,0.007-3.883,0.007c-2.338,0-4.233-0.012-5.961-0.038c0,0,0,0-0.001,0
		c-1.053,0-1.28,0.533-1.623,1.554l-0.096,0.282c-1.62,4.63-4.739,7.899-9.268,9.718c-0.072,0.029-0.189,0.102-0.302,0.173
		c-0.301,0.188-0.676,0.421-1.091,0.421c-0.319,0-0.762-0.136-1.061-0.785c-0.398-0.869,0.459-1.284,0.824-1.462
		c0.128-0.062,0.261-0.126,0.328-0.18c4.179-3.376,6.681-7.383,7.651-12.251c0.045-0.226,0.241-0.391,0.471-0.396l5.314-0.126
		c4.941-0.119,10.05-0.242,15.076-0.327l0.084,0c0.912,0,1.513,0.257,1.786,0.763c0.277,0.515,0.151,1.182-0.376,1.984
		c-4.255,6.474-6.701,13.888-9.067,21.057c-0.358,1.085-0.716,2.169-1.08,3.25c-3.732,11.088-9.861,19.506-18.736,25.735
		c-0.622,0.437-1.241,0.909-1.84,1.366c-1.548,1.18-3.148,2.401-5.028,3.194l-0.042,0.026
		C337.48,66.713,337.092,66.911,336.744,66.911z"/>
	<path fill="#FFFFFF" d="M351.767,10.07c6.796-0.158,13.591-0.339,20.387-0.453c1.394-0.024,1.989,0.592,1.074,1.984
		c-4.927,7.497-7.391,16.066-10.203,24.421c-3.545,10.533-9.426,19.085-18.552,25.49c-2.227,1.563-4.235,3.437-6.777,4.509
		c-0.138,0.058-1.8,1.195-0.973-0.662c7.166-5.204,13.736-10.976,18.166-18.831c2.001-3.549,3.259-7.406,4.716-11.173
		c3.034-7.842,5.669-15.847,10.32-23.32c-4.939,0-9.469,0.043-13.997-0.023c-1.594-0.023-1.823,1.113-2.192,2.166
		c-1.577,4.503-4.583,7.655-8.988,9.423c-0.503,0.202-1.339,1.112-1.822,0.06c-0.278-0.606,0.633-0.745,1.013-1.053
		C348.002,19.328,350.738,15.235,351.767,10.07z"/>
	<path d="M128.162,65.715c-0.233,0-0.574-0.08-0.875-0.464c-0.209-0.267-0.297-0.547-0.261-0.833
		c0.064-0.504,0.489-0.83,0.831-1.092c0.107-0.082,0.212-0.16,0.291-0.24c4.334-4.341,9.246-9.261,12.906-14.99
		c6.59-10.319,11.058-21.214,13.276-32.385c0.279-1.402,0.262-2.17-0.057-2.565c-0.318-0.395-1.091-0.583-2.507-0.61
		c-0.704-0.013-1.409-0.029-2.113-0.045c-1.806-0.04-3.673-0.081-5.506-0.081c-3.138,0-5.697,0.124-8.052,0.391
		c-1.978,0.223-4.007,0.253-5.732,0.253c0,0-0.961-0.002-0.962-0.002c-0.159,0-0.304,0.005-0.453,0.011
		c-0.172,0.006-0.349,0.012-0.526,0.012c-0.549,0-2.222,0-2.223-1.806c-0.001-1.715,1.768-1.722,2.718-1.726
		c0.115,0,0.226,0,0.331-0.003c1.583-0.038,3.175-0.152,4.715-0.264c1.813-0.13,3.525-0.253,5.151-0.253
		c0.716,0,1.356,0.024,1.958,0.073l7.584-0.006c1.519,0,2.993,0.002,4.467,0.008c2.772,0.012,4.228,0.425,5.026,1.427
		c0.774,0.972,0.866,2.445,0.307,4.927c-2.482,11.027-6.086,20.498-11.016,28.953c-5.018,8.605-10.848,15.324-17.822,20.539
		c-0.07,0.052-0.14,0.108-0.211,0.164C129.047,65.392,128.639,65.715,128.162,65.715z"/>
	<path fill="#FFFFFF" d="M141.033,9.586c4.541,0,8.315-0.012,12.089,0.003c4.72,0.019,5.883,1.181,4.854,5.753
		c-2.276,10.11-5.706,19.801-10.961,28.813c-4.625,7.93-10.313,14.875-17.692,20.392c-0.553,0.413-1.145,1.041-1.648,0.399
		c-0.545-0.695,0.412-1.102,0.822-1.512c4.698-4.706,9.377-9.445,12.972-15.074c6.409-10.034,11.017-20.837,13.344-32.554
		c0.584-2.941,0.028-3.706-3.037-3.764c-5.245-0.099-10.494-0.325-15.736,0.267c-2.194,0.248-4.422,0.258-6.634,0.248
		c-1.063-0.005-2.713,0.315-2.714-1.291c-0.001-1.371,1.568-1.212,2.568-1.236C133.442,9.931,137.606,9.308,141.033,9.586z"/>
	<path d="M298.856,68.763c-0.043-0.003-0.087-0.012-0.128-0.025c-0.544-0.187-1.282-0.547-1.401-1.508
		c-0.008-0.065-0.003-0.132,0.015-0.196c0.401-1.401,1.528-1.401,2.071-1.401l0.473,0.005c0.139,0,0.318-0.004,0.467-0.033
		c1.094-0.218,2.204-0.344,3.277-0.466c0.279-0.032,0.556-0.063,0.832-0.096c-0.989-7.291-1.066-15.125-0.246-24.6
		c0.181-2.087,0.169-4.231,0.158-6.304c-0.014-2.614-0.028-5.318,0.337-7.981c0.042-0.307-0.001-0.452-0.033-0.489
		c-0.016-0.018-0.074-0.04-0.185-0.04c-0.137,0-0.312,0.032-0.521,0.095c-0.73,0.221-1.448,0.419-2.207,0.419
		c-0.335,0-0.648-0.038-0.957-0.116c-0.614-0.155-1.756-0.443-1.716-1.672c0.032-0.974,0.766-1.753,1.709-1.811
		c1.606-0.099,3.207-0.149,4.759-0.149c2.334,0,4.645,0.114,6.867,0.338c0.855,0.086,1.129,0.531,1.217,0.789
		c0.168,0.496-0.059,1.086-0.624,1.616c-0.6,0.563-1.288,0.837-2.103,0.837c-0.325,0-0.672-0.043-1.061-0.131
		c-0.741-0.168-1.229-0.243-1.584-0.243c-0.57,0-0.947,0-1.01,2.124c-0.134,4.551-0.146,9.185-0.157,13.667l-0.005,1.904
		c-0.017,6.187-0.035,12.585,0.068,18.874c0.008,0.508-0.154,1.013-0.312,1.501c-0.249,0.771-0.339,1.154-0.09,1.33
		c0.251,0.179,0.651,0.262,1.259,0.262c0.292,0,0.596-0.017,0.9-0.035c0.321-0.018,0.641-0.037,0.947-0.037
		c0.077,0,0.152,0.001,0.227,0.004c1.373,0.045,2.758,0.282,3.591,1.699c0.054,0.093,0.077,0.201,0.064,0.307
		c-0.137,1.171-1.077,1.404-1.699,1.558c-0.08,0.02-0.16,0.039-0.238,0.061c-0.03,0.008-0.06,0.013-0.091,0.016l-0.94,0.074
		l-9.484,0.013C301.291,68.922,298.856,68.763,298.856,68.763z"/>
	<path fill="#FFFFFF" d="M313.264,67.143c-0.111,0.945-0.889,1.014-1.577,1.201c-0.313,0.025-0.627,0.049-0.94,0.074
		c-3.149,0.004-6.298,0.008-9.446,0.011c-0.804-0.053-1.609-0.105-2.413-0.158c-0.544-0.187-0.994-0.464-1.073-1.102
		c0.417-1.456,1.713-0.899,2.633-1.082c1.524-0.303,3.084-0.426,4.569-0.617c-1.176-8.298-1.035-16.628-0.312-24.985
		c0.41-4.736-0.157-9.521,0.492-14.26c0.152-1.11-0.501-1.234-1.37-0.972c-0.949,0.287-1.908,0.548-2.901,0.297
		c-0.632-0.16-1.372-0.354-1.345-1.179c0.023-0.72,0.561-1.293,1.247-1.335c3.851-0.238,7.709-0.2,11.546,0.187
		c1.048,0.106,1.045,0.862,0.305,1.556c-0.791,0.743-1.676,0.821-2.718,0.584c-2.606-0.592-3.118-0.29-3.195,2.347
		c-0.147,5.003-0.147,10.011-0.161,15.017c-0.018,6.484-0.04,12.968,0.067,19.45c0.019,1.148-1.1,2.581-0.195,3.225
		c0.843,0.599,2.373,0.244,3.602,0.285C311.352,65.728,312.543,65.915,313.264,67.143z"/>
	<path d="M235.882,66.01c-0.848,0-1.461-0.534-1.681-1.467c-0.26-1.1,0.121-1.778,1.315-2.339c2.778-1.307,5.991-2.967,8.749-5.374
		c8.204-7.154,13.055-16.198,14.832-27.649c0.202-1.298,0.417-2.593,0.634-3.889c0.487-2.914,0.99-5.927,1.303-8.913
		c0.09-0.864,0.211-2.015,1.84-3.137c0.084-0.058,0.182-0.087,0.279-0.087c0.085,0,0.169,0.022,0.246,0.065
		c0.164,0.095,0.26,0.276,0.245,0.465c-0.062,0.805-0.121,1.608-0.181,2.409c-0.997,13.388-1.938,26.033-10.201,37.026
		c-3.497,4.652-8.152,8.452-14.648,11.959c-0.585,0.316-1.213,0.537-1.819,0.75l-0.067,0.024
		C236.431,65.957,236.146,66.01,235.882,66.01z"/>
	<path fill="#FFFFFF" d="M263.153,13.648c-1.074,14.041-1.611,27.637-10.285,39.177c-3.87,5.148-8.905,8.807-14.488,11.821
		c-0.572,0.309-1.2,0.525-1.816,0.742c-0.945,0.333-1.65,0.029-1.884-0.958c-0.204-0.863,0.058-1.316,1.045-1.781
		c3.142-1.478,6.204-3.129,8.863-5.448c8.525-7.435,13.273-16.845,14.995-27.945c0.663-4.273,1.488-8.517,1.94-12.825
		C261.606,15.644,261.697,14.651,263.153,13.648z"/>
	<path d="M246.242,25.609c-0.25,0-0.503-0.036-0.725-0.067l-0.1-0.014c-3.343-0.462-6.465-1.792-9.545-4.065
		c-0.537-0.396-1.535-1.133-1.247-2.778c0.025-0.14,0.109-0.264,0.231-0.337c0.077-0.046,0.165-0.07,0.254-0.07
		c0.051,0,0.102,0.008,0.152,0.024c0.795,0.258,1.591,0.502,2.386,0.745c2.963,0.907,6.027,1.845,8.787,3.514
		c0.386,0.233,1.561,0.943,1.209,2.098C247.511,25.093,247.161,25.609,246.242,25.609z"/>
	<path fill="#FFFFFF" d="M235.109,18.77c3.799,1.235,7.643,2.14,11.071,4.212c0.557,0.337,1.205,0.835,0.992,1.534
		c-0.235,0.772-1.045,0.613-1.688,0.524c-3.466-0.479-6.534-1.917-9.321-3.974C235.539,20.605,234.887,20.031,235.109,18.77z"/>
	<path d="M249.587,15.55c-0.267,0-0.554-0.05-0.852-0.149c-3.983-1.318-7.543-3.338-10.58-6.002
		c-0.153-0.135-0.208-0.35-0.138-0.541c0.071-0.191,0.252-0.319,0.455-0.322l0.184-0.001c3.601,0,6.758,1.413,9.812,2.778
		c0.392,0.176,0.784,0.351,1.177,0.523c0.058,0.026,0.112,0.063,0.156,0.109l1.578,1.63c0.134,0.139,0.175,0.342,0.105,0.522
		C251.119,15.034,250.446,15.55,249.587,15.55z"/>
	<path fill="#FFFFFF" d="M249.447,12.288c0.526,0.544,1.052,1.088,1.578,1.631c-0.393,1.009-1.13,1.347-2.136,1.015
		c-3.851-1.275-7.333-3.206-10.411-5.905C242.5,8.975,245.938,10.748,249.447,12.288z"/>
	<path d="M160.228,9.869c-0.109,0-0.215-0.006-0.316-0.019c-0.169-0.021-0.316-0.127-0.387-0.283
		c-0.019-0.04-0.031-0.081-0.038-0.124c-0.088,0.03-0.187,0.053-0.297,0.07c-0.078,0.012-0.153,0.017-0.226,0.017
		c-0.838,0-1.296-0.68-1.6-1.13c-0.723-1.073-0.701-2.319,0.059-3.334c0.675-0.902,1.6-2.136,3.061-2.136
		c0.208,0,0.422,0.026,0.636,0.077c1.845,0.44,3.146,1.831,3.482,3.72c0.071,0.401-0.078,0.826-0.444,1.263
		C163.319,8.991,161.482,9.869,160.228,9.869z M160.614,5.225c-0.108,0.063-0.166,0.411-0.194,0.578
		c-0.014,0.088-0.029,0.173-0.045,0.252c-0.076,0.37-0.108,0.751-0.143,1.155c-0.014,0.167-0.029,0.335-0.046,0.501
		c-0.009,0.083,0.001,0.198,0.011,0.319c0.005,0.055,0.01,0.121,0.013,0.194c0-0.001,0.001-0.001,0.001-0.002
		c0.623-0.78,0.97-1.257,0.856-1.993c-0.052-0.334-0.149-0.957-0.381-0.997C160.659,5.228,160.636,5.225,160.614,5.225z"/>
	<path fill="#FFFFFF" d="M159.972,9.362c0.765-1.154,1.788-1.874,1.581-3.207c-0.093-0.599-0.219-1.309-0.784-1.407
		c-0.76-0.132-0.769,0.682-0.877,1.209c-0.114,0.558-0.137,1.135-0.197,1.703c-0.054,0.518,0.298,1.237-0.578,1.367
		c-0.672,0.099-1.046-0.457-1.347-0.903c-0.604-0.897-0.579-1.927,0.046-2.762c0.779-1.041,1.707-2.229,3.189-1.876
		c1.663,0.397,2.815,1.66,3.111,3.327C164.307,7.882,161.519,9.552,159.972,9.362z"/>
	<path d="M271.782,8.817c-0.277,0-0.522-0.08-0.711-0.231c-1.36-1.089-2.568-2.397-3.572-3.532
		c-0.389-0.441-0.537-0.962-0.394-1.394c0.097-0.295,0.367-0.68,1.105-0.837c0.034-0.008,0.069-0.011,0.103-0.011
		c0.099,0,0.197,0.03,0.28,0.087l0.303,0.209c1.554,1.068,3.16,2.173,4.05,3.96c0.201,0.404,0.197,0.812-0.013,1.15
		C272.708,8.582,272.256,8.817,271.782,8.817z"/>
	<path fill="#FFFFFF" d="M268.313,3.304c1.618,1.117,3.304,2.198,4.192,3.982c0.429,0.861-0.699,1.258-1.127,0.915
		c-1.279-1.024-2.42-2.24-3.51-3.474C267.462,4.268,267.271,3.527,268.313,3.304z"/>
	<path d="M268.66,10.682c-0.26,0-0.503-0.074-0.72-0.22c-0.333-0.224-0.687-0.421-1.061-0.63c-1.017-0.568-2.068-1.155-2.722-2.299
		c-0.026-0.02-0.05-0.043-0.072-0.069c-0.164-0.191-0.142-0.486,0.031-0.67l0.512-0.543c0.097-0.102,0.227-0.155,0.359-0.155
		c0.002,0,0.004,0,0.007,0c0.252-0.054,0.498-0.082,0.735-0.082c1.348,0,2.224,0.868,2.998,1.634
		c0.352,0.348,0.683,0.676,1.046,0.925c0.362,0.249,0.457,0.538,0.473,0.737c0.016,0.201-0.031,0.505-0.352,0.813
		C269.517,10.483,269.079,10.682,268.66,10.682z"/>
	<path fill="#FFFFFF" d="M264.973,6.606c2.219-0.565,3.108,1.402,4.521,2.373c0.354,0.244,0.325,0.533,0.059,0.788
		c-0.377,0.362-0.902,0.579-1.338,0.286c-1.312-0.881-2.936-1.381-3.721-2.933C264.494,7.12,264.973,6.606,264.973,6.606z"/>
	<path d="M400.896,65.758c-0.025,0-0.051-0.002-0.076-0.006c-0.166-0.026-0.308-0.135-0.375-0.289
		c-0.844-1.93-0.883-3.844-0.92-5.695c-0.011-0.519-0.021-1.034-0.05-1.541c-0.698-12.221-0.638-24.651-0.581-36.672
		c0.018-3.697,0.036-7.519,0.032-11.278c0-0.182-0.006-0.38-0.013-0.586c-0.033-1.086-0.074-2.439,0.659-3.194
		c0.342-0.353,0.806-0.532,1.377-0.532c0.539,0.005,0.937,0.17,1.212,0.491c0.555,0.648,0.401,1.711,0.264,2.649
		c-0.048,0.329-0.093,0.64-0.1,0.884c-0.141,5.267,1.929,9.703,6.326,13.562c2.871,2.519,5.694,5.181,8.425,7.756
		c0.712,0.671,1.424,1.343,2.138,2.013c0.114,0.107,0.231,0.213,0.349,0.32c0.792,0.718,1.69,1.531,2.425,3.259
		c0.089,0.207,0.025,0.448-0.155,0.585c-0.088,0.067-0.193,0.101-0.298,0.101c-0.109,0-0.217-0.036-0.307-0.107
		c-0.624-0.496-1.184-0.945-1.702-1.361c-1.001-0.803-1.866-1.496-2.731-2.16c-1.439-1.104-2.948-2.176-4.406-3.212
		c-3.011-2.139-6.124-4.351-8.846-6.999c-0.047-0.046-0.093-0.094-0.14-0.143c-0.102-0.105-0.272-0.282-0.342-0.282
		c-0.129,0.04-0.151,0.219-0.161,0.581c-0.018,0.729-0.037,1.468-0.02,2.203c0.208,8.716-0.092,17.562-0.382,26.116
		c-0.109,3.205-0.221,6.518-0.304,9.777c-0.004,0.165-0.002,0.333,0,0.502c0.011,0.894,0.025,2.006-0.931,3.093
		C401.172,65.698,401.037,65.758,400.896,65.758z"/>
	<path fill="#FFFFFF" d="M421.539,37.092c-1.845-1.468-3.126-2.519-4.44-3.527c-4.409-3.383-9.199-6.273-13.209-10.174
		c-0.29-0.282-0.574-0.684-1.019-0.531c-0.443,0.153-0.45,0.635-0.46,1.042c-0.019,0.737-0.037,1.476-0.02,2.213
		c0.285,11.966-0.379,23.914-0.687,35.869c-0.027,1.033,0.189,2.149-0.808,3.282c-1.039-2.375-0.799-4.79-0.929-7.066
		c-0.911-15.963-0.531-31.946-0.547-47.922c-0.002-1.444-0.358-3.839,1.554-3.82c1.726,0.018,0.894,2.303,0.861,3.518
		c-0.154,5.771,2.251,10.222,6.494,13.945c3.6,3.158,7.057,6.48,10.55,9.758C419.743,34.488,420.738,35.209,421.539,37.092z"/>
	<path d="M43.784,65.656c-1.219,0-1.844-0.764-2.346-1.377c-0.144-0.176-0.279-0.342-0.417-0.476
		c-4.141-4.042-6.532-9.378-7.522-16.793c-0.804-6.019-2.235-10.712-4.505-14.77c-0.042-0.075-0.097-0.15-0.152-0.227
		c-0.208-0.291-0.761-1.064,0.048-1.657c0.233-0.171,0.47-0.258,0.707-0.258c0.566,0,0.89,0.46,1.127,0.796
		c0.054,0.076,0.106,0.152,0.159,0.215c3.315,3.954,5.426,8.936,6.453,15.229c1.114,6.828,3.548,12.873,7.439,18.48
		c0.094,0.136,0.114,0.309,0.053,0.463c-0.061,0.153-0.195,0.266-0.356,0.3C44.233,65.631,44.002,65.656,43.784,65.656z"/>
	<path fill="#FFFFFF" d="M44.371,65.099c-1.761,0.37-2.264-0.924-3.006-1.648c-4.628-4.517-6.551-10.314-7.378-16.506
		c-0.702-5.257-1.962-10.294-4.564-14.945c-0.229-0.409-0.776-0.855-0.242-1.247c0.679-0.499,0.992,0.277,1.324,0.673
		c3.644,4.346,5.454,9.535,6.344,14.992C37.95,53.156,40.344,59.297,44.371,65.099z"/>
	<path d="M3.357,65.219c-0.205,0-0.39-0.128-0.462-0.322c-0.074-0.2-0.011-0.425,0.157-0.557c3.935-3.101,6.473-6.681,7.759-10.944
		c0.655-2.168,1.199-4.417,1.724-6.591c0.399-1.65,0.812-3.357,1.272-5.024c1.564-5.673,3.576-10.018,8.311-12.788
		c0.076-0.045,0.162-0.067,0.249-0.067c0.045,0,0.091,0.006,0.136,0.019c0.129,0.037,0.238,0.126,0.301,0.244
		c0.533,1.016-0.094,1.631-0.395,1.927l-0.08,0.079c-3.913,4.009-5.017,9.103-5.629,14.011c-0.953,7.662-3.518,13.232-8.072,17.53
		c-1.121,1.057-2.515,2.374-5.252,2.481C3.371,65.219,3.364,65.219,3.357,65.219z"/>
	<path fill="#FFFFFF" d="M22.368,29.418c0.4,0.763-0.095,1.131-0.39,1.434c-3.883,3.979-5.113,9.059-5.765,14.294
		c-0.824,6.618-2.96,12.55-7.922,17.233c-1.229,1.16-2.47,2.251-4.933,2.348c4.034-3.179,6.607-6.817,7.926-11.188
		c1.156-3.829,1.935-7.769,2.999-11.627C15.651,36.95,17.509,32.26,22.368,29.418z"/>
</g>
</svg>
