<?xml version="1.0" encoding="utf-8" standalone="no"?>
<svg version="1.1" width="900" height="1050"
   xmlns="http://www.w3.org/2000/svg"
   xmlns:xlink="http://www.w3.org/1999/xlink">
   
<ellipse style="fill:#fc0;stroke:#d00;stroke-width:20px" cx="450" cy="525" rx="440" ry="515"/>

<g transform="translate(200,250)">

  <g stroke="black" stroke-width="4" stroke-miterlimit="5" fill="#dd0000">

	<path d="M 249,73.4 c -24.7,-0.6 -45.8,-0.4 -70.9,-14.6 13.2,20 44.3,25.4 71.2,24.8"/>

	<path d="M 235,28.5 c -23.3,-20.4 -59,-9.8 -35.9,30.8 15,-12.2 27.9,1.9 32.9,14.4 -9.4,4.9 -23.2,7.4 -36.7,6.4 17.5,12.3 38.4,9.5 56.4,-0.3" />

  </g>

  <g id="r">

	<path d="M 26,505 V 110 h 27.5 V 505 h 8 V 175 h 27.5 V 505 h 8 V 205 h 27.5 V 505 h 8 V 215 h 27.5 V 505 h 8 V 215 h 27.5 V 505"/>

	<path fill="#fc0" d="M 250,315 V 506.4 H 21.9"/>

	<path style="fill:#d00;stroke:black;stroke-width:4;stroke-miterlimit:5" d="
		M 181.3,410.8 l -49.2,61.3 -37.8,-17 -12.3,11.3 -1.3,22.2 13.4,-13.6 1,-19.2 -1,19.2 32.9,5.4 
		-48,28.2 9.9,29 3.5,-24.4 -12.5,-5.5 21.8,9.6 30.6,-29.2 -1.3,58.3 20.1,9 -8.6,-18.9 -10.8,-0.7 19.6,1.2 
		-10.4,-51 36.3,18.7 12.1,-13.3 -12.1,13.1 1,17.7 13.8,-16.3 -0.8,-14.8 -47.5,-13.3 58.5,-54.2"/>

	<path d="M 270,186.5 c -214.8,0 -214.1,-81.5 -191.7,-110.6 20.2,29.4 62.4,15.8 68.7,-11.9 -39.9,-61.5 -94,-5.7 
		-121.5,-23.5 2.5,9.7 9.3,19.7 19,23.5 -8.7,8.8 -18.5,20.2 -18.5,46 0,84.7 87.6,116.5 172.8,125.4 2.7,31.6 8.5,74.1 19.1,114.65 
		l -72.6,79.2 40.2,-7.95 -1.2,53.2 33.7,-50.55 c 0,120.55 -33.2,131.05 -60.7,121.25 3.2,22.5 44.5,31.9 64.2,15.9 l 28.5,31.6"/>
  </g>

  <use xlink:href="#r" transform="matrix(-1,0,0,1,500,0)"/>

  <path d="M 197,199.6 c 0,-72.2 39.2,-69.3 35.4,-112 0,-5.2 13.4,-3.5 12.6,-9.2 -2.4,-15.6 -29.2,-51 -15.6,-61.2 
	13.6,-10.2 49.8,30.4 78.9,17.5 -5.9,8.8 -12.4,12.8 -23.3,16 29.6,83.8 25.5,158 16.3,181"/>

  <path fill="white" d="M 232.68,26.77 c -0.87,-0.46 -1.82,-0.01 -1.62,1.65 0.68,5.58 3,9.67 5.37,13.83 0.87,1.52 1.97,2.47 4.01,0.98 2.76,-2.02 5.29,-4.41 
	7.27,-7.2 -5.58,-4.28 -6.18,-4.53 -10.36,5.51 -0.49,-4.07 -0.3,-8.4 0.58,-11.95"/>
</g>

<path style="font-weight:bold;font-size:100px;font-family:Cambria;letter-spacing:-2.5px" 
	d="m 460.8,57.3 -0.4,3.2 c 1.2,0.5 2.1,0.9 2.7,1.4 0.7,0.5 1.1,1 1.4,1.7 0.3,0.7 0.4,1.6 0.3,2.6 -0,1 -0.1,2.3 -0.3,3.8 
	l -4.7,41.8 c -0.2,1.6 -0.4,2.8 -0.6,3.9 -0.2,1 -0.5,1.8 -1,2.4 -0.4,0.6 -1,1.1 -1.7,1.4 -0.7,0.3 -1.7,0.5 -2.9,0.7 
	l -0.4,3.2 25.5,2.8 0.4,-3.2 c -0.9,-0.3 -1.7,-0.7 -2.3,-1 -0.6,-0.4 -1.1,-0.8 -1.4,-1.3 -0.3,-0.5 -0.5,-1 
	-0.7,-1.6 -0.1,-0.6 -0.2,-1.4 -0.1,-2.4 0,-1 0.1,-2 0.3,-3.2 l 2.2,-19.3 1,0.1 c 1.2,0.1 2.1,0.4 2.7,0.8 
	0.6,0.4 1.2,1 1.8,1.9 0.6,0.9 1.3,2 2,3.5 l 6.1,12.3 c 1.4,2.8 2.3,4.7 2.8,5.7 0.4,1 0.7,1.8 0.8,2.3 
	0.1,0.5 0.1,1 0.1,1.5 -0.1,0.6 -0.3,1.1 -0.8,1.4 -0.4,0.3 -1.2,0.5 -2.3,0.5 l -0.4,3.2 26.3,2.9 0.4,-3.2 
	c -1,-0.4 -1.8,-0.8 -2.4,-1.2 -0.6,-0.4 -1.1,-1 -1.7,-1.7 -0.6,-0.7 -1.2,-1.7 -2,-2.9 -0.7,-1.3 -1.6,-2.9 -2.6,-5 
	L 494.7,88.8 511.1,74.1 c 2,-1.8 3.6,-3.1 4.8,-4 1.2,-0.9 2.3,-1.5 3.3,-1.9 0.9,-0.4 2,-0.6 3.3,-0.7 
	l 0.4,-3.3 -24.8,-2.8 -0.4,3.2 c 1.4,0.2 2.4,0.6 3.1,1.4 0.7,0.7 1,1.7 0.9,2.8 -0.1,1.1 -0.5,2.1 -1,3.2 
	-0.5,1 -1.5,2.3 -2.9,3.9 -1.3,1.5 -3.5,3.7 -6.5,6.5 -3,2.8 -5,4.5 -6,5.3 -1,0.7 -2,1.2 -2.9,1.4 -0.9,0.2 
	-2.1,0.3 -3.6,0.1 l -1,-0.1 1.9,-17.3 c 0.2,-1.8 0.4,-3.2 0.7,-4.1 0.2,-0.9 0.5,-1.6 0.9,-2.2 0.4,-0.5 
	0.9,-1 1.6,-1.3 0.7,-0.3 1.7,-0.6 3.1,-0.8 l 0.4,-3.2 z m -18.1,0.9 -25.6,1.4 0.2,3.2 c 1.3,0.3 2.2,0.6 
	2.9,0.9 0.7,0.3 1.3,0.9 1.7,1.5 0.4,0.6 0.7,1.4 0.8,2.4 0.2,1 0.3,2.3 0.4,3.8 l 2.4,42.1 c 0.1,1.6 0.1,2.9 
	0.1,3.9 -0,1 -0.2,1.9 -0.5,2.6 -0.3,0.7 -0.8,1.2 -1.5,1.6 -0.7,0.4 -1.6,0.8 -2.8,1.2 l 0.2,3.2 25.6,-1.4 -0.2,-3.2 
	c -1,-0.2 -1.8,-0.4 -2.4,-0.6 -0.7,-0.3 -1.2,-0.6 -1.6,-1 -0.4,-0.4 -0.7,-0.9 -0.9,-1.5 -0.2,-0.6 -0.4,-1.4 
	-0.5,-2.4 -0.1,-1 -0.2,-2 -0.3,-3.2 L 438.1,70.8 c -0.1,-1.8 -0.1,-3.2 -0,-4.2 0.1,-0.9 0.3,-1.7 0.6,-2.3 
	0.3,-0.6 0.7,-1.1 1.3,-1.5 0.6,-0.5 1.6,-0.9 2.9,-1.3 z m -61.8,6.9 -25.1,5.1 0.6,3.2 c 1.3,0.1 2.3,0.2 
	3,0.5 0.8,0.2 1.4,0.6 1.8,1.2 0.5,0.6 0.9,1.4 1.1,2.4 0.3,1 0.6,2.3 0.9,3.8 l 8.4,41.2 c 0.3,1.5 0.5,2.8 
	0.6,3.9 0.1,1 0.1,1.9 -0.2,2.6 -0.2,0.7 -0.6,1.3 -1.2,1.8 -0.6,0.5 -1.4,1.1 -2.6,1.6 l 0.6,3.2 45.6,-9.3 
	-2.9,-19.5 -6.6,1.3 c -0,1.8 -0.1,3.7 -0.3,5.7 -0.2,2 -0.6,3.7 -1.1,5.1 -0.6,1.3 -1.3,2.4 -2.3,3.2 -1,0.8 
	-2.4,1.4 -4.3,1.8 l -9.3,1.9 -9.7,-47.7 c -0.3,-1.5 -0.5,-2.8 -0.6,-3.8 -0.1,-1 -0,-1.9 0.2,-2.6 0.3,-0.7 
	0.7,-1.3 1.3,-1.8 0.6,-0.5 1.4,-1.1 2.5,-1.6 z m 182.9,10.5 -1.3,3 c 1,0.8 1.7,1.5 2.2,2.2 0.5,0.6 0.8,1.3 
	0.8,2 0.1,0.7 -0.1,1.6 -0.4,2.6 -0.3,1 -0.8,2.2 -1.4,3.6 L 547.3,127.6 c -0.6,1.4 -1.2,2.6 -1.7,3.5 -0.5,0.9 
	-1,1.6 -1.6,2.1 -0.6,0.5 -1.2,0.7 -2,0.8 -0.8,0.1 -1.8,0 -3,-0.2 l -1.3,3 20.4,8.7 c 4.8,2.1 8.9,3.5 
	12.3,4.3 4,0.9 7.7,1.2 11.1,0.9 3.5,-0.3 6.7,-1.2 9.7,-2.8 3.3,-1.7 6.3,-4.2 8.9,-7.4 2.7,-3.2 5,-7.2 
	7,-11.9 1.6,-3.9 2.7,-7.5 3.2,-10.9 0.5,-3.4 0.5,-6.6 -0.2,-9.6 -0.6,-3 -1.8,-5.9 -3.7,-8.7 -1.9,-2.8 
	-4.4,-5.3 -7.4,-7.5 -3,-2.2 -7,-4.4 -12,-6.5 z m -234.4,5.5 c -2,-0 -4.1,0.3 -6.4,0.8 -2.3,0.6 -5.1,1.5 -8.5,2.9 
	l -29.5,12.3 1.2,3 c 1.3,-0.2 2.3,-0.2 3.1,-0.1 0.8,0.1 1.5,0.4 2,0.8 0.6,0.5 1.1,1.2 1.6,2.1 0.5,0.9 1,2.1 1.6,3.5 
	l 16.2,38.9 c 0.6,1.4 1.1,2.7 1.4,3.7 0.3,1 0.4,1.8 0.3,2.6 -0.1,0.7 -0.3,1.4 -0.8,2 -0.5,0.6 -1.2,1.3 -2.2,2 
	l 1.2,3 27.8,-11.6 c 4.3,-1.8 7.7,-3.6 10.2,-5.4 2.5,-1.8 4.5,-3.9 6,-6.1 1.5,-2.3 2.2,-4.8 2.3,-7.4 
	0.1,-2.6 -0.5,-5.5 -1.7,-8.5 -1.5,-3.5 -3.8,-6.1 -7.1,-7.6 -3.2,-1.6 -7.2,-2.2 -12,-1.8 l -0.2,-0.4 
	c 6.8,-6.8 8.7,-13.6 5.9,-20.4 -1.1,-2.5 -2.5,-4.5 -4.3,-5.9 -1.8,-1.4 -3.9,-2.2 -6.1,-2.4 -0.6,-0.1 
	-1.3,-0.1 -1.9,-0.1 z m 250.8,7.8 c 0.8,0.3 2.2,0.8 4,1.6 3.9,1.6 6.8,4 8.8,6.9 2,3 3,6.6 2.9,11.1 -0.1,4.4 
	-1.3,9.4 -3.7,15.1 -2.2,5.2 -4.6,9.3 -7.2,12.5 -2.4,2.9 -5,4.9 -7.8,6.2 -1.7,0.8 -3.5,1.1 -5.5,1.2 -2.7,0 
	-5.6,-0.7 -8.9,-2.1 -2.2,-0.9 -3.5,-1.6 -4,-1.9 z M 319.9,90.1 c 1.7,0 3.3,0.5 4.7,1.5 1.6,1 2.9,2.8 
	3.9,5.3 1.2,2.8 1.7,5.2 1.4,7.2 -0.2,2 -1,3.7 -2.3,5.3 -1.4,1.6 -3.5,3 -6.5,4.3 l -6,2.5 -8.9,-21.5 
	c 1.9,-1 3.9,-1.9 6,-2.8 2.6,-1.1 5,-1.7 7,-1.8 0.3,-0 0.5,-0 0.8,-0 z m -51.9,16 -17.8,12.1 1.8,2.7 
	c 1.8,-0.6 3.1,-0.8 3.9,-0.7 0.8,0.1 1.6,0.6 2.3,1.3 0.7,0.7 1.8,2 3.1,4 l 17.5,25.8 c 2.7,3.9 4.4,7.1 
	5.2,9.5 0.8,2.3 0.9,4.5 0.3,6.5 -0.6,2 -2.3,4 -5,5.8 -2,1.4 -3.9,2.1 -5.6,2.3 -1.7,0.2 -3.4,-0.1 -4.9,-0.8 
	-1.6,-0.8 -3.1,-2 -4.5,-3.5 -1.5,-1.6 -2.9,-3.4 -4.3,-5.5 l -18.1,-26.7 c -1,-1.5 -1.7,-2.7 -2.2,-3.5 
	-0.4,-0.9 -0.7,-1.6 -0.7,-2.3 -0.1,-0.7 0.1,-1.3 0.3,-2 0.3,-0.7 0.9,-1.6 1.8,-2.6 l -1.8,-2.7 -21.2,14.4 1.8,2.7 
	c 1.2,-0.4 2.2,-0.7 3,-0.7 0.8,-0.1 1.5,0.1 2.2,0.4 0.7,0.3 1.3,0.9 1.9,1.7 0.7,0.8 1.4,1.8 2.3,3.1 
	l 17.7,26.2 c 2.4,3.6 4.8,6.3 7.2,8.1 2.4,1.7 4.9,2.9 7.7,3.4 2.7,0.5 5.7,0.2 8.9,-0.8 3.2,-1 6.7,-2.8 
	10.5,-5.4 2.6,-1.8 4.8,-3.6 6.7,-5.4 1.8,-1.8 3.3,-3.8 4.3,-5.9 1.1,-2.1 1.6,-4.3 1.7,-6.6 0.1,-2.3 -0.4,-4.8 
	-1.3,-7.4 -1,-2.6 -2.6,-5.6 -4.9,-9 l -17.1,-25.3 c -0.9,-1.3 -1.6,-2.4 -2,-3.3 -0.5,-0.9 -0.8,-1.7 -0.9,-2.5 
	-0.1,-0.8 0.1,-1.5 0.4,-2.2 0.3,-0.7 0.9,-1.5 1.7,-2.4 z m 369.2,3.5 -1.8,2.7 c 0.8,1 1.4,1.8 1.8,2.5 
	0.4,0.7 0.5,1.4 0.4,2.2 -0.1,0.7 -0.4,1.6 -0.9,2.5 -0.5,0.9 -1.2,2 -2,3.3 l -23.6,34.8 c -0.9,1.3 -1.6,2.3 
	-2.3,3.2 -0.6,0.8 -1.3,1.4 -2,1.7 -0.6,0.4 -1.4,0.5 -2.2,0.4 -0.8,-0.1 -1.7,-0.3 -2.9,-0.7 l -1.8,2.7 
	39.7,27 10.8,-14.2 -5.5,-3.8 c -1.6,1.4 -3,2.4 -4,3.1 -1.1,0.7 -2,1.2 -2.8,1.5 -0.8,0.4 -1.5,0.6 -2.4,0.8 
	-0.8,0.2 -1.6,0.3 -2.3,0.2 -0.7,-0.1 -1.4,-0.2 -2.2,-0.5 -0.7,-0.3 -1.6,-0.8 -2.5,-1.5 l -8.8,-5.9 14.6,-21.6 5.3,3.6 
	c 1.3,0.9 2.1,1.7 2.5,2.4 0.4,0.8 0.6,1.8 0.4,2.9 -0.1,1.1 -0.5,2.6 -1.2,4.4 l 4.6,3.1 11.1,-16.4 -4.6,-3.1 
	c -1.5,1.4 -2.8,2.3 -3.8,2.8 -1,0.5 -1.9,0.7 -2.8,0.6 -0.9,-0.1 -1.9,-0.6 -3.1,-1.4 l -5.3,-3.6 13.2,-19.4 8.8,6 
	c 2.1,1.4 3.4,2.7 3.9,3.8 0.5,1.1 0.8,2.3 0.8,3.6 0,1.3 -0.4,3.5 -1.2,6.7 l 5.5,3.8 8.7,-12.8 z m -306.5,7.5 
	c 1.2,-0 2.4,0.2 3.5,0.5 1.5,0.5 2.8,1.4 4,2.7 1.2,1.3 2.2,3 3.1,5.2 1.3,3.1 1.8,5.7 1.5,7.9 -0.3,2.2 
	-1.2,4 -2.8,5.5 -1.5,1.5 -3.7,2.8 -6.6,4 -2.3,1 -4.4,1.8 -6.2,2.4 l -9.9,-23.9 6.3,-2.6 c 2.3,-0.9 4.2,-1.5 
	5.9,-1.7 0.4,-0.1 0.8,-0.1 1.2,-0.1 z m 360.5,30.5 -2.2,2.3 c 0.7,1.1 1.1,2 1.3,2.8 0.2,0.8 0.3,1.5 0,2.2 
	-0.2,0.7 -0.6,1.5 -1.3,2.3 -0.7,0.8 -1.5,1.8 -2.6,2.9 l -22,22.7 c -3,3.1 -5.2,6 -6.4,8.7 -1.2,2.7 -1.8,5.4 
	-1.7,8.2 0.1,2.8 1,5.6 2.6,8.6 1.6,2.9 4.1,6 7.4,9.2 2.3,2.2 4.5,4 6.6,5.4 2.2,1.4 4.4,2.4 6.6,3 2.3,0.6 
	4.5,0.7 6.8,0.3 2.3,-0.4 4.6,-1.3 6.9,-2.8 2.4,-1.5 5,-3.7 7.8,-6.6 l 21.2,-21.9 c 1.1,-1.1 2,-2 2.8,-2.7 
	0.8,-0.7 1.5,-1.1 2.3,-1.3 0.7,-0.2 1.5,-0.3 2.2,-0 0.8,0.2 1.7,0.6 2.7,1.2 l 2.2,-2.3 -15.4,-15 -2.2,2.3 
	c 0.9,1.6 1.4,2.8 1.5,3.7 0,0.9 -0.2,1.7 -0.8,2.5 -0.5,0.8 -1.6,2.1 -3.3,3.9 l -21.7,22.4 c -3.3,3.4 
	-6,5.7 -8.2,7 -2.1,1.3 -4.2,1.8 -6.3,1.6 -2.1,-0.2 -4.3,-1.4 -6.7,-3.7 -1.7,-1.7 -2.9,-3.3 -3.4,-5 -0.5,-1.6 
	-0.6,-3.3 -0.2,-5 0.5,-1.7 1.3,-3.4 2.5,-5.2 1.2,-1.7 2.8,-3.5 4.5,-5.4 l 22.4,-23.1 c 1.3,-1.3 2.3,-2.3 
	3,-2.8 0.8,-0.6 1.4,-1 2.1,-1.2 0.6,-0.2 1.3,-0.2 2,-0.1 0.8,0.1 1.7,0.6 3,1.2 l 2.2,-2.3 z m -485.4,10.6 
	c -0.6,0 -1.2,0.1 -1.9,0.2 -5,0.8 -10.4,4 -16.3,9.8 l -20.3,19.8 2.3,2.3 c 1.1,-0.6 2.1,-1 2.8,-1.2 0.8,-0.2 
	1.5,-0.2 2.2,0 0.7,0.2 1.5,0.7 2.2,1.4 0.8,0.7 1.7,1.6 2.8,2.7 l 29.4,30.1 c 1.1,1.1 2,2.1 2.6,2.9 0.6,0.8 
	1.1,1.6 1.3,2.3 0.2,0.7 0.2,1.4 -0,2.2 -0.2,0.7 -0.7,1.6 -1.3,2.7 l 2.3,2.3 18.8,-18.4 -2.3,-2.3 c -1.2,0.8 
	-2.2,1.4 -3,1.6 -0.7,0.2 -1.4,0.3 -2.1,0.2 -0.6,-0.1 -1.3,-0.5 -2.1,-1 -0.8,-0.5 -1.9,-1.6 -3.4,-3.1 
	l -10.9,-11.2 c 1.5,-1.3 3.4,-3.1 5.7,-5.3 3.9,-3.8 6.6,-7.6 8.1,-11.3 1.4,-3.7 1.7,-7.4 0.9,-11 -0.9,-3.6 
	-2.8,-7 -5.8,-10.1 -3.7,-3.8 -7.8,-5.7 -12,-5.6 z m -7.5,11.6 c 1,0 2,0.3 3,0.7 2.1,0.8 4.3,2.3 6.6,4.8 
	2.4,2.4 4,4.7 4.7,6.8 0.8,2.1 0.8,4.1 0.1,6.1 -0.7,2 -2.3,4.1 -4.6,6.4 l -3,2.9 -19.2,-19.6 c 0.8,-0.9 
	2.1,-2.2 3.7,-3.8 2,-2 3.9,-3.3 5.8,-3.9 0.9,-0.3 1.9,-0.5 2.9,-0.4 z m -42.1,31.2 -29.1,38.7 2.6,1.9 
	c 1,-0.8 1.9,-1.3 2.6,-1.6 0.7,-0.3 1.5,-0.4 2.2,-0.3 0.7,0.1 1.5,0.4 2.4,1 0.9,0.5 2,1.3 3.2,2.2 l 33.7,25.3 
	c 1.2,0.9 2.3,1.8 3,2.5 0.7,0.7 1.3,1.4 1.6,2.1 0.3,0.7 0.4,1.4 0.3,2.2 -0.1,0.8 -0.4,1.7 -0.9,2.9 l 
	2.6,1.9 28.8,-38.4 -13.7,-11.4 -4,5.3 c 1.3,1.7 2.3,3.1 2.9,4.2 0.6,1.1 1.1,2 1.4,2.8 0.3,0.8 0.5,1.6 
	0.7,2.4 0.2,0.8 0.2,1.6 0.1,2.3 -0.1,0.7 -0.3,1.4 -0.6,2.1 -0.4,0.7 -0.9,1.5 -1.6,2.4 l -6.4,8.5 -20.9,-15.7 3.9,-5.2 
	c 0.9,-1.2 1.8,-2 2.6,-2.4 0.8,-0.4 1.8,-0.5 2.9,-0.3 1.1,0.1 2.6,0.6 4.3,1.4 l 3.3,-4.4 -15.9,-11.9 -3.3,4.4 
	c 1.3,1.6 2.2,2.9 2.6,3.9 0.4,1 0.6,1.9 0.4,2.8 -0.2,0.9 -0.7,1.9 -1.6,3 l -3.9,5.2 -18.7,-14.1 6.4,-8.5 
	c 1.5,-2 2.8,-3.2 4,-3.7 1.1,-0.5 2.3,-0.7 3.7,-0.6 1.3,0 3.5,0.6 6.6,1.6 l 4,-5.3 z m 588.2,0.5 -13.8,10.2 4,5.4 
	c 1.4,-0.6 2.9,-1.1 4.5,-1.6 1.7,-0.5 3.1,-0.8 4.3,-0.8 1.2,0.1 2.4,0.4 3.4,0.9 1,0.6 2.1,1.6 3.2,3.2 
	l 2.3,3.2 -39.2,28.8 c -1.3,0.9 -2.4,1.7 -3.3,2.2 -0.9,0.5 -1.7,0.9 -2.5,0.9 -0.8,0.1 -1.6,-0.1 -2.4,-0.5 
	-0.8,-0.4 -1.6,-1.1 -2.6,-2.1 l -2.6,1.9 16,21.7 2.6,-1.9 c -0.5,-1 -0.9,-1.9 -1.1,-2.6 -0.1,-0.7 -0.2,-1.3 
	-0.2,-1.8 0.1,-0.5 0.3,-1 0.6,-1.6 0.3,-0.5 0.8,-1.1 1.4,-1.7 0.7,-0.6 1.7,-1.4 3.1,-2.5 l 39.2,-28.8 2.1,2.8 
	c 0.8,1.1 1.4,2 1.7,2.7 0.4,0.8 0.6,1.4 0.7,2.1 0.1,0.6 0.1,1.3 -0,2 -0.1,0.7 -0.3,1.4 -0.7,2.2 -0.3,0.8 
	-0.8,1.6 -1.4,2.5 -0.6,0.9 -1.7,2.3 -3.1,4.1 l 4,5.4 13.8,-10.2 z m -621.4,61.6 c -0.9,0 -1.8,0.1 -2.7,0.3 
	-1.8,0.4 -3.5,1.1 -5.1,2.1 -1.9,1.2 -3.8,2.9 -5.5,5.1 -1.8,2.1 -3.5,4.8 -5.4,8.2 l -13.6,25 2.8,1.5 
	c 0.9,-0.9 1.7,-1.6 2.4,-2 0.7,-0.4 1.4,-0.7 2.1,-0.6 0.7,-0 1.6,0.2 2.5,0.7 1,0.4 2.1,1 3.5,1.7 l 37,20 
	c 1.4,0.7 2.5,1.4 3.4,2 0.8,0.6 1.5,1.2 1.9,1.8 0.4,0.6 0.6,1.3 0.6,2.1 -0,0.8 -0.2,1.8 -0.4,3 l 2.8,1.5 
	12.2,-22.5 -2.8,-1.5 c -1.2,1.3 -2.3,2.1 -3.1,2.4 -0.8,0.3 -1.7,0.3 -2.7,0 -1,-0.3 -2.5,-1 -4.7,-2.1 
	l -13.8,-7.5 1.3,-2.5 c 0.9,-1.6 1.7,-2.6 2.4,-3.2 0.8,-0.6 1.8,-1 3.1,-1.2 1.3,-0.2 3.3,-0.2 6,-0.1 
	l 9.2,0.6 c 5.7,0.4 10.1,0.3 13.3,-0.1 l 9,-16.5 -2.8,-1.5 c -1.2,1.5 -2.7,2.5 -4.7,3 -2,0.5 -4.6,0.6 -7.8,0.4 
	l -7.3,-0.5 c -3,-0.2 -5.6,0.1 -7.8,0.6 -2.3,0.5 -4.5,1.6 -6.5,3.2 l -0.4,-0.2 c 0.3,-3.4 0.3,-6.3 -0.1,-8.7 
	-0.4,-2.4 -1.4,-4.7 -2.9,-6.7 -1.5,-2.1 -3.6,-3.9 -6.4,-5.4 -2.1,-1.2 -4.2,-1.9 -6.1,-2.2 -1,-0.2 -1.9,-0.2 -2.8,-0.2 
	z m 655.5,2.9 c -3,-0.1 -6,0.7 -9.1,2.4 -2.1,1.2 -3.9,2.6 -5.2,4.2 -1.3,1.6 -2.4,3.5 -3.2,5.6 -0.7,2.1 
	-1.2,4.3 -1.4,6.8 -0.2,2.5 -0.3,5.1 -0.2,7.9 0.1,3.3 -0,6 -0.4,8.1 -0.4,2.1 -1,3.8 -2,5.2 -0.9,1.4 -2.3,2.5 
	-4.1,3.5 -1.9,1 -3.7,1.5 -5.5,1.4 -1.7,-0.1 -3.2,-0.7 -4.5,-1.7 -1.3,-1 -2.4,-2.4 -3.3,-4.1 -1.8,-3.2 
	-2.3,-6.1 -1.5,-8.7 0.8,-2.6 2.7,-5.1 5.7,-7.7 l -3.2,-5.9 -13.2,7.2 c 0.9,3.1 2,6.3 3.4,9.6 1.4,3.4 
	2.9,6.5 4.5,9.4 2.2,4.1 4.9,7.3 7.9,9.7 3.1,2.4 6.4,3.6 9.8,3.9 3.5,0.2 7,-0.6 10.5,-2.6 2.7,-1.5 4.9,-3.3 
	6.4,-5.4 1.6,-2.1 2.7,-4.6 3.3,-7.6 0.7,-3 1,-6.7 0.9,-11.2 -0.1,-3.7 0,-6.6 0.4,-8.8 0.3,-2.2 0.9,-3.9 
	1.8,-5.2 0.9,-1.3 2.2,-2.4 3.8,-3.3 1.6,-0.9 3.2,-1.2 4.7,-1.1 1.5,0.1 3,0.7 4.2,1.6 1.3,1 2.4,2.3 3.2,3.9 
	1,1.9 1.6,3.7 1.6,5.3 0.1,1.6 -0.4,3.2 -1.3,4.7 -0.8,1.6 -2.3,3.2 -4.2,5 l 3.2,5.9 12.4,-6.8 c -0.9,-3.3 
	-1.9,-6.2 -2.9,-8.7 -1,-2.5 -2.2,-5 -3.5,-7.5 -2.4,-4.3 -5.1,-7.8 -8.2,-10.4 -3,-2.6 -6.3,-4.1 -9.7,-4.5 
	-0.4,-0.1 -0.9,-0.1 -1.3,-0.1 z m -660.8,10.9 c 2.4,-0 5,0.7 8,2.3 1.8,1 3.3,2 4.6,3.2 1.3,1.1 2.3,2.4 
	2.9,3.9 0.6,1.4 0.8,3.1 0.7,4.9 -0.2,1.8 -0.9,3.9 -2.2,6.2 l -2.3,4.3 -23.9,-12.9 c 0.4,-0.8 1.2,-2.4 
	2.5,-4.9 2,-3.6 4.4,-5.8 7.3,-6.6 0.7,-0.2 1.5,-0.3 2.3,-0.3 z m -31.7,41.5 c -1.9,2.9 -3.5,5.5 -4.7,7.9 
	-1.2,2.3 -2.4,4.9 -3.4,7.6 -1.8,4.6 -2.6,9 -2.6,13 0,4 1,7.4 2.9,10.3 1.9,2.9 4.7,5 8.5,6.4 2.3,0.9 4.5,1.3 
	6.6,1.3 2.1,-0.1 4.2,-0.5 6.3,-1.2 2,-0.8 4.1,-1.9 6.1,-3.3 2,-1.4 4.1,-3.1 6.1,-5 2.5,-2.2 4.6,-3.9 
	6.4,-5 1.8,-1.1 3.6,-1.7 5.3,-1.9 1.6,-0.2 3.4,0.1 5.3,0.8 2,0.8 3.6,1.9 4.6,3.3 1,1.4 1.6,2.9 1.6,4.5 
	0.1,1.7 -0.2,3.4 -0.9,5.2 -1.3,3.4 -3.2,5.7 -5.6,6.8 -2.5,1.1 -5.7,1.3 -9.6,0.7 l -2.4,6.3 14.1,5.4 
	c 1.8,-2.7 3.5,-5.7 5.1,-8.9 1.7,-3.2 3.1,-6.4 4.2,-9.5 1.7,-4.4 2.4,-8.5 2.2,-12.3 -0.2,-3.9 -1.4,-7.2 
	-3.5,-10 -2.1,-2.8 -5,-4.9 -8.8,-6.3 -2.9,-1.1 -5.7,-1.6 -8.3,-1.4 -2.6,0.2 -5.2,1 -7.9,2.4 -2.7,1.4 
	-5.7,3.6 -9.1,6.6 -2.8,2.5 -5,4.3 -6.9,5.4 -1.9,1.1 -3.6,1.8 -5.1,2 -1.6,0.2 -3.2,-0.1 -5,-0.8 -1.7,-0.6 
	-3,-1.6 -3.9,-2.8 -0.9,-1.3 -1.4,-2.7 -1.5,-4.3 -0.1,-1.6 0.2,-3.3 0.9,-5 0.8,-2 1.8,-3.6 2.9,-4.7 1.2,-1.1 
	2.7,-1.8 4.4,-2.1 1.7,-0.4 3.9,-0.4 6.6,-0.1 l 2.4,-6.3 z m 710.3,0.7 c -5.1,0.1 -10.5,1.2 -16.3,3.5 
	-7,2.8 -12.5,6 -16.3,9.7 -3.8,3.7 -6.1,8 -6.8,12.9 -0.7,4.9 0.2,10.5 2.7,16.8 1.2,3 2.5,5.8 3.9,8.4 1.5,2.6 
	3.2,5.4 5.3,8.4 l 13.8,-5.4 -2.5,-6.2 c -2.9,0.5 -5.3,0.6 -7.1,0.3 -1.8,-0.2 -3.4,-0.9 -4.7,-2 -1.3,-1.1 
	-2.4,-2.8 -3.2,-5 -1.7,-4.3 -0.9,-8.5 2.6,-12.4 3.4,-4 9.4,-7.6 17.7,-10.9 9,-3.6 16.3,-5 21.8,-4.4 5.6,0.6 
	9.3,3.3 11.2,8.1 1,2.5 1,4.9 -0,7.1 -1,2.2 -3,4.4 -6.2,6.4 l 2.4,6.2 13.2,-5.2 c -0.3,-3 -0.8,-5.8 -1.4,-8.4 
	-0.6,-2.6 -1.6,-5.5 -2.8,-8.5 -2.4,-6 -5.7,-10.7 -10.1,-14 -4.3,-3.3 -9.4,-5.1 -15.2,-5.4 -0.7,-0 -1.4,-0.1 -2.2,-0 
	z m 38.2,50.8 -3.1,0.8 c -0,1.3 -0.2,2.3 -0.4,3.1 -0.2,0.8 -0.6,1.4 -1.2,1.9 -0.5,0.5 -1.3,0.9 -2.3,1.2 
	-1,0.3 -2.2,0.7 -3.7,1 l -40.9,9.8 c -1.5,0.4 -2.8,0.6 -3.8,0.8 -1,0.1 -1.9,0.1 -2.6,-0.1 -0.7,-0.2 -1.3,-0.5 
	-1.9,-1.2 -0.5,-0.6 -1.1,-1.4 -1.7,-2.5 l -3.1,0.8 6,24.9 3.1,-0.8 c 9.6e-4,-1 0.1,-1.8 0.2,-2.5 0.2,-0.7 
	0.4,-1.3 0.7,-1.8 0.3,-0.4 0.8,-0.8 1.3,-1.2 0.6,-0.3 1.3,-0.6 2.2,-0.9 0.9,-0.3 2,-0.6 3.1,-0.8 l 19,-4.6 
	5.2,21.5 -19,4.6 c -2.7,0.6 -4.5,1 -5.4,1 -0.9,-0 -1.7,-0.2 -2.3,-0.7 -0.6,-0.4 -1.4,-1.5 -2.3,-3.2 
	l -3.1,0.8 6,24.8 3.1,-0.8 c 0,-1.8 0.2,-3.1 0.7,-3.8 0.4,-0.8 1.1,-1.4 1.9,-1.8 0.9,-0.4 2.5,-0.9 5,-1.5 
	l 40.9,-9.8 c 1.7,-0.4 3,-0.7 3.8,-0.8 0.8,-0.1 1.6,-0.1 2.4,-0 0.7,0.1 1.4,0.5 1.9,1 0.6,0.5 1.3,1.4 2,2.7 
	l 3.1,-0.8 -6,-24.8 -3.1,0.8 c -0.1,1.8 -0.3,3.1 -0.8,3.9 -0.4,0.8 -1.1,1.4 -2,1.8 -0.9,0.4 -2.5,1 -4.9,1.5 
	l -15.9,3.8 -5.2,-21.5 15.9,-3.8 c 2.4,-0.6 4.1,-0.9 5.1,-0.8 1,0 1.9,0.3 2.6,0.7 0.7,0.5 1.5,1.5 2.4,3.1 
	l 3.1,-0.8 z m -769.5,1.7 -11.8,47 3.1,0.8 c 0.6,-1.1 1.2,-2 1.8,-2.5 0.6,-0.6 1.2,-1 1.9,-1.1 0.7,-0.2 
	1.6,-0.2 2.6,0 1,0.2 2.3,0.4 3.8,0.8 l 40.8,10.3 c 1.5,0.4 2.8,0.7 3.8,1.1 1,0.3 1.7,0.8 2.3,1.3 0.6,0.5 
	0.9,1.1 1.1,1.9 0.2,0.8 0.3,1.8 0.3,3 l 3.1,0.8 11.7,-46.5 -17.1,-5.2 -1.6,6.5 c 1.8,1.1 3.3,2 4.3,2.7 
	1,0.8 1.8,1.4 2.4,2.1 0.6,0.6 1.1,1.2 1.6,2 0.5,0.7 0.8,1.4 1,2.1 0.2,0.7 0.3,1.4 0.2,2.2 -0.1,0.8 -0.2,1.7 -0.5,2.8 
	l -2.6,10.3 -25.3,-6.4 1.6,-6.3 c 0.4,-1.5 0.9,-2.5 1.4,-3.2 0.6,-0.7 1.5,-1.1 2.6,-1.4 1.1,-0.3 2.6,-0.4 4.5,-0.4 
	l 1.3,-5.4 -19.2,-4.8 -1.3,5.3 c 1.8,1 3.1,1.8 3.9,2.6 0.8,0.7 1.3,1.6 1.5,2.4 0.2,0.9 0.1,2 -0.3,3.4 
	l -1.6,6.2 -22.7,-5.7 2.6,-10.3 c 0.6,-2.4 1.4,-4.1 2.2,-4.9 0.9,-0.9 1.9,-1.5 3.2,-2 1.2,-0.5 3.5,-0.8 6.7,-1.1 
	l 1.6,-6.5 z m 10.6,66.1 c -1.9,-5.3e-4 -3.7,0.1 -5.4,0.3 -3.4,0.5 -6.5,1.4 -9.2,2.9 -2.7,1.4 -5.1,3.5 
	-7.3,6.1 -2.1,2.6 -3.8,5.7 -5.1,9.2 -1.2,3.5 -2.2,8 -2.8,13.4 l -2.8,25.2 3.2,0.4 c 0.5,-1.2 0.9,-2.1 
	1.4,-2.7 0.5,-0.7 1,-1.1 1.7,-1.4 0.7,-0.3 1.6,-0.4 2.6,-0.3 1,0 2.3,0.1 3.8,0.3 l 41.8,4.7 c 1.6,0.2 
	2.8,0.4 3.9,0.6 1,0.2 1.8,0.5 2.4,1 0.6,0.4 1.1,1 1.4,1.7 0.3,0.7 0.5,1.7 0.7,2.9 l 3.2,0.4 2.5,-22 
	c 0.6,-5.2 0.8,-9.6 0.6,-13.1 -0.2,-4.1 -1,-7.7 -2.3,-10.9 -1.3,-3.3 -3.1,-6.1 -5.4,-8.5 -2.6,-2.7 -5.8,-4.8 
	-9.7,-6.4 -3.9,-1.6 -8.3,-2.8 -13.4,-3.3 -2.1,-0.2 -4.1,-0.4 -6,-0.4 z m 775.6,9 -3.2,0.3 c -0.2,1.3 
	-0.5,2.3 -0.8,3 -0.3,0.8 -0.8,1.3 -1.4,1.7 -0.6,0.4 -1.4,0.7 -2.5,0.9 -1,0.2 -2.3,0.4 -3.8,0.5 l -41.8,4.3 
	c -1.6,0.2 -2.9,0.2 -3.9,0.3 -1,0 -1.9,-0.1 -2.6,-0.4 -0.7,-0.3 -1.3,-0.7 -1.7,-1.4 -0.5,-0.6 -0.9,-1.5 -1.4,-2.7 
	l -3.2,0.3 4.8,46.3 19.7,-1 -0.7,-6.7 c -1.8,-0.2 -3.6,-0.5 -5.7,-0.9 -2,-0.4 -3.7,-0.9 -5,-1.6 -1.3,-0.7 
	-2.3,-1.6 -3,-2.6 -0.7,-1.1 -1.1,-2.5 -1.3,-4.4 l -1,-9.4 48.4,-5 c 1.6,-0.2 2.8,-0.2 3.9,-0.2 1,0 1.9,0.2 
	2.6,0.5 0.7,0.3 1.2,0.8 1.7,1.4 0.5,0.6 0.9,1.5 1.4,2.7 l 3.2,-0.3 z m -776.8,6.7 c 2,-0 4.2,0.1 6.5,0.4 
	5.6,0.6 10.3,1.7 14,3.3 3.4,1.5 6.2,3.4 8.1,5.7 1.2,1.4 2.1,3.1 2.7,5 0.8,2.5 0.9,5.6 0.5,9.2 -0.3,2.4 
	-0.5,3.8 -0.6,4.4 l -54.6,-6.2 c 0,-0.9 0.2,-2.3 0.4,-4.3 0.5,-4.2 1.8,-7.6 4.1,-10.4 2.2,-2.8 5.5,-4.8 
	9.8,-6 2.6,-0.7 5.7,-1.1 9.1,-1.1 z m 715.9,47.4 -0.4,20.8 3.2,0.1 c 0.3,-3.4 2,-5 5.2,-5 1.4,0 2.7,0.2 
	3.8,0.5 1.2,0.3 2.5,0.7 3.8,1.2 l 4.6,1.7 -0.4,20.8 -4.8,1.2 c -1.9,0.5 -3.5,0.8 -4.7,1 -1.2,0.2 -2.4,0.3 
	-3.4,0.3 -1.4,-0 -2.4,-0.5 -3.2,-1.3 -0.7,-0.8 -1.2,-2.1 -1.3,-3.8 l -3.2,-0.1 -0.5,26.9 3.2,0.1 c 0.3,-1.4 
	0.8,-2.5 1.4,-3.2 0.7,-0.8 1.5,-1.4 2.5,-1.9 1.1,-0.5 2.8,-1 5.3,-1.7 l 55,-15.1 0.2,-13 -53.8,-21.4 
	c -2.3,-0.9 -4.1,-1.7 -5.3,-2.5 -1.2,-0.8 -2.2,-1.6 -2.9,-2.5 -0.7,-0.9 -1.1,-2 -1.2,-3.2 z m -744.6,9.7 
	-3.2,0.1 0.5,18.4 3.2,-0.1 c 0.4,-1.3 0.7,-2.3 1,-2.9 0.3,-0.6 0.7,-1.1 1.2,-1.4 0.5,-0.4 1.2,-0.7 2.1,-0.8 
	0.9,-0.2 2.5,-0.3 4.6,-0.4 l 9.1,-0.3 c 9.2,-0.3 17.7,-0.7 25.5,-1.3 l 0,0.8 c -2.8,1.4 -5.8,3 -9,4.9 
	-3.2,1.8 -5.7,3.3 -7.5,4.4 l -29.5,18.1 0.6,19.8 3.2,-0.1 c 0.4,-1.7 0.9,-2.9 1.5,-3.6 0.6,-0.7 1.4,-1.2 
	2.3,-1.4 0.9,-0.3 2.6,-0.4 5,-0.5 l 42.2,-1.2 c 1.5,-0 2.8,-0 3.8,0 1,0.1 1.9,0.3 2.6,0.6 0.7,0.3 1.2,0.8 
	1.6,1.5 0.4,0.7 0.8,1.6 1.2,2.8 l 3.2,-0.1 -0.5,-18.4 -3.2,0.1 c -0.4,1.8 -0.9,3 -1.4,3.7 -0.6,0.6 -1.3,1.1 
	-2.3,1.4 -1,0.3 -2.7,0.4 -5.1,0.5 L 82.8,555.7 c -7.8,0.2 -15.2,0.6 -22.1,1.1 l -0,-0.4 c 2.9,-1.5 6.9,-3.8 11.9,-6.9 
	l 37.3,-23.1 -0.4,-12.4 -54.4,1.6 c -2,0.1 -3.6,0 -4.5,-0.2 -1,-0.2 -1.8,-0.4 -2.3,-0.8 -0.5,-0.4 -0.9,-0.8 
	-1.2,-1.3 -0.3,-0.5 -0.7,-1.5 -1.2,-2.8 z m 770.6,11.6 27.3,10.3 -27.6,7.3 z m -27.6,46.4 -2.9,18.2 3.2,0.5 
	c 0.7,-1.7 1.4,-2.8 2.1,-3.3 0.7,-0.5 1.5,-0.8 2.5,-0.9 1,-0.1 2.7,0.1 5.1,0.5 l 15.5,2.4 c 7.7,1.2 15,2.2 22,3 
	l -0.1,0.4 c -3.1,0.9 -7.4,2.5 -13,4.6 l -40.9,15.8 -1.9,12.3 53.7,8.5 c 2,0.3 3.5,0.6 4.4,1 1,0.3 1.7,0.7 
	2.1,1.2 0.4,0.5 0.7,1 0.9,1.5 0.2,0.6 0.4,1.6 0.6,2.9 l 3.2,0.5 2.9,-18.2 -3.2,-0.5 c -0.6,1.3 -1.1,2.1 
	-1.5,2.6 -0.4,0.5 -0.9,0.9 -1.4,1.2 -0.5,0.3 -1.3,0.4 -2.2,0.4 -1,0 -2.5,-0.1 -4.6,-0.5 l -9,-1.4 c -9.1,-1.4 
	-17.5,-2.6 -25.3,-3.4 l 0.1,-0.8 c 3,-0.9 6.3,-1.9 9.7,-3.1 3.5,-1.2 6.2,-2.2 8.2,-3 l 32.3,-12.4 3.1,-19.5 -3.2,-0.5 
	c -0.7,1.6 -1.4,2.7 -2.1,3.3 -0.7,0.6 -1.6,0.9 -2.5,0.9 -0.9,0.1 -2.6,-0.1 -5,-0.4 l -41.7,-6.6 c -1.5,-0.2 
	-2.8,-0.5 -3.7,-0.7 -1,-0.3 -1.8,-0.6 -2.4,-1.1 -0.6,-0.4 -1,-1 -1.3,-1.8 -0.3,-0.7 -0.5,-1.7 -0.6,-3 
	z M 96.8,582 c -2.3,0 -5,0.3 -8,0.8 l -30.1,5.1 c -1.5,0.3 -2.8,0.4 -3.8,0.5 -1,0.1 -1.9,-0 -2.6,-0.2 
	-0.7,-0.2 -1.3,-0.7 -1.8,-1.3 -0.5,-0.6 -1,-1.5 -1.5,-2.6 l -3.2,0.5 3.6,21.2 3.2,-0.5 c 0.2,-1.8 0.5,-3.1 
	1,-3.8 0.5,-0.7 1.2,-1.2 2.1,-1.6 0.9,-0.4 2.5,-0.8 4.9,-1.2 l 30.7,-5.2 c 4.7,-0.8 8.3,-1.1 10.8,-0.8 
	2.5,0.2 4.5,1.1 6.1,2.4 1.6,1.4 2.7,3.7 3.2,7 0.4,2.4 0.3,4.4 -0.2,6 -0.5,1.6 -1.5,3 -2.8,4.1 -1.4,1.1 
	-3.1,2 -5.1,2.7 -2,0.7 -4.3,1.2 -6.8,1.7 l -31.8,5.4 c -1.8,0.3 -3.2,0.5 -4.1,0.5 -1,0 -1.7,-0.1 -2.4,-0.3 
	-0.6,-0.2 -1.2,-0.6 -1.7,-1.2 -0.5,-0.6 -1.1,-1.5 -1.7,-2.7 l -3.2,0.5 4.3,25.3 3.2,-0.5 c 0.1,-1.3 0.3,-2.3 
	0.6,-3 0.3,-0.8 0.7,-1.4 1.3,-1.8 0.6,-0.5 1.4,-0.8 2.4,-1.1 1,-0.3 2.3,-0.5 3.8,-0.8 l 31.1,-5.3 c 4.3,-0.7 
	7.7,-1.8 10.3,-3.2 2.6,-1.4 4.6,-3.3 6.2,-5.6 1.6,-2.3 2.5,-5.1 3,-8.4 0.4,-3.3 0.2,-7.2 -0.6,-11.8 -0.5,-3.1 
	-1.3,-5.9 -2.2,-8.3 -0.9,-2.4 -2.1,-4.5 -3.6,-6.3 -1.5,-1.8 -3.2,-3.3 -5.3,-4.3 -2.1,-1 -4.5,-1.6 -7.2,-1.8 
	-0.7,-0 -1.4,-0.1 -2.2,-0.1 z m 681.5,51.5 -6.6,21.2 c -1.6,5 -2.6,9.2 -3,12.7 -0.5,4 -0.5,7.7 0.2,11.2 
	0.7,3.4 1.9,6.6 3.7,9.3 2,3.1 4.8,5.8 8.3,8.2 3.5,2.4 7.7,4.3 12.5,5.8 4,1.3 7.7,2 11.1,2.1 3.5,0.2 6.6,-0.2 
	9.6,-1.1 2.9,-0.9 5.7,-2.4 8.3,-4.6 2.6,-2.2 4.8,-4.9 6.7,-8.1 1.9,-3.2 3.6,-7.4 5.3,-12.6 l 7.6,-24.2 -3.1,-1 
	c -0.7,1.1 -1.3,1.9 -1.9,2.4 -0.6,0.6 -1.2,0.9 -2,1 -0.7,0.1 -1.6,0.1 -2.6,-0.2 -1,-0.2 -2.3,-0.6 -3.7,-1 
	l -40.2,-12.5 c -1.5,-0.5 -2.7,-0.9 -3.7,-1.3 -0.9,-0.4 -1.7,-0.9 -2.2,-1.4 -0.5,-0.5 -0.9,-1.2 -1,-2 
	-0.1,-0.8 -0.2,-1.8 -0.1,-3 z m -666.6,9.9 c -2.1,0 -4.3,0.4 -6.6,1.1 -3.6,1.2 -6.4,3.3 -8.2,6.4 -1.9,3.1 
	-2.8,7 -2.8,11.8 l -0.4,0.1 c -6.2,-7.3 -12.8,-9.9 -19.8,-7.6 -2.6,0.8 -4.7,2.1 -6.2,3.8 -1.5,1.7 -2.5,3.7 
	-2.9,5.9 -0.5,2.5 -0.5,5.3 0,8.4 0.4,2.3 1.1,5.2 2.2,8.7 l 9.7,30.5 3.1,-1 c -0.1,-1.3 -0,-2.3 0.2,-3.1 
	0.2,-0.8 0.5,-1.5 1,-2 0.5,-0.5 1.3,-1 2.2,-1.4 1,-0.4 2.2,-0.8 3.6,-1.3 l 40.1,-12.8 c 1.5,-0.5 2.7,-0.8 
	3.8,-1 1,-0.2 1.9,-0.3 2.6,-0.1 0.7,0.1 1.4,0.5 2,1 0.5,0.5 1.2,1.3 1.8,2.4 l 3.1,-1 -9.2,-28.7 c -1.4,-4.4 
	-2.9,-8 -4.5,-10.6 -1.6,-2.7 -3.5,-4.8 -5.6,-6.5 -2.2,-1.7 -4.6,-2.6 -7.2,-2.9 -0.7,-0.1 -1.3,-0.1 -2,-0.1 
	z m 666.2,11.3 52.4,16.4 c -0.2,0.9 -0.6,2.3 -1.2,4.2 -1.3,4 -3.3,7.2 -6,9.4 -2.7,2.3 -6.3,3.7 -10.7,4 
	-4.4,0.4 -9.5,-0.4 -15.4,-2.2 -5.4,-1.7 -9.8,-3.7 -13.1,-5.9 -3.1,-2.1 -5.4,-4.5 -6.9,-7.2 -0.9,-1.6 
	-1.5,-3.4 -1.7,-5.4 -0.3,-2.6 0.1,-5.7 1.2,-9.1 0.7,-2.3 1.2,-3.7 1.5,-4.2 z m -662.7,3.1 c 1,-0 1.8,0 
	2.6,0.2 2.1,0.5 3.9,1.6 5.2,3.2 1.3,1.7 2.4,4 3.4,6.9 0.8,2.4 1.4,4.5 1.9,6.4 l -24.7,7.9 -2.1,-6.5 
	c -0.7,-2.3 -1.1,-4.3 -1.2,-6 -0.1,-1.7 0.2,-3.3 0.9,-4.7 0.6,-1.4 1.6,-2.7 3.1,-3.7 1.4,-1.1 3.2,-2 
	5.5,-2.7 2,-0.6 3.8,-1 5.3,-1 z m -29.3,10.3 c 0.6,0 1.1,0.1 1.6,0.2 1.9,0.4 3.6,1.3 5.1,2.8 1.5,1.5 2.7,3.8 3.7,6.9 
	l 2,6.2 -22.1,7.1 c -0.8,-2 -1.6,-4.1 -2.3,-6.3 -0.9,-2.7 -1.3,-5.1 -1.2,-7.1 0.1,-2 0.7,-3.8 1.9,-5.3 
	1.2,-1.5 3,-2.6 5.6,-3.4 2.2,-0.7 4.1,-1 5.8,-1 z" />
<path style="font-weight:bold;font-size:100px;font-family:Cambria;letter-spacing:6.30000019px" 
	d="m 679.3,826.7 -42.8,38.3 11.4,12.8 5,-4.5 c -0.7,-1.3 -1.4,-2.8 -2.1,-4.4 -0.7,-1.6 -1.1,-3 -1.2,-4.2 
	-0.1,-1.2 0.1,-2.4 0.6,-3.4 0.5,-1 1.4,-2.2 2.9,-3.5 l 2.9,-2.6 32.4,36.3 c 1,1.2 1.9,2.2 2.5,3 0.6,0.8 
	1,1.6 1.2,2.4 0.2,0.8 0.1,1.6 -0.3,2.4 -0.3,0.8 -0.9,1.7 -1.8,2.8 l 2.1,2.4 20.1,-18 -2.1,-2.4 c -1,0.6 
	-1.8,1.1 -2.5,1.3 -0.7,0.2 -1.3,0.3 -1.8,0.3 -0.5,-0 -1,-0.2 -1.6,-0.4 -0.6,-0.2 -1.2,-0.7 -1.8,-1.2 
	-0.7,-0.6 -1.6,-1.6 -2.7,-2.9 l -32.4,-36.3 2.6,-2.3 c 1,-0.9 1.8,-1.5 2.6,-2 0.7,-0.5 1.4,-0.8 2,-0.9 
	0.6,-0.2 1.3,-0.2 1.9,-0.2 0.7,0 1.4,0.2 2.3,0.5 0.8,0.2 1.7,0.6 2.7,1.2 1,0.5 2.4,1.4 4.3,2.7 l 5,-4.5 
	z m -452.9,5.7 -2.1,2.4 c 0.7,1.1 1.2,2 1.5,2.7 0.3,0.8 0.3,1.5 0.2,2.2 -0.2,0.7 -0.5,1.5 -1.2,2.3 -0.6,0.9 
	-1.4,1.9 -2.4,3 l -27.4,31.9 c -1,1.2 -1.9,2.1 -2.7,2.9 -0.7,0.7 -1.5,1.2 -2.2,1.5 -0.7,0.3 -1.4,0.3 
	-2.2,0.2 -0.8,-0.2 -1.7,-0.5 -2.8,-1.1 l -2.1,2.4 22.8,19.6 c 3.5,3 6.7,5.3 9.4,6.7 2.8,1.4 5.5,2.3 8.2,2.6 
	2.7,0.3 5.3,-0.1 7.7,-1.3 2.4,-1.1 4.7,-2.9 6.8,-5.4 2.5,-2.9 3.7,-6.1 3.6,-9.8 -0,-3.6 -1.3,-7.5 -3.8,-11.5 
	l 0.3,-0.3 c 9.1,3 16.1,1.7 20.9,-3.9 1.8,-2.1 2.9,-4.2 3.3,-6.5 0.4,-2.2 0.2,-4.4 -0.6,-6.6 -0.9,-2.4 
	-2.4,-4.7 -4.4,-7.1 -1.5,-1.8 -3.7,-3.9 -6.4,-6.2 z m 11.6,17.8 c 1.7,1.3 3.5,2.7 5.2,4.1 2.2,1.9 3.8,3.7 
	4.8,5.5 1,1.8 1.4,3.6 1.1,5.5 -0.2,1.9 -1.2,3.8 -3,5.9 -2,2.3 -3.9,3.8 -5.8,4.5 -1.8,0.7 -3.8,0.8 -5.8,0.3 
	-2,-0.5 -4.3,-1.8 -6.7,-3.9 l -4.9,-4.2 z m 396.7,15.9 -39.8,25.5 1.7,2.7 c 1.2,-0.4 2.2,-0.6 3,-0.6 
	0.8,-0.1 1.5,0.1 2.2,0.5 0.7,0.4 1.3,1 1.9,1.8 0.6,0.8 1.4,1.9 2.2,3.2 l 22.7,35.4 c 0.8,1.3 1.5,2.4 
	2,3.4 0.5,0.9 0.8,1.8 0.8,2.5 0.1,0.7 -0.1,1.4 -0.5,2.2 -0.4,0.7 -1,1.5 -1.8,2.4 l 1.7,2.7 22.1,-14.2 -1.7,-2.7 
	c -1,0.5 -1.9,0.8 -2.6,0.9 -0.7,0.1 -1.3,0.1 -1.8,0.1 -0.5,-0.1 -1,-0.3 -1.5,-0.7 -0.5,-0.3 -1.1,-0.8 
	-1.6,-1.5 -0.6,-0.7 -1.3,-1.8 -2.3,-3.3 l -9.8,-15.3 5.3,-3.4 c 1.3,-0.8 2.4,-1.2 3.3,-1.3 0.9,-0.1 1.9,0.2 
	3,0.9 1.1,0.6 2.3,1.7 3.7,3.2 l 4.6,-3 -11.5,-17.9 -4.6,3 c 0.8,1.9 1.2,3.5 1.4,4.7 0.2,1.2 0,2.3 -0.4,3.1 
	-0.4,0.8 -1.3,1.6 -2.6,2.5 l -5.3,3.4 -13.4,-20.9 7.9,-5.1 c 2.1,-1.4 3.8,-2 5,-2 1.2,-0 2.4,0.2 3.7,0.7 
	1.2,0.5 3.1,1.8 5.7,3.8 l 5.6,-3.6 z m -415.5,6 5.2,4.4 c 1.9,1.6 3.2,3.1 4.2,4.5 0.9,1.4 1.5,2.9 1.7,4.4 
	0.2,1.5 0,3.1 -0.6,4.8 -0.6,1.6 -1.7,3.4 -3.2,5.1 -2.2,2.5 -4.3,4.1 -6.4,4.9 -2.1,0.7 -4.1,0.7 -6.2,-0 
	-2,-0.7 -4.2,-2.1 -6.5,-4.1 -1.9,-1.6 -3.5,-3.1 -4.9,-4.4 z m 63.4,9.1 c -5.3,0 -10.2,1.7 -14.9,5 -4.6,3.3 
	-8.8,8.1 -12.5,14.4 -5.7,9.6 -7.8,18.1 -6.5,25.3 1.3,7.3 6.1,13.3 14.4,18.2 4,2.3 7.9,3.8 11.8,4.6 3.9,0.7 
	7.7,0.6 11.5,-0.5 3.7,-1.1 7.3,-3.2 10.8,-6.2 3.5,-3.1 6.8,-7.3 9.9,-12.6 5.6,-9.5 7.7,-17.9 6.3,-25.1 
	-1.4,-7.3 -6.3,-13.4 -14.7,-18.3 -5.4,-3.2 -10.7,-4.7 -16,-4.7 z m 7.3,7.7 c 1.8,0.1 3.6,0.6 5.4,1.7 
	2.8,1.6 4.5,3.9 5.1,6.9 0.7,3 0.3,6.6 -1,10.9 -1.3,4.3 -3.6,9.2 -6.9,14.8 -2,3.4 -4.1,6.4 -6.2,9.1 -2.1,2.6 
	-4.2,4.7 -6.4,6.3 -2.1,1.5 -4.3,2.4 -6.5,2.7 -2.2,0.3 -4.4,-0.2 -6.5,-1.5 -4.2,-2.5 -6.1,-6.3 -5.7,-11.7 
	0.4,-5.3 3.1,-12.3 8.1,-20.7 4.8,-8.1 9.3,-13.5 13.5,-16.2 2.4,-1.5 4.8,-2.3 7.1,-2.2 z m 283.3,12.3 -12,5.1 2.2,57.9 
	c 0.1,2.5 0.1,4.4 -0.1,5.8 -0.2,1.4 -0.6,2.7 -1.2,3.7 -0.6,1 -1.4,1.8 -2.4,2.4 l 1.2,3 19.2,-8.1 -1.2,-3 
	c -3.2,1.1 -5.4,0.2 -6.7,-2.8 -0.5,-1.3 -0.9,-2.5 -1.1,-3.7 -0.2,-1.3 -0.4,-2.6 -0.4,-3.9 l -0.3,-4.9 
	19.2,-8.1 3.1,3.9 c 1.2,1.5 2.2,2.8 2.9,3.9 0.7,1.1 1.2,2 1.6,3 0.5,1.3 0.6,2.4 0.1,3.4 -0.5,1 -1.4,1.9 -2.9,2.8 
	l 1.2,3 24.8,-10.4 -1.2,-3 c -1.4,0.3 -2.6,0.3 -3.5,0 -1,-0.3 -1.9,-0.8 -2.7,-1.6 -0.9,-0.8 -2.1,-2.1 -3.7,-4.1 
	z m -249.6,0 -5.8,16.1 6.3,2.3 c 0.8,-1.3 1.8,-2.6 2.9,-3.9 1.1,-1.4 2.1,-2.4 3.2,-3.1 1.1,-0.7 2.2,-1 
	3.3,-1.1 1.1,-0.1 2.6,0.2 4.5,0.9 l 3.7,1.3 -16.5,45.8 c -0.5,1.5 -1,2.7 -1.5,3.7 -0.4,0.9 -1,1.7 -1.6,2.2 
	-0.6,0.5 -1.3,0.8 -2.2,0.9 -0.9,0.1 -2,-0 -3.3,-0.3 l -1.1,3 25.4,9.1 1.1,-3 c -1,-0.5 -1.8,-1 -2.4,-1.5 
	-0.5,-0.5 -0.9,-1 -1.2,-1.4 -0.2,-0.5 -0.4,-1 -0.4,-1.6 -0.1,-0.6 0,-1.3 0.2,-2.2 0.2,-0.9 0.6,-2.1 1.2,-3.8 
	l 16.5,-45.8 3.3,1.2 c 1.3,0.5 2.2,0.9 3,1.3 0.8,0.4 1.3,0.8 1.8,1.3 0.4,0.5 0.8,1 1.1,1.6 0.3,0.6 0.5,1.4 
	0.7,2.2 0.2,0.8 0.3,1.8 0.3,2.9 -0,1.1 -0.1,2.8 -0.3,5.1 l 6.3,2.3 5.8,-16.1 z m 214,15.5 -25,4.9 0.6,3.2 
	c 1.8,0.1 3.1,0.5 3.8,0.9 0.8,0.4 1.3,1.1 1.7,2.1 0.4,0.9 0.8,2.5 1.3,5 l 3.2,16 -21.7,4.3 -3.2,-16 
	c -0.5,-2.5 -0.7,-4.2 -0.6,-5.2 0.1,-1 0.3,-1.9 0.8,-2.6 0.5,-0.7 1.6,-1.5 3.2,-2.3 l -0.6,-3.2 -25.2,5 0.6,3.2 
	c 1.3,0.1 2.3,0.3 3,0.5 0.8,0.2 1.4,0.7 1.8,1.2 0.5,0.6 0.8,1.4 1.1,2.4 0.3,1 0.6,2.3 0.9,3.8 l 8.1,41.3 
	c 0.3,1.5 0.5,2.8 0.6,3.9 0.1,1 0,1.9 -0.2,2.6 -0.2,0.7 -0.6,1.3 -1.2,1.8 -0.6,0.5 -1.5,1 -2.6,1.6 l 
	0.6,3.2 25.2,-5 -0.6,-3.2 c -1,-0 -1.8,-0.1 -2.5,-0.3 -0.7,-0.2 -1.3,-0.5 -1.8,-0.8 -0.4,-0.3 -0.8,-0.8 
	-1.1,-1.4 -0.3,-0.6 -0.6,-1.3 -0.8,-2.3 -0.3,-0.9 -0.5,-2 -0.7,-3.1 l -3.8,-19.2 21.7,-4.3 3.8,19.2 
	c 0.5,2.7 0.8,4.5 0.7,5.5 -0.1,0.9 -0.3,1.7 -0.8,2.2 -0.4,0.6 -1.6,1.3 -3.3,2.1 l 0.6,3.2 25,-4.9 -0.6,-3.2 
	c -1.8,-0.1 -3,-0.4 -3.8,-0.8 -0.8,-0.5 -1.3,-1.1 -1.7,-2 -0.4,-0.9 -0.8,-2.6 -1.3,-5 l -8.1,-41.2 c 
	-0.3,-1.7 -0.6,-3 -0.7,-3.9 -0.1,-0.8 -0,-1.6 0.1,-2.4 0.2,-0.7 0.5,-1.4 1.1,-1.9 0.6,-0.6 1.5,-1.2 2.8,-1.9 
	z m 30.7,0.8 17.9,22.3 -16.2,6.8 z m -171,5.8 c -2.2,-0 -4.3,0.2 -6.3,0.6 -3.9,0.8 -7.1,2.4 -9.6,4.8 
	-2.4,2.4 -4,5.6 -4.7,9.5 -0.4,2.4 -0.4,4.6 0,6.7 0.5,2.1 1.3,4 2.4,5.9 1.2,1.9 2.6,3.6 4.4,5.3 1.8,1.7 
	3.8,3.4 6.1,5.1 2.7,2 4.7,3.8 6.1,5.4 1.4,1.6 2.4,3.2 2.8,4.8 0.5,1.6 0.6,3.4 0.2,5.3 -0.4,2.1 -1.2,3.9 
	-2.3,5.1 -1.1,1.3 -2.5,2.1 -4.1,2.5 -1.6,0.4 -3.4,0.4 -5.3,0.1 -3.6,-0.6 -6.2,-2 -7.8,-4.2 -1.5,-2.2 
	-2.4,-5.3 -2.5,-9.3 l -6.6,-1.1 -2.6,14.8 c 3,1.2 6.2,2.4 9.7,3.3 3.5,1 6.9,1.8 10.1,2.4 4.6,0.8 8.8,0.7 
	12.5,-0.2 3.8,-1 6.8,-2.7 9.1,-5.3 2.3,-2.6 3.8,-5.9 4.5,-9.8 0.5,-3.1 0.5,-5.9 -0.2,-8.4 -0.7,-2.5 -1.9,-5 
	-3.9,-7.3 -1.9,-2.4 -4.6,-4.9 -8.2,-7.7 -2.9,-2.2 -5.2,-4.1 -6.6,-5.7 -1.5,-1.6 -2.5,-3.2 -3,-4.6 -0.5,-1.5 
	-0.5,-3.2 -0.2,-5 0.3,-1.8 1,-3.2 2,-4.4 1.1,-1.1 2.4,-1.9 3.9,-2.3 1.6,-0.4 3.2,-0.4 5.1,-0.1 2.1,0.4 
	3.9,1 5.2,2 1.3,1 2.3,2.3 2.9,3.9 0.7,1.6 1.1,3.8 1.3,6.4 l 6.6,1.1 2.4,-14 c -3.2,-1.3 -6.1,-2.4 -8.6,-3.1 
	-2.5,-0.8 -5.2,-1.4 -8.1,-1.9 -2.4,-0.4 -4.8,-0.6 -7,-0.7 z m 59.2,4.3 c -6.5,-0 -12,1.4 -16.7,4.2 -4.7,2.8 
	-8.2,6.8 -10.6,12.1 -2.4,5.2 -3.6,11.3 -3.6,18.4 -0,7.6 1,13.8 3,18.8 2,4.9 5.2,8.6 9.4,11.1 4.3,2.5 
	9.8,3.7 16.6,3.7 3.2,0 6.3,-0.2 9.2,-0.6 3,-0.4 6.2,-1 9.8,-1.8 l 0,-14.8 -6.7,-0 c -0.7,2.9 -1.4,5.1 
	-2.4,6.7 -0.9,1.6 -2.1,2.8 -3.6,3.6 -1.5,0.8 -3.4,1.2 -5.8,1.2 -4.7,-0 -8.2,-2.3 -10.6,-7 -2.4,-4.7 -3.6,-11.5 
	-3.5,-20.5 0,-9.7 1.4,-17 4,-21.9 2.7,-4.9 6.6,-7.4 11.7,-7.4 2.7,0 4.9,0.9 6.6,2.7 1.7,1.7 2.9,4.4 3.7,8.1 
	l 6.6,0 0,-14.2 c -2.9,-0.8 -5.7,-1.4 -8.3,-1.8 -2.7,-0.4 -5.6,-0.6 -8.9,-0.6 z" />
	
</svg>

