<?xml version="1.0" encoding="UTF-8"?>
<svg xmlns="http://www.w3.org/2000/svg" width="120" height="125" viewBox="0 0 240 250">
<defs>
<radialGradient cx="90" cy="158" r="130" id="g" gradientUnits="userSpaceOnUse">
<stop stop-color="#006994" offset="0"/>
<stop stop-color="#009adc" offset="1"/>
</radialGradient>
</defs>
<path d="m0,162c11-21 30-24 43-19 11,4 21,15 30,27 7,8 23,34 41,21 9-7 2-22-6-27-17-12-26-18-26-35 0-15 23-86 34-129 17,10 23,24 23,36 0,19-30,72-19,89l75-93c11,16 14,27 10,37-11,26-67,65-58,82l91-50c7,19-4,36-17,43-26,14-54,21-54,35h62c-6,17-15,22-25,22-29-2-35-1-46,16-10,15-27,33-53,33C76,250 58,229 45,204 34,183 20,167 0,162z" fill="url(#g)"/>
</svg>