<svg xmlns="http://www.w3.org/2000/svg" xml:space="preserve" width="980" height="401.6"><path d="m 46.1,48.8 h 146.7 v 29.4 h 43.6 V 14.8 h -89.8 c -0.9,-2 -1.9,-3.9 -3.2,-5.4 C 138.7,3.8 131.3,0 117.6,0 106.6,0 98.5,6 94.8,14.8 H 2.8 V 78.6 L 46.1,78.4 Z M 757.6,3.9 v 157.6 h 14.6 l -3.5,11.3 c -0.5,1.7 -2.9,6.3 -5.2,8.2 -2.2,1.9 -7.8,3.4 -12.3,3.4 h -5.7 V 223 h 2.7 c 25.3,0 33.7,0.7 41.2,-6.3 4.4,-4.1 8.5,-9.2 12,-14.7 v 38.8 c 0,2.3 -1.7,4.1 -3.6,4.1 H 562.9 c -3.2,0 -4.7,-2.2 -5,-5.9 V 87.7 h 19.7 v 136.5 h 102 c 34.1,0 38.4,-20 37.3,-49.3 V 87.7 h 17.3 V 48.2 h -17 v -42 h -38.6 v 42 h -61.9 v -42 h -39.2 v 42 H 558 v -42 h -39.2 v 42 h -9.5 v 39.5 h 9.5 v 155.9 8.8 c 0.4,23.4 8.4,30.7 28.2,30.7 h 255.4 c 30.4,0 36.7,-17.6 35.7,-46 v -59.5 h -26.2 l 5,-16.1 h 92 c 6.1,13.5 10,22.2 9.4,20.9 -0.5,-1.1 -0.4,-0.7 0.2,0.6 h -9.7 v 100.1 h 36.7 v -62.6 c 4.8,4.1 8,4.6 17,4.6 H 980 v -42 h -12.3 c -3.2,-0.1 -7.7,-8.8 -9.4,-11.7 -0.3,-0.5 -2.2,-3.6 -5,-9.9 4.1,-0.8 7.7,-3 9.9,-5.4 7,-7.6 9.3,-15.4 9.3,-26.4 v 0 V 3.9 Z M 616.4,87.7 h 61.8 v 91.1 c 0,2.3 -1.6,4.2 -3.6,4.2 h -58.2 z m 229,41.1 H 796.5 L 796.6,99 h 49 z m 0.3,-62.5 h -48.9 l 0.1,-29.8 h 48.9 z m 87.9,50.9 c 0,1.7 -1,6.3 -2.7,8.2 -1.6,1.9 -2,3.4 -6.6,3.4 H 882.1 L 882.2,99 h 51.3 z m 0.2,-50.9 h -51.4 l 0.1,-29.8 h 51.3 z M 231.9,83.6 H 6.4 v 34.1 h 225.5 z m 173.2,125.7 h 86.5 V 177.5 H 395 c 0.8,-7.1 1.7,-14.5 2,-22 h 94.6 V 123.7 H 397 v -17.3 h 94.6 V 74.6 H 397 V 56 h 94.6 V 24.2 h -23.4 l 10,-20.4 h -47.6 l -10,20.4 H 329.2 L 320,3.8 h -42.8 l 9.2,20.4 H 261.2 V 56 H 351 c 0,6.3 0,12.5 0,18.6 h -89.8 v 31.8 H 351 c 0,6.1 0,11.9 0,17.3 l -89.8,0.2 v 31.6 H 351 c -0.1,6.2 -0.5,10 -0.5,10.9 -0.1,3.8 -0.7,7.6 -1.4,11.2 h -88 v 31.8 H 337 c -9.6,16.1 -30,35.3 -91.4,35.4 h -58.7 v -70.6 h 47.8 v -34 H 0 v 34 H 52.1 L 0.2,280.4 H 47.8 L 99.6,174.1 h 44.3 v 106.3 h 100.4 c 64.2,0 93.4,-9.9 117.8,-34.8 4.4,-4.1 8,-8 11.2,-11.7 l 57.4,46.6 h 78.1 v -37.3 h -62.1 z"/><path d="m 149.6,346 h -31.4 c -5.3,0 -8.6,2.3 -10.7,5.1 1.2,-11.8 8.3,-19.7 16.8,-22.2 4.1,-1.2 8.1,-1.7 11.7,-1.7 9,0 15.2,2.7 15.3,2.7 0.7,0.3 1.4,0.2 1.9,-0.2 0.5,-0.4 0.8,-1 0.8,-1.8 v -13.4 c 0,-1.4 -1,-2.9 -2.3,-3.3 -0.1,0 -9,-2.5 -20.4,-2.5 -4.9,0 -10.4,0.5 -15.9,1.9 -15.1,3.8 -30.9,16.2 -31.7,40.8 -0.1,5.1 0.3,9.7 1.1,13.9 3.7,18.7 16.9,28.3 29.4,31.6 4.9,1.3 10,1.8 15,1.8 12.9,0 24.4,-3.1 24.5,-3.1 0.8,-0.2 1.3,-1 1.3,-2 v -11.8 c 0,-0.9 -0.4,-1.9 -1.1,-2.6 -0.7,-0.7 -1.6,-1 -2.3,-0.7 0,0 -9.3,2.7 -18.9,2.7 -4.3,0 -8.6,-0.6 -12,-2 -6.9,-3.1 -10.6,-8.1 -12.4,-15.4 h 42.5 c 1,0 1.8,-0.8 1.8,-2.1 v -12.3 c 0,-0.8 -0.3,-1.6 -0.9,-2.3 -0.7,-0.8 -1.4,-1.1 -2.1,-1.1 m 84.8,-4 c 0,-3.5 -0.3,-6.8 -0.9,-9.9 -2.1,-11.5 -10.3,-20.6 -23.9,-22.4 -5.8,-0.9 -13.3,-1.2 -20.6,-1.2 -12.3,0 -23.6,0.8 -23.6,0.8 -1,0.1 -1.7,0.9 -1.7,2.1 v 83.9 c 0,0.8 0.3,1.7 0.9,2.3 0.5,0.6 1.3,1 2,1 H 183 c 1.1,0 1.8,-0.9 1.8,-2.1 0,-0.1 0,-57.7 0.1,-70.5 3.1,-0.3 5.9,-0.5 8.5,-0.5 6,0 10.3,1 12.9,2.6 2.5,1.6 3.7,3.4 4.6,7.1 0.3,1.5 0.5,3.3 0.5,5.3 -0.3,13.8 -4.4,17.1 -19.6,17.5 -1,0 -1.8,0.9 -1.8,2.1 0,6.6 0,9.2 0,9.2 0,0.8 0.3,1.6 0.9,2.3 0.5,0.7 1.3,1.1 2,1.1 0,0 1.4,0.1 3.4,0.1 0.1,0 0.2,0.1 0.4,0.1 8.2,0.7 12.1,8.4 14.1,17.5 0.4,1.8 0.6,3.5 0.7,5.3 0.1,0.8 0.4,1.6 1,2.2 0.5,0.6 1.3,0.9 1.9,0.9 h 19.5 c 1.2,0 2,-1.1 1.8,-2.5 -0.1,-1 -0.3,-1.9 -0.5,-3 -1.9,-8.7 -6.1,-19.2 -12.4,-25.7 7.5,-5.3 11.6,-14.5 11.6,-25.6 M 79.3,332.7 C 77.1,320.8 68.6,311.6 54.7,309.8 v 0 c -5.9,-0.9 -14,-1.2 -22,-1.2 -13.7,0 -26.9,0.8 -26.9,0.8 h 0.1 c -1.1,0 -1.9,0.9 -1.9,2.1 v 83.9 c 0,0.8 0.3,1.7 0.9,2.3 0.6,0.6 1.3,1 2,1 h 18.5 c 1.1,0 1.8,-0.9 1.8,-2.1 v -24.5 c 0.5,0.4 1,0.7 1.6,0.8 0.1,0 5.4,0.5 12.1,0.5 5.2,0 11.3,-0.3 16.5,-1.4 14.2,-3.1 22.8,-14.6 22.9,-29.9 -0.1,-3.4 -0.4,-6.5 -1,-9.4 m -23.8,7.9 c -0.1,6.9 -1.6,10.5 -5.7,13.1 -4.1,2.5 -11.3,3.5 -22,3.5 -0.2,0 -0.5,0 -0.7,0.1 0,-13.2 0,-25.9 0,-31.2 3.1,-0.3 6,-0.5 8.6,-0.5 6.4,0 11.1,1 14.1,2.8 3,1.8 4.3,3.8 5.2,7.6 0.3,1.3 0.5,2.8 0.5,4.6 m 401.1,-29.1 c -0.1,0 -8.9,-2.5 -20.3,-2.5 -4.9,0 -10.4,0.5 -15.9,1.9 -15.1,3.8 -30.8,16.2 -31.6,40.7 -0.1,5 0.2,9.7 1,13.9 3.7,18.7 16.9,28.3 29.3,31.5 4.9,1.3 10,1.8 15,1.8 12.9,0 24.3,-3.1 24.4,-3.1 0.8,-0.2 1.4,-1 1.4,-2 v -11.8 c 0,-0.9 -0.4,-1.9 -1.1,-2.6 -0.7,-0.7 -1.6,-1 -2.3,-0.7 0,0 -9.3,2.7 -18.9,2.7 -4.3,0 -8.6,-0.5 -11.9,-2 -7.6,-3.4 -11.4,-8.2 -13.2,-16.7 -0.5,-2.8 -0.9,-5.8 -0.8,-9.3 -0.1,-12.7 8.5,-21.5 17.7,-24.2 4.1,-1.2 8.1,-1.6 11.7,-1.6 9,0 15.2,2.7 15.3,2.6 0.7,0.3 1.3,0.2 1.9,-0.1 0.5,-0.4 0.8,-1.1 0.8,-1.8 v -13.4 c -0.2,-1.5 -1.2,-2.9 -2.5,-3.3 m 80,0.1 c -0.5,-0.6 -1.3,-1 -2,-1 h -69.8 c -1.1,0 -1.8,0.8 -1.8,2.1 v 13.1 c 0,0.8 0.3,1.6 0.9,2.3 0.6,0.7 1.3,1 2.1,1 h 22.5 l -0.1,66.3 c 0,0.8 0.4,1.7 0.9,2.3 0.6,0.6 1.3,1 2,1 h 18.9 c 1.1,0 1.8,-0.9 1.8,-2.1 l 0.1,-67.5 h 23.6 c 1.1,0 1.8,-0.9 1.8,-2.1 v -13.1 c 0,-0.8 -0.3,-1.7 -0.9,-2.3 M 307.4,346 h -32.1 c -5.2,0 -8.5,2.3 -10.7,5 0.9,-14.7 9,-24.9 21.5,-24.9 h 25.7 c 1,0 1.8,-0.9 1.8,-2.1 v -11.7 c 0,-0.8 -0.3,-1.7 -0.9,-2.3 -0.6,-0.6 -1.3,-1 -2,-1 h -36.6 c -20.3,0.1 -33.7,19.6 -33.7,41.9 0,15 -0.1,44.5 -0.1,44.5 0,0.8 0.3,1.7 0.9,2.3 0.6,0.6 1.3,1 2,1 h 19.3 c 1.1,0 1.8,-0.9 1.8,-2.1 v -32.9 h 44.1 c 1.1,0 1.8,-0.8 1.9,-2.1 v -12.3 c 0,-0.8 -0.3,-1.6 -0.9,-2.3 -0.5,-0.7 -1.3,-1 -2,-1 m 48.1,-17 c 4.1,-1.2 8.1,-1.7 11.7,-1.7 9,0 15.3,2.7 15.3,2.7 0.7,0.3 1.4,0.2 1.9,-0.1 0.5,-0.4 0.8,-1.1 0.8,-1.8 v -13.4 c 0,-1.4 -1,-2.9 -2.3,-3.3 -0.1,0 -9,-2.5 -20.4,-2.5 -5,0 -10.5,0.5 -15.9,1.9 -15.1,3.8 -30.9,16.2 -31.7,40.7 -0.2,5.1 0.2,9.7 1.1,13.9 3.7,18.7 16.9,28.3 29.3,31.5 4.9,1.3 10.1,1.8 15.1,1.8 12.9,0 24.4,-3.1 24.5,-3.1 0.8,-0.2 1.4,-1 1.4,-2 v -11.8 c 0,-0.9 -0.5,-1.9 -1.1,-2.6 -0.7,-0.7 -1.6,-1 -2.3,-0.8 0,0 -9.3,2.7 -18.9,2.7 -4.3,0 -8.6,-0.6 -12,-2 -6.9,-3 -11,-8.3 -13,-15.6 h 43.1 c 1,0 1.8,-0.8 1.8,-2.1 v -12.3 c 0,-0.8 -0.3,-1.6 -0.9,-2.3 -0.6,-0.7 -1.3,-1 -2,-1 h -32.1 c -5.3,0 -8.6,2.3 -10.7,5 1.2,-11.4 8.8,-19.3 17.3,-21.8"/><path d="m 758.6,344.4 c -3.7,-18.6 -16.2,-28.2 -26.7,-31.2 -4.1,-1.2 -8.1,-1.9 -12.2,-1.9 -4.1,0 -8.2,0.6 -12.4,1.9 -12.8,3.5 -27.1,15.8 -27.3,42.5 -0.1,5.4 0.4,10.2 1.3,14.5 3.3,16.9 13.7,25.8 23.8,29 4.9,1.6 9.9,2.4 14.8,2.4 4.7,0 9.3,-0.7 13.8,-2.1 13.9,-4.3 26,-18.5 26.1,-42.6 0,-4.5 -0.4,-8.7 -1.2,-12.5 m -22.5,10.8 c -0.1,19.9 -9.4,28.9 -17.2,28.8 -5.8,-0.1 -11.9,-4.7 -14.5,-17.1 -0.6,-3.1 -1,-6.7 -1,-10.7 0.2,-18.5 8.4,-27.1 17.1,-27.1 6.7,0.2 12.2,4.8 14.7,16.3 0.6,2.8 0.9,6.1 0.9,9.8 m -63.8,-40.8 c -0.6,-0.6 -1.3,-1 -2,-1 h -17.5 c -1,0 -1.9,0.8 -1.9,2.1 0,0.1 0.1,48.3 0,58.7 -0.2,6 -2.2,8.4 -7.9,8.6 -5.1,-0.5 -5.8,-1 -6.6,-4.2 -0.2,-0.8 -0.1,-1.9 -0.1,-3.1 v -58.7 c 0,-0.8 -0.2,-1.6 -0.8,-2.3 -0.6,-0.6 -1.3,-1 -2,-1 h -17.3 c -1,0 -1.9,0.8 -1.9,2.1 V 376 c -0.6,5.1 -2.7,6.6 -8.2,6.9 -4.8,-0.4 -5.4,-1.2 -6.3,-4.4 -0.1,-0.8 -0.1,-1.8 -0.1,-2.9 0.1,-10.4 0,-58.7 0,-58.7 0,-0.8 -0.2,-1.6 -0.7,-2.3 -0.6,-0.6 -1.3,-1 -2,-1 h -17.5 c -1,0 -2,0.8 -2,2 0,0 0.1,33.6 0,49.8 0,3.7 0.1,7.3 0.8,10.8 1.3,6.3 4,12.4 9,16.8 5,4.4 11.6,6.7 20.4,6.7 7.9,0 13.5,-1 18,-2.5 4.5,1.5 10,2.5 17.9,2.5 h 0.3 c 22.2,0 29.4,-16.4 29.2,-33.1 0.1,-16.2 0,-49.8 0,-49.8 0,-0.9 -0.2,-1.7 -0.8,-2.4 m 223.3,66.9 c -4.2,1 -8,1.5 -11.3,1.5 -9.5,-0.4 -13.8,-3.2 -15.6,-11.2 -0.3,-1.8 -0.4,-3.8 -0.4,-6.1 0.1,-10.3 0,-49.8 0,-49.8 0,-0.8 -0.2,-1.6 -0.8,-2.3 -0.6,-0.6 -1.3,-1 -2,-1 h -19.1 c -1,0 -2,0.9 -2,2.1 0,0 0.1,35.5 0,51.7 0,3.4 0.1,6.8 0.7,10.1 1.3,6.5 4.3,12.9 9.7,17.4 5.4,4.5 12.7,6.9 22.3,6.9 h 0.1 c 9.1,0 15.3,-1.1 20.2,-2.7 0.8,-0.2 1.3,-1 1.3,-2 l 0.1,-11.3 c 0,-0.9 -0.4,-1.8 -1.1,-2.5 -0.5,-0.7 -1.4,-1 -2.1,-0.8 m -83.5,-68 c -5.8,-0.9 -13.4,-1.1 -20.6,-1.1 -12.2,0 -23.6,0.8 -23.6,0.8 -1,0.1 -1.9,0.9 -1.9,2 v 82.4 c 0,0.8 0.1,1.7 0.7,2.3 0.6,0.7 1.3,1 2,1 h 16.6 c 1,0 1.9,-0.9 1.9,-2.1 0,0 -0.1,-56.6 0,-69.2 3.1,-0.3 6.1,-0.5 8.7,-0.5 6,0 10.4,1 12.9,2.5 2.6,1.6 3.7,3.4 4.5,6.9 0.3,1.5 0.5,3.2 0.5,5.2 -0.4,13.5 -4.4,16.8 -19.7,17.1 -1.1,0 -1.9,0.9 -1.8,2.1 0,6.5 0,9 0,9 0,0.8 0.3,1.6 0.9,2.3 0.5,0.6 1.2,1 1.9,1.1 0,0 1.5,0 3.7,0 0.4,0 0.9,0 1.3,0 7.7,0.7 10.8,7.3 12.8,15.8 0.4,2.2 0.7,4.5 0.9,6.6 0.1,0.7 0.4,1.5 1,2.2 0.6,0.6 1.2,0.9 1.9,0.9 H 836 c 1.2,0 2,-1.1 1.8,-2.5 -0.1,-0.9 -0.3,-1.9 -0.5,-2.9 -1.8,-8.5 -6,-18.8 -12.3,-25.2 7.7,-5.1 11.8,-14.1 11.8,-25 0,-3.4 -0.2,-6.7 -0.8,-9.8 -2.1,-11.2 -10.2,-20.1 -23.9,-21.9 m 135.4,0.6 c -6.7,-1.2 -16.7,-1.4 -25.4,-1.4 -9,0 -16.3,0.3 -16.3,0.3 -1,0 -1.8,0.9 -1.8,2 v 3.1 11.2 67.9 c 0,0.8 0.1,1.6 0.6,2.3 0.6,0.7 1.3,1 2,1 h 17.6 c 1,0 1.7,-0.8 1.8,-1.9 0.2,0.4 0.4,0.8 0.7,1.1 0.6,0.7 1.3,1.1 2,1.1 0,0 1.1,0 2.9,0 5.2,0 15.9,-0.3 23,-2.5 15,-4.7 25.5,-16.9 25.1,-42.9 0,-4.1 -0.4,-7.7 -1.1,-11.1 -4.1,-20.2 -18.8,-28.2 -31.1,-30.2 m 7.9,39.3 c 0.2,18 -6,29.2 -27.9,30.4 -0.6,0 -1.2,0.4 -1.5,1 v -54.5 c 1.6,-0.1 3.4,-0.2 4.9,-0.2 15.3,0.4 21.4,5.3 23.7,16.2 0.5,2 0.8,4.4 0.8,7.1"/></svg>