<?xml version="1.0" encoding="utf-8"?>
<!-- Generator: Adobe Illustrator 15.0.1, SVG Export Plug-In . SVG Version: 6.00 Build 0)  -->
<!DOCTYPE svg PUBLIC "-//W3C//DTD SVG 1.1//EN" "http://www.w3.org/Graphics/SVG/1.1/DTD/svg11.dtd">
<svg version="1.1" xmlns="http://www.w3.org/2000/svg" width="950px" height="590px"
	 viewBox="-2.966 -2.212 950 590" enable-background="new -2.966 -2.212 950 590">
<g>
	<clipPath id="SVGID_2_">
		<path id="SVGID_1_" d="M772.362,571.547l2.425-0.646l1.293-0.242l1.455-2.344l2.344-1.617l1.294,0.485l1.697,0.323l0.404,1.051
			l-3.476,1.213l-4.203,1.454l-2.345,1.213L772.362,571.547z M785.861,566.536l2.505-1.536l3.396-1.939l4.364-4.203l3.855-6.264
			l-5.717,2.707l-3.88,0.162l-1.454,1.616l-2.426,0.97l-1.294-0.484l-1.131-0.97l-0.324-2.91l-0.808-3.396l-3.396-5.173
			l-3.556-2.264l-3.88-0.322l-0.809,1.293l-3.071-4.365l-0.647-3.557l-2.586-4.042l-1.777-1.131l-1.617,2.102l-1.778-0.323
			l-2.103-5.012l-2.91-3.88l-2.909-5.334l-2.587-3.071l-3.556-3.719l2.103-2.426l0.047-0.081l-0.166-0.171l0.212,0.095l3.139-5.339
			l-0.162-1.616l-2.369-0.508l-0.379,1.291l-0.192-0.397l-1.746,5.434l-0.81,0.485l-1.778-4.042l-1.293-4.85l-0.323-2.748
			l1.455-4.688v-9.537l-3.071-3.719l-1.294-3.071l-5.173-1.293l-1.939-0.647l-1.617-2.586l-3.395-1.617l-1.132-3.395l-2.748-0.97
			l-2.425-3.719l-4.203-1.455l-2.91-1.454h-2.587l-4.041,0.808l-0.163,1.941l0.81,0.969l-0.485,1.132l-3.071-0.162l-3.718,3.557
			l-3.557,1.94h-3.88l-3.233,1.293l-0.322-2.748l-1.617-1.94l-2.911-1.131l-1.616-1.455l-8.083-3.88l-7.598-1.778l-4.365,0.646
			l-5.981,0.485l-5.981,2.102l-2.861,0.504l-5.549,2.576l-2.748-0.323l2.748-1.941v-0.969l-3.071-5.981l-2.264-0.646l-1.455,4.365
			l-1.293,2.748l-0.646-0.162h-2.714l-0.037,0.186h-5.172l-1.455-0.809l-2.102-0.323l-6.79,1.939l-1.778-0.808l-2.587,4.203
			l-1.329,0.938L608.29,469l-1.778,1.939l0.971,1.778l3.071,0.646l0.646-2.586l1.94-2.102l1.455-0.162l0.323,2.748l1.293,1.94
			l-1.778,3.071h-1.093l-0.523,2.102l-2.263-0.323l-1.133,2.748l3.233,2.264l5.819,0.809l3.395,2.748h1.294v1.455l-2.263,3.071
			l-1.132-0.97h-2.91l-0.97-1.455l-4.042-1.94l-0.129-0.024c-0.339-0.063-3.324-0.622-4.074-0.622c-0.039,0-0.075-0.007-0.109-0.021
			l-0.067-0.026l-0.051-0.051c-0.077-0.081-0.386-0.475-0.433-1.878l-0.084-2.531l-1.681,1.921l-2.101,0.484l0.161,1.454
			l-0.809,1.617l2.102,0.324l-0.809,0.484l-2.264,3.396l-3.395,1.293l-0.646-0.646l2.263-0.809l-0.808-2.911l-1.294-0.968
			l-1.777,1.454l-2.587,0.646l-0.97,2.426l-3.557,1.293l-8.406-3.556l-1.616-1.617l1.293-0.809l0.809-1.616l-1.778-1.778
			l-4.526-0.323l-0.324-2.262l-1.454-2.427l-3.233-0.646l-1.778,0.97l-1.778-1.453l-0.521,0.171c-0.693,0.229-1.879,0.615-2.44,0.77
			l-0.381,0.104l-0.231,0.376l-0.448,0.91l0.796,0.479l2.095,1.23l2.586-0.484l3.233,1.131l-0.809,2.102l-3.233-0.97l-3.233-1.132
			l-3.718,1.455l-6.467-1.132l-10.346-3.557l-12.113-0.207l-4.59,1.489l0.007,0.074l-5.666,1.585l-9.861,4.526l-0.971,1.94
			l-2.586,1.939l-2.102,1.455l-1.294,0.808l-5.657,5.335l-2.749,2.103l-5.336,3.233l-5.656,2.425l-6.305,3.395l-1.778,1.455
			l-5.821,3.557l-3.395,0.647l-3.88,5.496l-4.042,0.322l-0.969,1.941l2.263,1.938l-1.455,5.497l-1.294,4.525l-1.131,3.881
			l-0.809,4.526l0.809,2.425l1.778,6.951l0.97,6.144l1.778,2.748l-0.971,1.456l-3.071,1.938l-5.658-3.88l-5.496-1.131l-1.293,0.484
			l-3.234-0.646l-4.203-3.071l-5.173-1.132l-7.598-3.395l-2.102-3.88l-1.293-6.467l-3.233-1.939l-0.646-2.264l0.646-0.646
			l0.323-3.394l-1.293-0.648l-0.646-0.97l1.293-4.364l-1.617-2.264l-3.233-1.293l-3.395-4.365l-3.557-6.628l-4.203-2.587
			l0.162-1.939l-5.335-12.286l-0.808-4.203l-1.778-1.94l-0.162-1.455l-5.981-5.333l-2.587-3.073v-1.133l-2.586-2.101l-6.789-1.131
			l-7.437-0.646l-3.071-2.264l-4.527,1.778l-3.556,1.455l-2.264,3.232l-0.97,3.719l-4.365,6.144l-2.425,2.425l-2.587-0.971
			l-1.778-1.131l-1.94-0.647l-3.88-2.263v-0.646l-1.778-1.94l-5.173-2.102l-7.437-7.76l-2.263-4.688v-8.083l-3.233-6.467
			l-0.485-2.748l-1.617-0.97l-1.132-2.102l-5.012-2.102l-1.293-1.617l-7.113-7.921l-1.292-3.233l-4.689-2.264l-1.455-4.364
			l-2.586-2.909l-1.393-0.35l-29.776-2.881l-1.293,10.022l-15.463-1.989l0.003-0.021l-1.028-0.115l-23.845-2.586l-12.286-2.425
			l-16.813-10.022l-14.711-8.568l-12.124-7.598l-18.915-10.67l-0.485-0.97l0.323-1.455l3.074-2.525l-14.508-1.414l-19.723-2.748
			l-10.023-1.455l-0.485-1.778v-9.427l-0.323-3.183l-2.586-4.203l-0.808-2.263l-3.88-4.203l-3.16,1.687l-2.748-0.162l-3.233-0.808
			l-0.323-0.971l1.455-0.646l-0.647-3.233l-1.455-2.102l-4.85-0.808l-3.88-2.102l-1.131-2.264l-2.586-4.85l-2.91-3.071h-2.91
			l-3.88-2.102l-4.527-1.778l-4.203-0.485l-2.425-2.748l2.263-9.053l0.809-1.94v-2.425l-1.617-0.97l-0.485-2.91l-1.455-2.587
			l-3.395-5.819l-1.293-3.071l-1.456-4.689l-1.616-5.334l-3.233-4.364l-0.485-2.91l0.809-3.88h1.131l2.102-1.616l1.132-3.557
			l-0.97-2.748l-2.749-0.485l-1.94-2.587l-2.102-3.718l-0.162-8.245l0.647-1.939l0.647-2.264l0.485-2.425l-5.659-6.305v-2.102
			l0.323-0.485l0.323-3.232l-1.293-4.042l-2.264-4.85l-2.748-4.526l-1.778-3.879l0.97-3.72l0.646-5.819l1.778-3.071l0.323-6.467
			l-1.132-3.557l-1.616-4.203l-2.749-4.203l0.809-3.233l1.455-4.203l1.779-0.808l0.323-1.132l3.072-2.587l5.173-11.801l0.162-7.437
			l1.564-4.915l-0.38-11.903l0.809-8.568l1.94-2.91l8.083-12.609l6.466-13.579l5.012-14.064l3.233-6.467l3.233-10.022l2.263-6.467
			l2.317-0.823l-2.283-3.247l0.324-2.91l2.748-0.323l1.617-4.041l-2.587-1.132l0.162-3.719l4.365-0.647l-2.749-2.748l-1.455-7.113
			l0.646-2.91v-7.921l-1.778-3.233l2.263-9.376l2.102,0.484l2.425,2.91l2.749,2.587l3.232,1.939l4.528,2.102l3.071,0.647
			l2.911,1.455l3.394,0.971l2.263-0.163v-2.424l1.293-1.131l2.266-1.395l1.775-0.249l-0.105,0.399l1.884-3.768l-1.132-2.586
			l-2.425-4.85l0.323-0.809l1.132-0.808l4.365,1.455l9.7,2.748l8.568,1.941l20.046,5.658l22.956,5.659l15.221,3.207l-0.005,0.022
			l0.998,0.25l12.61,2.358l0.001-0.008l0.31,0.066l0.226,0.042l0.366,0.083l31.818,6.741l18.429,3.396l32.332,5.334l29.26,4.042
			l29.261,3.557l30.708,2.811l0.967,0.125l22.034,2.049l26.512,1.293l18.591,0.647l28.365,0.558l30.521,0.036l0.323-8.245
			l0.646-0.161l2.264,0.484l1.939,0.809l0.809,5.497l1.455,6.143l1.616,1.616h4.85l0.324,1.455l6.305,0.323v2.102h4.85l0.323-1.292
			l1.132-1.132l2.263-0.647l1.294,0.97h2.909l3.88,2.587l5.336,2.425l2.423,0.485l0.486-0.97l1.455-0.485l0.484,2.911l2.588,1.292
			l0.484-0.485l1.293,0.162v2.102l2.586,0.969h3.072l1.616-0.809l3.233-3.232l2.587-0.485l0.808,1.778l0.719,1.907l1.706-1.421
			l8.892-0.324l2.082,3.596l1.057-1.609l4.439-0.37l-0.211,0.786l1.713,0.923l1.185-1.333l2.172-0.8l5.373-3.887l2.286-0.571
			l0.457,0.457l-5.144,5.144l-3.315,1.943l-2.058,0.916l-2.313-1.652l-4.696,2.19l-9.245,4.062l-4.775,2.007l-3.071,2.587
			l-2.425,3.556l-2.263,3.88l-1.779,0.808l-4.526,5.012l-1.293,0.161l-5.748,3.663l4.999,0.834l2.91-0.647l7.437-3.233l2.91-1.94
			l2.102-0.809l1.939,1.455l-1.132,1.132l-1.939,3.071l-1.124,3.375l3.226-1.758l1.132-0.162l1.334-0.296l0.646,1.131l1.198,0.162
			l0.606-0.448l0.878-0.71l2.75-0.809l3.556-2.264v-0.97l0.647-0.646l5.981-0.969l2.425-1.94l4.363-2.102l0.163-1.293l1.939-2.91
			l1.778-0.807l1.294-1.779l2.263-2.263l4.365-2.425l4.688-0.485l1.132,1.132l-0.323,0.97l-3.718,0.971l-1.455,3.071l-2.264,0.809
			l-0.484,2.424l-2.425,3.232l-0.437,3.487l5.447-4.457l1.294,1.294h2.263l3.233,0.97l1.455,1.132l1.455,3.071l2.748,2.748
			l3.88-0.162l1.455-0.97l1.617,1.293l1.616,0.485l1.293-0.809h1.132l1.616-0.97l4.042-3.557l3.396-1.131l6.627-0.325l4.526-1.938
			l2.587-1.293l1.455,0.161v5.847l3.395,0.943l1.939-0.485l6.144-1.616l1.132-1.132l1.455,0.485v6.951l3.232,3.072l1.458,0.727
			l0.809-2.831l1.616-0.162l2.184-0.241c0.284,0.373,1.102,1.415,1.462,1.742l0.091,0.082l0.106,0.058
			c0.017,0.01,0.286,0.267,0.36,1.593l-1.293,1.213l-3.234-0.162l-0.157-0.605l-2.107,0.527l-0.809-0.323l-3.718-0.486l-2.102,0.647
			l-2.264-0.162l-3.233,1.455h-1.778l-5.82-1.293l-5.172,0.162l-1.94,2.586l-6.951,0.646l-2.425,0.809l-1.132,3.071l-1.293,1.132
			l-0.485-0.161l-1.455-1.617l-4.526,2.424h-0.646l-1.582-2.26l-2.298,5.17l-0.97,4.042l-3.67,8.075l-0.493,1.171l-1.777,1.616
			l-2.102,4.688l-1.293,2.425l0.161,1.783l1.429,0.309l0.395-0.621l0.763-1.309l1.955-0.808l0.809-2.264l1.939-1.778l2.749-4.041
			l4.203-6.305l0.808-0.485l0.323,0.97l-0.161,2.263l-2.91,6.789l-2.748,5.658l0.452,4.171l-0.646,2.586l0.809,1.293l-0.162,2.748
			l-1.939,2.425l-0.485,1.778l0.646,3.557l0.648,3.396l-1.455,2.586l-0.809,2.91l-0.971,3.071l1.133,2.425l0.646,6.144l1.179,4.526
			l0.067,3.163l-0.021,0.001l0.004,0.98l0.191,4.511l1.455,2.586l1.616,1.778l1.293,3.718l0.84,2.693l0.154,0.525l3.399,0.985
			l1.453,0.97l1.133-0.323l2.102-1.94l2.753-1.573l3.212-3.04l0.323-2.748l2.425-5.173l0.97-5.981l0.809-4.688l-1.455-4.85
			l-2.91-6.467l-3.557-5.981l0.323-2.748l0.323-0.809l0.809-2.425l-0.485-1.13l-0.646-4.689l1.617-4.042l1.131-6.143l-0.808-2.425
			v-1.132l2.262-0.485l0.647-2.585l-0.646-0.809l0.162-0.97l1.778-1.94l2.748-1.132l0.97-4.203l1.94-0.808l1.516,1.516l-0.889-0.028
			l-0.466,1.745l-1.293,2.425v4.746l4.203-2.483l-0.323-5.496l-0.175-0.875l-0.262-0.008l0.436-2.835l1.456-1.778l2.586-0.323
			l3.854-1.207l-3.853-0.895l-0.972-0.323l-0.323-3.557l2.91-2.262l2.909-1.779l3.072,2.262l0.969,0.487l0.647-0.647h2.748
			l5.497,3.395l4.526,1.455h2.586l1.294,2.587l2.425,2.263l-0.162,1.617l-2.83-0.566l1.214,3.152l1.293,0.809l1.617,2.264
			l0.323,10.022l-2.425,1.617l-0.647,2.586l-0.808,3.396l-3.395,1.292l-0.049,0.632c-0.072,0.937-0.255,3.214-0.395,4.143
			l-0.073,0.49l0.346,0.355c0.428,0.44,1.385,1.084,2.109,1.493l1.455,0.646l1.133-0.646l2.748-3.719l1.939-5.012l3.88-1.778
			l1.617-1.131l2.586,1.778l2.425,3.232l2.264,9.054l3.233,8.244l0.323,9.538l-1.94,0.97l-0.808-0.161l-0.613-2.44l-2.136,4.218
			l-0.222,3.557l-1.091,0.343l-1.597,1.597l0.222,5.052l-2,1.738l-2.944,5.208l5.584-0.802l2.381,1.351l2.587,1.455l5.173-0.646
			l3.394,3.071l2.103-0.162l5.497-2.586l2.908-0.485l3.234-0.808l4.042-3.88l3.395-3.719l3.88-2.263l7.199-4.79l3.145-2.25
			l1.294-0.485l5.344-5.05l-0.001-0.01l0.021-0.017l0.011,0.119l2.688-2.358l0.97-1.615l1.778-1.132l1.94-1.778l0.484-1.616
			l2.102-2.748l1.131-0.97l-0.159-0.97l-1.295-3.072l-1.778-0.162l-1.939-6.143l2.91-1.778l4.364-1.455l4.042-1.293l3.233-0.485
			l6.305-0.162l1.939,1.294l1.616,0.162l2.102-1.293l2.586-1.132l5.174-0.484l2.102-1.778l1.778-3.233l1.617-1.94h2.102l1.939-1.131
			l0.162-2.264l-1.455-2.101l-0.323-1.456l1.132-2.102v-1.455h-1.778l-1.778-0.808l-0.809-1.132l-0.161-2.587l5.819-5.496
			l0.646-0.809l1.455-2.911l2.91-4.526l2.749-3.718l2.101-2.425l2.415-1.826l3.081-1.247l5.497-1.292l3.233,0.162l4.526-1.455
			l7.98-2.185l0.707-0.157l24.903-6.346l0.047-5.186l1.455-1.939l1.57,1.57l0.693-1.733l1.31,0.007l0.987-0.079l1.516,0.41v-2.586
			l1.309-4.496l2.587-4.689l1.455-4.042l-1.94-2.424v-5.982l0.809-0.969l0.809-2.749l-0.162-1.455l-0.161-4.85l1.778-4.85
			l2.909-8.892l2.102-4.203h1.295l1.292,0.161v1.132l1.293,2.263l2.747,0.646l0.81-0.807v-0.971l4.042-2.91l1.778-1.779l1.454,0.163
			l5.981,2.425l1.94,0.97l9.053,29.907h5.981l0.809,1.94l0.162,4.849l1.616,1.258l0.711-0.548l3.815-0.225l1.939,2.102l2.264,3.719
			v1.939l-2.102,4.688l-1.94,0.646l-3.395,3.071l-4.85,5.497h-2.559l0.622,1.372l-0.891,0.809l-0.049,0.359
			c-0.044,0.313-0.186,1.356-0.192,1.641c-0.002,0.052-0.01,0.165-0.334,0.226c-0.111,0.021-0.307,0.045-0.623,0.045
			c-0.183,0-0.322-0.008-0.334-0.009l-1.602-1.67l-1.313,1.753l-0.485,2.748l-1.94-0.161v-1.618l-0.325-1.292l-1.452,0.323
			l-1.778-3.233l-2.103,1.292l1.295,1.456l0.322,1.131l-0.809,1.293l0.354,3.365l2.883-2.882l1.376,1.052l0.564,2.424l-1.697,0.889
			l-1.277-2.031l-1.842,0.632l0.125,1.24l-1.616,2.586l-2.91,0.484l-0.323,2.91l-5.336,3.071l-1.293,0.485l-1.616-1.455
			l-3.071,3.557l0.97,3.233l-1.455,1.293l-0.161,4.365l-1.124,6.257l-0.106-0.05l-0.981,2.962l-0.713,0.885l2.946,4.499
			l-2.425,5.173l-0.324,1.455l1.94,2.586l1.132-0.808h1.778l2.263,2.586l3.88,5.981l3.557,0.485l2.263-0.97l1.779-1.778
			l-0.808-2.749l-2.103-1.617l-1.455,0.809l-0.97-1.293l0.484-0.485l2.102-0.161l1.778,0.808l1.94,2.425l0.97,2.91l0.323,2.425
			l-4.203,1.456l-3.88,1.94l-3.014,3.515h3.227l1.829,1.486l-2.4,1.028l-2.173,1.029l-2.284-1.83l-1.004,0.753v-0.972l2.425-1.454
			l0.484-1.779l-0.809-3.072l-2.909,1.456l-0.809,1.454l0.485,2.263l-2.069,1.002l-0.021-0.036l-0.854,0.421l-2.198,1.191
			l-1.294-0.161l-1.132,1.778l-2.425,1.939l-3.334,1.112l-7.372,3.004l-5.173,1.132l-2.748,1.455l-0.809-0.646l-1.94,2.101
			l-3.557,3.234l-4.341,3.969l1.654,3.485l2.549-2.914l1.132-0.646l1.616,0.646l2.264,0.162l7.921-3.88l2.91-2.749l1.293-1.454
			l4.204,1.616l-3.396,3.557l-10.993,8.244l-2.586,0.971l-5.82,1.939l-4.041,1.132l-0.645-0.292l-4.413,4.075l3.813-0.449
			l1.131-0.808l1.617,3.394l0.161,9.376l0.647,1.132l-1.132,5.496l-3.072,6.466l-2.748,4.042l-0.808,4.85l-2.102,2.425h-0.808
			l-0.324-2.748l0.808-0.971l-0.161-1.454l-4.042-0.648l-5.02-2.343l1.895,3.479l1.778,4.688l3.558,2.425l0.969-0.485l2.26,7.371
			l0.017-0.003l0.436,4.908l-2.008,4.024l-0.242,0.102l-0.8,3.341l-2.92,3.778l-0.418,4.586l0.462,3.391l-1.828,4.979l-2.164,1.916
			l-1.471-4.64l0.446-5.45l1.587-4.183l0.767-3.099l-0.146-1.953l-1.285-0.508l-3.236-4.184l-1.495,0.748l0.218,0.828l0.715,2.303
			c0.67,2.532,0.724,3,0.728,3.067c0,0.165-0.275,0.602-0.89,1.216l-1.132-1.858l-0.161-1.779l-1.803-3.992l-1.677-0.209
			l-2.586-3.395l0.471-4.952l-1.764,0.587l-0.324-3.557l2.102-0.97l-0.483-5.496l-1.779-0.323l-0.323-1.132l2.025-5.823
			l-3.649,2.433l-0.104,0.343c-0.112,0.372-0.374,1.286-0.374,1.754c0,0.048-0.024,0.497-0.884,1.587l-0.549,0.697l1.271,1.272
			l0.162,2.102l-1.293,5.334l2.102,5.497l2.425,2.102v1.779l1.454,2.101l-1.071,2.323l0.665,2.874l3.19,0.402l0.868,1.2
			l-0.439,4.689l1.374,1.103l-0.479,1.931l1.229,0.79l-0.222,1.385l-2.713-0.097l0.114,1.595l0.404,0.3l1.87,1.265l0.12,1.411
			l1.774,1.786l0.491,2.523l-2.55,1.38l1.568,1.496l5.802-1.686l3.581,5.965l0.029-0.007l2.085,4.916l3.557,6.467l2.425,2.425
			l0.414,1.452l1.206-0.403l2.748,5.497l0.404,4.445l-0.162,3.395l-3.395,1.536l-2.829,2.425l-1.131,1.213l-1.052-0.162l2.587-2.507
			l3.152-2.585l1.535-0.647l0.162-2.021l-0.646-6.143l-1.455-2.344l-0.32-0.927l-2.135,0.144l-0.377,4.906l-2.587,1.293
			l-0.646,2.102l-1.293,2.91l-3.719,1.617l-3.859-0.517l1.435,2.294l-1.939,6.305h4.203l0.646,1.616l2.263-2.263l1.294-0.484
			l-1.94,3.556l-3.071,4.851h-1.293l-1.132-0.485l-2.748,0.646l-5.174,2.425l-6.465,5.335l-3.396,4.688l-1.939,6.467l-0.485,2.425
			l-4.688,0.484l-5.257,1.288l-5.436,5.476l-2.587,6.143l-0.484,6.305l-1.617,0.808l-1.132,2.749l-2.424,0.647l-2.103,3.556
			l-2.748,2.748l-2.263,3.395l-1.617,0.809l-3.557,3.395l-2.911,0.162l0.972,3.233l-5.012,5.496l-2.076,1.278l0.702,1.861
			l-3.335,6.245l0.485,2.586l-1.455,4.203l-2.264,10.023l0.77,6.256l2.21,7.137l3.73,9.742l5.334,9.376l3.719,6.305l4.85,5.497
			l4.041,3.718l1.617,2.91l-1.132,1.292l-0.809,1.295l2.909,7.436l2.911,2.91l2.587,5.335l3.557,5.819l4.526,8.244l1.292,7.599
			l0.486,11.963l0.646,1.778l-0.323,3.396l-2.426,1.292l0.324,1.942l-0.647,1.939l0.134,1.004l1.938,0.191l0.438-1.277l0.728-0.485
			l-0.161,3.395l-0.971,1.697l-2.505,6.629l-3.718,3.879l-5.336,4.204l-2.748,2.102L785.861,566.536z M100.592,27.971l1.895-0.572
			l-0.252-1.681l1.342-2.954l-4.738,1.014l-0.323,2.101l1.778,1.456L100.592,27.971z M77.979,371.056
			c-0.707-1.414-0.728-1.818-0.728-1.859v-2.183l0.485-0.08l1.778,3.152l1.212,1.939l-1.455,0.243L77.979,371.056z M81.778,361.599
			l-0.808-0.97l-1.778-2.345v-1.212l1.051-0.162l2.667,2.021l0.97,1.777l-0.566,1.455L81.778,361.599z M60.924,341.553l-2.845-2.848
			l1.633-0.871l3.557,2.102l3.072,1.213l-0.89,0.646L60.924,341.553z M54.458,341.23l-0.566-1.213l-0.646-1.455l3.313-0.081
			l0.601,0.715l0.852-0.454l-0.321,2.568L54.458,341.23z M899.623,173.254l2.172-0.687l0.458-1.714l1.028,0.114l1.029,2.286
			l-1.258,0.457l-3.886,0.114L899.623,173.254z M96.588,19.662c-0.216,0-0.352-0.024-0.427-0.045
			c-0.188-0.051-0.229-0.139-0.23-0.205l-0.053-2.154l-1.241,1.102l-1.536-2.263l-0.485-2.506l2.021-0.162l0.485,1.374l1.536-1.616
			h2.344l0.809,1.535l-1.536,1.698l0.646,0.808l-0.728,2.021l-1.372,0.403C96.748,19.658,96.675,19.662,96.588,19.662z"/>
	</clipPath>
	<rect x="-2.966" y="-2.212" clip-path="url(#SVGID_2_)" fill="#EDE658" width="950" height="590"/>
	<path clip-path="url(#SVGID_2_)" fill="#24EBE0" stroke="#000" stroke-width="1.8" d="M26,387.667l-18.667-188
		c0,0,7.333-2,28-4s32,14,43.333,28s48.667,1.333,62,0.667S154,231,157.333,241.667S162,253,163.333,261s0,14.667,4.667,22.667
		S170,304,170,310s-18,63-19.879,69.697S137,402,137,402L26,387.667z M150-29L42.667-22.333c0,0-1.667,61,11.667,65.667
		S73.667,48,83.667,62s30,21.333,39.333,20s13.333-15.667,9-30.667c-2.983-10.327,8.667-26.667,11.333-31.333S160,7.667,160,7.667
		L150-29z M197,12.5C185,23.833,159,64,159,64s-3.167,22.5,7.5,24.5s13.333,1,22-1s11.776,4.842,12,7.5
		c2.5,29.667,18.167,36,16.833,42.667s-9.667,14-16.333,15.333s-40.333,0-43.667,6.667S150.667,175,160,177s27.333,10,37.333,4.667
		s20-7.333,25.333-7.333s10.667,0,11.333,7.333s-2,34,2,39.333s6,12.667,22,14.667S290.667,241,297.333,249S304,251.667,306,261.667
		s4.667,21.333,18.667,26s13.092,0.588,26,20.667c6,9.333,11.333,16.666,16,19.333s24,13.333,36,15.333s11.264,6.022,28.667,0.667
		c8.667-2.667,12-1.333,18.667,0s11.333,5.333,15.333,10s28.666,26,34,34S508,403,514,407.667s16,14,32,18
		s28.666,8.001,41.333,2.667s25.334-14,29.334-14.667s16-8.001,19.333-12.667s12.667-11.332,22.667-14.666s17.333-18,23.333-32.667
		s6.667-15.333,10-20s2.667-24.666,0.667-31.333s-6.666-22.667,0-38s5.332-36.667,0.666-50L700,199.667l27.333-55.333L686,39.667
		L308,13L197,12.5z M355.667,378.334c-1.333-3.666,3.667-6,1-9.334S348,373,348,373s-13.513,16.678-19.333,21.334
		c-5,4-16.833,6.499-25.333,18.333c-0.454,2.97,0.667,2.333,3.333,7.667s10.667,8,22,16S356,427.667,358,423.667
		s-1.333-7.333-2-9.333s1.333-22.667,2-32C358,382.334,357,382,355.667,378.334z M408.667,398.333c-3.667,2.667-4.667,21,1.333,23
		s12.333,2.334,16.333-3.333s7.333-7.333,6-12s-5-12.667-9-11.667S408.667,398.333,408.667,398.333z M453.5,442.5
		c-10.5,1.5-26,3-14,16.5s12.5,15.5,26.5,18.5s19.545-13.183,12-24.5c-4-6-6.5-8-10-8.5S453.5,442.5,453.5,442.5z M722.5,414.5
		c10-7,12.5-11.5,13.5-20.5s-9.5-8.5-13.5-3.5S712,398,710,398s-13,4.5-15,5.5s-2,10.5,7.5,13s12,3,15,1.5S722.5,414.5,722.5,414.5z
		 M778,378c-11.5-1.5-20-1-18.5,8.5s2.5,9,8,12.5s40.5,16.5,40.5,16.5l-4-25.5L778,378z M735.5,512.5c0,0,26,7.5,36.5,7.5s38-3,38-3
		l6-21c0,0-26-22-31-20.5S740,491,731.5,495L735.5,512.5z M785.5,587l42.5-9c0,0,18-26-9.5-36s-45,11.5-48,19L785.5,587z M865,380
		c0,0,1.5-85-10-82s-25.333,9.834-31.333,11.834c-4.475,1.491-5.5,7.5-9,12.5s-1.5-5-15.5,3S791,343,793.5,350.5s15,22.5,15,22.5
		L865,380z M880.5,252l2.5-36l-27.5-7.5c0,0-26,15.5-30.24,21.395s-4.76,2.605-7.18,6.897S817.5,249,816,246.5s-6-3-6,0.5
		s3.5,18,8.5,26.5s9,22.5,20.5,19L880.5,252z M915,185l14.5-35l-34-14c0,0-30,8.5-32.5,10.5s-5.5,14-4.5,20s9,24,18,32L915,185z
		 M903.5,18.5l-37.5,2c0,0-12.5,20.667-8,31.167s34.667,14.167,56.667,16.667L903.5,18.5z M835,101.5c0,0-14,18-18,24
		s-15.5,17.5-14,30s17,6,21.5,1.5s16-21,18.5-26.5s8.5-15,5.5-33.5L835,101.5z M724.5,192.5c3,15,8.5,20.5,17.5,20.5s16-7,20-15.5
		s0.5-11-7.896-21.102C754.104,176.399,721.5,177.5,724.5,192.5z"/>
	<path clip-path="url(#SVGID_2_)" fill="#D88B4C" stroke="#000" stroke-width="1.8" d="M28.667,321l0.667-66.667
		c0,0,10-8,9.333-19.333c-1.262-21.436,18.583-18,23.833-11.25c11.87,15.261,7.167,33.583-21.5,31.583c10,1.167,29,3.333,39,1.333
		s22.667-12.333,39.333-16.333s27.333,5.333,26.667,20s3.333,36,5.333,44c2,8,6.667,6.666,6.667,12.666s1.333,13.334-2,14.667
		S144,344,134,346s-48.5-2.5-70.5,3.5L28.667,321z M212.667,20.334c0,19.333-1.333,44.667-1.333,44.667s7.333,8.667,12.667,18
		s6.667,24,11.333,45.333s2,31.333,22,38.667s32,13.334,35.333,20.667s-2.619,18.575,24,32.667c11.333,6,14.083,8.167,14.833,10.917
		s-2.75,29-2,33.25s0,11.5,14.75,20s17.417,14.167,43.417,19.167s54,11.001,71,4.667s23.333,1.334,26.333,5S498.001,342,505.667,349
		s2,3.334,14.333,18.667s22.639,26.023,46.333,30.333c7.334,1.334,10.667,4.333,16.667,2s29-7.666,39.667-15.666
		s25.667-14,28.667-21.667s5-25.666-2-33.333s-16.668-32-11.334-38c5.334-6,13-8.333,21.667-16s12.666-27.333,5.333-34.667
		s-19.334-19-33-17.667s-52.666-3.333-58.333-9.333s-4.001-30-8.667-37S548.333,160,548,147.334s-3-13.333,8.667-24.667
		S575,103.334,575,103.334C608.667,73,610,43,610,43L442,23L212.667,20.334z M303.333,412.667c12.5,9,25.667,9.333,29.167,3.333
		s5-8.5,3-12.5s5.5-14,8.5-16s7.5-8,4-14.5c-10,4.5-22,21-27.5,24S303.333,412.667,303.333,412.667z"/>
	<path clip-path="url(#SVGID_2_)" fill="#912C2C" stroke="#000000" stroke-width="1.8" d="M29,329.5
			c-1.518-7.041-2.891-14.117-4.088-21.219c-1.053-6.247-5.138-19.372-1.723-25.385c3.22-5.67,23.376-2.405,28.682-1.931
			c5.438,0.486,10.515-1.367,15.484-3.494c4.879-2.088,8.835-6.917,13.795-8.303c17.146-4.792,21.964,17.719,26.219,28.898
			c4.488,11.793,8.327,26.548-7.994,28.642c-7.346,0.942-14.738,1.542-22.105,2.286c-7.563,0.764-15.994,2.973-23.553,2.396
			C45.479,330.76,37.239,330.13,29,329.5L29,329.5z M222.5,27c1.086,10.14,2.811,20.327,5.508,30.168
			c2.833,10.335,7.75,15.063,14.646,22.92c7.401,8.432,9.712,15.327,10.638,26.279c0.375,4.425,0.53,9.067,1.717,13.371
			C256.313,124.466,261,127.635,261,133c0,6.795,9.716,12.609,15.364,13.93c10.896,2.548,23.117,4.8,34.323,4.633
			C320.782,151.412,328.376,144,338.5,144c7.63,0,5.669-22.663,8.391-27.891c1.826-3.506,5.812-3.271,8.461-6.017
			c2.582-2.676,4.765-6.136,6.148-9.593c2.512-6.28,7.858-12.57,14.588-14.305c8.625-2.222,21.243,2.776,27.162,9.227
			c5.124,5.584,10.295,19.27,7.25,26.578c-3.88,9.313-3.339,13.23-14.597,15.435c-10.398,2.037-20.036,6.481-29.32,11.416
			c-8.571,4.555-11.479,7.801-12.412,17.857c-1.187,12.792,8.959,12.495,18.257,15.913c3.848,1.415,6.209,4.732,10.548,5.22
			c3.336,0.375,9.639-1.123,12.061,2.012c7.865,10.178-21.036,10.236-24.707,10.107c-6.19-0.219-17.427-2.774-20.786,4.456
			c-2.022,4.352-0.476,9.396-1.447,13.971c-0.551,2.593-2.221,3.203-3.427,5.222c-2.732,4.576-1.544,15.43-1.733,20.594
			c-0.367,9.998-0.024,15.478,8.027,21.271c8.548,6.15,15.547,13.096,26.177,15.384c10.917,2.35,22.33,1.812,33.317,0.279
			c15.345-2.141,36.571-3.947,47.372-16.928c4.978-5.982,0.186-17.341-1.104-23.733c-2.23-11.05-3.806-25.157,2.072-35.439
			c2.57-4.496,6.435-7.378,6.764-12.973c0.24-4.078-0.729-8.405-1.602-12.377c-2.221-10.105-5.964-20.79-12.275-29.092
			c-6.533-8.594-16.421-15.533-17.007-27.389c-0.328-6.638,8.784-24.901,17.454-19.548c8.275,5.109,8.386,11.557,9.358,20.126
			c0.938,8.258,5.439,16.258,12.569,20.922c7.511,4.914,18.582,2.387,24.477-3.741c5.867-6.099,15.065-2.063,19.805-9.689
			c10.583-17.033,10.035-38.512,10.408-57.711c0.055-2.802,1.888-10.539-0.815-12.229c-4.808-3.005-9.615-6.009-14.423-9.014
			C501.889,45.055,282.386,27.589,222.5,27C224,41,222.5,27,222.5,27z M541,260c-9.637,7.885-16.333,18.107-28.197,22.742
			c-4.912,1.919-10.361,4.978-10.109,11.035c0.385,9.264,6.146,10.597,13.375,12.969c6.482,2.127,13.471,5.696,19.095,9.535
			c4.615,3.15,6.749,9.366,10.667,13.411c10.046,10.372,27.548,14.482,41.627,14.812c17.348,0.405,21.985-16.455,17.915-31.356
			c-1.758-6.434-6.23-9.7-10.756-14.147c-6.281-6.17-7.504-13.284-7.636-21.813c-0.245-15.815-7.252-25.963-24.455-26.284
			c-3.179-0.06-8.658,4.305-10.986,3.277c-1.314-0.58-4.265-4.04-5.845-3.14C543.722,252.164,542.292,257.883,541,260
			C535.5,264.5,541,260,541,260z"/>
</g>
<g id="State_outlines">
		<path id="FL_1_" fill="none" stroke="#000" stroke-width="0.5" d="
		M759.816,439.143l2.266,7.318l3.73,9.742l5.334,9.376l3.719,6.305l4.85,5.497l4.041,3.718l1.617,2.91l-1.132,1.293l-0.809,1.294
		l2.91,7.436l2.91,2.91l2.587,5.335l3.556,5.819l4.527,8.245l1.293,7.598l0.485,11.963l0.646,1.778l-0.323,3.396l-2.426,1.293
		l0.324,1.94l-0.647,1.939l0.323,2.425l0.485,1.94l-2.748,3.232l-3.071,1.455l-3.88,0.162l-1.455,1.616l-2.425,0.97l-1.294-0.484
		l-1.131-0.97l-0.324-2.91l-0.808-3.396l-3.396-5.173l-3.556-2.263l-3.88-0.323l-0.809,1.293l-3.071-4.365l-0.647-3.557
		l-2.586-4.041l-1.778-1.132l-1.616,2.102l-1.778-0.323l-2.103-5.012l-2.909-3.88l-2.91-5.334l-2.587-3.072l-3.556-3.718
		l2.102-2.425l3.232-5.497l-0.161-1.616l-4.526-0.97l-1.617,0.646l0.323,0.646l2.587,0.97l-1.455,4.526l-0.809,0.485l-1.778-4.041
		l-1.293-4.851l-0.323-2.748l1.455-4.688v-9.537l-3.071-3.719l-1.294-3.071l-5.173-1.293l-1.939-0.647l-1.617-2.586l-3.395-1.617
		l-1.132-3.395l-2.748-0.97l-2.425-3.719l-4.203-1.455l-2.91-1.454h-2.587l-4.041,0.808l-0.162,1.94l0.809,0.97l-0.485,1.132
		l-3.071-0.162l-3.718,3.557l-3.557,1.94h-3.88l-3.233,1.293l-0.323-2.748l-1.616-1.94l-2.91-1.131l-1.617-1.455l-8.083-3.88
		l-7.598-1.778l-4.365,0.646l-5.981,0.485l-5.981,2.102l-3.479,0.612l-0.238-8.05l-2.587-1.939l-1.777-1.778l0.323-3.071
		l10.185-1.294l25.542-2.909l6.79-0.647l5.436,0.28l2.587,3.88l1.455,1.455l8.098,0.516l10.82-0.646l21.512-1.294l5.446-0.674
		l5.107,0.204l0.427,2.91l2.233,0.809l0.234-4.631l-1.528-4.173l1.309-1.439l5.555,0.455L759.816,439.143z M772.362,571.547
		l2.425-0.646l1.293-0.242l1.455-2.344l2.344-1.617l1.294,0.485l1.697,0.323l0.404,1.051l-3.476,1.213l-4.203,1.454l-2.345,1.213
		L772.362,571.547z M785.861,566.536l1.212,1.051l2.748-2.102l5.335-4.203l3.719-3.88l2.505-6.629l0.971-1.697l0.161-3.395
		l-0.728,0.485l-0.97,2.829l-1.455,4.607l-3.233,5.254l-4.364,4.203L788.366,565L785.861,566.536z"/>
	<path id="NH_1_" fill="none" stroke="#000" stroke-width="0.5" d="
		M880.799,142.425l0.869-1.077l1.09-3.291l-2.543-0.913l-0.484-3.071l-3.88-1.132l-0.323-2.748l-7.275-23.441l-4.602-14.543
		l-0.896-0.005l-0.646,1.616l-0.646-0.484l-0.971-0.97l-1.455,1.939l-0.048,5.032l0.312,5.667l1.939,2.748v4.042l-3.718,5.063
		l-2.587,1.132v1.132l1.132,1.778v8.567l-0.809,9.215l-0.161,4.85l0.97,1.294l-0.161,4.526l-0.485,1.778l0.969,0.709l16.788-4.425
		l2.175-0.603l1.843-2.772L880.799,142.425z"/>
	<g id="MI_1_">
		
			<path id="MI-_1_" fill="none" stroke="#000" stroke-width="0.5" d="
			M697.86,177.237l-3.233-8.244l-2.264-9.054l-2.425-3.232l-2.586-1.778l-1.617,1.132l-3.88,1.777l-1.939,5.012l-2.748,3.719
			l-1.132,0.646l-1.455-0.646c0,0-2.587-1.455-2.425-2.102c0.161-0.647,0.484-5.012,0.484-5.012l3.396-1.293l0.808-3.396
			l0.647-2.586l2.425-1.617l-0.323-10.022l-1.617-2.264l-1.293-0.809l-0.809-2.102l0.809-0.808l1.616,0.323l0.162-1.617
			l-2.425-2.263l-1.294-2.587h-2.586l-4.526-1.455l-5.497-3.395h-2.748l-0.646,0.646l-0.97-0.485l-3.072-2.263l-2.909,1.778
			l-2.91,2.263l0.323,3.557l0.97,0.323l2.102,0.485l0.485,0.809l-2.587,0.808l-2.586,0.323l-1.455,1.778l-0.323,2.102l0.323,1.617
			l0.323,5.496l-3.557,2.102l-0.646-0.161v-4.203l1.293-2.425l0.646-2.426l-0.808-0.808l-1.94,0.808l-0.97,4.203l-2.748,1.132
			l-1.778,1.94l-0.162,0.97l0.646,0.809l-0.646,2.586l-2.263,0.485v1.132l0.808,2.425l-1.131,6.143l-1.617,4.042l0.646,4.688
			l0.485,1.131l-0.809,2.425l-0.323,0.809l-0.323,2.748l3.557,5.981l2.91,6.467l1.455,4.85l-0.809,4.688l-0.97,5.981l-2.425,5.173
			l-0.324,2.748l-3.259,3.085l4.409-0.161l21.418-2.264l7.278-0.987l0.097,1.667l6.852-1.213l10.298-1.503l3.854-0.461l0.138-0.588
			l0.162-1.455l2.102-3.718l2-1.738l-0.222-5.052l1.597-1.597l1.091-0.343l0.222-3.557l1.536-3.031l1.051,0.606l0.162,0.646
			l0.808,0.161l1.94-0.97L697.86,177.237z"/>
		
			<path id="SP-_1_" fill="none" stroke="#000" stroke-width="0.5" d="
			M581.619,82.059l1.829-2.058l2.172-0.8l5.373-3.887l2.286-0.571l0.457,0.457l-5.144,5.144l-3.315,1.943l-2.058,0.915
			L581.619,82.059z M667.794,114.187l0.646,2.506l3.233,0.162l1.293-1.213c0,0-0.081-1.455-0.404-1.616
			c-0.323-0.162-1.616-1.859-1.616-1.859l-2.183,0.242l-1.616,0.162l-0.323,1.132L667.794,114.187z M567.492,111.213l0.716-0.58
			l2.749-0.809l3.556-2.264v-0.97l0.647-0.646l5.981-0.97l2.425-1.94l4.364-2.102l0.162-1.293l1.939-2.91l1.778-0.808l1.294-1.778
			l2.263-2.264l4.365-2.425l4.688-0.485l1.132,1.132l-0.323,0.97l-3.718,0.971l-1.455,3.071l-2.264,0.809l-0.484,2.425l-2.425,3.232
			l-0.324,2.587l0.809,0.485l0.97-1.132l3.557-2.91l1.294,1.294h2.263l3.233,0.97l1.455,1.132l1.455,3.071l2.748,2.748l3.88-0.162
			l1.455-0.97l1.616,1.294l1.617,0.484l1.293-0.809h1.132l1.616-0.97l4.042-3.557l3.395-1.131l6.628-0.324l4.526-1.939l2.587-1.293
			l1.455,0.161v5.658l0.484,0.323l2.91,0.809l1.939-0.485l6.144-1.616l1.132-1.132l1.455,0.485v6.951l3.232,3.071l1.294,0.646
			l1.293,0.971l-1.293,0.323l-0.809-0.323l-3.718-0.485l-2.102,0.646l-2.264-0.161l-3.233,1.454h-1.778l-5.819-1.293l-5.173,0.162
			l-1.94,2.586l-6.951,0.646l-2.425,0.809l-1.132,3.071l-1.293,1.132l-0.485-0.161l-1.455-1.617l-4.526,2.425h-0.646l-1.132-1.616
			l-0.809,0.162l-1.939,4.364l-0.97,4.042l-3.182,7l-1.177-1.034l-1.371-1.031l-1.941-10.288l-3.544-1.37l-2.053-2.286l-12.12-2.743
			l-2.855-1.029l-8.23-2.173l-7.891-1.144L567.492,111.213z"/>
	</g>
	<path id="VT_1_" fill="none" stroke="#000" stroke-width="0.5" d="
		M844.484,154.058l0.316-5.346l-2.891-10.784l-0.646-0.323l-2.91-1.293l0.809-2.91l-0.809-2.102l-2.7-4.64l0.97-3.88l-0.808-5.174
		l-2.425-6.466l-0.806-4.923l26.419-6.731l0.309,5.521l1.917,2.742v4.042l-3.708,5.058l-2.586,1.143l-0.012,1.121l1.311,1.519
		l-0.311,8.099l-0.61,9.259l-0.228,5.557l0.97,1.294l-0.161,4.57l-0.485,1.689l1.015,0.728l-7.438,1.507L844.484,154.058z"/>
	
		<path id="ME_1_" fill="none" stroke="#000" stroke-width="0.5" d="
		M922.84,78.83l1.939,2.102l2.264,3.719v1.939l-2.102,4.688l-1.94,0.646l-3.395,3.071l-4.85,5.497c0,0-0.646,0-1.293,0
		c-0.647,0-0.971-2.102-0.971-2.102l-1.778,0.161l-0.97,1.455l-2.425,1.455l-0.97,1.455l1.616,1.455l-0.484,0.646l-0.485,2.748
		l-1.94-0.161v-1.617l-0.323-1.293l-1.454,0.323l-1.778-3.233l-2.102,1.293l1.293,1.455l0.323,1.132l-0.809,1.293l0.323,3.072
		l0.162,1.616l-1.616,2.587l-2.91,0.484l-0.323,2.91l-5.335,3.071l-1.293,0.485l-1.617-1.455l-3.071,3.557l0.97,3.233l-1.455,1.293
		l-0.161,4.365l-1.124,6.259l-2.462-1.155l-0.485-3.072l-3.879-1.131l-0.324-2.749l-7.274-23.44l-4.698-14.64l1.42-0.118l1.514,0.41
		v-2.587l1.309-4.496l2.587-4.688l1.455-4.042l-1.94-2.425v-5.981l0.809-0.97l0.809-2.748l-0.162-1.455l-0.161-4.85l1.778-4.85
		l2.909-8.892l2.102-4.203h1.294l1.293,0.161v1.132l1.293,2.264l2.748,0.646l0.809-0.809v-0.97l4.042-2.91l1.778-1.778l1.454,0.162
		l5.981,2.425l1.94,0.97l9.053,29.907h5.981l0.809,1.94l0.161,4.85l2.91,2.263h0.809l0.161-0.484l-0.484-1.132L922.84,78.83z
		 M901.908,108.978l1.535-1.535l1.375,1.051l0.565,2.425l-1.697,0.889L901.908,108.978z M908.617,103.077l1.778,1.859
		c0,0,1.293,0.081,1.293-0.242s0.242-2.021,0.242-2.021l0.89-0.808l-0.809-1.778l-2.021,0.728L908.617,103.077z"/>
	<path id="RI_1_" fill="none" stroke="#000" stroke-width="0.5" d="M874.07,178.896
		l-3.696-14.956l6.27-1.846l2.191,1.928l3.306,4.32l2.688,4.402l-2.999,1.624l-1.294-0.161l-1.132,1.778l-2.425,1.939
		L874.07,178.896z"/>
	<path id="NY_1_" fill="none" stroke="#000" stroke-width="0.5" d="M830.38,188.745l-1.132-0.97l-2.587-0.162l-2.263-1.939
		l-1.631-6.129l-3.459,0.09l-2.443-2.708l-19.386,4.382l-43.001,8.73l-7.53,1.228l-0.738-6.469l1.429-1.125l1.293-1.132l0.97-1.616
		l1.778-1.132l1.94-1.778l0.484-1.616l2.102-2.748l1.132-0.971l-0.161-0.97l-1.294-3.071l-1.778-0.162l-1.939-6.143l2.91-1.778
		l4.364-1.455l4.042-1.293l3.233-0.485l6.305-0.162l1.939,1.294l1.616,0.161l2.102-1.293l2.587-1.132l5.173-0.484l2.102-1.778
		l1.778-3.233l1.617-1.94h2.102l1.939-1.131l0.162-2.264l-1.455-2.102l-0.323-1.455l1.132-2.102v-1.455h-1.778l-1.778-0.808
		l-0.809-1.132l-0.161-2.587l5.819-5.496l0.646-0.809l1.455-2.91l2.91-4.526l2.748-3.718l2.102-2.425l2.415-1.826l3.081-1.246
		l5.497-1.293l3.233,0.162l4.526-1.455l7.564-2.071l0.521,4.979l2.425,6.467l0.808,5.173l-0.97,3.88l2.587,4.526l0.809,2.102
		l-0.809,2.91l2.91,1.293l0.646,0.323l3.071,10.993l-0.536,5.06l-0.485,10.831l0.809,5.497l0.809,3.557l1.454,7.274v8.083
		l-1.131,2.264l1.839,1.992l0.797,1.679l-1.94,1.778l0.324,1.293l1.293-0.323l1.455-1.293l2.263-2.587l1.132-0.646l1.616,0.646
		l2.264,0.162l7.921-3.88l2.91-2.749l1.293-1.454l4.204,1.616l-3.396,3.557l-3.88,2.91l-7.113,5.334l-2.586,0.971l-5.82,1.939
		l-4.041,1.132l-1.175-0.533l-0.244-3.688l0.485-2.748l-0.162-2.102l-2.813-1.699l-4.526-0.97l-3.88-1.132L830.38,188.745z"/>
	
		<path id="PA_1_" fill="none" stroke="#000" stroke-width="0.5" d="
		M825.124,224.692l1.308-0.271l2.33-1.253l1.212-2.483l1.616-2.264l3.233-3.071v-0.809l-2.425-1.616l-3.557-2.425l-0.97-2.587
		l-2.748-0.323l-0.162-1.132l-0.809-2.748l2.264-1.132l0.162-2.425l-1.294-1.293l0.162-1.617l1.939-3.071v-3.071l2.698-2.646
		l-0.921-0.676l-2.523-0.192l-2.295-1.94l-1.55-6.115l-3.505,0.1l-2.455-2.703l-18.091,4.198l-43.002,8.729l-8.892,1.455
		l-0.62-6.521l-5.362,5.067l-1.294,0.485l-4.202,3.009l2.911,19.138l2.481,9.729l3.571,19.261l3.27-0.638l11.943-1.502l37.927-7.665
		l14.877-2.823l8.3-1.623l0.268-0.238l2.102-1.616L825.124,224.692z"/>
	
		<path id="NJ_1_" fill="none" stroke="#000" stroke-width="0.5" d="
		M829.68,188.46l-2.323,2.734v3.071l-1.939,3.071l-0.162,1.617l1.294,1.293l-0.162,2.425l-2.263,1.132l0.808,2.748l0.162,1.132
		l2.748,0.323l0.97,2.587l3.557,2.425l2.425,1.616v0.809l-2.982,2.696l-1.617,2.264l-1.455,2.748l-2.263,1.293l-0.463,1.603
		l-0.242,1.213l-0.609,2.606l1.092,2.244l3.233,2.91l4.85,2.263l4.042,0.647l0.161,1.454l-0.808,0.971l0.323,2.748h0.809
		l2.102-2.425l0.808-4.85l2.748-4.042l3.072-6.467l1.132-5.496l-0.647-1.132l-0.161-9.376l-1.617-3.395l-1.131,0.808l-2.749,0.323
		l-0.484-0.484l1.132-0.97l2.102-1.94l0.063-1.094l-0.384-3.434l0.573-2.748l-0.118-1.97l-2.808-1.75l-5.092-1.176l-4.138-1.382
		L829.68,188.46z"/>
	<path id="DE_1_" fill="none" stroke="#000" stroke-width="0.5" d="M825.626,228.28
		l0.368-2.147l0.375-1.691l-1.623,0.398l-1.615,0.468l-2.206,1.764l1.72,5.043l2.264,5.658l2.102,9.699l1.616,6.306l5.012-0.162
		l6.143-1.181l-2.265-7.387l-0.97,0.485l-3.557-2.425l-1.778-4.688l-1.939-3.557l-3.147-2.87l-0.864-2.098L825.626,228.28z"/>
	
		<path id="MD_1_" fill="none" stroke="#000" stroke-width="0.5" d="
		M839.792,252.414l-6.009,1.204l-5.143,0.117l-1.844-6.922l-1.925-9.169l-2.573-6.188l-1.288-4.398l-7.506,1.622l-14.876,2.823
		l-37.451,7.551l1.131,5.012l0.97,5.658l0.323-0.323l2.102-2.425l2.264-2.618l2.425-0.615l1.455-1.455l1.778-2.586l1.293,0.646
		l2.91-0.323l2.586-2.102l2.008-1.454l1.845-0.484l1.645,1.13l2.91,1.455l1.939,1.778l1.213,1.535l4.122,1.698v2.909l5.496,1.294
		l1.145,0.542l1.412-2.028l2.882,1.97l-1.278,2.482l-0.765,3.985l-1.778,2.587v2.102l0.646,1.777l5.063,1.356l4.312-0.062
		l3.071,0.97l2.102,0.323l0.97-2.102l-1.454-2.102v-1.778l-2.425-2.102l-2.102-5.497l1.293-5.334l-0.162-2.102l-1.293-1.294
		c0,0,1.455-1.616,1.455-2.263s0.484-2.102,0.484-2.102l1.94-1.294l1.939-1.616l0.485,0.97l-1.455,1.617l-1.293,3.718l0.323,1.132
		l1.778,0.323l0.484,5.496l-2.102,0.97l0.324,3.557l0.484-0.161l1.132-1.94l1.616,1.778l-1.616,1.294l-0.323,3.395l2.586,3.395
		l3.881,0.485l1.616-0.809l3.236,4.184l1.358,0.536l6.653-2.797l2.008-4.024L839.792,252.414z M823.822,261.444l1.132,2.506
		l0.161,1.778l1.132,1.858c0,0,0.89-0.889,0.89-1.212s-0.728-3.071-0.728-3.071l-0.728-2.345L823.822,261.444z"/>
	
		<path id="VA_1_" fill="none" stroke="#000" stroke-width="0.5" d="
		M831.639,266.069l-0.144-1.946l6.453-2.551l-0.771,3.219l-2.92,3.778l-0.418,4.586l0.462,3.391l-1.828,4.979l-2.164,1.916
		l-1.471-4.641l0.446-5.449l1.587-4.184L831.639,266.069z M834.979,294.37l-58.175,12.575l-37.427,5.279l-6.679-0.375l-2.585,1.926
		l-7.339,0.221l-8.383,0.978l-10.914,1.615l10.469-5.611l-0.013-2.075l1.52-2.146l10.554-11.501l3.947,4.478l3.783,0.964
		l2.543-1.141l2.237-1.311l2.537,1.343l3.914-1.428l1.876-4.556l2.602,0.54l2.855-2.132l1.799,0.494l2.827-3.677l0.349-2.083
		l-0.964-1.275l1.003-1.867l5.274-12.276l0.616-5.735l1.229-0.523l2.178,2.442l3.937-0.301l1.929-7.574l2.794-0.561l1.05-2.741
		l2.58-2.347l2.771-5.695l0.085-5.067l9.822,3.823c0.681,0.34,0.832-5.05,0.832-5.05l3.653,1.599l0.068,2.938l5.784,1.299
		l2.133,1.177l1.66,2.056l-0.655,3.648l-1.947,2.591l0.11,2.06l0.589,1.853l4.979,1.269l4.451,0.04l3.069,0.958l1.943,0.31
		l0.715,3.089l3.19,0.402l0.868,1.2l-0.439,4.689l1.374,1.103l-0.479,1.931l1.229,0.79l-0.222,1.385l-2.694-0.096l0.089,1.616
		l2.281,1.543l0.121,1.411l1.773,1.786l0.491,2.523l-2.553,1.382l1.572,1.494l5.801-1.686L834.979,294.37z"/>
	
		<path id="WV_1_" fill="none" stroke="#000" stroke-width="0.5" d="
		M761.186,238.967l1.112,4.944l1.083,6.032l2.131-2.581l2.263-3.071l2.538-0.615l1.455-1.455l1.778-2.587l1.445,0.646l2.91-0.323
		l2.586-2.102l2.007-1.453l1.846-0.485l1.304,1.017l3.644,1.822l1.939,1.778l1.374,1.293l-0.762,5.555l-5.835-2.541l-4.245-1.622
		l-0.101,5.179l-2.748,5.536l-2.53,2.427l-1.191,2.75l-2.644,0.5l-0.898,3.602l-1.043,3.95l-3.969,0.34l-2.323-2.438l-1.071,0.56
		l-0.633,5.47l-1.35,3.534l-4.959,10.955l0.896,1.161l-0.205,1.908l-2.81,3.885l-1.808-0.545l-2.969,2.16l-2.542-0.572l-1.999,4.556
		c0,0-3.26,1.43-3.923,1.367c-0.161-0.015-2.47-1.249-2.47-1.249l-2.336,1.38l-2.41,1.044l-3.745-0.889l-1.121-1.169l-2.192-3.022
		l-3.143-1.988l-1.711-3.623l-4.285-3.469l-0.646-2.263l-2.587-1.455l-0.809-1.617l-0.242-5.254l2.183-0.081l1.939-0.808
		l0.162-2.748l1.616-1.455l0.162-5.012l0.97-3.88l1.293-0.646l1.294,1.132l0.484,1.777l1.778-0.97l0.485-1.616l-1.132-1.778v-2.425
		l0.97-1.294l2.264-3.395l1.293-1.455l2.102,0.485l2.264-1.617l3.071-3.395l2.264-3.88l0.323-5.658l0.484-5.012v-4.688l-1.131-3.072
		l0.97-1.454l1.283-1.294l3.491,19.827l4.631-0.751L761.186,238.967z"/>
	
		<path id="OH_1_" fill="none" stroke="#000" stroke-width="0.5" d="
		M735.325,193.328l-6.094,4.054l-3.88,2.263l-3.395,3.719l-4.042,3.88l-3.233,0.808l-2.909,0.485l-5.497,2.586l-2.102,0.162
		l-3.395-3.071l-5.173,0.646l-2.587-1.455l-2.381-1.351l-4.893,0.703l-10.185,1.617l-11.207,2.185l1.293,14.63l1.778,13.741
		l2.587,23.44l0.565,4.832l4.122-0.13l2.426-0.808l3.363,1.503l2.07,4.365l5.14-0.018l1.892,2.119l1.761-0.065l2.538-1.342
		l2.505,0.371l5.421,0.483l1.728-2.133l2.346-1.293l2.07-0.682l0.646,2.749l1.778,0.97l3.476,2.344l2.183-0.081l1.333-0.492
		l0.185-2.762l1.585-1.455l0.1-4.792l1.023-4.109l1.3-0.602l1.321,1.148l0.538,1.696l1.719-1.037l0.439-1.461l-1.117-1.903
		l0.066-2.314l0.749-1.072l2.153-3.306l1.05-1.544l2.102,0.485l2.264-1.617l3.071-3.395l2.771-4.079l0.32-5.055l0.485-5.012
		l-0.177-5.307l-0.955-2.896l0.351-1.189l1.805-1.75l-2.289-9.048L735.325,193.328z"/>
	<path id="IN_1_" fill="none" stroke="#000" stroke-width="0.5" d="M619.569,299.971l0.065-2.858l0.485-4.526l2.263-2.91
		l1.778-3.88l2.587-4.203l-0.485-5.819l-1.778-2.748l-0.323-3.233l0.809-5.497l-0.485-6.951l-1.293-16.004l-1.293-15.358
		l-0.971-11.72l3.071,0.89l1.454,0.97l1.132-0.323l2.102-1.939l2.83-1.617l5.093-0.162l21.985-2.264l5.576-0.533l1.503,15.956
		l4.252,36.842l0.598,5.771l-0.371,2.264l1.228,1.795l0.097,1.373l-2.521,1.6l-3.539,1.551l-3.202,0.551l-0.599,4.867l-4.574,3.312
		l-2.797,4.011l0.323,2.377l-0.581,1.534h-3.326l-1.586-1.616l-2.493,1.262l-2.684,1.503l0.162,3.055l-1.193,0.258l-0.469-1.018
		l-2.166-1.504l-3.251,1.342l-1.551,3.006l-1.438-0.808l-1.454-1.6l-4.465,0.485l-5.593,0.97L619.569,299.971z"/>
	
		<path id="IL_1_" fill="none" stroke="#000" stroke-width="0.5" d="
		M619.541,300.342l0.031-3.229l0.567-4.646l2.333-2.916l1.866-4.076l2.233-3.995l-0.371-5.252l-2.006-3.543l-0.096-3.347l0.694-5.27
		l-0.825-7.179l-1.066-15.777l-1.293-15.017l-0.923-11.64l-0.272-0.922l-0.809-2.586l-1.293-3.719l-1.616-1.778l-1.455-2.586
		l-0.233-5.489l-45.797,2.599l0.229,2.372l2.286,0.686l0.915,1.143l0.457,1.829l3.887,3.43l0.686,2.286l-0.686,3.43l-1.829,3.657
		l-0.686,2.516l-2.286,1.829l-1.829,0.686l-5.259,1.372l-0.686,1.828l-0.686,2.058l0.686,1.372l1.829,1.601l-0.229,4.115
		l-1.829,1.601l-0.687,1.6v2.744l-1.829,0.457l-1.6,1.143l-0.229,1.372l0.229,2.058l-1.715,1.314l-1.029,2.801l0.458,3.658
		l2.286,7.315l7.315,7.545l5.487,3.658l-0.229,4.344l0.914,1.371l6.401,0.458l2.744,1.371l-0.687,3.658l-2.286,5.944l-0.686,3.2
		l2.286,3.887l6.401,5.259l4.572,0.686l2.058,5.029l2.058,3.201l-0.914,2.972l1.601,4.115l1.828,2.058l1.414-0.881l0.908-2.074
		l2.213-1.747l2.132-0.614l2.603,1.18l3.627,1.375l1.188-0.298l0.2-2.259l-1.287-2.411l0.304-2.377l1.839-1.348l3.022-0.811
		l1.261-0.458l-0.612-1.387l-0.792-2.354l1.433-0.981L619.541,300.342z"/>
	<path id="CT_1_" fill="none" stroke="#000" stroke-width="0.5" d="M874.068,178.863
		l-3.678-14.879l-4.719,0.921l-21.229,4.743l1,3.226l1.455,7.274l0.177,8.967l-1.22,2.175l1.921,1.933l4.271-3.905l3.556-3.233
		l1.94-2.102l0.809,0.646l2.748-1.455l5.173-1.132L874.068,178.863z"/>
	
		<path id="WI_1_" fill="none" stroke="#000" stroke-width="0.5" d="
		M615.066,197.368l-0.067-3.157l-1.179-4.526l-0.646-6.144l-1.132-2.425l0.97-3.071l0.809-2.91l1.455-2.586l-0.647-3.396
		l-0.646-3.557l0.485-1.778l1.939-2.425l0.162-2.748l-0.809-1.293l0.646-2.587l-0.452-4.171l2.748-5.658l2.91-6.789l0.161-2.264
		l-0.323-0.97l-0.808,0.485l-4.203,6.305l-2.749,4.041l-1.939,1.778l-0.809,2.264l-1.955,0.808l-1.131,1.94l-1.455-0.323
		l-0.162-1.778l1.294-2.425l2.102-4.688l1.777-1.616l0.991-2.358l-2.561-1.901l-1.975-10.367l-3.548-1.342l-1.946-2.308
		l-12.129-2.722l-2.876-1.013l-8.214-2.167l-7.917-1.159l-3.766-5.13l-0.75,0.554l-1.198-0.162l-0.646-1.131l-1.334,0.296
		l-1.132,0.162l-1.778,0.97l-0.97-0.646l0.646-1.94l1.939-3.071l1.132-1.132l-1.939-1.455l-2.102,0.809l-2.91,1.94l-7.437,3.232
		l-2.91,0.647l-2.909-0.485l-0.982-0.878l-2.116,2.835l-0.229,2.743v8.459l-1.144,1.601l-5.258,3.887l-2.286,5.944l0.457,0.229
		l2.515,2.058l0.686,3.2l-1.829,3.201v3.887l0.458,6.63l2.972,2.972h3.43l1.829,3.201l3.429,0.457l3.887,5.716l7.088,4.115
		l2.057,2.743l0.915,7.431l0.686,3.314l2.286,1.601l0.229,1.372l-2.058,3.429l0.229,3.201l2.515,3.887l2.515,1.143l2.972,0.458
		l1.343,1.38L615.066,197.368z"/>
	
		<path id="NC_1_" fill="none" stroke="#000" stroke-width="0.5" d="
		M834.981,294.316l2.085,4.917l3.557,6.467l2.425,2.425l0.646,2.263l-2.425,0.162l0.809,0.646l-0.323,4.203l-2.587,1.293
		l-0.646,2.102l-1.293,2.91l-3.719,1.617l-2.425-0.324l-1.455-0.161l-1.616-1.293l0.323,1.293v0.97h1.939l0.809,1.293l-1.939,6.305
		h4.203l0.646,1.617l2.263-2.264l1.294-0.484l-1.94,3.557l-3.071,4.85h-1.293l-1.132-0.485l-2.748,0.646l-5.174,2.425l-6.466,5.335
		l-3.396,4.688l-1.939,6.467l-0.485,2.425l-4.688,0.484L799.767,362l-9.946-8.202l-12.61-7.599l-2.909-0.808l-12.609,1.454
		l-4.277,0.751l-1.616-3.233l-2.971-2.117l-16.489,0.485l-7.274,0.809l-9.053,4.526l-6.144,2.586l-21.178,2.587l0.5-4.055
		l1.778-1.454l2.749-0.647l0.646-3.718l4.203-2.748l3.88-1.455l4.203-3.557l4.364-2.102l0.646-3.071l3.881-3.88l0.646-0.162
		c0,0,0,1.132,0.808,1.132c0.809,0,1.94,0.323,1.94,0.323l2.263-3.557l2.102-0.646l2.264,0.323l1.616-3.557l2.91-2.587l0.485-2.102
		l0.188-3.647l4.276-0.022l7.198-0.856l15.758-2.252l15.136-2.087l21.641-4.719l19.983-4.259l11.177-2.406L834.981,294.316z
		 M839.252,327.522l2.587-2.506l3.152-2.586l1.535-0.647l0.162-2.021l-0.646-6.143l-1.455-2.345l-0.646-1.858l0.728-0.243
		l2.748,5.497l0.404,4.445l-0.162,3.395l-3.395,1.536l-2.829,2.425l-1.132,1.213L839.252,327.522z"/>
	<path id="DC_1_" fill="none" stroke="#000" stroke-width="0.5" d="M805.819,250.844l-1.858-1.824
		l-1.232-0.687l1.443-2.022l2.889,1.948L805.819,250.844z"/>
	
		<path id="MA_1_" fill="none" stroke="#000" stroke-width="0.5" d="
		M899.623,173.254l2.172-0.687l0.458-1.714l1.028,0.114l1.029,2.286l-1.258,0.457l-3.887,0.114L899.623,173.254z M890.25,174.054
		l2.286-2.629h1.601l1.829,1.486l-2.4,1.028l-2.173,1.029L890.25,174.054z M855.451,152.066l17.646-4.641l2.264-0.646l1.914-2.796
		l3.736-1.663l2.89,4.413l-2.425,5.173l-0.324,1.455l1.94,2.587l1.132-0.809h1.778l2.263,2.586l3.88,5.981l3.557,0.485l2.264-0.97
		l1.778-1.778l-0.809-2.748l-2.102-1.617l-1.455,0.809l-0.97-1.293l0.484-0.485l2.102-0.161l1.778,0.808l1.94,2.425l0.97,2.91
		l0.323,2.425l-4.203,1.455l-3.88,1.94l-3.88,4.526l-1.939,1.455v-0.971l2.425-1.455l0.484-1.778l-0.808-3.071l-2.91,1.455
		l-0.809,1.455l0.485,2.263l-2.066,1.001l-2.747-4.527l-3.396-4.364l-2.07-1.813l-6.533,1.876l-5.092,1.051l-20.676,4.592
		l-0.667-4.768l0.646-10.589l4.289-0.889L855.451,152.066z"/>
	
		<path id="TN_1_" fill="none" stroke="#000" stroke-width="0.5" d="
		M696.678,318.254l-51.893,5.011l-15.76,1.778l-4.621,0.513l-3.868-0.027l-0.222,4.101l-8.186,0.265l-6.951,0.646l-8.091-0.124
		l-1.413,7.073l-1.697,5.479l-3.293,2.751l-1.349,4.381l-0.323,2.587l-4.041,2.263l1.455,3.557l-0.971,4.365l-0.968,0.79
		l108.158-10.408l0.403-3.955l1.811-1.49l2.834-0.749l0.672-3.717l4.099-2.705l4.047-1.494l4.084-3.57l4.437-2.025l0.521-3.067
		l4.064-3.985l0.551-0.114c0,0,0.031,1.132,0.84,1.132s1.94,0.354,1.94,0.354l2.263-3.588l2.07-0.646l2.275,0.295l1.599-3.532
		l2.955-2.645l0.422-1.938l0.309-3.712l-2.146-0.199l-2.602,2.028l-6.993,0.029l-18.359,2.387L696.678,318.254z"/>
	
		<path id="AR_1_" fill="none" stroke="#000" stroke-width="0.5" d="
		M593.825,343.053l-3.98,0.717l-5.112-0.635l0.421-1.602l2.979-2.566l0.943-3.656l-1.828-2.973l-78.418,2.515l1.601,6.859v8.23
		l1.371,10.974l0.229,37.837l2.286,1.943l2.972-1.372l2.743,1.144l0.681,6.573l55.621-1.141l1.146-2.091l-0.286-3.549l-1.826-2.973
		l1.599-1.485l-1.599-2.511l0.685-2.51l1.368-5.605l2.519-2.063l-0.687-2.284l3.658-5.372l2.744-1.368l-0.114-1.493l-0.345-1.826
		l2.856-5.599l2.403-1.257l0.384-3.428l1.771-1.241l-3.144-0.484l-1.341-4.011l2.804-2.376l0.551-2.02l1.279-4.047L593.825,343.053z
		"/>
	
		<path id="MO_1_" fill="none" stroke="#000" stroke-width="0.5" d="
		M558.44,248.114l-2.521-3.088l-1.143-2.286l-64.357,2.4l-2.286,0.114l1.258,2.516l-0.229,2.286l2.516,3.887l3.086,4.115
		l3.087,2.743l2.161,0.229l1.496,0.914v2.973l-1.828,1.601l-0.458,2.286l2.058,3.429l2.515,2.973l2.516,1.829l1.371,11.659
		l0.314,36.072l0.229,4.687l0.457,5.384l22.434-0.867l23.206-0.686l20.805-0.801l11.654-0.23l2.17,3.426l-0.685,3.308l-3.087,2.403
		l-0.572,1.837l5.378,0.457l3.896-0.686l1.717-5.494l0.651-5.856l2.098-2.555l2.597-1.487l0.051-3.05l1.017-1.937l-1.694-2.544
		l-1.331,0.984l-1.993-2.228l-1.284-4.759l0.801-2.519l-1.944-3.428l-1.83-4.575l-4.8-0.8l-6.969-5.599l-1.719-4.113l0.799-3.201
		l2.06-6.058l0.459-2.863l-1.949-1.031l-6.855-0.798l-1.027-1.712l-0.112-4.23l-5.487-3.431l-6.976-7.771l-2.286-7.316l-0.229-4.226
		L558.44,248.114z"/>
	
		<path id="GA_1_" fill="none" stroke="#000" stroke-width="0.5" d="
		M672.292,355.552v2.182l0.162,2.102l0.646,3.396l3.395,7.921l2.425,9.861l1.455,6.144l1.617,4.85l1.455,6.951l2.102,6.305
		l2.586,3.396l0.485,3.395l1.939,0.809l0.162,2.102l-1.778,4.85l-0.485,3.233l-0.161,1.939l1.616,4.365l0.323,5.335l-0.808,2.425
		l0.646,0.808l1.455,0.809l0.204,3.218l2.233,3.35l2.25,2.162l7.922,0.162l10.819-0.646l21.513-1.294l5.445-0.674l4.577,0.027
		l0.162,2.91l2.587,0.809l0.323-4.365l-1.617-4.526l1.132-1.616l5.82,0.808l4.977,0.318l-0.775-6.299l2.264-10.023l1.455-4.203
		l-0.485-2.586l3.335-6.245l-0.511-1.352l-1.913,0.705l-2.587-1.294l-0.646-2.102l-1.293-3.557l-2.264-2.102l-2.587-0.646
		l-1.616-4.85l-2.925-6.335l-4.203-1.939l-2.102-1.94l-1.294-2.587l-2.102-1.939l-2.263-1.293l-2.264-2.91l-3.071-2.264
		l-4.526-1.778l-0.485-1.455l-2.425-2.909l-0.485-1.455l-3.395-4.971l-3.52,0.1l-3.755-2.356l-1.419-1.293l-0.323-1.778l0.871-1.94
		l2.227-1.11l-0.634-2.097L672.292,355.552z"/>
	
		<path id="SC_1_" fill="none" stroke="#000" stroke-width="0.5" d="
		M764.943,408.164l-1.777,0.97l-2.586-1.293l-0.647-2.102l-1.293-3.557l-2.263-2.102l-2.587-0.646l-1.617-4.851l-2.748-5.981
		l-4.203-1.939l-2.102-1.94l-1.293-2.586l-2.102-1.94l-2.264-1.293l-2.263-2.91l-3.072-2.263l-4.526-1.778l-0.484-1.455l-2.425-2.91
		l-0.485-1.455l-3.395-5.173l-3.396,0.162l-4.041-2.426l-1.294-1.293l-0.323-1.778l0.809-1.939l2.264-0.971l-0.512-2.289
		l5.769-2.336l9.115-4.589l7.775-0.809l16.114-0.423l2.638,1.878l1.68,3.358l4.302-0.61l12.609-1.455l2.91,0.809l12.609,7.598
		l10.108,8.122l-5.421,5.458l-2.587,6.144l-0.484,6.305l-1.617,0.808l-1.132,2.749l-2.425,0.646l-2.102,3.557l-2.748,2.748
		l-2.263,3.395l-1.617,0.809l-3.557,3.395l-2.91,0.162l0.971,3.233l-5.012,5.496L764.943,408.164z"/>
	
		<path id="KY_1_" fill="none" stroke="#000" stroke-width="0.5" d="
		M725.994,295.271l-2.293,2.401l-3.578,3.994l-4.925,5.465l-1.216,1.716l-0.063,2.102l-4.38,2.164l-5.658,3.395l-7.231,1.799
		l-51.868,4.899l-15.76,1.777l-4.621,0.514l-3.868-0.028l-0.227,4.221l-8.18,0.145l-6.951,0.646l-7.988-0.061l1.208-1.32l2.5-1.54
		l0.229-3.201l0.914-1.829l-1.606-2.539l0.802-1.906l2.264-1.778l2.102-0.646l2.748,1.293l3.557,1.293l1.132-0.323l0.161-2.263
		l-1.293-2.425l0.323-2.264l1.939-1.455l2.587-0.646l1.616-0.646l-0.808-1.778l-0.647-1.94l1.507-0.995
		c0.004-0.037,1.254-3.522,1.238-3.658l3.054-1.479l5.319-0.97l4.494-0.485l1.393,1.628l1.528,0.87l1.591-3.107l3.187-1.283
		l2.205,1.484l0.411,0.999l1.174-0.264l-0.162-2.953l3.131-1.749l2.148-1.074l1.529,1.661l3.317-0.044l0.588-1.571l-0.367-2.264
		l2.601-3.998l4.776-3.438l0.706-4.836l2.925-0.455l3.791-1.646l2.443-1.708l-0.198-1.564l-1.143-1.455l0.566-2.995l4.185-0.117
		l2.3-0.746l3.348,1.429l2.054,4.365l5.133,0.011l2.051,2.208l1.615-0.147l2.602-1.278l5.237,0.573l2.575,0.218l1.688-2.057
		l2.618-1.426l1.882-0.707l0.646,2.837l2.043,1.059l2.643,2.082l0.118,5.674l0.808,1.572l2.59,1.556l0.771,2.295l4.16,3.437
		l1.806,3.624L725.994,295.271z"/>
	
		<path id="AL_1_" fill="none" stroke="#000" stroke-width="0.5" d="
		M631.307,460.415l-1.491-14.321l-2.748-18.753l0.162-14.064l0.808-31.039l-0.161-16.65l0.165-6.419l44.484-3.62l-0.147,2.183
		l0.161,2.102l0.646,3.396l3.396,7.921l2.425,9.861l1.455,6.144l1.616,4.85l1.455,6.951l2.102,6.305l2.587,3.395l0.484,3.396
		l1.94,0.808l0.161,2.103l-1.778,4.85l-0.484,3.233l-0.162,1.939l1.617,4.365l0.323,5.334l-0.809,2.426l0.646,0.808l1.455,0.809
		l0.328,2.889l-5.598-0.354l-6.79,0.646l-25.542,2.91l-10.411,1.406l-0.222,2.878l1.778,1.778l2.586,1.939l0.581,7.936l-5.542,2.573
		l-2.748-0.323l2.748-1.94v-0.97l-3.071-5.981l-2.264-0.646l-1.455,4.365l-1.293,2.748l-0.646-0.162H631.307z"/>
	
		<path id="LA_1_" fill="none" stroke="#000" stroke-width="0.5" d="
		M607.967,459.161l-3.284-3.167l1.01-5.5l-0.661-0.893l-9.262,1.006l-25.028,0.459l-0.685-2.395l0.913-8.455l3.315-5.946
		l5.031-8.691l-0.573-2.397l1.256-0.681l0.459-1.953l-2.286-2.056l-0.111-1.942l-1.831-4.346l-0.146-6.339l-55.475,0.925
		l0.029,9.573l0.686,9.373l0.686,3.887l2.516,4.115l0.914,5.03l4.344,5.486l0.229,3.201l0.687,0.686l-0.687,8.459l-2.972,5.03
		l1.6,2.058l-0.686,2.515l-0.686,7.315l-1.372,3.201l0.123,3.616l4.687-1.521l12.113,0.207l10.346,3.557l6.467,1.132l3.718-1.455
		l3.233,1.132l3.233,0.97l0.809-2.102l-3.233-1.131l-2.587,0.484l-2.748-1.616c0,0,0.161-1.294,0.809-1.455
		c0.646-0.162,3.071-0.97,3.071-0.97l1.778,1.454l1.778-0.97l3.233,0.646l1.454,2.426l0.324,2.263l4.526,0.323l1.778,1.778
		L580,487.106l-1.293,0.809l1.616,1.617l8.406,3.556l3.557-1.293l0.97-2.425l2.587-0.646l1.778-1.455l1.293,0.97l0.809,2.91
		l-2.264,0.809l0.646,0.646l3.396-1.293l2.263-3.396l0.809-0.484l-2.102-0.324l0.809-1.616l-0.162-1.455l2.102-0.484l1.132-1.294
		l0.646,0.809c0,0-0.161,3.071,0.646,3.071c0.809,0,4.203,0.646,4.203,0.646l4.042,1.94l0.97,1.455h2.91l1.132,0.97l2.263-3.071
		v-1.455h-1.293l-3.396-2.748l-5.819-0.809l-3.233-2.264l1.132-2.748l2.264,0.323l0.161-0.646l-1.778-0.97v-0.485h3.233l1.778-3.071
		l-1.293-1.939l-0.323-2.749l-1.455,0.162l-1.94,2.102l-0.646,2.587l-3.071-0.647l-0.971-1.778L608.29,469l1.903-3.445l-1.061-2.412
		L607.967,459.161z"/>
	
		<path id="MS_1_" fill="none" stroke="#000" stroke-width="0.5" d="
		M631.559,459.344l-0.254,1.257h-5.173l-1.455-0.809l-2.102-0.323l-6.79,1.939l-1.778-0.808l-2.587,4.203l-1.103,0.777l-1.123-2.487
		l-1.144-3.887l-3.43-3.201l1.144-5.544l-0.686-0.915l-1.829,0.229l-7.918,0.874l-24.547,0.373l-0.77-2.226l0.873-8.377l3.117-5.673
		l5.227-9.145l-0.445-2.433l1.237-0.656l0.436-1.919l-2.317-2.079l-0.115-2.142l-1.836-4.121l-0.109-5.963l1.328-2.481l-0.224-3.415
		l-1.77-3.083l1.526-1.482l-1.57-2.499l0.457-1.652l1.578-6.526l2.485-2.036l-0.642-2.367l3.658-5.303l2.832-1.356l-0.222-1.675
		l-0.288-1.682l2.876-5.567l2.346-1.231l0.152-0.893l37.343-3.882l0.186,6.283l0.161,16.651l-0.808,31.039l-0.162,14.064
		l2.748,18.753L631.559,459.344z"/>
	
		<path id="IA_1_" fill="none" stroke="#000" stroke-width="0.5" d="
		M569.191,199.584l0.265,2.786l2.224,0.577l0.954,1.226l0.5,1.855l3.793,3.358l0.686,2.392l-0.675,3.425l-1.582,3.231l-0.799,2.742
		l-2.173,1.602l-1.716,0.572l-5.579,1.86l-1.392,3.849l0.729,1.372l1.841,1.683l-0.283,4.036l-1.763,1.538l-0.771,1.643l0.127,2.776
		l-1.886,0.458l-1.626,1.104l-0.278,1.353l0.278,2.115l-1.551,1.116l-2.471-3.134l-1.263-2.449l-65.735,2.515l-0.918,0.165
		l-2.053-4.516l-0.229-6.63l-1.601-4.115l-0.686-5.259l-2.286-3.658l-0.915-4.801l-2.743-7.545l-1.143-5.372l-1.372-2.172
		l-1.601-2.743l1.954-4.845l1.372-5.715l-2.744-2.058l-0.457-2.744l0.915-2.515h1.714l82.654-1.27l0.834,4.184l2.253,1.561
		l0.256,1.423l-2.029,3.39l0.19,3.206l2.515,3.798l2.527,1.294l3.079,0.503L569.191,199.584z"/>
	
		<path id="MN_1_" fill="none" stroke="#000" stroke-width="0.5" d="
		M475.238,128.824l-0.458-8.459l-1.829-7.316l-1.828-13.488l-0.458-9.831l-1.829-3.429l-1.6-5.03V70.983l0.686-3.887l-1.821-5.451
		l30.133,0.035l0.323-8.245l0.646-0.161l2.264,0.484l1.939,0.809l0.809,5.497l1.455,6.143l1.616,1.616h4.85l0.323,1.455l6.306,0.323
		v2.102h4.85l0.323-1.293l1.132-1.132l2.263-0.646l1.294,0.97h2.909l3.88,2.587l5.335,2.425l2.425,0.485l0.485-0.97l1.455-0.485
		l0.484,2.91l2.587,1.293l0.485-0.485l1.293,0.162v2.102l2.586,0.97h3.072l1.616-0.809l3.233-3.232l2.587-0.485l0.808,1.778
		l0.485,1.293h0.97l0.97-0.808l8.892-0.324l1.778,3.072h0.646l0.714-1.085l4.439-0.37l-0.611,2.279l-3.939,1.837l-9.245,4.062
		l-4.775,2.007l-3.071,2.587l-2.425,3.556l-2.263,3.88l-1.779,0.809l-4.526,5.012l-1.293,0.161l-4.328,2.758l-2.463,3.205
		l-0.229,3.191l0.095,8.043l-1.376,1.688l-5.082,3.761l-2.229,5.982l2.871,2.233l0.681,3.227l-1.855,3.239l0.171,3.748l0.369,6.73
		l3.027,3.002h3.329l1.892,3.133l3.379,0.503l3.859,5.672l7.087,4.116l2.144,2.875l0.671,6.439l-81.211,1.146l-0.339-35.677
		l-0.457-2.973l-4.115-3.429l-1.143-1.829v-1.601l2.058-1.601l1.371-1.372L475.238,128.824z"/>
	
		<path id="OK_1_" fill="none" stroke="#000" stroke-width="0.5" d="
		M380.343,320.822l-16.684-1.273l-0.88,10.952l20.465,1.157l32.056,1.304l-2.335,24.418l-0.457,17.833l0.229,1.601l4.344,3.657
		l2.058,1.144l0.686-0.229l0.686-2.058l1.371,1.829h2.059v-1.372l2.743,1.372l-0.457,3.887l4.115,0.229l2.515,1.143l4.115,0.687
		l2.515,1.828l2.286-2.058l3.43,0.687l2.515,3.429h0.914v2.287l2.286,0.686l2.287-2.286l1.828,0.686h2.516l0.914,2.515l6.301,2.079
		l1.372-0.686l1.829-4.115h1.143l1.144,2.058l4.115,0.686l3.658,1.372l2.972,0.914l1.829-0.914l0.686-2.515h4.344l2.058,0.914
		l2.744-2.058h1.143l0.687,1.601h4.115l1.6-2.058l1.829,0.457l2.058,2.515l3.201,1.829l3.2,0.915l1.941,1.118l-0.389-37.217
		l-1.372-10.974l-0.161-8.872l-1.439-6.538l-0.778-7.18l-0.068-3.816l-12.137,0.319l-46.41-0.458l-45.039-2.058L380.343,320.822z"/>
	
		<path id="TX_1_" fill="none" stroke="#000" stroke-width="0.5" d="
		M361.464,330.573l22.691,1.086l31.092,1.143l-2.334,23.456l-0.297,18.153l0.068,2.082l4.344,3.818l1.987,1.447l1.184-0.56
		l0.374-1.817l1.14,1.804l2.111,0.043l-0.002-1.446l1.67,0.967l1.139,0.409l-0.359,3.968l4.088,0.093l2.926,1.197l3.954,0.525
		l2.382,2.079l2.124-2.076l3.725,0.615l2.221,3.225l1.075,0.321l-0.16,1.965l2.214,0.793l2.33-2.055l2.133,0.614l2.229,0.036
		l0.933,2.435l6.328,2.115l1.593-0.768l1.49-4.178h0.341l0.906,0.082l1.229,2.068l3.931,0.665l3.337,1.123l3.425,1.196l1.841-0.975
		l0.714-2.516l4.453,0.045l1.809,0.931l2.8-2.106l1.104,0.044l0.851,1.605h4.055l1.52-2.029l1.867,0.407l1.946,2.403l3.521,2.044
		l2.858,0.811l1.514,0.8l2.446,1.997l3.043-1.328l2.691,1.139l0.564,6.106l-0.04,9.702l0.686,9.534l0.702,3.604l2.676,4.42
		l0.897,4.951l4.217,5.538l0.195,3.145l0.747,0.786l-0.73,8.38l-2.872,5.007l1.533,2.152l-0.63,2.339l-0.67,7.404l-1.505,3.338
		l0.295,3.502l-5.664,1.585l-9.861,4.526l-0.971,1.94l-2.586,1.939l-2.102,1.455l-1.294,0.809l-5.658,5.335l-2.748,2.102
		l-5.335,3.233l-5.657,2.425l-6.305,3.395l-1.778,1.455l-5.82,3.557l-3.395,0.646l-3.88,5.496l-4.042,0.323l-0.97,1.94l2.264,1.939
		l-1.455,5.497l-1.294,4.526l-1.131,3.88l-0.809,4.526l0.809,2.425l1.778,6.951l0.97,6.144l1.778,2.748l-0.971,1.455l-3.071,1.939
		l-5.658-3.88l-5.496-1.131l-1.293,0.484l-3.233-0.646l-4.203-3.071l-5.174-1.132l-7.598-3.395l-2.102-3.88l-1.293-6.467
		l-3.233-1.939l-0.646-2.264l0.646-0.646l0.323-3.395l-1.293-0.647l-0.646-0.97l1.293-4.364l-1.617-2.264l-3.233-1.293l-3.395-4.365
		l-3.557-6.628l-4.203-2.587l0.162-1.939l-5.335-12.286l-0.808-4.203l-1.778-1.94l-0.162-1.455l-5.981-5.334l-2.587-3.072v-1.132
		l-2.586-2.102l-6.79-1.131l-7.437-0.646l-3.071-2.264l-4.527,1.778l-3.556,1.455l-2.264,3.233l-0.97,3.718l-4.365,6.144
		l-2.425,2.425l-2.587-0.971l-1.778-1.131l-1.94-0.647l-3.88-2.263v-0.646l-1.778-1.94l-5.173-2.102l-7.437-7.76l-2.263-4.688
		v-8.083l-3.233-6.467l-0.485-2.748l-1.616-0.97l-1.132-2.102l-5.012-2.102l-1.293-1.617l-7.113-7.921l-1.293-3.233l-4.688-2.264
		l-1.455-4.364l-2.586-2.91l-1.94-0.485l-0.649-4.678l8.001,0.687l29.035,2.743l29.035,1.601l2.233-19.462l3.887-55.555
		l1.601-18.748l1.372,0.029"/>
	<path id="NM_1_" fill="none" stroke="#000" stroke-width="0.5" d="M288.152,424.013
		l-0.775-4.748l8.644,0.525l30.172,2.946l27.268,1.689l2.215-18.707l3.857-55.876l1.737-19.39l1.572,0.129l0.826-11.164
		l-104.335-9.483l-17.167,119.282l15.46,1.989l1.293-10.022L288.152,424.013z"/>
	<path id="KS_1_" fill="none" stroke="#000" stroke-width="0.5" d="M507.881,324.38
		l-12.618,0.204l-46.09-0.457l-44.557-2.058l-24.63-1.258l3.894-64.595l22.083,0.676l40.289,0.841l44.302,0.988h5.096l2.185,2.162
		l2.018-0.021l1.64,1.013l-0.063,3.009l-1.828,1.726l-0.333,2.232l1.844,3.402l2.952,3.195l2.327,1.614l1.301,11.24L507.881,324.38z
		"/>
	<path id="NE_1_" fill="none" stroke="#000" stroke-width="0.5" d="
		M486.098,240.7l3.23,7.021l-0.128,2.302l3.459,5.494l2.719,3.152h-5.049l-43.482-0.938l-40.787-0.891l-22.252-0.784l1.073-21.327
		l-32.318-2.921l4.344-44.01l15.546,1.029l20.119,1.143l17.833,1.144l23.776,1.143l10.746-0.457l2.057,2.286l4.802,2.973
		l1.143,0.914l4.344-1.371l3.887-0.458l2.744-0.229l1.829,1.372l4.057,1.601l2.973,1.6l0.457,1.601l0.914,2.058h1.829l0.798,0.046
		l0.895,4.683l2.92,8.468l0.573,3.757l2.523,3.773l0.569,5.114l1.607,4.24L486.098,240.7z"/>
	<path id="SD_1_" fill="none" stroke="#000" stroke-width="0.5" d="
		M476.447,204.025l-0.048-0.581l-2.896-4.846l1.86-4.712l1.492-5.887l-2.781-2.079l-0.386-2.744l0.793-2.554l3.188,0.015
		l-0.123-5.006l-0.334-30.174l-0.617-3.768l-4.072-3.331l-0.983-1.677l-0.063-1.609l2.022-1.529l1.532-1.666l0.245-2.656
		l-58.257-1.601l-54.799-3.449l-5.326,63.691l14.59,0.904l19.95,1.205l17.743,0.929l23.777,1.304l11.982-0.425l1.966,2.245
		l5.195,3.253l0.764,0.724l4.541-1.453l6.541-0.615l1.675,1.337l4.205,1.596l2.945,1.636l0.398,1.483l1.04,2.241L476.447,204.025z"
		/>
	<path id="ND_1_" fill="none" stroke="#000" stroke-width="0.5" d="M475.306,128.918
		l-0.615-8.434l-1.677-6.815l-1.892-13.024l-0.457-10.987l-1.74-3.077l-1.756-5.194l0.031-10.444l0.623-3.824l-1.834-5.468
		l-28.643-0.563l-18.591-0.646l-26.512-1.294l-22.946-2.134l-6.993,67.177l54.932,3.344L475.306,128.918z"/>
	<path id="WY_1_" fill="none" stroke="#000" stroke-width="0.5" d="M360.376,143.276l-106.742-13.457
		l-14.083,88.458l113.265,13.586L360.376,143.276z"/>
	
		<path id="MT_1_" fill="none" stroke="#000" stroke-width="0.5" d="
		M369.209,56.969l-30.674-2.808l-29.261-3.557l-29.26-4.042l-32.332-5.334l-18.429-3.396l-32.724-6.933l-4.479,21.348l3.43,7.545
		l-1.372,4.572l1.829,4.572l3.201,1.372l4.621,10.77l2.695,3.176l0.458,1.144l3.429,1.144l0.457,2.057l-7.087,17.604v2.515
		l2.515,3.201h0.915l4.801-2.973l0.686-1.143l1.601,0.686l-0.229,5.259l2.743,12.574l2.972,2.515l0.915,0.686l1.829,2.286
		l-0.458,3.43l0.686,3.429l1.143,0.915l2.286-2.286h2.744l3.201,1.601l2.515-0.915h4.115l3.658,1.601l2.743-0.457l0.458-2.973
		l2.972-0.686l1.372,1.372l0.457,3.2l1.426,0.835l1.887-11.035l106.746,13.429L369.209,56.969z"/>
	<path id="CO_1_" fill="none" stroke="#000" stroke-width="0.5" d="M380.032,320.964l4.903-86.324
		l-113.389-12.645l-12.213,87.939L380.032,320.964z"/>
	
		<path id="ID_1_" fill="none" stroke="#000" stroke-width="0.5" d="
		M148.722,175.531l8.528-34.269l1.372-4.229l2.515-5.944l-1.257-2.286l-2.515,0.114l-0.8-1.028l0.457-1.144l0.343-3.086l4.458-5.487
		l1.829-0.457l1.144-1.144l0.571-3.2l0.915-0.686l3.887-5.83l3.886-4.344l0.229-3.772l-3.43-2.629l-1.535-4.401l13.625-63.342
		l13.518,2.528l-4.408,21.383l3.56,7.485l-1.581,4.661l1.97,4.641l3.138,1.256l3.835,9.557l3.513,4.437l0.507,1.144l3.341,1.143
		l0.369,2.098l-6.971,17.376l-0.165,2.566l2.631,3.321l0.905-0.049l4.911-3.025l0.678-1.096l1.562,0.659l-0.278,5.354l2.739,12.583
		l3.918,3.178l1.681,2.166l-0.717,4.083l1.066,2.808l1.062,1.092l2.479-2.352l2.848,0.049l2.919,1.335l2.78-0.682l3.794-0.16
		l3.979,1.6l2.744-0.297l0.497-3.037l2.933-0.765l1.26,1.516l0.441,2.945l1.424,1.213l-8.386,53.609
		C243.438,194.689,155.715,177.035,148.722,175.531z"/>
	<path id="UT_1_" fill="none" stroke="#000" stroke-width="0.5" d="M259.499,310.105
		l-83.749-11.872l20.587-112.541l46.78,8.745l-1.485,10.63l-2.312,13.173l7.808,0.929l16.407,1.805l8.211,0.855L259.499,310.105z"/>
	
		<path id="AZ_1_" fill="none" stroke="#000" stroke-width="0.5" d="
		M144.911,382.629l-2.627,2.158l-0.323,1.455l0.485,0.97l18.915,10.67l12.125,7.598l14.711,8.568l16.813,10.022l12.286,2.425
		l24.951,2.705l17.256-119.127l-83.736-11.917l-3.092,16.412l-1.606,0.016l-1.714,2.629l-2.515-0.114l-1.257-2.743l-2.743-0.344
		l-0.915-1.143h-0.915l-0.915,0.571l-1.943,1.029l-0.114,6.973l-0.229,1.715l-0.572,12.574l-1.486,2.172l-0.572,3.314l2.744,4.916
		l1.257,5.83l0.8,1.028l1.029,0.571l-0.114,2.286l-1.601,1.372l-3.429,1.715l-1.943,1.943l-1.486,3.658l-0.572,4.915l-2.858,2.743
		l-2.058,0.687l0.136,0.829l-0.457,1.715l0.457,0.801l3.658,0.571l-0.572,2.743l-1.486,2.172L144.911,382.629z"/>
	<path id="NV_1_" fill="none" stroke="#000" stroke-width="0.5" d="M196.393,185.575
		l-23.639,128.822l-1.833,0.35l-1.573,2.406l-2.373,0.011l-1.472-2.744l-2.619-0.378l-0.771-1.107l-1.038-0.055l-2.778,1.645
		l-0.31,6.785l-0.362,5.777l-0.349,8.593l-1.447,2.09l-2.438-1.074l-69.08-104.201l18.989-67.585L196.393,185.575z"/>
	
		<path id="OR_1_" fill="none" stroke="#000" stroke-width="0.5" d="
		M148.722,175.531l8.85-34.802l1.051-4.229l2.354-5.623l-0.615-1.163l-2.515-0.046l-1.281-1.671l0.457-1.464l0.503-3.247
		l4.458-5.486l1.829-1.1l1.143-1.144l1.486-3.565l4.047-5.669l3.565-3.862l0.229-3.451l-3.269-2.469l-1.784-4.643l-12.664-3.612
		l-15.089-3.544l-15.432,0.114l-0.458-1.371l-5.487,2.058l-4.458-0.572l-2.4-1.6l-1.258,0.686l-4.687-0.229l-1.715-1.372
		l-5.258-2.058l-0.8,0.114l-4.344-1.486l-1.943,1.829l-6.173-0.343l-5.944-4.115l0.686-0.8l0.229-7.773l-2.287-3.887l-4.115-0.571
		l-0.686-2.515l-2.354-0.467l-5.798,2.059l-2.263,6.467L61.3,78.932l-3.233,6.467l-5.011,14.064l-6.466,13.579l-8.083,12.609
		l-1.94,2.91l-0.809,8.568l0.386,12.08L148.722,175.531z"/>
	
		<path id="WA_1_" fill="none" stroke="#000" stroke-width="0.5" d="
		M102.073,7.612l4.365,1.455l9.7,2.748l8.568,1.94l20.046,5.658l22.956,5.658l15.223,3.207l-13.632,63.586l-12.445-3.525
		l-15.508-3.571l-15.229,0.033l-0.456-1.345l-5.599,2.18l-4.595-0.737l-2.147-1.584l-1.313,0.658l-4.735-0.14l-1.699-1.35
		l-5.263-2.112l-0.735,0.146l-4.389-1.524l-1.893,1.817l-6.266-0.299L81.1,76.386l0.779-0.933L82,67.776l-2.282-3.839l-4.115-0.607
		l-0.678-2.511l-2.275-0.457l-3.555,1.23l-2.264-3.219l0.324-2.91l2.748-0.323l1.617-4.041l-2.587-1.132l0.162-3.719l4.365-0.646
		l-2.749-2.748l-1.455-7.113l0.646-2.91v-7.921l-1.778-3.233l2.263-9.376l2.102,0.484l2.425,2.91l2.749,2.587l3.233,1.939
		l4.527,2.102l3.071,0.647l2.91,1.454l3.395,0.971l2.263-0.162v-2.425l1.293-1.132l2.102-1.293l0.323,1.132l0.324,1.778
		l-2.264,0.484l-0.323,2.102l1.778,1.455l1.132,2.425l0.646,1.94l1.455-0.162l0.162-1.293l-0.97-1.294l-0.485-3.232l0.808-1.778
		l-0.646-1.455v-2.264l1.778-3.557l-1.132-2.586l-2.425-4.85l0.323-0.809L102.073,7.612z M92.617,13.591l2.021-0.162l0.485,1.374
		l1.536-1.616h2.344l0.809,1.535l-1.536,1.698l0.646,0.808l-0.728,2.021l-1.374,0.403c0,0-0.889,0.081-0.889-0.242
		s1.455-2.587,1.455-2.587l-1.698-0.565l-0.323,1.455l-0.728,0.646l-1.536-2.263L92.617,13.591z"/>
	
		<path id="CA_1_" fill="none" stroke="#000" stroke-width="0.5" d="
		M144.694,382.198l3.94-0.488l1.486-2.012l0.544-2.94l-3.551-0.591l-0.514-0.668l0.478-2.032l-0.16-0.59l1.923-0.619l3.042-2.833
		l0.582-4.995l1.38-3.402l1.943-2.166l3.519-1.59l1.654-1.604l0.069-2.109l-0.994-0.579l-1.023-1.073l-1.155-5.849l-2.685-4.83
		l0.566-3.505l-2.42-1.029L84.258,232.514l18.902-67.602l-67.08-15.698l-1.507,4.733l-0.162,7.437l-5.173,11.801l-3.072,2.587
		l-0.323,1.132l-1.778,0.808l-1.455,4.203l-0.809,3.233l2.749,4.203l1.616,4.203l1.132,3.557l-0.323,6.467l-1.778,3.071
		l-0.646,5.819l-0.97,3.719l1.778,3.88l2.748,4.526l2.264,4.85l1.293,4.042l-0.323,3.232l-0.323,0.485v2.102l5.658,6.305
		l-0.485,2.425l-0.646,2.264l-0.646,1.939l0.162,8.245l2.102,3.718l1.94,2.587l2.748,0.485l0.97,2.748l-1.132,3.557l-2.102,1.616
		h-1.131l-0.809,3.88l0.485,2.91l3.233,4.364l1.617,5.335l1.455,4.688l1.293,3.071l3.395,5.819l1.455,2.587l0.485,2.91l1.617,0.97
		v2.425l-0.809,1.94l-1.778,7.112l-0.485,1.94l2.425,2.748l4.203,0.485l4.527,1.778l3.88,2.102h2.91l2.91,3.071l2.586,4.85
		l1.131,2.264l3.88,2.102l4.85,0.808l1.455,2.102l0.647,3.233l-1.455,0.646l0.323,0.971l3.233,0.808l2.748,0.162l3.16-1.687
		l3.88,4.203l0.808,2.263l2.586,4.203l0.323,3.233v9.376l0.485,1.778l10.023,1.455l19.723,2.748L144.694,382.198z M56.559,338.481
		l1.293,1.536l-0.162,1.293l-3.233-0.08l-0.566-1.213l-0.646-1.455L56.559,338.481z M58.499,338.481l1.212-0.646l3.557,2.102
		l3.072,1.213l-0.889,0.646l-4.527-0.242l-1.616-1.617L58.499,338.481z M79.192,358.284l1.778,2.345l0.808,0.97l1.536,0.565
		l0.566-1.455l-0.97-1.778l-2.667-2.021l-1.051,0.162V358.284z M77.737,366.934l1.778,3.152l1.212,1.939l-1.455,0.243l-1.293-1.213
		c0,0-0.728-1.455-0.728-1.859s0-2.183,0-2.183L77.737,366.934z"/>
</g>
<path id="US_outline" fill="none" stroke="#000" stroke-width="1.5" d="M772.362,571.547l2.425-0.646l1.293-0.242l1.455-2.344
	l2.344-1.617l1.294,0.485l1.697,0.323l0.404,1.051l-3.476,1.213l-4.203,1.454l-2.345,1.213L772.362,571.547z M785.861,566.536
	l2.505-1.536l3.396-1.939l4.364-4.203l3.855-6.264l-5.717,2.707l-3.88,0.162l-1.454,1.616l-2.426,0.97l-1.294-0.484l-1.131-0.97
	l-0.324-2.91l-0.808-3.396l-3.396-5.173l-3.556-2.264l-3.88-0.322l-0.809,1.293l-3.071-4.365l-0.647-3.557l-2.586-4.042
	l-1.777-1.131l-1.617,2.102l-1.778-0.323l-2.103-5.012l-2.91-3.88l-2.909-5.334l-2.587-3.071l-3.556-3.719l2.103-2.426l0.047-0.081
	l-0.166-0.171l0.212,0.095l3.139-5.339l-0.162-1.616l-2.369-0.508l-0.379,1.291l-0.192-0.397l-1.746,5.434l-0.81,0.485l-1.778-4.042
	l-1.293-4.85l-0.323-2.748l1.455-4.688v-9.537l-3.071-3.719l-1.294-3.071l-5.173-1.293l-1.939-0.647l-1.617-2.586l-3.395-1.617
	l-1.132-3.395l-2.748-0.97l-2.425-3.719l-4.203-1.455l-2.91-1.454h-2.587l-4.041,0.808l-0.163,1.941l0.81,0.969l-0.485,1.132
	l-3.071-0.162l-3.718,3.557l-3.557,1.94h-3.88l-3.233,1.293l-0.322-2.748l-1.617-1.94l-2.911-1.131l-1.616-1.455l-8.083-3.88
	l-7.598-1.778l-4.365,0.646l-5.981,0.485l-5.981,2.102l-2.861,0.504l-5.549,2.576l-2.748-0.323l2.748-1.941v-0.969l-3.071-5.981
	l-2.264-0.646l-1.455,4.365l-1.293,2.748l-0.646-0.162h-2.714l-0.037,0.186h-5.172l-1.455-0.809l-2.102-0.323l-6.79,1.939
	l-1.778-0.808l-2.587,4.203l-1.329,0.938L608.29,469l-1.778,1.939l0.971,1.778l3.071,0.646l0.646-2.586l1.94-2.102l1.455-0.162
	l0.323,2.748l1.293,1.94l-1.778,3.071h-1.093l-0.523,2.102l-2.263-0.323l-1.133,2.748l3.233,2.264l5.819,0.809l3.395,2.748h1.294
	v1.455l-2.263,3.071l-1.132-0.97h-2.91l-0.97-1.455l-4.042-1.94l-0.129-0.024c-0.339-0.063-3.324-0.622-4.074-0.622
	c-0.039,0-0.075-0.007-0.109-0.021l-0.067-0.026l-0.051-0.051c-0.077-0.081-0.386-0.475-0.433-1.878l-0.084-2.531l-1.681,1.921
	l-2.101,0.484l0.161,1.454l-0.809,1.617l2.102,0.324l-0.809,0.484l-2.264,3.396l-3.395,1.293l-0.646-0.646l2.263-0.809l-0.808-2.911
	l-1.294-0.968l-1.777,1.454l-2.587,0.646l-0.97,2.426l-3.557,1.293l-8.406-3.556l-1.616-1.617l1.293-0.809l0.809-1.616l-1.778-1.778
	l-4.526-0.323l-0.324-2.262l-1.454-2.427l-3.233-0.646l-1.778,0.97l-1.778-1.453l-0.521,0.171c-0.693,0.229-1.879,0.615-2.44,0.77
	l-0.381,0.104l-0.231,0.376l-0.448,0.91l0.796,0.479l2.095,1.23l2.586-0.484l3.233,1.131l-0.809,2.102l-3.233-0.97l-3.233-1.132
	l-3.718,1.455l-6.467-1.132l-10.346-3.557l-12.113-0.207l-4.59,1.489l0.007,0.074l-5.666,1.585l-9.861,4.526l-0.971,1.94
	l-2.586,1.939l-2.102,1.455l-1.294,0.808l-5.657,5.335l-2.749,2.103l-5.336,3.233l-5.656,2.425l-6.305,3.395l-1.778,1.455
	l-5.821,3.557l-3.395,0.647l-3.88,5.496l-4.042,0.322l-0.969,1.941l2.263,1.938l-1.455,5.497l-1.294,4.525l-1.131,3.881
	l-0.809,4.526l0.809,2.425l1.778,6.951l0.97,6.144l1.778,2.748l-0.971,1.456l-3.071,1.938l-5.658-3.88l-5.496-1.131l-1.293,0.484
	l-3.234-0.646l-4.203-3.071l-5.173-1.132l-7.598-3.395l-2.102-3.88l-1.293-6.467l-3.233-1.939l-0.646-2.264l0.646-0.646l0.323-3.394
	l-1.293-0.648l-0.646-0.97l1.293-4.364l-1.617-2.264l-3.233-1.293l-3.395-4.365l-3.557-6.628l-4.203-2.587l0.162-1.939
	l-5.335-12.286l-0.808-4.203l-1.778-1.94l-0.162-1.455l-5.981-5.333l-2.587-3.073v-1.133l-2.586-2.101l-6.789-1.131l-7.437-0.646
	l-3.071-2.264l-4.527,1.778l-3.556,1.455l-2.264,3.232l-0.97,3.719l-4.365,6.144l-2.425,2.425l-2.587-0.971l-1.778-1.131
	l-1.94-0.647l-3.88-2.263v-0.646l-1.778-1.94l-5.173-2.102l-7.437-7.76l-2.263-4.688v-8.083l-3.233-6.467l-0.485-2.748l-1.617-0.97
	l-1.132-2.102l-5.012-2.102l-1.293-1.617l-7.113-7.921l-1.292-3.233l-4.689-2.264l-1.455-4.364l-2.586-2.909l-1.393-0.35
	l-29.776-2.881l-1.293,10.022l-15.463-1.989l0.003-0.021l-1.028-0.115l-23.845-2.586l-12.286-2.425l-16.813-10.022l-14.711-8.568
	l-12.124-7.598l-18.915-10.67l-0.485-0.97l0.323-1.455l3.074-2.525l-14.508-1.414l-19.723-2.748l-10.023-1.455l-0.485-1.778v-9.427
	l-0.323-3.183l-2.586-4.203l-0.808-2.263l-3.88-4.203l-3.16,1.687l-2.748-0.162l-3.233-0.808l-0.323-0.971l1.455-0.646l-0.647-3.233
	l-1.455-2.102l-4.85-0.808l-3.88-2.102l-1.131-2.264l-2.586-4.85l-2.91-3.071h-2.91l-3.88-2.102l-4.527-1.778l-4.203-0.485
	l-2.425-2.748l2.263-9.053l0.809-1.94v-2.425l-1.617-0.97l-0.485-2.91l-1.455-2.587l-3.395-5.819l-1.293-3.071l-1.456-4.689
	l-1.616-5.334l-3.233-4.364l-0.485-2.91l0.809-3.88h1.131l2.102-1.616l1.132-3.557l-0.97-2.748l-2.749-0.485l-1.94-2.587
	l-2.102-3.718l-0.162-8.245l0.647-1.939l0.647-2.264l0.485-2.425l-5.659-6.305v-2.102l0.323-0.485l0.323-3.232l-1.293-4.042
	l-2.264-4.85l-2.748-4.526l-1.778-3.879l0.97-3.72l0.646-5.819l1.778-3.071l0.323-6.467l-1.132-3.557l-1.616-4.203l-2.749-4.203
	l0.809-3.233l1.455-4.203l1.779-0.808l0.323-1.132l3.072-2.587l5.173-11.801l0.162-7.437l1.564-4.915l-0.38-11.903l0.809-8.568
	l1.94-2.91l8.083-12.609l6.466-13.579l5.012-14.064l3.233-6.467l3.233-10.022l2.263-6.467l2.317-0.823l-2.283-3.247l0.324-2.91
	l2.748-0.323l1.617-4.041l-2.587-1.132l0.162-3.719l4.365-0.647l-2.749-2.748l-1.455-7.113l0.646-2.91v-7.921l-1.778-3.233
	l2.263-9.376l2.102,0.484l2.425,2.91l2.749,2.587l3.232,1.939l4.528,2.102l3.071,0.647l2.911,1.455l3.394,0.971l2.263-0.163v-2.424
	l1.293-1.131l2.266-1.395l1.775-0.249l-0.105,0.399l1.884-3.768l-1.132-2.586l-2.425-4.85l0.323-0.809l1.132-0.808l4.365,1.455
	l9.7,2.748l8.568,1.941l20.046,5.658l22.956,5.659l15.221,3.207l-0.005,0.022l0.998,0.25l12.61,2.358l0.001-0.008l0.31,0.066
	l0.226,0.042l0.366,0.083l31.818,6.741l18.429,3.396l32.332,5.334l29.26,4.042l29.261,3.557l30.708,2.811l0.967,0.125l22.034,2.049
	l26.512,1.293l18.591,0.647l28.365,0.558l30.521,0.036l0.323-8.245l0.646-0.161l2.264,0.484l1.939,0.809l0.809,5.497l1.455,6.143
	l1.616,1.616h4.85l0.324,1.455l6.305,0.323v2.102h4.85l0.323-1.292l1.132-1.132l2.263-0.647l1.294,0.97h2.909l3.88,2.587
	l5.336,2.425l2.423,0.485l0.486-0.97l1.455-0.485l0.484,2.911l2.588,1.292l0.484-0.485l1.293,0.162v2.102l2.586,0.969h3.072
	l1.616-0.809l3.233-3.232l2.587-0.485l0.808,1.778l0.719,1.907l1.706-1.421l8.892-0.324l2.082,3.596l1.057-1.609l4.439-0.37
	l-0.211,0.786l1.713,0.923l1.185-1.333l2.172-0.8l5.373-3.887l2.286-0.571l0.457,0.457l-5.144,5.144l-3.315,1.943l-2.058,0.916
	l-2.313-1.652l-4.696,2.19l-9.245,4.062l-4.775,2.007l-3.071,2.587l-2.425,3.556l-2.263,3.88l-1.779,0.808l-4.526,5.012
	l-1.293,0.161l-5.748,3.663l4.999,0.834l2.91-0.647l7.437-3.233l2.91-1.94l2.102-0.809l1.939,1.455l-1.132,1.132l-1.939,3.071
	l-1.124,3.375l3.226-1.758l1.132-0.162l1.334-0.296l0.646,1.131l1.198,0.162l0.606-0.448l0.878-0.71l2.75-0.809l3.556-2.264v-0.97
	l0.647-0.646l5.981-0.969l2.425-1.94l4.363-2.102l0.163-1.293l1.939-2.91l1.778-0.807l1.294-1.779l2.263-2.263l4.365-2.425
	l4.688-0.485l1.132,1.132l-0.323,0.97l-3.718,0.971l-1.455,3.071l-2.264,0.809l-0.484,2.424l-2.425,3.232l-0.437,3.487l5.447-4.457
	l1.294,1.294h2.263l3.233,0.97l1.455,1.132l1.455,3.071l2.748,2.748l3.88-0.162l1.455-0.97l1.617,1.293l1.616,0.485l1.293-0.809
	h1.132l1.616-0.97l4.042-3.557l3.396-1.131l6.627-0.325l4.526-1.938l2.587-1.293l1.455,0.161v5.847l3.395,0.943l1.939-0.485
	l6.144-1.616l1.132-1.132l1.455,0.485v6.951l3.232,3.072l1.458,0.727l0.809-2.831l1.616-0.162l2.184-0.241
	c0.284,0.373,1.102,1.415,1.462,1.742l0.091,0.082l0.106,0.058c0.017,0.01,0.286,0.267,0.36,1.593l-1.293,1.213l-3.234-0.162
	l-0.157-0.605l-2.107,0.527l-0.809-0.323l-3.718-0.486l-2.102,0.647l-2.264-0.162l-3.233,1.455h-1.778l-5.82-1.293l-5.172,0.162
	l-1.94,2.586l-6.951,0.646l-2.425,0.809l-1.132,3.071l-1.293,1.132l-0.485-0.161l-1.455-1.617l-4.526,2.424h-0.646l-1.582-2.26
	l-2.298,5.17l-0.97,4.042l-3.67,8.075l-0.493,1.171l-1.777,1.616l-2.102,4.688l-1.293,2.425l0.161,1.783l1.429,0.309l0.395-0.621
	l0.763-1.309l1.955-0.808l0.809-2.264l1.939-1.778l2.749-4.041l4.203-6.305l0.808-0.485l0.323,0.97l-0.161,2.263l-2.91,6.789
	l-2.748,5.658l0.452,4.171l-0.646,2.586l0.809,1.293l-0.162,2.748l-1.939,2.425l-0.485,1.778l0.646,3.557l0.648,3.396l-1.455,2.586
	l-0.809,2.91l-0.971,3.071l1.133,2.425l0.646,6.144l1.179,4.526l0.067,3.163l-0.021,0.001l0.004,0.98l0.191,4.511l1.455,2.586
	l1.616,1.778l1.293,3.718l0.84,2.693l0.154,0.525l3.399,0.985l1.453,0.97l1.133-0.323l2.102-1.94l2.753-1.573l3.212-3.04
	l0.323-2.748l2.425-5.173l0.97-5.981l0.809-4.688l-1.455-4.85l-2.91-6.467l-3.557-5.981l0.323-2.748l0.323-0.809l0.809-2.425
	l-0.485-1.13l-0.646-4.689l1.617-4.042l1.131-6.143l-0.808-2.425v-1.132l2.262-0.485l0.647-2.585l-0.646-0.809l0.162-0.97
	l1.778-1.94l2.748-1.132l0.97-4.203l1.94-0.808l1.516,1.516l-0.889-0.028l-0.466,1.745l-1.293,2.425v4.746l4.203-2.483l-0.323-5.496
	l-0.175-0.875l-0.262-0.008l0.436-2.835l1.456-1.778l2.586-0.323l3.854-1.207l-3.853-0.895l-0.972-0.323l-0.323-3.557l2.91-2.262
	l2.909-1.779l3.072,2.262l0.969,0.487l0.647-0.647h2.748l5.497,3.395l4.526,1.455h2.586l1.294,2.587l2.425,2.263l-0.162,1.617
	l-2.83-0.566l1.214,3.152l1.293,0.809l1.617,2.264l0.323,10.022l-2.425,1.617l-0.647,2.586l-0.808,3.396l-3.395,1.292l-0.049,0.632
	c-0.072,0.937-0.255,3.214-0.395,4.143l-0.073,0.49l0.346,0.355c0.428,0.44,1.385,1.084,2.109,1.493l1.455,0.646l1.133-0.646
	l2.748-3.719l1.939-5.012l3.88-1.778l1.617-1.131l2.586,1.778l2.425,3.232l2.264,9.054l3.233,8.244l0.323,9.538l-1.94,0.97
	l-0.808-0.161l-0.613-2.44l-2.136,4.218l-0.222,3.557l-1.091,0.343l-1.597,1.597l0.222,5.052l-2,1.738l-2.944,5.208l5.584-0.802
	l2.381,1.351l2.587,1.455l5.173-0.646l3.394,3.071l2.103-0.162l5.497-2.586l2.908-0.485l3.234-0.808l4.042-3.88l3.395-3.719
	l3.88-2.263l7.199-4.79l3.145-2.25l1.294-0.485l5.344-5.05l-0.001-0.01l0.021-0.017l0.011,0.119l2.688-2.358l0.97-1.615l1.778-1.132
	l1.94-1.778l0.484-1.616l2.102-2.748l1.131-0.97l-0.159-0.97l-1.295-3.072l-1.778-0.162l-1.939-6.143l2.91-1.778l4.364-1.455
	l4.042-1.293l3.233-0.485l6.305-0.162l1.939,1.294l1.616,0.162l2.102-1.293l2.586-1.132l5.174-0.484l2.102-1.778l1.778-3.233
	l1.617-1.94h2.102l1.939-1.131l0.162-2.264l-1.455-2.101l-0.323-1.456l1.132-2.102v-1.455h-1.778l-1.778-0.808l-0.809-1.132
	l-0.161-2.587l5.819-5.496l0.646-0.809l1.455-2.911l2.91-4.526l2.749-3.718l2.101-2.425l2.415-1.826l3.081-1.247l5.497-1.292
	l3.233,0.162l4.526-1.455l7.98-2.185l0.707-0.157l24.903-6.346l0.047-5.186l1.455-1.939l1.57,1.57l0.693-1.733l1.31,0.007
	l0.987-0.079l1.516,0.41v-2.586l1.309-4.496l2.587-4.689l1.455-4.042l-1.94-2.424v-5.982l0.809-0.969l0.809-2.749l-0.162-1.455
	l-0.161-4.85l1.778-4.85l2.909-8.892l2.102-4.203h1.295l1.292,0.161v1.132l1.293,2.263l2.747,0.646l0.81-0.807v-0.971l4.042-2.91
	l1.778-1.779l1.454,0.163l5.981,2.425l1.94,0.97l9.053,29.907h5.981l0.809,1.94l0.162,4.849l1.616,1.258l0.711-0.548l3.815-0.225
	l1.939,2.102l2.264,3.719v1.939l-2.102,4.688l-1.94,0.646l-3.395,3.071l-4.85,5.497h-2.559l0.622,1.372l-0.891,0.809l-0.049,0.359
	c-0.044,0.313-0.186,1.356-0.192,1.641c-0.002,0.052-0.01,0.165-0.334,0.226c-0.111,0.021-0.307,0.045-0.623,0.045
	c-0.183,0-0.322-0.008-0.334-0.009l-1.602-1.67l-1.313,1.753l-0.485,2.748l-1.94-0.161v-1.618l-0.325-1.292l-1.452,0.323
	l-1.778-3.233l-2.103,1.292l1.295,1.456l0.322,1.131l-0.809,1.293l0.354,3.365l2.883-2.882l1.376,1.052l0.564,2.424l-1.697,0.889
	l-1.277-2.031l-1.842,0.632l0.125,1.24l-1.616,2.586l-2.91,0.484l-0.323,2.91l-5.336,3.071l-1.293,0.485l-1.616-1.455l-3.071,3.557
	l0.97,3.233l-1.455,1.293l-0.161,4.365l-1.124,6.257l-0.106-0.05l-0.981,2.962l-0.713,0.885l2.946,4.499l-2.425,5.173l-0.324,1.455
	l1.94,2.586l1.132-0.808h1.778l2.263,2.586l3.88,5.981l3.557,0.485l2.263-0.97l1.779-1.778l-0.808-2.749l-2.103-1.617l-1.455,0.809
	l-0.97-1.293l0.484-0.485l2.102-0.161l1.778,0.808l1.94,2.425l0.97,2.91l0.323,2.425l-4.203,1.456l-3.88,1.94l-3.014,3.515h3.227
	l1.829,1.486l-2.4,1.028l-2.173,1.029l-2.284-1.83l-1.004,0.753v-0.972l2.425-1.454l0.484-1.779l-0.809-3.072l-2.909,1.456
	l-0.809,1.454l0.485,2.263l-2.069,1.002l-0.021-0.036l-0.854,0.421l-2.198,1.191l-1.294-0.161l-1.132,1.778l-2.425,1.939
	l-3.334,1.112l-7.372,3.004l-5.173,1.132l-2.748,1.455l-0.809-0.646l-1.94,2.101l-3.557,3.234l-4.341,3.969l1.654,3.485l2.549-2.914
	l1.132-0.646l1.616,0.646l2.264,0.162l7.921-3.88l2.91-2.749l1.293-1.454l4.204,1.616l-3.396,3.557l-10.993,8.244l-2.586,0.971
	l-5.82,1.939l-4.041,1.132l-0.645-0.292l-4.413,4.075l3.813-0.449l1.131-0.808l1.617,3.394l0.161,9.376l0.647,1.132l-1.132,5.496
	l-3.072,6.466l-2.748,4.042l-0.808,4.85l-2.102,2.425h-0.808l-0.324-2.748l0.808-0.971l-0.161-1.454l-4.042-0.648l-5.02-2.343
	l1.895,3.479l1.778,4.688l3.558,2.425l0.969-0.485l2.26,7.371l0.017-0.003l0.436,4.908l-2.008,4.024l-0.242,0.102l-0.8,3.341
	l-2.92,3.778l-0.418,4.586l0.462,3.391l-1.828,4.979l-2.164,1.916l-1.471-4.64l0.446-5.45l1.587-4.183l0.767-3.099l-0.146-1.953
	l-1.285-0.508l-3.236-4.184l-1.495,0.748l0.218,0.828l0.715,2.303c0.67,2.532,0.724,3,0.728,3.067c0,0.165-0.275,0.602-0.89,1.216
	l-1.132-1.858l-0.161-1.779l-1.803-3.992l-1.677-0.209l-2.586-3.395l0.471-4.952l-1.764,0.587l-0.324-3.557l2.102-0.97l-0.483-5.496
	l-1.779-0.323l-0.323-1.132l2.025-5.823l-3.649,2.433l-0.104,0.343c-0.112,0.372-0.374,1.286-0.374,1.754
	c0,0.048-0.024,0.497-0.884,1.587l-0.549,0.697l1.271,1.272l0.162,2.102l-1.293,5.334l2.102,5.497l2.425,2.102v1.779l1.454,2.101
	l-1.071,2.323l0.665,2.874l3.19,0.402l0.868,1.2l-0.439,4.689l1.374,1.103l-0.479,1.931l1.229,0.79l-0.222,1.385l-2.713-0.097
	l0.114,1.595l0.404,0.3l1.87,1.265l0.12,1.411l1.774,1.786l0.491,2.523l-2.55,1.38l1.568,1.496l5.802-1.686l3.581,5.965l0.029-0.007
	l2.085,4.916l3.557,6.467l2.425,2.425l0.414,1.452l1.206-0.403l2.748,5.497l0.404,4.445l-0.162,3.395l-3.395,1.536l-2.829,2.425
	l-1.131,1.213l-1.052-0.162l2.587-2.507l3.152-2.585l1.535-0.647l0.162-2.021l-0.646-6.143l-1.455-2.344l-0.32-0.927l-2.135,0.144
	l-0.377,4.906l-2.587,1.293l-0.646,2.102l-1.293,2.91l-3.719,1.617l-3.859-0.517l1.435,2.294l-1.939,6.305h4.203l0.646,1.616
	l2.263-2.263l1.294-0.484l-1.94,3.556l-3.071,4.851h-1.293l-1.132-0.485l-2.748,0.646l-5.174,2.425l-6.465,5.335l-3.396,4.688
	l-1.939,6.467l-0.485,2.425l-4.688,0.484l-5.257,1.288l-5.436,5.476l-2.587,6.143l-0.484,6.305l-1.617,0.808l-1.132,2.749
	l-2.424,0.647l-2.103,3.556l-2.748,2.748l-2.263,3.395l-1.617,0.809l-3.557,3.395l-2.911,0.162l0.972,3.233l-5.012,5.496
	l-2.076,1.278l0.702,1.861l-3.335,6.245l0.485,2.586l-1.455,4.203l-2.264,10.023l0.77,6.256l2.21,7.137l3.73,9.742l5.334,9.376
	l3.719,6.305l4.85,5.497l4.041,3.718l1.617,2.91l-1.132,1.292l-0.809,1.295l2.909,7.436l2.911,2.91l2.587,5.335l3.557,5.819
	l4.526,8.244l1.292,7.599l0.486,11.963l0.646,1.778l-0.323,3.396l-2.426,1.292l0.324,1.942l-0.647,1.939l0.134,1.004l1.938,0.191
	l0.438-1.277l0.728-0.485l-0.161,3.395l-0.971,1.697l-2.505,6.629l-3.718,3.879l-5.336,4.204l-2.748,2.102L785.861,566.536z
	 M100.592,27.971l1.895-0.572l-0.252-1.681l1.342-2.954l-4.738,1.014l-0.323,2.101l1.778,1.456L100.592,27.971z M77.979,371.056
	c-0.707-1.414-0.728-1.818-0.728-1.859v-2.183l0.485-0.08l1.778,3.152l1.212,1.939l-1.455,0.243L77.979,371.056z M81.778,361.599
	l-0.808-0.97l-1.778-2.345v-1.212l1.051-0.162l2.667,2.021l0.97,1.777l-0.566,1.455L81.778,361.599z M60.924,341.553l-2.845-2.848
	l1.633-0.871l3.557,2.102l3.072,1.213l-0.89,0.646L60.924,341.553z M54.458,341.23l-0.566-1.213l-0.646-1.455l3.313-0.081
	l0.601,0.715l0.852-0.454l-0.321,2.568L54.458,341.23z M899.623,173.254l2.172-0.687l0.458-1.714l1.028,0.114l1.029,2.286
	l-1.258,0.457l-3.886,0.114L899.623,173.254z M96.588,19.662c-0.216,0-0.352-0.024-0.427-0.045c-0.188-0.051-0.229-0.139-0.23-0.205
	l-0.053-2.154l-1.241,1.102l-1.536-2.263l-0.485-2.506l2.021-0.162l0.485,1.374l1.536-1.616h2.344l0.809,1.535l-1.536,1.698
	l0.646,0.808l-0.728,2.021l-1.372,0.403C96.748,19.658,96.675,19.662,96.588,19.662z"/>
<g id="Red_markers" fill="#FF0000" stroke="#000000" stroke-width="2">
	<circle cx="82" cy="45.5" r="10"/>
	<circle cx="181" cy="73" r="10"/>
	<circle cx="266.5" cy="93.5" r="10"/>
	<circle cx="319" cy="83" r="10"/>
	<circle cx="329" cy="113.5" r="10"/>
	<circle cx="369.5" cy="85.5" r="10"/>
	<circle cx="424" cy="87.5" r="10"/>
	<circle cx="475.5" cy="107" r="10"/>
	<circle cx="411" cy="148" r="10"/>
	<circle cx="348" cy="185" r="10"/>
	<circle cx="410.5" cy="185.5" r="10"/>
	<circle cx="463.5" cy="167" r="10"/>
	<circle cx="441.5" cy="216" r="10"/>
	<circle cx="388.5" cy="235" r="10"/>
	<circle cx="494" cy="246.5" r="10"/>
	<circle cx="621.5" cy="209" r="10"/>
	<circle cx="740.5" cy="195.5" r="10"/>
	<circle cx="839.5" cy="121.5" r="10"/>
	<circle cx="896.5" cy="55.5" r="10"/>
	<circle cx="879" cy="152.5" r="10"/>
	<circle cx="866.5" cy="182.5" r="10"/>
	<circle cx="843" cy="219.5" r="10"/>
	<circle cx="809.5" cy="259" r="10"/>
	<circle cx="819" cy="287.5" r="10"/>
	<circle cx="816" cy="349" r="10"/>
	<circle cx="772.5" cy="384" r="10"/>
	<circle cx="710" cy="404.5" r="10"/>
	<circle cx="781.5" cy="496.5" r="10"/>
	<circle cx="790.5" cy="562.5" r="10"/>
	<circle cx="504" cy="276" r="10"/>
	<circle cx="533.5" cy="276.5" r="10"/>
	<circle cx="545" cy="296" r="10"/>
	<circle cx="566" cy="316.5" r="10"/>
	<circle cx="597.5" cy="317.5" r="10"/>
	<circle cx="586" cy="346.5" r="10"/>
	<circle cx="629" cy="348" r="10"/>
	<circle cx="276" cy="143" r="10"/>
	<circle cx="191.333" cy="163" r="10"/>
	<circle cx="456.5" cy="455" r="10"/>
	<circle cx="415" cy="414.5" r="10"/>
	<circle cx="332" cy="392" r="10"/>
	<circle cx="311" cy="400.5" r="10"/>
	<circle cx="101.021" cy="315.5" r="10"/>
	<circle cx="71.167" cy="315.964" r="10"/>
	<circle cx="80.833" cy="287.334" r="10"/>
	<circle cx="40.167" cy="286.667" r="10"/>
	<circle cx="41.5" cy="239.5" r="10"/>
</g>
</svg>
