<?xml version="1.0" encoding="UTF-8" standalone="no"?>
<!DOCTYPE svg PUBLIC "-//W3C//DTD SVG 1.1//EN" "http://www.w3.org/Graphics/SVG/1.1/DTD/svg11.dtd">
<svg xmlns="http://www.w3.org/2000/svg" xmlns:xlink="http://www.w3.org/1999/xlink" width="620" height="420">
  <defs>
    <radialGradient id="grad1" cx="50%" cy="50%" r="50%" fx="50%" fy="50%">
      <stop offset="0%" style="stop-color:rgb(255,255,255);" />
      <stop offset="100%" style="stop-color:rgb(192,225,230);" />
    </radialGradient>
    <marker id="arr1" viewBox="0 0 8 8" refX="7" refY="4" markerUnits="strokeWidth" markerWidth="8" markerHeight="8" orient="auto" fill="black" stroke="black">
      <path d="M 0,0 l 8,4 l -8,4" />
    </marker>
  </defs>
  <rect x="65" y="25" width="120" height="100" style="fill:lightgrey;stroke:none;" />
  <rect x="60" y="20" width="120" height="100" style="fill:#cdffcc;stroke:black;stroke-width:1;" />
  <text x="120" y="41" font-size="14" font-family="Arial,sans-serif" text-anchor="middle" font-weight="600">Interface<tspan x="120" y="57">Data</tspan><tspan x="120" y="73">Processing</tspan><tspan x="120" y="89">Segment</tspan><tspan x="120" y="105">(IDPS)</tspan></text>
  <rect x="20" y="140" width="90" height="80" style="fill:lightgrey;stroke:none;" />
  <rect x="15" y="135" width="90" height="80" style="fill:#cdffcc;stroke:black;stroke-width:1;" />
  <text x="60" y="154" font-size="14" font-family="Arial,sans-serif" text-anchor="middle">Mission<tspan x="60" y="170">Management</tspan><tspan x="60" y="186">Center</tspan><tspan x="60" y="202">(MMC)</tspan></text>
  <rect x="55" y="240" width="80" height="80" style="fill:lightgrey;stroke:none;" />
  <rect x="50" y="235" width="80" height="80" style="fill:#cdffcc;stroke:black;stroke-width:1;" />
  <text x="90" y="270" font-size="14" font-family="Arial,sans-serif" text-anchor="middle">Product<tspan x="90" y="286">Developers</tspan></text>
  <rect x="55" y="330" width="80" height="80" style="fill:lightgrey;stroke:none;" />
  <rect x="50" y="325" width="80" height="80" style="fill:#cdffcc;stroke:black;stroke-width:1;" />
  <text x="90" y="344" font-size="14" font-family="Arial,sans-serif" text-anchor="middle">Integrated<tspan x="90" y="360">Program</tspan><tspan x="90" y="376">Office</tspan><tspan x="90" y="392">(IPO)</tspan></text>
  <rect x="480" y="60" width="100" height="80" style="fill:lightgrey;stroke:none;" />
  <rect x="475" y="55" width="100" height="80" style="fill:#cdffcc;stroke:black;stroke-width:1;" />
  <text x="525" y="95" font-size="14" font-family="Arial,sans-serif" text-anchor="middle" font-weight="600">CUSTOMERS</text>
  <rect x="490" y="200" width="110" height="90" style="fill:lightgrey;stroke:none;" />
  <rect x="485" y="195" width="110" height="90" style="fill:#cdffcc;stroke:black;stroke-width:1;" />
  <text x="540" y="211" font-size="14" font-family="Arial,sans-serif" text-anchor="middle">Comprehensive<tspan x="540" y="227">Large Array</tspan><tspan x="540" y="243">Stewardship</tspan><tspan x="540" y="259">System</tspan><tspan x="540" y="275">(CLASS)</tspan></text>
  <rect x="435" y="330" width="90" height="80" style="fill:lightgrey;stroke:none;" />
  <rect x="430" y="325" width="90" height="80" style="fill:#cdffcc;stroke:black;stroke-width:1;" />
  <text x="475" y="365" font-size="14" font-family="Arial,sans-serif" text-anchor="middle">Management</text>
  <ellipse cx="315" cy="240" rx="60" ry="55" style="fill:lightgrey;stroke:none;" />
  <ellipse cx="310" cy="235" rx="60" ry="55" style="fill:url(#grad1);stroke:black;stroke-width:1;" />
  <text x="310" y="215" font-size="14" font-family="Arial,sans-serif" text-anchor="middle" font-weight="600">NPOESS<tspan x="310" y="231">Data</tspan><tspan x="310" y="247">Exploitation</tspan><tspan x="310" y="263">(NDE)</tspan></text>
  <text x="232" y="65" font-size="13" font-family="Arial,sans-serif" text-anchor="middle">xDRs</text>
  <polyline points="180,70 285,70 285,184" style="fill:none;stroke:black;stroke-width:1;marker-end:url(#arr1);" />
  <text x="187" y="150" font-size="13" font-family="Arial,sans-serif" text-anchor="middle">Instrument Status</text>
  <polyline points="105,155 270,155 270,193" style="fill:none;stroke:black;stroke-width:1;marker-end:url(#arr1);" />
  <text x="180" y="185" font-size="13" font-family="Arial,sans-serif" text-anchor="middle">Satellite Status</text>
  <polyline points="105,190 255,190 255,210" style="fill:none;stroke:black;stroke-width:1;marker-end:url(#arr1);" />
  <text x="191" y="250" font-size="13" font-family="Arial,sans-serif" text-anchor="middle">Algorithms</text>
  <polyline points="130,255 253,255" style="fill:none;stroke:black;stroke-width:1;marker-end:url(#arr1);" />
  <text x="200" y="285" font-size="13" font-family="Arial,sans-serif" text-anchor="middle">Operational<tspan x="200" y="303">Standards</tspan></text>
  <polyline points="270,276 270,290 131,290" style="fill:none;stroke:black;stroke-width:1;marker-end:url(#arr1);" />
  <text x="207" y="340" font-size="13" font-family="Arial,sans-serif" text-anchor="middle">Service Requests</text>
  <polyline points="285,285 285,345 131,345" style="fill:none;stroke:black;stroke-width:1;marker-end:url(#arr1);" />
  <text x="215" y="375" font-size="13" font-family="Arial,sans-serif" text-anchor="middle">xDR Enhancement<tspan x="215" y="393">Requirements</tspan></text>
  <polyline points="300,289 300,380 131,380" style="fill:none;stroke:black;stroke-width:1;marker-end:url(#arr1);" />
  <text x="380" y="360" font-size="13" font-family="Arial,sans-serif" text-anchor="middle">Reports</text>
  <polyline points="330,287 330,365 429,365" style="fill:none;stroke:black;stroke-width:1;marker-end:url(#arr1);" />
  <text x="426" y="215" font-size="13" font-family="Arial,sans-serif" text-anchor="middle">NOAA-unique<tspan x="426" y="232">Products</tspan></text>
  <polyline points="368,220 484,220" style="fill:none;stroke:black;stroke-width:1;marker-end:url(#arr1);" />
  <text x="424" y="255" font-size="13" font-family="Arial,sans-serif" text-anchor="middle">System<tspan x="424" y="272">Components</tspan></text>
  <polyline points="364,260 484,260" style="fill:none;stroke:black;stroke-width:1;marker-end:url(#arr1);" />
  <text x="350" y="120" font-size="13" font-family="Arial,sans-serif" text-anchor="start">Service Responses</text>
  <polyline points="345,190 345,125 474,125" style="fill:none;stroke:black;stroke-width:1;marker-end:url(#arr1);" />
  <text x="335" y="100" font-size="13" font-family="Arial,sans-serif" text-anchor="start">Service Requests</text>
  <polyline points="474,105 330,105 330,182" style="fill:none;stroke:black;stroke-width:1;marker-end:url(#arr1);" />
  <text x="320" y="80" font-size="13" font-family="Arial,sans-serif" text-anchor="start">Tailored Products</text>
  <polyline points="315,180 315,85 474,85" style="fill:none;stroke:black;stroke-width:1;marker-end:url(#arr1);" />
  <text x="305" y="60" font-size="13" font-family="Arial,sans-serif" text-anchor="start">NOAA-unique Products</text>
  <polyline points="300,180 300,65 474,65" style="fill:none;stroke:black;stroke-width:1;marker-end:url(#arr1);" />
</svg>
