<?xml version="1.0" encoding="UTF-8" standalone="no"?>
<!-- Created with Inkscape (http://www.inkscape.org/) -->

<svg
   xmlns:dc="http://purl.org/dc/elements/1.1/"
   xmlns:cc="http://creativecommons.org/ns#"
   xmlns:rdf="http://www.w3.org/1999/02/22-rdf-syntax-ns#"
   xmlns:svg="http://www.w3.org/2000/svg"
   xmlns="http://www.w3.org/2000/svg"
   xmlns:sodipodi="http://sodipodi.sourceforge.net/DTD/sodipodi-0.dtd"
   xmlns:inkscape="http://www.inkscape.org/namespaces/inkscape"
   width="1000"
   height="990.008"
   viewBox="0 0 1000 990.00801"
   id="svg2"
   version="1.1"
   inkscape:version="0.92.3 (2405546, 2018-03-11)"
   sodipodi:docname="Adidas (2002).svg">
  <defs
     id="defs4">
    <clipPath
       id="clipPath4178"
       clipPathUnits="userSpaceOnUse">
      <path
         inkscape:connector-curvature="0"
         id="path4180"
         d="m 0,0 626.457,0 0,807.874 L 0,807.874 0,0 Z" />
    </clipPath>
    <clipPath
       id="clipPath4248"
       clipPathUnits="userSpaceOnUse">
      <path
         inkscape:connector-curvature="0"
         id="path4250"
         d="m 0,0 626.457,0 0,807.874 L 0,807.874 0,0 Z" />
    </clipPath>
    <clipPath
       id="clipPath4288"
       clipPathUnits="userSpaceOnUse">
      <path
         inkscape:connector-curvature="0"
         id="path4290"
         d="m 0,0 626.457,0 0,807.874 L 0,807.874 0,0 Z" />
    </clipPath>
    <clipPath
       id="clipPath4308"
       clipPathUnits="userSpaceOnUse">
      <path
         inkscape:connector-curvature="0"
         id="path4310"
         d="m 0,0 626.457,0 0,807.874 L 0,807.874 0,0 Z" />
    </clipPath>
    <clipPath
       id="clipPath4376"
       clipPathUnits="userSpaceOnUse">
      <path
         inkscape:connector-curvature="0"
         id="path4378"
         d="m 0,0 626.457,0 0,807.874 L 0,807.874 0,0 Z" />
    </clipPath>
    <clipPath
       id="clipPath4476"
       clipPathUnits="userSpaceOnUse">
      <path
         inkscape:connector-curvature="0"
         id="path4478"
         d="m 0,0 626.457,0 0,807.874 L 0,807.874 0,0 Z" />
    </clipPath>
    <clipPath
       id="clipPath4504"
       clipPathUnits="userSpaceOnUse">
      <path
         inkscape:connector-curvature="0"
         id="path4506"
         d="m 0,0 626.457,0 0,807.874 L 0,807.874 0,0 Z" />
    </clipPath>
    <clipPath
       id="clipPath4524"
       clipPathUnits="userSpaceOnUse">
      <path
         inkscape:connector-curvature="0"
         id="path4526"
         d="m 0,0 626.457,0 0,807.874 L 0,807.874 0,0 Z" />
    </clipPath>
    <clipPath
       id="clipPath4568"
       clipPathUnits="userSpaceOnUse">
      <path
         inkscape:connector-curvature="0"
         id="path4570"
         d="m 0,0 626.457,0 0,807.874 L 0,807.874 0,0 Z" />
    </clipPath>
    <clipPath
       id="clipPath4588"
       clipPathUnits="userSpaceOnUse">
      <path
         inkscape:connector-curvature="0"
         id="path4590"
         d="m 0,0 626.457,0 0,807.874 L 0,807.874 0,0 Z" />
    </clipPath>
    <clipPath
       id="clipPath4710"
       clipPathUnits="userSpaceOnUse">
      <path
         inkscape:connector-curvature="0"
         id="path4712"
         d="m 0,0 626.457,0 0,807.874 L 0,807.874 0,0 Z" />
    </clipPath>
    <clipPath
       id="clipPath4742"
       clipPathUnits="userSpaceOnUse">
      <path
         inkscape:connector-curvature="0"
         id="path4744"
         d="m 0,0 626.457,0 0,807.874 L 0,807.874 0,0 Z" />
    </clipPath>
    <clipPath
       id="clipPath4868"
       clipPathUnits="userSpaceOnUse">
      <path
         inkscape:connector-curvature="0"
         id="path4870"
         d="m 0,0 626.457,0 0,807.874 L 0,807.874 0,0 Z" />
    </clipPath>
    <clipPath
       id="clipPath4888"
       clipPathUnits="userSpaceOnUse">
      <path
         inkscape:connector-curvature="0"
         id="path4890"
         d="m 0,0 626.457,0 0,807.874 L 0,807.874 0,0 Z" />
    </clipPath>
    <clipPath
       id="clipPath4904"
       clipPathUnits="userSpaceOnUse">
      <path
         inkscape:connector-curvature="0"
         id="path4906"
         d="m 0,0 626.457,0 0,807.874 L 0,807.874 0,0 Z" />
    </clipPath>
    <clipPath
       id="clipPath4920"
       clipPathUnits="userSpaceOnUse">
      <path
         inkscape:connector-curvature="0"
         id="path4922"
         d="m 0,0 626.457,0 0,807.874 L 0,807.874 0,0 Z" />
    </clipPath>
    <clipPath
       id="clipPath4948"
       clipPathUnits="userSpaceOnUse">
      <path
         inkscape:connector-curvature="0"
         id="path4950"
         d="m 0,0 626.457,0 0,807.874 L 0,807.874 0,0 Z" />
    </clipPath>
    <clipPath
       id="clipPath5014"
       clipPathUnits="userSpaceOnUse">
      <path
         inkscape:connector-curvature="0"
         id="path5016"
         d="m 0,0 626.457,0 0,807.874 L 0,807.874 0,0 Z" />
    </clipPath>
    <clipPath
       id="clipPath5092"
       clipPathUnits="userSpaceOnUse">
      <path
         inkscape:connector-curvature="0"
         id="path5094"
         d="m 0,0 626.457,0 0,807.874 L 0,807.874 0,0 Z" />
    </clipPath>
    <clipPath
       id="clipPath5112"
       clipPathUnits="userSpaceOnUse">
      <path
         inkscape:connector-curvature="0"
         id="path5114"
         d="m 0,0 626.457,0 0,807.874 L 0,807.874 0,0 Z" />
    </clipPath>
  </defs>
  <sodipodi:namedview
     id="base"
     pagecolor="#ffffff"
     bordercolor="#666666"
     borderopacity="1.0"
     inkscape:pageopacity="0.0"
     inkscape:pageshadow="2"
     inkscape:zoom="0.35"
     inkscape:cx="504.7686"
     inkscape:cy="511.82172"
     inkscape:document-units="px"
     inkscape:current-layer="layer1"
     showgrid="false"
     units="px"
     inkscape:window-width="1024"
     inkscape:window-height="706"
     inkscape:window-x="-8"
     inkscape:window-y="-8"
     inkscape:window-maximized="1" />
  <metadata
     id="metadata7">
    <rdf:RDF>
      <cc:Work
         rdf:about="">
        <dc:format>image/svg+xml</dc:format>
        <dc:type
           rdf:resource="http://purl.org/dc/dcmitype/StillImage" />
        <dc:title />
      </cc:Work>
    </rdf:RDF>
  </metadata>
  <g
     inkscape:label="Layer 1"
     inkscape:groupmode="layer"
     id="layer1"
     transform="translate(0,-62.354179)">
    <path
       style="color:#000000;font-style:normal;font-variant:normal;font-weight:normal;font-stretch:normal;font-size:medium;line-height:normal;font-family:sans-serif;text-indent:0;text-align:start;text-decoration:none;text-decoration-line:none;text-decoration-style:solid;text-decoration-color:#000000;letter-spacing:normal;word-spacing:normal;text-transform:none;direction:ltr;block-progression:tb;writing-mode:lr-tb;baseline-shift:baseline;text-anchor:start;white-space:normal;clip-rule:nonzero;display:inline;overflow:visible;visibility:visible;opacity:1;isolation:auto;mix-blend-mode:normal;color-interpolation:sRGB;color-interpolation-filters:linearRGB;solid-color:#000000;solid-opacity:1;fill-opacity:1;fill-rule:nonzero;stroke:none;stroke-width:41.47385025;stroke-linecap:butt;stroke-linejoin:miter;stroke-miterlimit:4;stroke-dasharray:none;stroke-dashoffset:0;stroke-opacity:1;color-rendering:auto;image-rendering:auto;shape-rendering:auto;text-rendering:auto;enable-background:accumulate"
       d="m 397.36328,820.17188 0,41.99414 41.47266,0 0,-41.99414 -41.47266,0 z m 0,58.15039 0,170.16993 41.47266,0 0,-170.16993 -41.47266,0 z"
       id="path4942"
       inkscape:connector-curvature="0" />
    <path
       inkscape:connector-curvature="0"
       id="path4954"
       style="fill-opacity:1;fill-rule:nonzero;stroke:none"
       d="m 923.51349,1052.3622 c -46.71265,0 -76.3992,-23.9239 -76.3992,-58.32533 l 44.52982,0 c 0,10.47763 6.37737,26.71793 34.05221,26.71793 19.03432,0 27.59103,-10.4776 27.59103,-19.1182 0,-13.36241 -17.02611,-14.31937 -34.05222,-17.11339 -19.03431,-2.86388 -33.9649,-6.70567 -44.52981,-12.48931 -14.84328,-6.63581 -25.49551,-22.8761 -25.49551,-41.03728 0,-29.68655 27.59103,-54.48354 72.20816,-54.48354 42.4343,0 67.9298,22.96691 72.20815,55.44748 l -42.52161,0 c -2.09552,-8.55671 -2.09552,-22.96691 -27.59102,-22.96691 -16.93879,0 -29.68655,3.84179 -29.68655,15.28333 0,17.19724 33.9649,16.24029 63.65145,23.92386 25.4955,6.70567 42.52161,22.87611 42.52161,45.83603 0,42.08503 -33.9649,58.32533 -76.48651,58.32533" />
    <path
       inkscape:connector-curvature="0"
       id="path4958"
       style="fill-opacity:1;fill-rule:nonzero;stroke:none"
       d="m 689.99354,964.42018 c 0,26.71789 23.31267,48.72082 48.80817,48.72082 27.59103,0 48.89549,-22.00293 48.89549,-48.72082 0,-26.80172 -21.30446,-48.72086 -48.89549,-48.72086 -25.4955,0 -48.80817,21.91914 -48.80817,48.72086 m 48.80817,87.92802 c -48.80817,0 -89.14695,-39.2072 -89.14695,-87.92802 0,-48.72086 40.33878,-87.92107 89.14695,-87.92107 17.02611,0 33.9649,5.72775 48.89549,15.27634 l 0,-13.35545 42.43429,0 0,170.0864 -42.43429,0 0,-10.4776 c -14.93059,9.5137 -29.77386,14.3194 -48.89549,14.3194" />
    <path
       inkscape:connector-curvature="0"
       id="path4962"
       style="fill-opacity:1;fill-rule:nonzero;stroke:none"
       d="m 496.78652,964.42018 c 0,26.71789 21.21715,48.72082 46.71265,48.72082 27.59102,0 50.99101,-22.00293 50.99101,-48.72082 0,-26.80172 -23.39999,-48.72086 -50.99101,-48.72086 -25.4955,0 -46.71265,21.91914 -46.71265,48.72086 m 97.70366,-143.36855 40.33877,0 0,227.45477 -40.33877,0 0,-10.4776 c -14.93059,9.5137 -31.86938,14.3194 -50.99101,14.3194 -48.80817,0 -89.14695,-39.2072 -89.14695,-87.92802 0,-48.72086 40.33878,-87.92107 89.14695,-87.92107 19.12163,0 36.06042,5.72775 50.99101,15.27634 l 0,-70.72382 z" />
    <path
       inkscape:connector-curvature="0"
       id="path4966"
       style="fill-opacity:1;fill-rule:nonzero;stroke:none"
       d="m 235.65878,964.42018 c 0,26.71789 21.21715,48.72082 48.80817,48.72082 25.49551,0 48.89549,-22.00293 48.89549,-48.72082 0,-26.80172 -23.39998,-48.72086 -48.89549,-48.72086 -27.59102,0 -48.80817,21.91914 -48.80817,48.72086 m 46.71265,87.92802 c -48.80817,0 -87.05143,-39.2072 -87.05143,-87.92802 0,-48.72086 38.24326,-87.92107 87.05143,-87.92107 19.12163,0 36.06042,5.72775 50.99101,15.27634 l 0,-70.72382 42.43429,0 0,227.45477 -42.43429,0 0,-10.4776 c -14.93059,9.5137 -31.86938,14.3194 -50.99101,14.3194" />
    <path
       inkscape:connector-curvature="0"
       id="path4970"
       style="fill-opacity:1;fill-rule:nonzero;stroke:none"
       d="M 87.051428,1052.3622 C 38.243255,1052.3622 0,1013.162 0,964.44113 c 0,-48.72086 38.243255,-87.92805 87.051428,-87.92805 19.121632,0 36.060422,5.6579 50.991002,15.28333 l 0,-13.36244 42.4343,0 0,170.08643 -42.4343,0 0,-10.4776 c -14.93058,9.5207 -31.86937,14.3194 -50.991002,14.3194 M 40.338776,964.44113 c 0,26.71789 21.217148,48.72087 48.808172,48.72087 25.495502,0 48.895482,-22.00298 48.895482,-48.72087 0,-26.8087 -23.39998,-48.72086 -48.895482,-48.72086 -27.591024,0 -48.808172,21.91216 -48.808172,48.72086" />
    <path
       inkscape:connector-curvature="0"
       id="path4974"
       style="fill-opacity:1;fill-rule:nonzero;stroke:none"
       d="M 501.06487,62.354342 C 316.30979,62.354342 159.23304,164.5948 104.05099,307.96335 210.22405,253.47981 450.07387,158.83212 785.53183,159.79606 711.22815,99.633657 611.42897,62.354342 501.06487,62.354342" />
    <path
       inkscape:connector-curvature="0"
       id="path4978"
       style="fill-opacity:1;fill-rule:nonzero;stroke:none"
       d="m 893.81786,297.43685 c -17.0261,-37.2863 -40.33877,-72.64472 -70.11263,-103.2044 -394.83105,58.32533 -660.26369,199.68218 -743.036759,248.40304 0,15.28333 2.179342,30.55968 6.377369,45.92683 36.06042,-23.92386 333.27512,-203.52397 806.77552,-191.12547" />
    <path
       inkscape:connector-curvature="0"
       id="path4982"
       style="fill-opacity:1;fill-rule:nonzero;stroke:none"
       d="m 904.40933,325.11868 c -416.13552,60.24623 -694.22859,214.09238 -779.1845,265.60727 6.46119,11.52536 14.93059,22.96691 23.39998,34.49227 84.8686,-52.56265 358.77063,-197.85209 770.62779,-199.77298 0,-35.36541 -4.19104,-68.80294 -14.84327,-100.32656" />
    <path
       inkscape:connector-curvature="0"
       id="path4986"
       style="fill-opacity:1;fill-rule:nonzero;stroke:none"
       d="m 501.06487,789.54896 c 220.81551,0 401.20493,-147.21033 418.23104,-334.49402 -331.17961,61.20318 -571.11674,178.72698 -690.03755,248.49385 72.20816,53.5196 167.72898,86.00017 271.80651,86.00017" />
  </g>
</svg>
