<?xml version="1.0" encoding="UTF-8" standalone="no"?>
<svg
   inkscape:version="1.1.1 (3bf5ae0d25, 2021-09-20)"
   sodipodi:docname="Falun Gong.svg"
   id="svg2130"
   version="1.1"
   viewBox="0 0 442.91664 442.91666"
   height="442.91666"
   width="442.91666"
   xmlns:inkscape="http://www.inkscape.org/namespaces/inkscape"
   xmlns:sodipodi="http://sodipodi.sourceforge.net/DTD/sodipodi-0.dtd"
   xmlns:xlink="http://www.w3.org/1999/xlink"
   xmlns="http://www.w3.org/2000/svg"
   xmlns:svg="http://www.w3.org/2000/svg">
  <defs
     id="defs2124" />
  <sodipodi:namedview
     inkscape:pagecheckerboard="false"
     fit-margin-bottom="5"
     fit-margin-right="5"
     fit-margin-left="5"
     fit-margin-top="5"
     lock-margins="true"
     units="px"
     inkscape:snap-smooth-nodes="true"
     inkscape:snap-object-midpoints="true"
     inkscape:window-maximized="1"
     inkscape:window-y="-11"
     inkscape:window-x="-11"
     inkscape:window-height="1506"
     inkscape:window-width="2560"
     showgrid="false"
     inkscape:document-rotation="0"
     inkscape:current-layer="layer1"
     inkscape:document-units="px"
     inkscape:cy="221.66667"
     inkscape:cx="221.33333"
     inkscape:zoom="1.5"
     inkscape:pageshadow="2"
     inkscape:pageopacity="0"
     borderopacity="1.0"
     bordercolor="#666666"
     pagecolor="#333333"
     id="base"
     showguides="true"
     inkscape:guide-bbox="true"
     inkscape:snap-intersection-paths="true"
     inkscape:object-paths="true"
     inkscape:snap-grids="false"
     inkscape:snap-global="true"
     inkscape:lockguides="false"
     guidecolor="#00ffff"
     guideopacity="0.49803922" />
  <g
     id="layer1"
     inkscape:groupmode="layer"
     inkscape:label="falun_gong"
     transform="translate(-52.166672,-82.000015)">
    <g
       id="g152571"
       inkscape:label="emblem">
      <circle
         style="opacity:1;fill:#ffb200;fill-opacity:1;stroke:none;stroke-width:0.25;stroke-miterlimit:4;stroke-dasharray:none;stroke-opacity:1"
         id="circle144665"
         cx="273.625"
         cy="303.45834"
         r="216.45833"
         inkscape:label="disk-o" />
      <g
         id="g144654"
         inkscape:label="taijis">
        <g
           id="g96895"
           inkscape:label="taiji-1">
          <circle
             style="opacity:1;fill:#ffffff;fill-opacity:1;stroke:none;stroke-width:0.25;stroke-miterlimit:4;stroke-dasharray:none;stroke-opacity:1"
             id="path95427"
             cx="144.25009"
             cy="408.05954"
             transform="rotate(-45)"
             r="40"
             inkscape:label="taiji-1-0" />
          <path
             id="path78036"
             style="opacity:1;fill:#e70000;fill-opacity:1;stroke:none;stroke-width:0.25"
             d="m 390.54297,136.98828 c -12.68195,-2e-5 -25.365,4.83765 -35.04102,14.51367 -19.0495,19.0495 -19.3326,49.74034 -0.8789,69.1543 -8.78796,-9.72611 -8.49474,-24.74159 0.8789,-34.11523 9.67602,-9.67603 25.36305,-9.67603 35.03907,0 9.67602,9.67602 25.36499,9.67602 35.04101,0 9.67602,-9.67603 9.67584,-25.36286 0,-35.03907 -9.67593,-9.67611 -22.35711,-14.51365 -35.03906,-14.51367 z m 17.15039,26.91992 a 5.125,5.125 0 0 1 3.99023,1.48633 5.125,5.125 0 0 1 0,7.24805 5.125,5.125 0 0 1 -7.24804,0 5.125,5.125 0 0 1 0,-7.24805 5.125,5.125 0 0 1 3.25781,-1.48633 z"
             inkscape:label="taiji-1-r" />
          <path
             id="path78460"
             style="opacity:1;fill:#004893;fill-opacity:1;stroke:none;stroke-width:0.25;stroke-opacity:1"
             d="m 425.55273,151.47266 c 9.6762,9.67584 9.67602,25.36304 0,35.03906 -9.67602,9.67602 -25.36305,9.67603 -35.03906,0 -9.67602,-9.67602 -25.36499,-9.67602 -35.04101,0 -9.67602,9.67602 -9.67583,25.36481 0,35.04101 19.35186,19.35223 50.72803,19.35204 70.08007,0 19.35204,-19.35204 19.35186,-50.72785 0,-70.08007 z m -52.89257,47.48046 a 5.125,5.125 0 0 1 3.98828,1.48829 5.125,5.125 0 0 1 0,7.24804 5.125,5.125 0 0 1 -7.24805,0 5.125,5.125 0 0 1 0,-7.24804 5.125,5.125 0 0 1 3.25977,-1.48829 z"
             inkscape:label="taiji-1-b" />
        </g>
        <use
           x="0"
           y="0"
           xlink:href="#g97253"
           id="use135017"
           width="100%"
           height="100%"
           transform="translate(233.83421,233.8342)"
           inkscape:label="taiji-2" />
        <use
           x="0"
           y="0"
           xlink:href="#g96895"
           id="use96901"
           width="100%"
           height="100%"
           transform="translate(-233.8048,233.86274)"
           inkscape:label="taiji-3" />
        <g
           id="g97253"
           transform="rotate(-90,273.62457,303.42937)"
           inkscape:label="taiji-4">
          <circle
             style="opacity:1;fill:#ffffff;fill-opacity:1;stroke:none;stroke-width:0.25;stroke-miterlimit:4;stroke-dasharray:none;stroke-opacity:1"
             id="circle97247"
             cx="144.25009"
             cy="408.05954"
             transform="rotate(-45)"
             r="40"
             inkscape:label="taiji-4-0" />
          <path
             id="path97251"
             style="opacity:1;fill:#e70000;fill-opacity:1;stroke:none;stroke-width:0.25;stroke-opacity:1"
             d="m 425.55273,151.47266 c 9.6762,9.67584 9.67602,25.36304 0,35.03906 -9.67602,9.67602 -25.36305,9.67603 -35.03906,0 -9.67602,-9.67602 -25.36499,-9.67602 -35.04101,0 -9.67602,9.67602 -9.67583,25.36481 0,35.04101 19.35186,19.35223 50.72803,19.35204 70.08007,0 19.35204,-19.35204 19.35186,-50.72785 0,-70.08007 z m -52.89257,47.48046 a 5.125,5.125 0 0 1 3.98828,1.48829 5.125,5.125 0 0 1 0,7.24804 5.125,5.125 0 0 1 -7.24805,0 5.125,5.125 0 0 1 0,-7.24804 5.125,5.125 0 0 1 3.25977,-1.48829 z"
             inkscape:label="taiji-4-r" />
          <path
             id="path97249"
             style="opacity:1;fill:#1c1919;fill-opacity:1;stroke:none;stroke-width:0.25;stroke-opacity:1"
             d="m 390.54297,136.98828 c -12.68195,-2e-5 -25.365,4.83765 -35.04102,14.51367 -19.0495,19.0495 -19.3326,49.74034 -0.8789,69.1543 -8.78796,-9.72611 -8.49474,-24.74159 0.8789,-34.11523 9.67602,-9.67603 25.36305,-9.67603 35.03907,0 9.67602,9.67602 25.36499,9.67602 35.04101,0 9.67602,-9.67603 9.67584,-25.36286 0,-35.03907 -9.67593,-9.67611 -22.35711,-14.51365 -35.03906,-14.51367 z m 17.15039,26.91992 a 5.125,5.125 0 0 1 3.99023,1.48633 5.125,5.125 0 0 1 0,7.24805 5.125,5.125 0 0 1 -7.24804,0 5.125,5.125 0 0 1 0,-7.24805 5.125,5.125 0 0 1 3.25781,-1.48633 z"
             inkscape:label="taiji-4-b" />
        </g>
      </g>
      <g
         id="g144663"
         inkscape:label="swastikas">
        <g
           id="g96899"
           inkscape:label="swastika-c">
          <circle
             style="opacity:1;fill:#e70000;fill-opacity:1;stroke:none;stroke-width:0.25;stroke-miterlimit:4;stroke-dasharray:none;stroke-opacity:1"
             id="path40054"
             cx="273.625"
             cy="303.45834"
             r="115.79166"
             inkscape:label="disk-i" />
          <path
             id="path1349"
             style="opacity:1;fill:#a97e00;fill-opacity:1;stroke:none;stroke-width:0.25;stroke-miterlimit:4;stroke-dasharray:none;stroke-opacity:1"
             d="m 192.33007,231.667 v 21.58658 a 9.6666667,9.6666667 45 0 0 9.66667,9.66667 h 47.6907 a 3.4766084,3.4766084 45 0 1 3.47661,3.47661 v 13.12491 a 3.4766084,3.4766084 135 0 1 -3.47661,3.47661 h -47.85476 a 9.6666667,9.6666667 135 0 0 -9.66667,9.66667 v 21.58658 60.83398 a 9.6666667,9.6666667 45 0 0 9.66667,9.66667 h 21.58853 a 9.6666667,9.6666667 135 0 0 9.66667,-9.66667 v -47.6907 a 3.4766084,3.4766084 135 0 1 3.47661,-3.47661 h 13.12295 a 3.4766084,3.4766084 45 0 1 3.47661,3.47661 v 47.85477 a 9.6666667,9.6666667 45 0 0 9.66667,9.66667 h 21.58658 60.83399 a 9.6666667,9.6666667 135 0 0 9.66667,-9.66667 v -21.58659 a 9.6666667,9.6666667 45 0 0 -9.66667,-9.66667 h -47.69071 a 3.4766084,3.4766084 45 0 1 -3.47661,-3.47661 v -13.1249 a 3.4766084,3.4766084 135 0 1 3.47661,-3.47661 h 47.85672 a 9.6666667,9.6666667 135 0 0 9.66667,-9.66667 v -21.58658 -60.83399 a 9.6666667,9.6666667 45 0 0 -9.66667,-9.66667 h -21.58658 a 9.6666667,9.6666667 135 0 0 -9.66667,9.66667 v 47.69071 a 3.4766084,3.4766084 135 0 1 -3.47661,3.47661 h -13.12686 a 3.4766084,3.4766084 45 0 1 -3.47661,-3.47661 V 231.667 a 9.6666667,9.6666667 45 0 0 -9.66667,-9.66667 h -21.58658 -60.83398 a 9.6666667,9.6666667 135 0 0 -9.66667,9.66667 z"
             inkscape:label="swastika-i" />
        </g>
        <path
           id="path135783"
           style="fill:#a97e00;fill-opacity:1;stroke:none;stroke-width:0.25;stroke-miterlimit:6;stroke-dasharray:none;stroke-opacity:1"
           d="m 294.81445,92.396484 c 13.81457,19.042426 10.59819,36.423826 2.17969,36.423826 h -14.97656 v -19.27734 c 0,-20.271309 -32.41157,-26.778047 -53.20899,6.48242 19.04243,-13.81457 36.42383,-10.60014 36.42383,-2.18164 v 14.97656 h -19.2793 c -20.2713,0 -26.77804,32.41352 6.48243,53.21094 -13.81457,-19.04243 -10.59819,-36.42578 -2.17969,-36.42578 h 14.97656 v 19.2793 c 0,20.27131 32.41157,26.77804 53.20899,-6.48243 -19.04243,13.81457 -36.42383,10.60014 -36.42383,2.18164 v -14.97851 h 19.2793 c 20.27131,0 26.77804,-32.41157 -6.48243,-53.208986 z"
           inkscape:label="swastika-t" />
        <use
           x="0"
           y="0"
           xlink:href="#path135783"
           id="use144089"
           width="100%"
           height="100%"
           transform="rotate(90,273.625,303.45834)"
           inkscape:label="swastika-r" />
        <use
           x="0"
           y="0"
           xlink:href="#path135783"
           id="use144081"
           width="100%"
           height="100%"
           transform="rotate(-90,439.86947,303.45834)"
           inkscape:label="swastika-b" />
        <use
           x="0"
           y="0"
           xlink:href="#path135783"
           id="use144101"
           width="100%"
           height="100%"
           transform="rotate(-90,273.625,303.45834)"
           inkscape:label="swastika-l" />
      </g>
    </g>
  </g>
</svg>
