<?xml version="1.0" encoding="UTF-8" standalone="no"?>
<!-- Created with Inkscape (http://www.inkscape.org/) -->

<svg
   xmlns:dc="http://purl.org/dc/elements/1.1/"
   xmlns:cc="http://creativecommons.org/ns#"
   xmlns:rdf="http://www.w3.org/1999/02/22-rdf-syntax-ns#"
   xmlns:svg="http://www.w3.org/2000/svg"
   xmlns="http://www.w3.org/2000/svg"
   xmlns:xlink="http://www.w3.org/1999/xlink"
   xmlns:sodipodi="http://sodipodi.sourceforge.net/DTD/sodipodi-0.dtd"
   xmlns:inkscape="http://www.inkscape.org/namespaces/inkscape"
   width="175"
   height="200"
   id="svg16976"
   version="1.1"
   inkscape:version="0.48.4 r9939"
   sodipodi:docname="New document 76">
  <defs
     id="defs16978">
    <radialGradient
       inkscape:collect="always"
       xlink:href="#linearGradient16924"
       id="radialGradient16932"
       cx="213.59921"
       cy="206.18915"
       fx="213.59921"
       fy="206.18915"
       r="14.053432"
       gradientTransform="matrix(2.2272789,-5.3662449,7.1279958,2.9794139,-1841.4409,1487.8195)"
       gradientUnits="userSpaceOnUse" />
    <linearGradient
       id="linearGradient16924">
      <stop
         style="stop-color:#ffffff;stop-opacity:1;"
         offset="0"
         id="stop16926" />
      <stop
         style="stop-color:#ffcc10;stop-opacity:1;"
         offset="1"
         id="stop16928" />
    </linearGradient>
    <linearGradient
       gradientTransform="matrix(4.2993684,0.18312835,-0.18383696,4.3160047,-772.96487,30.762863)"
       inkscape:collect="always"
       xlink:href="#linearGradient16934"
       id="linearGradient16942"
       x1="191.98375"
       y1="220.72701"
       x2="196.53242"
       y2="224.29533"
       gradientUnits="userSpaceOnUse" />
    <linearGradient
       id="linearGradient16934">
      <stop
         style="stop-color:#fdf2c5;stop-opacity:1;"
         offset="0"
         id="stop16936" />
      <stop
         style="stop-color:#f8c709;stop-opacity:1;"
         offset="1"
         id="stop16938" />
    </linearGradient>
    <linearGradient
       gradientTransform="matrix(4.2993684,0.18312835,-0.18383696,4.3160047,-772.96487,30.762863)"
       inkscape:collect="always"
       xlink:href="#linearGradient16916"
       id="linearGradient16922"
       x1="208.94423"
       y1="212.24513"
       x2="214.51979"
       y2="205.26434"
       gradientUnits="userSpaceOnUse" />
    <linearGradient
       id="linearGradient16916">
      <stop
         style="stop-color:#f7b61c;stop-opacity:1;"
         offset="0"
         id="stop16918" />
      <stop
         style="stop-color:#ffffff;stop-opacity:1;"
         offset="1"
         id="stop16920" />
    </linearGradient>
    <linearGradient
       inkscape:collect="always"
       xlink:href="#linearGradient16916"
       id="linearGradient17045"
       gradientUnits="userSpaceOnUse"
       gradientTransform="matrix(4.2993684,0.18312835,-0.18383696,4.3160047,-772.96487,30.762863)"
       x1="208.94423"
       y1="212.24513"
       x2="214.51979"
       y2="205.26434" />
    <linearGradient
       inkscape:collect="always"
       xlink:href="#linearGradient16934"
       id="linearGradient17047"
       gradientUnits="userSpaceOnUse"
       gradientTransform="matrix(4.2993684,0.18312835,-0.18383696,4.3160047,-772.96487,30.762863)"
       x1="191.98375"
       y1="220.72701"
       x2="196.53242"
       y2="224.29533" />
    <radialGradient
       inkscape:collect="always"
       xlink:href="#linearGradient16924"
       id="radialGradient17049"
       gradientUnits="userSpaceOnUse"
       gradientTransform="matrix(2.2272789,-5.3662449,7.1279958,2.9794139,-1841.4409,1487.8195)"
       cx="213.59921"
       cy="206.18915"
       fx="213.59921"
       fy="206.18915"
       r="14.053432" />
  </defs>
  <sodipodi:namedview
     id="base"
     pagecolor="#ffffff"
     bordercolor="#666666"
     borderopacity="1.0"
     inkscape:pageopacity="0.0"
     inkscape:pageshadow="2"
     inkscape:zoom="1.0421539"
     inkscape:cx="375"
     inkscape:cy="173.53317"
     inkscape:document-units="px"
     inkscape:current-layer="layer1"
     showgrid="false"
     inkscape:window-width="1366"
     inkscape:window-height="706"
     inkscape:window-x="-8"
     inkscape:window-y="-8"
     inkscape:window-maximized="1" />
  <metadata
     id="metadata16981">
    <rdf:RDF>
      <cc:Work
         rdf:about="">
        <dc:format>image/svg+xml</dc:format>
        <dc:type
           rdf:resource="http://purl.org/dc/dcmitype/StillImage" />
        <dc:title></dc:title>
      </cc:Work>
    </rdf:RDF>
  </metadata>
  <g
     inkscape:label="Layer 1"
     inkscape:groupmode="layer"
     id="layer1"
     transform="translate(0,-852.36218)">
    <g
       id="g17033"
       transform="matrix(1.0489647,0,0,1.0634886,-3.5028379,-57.648456)">
      <path
         sodipodi:nodetypes="ccccccc"
         inkscape:connector-curvature="0"
         id="path3838"
         d="m 21.283494,960.43956 67.264879,-62.27591 -6.083766,-13.55319 -36.673122,0.87516 -41.443411,39.88953 0.8666386,19.45886 z"
         style="fill:#fbde6b;fill-opacity:1;stroke:#000000;stroke-width:1.61325312;stroke-linecap:butt;stroke-linejoin:miter;stroke-miterlimit:4;stroke-opacity:1;stroke-dasharray:none;display:inline" />
      <path
         sodipodi:nodetypes="ccssscc"
         inkscape:connector-curvature="0"
         id="path3809"
         d="M 153.9937,1040.9065 C 152.32894,1039.8311 48.85505,933.02789 48.85505,933.02789 c 0,0 -5.182893,-5.91701 1.943293,-9.85488 5.79996,-3.20504 10.060859,1.48441 16.364349,8.24413 1.44126,1.54564 2.989345,3.1995 4.686986,4.89197 9.122469,9.09465 94.136172,92.44759 94.136172,92.44759 z"
         style="fill:url(#linearGradient17045);fill-opacity:1;stroke:#000000;stroke-width:1.65504718;stroke-linecap:butt;stroke-linejoin:miter;stroke-miterlimit:4;stroke-opacity:1;stroke-dasharray:none;display:inline" />
      <path
         transform="matrix(0.93712615,-0.80699189,0.70081197,0.78438652,-372.43781,1050.3222)"
         d="m 336.50708,319.62207 c 0,3.87037 -3.13756,7.00793 -7.00793,7.00793 -3.87038,0 -7.00794,-3.13756 -7.00794,-7.00793 0,-3.87037 3.13756,-7.00793 7.00794,-7.00793 3.87037,0 7.00793,3.13756 7.00793,7.00793 z"
         sodipodi:ry="7.0079331"
         sodipodi:rx="7.0079331"
         sodipodi:cy="319.62207"
         sodipodi:cx="329.49915"
         id="path3811"
         style="fill:#f9ce2a;fill-opacity:1;fill-rule:evenodd;stroke:#000000;stroke-width:1.31102443;stroke-linecap:butt;stroke-linejoin:miter;stroke-miterlimit:4;stroke-opacity:1;stroke-dasharray:none;display:inline"
         sodipodi:type="arc" />
      <path
         sodipodi:nodetypes="ccsccc"
         inkscape:connector-curvature="0"
         id="path3766"
         d="m 44.646806,993.58804 c 0,0 -8.243384,1.07467 -8.922634,9.27976 0,0 -42.8894399,25.5876 -26.1034192,36.9564 14.0401862,9.5089 30.6088292,-25.644 33.3161612,-30.2288 0,0 7.191542,-0.1816 8.326669,-7.9558 z"
         style="fill:url(#linearGradient17047);fill-opacity:1;stroke:#000000;stroke-width:1.61325312;stroke-linecap:butt;stroke-linejoin:miter;stroke-miterlimit:4;stroke-opacity:1;stroke-dasharray:none;display:inline" />
      <path
         sodipodi:nodetypes="cc"
         inkscape:connector-curvature="0"
         id="path3772"
         d="m 42.598285,1009.489 c 0,0 -3.910049,-3.8749 -6.830333,-6.9905"
         style="fill:none;stroke:#000000;stroke-width:1.24096382;stroke-linecap:butt;stroke-linejoin:miter;stroke-miterlimit:4;stroke-opacity:1;stroke-dasharray:none;display:inline" />
      <path
         sodipodi:nodetypes="cscscscc"
         inkscape:connector-curvature="0"
         id="path3776"
         d="m 44.759275,993.1237 c 0,0 1.923821,-3.46316 1.834031,-6.56891 -0.08962,-3.10574 12.444196,-5.4523 12.444196,-5.4523 0,0 26.494236,34.77141 63.393888,17.28566 30.844,-14.61614 54.39964,-75.06322 -45.841238,-142.6976 0,0 88.903408,25.36507 93.375548,94.44867 4.50187,69.54238 -66.2046,101.71558 -114.935171,55.16498 0,0 -4.439511,-2.0072 -10.271254,-12.1805 z"
         style="fill:#000000;fill-opacity:1;stroke:none;display:inline" />
      <path
         sodipodi:nodetypes="cscscscc"
         inkscape:connector-curvature="0"
         id="path3776-1"
         d="m 45.944851,993.77405 c 0,0 2.10878,-3.11509 2.018989,-6.22084 -0.08962,-3.10578 10.099175,-5.05526 10.099175,-5.05526 0,0 27.414854,33.71195 65.267835,17.52205 30.33073,-12.97247 53.04618,-73.28148 -35.522996,-138.93544 0,0 74.816846,25.11958 80.411096,86.72657 5.60501,61.72557 -57.85279,105.88247 -111.658669,56.54217 0,0 -4.533784,-1.06 -10.61543,-10.57925 z"
         style="fill:url(#radialGradient17049);fill-opacity:1;stroke:none;display:inline" />
      <path
         sodipodi:nodetypes="cssc"
         inkscape:connector-curvature="0"
         id="path3831"
         d="m 45.179007,993.69548 c 0,0 4.099829,-3.68707 7.339519,-1.55487 3.239729,2.1321 41.659873,43.61129 80.413814,18.19409 46.81871,-30.70653 47.65757,-105.42507 -49.58682,-151.44965"
         style="fill:none;stroke:#000000;stroke-width:1.24096382;stroke-linecap:butt;stroke-linejoin:miter;stroke-miterlimit:4;stroke-opacity:1;stroke-dasharray:none;display:inline" />
      <path
         sodipodi:nodetypes="ccccc"
         inkscape:connector-curvature="0"
         id="path3842"
         d="m 4.163357,925.53755 16.436177,15.89732 61.587512,-56.28545 m -61.67181,56.10622 0.695415,19.00596"
         style="fill:none;stroke:#000000;stroke-width:1.61325312;stroke-linecap:butt;stroke-linejoin:miter;stroke-miterlimit:4;stroke-opacity:1;stroke-dasharray:none;display:inline" />
      <path
         sodipodi:nodetypes="ccccccccccccccccccccccccccccccccccccccccccccccccccccccc"
         inkscape:connector-curvature="0"
         id="path3852"
         d="m 5.6953097,926.65117 29.8661043,-26.77013 -29.384087,27.91579 2.8656538,2.36198 35.7411102,-32.75146 -34.8976452,33.55597 2.8887792,2.47029 40.31125,-37.41745 -39.646261,38.33894 3.17604,2.73179 45.639874,-42.30038 -45.055192,43.31545 z M 4.8548236,929.34672 18.352115,943.17028 4.734555,930.90347 5.2263939,933.2941 18.374026,946.45639 5.0098176,934.57738 5.2232194,937.17157 18.53483,950.28703 5.3207261,938.6837 5.4965006,940.89929 18.958215,954.29043 5.4976971,942.13803 z m 15.8447544,14.46212 18.019521,-15.67007 -17.840672,16.53934 -0.149833,2.25558 18.44142,-16.18141 -18.035638,16.79109 0.135168,1.89074 18.053872,-15.73551 -18.158502,16.92512 0.229822,2.20869 17.806255,-15.51374 -17.876384,16.63515 0.194876,2.2768 16.151678,-14.28402 -16.143612,15.36148 z m 62.634693,-57.2988 -27.485707,27.08608 27.801899,-25.54932 0.98894,1.87 -25.861661,24.79424 26.34314,-23.55502 0.674414,2.08513 -22.849954,22.18055 23.576182,-21.31182 0.909481,1.94281 -21.613273,20.02447 22.27303,-19.38705 z"
         style="fill:#000000;fill-opacity:1;stroke:none;display:inline" />
    </g>
  </g>
</svg>
