<?xml version="1.0" encoding="UTF-8" standalone="no"?>
<svg
   xmlns:dc="http://purl.org/dc/elements/1.1/"
   xmlns:cc="http://creativecommons.org/ns#"
   xmlns:rdf="http://www.w3.org/1999/02/22-rdf-syntax-ns#"
   xmlns:svg="http://www.w3.org/2000/svg"
   xmlns="http://www.w3.org/2000/svg"
   xmlns:sodipodi="http://sodipodi.sourceforge.net/DTD/sodipodi-0.dtd"
   xmlns:inkscape="http://www.inkscape.org/namespaces/inkscape"
   width="500"
   height="300"
   version="1.1"
   id="svg62"
   sodipodi:docname="Flagge Landkreis Karlsruhe.svg"
   inkscape:version="0.92.3 (2405546, 2018-03-11)">
  <metadata
     id="metadata68">
    <rdf:RDF>
      <cc:Work
         rdf:about="">
        <dc:format>image/svg+xml</dc:format>
        <dc:type
           rdf:resource="http://purl.org/dc/dcmitype/StillImage" />
        <dc:title />
      </cc:Work>
    </rdf:RDF>
  </metadata>
  <defs
     id="defs66">
    <style
       id="style952"
       type="text/css"><![CDATA[
    .fil0 {fill:#0061A5}
    .fil3 {fill:#1F1A17}
    .fil2 {fill:#F6BB00}
    .fil1 {fill:white}
   ]]></style>
    <inkscape:perspective
       id="perspective10"
       inkscape:persp3d-origin="0.5 : 0.33333333 : 1"
       inkscape:vp_z="1 : 0.5 : 1"
       inkscape:vp_y="0 : 1000 : 0"
       inkscape:vp_x="0 : 0.5 : 1"
       sodipodi:type="inkscape:persp3d" />
    <inkscape:perspective
       sodipodi:type="inkscape:persp3d"
       inkscape:vp_x="0 : 0.5 : 1"
       inkscape:vp_y="0 : 1000 : 0"
       inkscape:vp_z="1 : 0.5 : 1"
       inkscape:persp3d-origin="0.5 : 0.33333333 : 1"
       id="perspective2823" />
    <inkscape:perspective
       sodipodi:type="inkscape:persp3d"
       inkscape:vp_x="0 : 333.64465 : 1"
       inkscape:vp_y="0 : 1000 : 0"
       inkscape:vp_z="595.86072 : 333.64465 : 1"
       inkscape:persp3d-origin="297.93036 : 222.42977 : 1"
       id="perspective2879" />
    <inkscape:perspective
       sodipodi:type="inkscape:persp3d"
       inkscape:vp_x="0 : 0.5 : 1"
       inkscape:vp_y="0 : 1000 : 0"
       inkscape:vp_z="1 : 0.5 : 1"
       inkscape:persp3d-origin="0.5 : 0.33333333 : 1"
       id="perspective3735" />
    <inkscape:perspective
       sodipodi:type="inkscape:persp3d"
       inkscape:vp_x="0 : 0.5 : 1"
       inkscape:vp_y="0 : 1000 : 0"
       inkscape:vp_z="1 : 0.5 : 1"
       inkscape:persp3d-origin="0.5 : 0.33333333 : 1"
       id="perspective3735-7" />
    <inkscape:perspective
       sodipodi:type="inkscape:persp3d"
       inkscape:vp_x="0 : 0.5 : 1"
       inkscape:vp_y="0 : 1000 : 0"
       inkscape:vp_z="1 : 0.5 : 1"
       inkscape:persp3d-origin="0.5 : 0.33333333 : 1"
       id="perspective3766" />
    <inkscape:perspective
       sodipodi:type="inkscape:persp3d"
       inkscape:vp_x="0 : 0.5 : 1"
       inkscape:vp_y="0 : 1000 : 0"
       inkscape:vp_z="1 : 0.5 : 1"
       inkscape:persp3d-origin="0.5 : 0.33333333 : 1"
       id="perspective3766-9" />
    <inkscape:perspective
       id="perspective2930"
       inkscape:persp3d-origin="0.5 : 0.33333333 : 1"
       inkscape:vp_z="1 : 0.5 : 1"
       inkscape:vp_y="0 : 1000 : 0"
       inkscape:vp_x="0 : 0.5 : 1"
       sodipodi:type="inkscape:persp3d" />
    <inkscape:perspective
       id="perspective2916"
       inkscape:persp3d-origin="0.5 : 0.33333333 : 1"
       inkscape:vp_z="1 : 0.5 : 1"
       inkscape:vp_y="0 : 1000 : 0"
       inkscape:vp_x="0 : 0.5 : 1"
       sodipodi:type="inkscape:persp3d" />
    <inkscape:perspective
       id="perspective3734"
       inkscape:persp3d-origin="0.5 : 0.33333333 : 1"
       inkscape:vp_z="1 : 0.5 : 1"
       inkscape:vp_y="0 : 1000 : 0"
       inkscape:vp_x="0 : 0.5 : 1"
       sodipodi:type="inkscape:persp3d" />
    <inkscape:perspective
       id="perspective2928"
       inkscape:persp3d-origin="0.5 : 0.33333333 : 1"
       inkscape:vp_z="1 : 0.5 : 1"
       inkscape:vp_y="0 : 1000 : 0"
       inkscape:vp_x="0 : 0.5 : 1"
       sodipodi:type="inkscape:persp3d" />
    <inkscape:perspective
       id="perspective2914"
       inkscape:persp3d-origin="0.5 : 0.33333333 : 1"
       inkscape:vp_z="1 : 0.5 : 1"
       inkscape:vp_y="0 : 1000 : 0"
       inkscape:vp_x="0 : 0.5 : 1"
       sodipodi:type="inkscape:persp3d" />
    <clipPath
       id="clipPath223-1">
      <path
         d="m 404.161,505.122 0,-166.41 155.181,0 0,166.41"
         id="path225-7" />
    </clipPath>
    <style
       type="text/css"
       id="style6-1" />
    <style
       type="text/css"
       id="style2978-1" />
    <style
       type="text/css"
       id="style2181-5" />
    <style
       type="text/css"
       id="style2183-2" />
    <style
       type="text/css"
       id="style2054-7" />
    <style
       type="text/css"
       id="style1367-6" />
    <style
       type="text/css"
       id="style1365-1" />
    <clipPath
       id="clipPath2709-4">
      <path
         d="m 0.029999,841.95 595.260001,0 0,-841.92 -595.260001,0 0,841.92 z"
         id="path2711-2" />
    </clipPath>
    <clipPath
       id="clipPath2703-3">
      <path
         d="m -0.138,841.445 595.276,0 0,-841.89 -595.276,0 0,841.89 z"
         id="path2705-2" />
    </clipPath>
    <clipPath
       id="clipPath223-6-6">
      <path
         d="m 404.161,505.122 0,-166.41 155.181,0 0,166.41"
         id="path225-1-8" />
    </clipPath>
    <style
       type="text/css"
       id="style6-7-5" />
    <style
       type="text/css"
       id="style2978-5-7" />
    <style
       type="text/css"
       id="style2181-8-6" />
    <style
       type="text/css"
       id="style2183-6-1" />
    <style
       type="text/css"
       id="style2054-1-8" />
    <style
       type="text/css"
       id="style1367-2-9" />
    <style
       type="text/css"
       id="style1365-2-2" />
    <clipPath
       id="clipPath2709-2-7">
      <path
         d="m 0.029999,841.95 595.260001,0 0,-841.92 -595.260001,0 0,841.92 z"
         id="path2711-3-9" />
    </clipPath>
    <clipPath
       id="clipPath2703-1-5">
      <path
         d="m -0.138,841.445 595.276,0 0,-841.89 -595.276,0 0,841.89 z"
         id="path2705-4-4" />
    </clipPath>
    <clipPath
       id="clipPath23">
      <path
         d="m 0.029999,841.95 595.260001,0 0,-841.92 -595.260001,0 0,841.92 z"
         id="path25" />
    </clipPath>
    <clipPath
       id="clipPath17">
      <path
         d="m 0,841.89 595.276,0 L 595.276,0 0,0 0,841.89 z"
         id="path19" />
    </clipPath>
    <clipPath
       id="clipPath3638">
      <path
         d="m 0.029999,841.95 595.260001,0 0,-841.92 -595.260001,0 0,841.92 z"
         id="path3640" />
    </clipPath>
    <clipPath
       id="clipPath3642">
      <path
         d="m 0,841.89 595.276,0 L 595.276,0 0,0 0,841.89 z"
         id="path3644" />
    </clipPath>
    <clipPath
       id="clipPath3381">
      <path
         d="m 0.029999,841.95 595.260001,0 0,-841.92 -595.260001,0 0,841.92 z"
         id="path3383" />
    </clipPath>
    <clipPath
       id="clipPath3385">
      <path
         d="m 0,841.89 595.276,0 L 595.276,0 0,0 0,841.89 z"
         id="path3387" />
    </clipPath>
    <clipPath
       id="clipPath3519">
      <path
         d="m 0,841.89 595.276,0 L 595.276,0 0,0 0,841.89 z"
         id="path3521" />
    </clipPath>
    <clipPath
       id="clipPath3515">
      <path
         d="m 0.029999,841.95 595.260001,0 0,-841.92 -595.260001,0 0,841.92 z"
         id="path3517" />
    </clipPath>
    <clipPath
       id="clipPath3654">
      <path
         d="m 404.161,505.122 0,-166.41 155.181,0 0,166.41"
         id="path3656" />
    </clipPath>
    <clipPath
       id="clipPath3337">
      <path
         d="m 0,841.89 595.276,0 L 595.276,0 0,0 0,841.89 z"
         id="path3339" />
    </clipPath>
    <clipPath
       id="clipPath3333">
      <path
         d="m 0.029999,841.95 595.260001,0 0,-841.92 -595.260001,0 0,841.92 z"
         id="path3506" />
    </clipPath>
    <clipPath
       id="clipPath223-8">
      <path
         d="m 404.161,505.122 0,-166.41 155.181,0 0,166.41"
         id="path225-8" />
    </clipPath>
    <clipPath
       id="clipPath3499">
      <path
         d="m 0.029999,841.95 595.260001,0 0,-841.92 -595.260001,0 0,841.92 z"
         id="path3501" />
    </clipPath>
    <clipPath
       id="clipPath3495">
      <path
         d="m 0,841.89 595.276,0 L 595.276,0 0,0 0,841.89 z"
         id="path3497" />
    </clipPath>
    <clipPath
       id="clipPath223">
      <path
         d="m 404.161,505.122 0,-166.41 155.181,0 0,166.41"
         id="path225" />
    </clipPath>
    <style
       type="text/css"
       id="style6" />
    <style
       type="text/css"
       id="style2978" />
    <style
       type="text/css"
       id="style2181" />
    <style
       type="text/css"
       id="style2183" />
    <style
       type="text/css"
       id="style2054" />
    <style
       type="text/css"
       id="style1367" />
    <style
       type="text/css"
       id="style1365" />
    <clipPath
       id="clipPath2709">
      <path
         d="m 0.029999,841.95 595.260001,0 0,-841.92 -595.260001,0 0,841.92 z"
         id="path2711" />
    </clipPath>
    <clipPath
       id="clipPath2703">
      <path
         d="m -0.138,841.445 595.276,0 0,-841.89 -595.276,0 0,841.89 z"
         id="path2705" />
    </clipPath>
    <clipPath
       id="clipPath223-6">
      <path
         d="m 404.161,505.122 0,-166.41 155.181,0 0,166.41"
         id="path225-1" />
    </clipPath>
    <style
       type="text/css"
       id="style6-7" />
    <style
       type="text/css"
       id="style2978-5" />
    <style
       type="text/css"
       id="style2181-8" />
    <style
       type="text/css"
       id="style2183-6" />
    <style
       type="text/css"
       id="style2054-1" />
    <style
       type="text/css"
       id="style1367-2" />
    <style
       type="text/css"
       id="style1365-2" />
    <clipPath
       id="clipPath2709-2">
      <path
         d="m 0.029999,841.95 595.260001,0 0,-841.92 -595.260001,0 0,841.92 z"
         id="path2711-3" />
    </clipPath>
    <clipPath
       id="clipPath2703-1">
      <path
         d="m -0.138,841.445 595.276,0 0,-841.89 -595.276,0 0,841.89 z"
         id="path2705-4" />
    </clipPath>
    <inkscape:perspective
       sodipodi:type="inkscape:persp3d"
       inkscape:vp_x="0 : 226.16504 : 1"
       inkscape:vp_y="0 : 1000 : 0"
       inkscape:vp_z="430.53183 : 226.16504 : 1"
       inkscape:persp3d-origin="215.26591 : 150.77669 : 1"
       id="perspective100" />
    <inkscape:perspective
       sodipodi:type="inkscape:persp3d"
       inkscape:vp_x="0 : 0.5 : 1"
       inkscape:vp_y="0 : 1000 : 0"
       inkscape:vp_z="1 : 0.5 : 1"
       inkscape:persp3d-origin="0.5 : 0.33333333 : 1"
       id="perspective4018" />
    <inkscape:perspective
       sodipodi:type="inkscape:persp3d"
       inkscape:vp_x="0 : 0.5 : 1"
       inkscape:vp_y="0 : 1000 : 0"
       inkscape:vp_z="1 : 0.5 : 1"
       inkscape:persp3d-origin="0.5 : 0.33333333 : 1"
       id="perspective4042" />
    <inkscape:perspective
       sodipodi:type="inkscape:persp3d"
       inkscape:vp_x="0 : 0.5 : 1"
       inkscape:vp_y="0 : 1000 : 0"
       inkscape:vp_z="1 : 0.5 : 1"
       inkscape:persp3d-origin="0.5 : 0.33333333 : 1"
       id="perspective4082" />
    <inkscape:perspective
       sodipodi:type="inkscape:persp3d"
       inkscape:vp_x="0 : 0.5 : 1"
       inkscape:vp_y="0 : 1000 : 0"
       inkscape:vp_z="1 : 0.5 : 1"
       inkscape:persp3d-origin="0.5 : 0.33333333 : 1"
       id="perspective4110" />
    <inkscape:perspective
       sodipodi:type="inkscape:persp3d"
       inkscape:vp_x="0 : 0.5 : 1"
       inkscape:vp_y="0 : 1000 : 0"
       inkscape:vp_z="1 : 0.5 : 1"
       inkscape:persp3d-origin="0.5 : 0.33333333 : 1"
       id="perspective4140" />
    <inkscape:perspective
       sodipodi:type="inkscape:persp3d"
       inkscape:vp_x="0 : 0.5 : 1"
       inkscape:vp_y="0 : 1000 : 0"
       inkscape:vp_z="1 : 0.5 : 1"
       inkscape:persp3d-origin="0.5 : 0.33333333 : 1"
       id="perspective4164" />
    <inkscape:perspective
       sodipodi:type="inkscape:persp3d"
       inkscape:vp_x="0 : 0.5 : 1"
       inkscape:vp_y="0 : 1000 : 0"
       inkscape:vp_z="1 : 0.5 : 1"
       inkscape:persp3d-origin="0.5 : 0.33333333 : 1"
       id="perspective4189" />
    <inkscape:perspective
       sodipodi:type="inkscape:persp3d"
       inkscape:vp_x="0 : 0.5 : 1"
       inkscape:vp_y="0 : 1000 : 0"
       inkscape:vp_z="1 : 0.5 : 1"
       inkscape:persp3d-origin="0.5 : 0.33333333 : 1"
       id="perspective4189-4" />
    <inkscape:perspective
       sodipodi:type="inkscape:persp3d"
       inkscape:vp_x="0 : 0.5 : 1"
       inkscape:vp_y="0 : 1000 : 0"
       inkscape:vp_z="1 : 0.5 : 1"
       inkscape:persp3d-origin="0.5 : 0.33333333 : 1"
       id="perspective4220" />
    <inkscape:perspective
       sodipodi:type="inkscape:persp3d"
       inkscape:vp_x="0 : 0.5 : 1"
       inkscape:vp_y="0 : 1000 : 0"
       inkscape:vp_z="1 : 0.5 : 1"
       inkscape:persp3d-origin="0.5 : 0.33333333 : 1"
       id="perspective4242" />
    <inkscape:perspective
       sodipodi:type="inkscape:persp3d"
       inkscape:vp_x="0 : 0.5 : 1"
       inkscape:vp_y="0 : 1000 : 0"
       inkscape:vp_z="1 : 0.5 : 1"
       inkscape:persp3d-origin="0.5 : 0.33333333 : 1"
       id="perspective4268" />
    <inkscape:perspective
       sodipodi:type="inkscape:persp3d"
       inkscape:vp_x="0 : 0.5 : 1"
       inkscape:vp_y="0 : 1000 : 0"
       inkscape:vp_z="1 : 0.5 : 1"
       inkscape:persp3d-origin="0.5 : 0.33333333 : 1"
       id="perspective4293" />
    <inkscape:perspective
       sodipodi:type="inkscape:persp3d"
       inkscape:vp_x="0 : 0.5 : 1"
       inkscape:vp_y="0 : 1000 : 0"
       inkscape:vp_z="1 : 0.5 : 1"
       inkscape:persp3d-origin="0.5 : 0.33333333 : 1"
       id="perspective4293-1" />
    <inkscape:perspective
       sodipodi:type="inkscape:persp3d"
       inkscape:vp_x="0 : 0.5 : 1"
       inkscape:vp_y="0 : 1000 : 0"
       inkscape:vp_z="1 : 0.5 : 1"
       inkscape:persp3d-origin="0.5 : 0.33333333 : 1"
       id="perspective4346" />
    <inkscape:perspective
       sodipodi:type="inkscape:persp3d"
       inkscape:vp_x="0 : 0.5 : 1"
       inkscape:vp_y="0 : 1000 : 0"
       inkscape:vp_z="1 : 0.5 : 1"
       inkscape:persp3d-origin="0.5 : 0.33333333 : 1"
       id="perspective4413" />
    <clipPath
       id="clipPath1556">
      <path
         id="path1554"
         d="m 0 842 h 595 v -842 h -595 v 842 z" />
    </clipPath>
    <clipPath
       id="clipPath1560">
      <path
         id="path1558"
         d="m 0 842 h 595 v -842 h -595 v 842" />
    </clipPath>
    <clipPath
       clipPathUnits="userSpaceOnUse"
       id="b">
      <path
         d="m2 2l10 115c9 104 153 104 162 0l10-115z"
         id="a" />
    </clipPath>
    <clipPath
       id="Form">
      <path
         d="m-60-70v80a60 60 0 1 0 120 0v-80z"
         id="Rahmen" />
    </clipPath>
    <clipPath
       id="Form_erstes_Feld">
      <rect
         fill="none"
         stroke-width="1.8"
         x="-60"
         y="-70"
         stroke="#000"
         width="60"
         height="70"
         id="erstes_Feld" />
    </clipPath>
    <pattern
       x="-1"
       y="1"
       patternTransform="rotate(2.5)"
       patternUnits="userSpaceOnUse"
       width="16"
       height="10"
       id="Raute">
      <path
         id="path957"
         fill="#fff"
         d="m0 5l8 5 8-5-8-5z"
         stroke-width=".5"
         stroke="#000" />
    </pattern>
  </defs>
  <sodipodi:namedview
     pagecolor="#ffffff"
     bordercolor="#666666"
     borderopacity="1"
     objecttolerance="10"
     gridtolerance="10"
     guidetolerance="10"
     inkscape:pageopacity="0"
     inkscape:pageshadow="2"
     inkscape:window-width="1920"
     inkscape:window-height="1017"
     id="namedview64"
     showgrid="false"
     inkscape:zoom="0.40163665"
     inkscape:cx="-34.871935"
     inkscape:cy="338.35361"
     inkscape:window-x="-8"
     inkscape:window-y="-8"
     inkscape:window-maximized="1"
     inkscape:current-layer="g6" />
  <g
     id="g6"
     style="color:#000000">
    <path
       d="M 500,150 V 0 H 0 v 150"
       id="path2"
       inkscape:connector-curvature="0"
       style="fill:#ffffff;fill-opacity:1" />
    <path
       d="M 500,300 V 150 H 0 v 150"
       id="path4"
       inkscape:connector-curvature="0"
       style="fill:#0f47af;fill-opacity:1" />
    <g
       id="g970"
       transform="matrix(0,1,1,0,0,0)">
      <path
         style="display:inline;overflow:visible;visibility:visible;fill:#da121a;fill-opacity:1;fill-rule:evenodd;stroke:none;stroke-width:0;stroke-linecap:round;stroke-linejoin:round;stroke-miterlimit:4;stroke-dashoffset:0;stroke-opacity:1;marker:none;marker-start:none;marker-mid:none;marker-end:none;enable-background:accumulate"
         id="ankerkreuz3"
         d="M 62.5,15 C 56.75708,15.107498 51,19.729548 51,25 c 0,1.983481 0.626439,3.428763 1.5,5 5.571952,-5.25 15,-5.322082 15,0 V 75 H 24 c -5.322084,0 -6.75,-9.678048 0,-15 -1.923195,-1.378041 -3.243502,-1.5 -5,-1.5 -6.640529,0 -9.1893477,5.960484 -10,11.5 0.117566,7.5 2.119728,10.512168 5.5625,12.5 C 11.119728,84.487835 9,87.5 9,95 c 0.1074978,5.74292 4.729549,11.5 10,11.5 1.983481,0 3.428762,-0.62644 5,-1.5 -5.25,-5.571948 -5.322083,-15 0,-15 h 43.5 v 45 c 0,5.32208 -9.428052,5.25 -15,0 -0.87356,1.57123 -1.5,3.01652 -1.5,5 0,5.27045 5.75708,9.8925 11.5,10 7.5,0 10.512165,-2.11972 12.5,-5.5625 1.987832,3.44278 5,5.44493 12.5,5.5625 5.539516,-0.81066 11.5,-3.35947 11.5,-10 0,-1.7565 -0.121962,-3.0768 -1.5,-5 -5.321952,6.75 -15,5.32208 -15,0 V 90 H 129 c 5.32208,0 5.25,9.428052 0,15 1.57123,0.87356 3.01652,1.5 5,1.5 5.27045,0 9.8925,-5.75708 10,-11.5 0,-7.5 -2.11972,-10.512165 -5.5625,-12.5 3.44278,-1.987832 5.44493,-5 5.5625,-12.5 -0.81066,-5.539516 -3.35947,-11.5 -10,-11.5 -1.7565,0 -3.0768,0.121959 -5,1.5 6.75,5.321952 5.32208,15 0,15 H 82.5 V 30 c 0,-5.322082 9.678048,-6.75 15,0 C 98.878038,28.076807 99,26.756497 99,25 99,18.359469 93.039516,15.810652 87.5,15 80,15.117566 76.987832,17.119728 75,20.5625 73.012165,17.119728 70,15 62.5,15 Z"
         inkscape:connector-curvature="0" />
    </g>
  </g>
</svg>
