<?xml version="1.0" encoding="UTF-8" standalone="no"?>
<!-- Created with Inkscape (http://www.inkscape.org/) -->

<svg id="svg4886" version="1.1" width="263.4375" height="371.25" viewBox="0 0 263.4375 371.25" xmlns="http://www.w3.org/2000/svg" xmlns:svg="http://www.w3.org/2000/svg" xmlns:rdf="http://www.w3.org/1999/02/22-rdf-syntax-ns#" xmlns:cc="http://creativecommons.org/ns#" xmlns:dc="http://purl.org/dc/elements/1.1/">
  <metadata id="metadata4892">
    <rdf:RDF>
      <cc:Work rdf:about="">
        <dc:format>image/svg+xml</dc:format>
        <dc:type rdf:resource="http://purl.org/dc/dcmitype/StillImage" />
      </cc:Work>
    </rdf:RDF>
  </metadata>
  <defs id="defs4890" />
  <path d="m 32.963497,26.427926 h 0.733882 q 2.690903,-0.122314 5.504118,-0.733883 2.690903,-0.611568 5.381804,-1.590078 1.834707,-0.856197 2.568589,-2.323961 0.611568,-1.590078 0.122314,-3.180157 -0.611569,-1.712392 -2.323961,-2.813216 -1.95702,-1.345451 -4.892549,-1.467765 -5.87106,0.244628 -10.274354,0 -4.036353,-0.244627 -7.094197,-1.100823 -4.036352,-1.345451 -5.137176,-0.122314 -1.100824,1.100824 1.345451,4.647922 4.403294,5.014863 7.094197,6.727255 3.424784,2.446275 6.971882,1.95702 z m 0.97851,13.821451 0.733882,-0.122314 1.95702,-0.244627 q 6.360314,-0.489255 9.418157,-0.611569 4.89255,-0.244627 7.461137,0.244628 4.770236,0.244627 6.482628,-2.690902 1.590079,-2.93553 -1.223137,-5.748745 -4.525608,-3.057843 -6.849568,-3.302471 -1.834707,-0.122313 -5.626432,1.345451 -1.590079,0.611568 -2.690903,0.97851 -1.712391,0.489255 -3.424784,1.100823 -5.748745,1.712393 -13.209883,2.079334 -4.892549,0.122314 -16.267726,-0.122314 -4.525608,-0.366941 -5.871059,1.345451 -1.4677647,2.201647 4.1586668,5.871059 5.1371772,3.057844 6.7272552,3.302471 1.467765,0.366942 5.381804,-0.733882 2.813216,-0.733883 4.89255,-1.223138 3.669411,-0.856196 7.950392,-1.467765 z m 1.467765,5.014863 q 8.561961,0 14.43302,4.892549 6.360314,5.137177 6.360314,13.821452 0,6.360315 -5.871059,11.742119 -5.871059,5.504117 -13.08757,5.504117 -7.338823,0 -14.066079,-5.871058 -7.094196,-6.115687 -7.094196,-13.576825 0,-6.115687 5.381804,-11.13055 5.871059,-5.381804 13.943766,-5.381804 z m 1.345451,9.295844 q -4.403295,0 -7.338824,2.323961 -2.813216,2.323961 -2.813216,5.25949 0,3.057844 2.93553,5.626432 2.935529,2.690902 6.727255,2.690902 5.137177,0 7.583451,-1.834706 2.568589,-1.712393 2.568589,-5.137177 0,-3.547097 -3.057844,-6.238 -2.935529,-2.690902 -6.604941,-2.690902 z m 39.140393,-36.082551 0.244628,32.168511 q 0,7.094197 0.856196,14.06608 0.489255,3.914039 1.712393,10.274353 0.978509,4.647922 1.223136,6.727255 0.366942,3.180157 0,5.504118 -1.590078,6.360314 -1.100823,7.094196 0.489254,0.856197 3.669412,-5.993373 l 1.590079,-3.914039 q 2.446274,-5.25949 3.424784,-8.684274 1.834706,-5.871059 1.834706,-12.353687 3.424784,0.122313 6.971882,0.733882 2.079334,0.366941 5.504121,0.97851 5.50411,1.223137 7.09419,0.856195 2.44628,-0.611568 3.18016,-4.525607 0.48926,-3.057843 -1.10082,-4.89255 -1.95703,-2.201646 -6.97189,-3.057842 -2.81321,-0.489255 -4.525603,-0.122314 -1.100824,0.244627 -2.568589,1.100824 -1.590079,0.856195 -2.690902,1.223136 -1.95702,0.733883 -4.770235,0.97851 v -38.03957 q 0,-1.100823 0,-2.323961 0.122313,-0.611568 0.36694,-1.712392 0.244628,-2.32396 0,-3.424784 Q 89.350127,9.5486311 87.270793,7.8362388 82.011303,3.677572 76.99644,1.5982386 72.837774,-0.11415368 69.412988,0.00816006 q -3.057842,0 -4.158666,1.34545104 -1.100824,1.2231373 0.489255,2.8132158 l 0.366941,0.2446275 q 4.892549,4.7702354 6.727256,7.0941966 2.935529,3.669412 3.057842,6.971882 z m -36.449491,76.323768 0.244627,0.244628 q 2.935529,2.568588 5.137177,5.504111 1.223137,1.83471 3.180157,5.13718 1.712392,3.05784 2.690902,4.52562 1.712393,2.56858 4.158667,4.77023 4.525608,3.66941 8.317334,4.64792 3.547098,0.9785 9.785098,0.24463 9.17353,-1.7124 12.353686,-5.2595 2.690903,-3.05784 0.611569,-7.2165 -1.957019,-2.44628 -4.28098,-2.44628 -1.467765,0 -5.259491,1.22314 -4.525608,1.59008 -7.583451,2.07933 -5.504118,0.8562 -11.49749,0.24463 -0.97851,-1.22314 -1.467765,-2.81322 -0.733883,-2.20164 -1.100824,-5.3818 -0.122314,-1.100825 -0.122314,-2.323962 0,-0.611569 0,-1.957019 0.122314,-4.280981 -1.223137,-5.748746 -2.079333,-2.446275 -9.907412,-4.036352 -7.094196,-0.97851 -8.684275,1.34545 -1.712392,2.323961 4.647922,7.21651 z m 29.84455,82.317149 0.733882,-0.24463 q 0.366941,6.48263 1.223138,12.23138 0.611568,3.30247 1.590079,8.0727 0.733882,3.79173 0.856196,5.13717 0.122313,2.20165 -0.366941,3.79173 -16.267727,3.79172 -28.376786,4.28099 -7.338825,0.36694 -18.591688,-0.73389 l -1.590078,-0.12231 q -2.93553,-0.12232 -3.669412,0.9785 -0.611568,1.10083 0.733882,2.93554 1.345451,1.71239 4.280982,3.54709 3.057842,2.07934 6.971882,3.66942 4.647921,1.95702 6.727255,2.07933 1.467765,0.12232 4.403294,-1.22314 4.280981,-1.83471 8.561961,-3.05784 7.338824,-2.07933 18.591687,-3.30247 0,5.13717 0.611569,10.15204 0.366942,2.93553 1.223138,7.46113 0.611568,2.93554 0.733881,4.15868 0.244628,1.95701 0.122314,3.18015 0,0.61157 -0.244627,1.71239 0,0.61157 -0.244627,1.8347 -0.611569,3.18017 -0.122314,3.18017 0.856196,-0.12232 5.014863,-5.99337 l 0.733882,-1.22314 q 2.690902,-3.79173 3.547099,-6.60495 1.467765,-4.64791 1.467765,-12.84293 0,-0.85621 0.36694,-1.83471 0.244627,-0.48926 0.97851,-1.83471 1.712392,-3.18016 0.733882,-5.01486 -1.590078,-2.81322 -10.029725,-5.50412 4.403294,-3.42478 5.993373,-7.46114 1.100823,-2.44627 1.345451,-7.2165 0.122314,-1.83471 0.244627,-2.5686 0.122314,-1.59008 0.489254,-2.6909 l 0.611569,-1.46776 q 1.223138,-2.32397 0.489255,-3.54711 -1.223136,-2.32395 -7.338823,-5.13717 5.25949,-0.24463 10.396667,0.12232 2.935529,0.24462 7.583451,0.97851 5.381798,0.73388 7.094198,0.36693 2.44628,-0.48925 3.66941,-3.6694 1.10082,-3.42479 -1.46776,-5.99338 -2.93554,-2.81321 -9.785103,-4.15866 -4.403294,-0.97852 -6.727255,-0.61157 -1.590079,0.12231 -4.403295,1.34545 -3.791725,1.71239 -7.338823,2.6909 -6.115687,1.71239 -15.289216,3.05785 0.122313,-0.85621 1.467764,-1.83471 0.856196,-0.61157 3.302471,-1.95702 4.158667,-2.32396 6.360314,-4.03636 3.791726,-2.6909 6.238,-5.87105 1.223137,-1.22314 2.690902,-2.20165 0.856197,-0.61157 2.323962,-1.59008 2.813215,-1.83471 3.30247,-3.05785 0.611569,-1.8347 -1.100824,-5.99337 -1.834706,-5.01486 -7.828078,-11.13054 -6.849569,-6.84958 -11.252863,-6.11569 -3.424786,0.36693 -11.252864,3.05784 -4.525608,1.46777 -13.087569,4.64792 l -5.504118,2.07933 q -8.072706,2.56859 -5.993372,5.74876 2.079333,3.18015 12.353686,5.74874 2.93553,0.61157 4.403294,0.24463 1.100824,-0.36695 3.180158,-1.83471 2.446274,-1.95702 4.525607,-3.18016 3.791726,-2.20164 9.051216,-4.15867 3.057844,-0.73388 5.504118,2.93553 2.446275,3.42479 1.590079,6.23801 -1.712393,4.77023 -5.993373,11.86443 -3.914039,6.48263 -7.21651,10.51897 -18.102432,1.34546 -31.190002,1.22314 -7.58345,-0.12231 -18.5916864,-0.97851 l -5.5041179,-0.36693 q -2.2016472,-0.24464 -3.18015702,0.73387 -0.85619611,0.97852 0,2.5686 0.85619612,1.8347 3.54709812,3.91403 3.0578434,2.32396 8.0727062,4.64793 5.748745,2.6909 7.705765,2.93553 1.834706,0.24462 5.626432,-0.97852 6.360313,-2.07933 13.209882,-3.30247 12.10906,-2.20165 30.700747,-3.42478 z m -39.01808,97.85098 q 9.17353,0 16.634668,6.97189 7.705764,7.33882 7.705764,17.36854 0,9.6628 -6.727255,16.14542 -6.971882,6.72725 -18.469373,6.72725 -9.662785,0 -17.613178,-7.2165 -7.8280782,-7.21651 -7.8280782,-15.65617 0,-10.88592 6.2380012,-17.36854 6.971882,-6.97189 20.059451,-6.97189 z m -0.856196,11.13056 q -6.604942,0 -11.008236,4.77023 -3.547098,4.03635 -3.547098,8.07271 0,3.66941 4.158667,7.58345 4.647921,4.40329 10.396667,4.40329 6.115687,0 10.518981,-4.03636 3.914039,-3.6694 3.914039,-7.95038 0,-4.28098 -4.280981,-8.43966 -4.647921,-4.40328 -10.152039,-4.40328 z m 45.989962,-16.14542 0.366942,26.54208 q -3.547098,1.10082 -8.561961,1.46777 -3.669413,0.12231 -7.705766,0 -4.403294,-0.73389 -4.647921,2.07933 -0.366942,2.93553 4.892549,6.60494 4.158666,3.05784 6.360314,3.30247 1.467765,0.24463 3.791725,-1.22314 1.467765,-0.85619 2.446276,-1.22314 1.590077,-0.73387 3.547097,-1.10082 0,16.63467 1.100824,29.11067 0.611569,7.21652 1.95702,15.90079 0.733882,5.01485 0.856195,6.97188 0.244628,3.05784 -0.244627,5.99337 -1.34545,6.48263 -0.366941,6.84957 1.100824,0.36695 3.547099,-6.11569 l 0.611568,-1.95702 q 2.935529,-8.19502 4.158667,-15.28921 1.95702,-11.86443 1.95702,-32.29083 v -45.86764 q -0.122314,-1.10083 0,-2.07934 0.122313,-0.61156 0.244627,-1.71239 0.366941,-2.6909 -0.244627,-3.91404 -0.733882,-1.95702 -3.91404,-4.28098 -5.25949,-3.79172 -10.274353,-5.62643 -4.403295,-1.46777 -7.705765,-1.22314 -3.057844,0.12231 -4.036354,1.46777 -0.978509,1.34544 0.856197,2.93552 5.626431,5.13718 7.828079,7.9504 3.180156,3.79173 3.180156,6.72725 z" id="path4" style="stroke-width:0.997454" />
  <path d="m 214.72168,29.485769 v 0.489255 q 1.46777,1.712392 -1.71239,6.727255 -2.81321,4.403294 -8.43964,9.907412 -5.62644,5.259491 -11.13056,9.051216 -5.99337,4.158668 -9.29584,4.647922 -7.2165,0.122314 -9.54047,1.712392 -2.32396,1.590079 7.33882,0.856197 11.00824,-0.366942 21.64954,-5.381805 8.0727,-3.791725 18.22474,-11.49749 4.03636,1.345451 7.9504,3.914039 4.5256,3.057844 8.9289,7.583451 4.03635,3.791726 7.46113,1.590079 3.5471,-2.323961 2.32396,-9.051217 -1.95701,-4.403294 -5.3818,-5.871058 -2.20165,-0.856196 -7.21651,-1.100823 -3.18016,0 -4.89255,-0.244628 -2.6909,-0.489255 -4.89255,-1.467765 l 0.73389,-0.97851 q 1.83471,-1.712392 2.32396,-2.446274 0.73387,-1.223138 0.36694,-2.446275 -0.36694,-1.223138 -2.20165,-3.057843 -1.83471,-1.712393 -5.62644,-4.403294 l 1.95703,-0.244628 q 4.77023,-0.366941 7.0942,-0.489255 3.54709,-0.122313 7.58345,0.122314 1.95701,0.122314 3.91404,-0.611569 1.95701,-0.856196 2.93552,-2.323961 0.97851,-1.712392 0.24463,-3.669412 -0.8562,-2.323961 -3.66941,-4.403294 -4.77024,-2.323961 -7.21651,-2.323961 -1.59008,0.122314 -4.52561,1.834706 -2.32396,1.345451 -3.79172,2.079333 -2.69091,1.345451 -5.87106,2.323961 -7.82808,1.712393 -16.51236,2.079334 -6.97188,0.122314 -14.92227,-0.489255 -1.83471,-0.366941 -3.42478,0.244628 -1.7124,0.489255 -2.07934,1.712391 -0.48925,1.345451 1.10083,3.057844 1.95701,1.957019 6.60494,4.158667 5.62643,2.446275 8.19501,2.568588 1.83471,0.122313 4.64793,-1.223137 2.20165,-0.97851 3.91404,-1.590079 2.93552,-0.856196 6.84956,-1.345451 z m 14.43303,59.689101 -0.12232,-0.122314 q -0.12231,-2.813215 0.24463,-5.504118 0.12231,-1.590079 0.61156,-4.158667 0.85621,-4.647921 -0.24462,-6.482628 -1.59007,-2.446274 -8.9289,-5.993373 -6.60495,-2.935529 -9.54047,-1.100823 -2.81322,1.834706 0.73388,6.727255 3.5471,4.403294 5.87106,9.662785 2.20165,5.014863 1.95702,7.583451 -13.45451,0.97851 -28.98836,1.100824 -15.77847,0.122314 -26.41976,-0.611569 -7.21651,-0.97851 -7.70577,2.079333 -0.61157,3.424785 10.39667,9.295844 5.99338,3.05785 8.56196,3.42478 1.83471,0.24464 5.01487,-1.10082 1.59007,-0.73388 2.56858,-1.10082 1.83471,-0.73389 3.79173,-1.10083 12.10906,-2.690898 25.44125,-3.791722 13.57683,-1.100823 28.86604,-0.489255 2.69091,0 5.74875,0.366941 1.83471,0.244628 4.89255,0.856196 5.13717,0.978511 6.84957,0.489255 2.6909,-0.611568 3.91404,-4.403294 0.48925,-2.93553 -1.46777,-5.014863 -2.56858,-2.690902 -9.29584,-4.525607 -4.40329,-1.223138 -7.0942,-0.856197 -1.71239,0.244628 -4.40329,1.712393 -2.44627,1.223136 -4.28098,1.834705 -2.93553,0.856196 -6.97188,1.223138 z m -40.9751,64.70397 v 0.61157 q -1.10083,3.66941 -11.74212,16.75698 -11.00823,13.57683 -14.43302,14.18839 -3.30247,0.12232 -4.77024,0.73389 -1.34545,0.48925 -0.8562,1.22313 0.36695,0.73388 2.07934,0.97851 1.8347,0.36694 4.03635,0 6.23801,-0.97851 13.57683,-5.01486 7.33882,-3.91404 13.4545,-9.66278 2.81322,1.46776 5.13718,8.31733 1.22314,3.91403 3.05784,12.35369 l 0.97852,4.28097 q 0.24462,2.07934 0.97851,2.32397 1.10082,0.48925 3.66941,-2.07933 l 0.61157,-0.73389 q 2.20165,-2.44627 2.93553,-4.77023 0.97851,-3.79173 0.36694,-12.3537 0,-5.99337 -1.95703,-8.80658 -1.34544,-1.83471 -5.25948,-4.03635 l -3.18016,-1.95702 3.54709,-3.79172 q 4.03636,-3.91405 4.64793,-6.11569 0.85619,-3.42479 -3.18015,-8.31734 -4.89255,-5.87106 -10.27436,-8.0727 -5.01486,-1.95702 -7.58345,0.36693 -1.95702,1.83471 -0.97851,4.64793 0.48925,1.59008 2.81321,5.01487 0.97851,1.34544 1.34546,2.07933 0.73387,0.97851 0.97851,1.8347 z m 43.91062,-9.66278 0.24463,15.28921 q -5.87105,1.59008 -10.27435,2.20165 -4.03635,0.48925 -9.17353,0.48925 -5.13718,-0.12231 -5.13718,2.56859 -0.12231,3.05785 7.70577,7.46114 4.15866,2.20165 6.36031,2.20165 1.46776,0 3.79173,-1.46777 1.59007,-0.97851 2.6909,-1.46776 1.83471,-0.85619 4.03635,-1.34546 0,9.17354 0.61157,17.7355 0.24463,4.89255 1.10083,12.10906 0.61157,5.87106 0.61157,8.07271 0.1223,3.30247 -0.48927,5.62643 -1.59007,5.25949 -0.85619,5.87106 0.85619,0.73387 4.52561,-5.99338 3.42478,-6.238 5.13717,-12.59831 3.05785,-11.00824 3.05785,-27.15365 v -28.74372 q 0,-0.97852 0,-2.07934 0.12231,-0.61157 0.36694,-1.8347 0.36694,-2.81322 0.12232,-4.15868 -0.48926,-2.07933 -2.93554,-3.66941 -6.23799,-4.77023 -11.61979,-6.72726 -4.52561,-1.71238 -7.70577,-1.34544 -2.81322,0.24462 -3.79173,1.71239 -0.8562,1.34545 0.61157,2.44627 5.25949,5.01487 7.33882,7.58345 3.66941,4.28098 3.66941,7.21652 z m -35.83792,64.33702 h -0.73388 q -5.01486,0 -5.38181,2.56858 -0.36694,2.81322 4.89255,8.31734 2.5686,3.05784 5.3818,7.21651 1.46778,2.44627 4.15868,6.97188 l 3.66941,5.87106 q 2.93553,4.15866 7.09419,5.74875 3.54711,1.34545 8.56196,0.85619 8.56197,-0.9785 14.55534,-3.66941 7.33882,-3.18015 7.33882,-7.46114 0,-2.93552 -2.32396,-4.28098 -2.44627,-1.46776 -6.238,-0.73388 -7.46113,1.95702 -11.49749,2.69091 -5.99337,1.10082 -12.23138,1.10082 -2.20164,-0.73389 -2.56858,-3.18016 -0.24462,-1.59008 0.24463,-5.50411 0.48925,-3.18017 0.48925,-4.77025 0,-2.44627 -0.8562,-3.91403 -1.71238,-3.42479 -5.25948,-5.38181 -3.66941,-1.8347 -9.29585,-2.44627 z m -9.41816,66.41635 q 9.17354,0 16.63467,6.97189 7.70577,7.33882 7.70577,17.36854 0,9.6628 -6.72726,16.14542 -6.97188,6.72725 -18.46937,6.72725 -9.66278,0 -17.61318,-7.2165 -7.82807,-7.21651 -7.82807,-15.65617 0,-10.88592 6.23799,-17.36854 6.97188,-6.97189 20.05945,-6.97189 z m -0.85619,11.13056 q -6.60494,0 -11.00824,4.77023 -3.54709,4.03635 -3.54709,8.07271 0,3.66941 4.15866,7.58345 4.64793,4.40329 10.39667,4.40329 6.11569,0 10.51898,-4.03636 3.91403,-3.6694 3.91403,-7.95038 0,-4.28098 -4.28097,-8.43966 -4.64792,-4.40328 -10.15204,-4.40328 z m 45.98997,-16.14542 0.36693,26.54208 q -3.5471,1.10082 -8.56195,1.46777 -3.66942,0.12231 -7.70577,0 -4.4033,-0.73389 -4.64793,2.07933 -0.36694,2.93553 4.89255,6.60494 4.15867,3.05784 6.36032,3.30247 1.46776,0.24463 3.79173,-1.22314 1.46776,-0.85619 2.44627,-1.22314 1.59007,-0.73387 3.5471,-1.10082 0,16.63467 1.10082,29.11067 0.61156,7.21652 1.95702,15.90079 0.73389,5.01485 0.85619,6.97188 0.24463,3.05784 -0.24462,5.99337 -1.34546,6.48263 -0.36694,6.84957 1.10083,0.36695 3.5471,-6.11569 l 0.61157,-1.95702 q 2.93553,-8.19502 4.15866,-15.28921 1.95702,-11.86443 1.95702,-32.29083 v -45.86764 q -0.12231,-1.10083 0,-2.07934 0.12231,-0.61156 0.24463,-1.71239 0.36694,-2.6909 -0.24463,-3.91404 -0.73388,-1.95702 -3.91404,-4.28098 -5.25948,-3.79172 -10.27435,-5.62643 -4.40329,-1.46777 -7.70577,-1.22314 -3.05784,0.12231 -4.03635,1.46777 -0.97851,1.34544 0.8562,2.93552 5.62642,5.13718 7.82807,7.9504 3.18017,3.79173 3.18017,6.72725 z" id="path5" style="stroke-width:0.997454" />
</svg>
