<?xml version="1.0" encoding="utf-8"?>
<!-- Generator: Adobe Illustrator 21.0.0, SVG Export Plug-In . SVG Version: 6.00 Build 0)  -->
<svg version="1.1" id="Layer_1" xmlns="http://www.w3.org/2000/svg" xmlns:xlink="http://www.w3.org/1999/xlink" x="0px" y="0px"
	 viewBox="0 0 164.2 44.6" style="enable-background:new 0 0 164.2 44.6;" xml:space="preserve">
<style type="text/css">
	.st0{fill:#E52713;}
	.st1{clip-path:url(#SVGID_2_);}
	.st2{clip-path:url(#SVGID_4_);}
	.st3{clip-path:url(#SVGID_6_);}
	.st4{clip-path:url(#SVGID_8_);}
</style>
<polygon class="st0" points="66.2,44.6 88.3,22.5 66.2,0.3 "/>
<polygon class="st0" points="22.1,0.4 44.2,22.5 66.2,0.4 "/>
<polygon class="st0" points="0,22.5 22.1,44.6 22.1,0.4 "/>
<polygon class="st0" points="22.1,44.6 66.2,44.6 44.2,22.5 "/>
<g>
	<defs>
		<rect id="SVGID_1_" width="164.2" height="44.6"/>
	</defs>
	<clipPath id="SVGID_2_">
		<use xlink:href="#SVGID_1_"  style="overflow:visible;"/>
	</clipPath>
	<path class="st1" d="M129.9,43.1c0.5-0.4,0.8-1,1-1.3h-4.7c0.2,0.2,0.7,0.7,1.1,1.3H129.9z M123.9,40.4h9.2v-1.1h-9.2V40.4z
		 M131.5,33.8v-1h-1.9v-1.2h1.9V31h-1.9v-1.2h1.9V29h-1.9v-1.2h1.9v-1.2h1.4v1.2h1.8V29h-1.8v0.7h1.8V31h-1.8v0.7h1.8v1.2h-1.8v1
		h1.9v-6.1h1.6v7.6h-15.8v-7.6h1.7v6.1h1.9l-0.1-0.8h-1.5v-1.3h1.5l0.1-0.7h-1.7v-1.2h1.7l-0.1-0.7h-1.5v-1.2h1.5v-1.2h1.6v1.2h1.8
		V29h-1.8v0.7h1.8V31h-1.8v0.7h1.8V33h-1.8v0.8h2v-7.6h1.7v7.6H131.5z M137,37.4h-17v-1.6h17V37.4z M122.4,38h12.5v3.7h-2.2
		c-0.2,0.5-0.6,1.1-0.8,1.3h5.9v1.6h-18.3v-1.6h6.1c-0.4-0.6-1-1-1.3-1.3h-1.9L122.4,38z M107.4,28.8l0.2-0.5h-1.3l0.4,0.2
		c0,0.7-0.4,1.3-0.4,1.8h2.5C108.7,29.7,108.1,29.3,107.4,28.8 M108.7,38.5h-2.9v2h2.9V38.5z M105.8,37h2.9v-1.7h-2.9V37z
		 M105.8,33.7h2.9v-1.8h-2.9V33.7z M102.6,28.3v5.8c1.2-1.2,2.2-3.4,2.5-5.8H102.6z M101,44.6V26.7h13.8v1.6h-5.6
		c0.5,0.5,1,0.8,1.3,1.5l-0.2,0.5h4.2v1.6h-4.2v1.8h3.5v1.6h-3.5V37h3.5v1.5h-3.5v2h4.3v1.6h-10.4v-7.5c0,0.1-0.2,0.7-0.7,1.2
		c-0.4-0.2-0.8-0.7-0.8-0.7v7.9h12.6v1.6H101z M99.9,30.1c-0.7-1.6-2-2.4-2.9-2.8l1.1-1.1c1.3,0.6,2.2,1.4,2.9,2.6L99.9,30.1z
		 M97.2,44.6l-1.5-1c2-2.3,3-5.3,3.5-7.7l1.4,0.7C100.3,39.6,98.9,42.5,97.2,44.6 M98.6,35c-0.5-1.1-1.6-2.5-2.9-3.4l1.1-1
		c0.9,0.6,2.3,1.8,3.1,3.1L98.6,35z M107.9,11h-8.2V19h-4V0.3h4v7.6h8.2V0.3h4V19h-4V11z"/>
</g>
<g>
	<defs>
		<rect id="SVGID_3_" x="114.1" y="0.1" width="15.1" height="19.2"/>
	</defs>
	<clipPath id="SVGID_4_">
		<use xlink:href="#SVGID_3_"  style="overflow:visible;"/>
	</clipPath>
	<path class="st2" d="M121.4,19.2c-4,0-7.2-1.5-7.3-5.9h4c0.1,1.9,1.2,3.1,3.4,3.1c1.7,0,3.5-0.8,3.5-2.6c0-1.5-1.2-1.9-3.2-2.6
		l-1.5-0.2c-2.8-0.8-5.6-2-5.6-5.3c0-4.2,3.7-5.6,7.2-5.6c3.7,0,6.8,1.3,6.8,5.5h-4.1c-0.1-1.7-1.2-2.8-3-2.8c-1.6,0-3,0.7-3,2.4
		c0,1.3,1.2,1.8,3.8,2.6l1.6,0.4c3.2,1.1,5.2,2.3,5.2,5.3C129.1,17.6,125.2,19.2,121.4,19.2"/>
</g>
<g>
	<defs>
		<rect id="SVGID_5_" width="164.2" height="44.6"/>
	</defs>
	<clipPath id="SVGID_6_">
		<use xlink:href="#SVGID_5_"  style="overflow:visible;"/>
	</clipPath>
	<path class="st3" d="M138.2,16.1c1.8,0,3.7-0.4,3.7-2.5c0-2.3-1.7-2.8-3.5-2.8h-3.2v5.3H138.2z M137.9,8c1.8,0,3.6-0.2,3.6-2.4
		c0-2-1.7-2.5-3.4-2.5h-2.9V8H137.9z M131.4,0.4h6.5c2,0,2.8,0.1,3.6,0.4c2.2,0.5,3.9,1.9,3.9,4.3c0,2.5-1.3,3.7-3.6,4.2
		c2.5,0.5,4.3,1.8,4.3,4.6c0,4.2-4.2,5.2-7.5,5.2h-7.2V0.4z"/>
</g>
<g>
	<defs>
		<rect id="SVGID_7_" x="147.8" y="0.1" width="16.3" height="19.2"/>
	</defs>
	<clipPath id="SVGID_8_">
		<use xlink:href="#SVGID_7_"  style="overflow:visible;"/>
	</clipPath>
	<path class="st4" d="M156.6,19.2c-6,0-8.8-3.7-8.8-9.5c0-5.4,3-9.7,9-9.7c3.6,0,7.2,1.7,7.2,5.9h-4.1c-0.1-1.8-1.4-2.8-3.1-2.8
		c-3.7,0-4.8,4-4.8,6.7c0,3,1.1,6.6,4.7,6.6c1.8,0,3.1-1.1,3.3-2.9h4.1C163.8,17.6,160.4,19.2,156.6,19.2"/>
</g>
</svg>
