<?xml version="1.0" encoding="UTF-8" ?>
<!DOCTYPE svg PUBLIC "-//W3C//DTD SVG 1.1//EN" "http://www.w3.org/Graphics/SVG/1.1/DTD/svg11.dtd">
<svg width="400pt" height="400pt" viewBox="0 0 400 400" version="1.1" xmlns="http://www.w3.org/2000/svg">
<g id="#ffffffff">
</g>
<g id="#ff0000ff">
<path fill="#ff0000" opacity="1.00" d=" M 193.27 19.10 C 196.49 18.67 199.76 18.57 202.99 18.94 C 208.11 19.59 213.29 19.24 218.41 19.91 C 249.10 23.34 278.69 35.21 303.64 53.34 C 311.13 59.48 318.91 65.34 325.57 72.42 C 351.95 98.91 369.57 133.85 375.69 170.70 C 382.45 209.40 376.16 250.18 358.34 285.18 C 341.11 318.92 313.38 347.43 279.50 364.57 C 258.88 375.22 236.11 381.77 212.96 383.56 C 165.55 387.93 116.72 371.45 81.23 339.76 C 49.61 312.66 28.43 273.96 21.35 233.01 C 13.54 188.06 23.01 140.24 47.91 101.95 C 52.57 93.86 59.02 87.03 64.70 79.68 C 96.75 42.93 144.40 19.94 193.27 19.10 M 125.80 60.63 C 107.19 70.47 90.23 83.48 76.06 99.06 C 51.40 133.36 38.83 176.34 41.83 218.54 C 44.54 237.01 50.05 255.05 58.04 271.92 C 58.70 273.36 59.50 274.75 60.42 276.06 C 64.01 284.13 68.83 291.60 74.06 298.70 C 74.55 298.58 75.51 298.35 75.99 298.23 C 75.66 298.46 74.99 298.90 74.66 299.12 C 78.57 305.72 83.84 311.38 88.89 317.11 C 90.06 318.29 92.16 321.08 93.55 318.58 C 105.27 303.69 117.65 289.32 129.14 274.25 C 132.24 271.59 134.27 267.97 136.94 264.92 C 139.40 261.68 142.54 258.93 144.51 255.32 C 150.24 249.07 155.28 242.20 160.73 235.70 C 170.07 223.71 180.27 212.37 189.25 200.11 C 191.54 197.79 193.72 195.35 195.61 192.69 C 198.94 188.08 203.20 184.20 206.16 179.33 C 209.96 175.36 213.19 170.90 216.67 166.66 C 228.90 151.46 241.43 136.49 253.44 121.11 C 257.70 116.28 261.71 111.23 265.56 106.07 C 265.20 105.56 264.48 104.55 264.12 104.04 C 264.59 104.47 265.55 105.32 266.02 105.75 C 274.97 94.85 283.80 83.84 292.69 72.88 C 290.39 70.53 287.56 68.83 284.68 67.28 C 256.07 49.89 222.41 41.21 188.99 41.78 C 166.85 43.28 145.40 50.44 125.80 60.63 M 280.77 126.04 C 281.04 126.48 281.59 127.37 281.86 127.82 C 280.50 126.51 278.97 128.00 278.12 129.06 C 274.27 133.88 270.57 138.82 266.61 143.54 C 265.85 144.62 264.71 145.56 264.52 146.94 C 262.72 147.97 261.53 149.71 260.27 151.31 C 247.90 166.56 235.51 181.81 223.14 197.06 L 223.73 197.91 L 222.93 197.46 C 217.18 204.63 211.00 211.47 205.72 219.01 C 193.98 232.56 183.11 246.85 171.64 260.62 C 169.52 263.38 166.93 265.83 165.52 269.07 C 162.58 270.38 161.27 273.84 159.11 276.12 C 155.76 280.86 151.15 284.69 148.58 289.95 L 147.94 290.01 C 137.29 302.68 127.15 315.79 116.56 328.52 C 114.78 330.56 113.16 332.73 111.68 335.00 C 113.63 336.59 115.74 337.96 118.00 339.09 C 145.39 354.21 176.77 361.95 208.05 361.28 C 223.73 360.32 239.01 356.06 253.66 350.60 C 264.72 345.74 275.81 340.71 285.82 333.90 C 299.09 325.54 310.81 314.96 321.46 303.50 C 345.63 269.53 358.10 227.17 355.34 185.49 C 353.24 170.15 349.27 155.00 343.20 140.74 C 335.37 121.91 324.72 104.02 310.78 89.09 C 300.68 101.32 290.75 113.70 280.77 126.04 Z" />
</g>
<g id="#020100ff">
<path fill="#020100" opacity="1.00" d=" M 200.25 53.32 C 205.15 55.18 209.21 58.60 213.72 61.20 C 232.04 73.52 249.55 87.35 264.12 104.04 C 264.48 104.55 265.20 105.56 265.56 106.07 C 261.71 111.23 257.70 116.28 253.44 121.11 C 241.58 99.11 225.72 79.51 208.17 61.83 C 205.39 59.13 202.17 56.77 200.25 53.32 Z" />
<path fill="#020100" opacity="1.00" d=" M 109.59 152.59 C 126.16 137.68 142.38 122.32 159.00 107.47 C 167.35 106.95 175.61 108.64 183.95 108.70 C 191.02 109.77 198.21 109.33 205.27 110.56 C 203.04 113.84 200.29 116.69 197.51 119.50 C 190.34 127.34 183.42 135.40 176.08 143.07 C 175.29 144.02 173.45 145.46 174.98 146.66 C 180.43 152.65 186.42 158.13 191.81 164.19 C 196.34 169.47 201.34 174.32 206.16 179.33 C 203.20 184.20 198.94 188.08 195.61 192.69 C 193.72 195.35 191.54 197.79 189.25 200.11 C 178.22 187.44 167.38 174.59 156.21 162.04 C 146.19 171.31 136.11 180.53 126.01 189.72 C 115.84 181.89 105.93 173.72 95.79 165.83 C 99.80 160.83 105.14 157.17 109.59 152.59 Z" />
<path fill="#020100" opacity="1.00" d=" M 278.12 129.06 C 278.97 128.00 280.50 126.51 281.86 127.82 C 293.63 146.82 301.05 168.60 302.44 190.96 C 303.27 214.87 296.67 239.22 282.98 258.93 C 282.90 259.16 282.75 259.60 282.68 259.82 C 287.40 265.69 292.94 270.87 298.16 276.30 C 296.02 279.73 292.42 281.80 289.63 284.62 C 284.72 289.43 279.59 294.01 274.71 298.85 C 270.15 293.67 265.64 288.44 261.08 283.26 C 257.04 285.66 253.44 288.71 249.42 291.15 C 238.68 297.48 226.85 302.08 214.51 304.02 C 203.84 306.83 192.33 306.45 181.74 303.37 C 169.94 301.05 158.85 296.09 148.58 289.95 C 151.15 284.69 155.76 280.86 159.11 276.12 C 161.27 273.84 162.58 270.38 165.52 269.07 C 189.48 277.44 217.10 270.94 236.43 255.02 C 226.50 242.76 215.69 231.24 205.72 219.01 C 211.00 211.47 217.18 204.63 222.93 197.46 L 223.73 197.91 C 231.21 205.87 238.84 213.69 246.24 221.73 C 249.67 225.40 252.99 229.21 256.90 232.39 C 273.09 207.21 273.79 174.76 264.52 146.94 C 264.71 145.56 265.85 144.62 266.61 143.54 C 270.57 138.82 274.27 133.88 278.12 129.06 Z" />
<path fill="#020100" opacity="1.00" d=" M 110.01 240.65 C 114.62 239.02 118.76 236.29 123.13 234.14 C 130.36 241.09 137.45 248.19 144.51 255.32 C 142.54 258.93 139.40 261.68 136.94 264.92 C 134.27 267.97 132.24 271.59 129.14 274.25 C 124.55 270.29 121.26 265.08 116.78 261.06 C 113.52 260.72 109.98 261.72 106.83 262.74 C 103.54 265.49 101.16 269.14 98.28 272.29 C 93.27 278.16 90.47 285.57 85.40 291.40 C 82.62 294.12 79.22 296.10 75.99 298.23 C 75.51 298.35 74.55 298.58 74.06 298.70 C 68.83 291.60 64.01 284.13 60.42 276.06 C 67.63 268.54 78.05 265.88 86.79 260.73 C 90.66 257.35 94.90 254.27 98.29 250.38 C 99.35 246.78 99.43 242.99 99.69 239.27 C 103.13 239.70 106.52 240.77 110.01 240.65 Z" />
</g>
</svg>
