<svg width="300" height="300" version="1.0" xmlns="http://www.w3.org/2000/svg">
 <path d="m175.12 104.47c-3.6692-1e-3 -7.3601 0.59465-10.975 1.8018-4.3282 1.4454-8.389 3.5997-12.191 6.113-1.1831 0.78211-2.6811 0.88326-3.9415 0.23197-3.6464-1.8844-10.654-5.9043-11.974-6.345-20.931-6.989-34.026 7.8994-49.466 18.912-7.1596 5.1086-9.7336 9.2828-17.813 12.737-2.0524 0.87749-5.3137 1.444-6.9481 3.177-1.2742 1.3568-1.2284 2.5357-1.2284 3.9415 0 9.3602 24.438 50.482 89.362 50.482 64.924 0 89.473-41.232 89.473-50.292 0-0.54634 0.12127-2.8791-1.0643-4.082-1.7195-1.745-5.0054-2.4043-6.9294-3.2269-8.0792-3.4543-10.653-7.6285-17.812-12.737-7.741-5.5209-14.268-12.585-22.846-16.922-4.9663-2.5114-10.283-3.7893-15.645-3.7912zm-0.0789 36.472 0.33654 0.011 0.358 0.0187 0.71599 0.0367 1.4327 0.0741c1.8596 0.0975 4.2048 0.37008 6.0562 0.60798l5.6622 0.77001c1.8635 0.29285 3.7072 0.49626 5.5639 0.74232 1.85 0.26129 3.7267 0.39133 5.5923 0.59412 1.8642 0.20883 3.7481 0.32692 5.6318 0.48611 3.7606 0.35099 7.5535 0.56231 11.356 0.76793l2.8515 0.19182 0.71393 0.0485 0.17795 0.0118c-0.0752 7e-3 0.0824 4e-3 0.11219 8e-3l0.35938 0.011 1.4389 0.0423 5.7557 0.18904c1.9454 0.13365 3.7893 0.0639 5.674-4e-3 1.9017-2e-3 2.0488 0.60944 0.16481 0.91612-1.9074 0.33964-3.8584 0.66119-5.7502 0.78386l-5.7204 0.48472-1.4306 0.11633-0.358 0.0291-0.42656 0.0214-0.72222 0.0311-2.8889 0.12464c-3.8535 0.14855-7.7148 0.25179-11.597 0.23336-1.9404 0.0251-3.88 3.9e-4 -5.825-0.09-1.9425-0.088-3.8946-0.10316-5.836-0.25206-3.8755-0.20528-7.8186-0.58027-11.511-0.95006-1.9361-0.16273-3.391-0.30237-5.3527-0.34137l-1.4355-0.0201-0.71808-0.01-0.44869-5e-3 -0.045-6.9e-4h-0.0222c-0.14678-2e-3 0.17474 2e-3 0.13503 3e-3l-0.15026 0.0125-2.3966 0.18349c-0.79133 0.0698-1.5079 0.28634-2.272 0.38986-0.75411 0.12905-1.5273 0.422-2.2927 0.61629-0.8041 0.24853-1.6859 0.56714-2.5247 0.84688l-2.8827 0.91057-3.1258 0.75132c-1.0976 0.19181-2.2425 0.33363-3.3667 0.48749-1.2065 0.19075-2.0698 0.18081-3.042 0.23682l-1.4327 0.0679-0.7167 0.0339-0.358 0.0166-0.40925 0.01-0.16342-0.0139c-0.01 8.7e-4 -0.0709 7e-3 -0.12741 0.0125l-0.0242-1e-3 -0.0492-2e-3 -0.19735-9e-3 -0.39401-0.0173-0.78733-0.0353-1.5753-0.0727c-1.0498-0.0507-2.092-0.075-3.1687-0.26106-1.0657-0.15812-2.1396-0.27883-3.1929-0.48056l-3.1216-0.75132-2.8606-0.91197c-0.83493-0.27618-1.7265-0.60455-2.515-0.83926-0.74063-0.18577-1.5903-0.5065-2.2366-0.5969-0.3315-0.055-0.65849-0.12009-0.98537-0.19596-0.33752-0.0698-0.59948-0.17417-1.1391-0.18835l-2.855-0.20774-2.3606 0.0332c-1.773 0.0351-3.5479 0.18269-5.4206 0.35039-3.6904 0.37227-7.6295 0.73428-11.5 0.94451-1.9393 0.14643-3.8884 0.16448-5.8284 0.25206-1.9383 0.0936-3.8875 0.10959-5.8354 0.0873-3.9134 0.0194-7.7359-0.0827-11.556-0.23337-1.8904-0.089-3.8535-0.13414-5.7896-0.3199l-5.7751-0.48542c-1.9134-0.12232-3.8365-0.44356-5.7294-0.78179-1.851-0.29639-1.7498-0.91882 0.18212-0.90711 1.895 0.0681 3.7611 0.14058 5.6809 7e-3l5.6885-0.19042c1.8844-0.0245 3.7449-0.18724 5.6775-0.30815l5.7294-0.32199c1.9046-0.11416 3.7631-0.29886 5.6408-0.44387 1.8716-0.15847 3.7416-0.28012 5.6082-0.4861 1.8638-0.20174 3.7375-0.33327 5.5861-0.59067 1.8549-0.24641 3.696-0.44705 5.5577-0.73955l5.6539-0.77209c1.9085-0.24356 3.932-0.49163 5.9738-0.61005l1.5497-0.0776 0.77555-0.0381 0.38846-0.0187 0.19389-9e-3 0.0485-2e-3 0.32338 7e-3 0.0893 3e-3 2.8661 0.10042c0.42296-0.0109 1.0839 0.097 1.6799 0.18003 0.60519 0.0847 1.2098 0.18034 1.8108 0.28599 1.2295 0.20067 2.1173 0.53073 3.1902 0.79841 0.9959 0.28647 1.8334 0.58554 2.7581 0.87804l2.4444 0.74647 2.3606 0.53388c0.80126 0.1404 1.6294 0.2109 2.4395 0.32684 0.79417 0.14217 1.6691 0.14302 2.5282 0.17104l1.2887 0.0443 0.64398 0.0228 0.32199 0.0125 0.0637 3e-3 0.2659-0.0109c1.359-0.0521 3.9-0.0411 5.3008-0.25206l2.2782-0.3033 2.362-0.53526 2.4361-0.7354c0.92074-0.29321 1.7755-0.59117 2.7498-0.88012 1.9968-0.60165 4.229-1.084 6.4814-1.2762l3.3307-0.12464z" fill="#de0000"/>
 <path d="m150 0c-82.509 0-150 67.414-150 150 0 82.585 67.491 150 150 150s150-67.417 150-150c0-82.585-67.491-150-150-150zm0 50.025c55.612 0 100.09 44.5 100.09 99.974s-44.48 99.976-100.09 99.976c-55.612 0-100.09-44.503-100.09-99.976 0-55.474 44.48-99.974 100.09-99.974z"/>
 <path d="m234.73 51.337-183.44 183.35 13.982 13.973 183.44-183.35z"/>
</svg>
