<?xml version="1.0" encoding="UTF-8" standalone="no"?>
<!-- Created with Inkscape (http://www.inkscape.org/) -->
<svg
   xmlns:svg="http://www.w3.org/2000/svg"
   xmlns="http://www.w3.org/2000/svg"
   version="1.0"
   width="615.5"
   height="242"
   id="svg2">
  <defs
     id="defs4" />
  <g
     transform="translate(-67,-411.36218)"
     id="layer1">
    <rect
       width="115"
       height="90"
       x="317.5"
       y="477.36218"
       id="rect3243"
       style="opacity:1;fill:#e3baa3;fill-opacity:1;fill-rule:evenodd;stroke:#3a3a3a;stroke-width:2;stroke-linecap:round;stroke-linejoin:miter;stroke-miterlimit:4;stroke-dasharray:none;stroke-dashoffset:0;stroke-opacity:1" />
    <rect
       width="102"
       height="80.5"
       x="96.5"
       y="412.36218"
       id="rect3227"
       style="opacity:1;fill:#e5e5e5;fill-opacity:1;fill-rule:evenodd;stroke:#3a3a3a;stroke-width:2;stroke-linecap:round;stroke-linejoin:miter;stroke-miterlimit:4;stroke-dasharray:none;stroke-dashoffset:0;stroke-opacity:1" />
    <rect
       width="81.5"
       height="58.999996"
       x="107"
       y="422.86218"
       id="rect2455"
       style="opacity:1;fill:#ffffff;fill-opacity:1;fill-rule:evenodd;stroke:#3a3a3a;stroke-width:1;stroke-linecap:round;stroke-linejoin:miter;stroke-miterlimit:4;stroke-dasharray:none;stroke-dashoffset:0;stroke-opacity:1" />
    <rect
       width="47.321426"
       height="8.9999971"
       x="123.67857"
       y="492.86218"
       id="rect3229"
       style="opacity:1;fill:#7f7f7f;fill-opacity:1;fill-rule:evenodd;stroke:#3a3a3a;stroke-width:1;stroke-linecap:round;stroke-linejoin:miter;stroke-miterlimit:4;stroke-dasharray:none;stroke-dashoffset:0;stroke-opacity:1" />
    <rect
       width="103"
       height="31.000046"
       x="96"
       y="501.86218"
       id="rect3231"
       style="opacity:1;fill:#e5e5e5;fill-opacity:1;fill-rule:evenodd;stroke:#3a3a3a;stroke-width:1;stroke-linecap:round;stroke-linejoin:miter;stroke-miterlimit:4;stroke-dasharray:none;stroke-dashoffset:0;stroke-opacity:1" />
    <path
       d="M 27.5,127 C 27.5,127 0,151.5 0,151.5 C 0,151.5 157.5,151.5 157.5,151.5 C 157.5,151.5 130,127 130,127 C 130,127 27.5,127 27.5,127"
       transform="translate(68.5,411.36218)"
       id="path3233"
       style="fill:#ebebeb;fill-opacity:1;fill-rule:evenodd;stroke:#3a3a3a;stroke-width:1px;stroke-linecap:butt;stroke-linejoin:miter;stroke-opacity:1" />
    <path
       d="M 99.5,542.36218 C 99.5,542.36218 84.5,556.86218 84.5,556.86218 C 84.5,556.86218 177,556.86218 177,556.86218 C 177,556.86218 168,542.36218 168,542.36218 C 168,542.36218 99.5,542.36218 99.5,542.36218"
       id="path3235"
       style="fill:#999999;fill-opacity:1;fill-rule:evenodd;stroke:none;stroke-width:1px;stroke-linecap:butt;stroke-linejoin:miter;stroke-opacity:1" />
    <path
       d="M 173.5,542.36218 C 173.5,542.36218 183,556.86218 183,556.86218 C 183,556.86218 210,556.86218 210,556.86218 C 210,556.86218 197,542.36218 197,542.36218 C 197,542.36218 173.5,542.36218 173.5,542.36218"
       id="path3237"
       style="fill:#999999;fill-opacity:1;fill-rule:evenodd;stroke:none;stroke-width:1px;stroke-linecap:butt;stroke-linejoin:miter;stroke-opacity:1" />
    <rect
       width="159.5"
       height="5.0000787"
       x="67.5"
       y="562.86218"
       id="rect3239"
       style="opacity:1;fill:#b2b2b2;fill-opacity:1;fill-rule:evenodd;stroke:#3a3a3a;stroke-width:1;stroke-linecap:round;stroke-linejoin:miter;stroke-miterlimit:4;stroke-dasharray:none;stroke-dashoffset:0;stroke-opacity:1" />
    <rect
       width="92"
       height="67"
       x="329"
       y="488.86218"
       id="rect3241"
       style="opacity:1;fill:#ffffff;fill-opacity:1;fill-rule:evenodd;stroke:#3a3a3a;stroke-width:1;stroke-linecap:round;stroke-linejoin:miter;stroke-miterlimit:4;stroke-dasharray:none;stroke-dashoffset:0;stroke-opacity:1" />
    <rect
       width="53.5"
       height="9.9999971"
       x="348"
       y="567.86218"
       id="rect3245"
       style="opacity:1;fill:#cc6633;fill-opacity:1;fill-rule:evenodd;stroke:#3a3a3a;stroke-width:1;stroke-linecap:round;stroke-linejoin:miter;stroke-miterlimit:4;stroke-dasharray:none;stroke-dashoffset:0;stroke-opacity:1" />
    <rect
       width="116"
       height="34.999996"
       x="317"
       y="577.86218"
       id="rect3247"
       style="opacity:1;fill:#edaf8e;fill-opacity:1;fill-rule:evenodd;stroke:#3a3a3a;stroke-width:1;stroke-linecap:round;stroke-linejoin:miter;stroke-miterlimit:4;stroke-dasharray:none;stroke-dashoffset:0;stroke-opacity:1" />
    <path
       d="M 317,618.86218 C 317,618.86218 288,645.36218 288,645.36218 C 288,645.36218 462,645.86218 462,645.86218 C 462,645.86218 433,618.86218 433,618.86218 C 433,618.86218 317,618.86218 317,618.86218"
       id="path3249"
       style="fill:#edaf8e;fill-opacity:1;fill-rule:evenodd;stroke:#3a3a3a;stroke-width:1px;stroke-linecap:butt;stroke-linejoin:miter;stroke-opacity:1" />
    <path
       d="M 320.52703,622.36218 C 320.52703,622.36218 303.5,640.36218 303.5,640.36218 C 303.5,640.36218 408.5,640.36218 408.5,640.36218 C 408.5,640.36218 398.28378,622.36218 398.28378,622.36218 C 398.28378,622.36218 320.52703,622.36218 320.52703,622.36218"
       id="path3251"
       style="fill:#cc6633;fill-opacity:1;fill-rule:evenodd;stroke:none;stroke-width:1px;stroke-linecap:butt;stroke-linejoin:miter;stroke-opacity:1" />
    <path
       d="M 403,622.36218 C 403,622.36218 414.23332,640.36218 414.23332,640.36218 C 414.23332,640.36218 446.15957,640.36218 446.15957,640.36218 C 446.15957,640.36218 430.78767,622.36218 430.78767,622.36218 C 430.78767,622.36218 403,622.36218 403,622.36218"
       id="path3253"
       style="fill:#cc6633;fill-opacity:1;fill-rule:evenodd;stroke:none;stroke-width:1px;stroke-linecap:butt;stroke-linejoin:miter;stroke-opacity:1" />
    <rect
       width="176"
       height="7.0000587"
       x="287"
       y="645.86212"
       id="rect3255"
       style="opacity:1;fill:#edaf8e;fill-opacity:1;fill-rule:evenodd;stroke:#3a3a3a;stroke-width:1;stroke-linecap:round;stroke-linejoin:miter;stroke-miterlimit:4;stroke-dasharray:none;stroke-dashoffset:0;stroke-opacity:1" />
    <rect
       width="102"
       height="80.5"
       x="551.5"
       y="412.36218"
       id="rect3257"
       style="opacity:1;fill:#e5e5e5;fill-opacity:1;fill-rule:evenodd;stroke:#3a3a3a;stroke-width:2;stroke-linecap:round;stroke-linejoin:miter;stroke-miterlimit:4;stroke-dasharray:none;stroke-dashoffset:0;stroke-opacity:1" />
    <rect
       width="81.5"
       height="58.999996"
       x="562"
       y="422.86218"
       id="rect3259"
       style="opacity:1;fill:#ffffff;fill-opacity:1;fill-rule:evenodd;stroke:#3a3a3a;stroke-width:1;stroke-linecap:round;stroke-linejoin:miter;stroke-miterlimit:4;stroke-dasharray:none;stroke-dashoffset:0;stroke-opacity:1" />
    <rect
       width="47.321426"
       height="8.9999971"
       x="578.67859"
       y="492.86218"
       id="rect3261"
       style="opacity:1;fill:#7f7f7f;fill-opacity:1;fill-rule:evenodd;stroke:#3a3a3a;stroke-width:1;stroke-linecap:round;stroke-linejoin:miter;stroke-miterlimit:4;stroke-dasharray:none;stroke-dashoffset:0;stroke-opacity:1" />
    <rect
       width="103"
       height="31.000046"
       x="551"
       y="501.86218"
       id="rect3263"
       style="opacity:1;fill:#e5e5e5;fill-opacity:1;fill-rule:evenodd;stroke:#3a3a3a;stroke-width:1;stroke-linecap:round;stroke-linejoin:miter;stroke-miterlimit:4;stroke-dasharray:none;stroke-dashoffset:0;stroke-opacity:1" />
    <path
       d="M 551.00001,538.36218 C 551.00001,538.36218 523.50001,562.86218 523.50001,562.86218 C 523.50001,562.86218 681.00001,562.86218 681.00001,562.86218 C 681.00001,562.86218 653.50001,538.36218 653.50001,538.36218 C 653.50001,538.36218 551.00001,538.36218 551.00001,538.36218"
       id="path3265"
       style="fill:#ebebeb;fill-opacity:1;fill-rule:evenodd;stroke:#3a3a3a;stroke-width:1px;stroke-linecap:butt;stroke-linejoin:miter;stroke-opacity:1" />
    <path
       d="M 554.50001,542.36218 C 554.50001,542.36218 539.50001,556.86218 539.50001,556.86218 C 539.50001,556.86218 632.00001,556.86218 632.00001,556.86218 C 632.00001,556.86218 623.00001,542.36218 623.00001,542.36218 C 623.00001,542.36218 554.50001,542.36218 554.50001,542.36218"
       id="path3267"
       style="fill:#999999;fill-opacity:1;fill-rule:evenodd;stroke:none;stroke-width:1px;stroke-linecap:butt;stroke-linejoin:miter;stroke-opacity:1" />
    <path
       d="M 628.50001,542.36218 C 628.50001,542.36218 638.00001,556.86218 638.00001,556.86218 C 638.00001,556.86218 665.00001,556.86218 665.00001,556.86218 C 665.00001,556.86218 652.00001,542.36218 652.00001,542.36218 C 652.00001,542.36218 628.50001,542.36218 628.50001,542.36218"
       id="path3269"
       style="fill:#999999;fill-opacity:1;fill-rule:evenodd;stroke:none;stroke-width:1px;stroke-linecap:butt;stroke-linejoin:miter;stroke-opacity:1" />
    <rect
       width="159.5"
       height="5.0000787"
       x="522.5"
       y="562.86218"
       id="rect3271"
       style="opacity:1;fill:#b2b2b2;fill-opacity:1;fill-rule:evenodd;stroke:#3a3a3a;stroke-width:1;stroke-linecap:round;stroke-linejoin:miter;stroke-miterlimit:4;stroke-dasharray:none;stroke-dashoffset:0;stroke-opacity:1" />
    <path
       d="M 224.86038,574.72256 C 224.86038,574.72256 288.5,638.36218 288.5,638.36218"
       id="path3275"
       style="fill:none;fill-rule:evenodd;stroke:#000000;stroke-width:4;stroke-linecap:butt;stroke-linejoin:miter;stroke-miterlimit:4;stroke-dasharray:none;stroke-opacity:1" />
    <path
       d="M 526.63962,574.22256 C 526.63962,574.22256 463,637.86218 463,637.86218"
       id="path3277"
       style="fill:none;fill-rule:evenodd;stroke:#000000;stroke-width:4;stroke-linecap:butt;stroke-linejoin:miter;stroke-miterlimit:4;stroke-dasharray:none;stroke-opacity:1" />
  </g>
</svg>
