<?xml version="1.0" encoding="UTF-8"?>
<svg width="600" height="400" version="1.1" xmlns="http://www.w3.org/2000/svg">
 <path d="m122.65 115.53c0.10275-0.85252 0.16434-1.7333 0.16434-2.632 0-0.49047 3e-3 -1.0605-0.0565-1.7076 7.5879-0.10785 14.244-5.5748 14.244-11.863 0-3.197-2.0851-5.6133-3.2637-7.0564 0.26449-0.0566 0.53155-0.1182 0.80116-0.18231 1.1119 0.96807 4.2652 4.4038 4.2652 8.7409 0 7.5417-7.5392 14.544-16.154 14.701m-7.6445-26.271c-0.1413-0.83968-0.46221-1.6023-0.95008-2.2571 0.0282-0.76778 0.34408-1.5047 1.5818-0.89874-0.6702 0.68562-0.15407 1.9002-0.15407 1.9002s1.3712-0.63683 1.0862-1.5407c2.0337 0.48533 0.57006 3.2175-1.5638 2.7964m-1.7641 3.8749c-0.26963-1.1273-0.84996-2.2854-1.5844-3.1584-0.6702-0.79089-1.7769-1.7307-3.2714-1.7307-0.68047 0-1.8232 0.31841-2.5498 0.62655-0.27219-0.49558-0.80117-1.6871-0.80117-2.2237 0-0.55208 0.9347-1.1119 2.7193-1.1119 3.9288 0 6.2758 1.7744 6.2758 4.753 0 1.0477-0.41599 1.9978-0.78832 2.8452m10.092 50.643c0.45708 0 0.67791 0.0718 0.94239 0.17205 1.1324 3.0763 5.4926 8.8847 5.6749 9.1312l0.0385 0.0539 0.0642-0.0154c1.0708-0.17203 3.8004-0.5829 6.0858-0.5829h0.0513c0.24907 0 0.53154 0 0.70872 0.17462 0.14895 0.14895 0.22083 0.40828 0.22083 0.77805 0 0.56749-0.2388 1.5381-0.52898 1.9516-0.79858-0.87051-2.0979-1.2634-4.1778-1.2634-0.62398 0-1.3635 0.18745-1.7615 0.29274l-0.16434 0.036-0.18744 0.0487 1.1992 1.1992c1.8514 1.8514 3.4512 3.446 3.4512 4.5091 0 0.63939-0.62398 1.4739-1.1966 1.8437-0.12585-1.9464-2.0902-4.5528-4.0058-6.0113l-0.16177-0.12075-0.0307 0.68562c-0.0282 0.46477-0.0693 1.1606-0.0693 1.9079 0 3.7054-0.37748 4.2677-1.6614 4.2677-0.19771 0-0.49815-0.0566-0.68304-0.12585 0.72156-0.89361 1.0092-2.0748 1.0092-4.147l-0.0135-0.95525-0.0105-0.76777c0-0.84996 0.0873-1.4791 0.15406-1.985l0.0385-0.28503-0.20029-0.0282c-0.60344-0.0822-1.7179-0.23367-2.5704-0.23367-1.8334 0-3.0737 0.16691-3.9724 1.0117-0.59317-0.4802-1.2043-1.307-1.2043-1.8283 0-0.77292 0.48021-0.83456 1.1119-0.83456 0.32098 0 0.61885 0.0462 1.0297 0.0949 0.78832 0.1182 1.9721 0.29531 4.4115 0.29531h0.15408l-0.0487-0.14895c-0.61884-1.7718-2.3162-4.3448-5.0381-7.6547 0.24394-0.88589 0.48276-1.4662 1.3404-1.4662m-23.511 9.121-0.0487 0.14895h0.1515c2.4369 0 3.6258-0.17718 4.4141-0.29531 0.41085-0.0487 0.70872-0.0949 1.0271-0.0949 0.62913 0 1.1119 0.0616 1.1119 0.83456 0 0.52126-0.60858 1.3481-1.1992 1.8283-0.9013-0.84483-2.1441-1.0117-3.9724-1.0117-0.85509 0-1.9747 0.1515-2.573 0.23367l-0.095 0.0135-0.10785 0.0154 0.036 0.28503c0.0718 0.50588 0.15921 1.135 0.15921 1.985l-0.0105 0.76777-0.0135 0.95525c0 2.0722 0.28502 3.2534 1.0143 4.147-0.19258 0.0693-0.49303 0.12585-0.69075 0.12585-1.2865 0-1.6588-0.56235-1.6588-4.2677 0-0.74724-0.0385-1.4431-0.0667-1.9079l-0.036-0.68819-0.16178 0.1233c-1.9104 1.4585-3.8826 4.0649-4.0007 6.0113-0.57518-0.36977-1.1992-1.2043-1.1992-1.8437 0-1.0631 1.5998-2.6577 3.4486-4.5091l1.1992-1.1992-0.34923-0.0848c-0.40057-0.1053-1.1376-0.29274-1.7667-0.29274-2.0748 0-3.3716 0.39288-4.1727 1.2634-0.29016-0.41343-0.53153-1.3841-0.53153-1.9516 0-0.36976 0.0744-0.62911 0.22082-0.77805 0.17976-0.17461 0.46221-0.17461 0.70872-0.17461h0.0538c2.2854 0 5.0201 0.41086 6.0858 0.5829l0.0642 0.0154 0.0386-0.0539c0.18487-0.24651 4.5425-6.0549 5.6775-9.1312 0.25935-0.1002 0.48277-0.17205 0.93984-0.17205 0.85767 0 1.0965 0.58034 1.3455 1.4662-2.727 3.3099-4.4269 5.8829-5.0432 7.6547m-11.774-52.068c0-4.3371 3.1559-7.7728 4.2677-8.7409 0.26706 0.0642 0.53412 0.12585 0.80116 0.18231-1.1812 1.4431-3.2688 3.8595-3.2688 7.0564 0 6.3528 6.7868 11.866 14.47 11.866-0.0488 0.54438-0.0744 1.117-0.0744 1.705 0 0.93724 0.0538 1.8103 0.14385 2.632-8.6895-0.0539-16.339-7.1052-16.339-14.701m58.282 13.376c3.9005 6.1654 6.9511 6.0627 11.558 6.0627-3.8107-2.9222-6.3323-6.6635-7.5366-8.5766l-7.1206-11.393c-0.69332-3.5179-2.5113-6.8073-5.2384-9.257 0.91674-0.3441 1.6794-0.7113 2.1365-1.058-4.6504 0-9.257-2.3598-11.794-2.3598-1.6306 0-2.6757 0.97321-2.6757 2.2623 0.10275 1.4354 1.5792 2.8939 4.3088 2.8939 0.61885 0 1.4097-0.0797 2.2777-0.22596 1.4765 2.0594 2.6705 3.9237 2.6705 6.5814 0 4.9867-5.9651 8.8744-11.984 8.8744-0.3441 0-0.66765-0.0154-1.0066-0.0385-0.54439-1.2351-2.3598-3.3125-2.3598-5.6723 0-3.9647 2.5858-7.2002 2.5858-11.126 0-2.442-1.1889-3.9519-1.646-4.581 0.73954-0.6856 1.5458-1.5278 1.7384-2.1056-0.4314 0.18747-0.94239 0.20802-1.6845 0.20802-2.8862 0-5.2384-0.74984-7.5314-0.74984-1.3096 0-1.6614 0.40572-1.6614 0.78834 0 0.1413 0.0205 0.28761 0.0591 0.35438-0.48789-0.19002-0.94495-0.31586-1.4893-0.41343-0.67791-0.13095-1.4046-0.19517-2.1827-0.19517-2.7861 0-3.7773 1.1684-3.7773 2.1698 0 0.84483 0.66764 2.3906 1.4252 3.5719 1.0836-0.54695 2.3906-0.91671 2.9838-0.91671 1.4816 0 2.7964 1.4072 3.4923 3.0762-0.99376 0.12075-1.1838 0.16434-2.1904 0.16434-2.7142 0-4.5605-0.97063-4.9405-0.97063-0.036 0-0.10785 0.018-0.10785 0.0797 0 0.38004 0.77035 1.3866 2.2854 1.9387 1.9978 0.72926 4.9919 1.0348 5.49 1.1196 0 0.0873-0.50586 1.0297-1.0734 1.2146-0.11805 0.036-0.21314 0.0411-0.35436 0.0105-2.0876-0.41087-2.668-0.58547-5.3154-1.5921-0.0796-0.0309-0.13095 0.0206-0.13095 0.10275 0 1.0477 2.7116 3.3587 5.1408 4.2472-2.0286 2.5884-4.5605 5.2384-5.7571 9.2776-0.33895 0.0231-0.66507 0.0385-1.004 0.0385-6.0216 0-11.984-3.8877-11.984-8.8744 0-2.6577 1.1915-4.522 2.6706-6.5814 0.86793 0.1464 1.6562 0.22596 2.2751 0.22596 2.7322 0 4.2087-1.4585 4.314-2.8939 0-1.289-1.0451-2.2623-2.6782-2.2623-2.537 0-7.1412 2.3598-11.799 2.3598 0.4622 0.34665 1.2223 0.71385 2.1364 1.058-2.7219 2.4497-4.5425 5.7391-5.2358 9.257l-7.1206 11.393c-1.1992 1.913-3.7259 5.6544-7.5392 8.5766 4.6067 0 7.6624 0.10275 11.56-6.0627l3.6514-5.8418c0.27219 0.75751 0.60345 1.497 0.99375 2.2212l-7.2592 11.617c-1.2094 1.9259-3.7131 5.6364-7.5417 8.5766 4.6092 0 7.6624 0.1053 11.56-6.055l6.2501-10.007c0.46734 0.49816 0.96036 0.98605 1.4765 1.4508l-8.8179 14.118c-1.212 1.931-3.7028 5.6338-7.5366 8.5689 4.6093 0 7.6624 0.1104 11.558-6.055l8.5971-13.766c0.56749 0.35949 1.1478 0.70616 1.7487 1.0323l-10.497 16.796c-1.212 1.931-3.7028 5.621-7.5366 8.5689 4.6067 0 7.6598 0.1053 11.56-6.055l10.805-17.299c0.64195 0.24394 1.289 0.48018 1.9464 0.69073l-12.21 19.544c-1.194 1.9053-3.7413 5.6621-7.534 8.5689 4.6041 0 7.6624 0.1053 11.558-6.055l13.016-20.828c0.13095 0.0206 0.26192 0.0411 0.3903 0.0668 0.35436 1.1273 0.60345 2.1775 0.60345 3.2252 0 6.5454-4.296 12.326-9.4522 16.788 0.33126 0.1464 0.90645 0.19516 1.4354 0.19516 1.0656 0 1.7513-0.0566 2.2366-0.1413-1.1966 2.7142-3.7644 6.2219-5.0586 8.0348-1.6871-0.30556-4.1419-0.53923-5.7494-0.53923-1.6819 0-1.8745 0.98091-1.8745 1.8617 0 1.5253 0.71642 2.7399 1.5484 3.4178 0.31071-0.78063 0.93984-1.8232 4.0469-1.8232 0.0616 0 0.1669 7e-3 0.31071 0.018-0.90389 1.0092-3.749 3.31-3.749 5.1614 0 1.2248 1.343 3.066 3.1148 3.066-0.10275-0.39801-0.0924-0.76008-0.0924-1.0323 0-1.5022 1.3301-3.256 2.4523-4.4834-0.0334 0.3672-0.0154 0.32868-0.0154 0.75494 0 3.5436 0.32097 5.1742 2.5704 5.1742 1.1042 0 1.8668-0.60602 2.1287-0.78832-1.4611-1.343-1.5381-2.4035-1.5381-4.391 5e-3 -0.51614 7e-3 -1.022 0.0154-1.7204 3e-3 -0.45707-3e-3 -1.058-0.0769-1.4919 0.80373-0.1104 1.1324-0.1104 1.7513-0.1104 0 0 3.197-0.2568 3.9699 1.4098 0.86793-0.79604 2.1287-1.9208 2.1287-3.1584 0-0.81915-0.3903-1.7436-2.0389-1.7436-0.62398 0-2.5858 0.38004-4.2267 0.38004 0.44168-0.97835 2.4035-3.8492 4.106-5.9317 0.25937 0.80631 0.65738 1.6794 1.5484 2.3958 0.12585-1.3404 0.91158-5.5799 3.0044-8.0579 0.24394 1.6742 0.57262 3.3921 0.57262 7.0128 0 8.8128-2.1184 15.32-6.6147 16.563 0.58547 1.0143 1.8232 1.9336 3.1071 1.9336 1.646 0 2.5396-1.8617 3.4537-3.6181 0.47504 1.2942 1.7898 4.4706 3.1071 4.4706s2.6346-3.1764 3.1122-4.4706c0.90901 1.7564 1.8078 3.6181 3.4537 3.6181 1.2814 0 2.519-0.91929 3.1071-1.9336-4.4988-1.2428-6.6199-7.7497-6.6199-16.563 0-3.6206 0.32868-5.3385 0.57262-7.0128 2.0979 2.478 2.8862 6.7175 3.0044 8.0579 0.89362-0.71641 1.2993-1.5895 1.5536-2.3958 1.6973 2.0825 3.6617 4.9534 4.1034 5.9317-1.6408 0-3.6052-0.38004-4.2266-0.38004-1.6434 0-2.0312 0.92442-2.0312 1.7436 0 1.2377 1.2582 2.3624 2.1262 3.1584 0.76778-1.6666 3.9699-1.4098 3.9699-1.4098 0.61627 0 0.94238 0 1.7513 0.1104-0.0771 0.43397-0.0797 1.0348-0.0771 1.4919 7e-3 0.69845 7e-3 1.2043 0.0135 1.7204 0 1.9875-0.0771 3.048-1.5381 4.391 0.26191 0.1823 1.022 0.78832 2.1262 0.78832 2.252 0 2.5756-1.6306 2.5756-5.1742 0-0.42626 0.0105-0.38774-0.0206-0.75494 1.1247 1.2274 2.4523 2.9812 2.4523 4.4834 0 0.27219 0.0155 0.63426-0.0949 1.0323 1.7744 0 3.1225-1.8411 3.1225-3.066 0-1.8514-2.8426-4.1522-3.7567-5.1614 0.14895-0.0105 0.25422-0.018 0.31071-0.018 3.1122 0 3.7413 1.0426 4.052 1.8232 0.82941-0.67791 1.5458-1.8925 1.5458-3.4178 0-0.88075-0.19002-1.8617-1.872-1.8617-1.6075 0-4.0598 0.23367-5.7519 0.53923-1.2968-1.8129-3.8569-5.3205-5.0561-8.0348 0.48276 0.0847 1.1735 0.1413 2.2366 0.1413 0.53154 0 1.1042-0.0488 1.4354-0.19516-5.1562-4.4629-9.4522-10.243-9.4522-16.788 0-1.0477 0.24651-2.0979 0.60086-3.2252 0.12585-0.0257 0.26448-0.0462 0.39288-0.0668l13.016 20.828c3.8954 6.1602 6.9537 6.055 11.555 6.055-3.7927-2.9068-6.34-6.6636-7.5315-8.5689l-12.215-19.544c0.6625-0.21055 1.3147-0.44679 1.9541-0.69073l10.803 17.299c3.898 6.1602 6.9537 6.055 11.56 6.055-3.8338-2.9479-6.3246-6.6378-7.5366-8.5689l-10.495-16.796c0.59573-0.32613 1.1761-0.6728 1.741-1.0323l8.6022 13.766c3.898 6.1654 6.9486 6.055 11.555 6.055-3.8338-2.935-6.3194-6.6378-7.534-8.5689l-8.8205-14.118c0.5187-0.46477 1.0143-0.95266 1.474-1.4508l6.2578 10.007c3.8954 6.1602 6.9486 6.055 11.555 6.055-3.8312-2.9402-6.3272-6.6507-7.5392-8.5766l-7.2567-11.617c0.38775-0.72412 0.719-1.4636 0.99377-2.2212z"/>
 <rect x="181.02" y="87.571" width="13.327" height="76.157"/>
 <rect x="181.02" y="163.73" width="13.327" height="76.157" fill="#f00"/>
 <rect x="181.02" y="239.89" width="13.327" height="76.157" fill="#fc0"/>
 <path d="m239.72 95.377c0 1.0836-0.13605 2.0337-0.40572 2.8452a6.8048 6.8048 0 0 1-1.1068 2.0953 5.7776 5.7776 0 0 1-1.6229 1.4226c-0.61627 0.3595-1.2557 0.63427-1.9182 0.81145v0.0924c0.81145 0.1515 1.5741 0.43653 2.2777 0.85765 0.70872 0.42113 1.325 0.94754 1.8514 1.5792 0.52639 0.63426 0.9501 1.3789 1.2634 2.234 0.3184 0.85767 0.47247 1.7975 0.47247 2.8246 0 1.2326-0.20543 2.3573-0.62911 3.3818-0.42369 1.022-1.0785 1.9105-1.9644 2.6603-0.88591 0.75494-2.0106 1.3404-3.3639 1.7615-1.3532 0.42112-2.9607 0.63169-4.8275 0.63169h-6.3631v-31.14h6.0036c1.836 0 3.4049 0.19002 4.7145 0.56493 1.3096 0.37745 2.3855 0.91157 3.2252 1.6023 0.84225 0.69331 1.4534 1.5279 1.8283 2.5062 0.37491 0.97578 0.56493 2.0671 0.56493 3.2688zm-3.9699 0.13605c0-1.4457-0.51358-2.632-1.5356-3.5642-1.0246-0.93211-2.632-1.3995-4.8275-1.3995h-2.0799v10.741h2.0337c2.1056 0 3.7002-0.51355 4.7813-1.533 1.0862-1.0246 1.628-2.4394 1.628-4.2446zm0.5829 14.352c0-1.6845-0.54438-3.0146-1.6434-3.993-1.0965-0.97835-2.6706-1.4688-4.7197-1.4688h-2.6628v10.924h2.4394c2.3162 0 3.993-0.45964 5.0329-1.3764 1.04-0.91929 1.5536-2.2802 1.5536-4.0854zm24.194 8.7101h-3.3407v-2.4394h-0.0924c-0.0873 0.18489-0.28246 0.44681-0.5829 0.79604a5.9625 5.9625 0 0 1-1.1555 0.98862c-0.46221 0.3184-1.0271 0.59572-1.6896 0.8371a6.4709 6.4709 0 0 1-2.2109 0.3595c-0.96294 0-1.8283-0.1413-2.5935-0.42627a4.7531 4.7531 0 0 1-1.9644-1.3764c-0.54438-0.63426-0.95525-1.4534-1.2403-2.4625-0.29016-1.0092-0.42882-2.2494-0.42882-3.7234v-14.216h3.6566v13.943c0 1.8078 0.29015 3.0942 0.8782 3.862 0.58546 0.76778 1.4945 1.1504 2.7322 1.1504 1.0502 0 1.9362-0.26193 2.6603-0.78832 0.72156-0.52898 1.2942-1.0477 1.7153-1.5587v-16.609h3.6566zm17.418 0v-13.943c0-1.836-0.30814-3.1533-0.92442-3.9493-0.61629-0.7986-1.5561-1.1966-2.8169-1.1966-1.0862 0-1.9875 0.27219-2.709 0.81142a9.8964 9.8964 0 0 0-1.7179 1.5792v16.699h-3.6566v-21.662h3.3408v2.4394h0.0924c0.0899-0.18232 0.28247-0.44424 0.58804-0.79347 0.30044-0.34408 0.69075-0.67533 1.171-0.99375 0.48274-0.31327 1.0528-0.59059 1.7153-0.83453 0.66251-0.23882 1.4123-0.35951 2.2571-0.35951 0.96293 0 1.8334 0.14385 2.6166 0.42884 0.78319 0.28759 1.4431 0.74467 1.9875 1.3764 0.53924 0.63426 0.96294 1.4534 1.2608 2.4625 0.30045 1.0015 0.45195 2.2469 0.45195 3.7182v14.218zm8.1246-10.515c0-2.1955 0.28761-4.0315 0.85765-5.508 0.57264-1.4714 1.3096-2.6603 2.2084-3.5642 0.90387-0.90131 1.9284-1.5407 3.0737-1.9156 1.1427-0.37491 2.2854-0.56493 3.428-0.56493 0.69331 0 1.2942 0.0513 1.8052 0.15921 0.51357 0.10275 0.93469 0.2311 1.2634 0.38517v-10.384l3.6566-0.40572v32.311h-3.3382v-2.3008h-0.0899a5.282 5.282 0 0 1-1.4894 1.6922c-0.42371 0.3184-0.95011 0.58802-1.5792 0.814a6.6327 6.6327 0 0 1-2.216 0.33895c-1.0194 0-1.9901-0.20542-2.9068-0.61114a6.3015 6.3015 0 0 1-2.4164-1.9413c-0.69073-0.88847-1.2402-2.0286-1.646-3.428s-0.61115-3.0917-0.61115-5.0792zm8.5766 7.8062a4.8096 4.8096 0 0 0 2.7065-0.78575 4.9559 4.9559 0 0 0 0.83455-0.70359 5.0843 5.0843 0 0 0 0.5187-0.62912v-13.36a5.5722 5.5722 0 0 0-1.1478-0.54181 5.205 5.205 0 0 0-1.6511-0.22339c-0.84225 0-1.6306 0.14385-2.365 0.42882-0.73953 0.28246-1.3789 0.75751-1.9207 1.42-0.53925 0.65993-0.97065 1.5176-1.2839 2.573-0.31841 1.0528-0.47505 2.347-0.47505 3.8826 0 1.5022 0.1284 2.7578 0.38518 3.767 0.25164 1.0092 0.60857 1.8206 1.0605 2.4394 0.44937 0.61371 0.96294 1.058 1.5304 1.3301 0.57263 0.26962 1.1761 0.40572 1.8052 0.40572zm27.214-11.64c0 0.93213-0.0308 1.7359-0.0924 2.4112a80.579 80.579 0 0 1-0.17718 1.7821h-11.06c0.1233 2.5601 0.67276 4.4424 1.646 5.6441 0.97835 1.2017 2.3881 1.8052 4.2215 1.8052 0.63426 0 1.2018-0.0771 1.7153-0.22854a6.399 6.399 0 0 0 2.2777-1.1709c0.25679-0.208 0.44424-0.37491 0.56493-0.49816l1.3558 2.573a29.017 29.017 0 0 1-0.68049 0.65481c-0.29786 0.28503-0.70358 0.57262-1.2171 0.85765-0.51357 0.28245-1.1401 0.5341-1.8951 0.74466a9.8476 9.8476 0 0 1-2.6628 0.31842 9.6037 9.6037 0 0 1-3.6797-0.68048 6.9486 6.9486 0 0 1-2.7938-2.0953c-0.77034-0.9501-1.361-2.1518-1.7821-3.6129-0.42626-1.4585-0.63425-3.2098-0.63425-5.2564 0-1.9259 0.2157-3.5898 0.6548-4.9867 0.43396-1.3995 1.0271-2.5524 1.7846-3.4537a7.0924 7.0924 0 0 1 2.6166-2.008c0.99375-0.43654 2.0594-0.65481 3.2046-0.65481 2.0748 0 3.6977 0.65481 4.8738 1.9644 1.1709 1.3096 1.759 3.274 1.759 5.8906zm-6.8612-4.8737c-1.2942 0-2.3316 0.53924-3.1122 1.6229-0.78319 1.0836-1.2326 2.6449-1.3558 4.694h7.8961c0.0307-0.1515 0.0513-0.36977 0.0693-0.6548 0.0154-0.28246 0.0231-0.59574 0.0231-0.92442 0-1.5073-0.30045-2.6706-0.90388-3.4974-0.5983-0.82684-1.4714-1.2403-2.6166-1.2403zm21.074 1.9387a9.1184 9.1184 0 0 0-1.3096-1.1042c-0.62655-0.46734-1.4534-0.70101-2.478-0.70101-0.96294 0-1.6999 0.22596-2.2109 0.67789-0.51356 0.45195-0.77035 0.99375-0.77035 1.6229 0 0.81144 0.23624 1.4842 0.70101 2.0106 0.46735 0.52639 1.1812 1.0888 2.1441 1.6922l1.3533 0.81144c1.4765 0.87306 2.632 1.8129 3.4743 2.8195 0.8474 1.0092 1.2659 2.3111 1.2659 3.9031 0 1.7153-0.59572 3.1584-1.7821 4.3345-1.1915 1.1735-2.8965 1.7615-5.1228 1.7615a8.7306 8.7306 0 0 1-2.3034-0.27476 10.094 10.094 0 0 1-1.7359-0.62913 5.7751 5.7751 0 0 1-1.2403-0.78832 8.2556 8.2556 0 0 1-0.81657-0.79345l1.7641-2.8862c0.17975 0.17975 0.39801 0.3903 0.65223 0.62912a5.6133 5.6133 0 0 0 2.1416 1.2634c0.45194 0.15406 0.98092 0.22854 1.5818 0.22854 1.0811 0 1.913-0.24395 2.4805-0.719a2.2212 2.2212 0 0 0 0.85765-1.7641c0-0.50842-0.0642-0.95266-0.20028-1.3327a3.0146 3.0146 0 0 0-0.61114-1.0117 5.3462 5.3462 0 0 0-0.99376-0.85767 44.002 44.002 0 0 0-1.3533-0.90387l-1.3532-0.86022c-1.3558-0.87307-2.4138-1.7898-3.179-2.7476-0.77035-0.96551-1.153-2.2006-1.153-3.7028 0-0.81144 0.1592-1.5587 0.47505-2.234 0.31328-0.67791 0.7575-1.2634 1.3301-1.759 0.57262-0.49815 1.2403-0.88846 2.0106-1.176 0.76522-0.28247 1.5844-0.42884 2.4574-0.42884 0.84226 0 1.5664 0.0822 2.1647 0.24909a6.4222 6.4222 0 0 1 2.6449 1.3969c0.28247 0.25678 0.51357 0.47505 0.69588 0.65481zm17.831 17.284v-13.943c0-1.7744-0.25679-3.0557-0.76779-3.8389-0.51357-0.78062-1.3378-1.1709-2.4831-1.1709-0.60345 0-1.135 0.077-1.5998 0.22339a5.2564 5.2564 0 0 0-2.1878 1.3121 11.925 11.925 0 0 0-0.68048 0.719v16.699h-3.6566v-21.662h3.3407v2.4394h0.0873c0.15406-0.24394 0.38004-0.53412 0.68047-0.88077a6.3965 6.3965 0 0 1 2.7091-1.7872c0.60087-0.20543 1.2762-0.31328 2.0286-0.31328 2.4651 0 4.2112 0.96294 5.2384 2.8888a6.4709 6.4709 0 0 1 0.85508-0.97065c0.35949-0.34409 0.78062-0.66249 1.2634-0.94752 0.48019-0.28246 1.022-0.5187 1.6254-0.69846 0.60087-0.17974 1.2634-0.27219 1.9849-0.27219 4.3961 0 6.5916 2.555 6.5916 7.6727v14.534h-3.6566v-13.946c0-1.7744-0.3184-3.0557-0.9501-3.8389-0.63168-0.78062-1.5664-1.1709-2.7989-1.1709-1.022 0-1.8719 0.24651-2.5473 0.74465a9.7064 9.7064 0 0 0-1.6049 1.42c0.0616 0.33125 0.10785 0.68562 0.1386 1.0631 0.0282 0.3749 0.0437 0.77035 0.0437 1.194v14.534h-3.654zm24.143 0h-3.6566v-21.662h3.6566zm-1.8052-26.895c-0.75239 0-1.3558-0.24394-1.8052-0.72412-0.45193-0.48276-0.67534-1.1119-0.67534-1.8976 0-0.74981 0.22341-1.3686 0.67534-1.8488 0.44937-0.47761 1.0528-0.71898 1.8052-0.71898 0.72414 0 1.3096 0.24137 1.7641 0.71898 0.44937 0.4802 0.67277 1.099 0.67277 1.8488 0 0.78576-0.2234 1.4149-0.67277 1.8976a2.3085 2.3085 0 0 1-1.7641 0.72412zm19.228 26.895v-13.943c0-1.836-0.30813-3.1533-0.92442-3.9493-0.61885-0.7986-1.5613-1.1966-2.8246-1.1966-1.0785 0-1.9824 0.27219-2.7065 0.81142-0.71899 0.53925-1.2942 1.0682-1.7153 1.5792v16.699h-3.654v-21.662h3.3382v2.4394h0.0899a4.5964 4.5964 0 0 1 0.58803-0.79347c0.29787-0.34408 0.69332-0.67533 1.1761-0.99375 0.47762-0.31327 1.0503-0.59059 1.7127-0.83453 0.65994-0.23882 1.4149-0.35951 2.2571-0.35951 0.96293 0 1.836 0.14385 2.6192 0.42884 0.77805 0.28759 1.4431 0.74467 1.9849 1.3764 0.53925 0.63426 0.96038 1.4534 1.2634 2.4625 0.30043 1.0015 0.45193 2.2469 0.45193 3.7182v14.218zm12.772 0h-3.6566v-21.662h3.6566zm-1.8052-26.895c-0.75494 0-1.3532-0.24394-1.8052-0.72412-0.45193-0.48276-0.67791-1.1119-0.67791-1.8976 0-0.74981 0.22598-1.3686 0.67791-1.8488 0.45195-0.47761 1.0528-0.71898 1.8052-0.71898 0.71899 0 1.3096 0.24137 1.759 0.71898 0.45195 0.4802 0.67535 1.099 0.67535 1.8488 0 0.78576-0.2234 1.4149-0.67535 1.8976a2.3033 2.3033 0 0 1-1.759 0.72412zm16.742 9.6114a9.1184 9.1184 0 0 0-1.3096-1.1042c-0.62912-0.46734-1.4611-0.70101-2.4805-0.70101-0.96294 0-1.6999 0.22596-2.2109 0.67789-0.51357 0.45195-0.77034 0.99375-0.77034 1.6229 0 0.81144 0.23624 1.4842 0.70101 2.0106 0.46735 0.52639 1.1812 1.0888 2.1441 1.6922l1.3532 0.81144c1.4765 0.87306 2.632 1.8129 3.4743 2.8195 0.84738 1.0092 1.2659 2.3111 1.2659 3.9031 0 1.7153-0.59574 3.1584-1.7821 4.3345-1.1915 1.1735-2.8965 1.7615-5.1228 1.7615a8.7306 8.7306 0 0 1-2.3033-0.27476 10.094 10.094 0 0 1-1.7359-0.62913 5.7751 5.7751 0 0 1-1.2403-0.78832 8.2556 8.2556 0 0 1-0.81657-0.79345l1.7641-2.8862c0.17975 0.17975 0.39801 0.3903 0.65222 0.62912a5.6133 5.6133 0 0 0 2.1416 1.2634c0.45193 0.15406 0.9809 0.22854 1.5818 0.22854 1.0811 0 1.913-0.24395 2.4806-0.719a2.2212 2.2212 0 0 0 0.85765-1.7641c0-0.50842-0.0642-0.95266-0.20029-1.3327a3.0146 3.0146 0 0 0-0.61115-1.0117 5.4695 5.4695 0 0 0-0.99376-0.85767 44.002 44.002 0 0 0-1.3532-0.90387l-1.3532-0.86022c-1.3558-0.87307-2.4138-1.7898-3.179-2.7476-0.77033-0.96551-1.1555-2.2006-1.1555-3.7028 0-0.81144 0.16178-1.5587 0.47505-2.234 0.31584-0.67791 0.76008-1.2634 1.3327-1.759 0.57263-0.49815 1.2403-0.88846 2.0106-1.176 0.7652-0.28247 1.5844-0.42884 2.4574-0.42884 0.84225 0 1.5664 0.0822 2.1647 0.24909a6.4222 6.4222 0 0 1 2.6449 1.3969c0.28245 0.25678 0.51356 0.47505 0.69588 0.65481l-1.5818 2.6192zm15.707-1.3995h-4.7402v12.007c0 1.5304 0.19517 2.5781 0.58805 3.1353 0.39029 0.55721 1.0528 0.83455 1.9824 0.83455 0.5418 0 1.0092-0.0771 1.3995-0.22854 0.39031-0.1464 0.67791-0.28247 0.85767-0.40572l0.49558 2.935c-0.1464 0.1233-0.51357 0.30814-1.0785 0.56493-0.57522 0.25677-1.3404 0.38517-2.3034 0.38517-1.8668 0-3.2663-0.52127-4.1984-1.5587-0.93211-1.0374-1.3995-2.763-1.3995-5.1665v-12.505h-2.6192v-2.4343l2.6192-0.53925 0.40572-6.0524h3.2509v6.0498h5.1922zm17.733 4.3345c0 0.93213-0.0309 1.7359-0.0898 2.4112-0.0591 0.67789-0.1182 1.2736-0.17975 1.7821h-11.06c0.1233 2.5601 0.67278 4.4424 1.6511 5.6441 0.97579 1.2017 2.3855 1.8052 4.2164 1.8052 0.63426 0 1.2069-0.0771 1.7204-0.22854a6.399 6.399 0 0 0 2.8374-1.6691l1.3558 2.573c-0.14895 0.15151-0.37491 0.37234-0.67534 0.65481a6.0601 6.0601 0 0 1-1.2223 0.85765c-0.50843 0.28245-1.1401 0.5341-1.8925 0.74466a9.8862 9.8862 0 0 1-2.6628 0.31842 9.5883 9.5883 0 0 1-3.6771-0.68048 6.9332 6.9332 0 0 1-2.7989-2.0953c-0.7652-0.9501-1.3609-2.1518-1.7821-3.6129-0.42112-1.4585-0.63426-3.2098-0.63426-5.2564 0-1.9259 0.22083-3.5898 0.65736-4.9867 0.43655-1.3995 1.0297-2.5524 1.7821-3.4537a7.0924 7.0924 0 0 1 2.6166-2.008c0.99376-0.43654 2.0594-0.65481 3.2047-0.65481 2.0748 0 3.7002 0.65481 4.8737 1.9644 1.1761 1.3096 1.759 3.274 1.759 5.8906zm-6.8561-4.8737c-1.2968 0-2.3342 0.53924-3.1174 1.6229-0.7832 1.0836-1.2326 2.6449-1.3558 4.694h7.9012c0.0308-0.1515 0.0513-0.36977 0.0667-0.6548 0.0154-0.28246 0.0257-0.59574 0.0257-0.92442 0-1.5073-0.30556-2.6706-0.90386-3.4974-0.60345-0.82684-1.4765-1.2403-2.6192-1.2403zm21.251 0.76521a2.5242 2.5242 0 0 0-0.58289-0.22597 4.5579 4.5579 0 0 0-1.2223-0.1335c-1.1401 0-2.0363 0.30813-2.6834 0.92441-0.64453 0.61628-1.1042 1.2839-1.3764 2.008v15.885h-3.654v-21.662h3.3382v2.9325h0.0924c0.1515-0.42113 0.34409-0.83454 0.58547-1.2403 0.2388-0.40572 0.53925-0.76523 0.90387-1.0811 0.3595-0.3184 0.78832-0.56491 1.2839-0.74723 0.49815-0.17975 1.0913-0.26963 1.7846-0.26963 0.51357 0 0.92442 0.0462 1.2403 0.13605 0.31327 0.0873 0.56492 0.16436 0.74467 0.22341zm7.267 18.458h-3.654v-21.662h3.654zm-1.8052-26.895c-0.74982 0-1.3533-0.24394-1.8052-0.72412-0.45195-0.48276-0.67535-1.1119-0.67535-1.8976 0-0.74981 0.2234-1.3686 0.67535-1.8488 0.45193-0.47761 1.0528-0.71898 1.8052-0.71898a2.3111 2.3111 0 0 1 1.7615 0.71898c0.44937 0.4802 0.67791 1.099 0.67791 1.8488 0 0.78576-0.22854 1.4149-0.67791 1.8976a2.2982 2.2982 0 0 1-1.7615 0.72412zm22.566 26.895h-3.3382v-2.4394h-0.0899c-0.0924 0.18489-0.28245 0.44681-0.58803 0.79604a5.8213 5.8213 0 0 1-1.1504 0.98862 7.7266 7.7266 0 0 1-1.6896 0.8371c-0.66506 0.23881-1.3995 0.3595-2.216 0.3595-0.95779 0-1.8232-0.1413-2.5935-0.42627a4.7428 4.7428 0 0 1-1.9618-1.3764c-0.53925-0.63426-0.95523-1.4534-1.2428-2.4625-0.28246-1.0092-0.42883-2.2494-0.42883-3.7234v-14.216h3.6566v13.943c0 1.8078 0.2953 3.0942 0.88077 3.862 0.58546 0.76778 1.497 1.1504 2.7296 1.1504 1.0528 0 1.9413-0.26193 2.6629-0.78832 0.72412-0.52898 1.2916-1.0477 1.7127-1.5587v-16.609h3.6566zm16.973 0v-13.943c0-1.7744-0.25935-3.0557-0.77034-3.8389-0.50844-0.78062-1.3404-1.1709-2.4805-1.1709a5.2641 5.2641 0 0 0-3.7927 1.5355 11.735 11.735 0 0 0-0.67536 0.719v16.699h-3.6566v-21.662h3.3408v2.4394h0.0873c0.15406-0.24394 0.38004-0.53412 0.68047-0.88077a6.4247 6.4247 0 0 1 2.7091-1.7872c0.60087-0.20543 1.2762-0.31328 2.0286-0.31328 2.4651 0 4.2112 0.96294 5.2358 2.8888a6.4709 6.4709 0 0 1 0.85765-0.97065c0.35951-0.34409 0.78063-0.66249 1.2634-0.94752 0.48019-0.28246 1.022-0.5187 1.6229-0.69846 0.60087-0.17974 1.2659-0.27219 1.9875-0.27219 4.391 0 6.5865 2.555 6.5865 7.6727v14.534h-3.6514v-13.946c0-1.7744-0.31842-3.0557-0.95012-3.8389-0.63169-0.78062-1.5664-1.1709-2.7989-1.1709-1.022 0-1.8745 0.24651-2.5473 0.74465a9.7064 9.7064 0 0 0-1.6049 1.42c0.0616 0.33125 0.10785 0.68562 0.13605 1.0631 0.0308 0.3749 0.0462 0.77035 0.0462 1.194v14.534h-3.6566zm-294.4 34.994c0-2.1955 0.28503-4.0315 0.85765-5.5054 0.57263-1.4714 1.3096-2.6629 2.2109-3.5667 0.90387-0.90132 1.9259-1.5407 3.0686-1.9156 1.1453-0.37491 2.2854-0.56493 3.4332-0.56493 0.68817 0 1.2916 0.0538 1.8052 0.15921 0.51356 0.10275 0.93211 0.2311 1.2634 0.38517v-10.382l3.654-0.40572v32.314h-3.3382v-2.3034h-0.0899a5.282 5.282 0 0 1-1.4893 1.6922 5.9317 5.9317 0 0 1-1.5818 0.81402 6.6096 6.6096 0 0 1-2.2109 0.33896c-1.022 0-1.9926-0.20543-2.9094-0.61116a6.2655 6.2655 0 0 1-2.4138-1.9413c-0.69332-0.88847-1.2428-2.0286-1.6486-3.428-0.40571-1.3995-0.61114-3.0917-0.61114-5.0792zm8.5766 7.8088a4.8096 4.8096 0 0 0 2.7065-0.78832 4.9559 4.9559 0 0 0 0.83454-0.70102 5.0843 5.0843 0 0 0 0.52127-0.62912v-13.363a5.5722 5.5722 0 0 0-1.1504-0.53925 5.205 5.205 0 0 0-1.6485-0.22598c-0.84225 0-1.6331 0.14385-2.3727 0.42884a4.5707 4.5707 0 0 0-1.913 1.4226c-0.54438 0.65992-0.97065 1.515-1.2865 2.5704-0.31842 1.0528-0.47505 2.347-0.47505 3.8826 0 1.5022 0.1284 2.7579 0.38517 3.767 0.25166 1.0092 0.60602 1.8206 1.058 2.4394 0.44937 0.6137 0.96294 1.0579 1.5356 1.3301 0.57262 0.26963 1.1709 0.40572 1.8052 0.40572zm27.214-11.643c0 0.93213-0.0309 1.7359-0.0899 2.4138-0.0616 0.67791-0.12075 1.2736-0.18231 1.7846h-11.055c0.12075 2.555 0.66765 4.4372 1.6434 5.639 0.98092 1.2017 2.3881 1.8052 4.2215 1.8052 0.63168 0 1.2043-0.0771 1.7153-0.22597a6.399 6.399 0 0 0 2.2802-1.1735 8.3198 8.3198 0 0 0 0.56492-0.4956l1.3532 2.5704a29.017 29.017 0 0 1-0.67791 0.65738c-0.30043 0.28245-0.70615 0.57262-1.2171 0.85508-0.51357 0.28502-1.1453 0.53669-1.8976 0.74468a9.8476 9.8476 0 0 1-2.6629 0.31842 9.6037 9.6037 0 0 1-3.6771-0.67793 6.9845 6.9845 0 0 1-2.7989-2.0979c-0.7678-0.9501-1.361-2.1518-1.7847-3.6104-0.41854-1.4611-0.62911-3.2124-0.62911-5.2564 0-1.9259 0.2157-3.5924 0.65223-4.9867 0.43653-1.3995 1.0323-2.5524 1.7846-3.4563a7.136 7.136 0 0 1 2.6192-2.0055 7.8576 7.8576 0 0 1 3.2021-0.65737c2.0774 0 3.7003 0.65737 4.8763 1.9644 1.1709 1.3096 1.759 3.274 1.759 5.8906zm-6.8613-4.8737c-1.2916 0-2.3316 0.53923-3.1122 1.6229-0.78062 1.0862-1.2326 2.6474-1.3533 4.6966h7.8961c0.0282-0.15406 0.0513-0.37232 0.0668-0.65735 0.0154-0.28247 0.0256-0.59574 0.0256-0.92442 0-1.5073-0.303-2.6705-0.90387-3.4974-0.60347-0.82684-1.4765-1.2402-2.6192-1.2402zm21.077 1.9387a9.1184 9.1184 0 0 0-1.3096-1.1042c-0.62911-0.46734-1.4585-0.70102-2.4805-0.70102-0.96294 0-1.7025 0.22597-2.2083 0.67791-0.51357 0.45195-0.77034 0.99376-0.77034 1.6229 0 0.81143 0.23367 1.4842 0.70101 2.0106 0.46477 0.5264 1.1812 1.0888 2.1416 1.6922l1.3532 0.81143c1.4765 0.87306 2.632 1.8129 3.4743 2.822 0.84224 1.0092 1.2634 2.3111 1.2634 3.9031 0 1.7127-0.59061 3.1584-1.7821 4.3345-1.1864 1.1709-2.894 1.759-5.1203 1.759-0.87306 0-1.6434-0.0924-2.3008-0.27219a9.9786 9.9786 0 0 1-1.7384-0.63171 5.9034 5.9034 0 0 1-1.2428-0.78832 8.6099 8.6099 0 0 1-0.81142-0.79089l1.759-2.8862c0.17974 0.17718 0.39801 0.3903 0.65479 0.62912a5.8957 5.8957 0 0 0 2.1441 1.2634c0.45194 0.1515 0.97835 0.22597 1.5818 0.22597 1.0785 0 1.9079-0.24138 2.4805-0.71899a2.2186 2.2186 0 0 0 0.85765-1.7615c0-0.51357-0.0693-0.95523-0.20286-1.3353a3.0788 3.0788 0 0 0-0.61114-1.0117 5.4695 5.4695 0 0 0-0.99118-0.85765 44.002 44.002 0 0 0-1.3558-0.90132l-1.3532-0.85765c-1.3532-0.87563-2.4138-1.7949-3.1841-2.7527-0.76268-0.96292-1.1478-2.2006-1.1478-3.7028a5.1742 5.1742 0 0 1 1.8052-3.993c0.57262-0.49559 1.2402-0.88847 2.008-1.1761 0.77034-0.28246 1.5869-0.42883 2.46-0.42883 0.84225 0 1.5638 0.0847 2.1672 0.25165a6.4222 6.4222 0 0 1 2.6372 1.3943c0.29016 0.25679 0.52126 0.47505 0.70359 0.65738zm18.368-11.144h-3.292v-2.709h10.515v2.7065h-3.2945v25.588h3.3818v2.8452h-10.695v-2.8452h3.3844v-25.588zm23.47 28.431v-13.946c0-1.836-0.30813-3.1507-0.92442-3.9468-0.61627-0.80117-1.5587-1.1992-2.822-1.1992-1.0836 0-1.9875 0.27219-2.7065 0.81144a9.8605 9.8605 0 0 0-1.7153 1.5818v16.699h-3.6566v-21.665h3.3382v2.4394h0.0899a4.5964 4.5964 0 0 1 0.59061-0.79347c0.29786-0.34408 0.68819-0.67276 1.1709-0.99375 0.48018-0.31327 1.0528-0.59059 1.7127-0.83197 0.66507-0.24138 1.4149-0.3595 2.2597-0.3595 0.96037 0 1.8334 0.1413 2.6192 0.42626 0.78061 0.2876 1.438 0.74724 1.9824 1.3764 0.54181 0.63426 0.96294 1.4534 1.2634 2.4625 0.303 1.004 0.45194 2.2494 0.45194 3.7208v14.218zm20.941 0v-13.946c0-1.836-0.30814-3.1507-0.92442-3.9468-0.61628-0.80117-1.5561-1.1992-2.8246-1.1992-1.0785 0-1.9824 0.27219-2.7065 0.81144-0.71899 0.54181-1.2942 1.0682-1.7153 1.5818v16.699h-3.654v-21.665h3.3382v2.4394h0.0924c0.0924-0.17976 0.28247-0.44424 0.58547-0.79347 0.30301-0.34408 0.69331-0.67276 1.1735-0.99375 0.48275-0.31327 1.0554-0.59059 1.7153-0.83197 0.66249-0.24138 1.4123-0.3595 2.2571-0.3595 0.96296 0 1.836 0.1413 2.6166 0.42626 0.78576 0.2876 1.4457 0.74724 1.9875 1.3764 0.54182 0.63426 0.96294 1.4534 1.2634 2.4625 0.29787 1.004 0.44937 2.2494 0.44937 3.7208v14.218zm23.015-14.352c0 0.93213-0.0308 1.7359-0.0899 2.4138-0.0617 0.67791-0.1182 1.2736-0.17974 1.7846h-11.057c0.1206 2.555 0.6702 4.4372 1.6485 5.639 0.97578 1.2017 2.383 1.8052 4.2164 1.8052 0.63426 0 1.2069-0.0771 1.7153-0.22597 0.51356-0.14895 0.95522-0.33125 1.3353-0.53925a7.4698 7.4698 0 0 0 1.5099-1.1298l1.3532 2.5704a36.463 36.463 0 0 1-0.67535 0.65738c-0.30299 0.28245-0.70871 0.57262-1.2223 0.85508-0.51099 0.28502-1.1401 0.53669-1.8925 0.74468-0.75237 0.21313-1.6434 0.31842-2.6654 0.31842a9.5703 9.5703 0 0 1-3.6746-0.67793 6.9332 6.9332 0 0 1-2.7989-2.0979c-0.77035-0.9501-1.3609-2.1518-1.7821-3.6104-0.42112-1.4611-0.63426-3.2124-0.63426-5.2564 0-1.9259 0.22083-3.5924 0.65738-4.9867 0.43653-1.3995 1.0271-2.5524 1.7821-3.4563a7.0924 7.0924 0 0 1 2.6166-2.0055c0.99375-0.43653 2.0594-0.65737 3.2047-0.65737 2.0748 0 3.7002 0.65737 4.8737 1.9644 1.171 1.3096 1.759 3.274 1.759 5.8906zm-6.8612-4.8737c-1.2916 0-2.3265 0.53923-3.1122 1.6229-0.78062 1.0862-1.2326 2.6474-1.3532 4.6966h7.8986c0.0308-0.15406 0.0513-0.37232 0.0693-0.65735 0.0105-0.28247 0.0206-0.59574 0.0206-0.92442 0-1.5073-0.30299-2.6705-0.9013-3.4974-0.60343-0.82684-1.4765-1.2402-2.6192-1.2402zm21.259 0.7652a2.5781 2.5781 0 0 0-0.59061-0.22597 4.5065 4.5065 0 0 0-1.2146-0.1335c-1.1427 0-2.0388 0.30814-2.686 0.92442-0.64454 0.6163-1.1042 1.2865-1.3764 2.0081v15.887h-3.6566v-21.665h3.3408v2.9325h0.0924c0.1464-0.42112 0.34408-0.83455 0.5829-1.2403 0.24394-0.40572 0.54181-0.76522 0.90387-1.0785 0.36207-0.32097 0.7909-0.56491 1.2891-0.7498 0.49559-0.17974 1.0888-0.26962 1.7821-0.26962 0.51357 0 0.92442 0.0462 1.2403 0.13859 0.31327 0.0873 0.56492 0.16178 0.74467 0.22341zm15.433 18.46v-13.946c0-1.836-0.30557-3.1507-0.92442-3.9468-0.61627-0.80117-1.5536-1.1992-2.8195-1.1992-1.0811 0-1.9849 0.27219-2.7091 0.81144-0.71899 0.54181-1.2942 1.0682-1.7153 1.5818v16.699h-3.654v-21.665h3.3382v2.4394h0.0924c0.0873-0.17976 0.28503-0.44424 0.58546-0.79347 0.303-0.34408 0.69332-0.67276 1.1761-0.99375 0.48019-0.31327 1.0502-0.59059 1.7127-0.83197 0.65994-0.24138 1.4149-0.3595 2.2571-0.3595 0.96294 0 1.836 0.1413 2.6192 0.42626 0.77805 0.2876 1.4431 0.74724 1.9849 1.3764 0.54182 0.63426 0.96294 1.4534 1.2634 2.4625 0.29787 1.004 0.45194 2.2494 0.45194 3.7208v14.218h-3.6566z"/>
</svg>
