<?xml version="1.0" encoding="utf-8"?>
<!-- Generator: Adobe Illustrator 12.0.1, SVG Export Plug-In . SVG Version: 6.00 Build 51448)  -->
<!DOCTYPE svg PUBLIC "-//W3C//DTD SVG 1.1//EN" "http://www.w3.org/Graphics/SVG/1.1/DTD/svg11.dtd" [
	<!ENTITY ns_svg "http://www.w3.org/2000/svg">
	<!ENTITY ns_xlink "http://www.w3.org/1999/xlink">
]>
<svg  version="1.1" id="Layer_2" xmlns="&ns_svg;" xmlns:xlink="&ns_xlink;" width="231" height="154" viewBox="0 0 231 154"
	 style="overflow:visible;enable-background:new 0 0 231 154;" xml:space="preserve">
<rect style="fill:#112FA7;" width="231" height="154"/>
<linearGradient id="XMLID_2_" gradientUnits="userSpaceOnUse" x1="44.499" y1="76.7422" x2="186.5005" y2="76.7422">
	<stop  offset="0" style="stop-color:#DDE090"/>
	<stop  offset="1" style="stop-color:#ABB258"/>
</linearGradient>
<path style="fill:url(#XMLID_2_);" d="M115.5,17.2L115.5,17.2c-0.2,0-0.4,0.1-0.9,0.7c-1.4,1.7-2.4,2.7-3.9,4l-0.1,0.1
	c-0.4,0.4-0.6,0.9-0.6,1.4c0,0.5,0.2,1,0.6,1.4c1.6,1.5,2.3,2.2,3.6,3.9l0.2,0.4v8c0,0.3-0.1,0.5-0.4,0.6c-0.2,0.1-0.5,0.1-0.7-0.1
	c0,0-4.3-3.2-4.3-3.2l-0.3-0.5c-0.1-1.4-0.1-2.3-0.1-4c0-0.5-0.1-1-0.4-1.3c-0.3-0.3-0.8-0.5-1.3-0.4c0,0-0.2,0-0.2,0
	c-1.9,0.1-3.2,0.1-5.2-0.1c-0.5,0-0.8,0-1,0.1c-0.1,0.1-0.2,0.5-0.1,1c0.2,2,0.1,3.3,0.1,5.2l0,0.2c0,0.5,0.1,1,0.4,1.3
	c0.3,0.3,0.8,0.5,1.3,0.4c2-0.1,3,0,5,0.1l0.7-0.1c0.2-0.1,0.5,0,0.7,0.1l5.5,4.1c0.2,0.1,0.3,0.3,0.3,0.6v8.7
	c0,0.3-0.1,0.5-0.4,0.6c-0.2,0.1-0.5,0.1-0.7-0.1c0,0-4.6-3.5-4.6-3.5c0,0-0.3-0.5-0.3-0.5c-0.1-1.4-0.1-2.4-0.1-4.2
	c0-0.5-0.1-1-0.5-1.3c-0.3-0.3-0.8-0.5-1.3-0.5l-0.2,0c-1.9,0.1-3.3,0.1-5.4-0.1c-0.5,0-0.9,0-1,0.1c-0.1,0.1-0.2,0.5-0.1,1
	c0.2,2,0.2,3.4,0.1,5.4l0,0.2c0,0.5,0.1,1,0.5,1.3s0.8,0.5,1.3,0.5c2.1-0.1,3.1,0,5.2,0.2l0.8-0.1c0.2-0.1,0.5,0,0.6,0.1
	c0,0,5.9,4.4,5.9,4.4c0.2,0.1,0.3,0.3,0.3,0.6v8.6c0,0.3-0.1,0.5-0.4,0.6c-0.2,0.1-0.5,0.1-0.7-0.1c0,0-4.9-3.7-4.9-3.7L108,59
	c-0.1-1.5-0.1-2.5-0.1-4.3c0-0.6-0.2-1.1-0.5-1.4c-0.3-0.3-0.8-0.5-1.4-0.5c0,0-0.2,0-0.2,0c-2,0.1-3.5,0.1-5.6-0.1
	c-0.7-0.1-1,0.1-1.1,0.2C99.1,53,99,53.3,99.1,54c0.2,2.1,0.2,3.6,0.1,5.6c0,0,0,0.2,0,0.2c0,0.6,0.2,1.1,0.5,1.4
	c0.3,0.3,0.8,0.5,1.4,0.5c2.1-0.1,3.3-0.1,5.4,0.2l0.8-0.1c0.2-0.1,0.5,0,0.7,0.1c0,0,5.8,4.3,6,4.5c0.6-0.2,1.1-0.3,1.6-0.3
	s1,0.1,1.6,0.3c0.1-0.1,6-4.5,6-4.5c0.2-0.1,0.4-0.2,0.6-0.1c0,0,0.8,0.1,0.8,0.1c2.1-0.2,3.3-0.2,5.4-0.2c0.6,0,1.1-0.2,1.4-0.5
	c0.3-0.3,0.5-0.8,0.5-1.4l0-0.2c-0.1-2-0.1-3.5,0.1-5.6c0.1-0.7,0-1-0.2-1.1c-0.1-0.1-0.4-0.2-1.1-0.2c-2.1,0.2-3.5,0.2-5.5,0.1
	c0,0-0.2,0-0.2,0c-0.6,0-1.1,0.2-1.4,0.5c-0.3,0.3-0.5,0.8-0.5,1.4c0.1,1.8,0,2.9-0.1,4.3l-0.3,0.5l-4.9,3.7
	c-0.2,0.2-0.5,0.2-0.7,0.1s-0.4-0.4-0.4-0.6v-8.6c0-0.2,0.1-0.4,0.3-0.6l5.9-4.4c0.2-0.1,0.4-0.2,0.7-0.1l0.8,0.1
	c2.1-0.2,3.1-0.2,5.2-0.2c0.5,0,1-0.1,1.3-0.5c0.3-0.3,0.5-0.8,0.5-1.3l0-0.2c-0.1-1.9-0.1-3.3,0.1-5.4c0.1-0.5,0-0.9-0.1-1
	c-0.1-0.1-0.5-0.2-1-0.1c-2,0.2-3.4,0.1-5.3,0.1c0,0-0.2,0-0.2,0c-0.5,0-1,0.1-1.3,0.5c-0.3,0.3-0.5,0.8-0.5,1.3
	c0.1,1.7,0,2.7-0.1,4.2c0,0-0.3,0.5-0.3,0.5l-4.6,3.5c-0.2,0.2-0.5,0.2-0.7,0.1s-0.4-0.4-0.4-0.6v-8.7c0-0.2,0.1-0.4,0.3-0.6
	l5.5-4.1c0.2-0.1,0.4-0.2,0.7-0.1l0.7,0.1c2-0.2,3-0.2,5-0.1c0.5,0,1-0.1,1.3-0.4c0.3-0.3,0.5-0.8,0.4-1.3l0-0.2
	c-0.1-1.9-0.1-3.2,0.1-5.2c0-0.5,0-0.8-0.1-1c-0.1-0.1-0.5-0.2-1-0.1c-2,0.2-3.3,0.1-5.2,0.1l-0.2,0c-0.5,0-1,0.1-1.3,0.4
	c-0.3,0.3-0.5,0.8-0.4,1.3c0.1,1.7,0,2.6-0.1,4l-0.3,0.5l-4.3,3.2c-0.2,0.2-0.5,0.2-0.7,0.1s-0.4-0.4-0.4-0.6v-8l0.2-0.4
	c1.3-1.6,2.1-2.4,3.6-3.9c0.4-0.4,0.6-0.9,0.6-1.4c0-0.5-0.2-1-0.6-1.4l-0.1-0.1c-1.5-1.4-2.6-2.4-3.9-4
	C115.9,17.3,115.7,17.2,115.5,17.2z M161.3,31.1C161.3,31.1,161.2,31.1,161.3,31.1c-0.4,0.6-1.1,1-1.8,1.4c-1.1,0.6-2.2,1.3-2.2,2.4
	c0,1.4,2.2,3,3.4,3.8l0.9,0.7c0.1,0.1,0.3,0.4,0.4,9.9c0,0.1,0,0.1-0.1,0.1c-0.1,0-0.1,0-0.2,0l-1-1.1l-1.1-1.2
	c0-0.1-0.1-0.7-0.1-0.7c-0.2-1.7-0.5-4.4-2.7-6.2c-1.8-1.5-5.9-1.9-8.1-1.7c-0.8,0.1-1.2,0.2-1.2,0.3c-0.5,0.7-0.7,3.9,1.8,6.4
	c2,2,5.3,2.2,7.5,2.3l1.3,0.1c0.8,0.6,3.6,3.1,3.9,3.6c0,0,0.1,0.1,0.1,0.1c0,0,0,0.1,0,0.1c0,0,0.1,8.7,0.1,8.9
	c0.2,0,1.1,0.1,1.4,0.1c0-0.3,0.1-9,0.1-9c0,0,0-0.1,0-0.1l0.1-0.1c0.4-0.5,3.1-3,3.9-3.5c0.1,0,1.3-0.1,1.3-0.1
	c2.2-0.1,5.5-0.3,7.5-2.3c1.6-1.6,2.1-3.6,2.1-4.9c0-0.7-0.1-1.3-0.3-1.5c-0.1-0.1-0.4-0.2-1.2-0.3c-2.2-0.2-6.3,0.1-8.1,1.7
	c-2.2,1.8-2.5,4.5-2.7,6.2l-0.1,0.7c0,0.1-1.1,1.3-1.1,1.3l-1,1.1c0,0-0.1,0.1-0.2,0c-0.1,0-0.1-0.1-0.1-0.1
	c0.2-9.6,0.3-9.8,0.4-9.9l0.9-0.7c1.2-0.8,3.4-2.4,3.4-3.8c0-1.1-1.1-1.8-2.2-2.4c-0.7-0.4-1.4-0.8-1.8-1.3
	c-0.3-0.9-0.9-1.4-1.5-1.4S161.6,30.2,161.3,31.1z M66.8,31.1C66.8,31.1,66.8,31.1,66.8,31.1c-0.4,0.6-1.1,1-1.8,1.4
	c-1.1,0.6-2.2,1.3-2.2,2.4c0,1.4,2.2,3,3.4,3.8l0.9,0.7c0.1,0.1,0.3,0.4,0.4,9.9c0,0.1,0,0.1-0.1,0.1c-0.1,0-0.1,0-0.2,0l-1-1.1
	l-1.1-1.2c0-0.1-0.1-0.7-0.1-0.7c-0.2-1.7-0.5-4.4-2.7-6.2c-1.8-1.5-5.9-1.9-8.1-1.7c-0.8,0.1-1.2,0.2-1.2,0.3
	c-0.2,0.2-0.3,0.8-0.3,1.5c0,1.3,0.5,3.3,2.1,4.9c2,2,5.3,2.2,7.5,2.3l1.3,0.1c0.8,0.6,3.6,3.1,3.9,3.6l0.1,0.1c0,0,0,0.1,0,0.1
	c0,0,0.1,8.7,0.1,9c0.2,0,1.1-0.1,1.4-0.1c0-0.3,0.1-8.9,0.1-8.9c0,0,0-0.1,0-0.1l0.1-0.1c0.4-0.5,3.1-3,3.9-3.5
	c0.1,0,1.3-0.1,1.3-0.1c2.2-0.1,5.5-0.3,7.5-2.3c1.6-1.6,2.1-3.6,2.1-4.9c0-0.7-0.1-1.3-0.3-1.5c-0.1-0.1-0.4-0.2-1.2-0.3
	c-2.2-0.2-6.3,0.1-8.1,1.7c-2.2,1.8-2.5,4.5-2.7,6.2L71.4,47c0,0.1-1.1,1.3-1.1,1.3l-1,1.1c0,0-0.1,0.1-0.2,0
	c-0.1,0-0.1-0.1-0.1-0.1c0.1-9.6,0.3-9.8,0.4-9.9l0.9-0.7c1.2-0.8,3.4-2.4,3.4-3.8c0-1.1-1.1-1.8-2.2-2.4c-0.7-0.4-1.4-0.8-1.8-1.3
	c-0.3-0.9-0.9-1.4-1.5-1.4S67.1,30.2,66.8,31.1z M74.9,51.5c-2.5,2.1-2.8,5-3.1,7l-0.1,0.7c0,0-0.6,0.7-0.9,1c0.5,0,2.3,0,2.3,0
	c0,0,0,0,0,0c0,0,0.4-0.3,0.4-0.3c0.1,0,1.5-0.1,1.5-0.1c2.4-0.1,6.1-0.3,8.4-2.6c1.8-1.8,2.4-4,2.4-5.5c0-0.8-0.2-1.4-0.4-1.7
	c-0.1-0.1-0.5-0.3-1.4-0.4C81.5,49.4,76.9,49.8,74.9,51.5z M52.5,49.7c-0.9,0.1-1.3,0.3-1.4,0.4c-0.2,0.3-0.4,0.9-0.4,1.7
	c0,1.5,0.5,3.7,2.4,5.5c2.3,2.3,6,2.5,8.4,2.6l1.4,0.1c0.1,0,1,0.8,1,0.8c0,0,1.4-0.2,2-0.2c-0.2-0.2-1.1-1.2-1.1-1.2
	c0-0.1-0.1-0.8-0.1-0.8c-0.2-2-0.6-4.9-3.1-7C59.6,49.8,55,49.4,52.5,49.7z M147,49.7c-0.9,0.1-1.3,0.3-1.4,0.4
	c-0.2,0.3-0.4,0.9-0.4,1.7c0,1.5,0.5,3.7,2.4,5.5c2.3,2.3,6,2.5,8.4,2.6l1.4,0.1c0.1,0,0.5,0.4,0.5,0.4c0,0,1.6,0,2.2,0
	c-0.3-0.3-0.9-1-0.9-1c0-0.1-0.1-0.8-0.1-0.8c-0.2-2-0.6-4.9-3.1-7C154.1,49.8,149.5,49.4,147,49.7z M169.4,51.5L169.4,51.5
	c-2.5,2.1-2.8,5-3.1,7l-0.1,0.7c0,0.1-0.8,1-1.1,1.3c0.4,0,2,0.2,2.1,0.2c0,0,0,0,0,0c0,0,0.8-0.8,0.8-0.8c0.1,0,1.5-0.1,1.5-0.1
	c2.4-0.1,6.1-0.3,8.4-2.6c1.8-1.8,2.4-4,2.4-5.5c0-0.8-0.2-1.4-0.4-1.7c-0.1-0.1-0.5-0.3-1.4-0.4C176,49.4,171.4,49.8,169.4,51.5z
	 M120.5,69.7c0.2,0.5,0.2,0.9,0.3,1.4c3.6,0.1,7.1,0.5,10.5,1.1c0.2-0.3,0.7-0.7,1.1-1.1c0.5-1,11.8-5.3,23.1-5.4
	c11-0.7,21.7,2.7,22.2,3.5c0,0,0,0.1,0,0.2c0,0-0.1,0.1-0.2,0.1c-1.9-0.6-11.7-3.3-21.9-2.5c-11.3,0.3-22,4.6-22.3,5.3
	c0,0-0.2,0.1-0.4,0.2c2.9,0.6,5.7,1.4,8.2,2.4c0.2-0.2,0.6-0.4,1-0.6c0.5-0.5,9.6-3.1,18.6-2.2c9,0.4,17.1,4,17.3,4.4
	c0,0,0,0.1,0,0.1c-0.1,0.2-0.1,0.2-1.3-0.2c-2.5-0.8-9.1-2.9-16.1-3.1c-8.8-0.7-16.9,1.7-17.9,2.2c2.1,0.9,4,1.8,5.8,2.9
	c0,0,0.2,0.1,0.2,0.1s0.1,0,0.1,0.1c0.2-0.1,0.5-0.2,0.8-0.2c0.1,0,7.2-0.5,14.1,1.1c6.5,1.2,12.3,4.6,12.5,5.1c0,0,0,0.1,0,0.1
	c-0.1,0.2-0.2,0.1-1.4-0.4c-2.1-0.9-6.5-2.9-11.3-3.6c-5.4-1.1-10.8-1-12.8-0.9c2.9,1.7,5.7,3.9,8.3,6.4c0.2-0.1,0.5-0.2,0.5-0.2
	c0.3-0.3,5.2,0.2,9.2,2.1c3.9,1.6,7.2,4.7,7.2,5.2c0,0,0,0.1,0,0.1c-0.1,0.2-0.3,0-1.2-0.6c-1.3-0.9-3.7-2.6-6.5-3.6
	c-3.3-1.5-6.8-1.9-8-1.9c5.8,5.9,9.4,12.4,9.4,13.1c0,0,0,0,0,0c0,0-0.1,0.1-0.1,0.1c-0.1,0-0.1,0-0.6-0.8
	c-1.2-1.9-4.4-6.8-9.5-11.8c0,0.3,0,0.6,0,1.1c0,2.2,0.3,6.3,0.5,9c0.1,1.7,0.2,2.5,0.2,2.9c0,0.3,0,0.3-0.1,0.3
	c-0.2,0-0.3-0.2-0.4-0.3c-0.6-1.2-1.6-8.8-1.6-12.2c0-0.9,0.1-1.5,0.2-1.6c0,0,0.1-0.1,0.1-0.2c-2.9-2.7-6-4.9-9.1-6.6
	c-0.1,0.3-0.1,0.8-0.1,1.6c0,2.1,0.2,5.5,0.3,8.2c0.1,2.2,0.2,3.3,0.2,3.8c0,0.5,0,0.5-0.1,0.5c-0.2,0-0.3-0.2-0.3-0.2
	c-0.8-1.6-1.8-13.9-1.2-14.5c0,0,0,0,0,0c0,0,0-0.1,0-0.1c-2-1.2-4.2-2.2-6.6-3.1c-0.2,1-0.3,3.4-0.3,5.1c0,1,0,1.8,0.1,1.9
	c0,0,0,0,0,0.1c0,0,0,0,0,0.1c0,0,0,0.1-0.1,0.1c-0.1,0-0.3,0-0.4-0.2c-0.6-0.6-0.8-3.4-0.8-5.4c0-1,0.1-1.8,0.2-2.2
	c-7.3-2.5-14.5-3.3-19.3-3.4c-0.1,0.2-0.2,0.7-0.3,0.8c14.3,5.2,25.5,19.2,27.8,27c0.7,2.4,1.1,4.9,1.1,7.2c0,1.1-0.1,2.1-0.2,2.9
	c4.5,0.5,9.5-0.2,12.9-2l0.2-0.1c0,0,0.1,0,0.1,0l0.2,0.1c4.3,2.1,8.6,2.1,12.1,0c3.7-2.3,5.9-6.7,6-11.8c0,0,0-0.3,0-0.3
	c0,0,0-0.1,0.1-0.1l0.2-0.1c3-1.9,4.8-4.3,5.4-7.3c0.8-4-0.8-8.1-2.6-10.6l-0.1-0.2c0,0,0-0.1,0-0.1l0.1-0.2
	c2.1-7.4-1-10.9-3.9-12.5c-2.6-1.5-7.9-3.3-18.2-3.7C152.9,61.2,134.7,62.6,120.5,69.7z M69.5,61.6c-10.4,0.4-15.6,2.2-18.2,3.7
	c-2.9,1.6-6,5.2-3.9,12.5l0.1,0.2c0,0,0,0.1,0,0.1l-0.1,0.2c-1.8,2.5-3.4,6.6-2.6,10.6c0.6,2.9,2.4,5.4,5.4,7.3l0.2,0.1
	c0,0,0.1,0.1,0.1,0.1l0,0.3c0.1,5.1,2.3,9.5,6,11.8c3.5,2.1,7.8,2.1,12.1,0l0.2-0.1c0,0,0.1,0,0.1,0l0.2,0.1c3.4,1.8,8.4,2.5,12.9,2
	c-0.1-0.8-0.2-1.8-0.2-2.9c0-2.4,0.4-4.8,1.1-7.2c2.3-7.7,13.5-21.8,27.8-27c-0.1-0.2-0.2-0.7-0.3-0.8c-4.8,0.2-12.1,0.9-19.3,3.4
	c0.1,0.4,0.2,1.2,0.2,2.2c0,2.1-0.2,4.8-0.8,5.4c-0.2,0.2-0.3,0.2-0.4,0.2c0,0-0.1,0-0.1-0.1c0,0,0,0,0-0.1c0,0,0,0,0-0.1
	c0-0.1,0.1-0.9,0.1-1.9c0-1.8-0.1-4.2-0.3-5.1c-2.3,0.9-4.6,1.9-6.6,3.1c0,0.1,0.1,0.2,0.1,0.2c0.1,0.1,0.2,0.7,0.2,1.6
	c0,3.5-0.8,11.6-1.4,12.8c0,0.1-0.1,0.3-0.3,0.2c-0.1,0-0.1,0-0.1-0.6c0-0.5,0.1-1.6,0.2-3.8c0.1-2.7,0.3-6.1,0.3-8.1
	c0-0.8,0-1.3-0.1-1.6c-3.2,1.7-6.2,4-9.1,6.6c0.1,0.1,0.2,0.3,0.2,0.3c0.1,0.1,0.2,0.6,0.2,1.4c0,3.3-1,11-1.6,12.3
	c0,0.1-0.2,0.3-0.4,0.3c-0.1,0-0.1,0-0.1-0.3c0-0.4,0.1-1.1,0.2-2.8c0.2-2.7,0.5-6.8,0.5-9c0-0.5,0-0.8,0-1.1
	c-5.1,5-8.3,9.9-9.5,11.8c-0.5,0.8-0.5,0.8-0.6,0.8c0,0-0.1,0-0.1-0.1c0,0,0,0,0,0c0-0.7,3.6-7.1,9.4-13.1c-1.3,0-4.8,0.4-8,1.9
	c-2.8,1-5.2,2.7-6.5,3.6c-0.9,0.6-1.1,0.8-1.2,0.6c0,0,0-0.1,0-0.1c0.1-0.5,3.3-3.6,7.3-5.2c4-2,8.8-2.4,9.2-2.1
	c0,0,0.3,0.1,0.4,0.2c2.6-2.5,5.4-4.6,8.3-6.4c-2-0.1-7.4-0.2-12.8,0.9c-4.9,0.8-9.3,2.7-11.4,3.6c-1.2,0.5-1.3,0.6-1.4,0.4
	c0,0,0-0.1,0-0.1c0.2-0.5,6-3.9,12.5-5.1c6.9-1.5,14.1-1.1,14.1-1.1c0.3,0,0.6,0.1,0.8,0.2c0.1,0,0.2,0,0.2-0.1c0,0,0,0,0,0
	c0,0,0.2-0.1,0.2-0.1c1.8-1.1,3.8-2,5.8-2.9c-1.2-0.5-9.2-2.9-17.9-2.2c-7,0.2-13.6,2.3-16.1,3.1c-1.2,0.4-1.2,0.4-1.3,0.2
	c0,0,0-0.1,0-0.1c0.2-0.4,8.3-4,17.3-4.4c9-0.9,18.1,1.7,18.7,2.2c0.3,0.1,0.7,0.3,0.9,0.5c2.6-1,5.3-1.7,8.2-2.4
	c-0.2-0.1-0.3-0.2-0.3-0.2c-0.4-0.8-11-5.1-22.4-5.4c-10.3-0.8-20.1,1.9-21.9,2.5c-0.1,0-0.1,0-0.2-0.1c0,0-0.1-0.1,0-0.2
	c0.5-0.8,11.2-4.2,22.2-3.5c11.3,0.1,22.6,4.4,23.1,5.5c0.4,0.3,0.8,0.7,1.1,1c3.4-0.6,6.9-1,10.5-1.1c0-0.5,0.1-0.9,0.3-1.4
	C96.3,62.6,77.5,61.3,69.5,61.6z M82.3,78.5C82.3,78.5,82.3,78.5,82.3,78.5C82.3,78.5,82.3,78.5,82.3,78.5z M111.5,71.3
	c0,2.2,1.8,4,4,4c2.2,0,4-1.8,4-4s-1.8-4-4-4C113.3,67.3,111.5,69.1,111.5,71.3z M116.2,76.6c0,0.2,0,1.7,0,1.9
	c0.2,0,1.1,0.2,1.1,0.2c0.9-0.1,10.2,5,16.2,12.6c6.5,7.3,8.8,16.8,8.5,17.5c0,0.1-0.1,0.1-0.2,0.1c-0.1,0-0.1,0-0.2-0.5
	c-2.6-8.2-6.3-13.4-9-16.3c-6.1-7.5-15-12.1-15.7-12c0,0-0.4-0.2-0.7-0.3c0,0.4,0,6.6,0,6.8c0.2,0,0.8,0.2,0.8,0.2
	c0.7-0.3,8.3,4.2,12.8,11.1c4.9,6.5,6.7,14.5,6.5,14.8c0,0.1-0.1,0.1-0.2,0.1c-0.1-0.1-0.2-0.3-0.6-1.4c-0.9-2.6-2.9-8-6.6-12.7
	c-4.6-6.7-11.6-10.7-12.2-10.5c0,0-0.1,0-0.1,0c0,0-0.2-0.1-0.3-0.2c0,0.4,0,7.3,0,7.5c0.2,0,0.6,0.1,0.7,0.1c0.1,0,0.3,0,0.6,0.1
	c1.8,0.8,7.5,5.1,9.4,11.7c2.5,6.8,2.8,14.3,2.6,14.5c-0.3,0.1-0.4-0.2-0.7-2c-0.4-2.6-1.2-7.5-3-12.1c-2.3-7.1-8.6-11.1-9.2-10.9
	c0,0-0.1,0-0.1,0c0,0-0.1-0.1-0.3-0.1c0,0.4-0.1,8.4-0.1,8.6c0.2,0.1,0.5,0.2,0.5,0.2c0.7-0.1,4.4,4.5,5.5,9.8
	c1.4,5.1,1.2,10.3,1,10.6c0,0-0.1,0.1-0.1,0.1c-0.2,0-0.3-0.2-0.4-1.8c-0.2-2-0.6-5.3-1.6-8.5c-1.2-4.9-4.3-8.6-4.9-8.9
	c-0.2,21-0.3,21-0.6,21s-0.4,0-0.6-21c-0.6,0.3-3.7,4-4.9,8.9c-1,3.2-1.4,6.5-1.6,8.5c-0.2,1.6-0.2,1.8-0.4,1.8c0,0-0.1,0-0.1-0.1
	c-0.2-0.3-0.4-5.5,1-10.6c1.2-5.3,4.8-9.9,5.6-9.8c0,0,0.3-0.1,0.5-0.2c0-0.2,0-8.1-0.1-8.6c-0.1,0.1-0.3,0.1-0.3,0.1
	c0,0-0.1,0-0.1,0c-0.6-0.2-6.9,3.8-9.2,10.9c-1.8,4.6-2.6,9.5-3,12.1c-0.3,1.9-0.4,2.1-0.6,2.1c-0.3-0.3,0-7.8,2.5-14.6
	c1.9-6.6,7.6-10.9,9.4-11.7c0.4-0.2,0.5-0.2,0.6-0.1c0.1,0,0.5-0.1,0.7-0.1c0-0.2,0-7,0-7.5c-0.2,0.1-0.3,0.2-0.3,0.2
	c0,0-0.1,0-0.1,0c-0.6-0.2-7.6,3.9-12.2,10.5c-3.7,4.7-5.7,10.1-6.6,12.7c-0.4,1.2-0.5,1.4-0.6,1.4c-0.1,0-0.2,0-0.2-0.1
	c-0.2-0.3,1.6-8.3,6.5-14.8c4.5-6.9,12-11.4,12.9-11.1c0,0,0,0,0,0c0,0,0.5-0.1,0.7-0.2c0-0.2,0-6.4,0-6.8c-0.2,0.1-0.6,0.3-0.6,0.3
	c-0.7-0.1-9.6,4.5-15.7,12c-2.7,2.9-6.4,8-9,16.3c-0.2,0.5-0.2,0.5-0.2,0.5c-0.1,0-0.2,0-0.2-0.1c-0.3-0.7,2-10.2,8.5-17.5
	c6-7.6,15.3-12.7,16.3-12.6c0,0,0.7-0.1,1-0.2c0-0.2,0-1.8,0-1.9c-1.4-0.2-2.7-1-3.5-2.1C98.4,79.1,86.6,92,84.1,100.7
	c-0.7,2.4-1,4.8-1,7c0,6,2.4,10.9,6.6,12.4l0.3,0.1c0.1,0,0.1,0.1,0.1,0.1l0,0.3c0.3,3.3,4.6,9.8,13.2,10.1c0,0,0.2,0,0.2,0
	c0,0,0.1,0,0.1,0.1l0.1,0.2c2.6,3.3,6.9,5.3,11.7,5.3c4.8,0,9.2-2,11.7-5.3l0.1-0.2c0,0,0.1-0.1,0.1-0.1l0.2,0
	c8.6-0.3,12.9-6.8,13.2-10.1l0-0.3c0-0.1,0-0.1,0.1-0.1l0.3-0.1c4.2-1.5,6.6-6.4,6.6-12.4c0-2.2-0.3-4.6-1-7
	c-2.6-8.7-14.4-21.6-27.2-26.2C118.9,75.6,117.6,76.4,116.2,76.6z M140,75.8C140,75.8,140,75.8,140,75.8C140,75.8,140,75.8,140,75.8
	C140,75.8,140,75.8,140,75.8z M91,75.8C91,75.8,91,75.8,91,75.8C91,75.8,91,75.8,91,75.8C91,75.8,91,75.8,91,75.8z M148.8,78.7
	C148.8,78.7,148.8,78.7,148.8,78.7C148.8,78.7,148.8,78.7,148.8,78.7z M116.1,106.5C116.1,106.5,116.1,106.5,116.1,106.5
	C116.1,106.5,116.1,106.5,116.1,106.5L116.1,106.5C116.1,106.5,116.1,106.5,116.1,106.5z M114.9,106.4
	C114.9,106.5,114.9,106.5,114.9,106.4C114.9,106.5,114.9,106.5,114.9,106.4C114.9,106.5,114.9,106.5,114.9,106.4L114.9,106.4z"/>
</svg>
