<?xml version="1.0" encoding="UTF-8" standalone="no"?>
<svg
   xmlns:dc="http://purl.org/dc/elements/1.1/"
   xmlns:cc="http://creativecommons.org/ns#"
   xmlns:rdf="http://www.w3.org/1999/02/22-rdf-syntax-ns#"
   xmlns:svg="http://www.w3.org/2000/svg"
   xmlns="http://www.w3.org/2000/svg"
   xmlns:sodipodi="http://sodipodi.sourceforge.net/DTD/sodipodi-0.dtd"
   xmlns:inkscape="http://www.inkscape.org/namespaces/inkscape"
   version="1.0"
   width="768"
   height="768"
   viewBox="0 0 2000 2000"
   id="svg32"
   sodipodi:docname="Religious_syms.svg"
   inkscape:version="0.92.5 (2060ec1f9f, 2020-04-08)">
  <metadata
     id="metadata38">
    <rdf:RDF>
      <cc:Work
         rdf:about="">
        <dc:format>image/svg+xml</dc:format>
        <dc:type
           rdf:resource="http://purl.org/dc/dcmitype/StillImage" />
      </cc:Work>
    </rdf:RDF>
  </metadata>
  <defs
     id="defs36" />
  <sodipodi:namedview
     pagecolor="#ffffff"
     bordercolor="#666666"
     borderopacity="1"
     objecttolerance="10"
     gridtolerance="10"
     guidetolerance="10"
     inkscape:pageopacity="0"
     inkscape:pageshadow="2"
     inkscape:window-width="1920"
     inkscape:window-height="1015"
     id="namedview34"
     showgrid="false"
     inkscape:zoom="1.2291667"
     inkscape:cx="416.54237"
     inkscape:cy="384"
     inkscape:window-x="0"
     inkscape:window-y="0"
     inkscape:window-maximized="1"
     inkscape:current-layer="svg32" />
  <desc
     id="desc2">Created by potrace 1.11, written by Peter Selinger 2001-2013</desc>
  <g
     id="g887">
    <path
       d="m 244,140.9 v 83.8 l -7.7,0.7 c -4.2,0.3 -42.2,0.6 -84.5,0.6 H 75 V 290.5 355 H 159.5 244 V 509 663 H 308.5 373 V 509 355 H 455.5 538 V 289 223 H 455.5 373 V 140 57 H 308.5 244 Z m 82,45.6 V 269 l 82.8,0.2 82.7,0.3 0.3,19.2 0.2,19.3 H 409 326 V 462 616 H 308 290 V 462 308 h -84 -84 v -18 -18 h 84 84 v -84 -84 h 18 18 z"
       id="path4"
       inkscape:connector-curvature="0"
       style="fill:#000000;stroke:none;stroke-width:0.1" />
    <path
       d="M 704.1,515.4 793,360 704.1,204.6 l 179,-0.8 90.2,-154.6 90.2,154.6 179,0.8 -88.9,155.4 88.9,155.4 -179,0.8 -90.2,154.6 -90.2,-154.6 z m 77.2,-44.5 75.6,0.1 -37.9,-65.7 z m 0,-221.8 37.7,65.6 37.9,-65.7 z m 154.1,267.1 37.9,65.5 37.9,-65.5 z m 0,-312.4 h 75.8 l -37.9,-65.5 z m 154.3,267.2 75.6,-0.1 -37.7,-65.6 z m 0,-222 37.9,65.7 37.7,-65.6 z m -244.6,111 64.1,111.1 h 128.2 L 1101.5,360 1037.4,248.9 H 909.2 Z"
       id="path6"
       inkscape:connector-curvature="0"
       style="fill:#000000;stroke:none;stroke-width:0.1" />
    <path
       d="m 1686.2,87 c -14.4,16 -26.2,29.5 -26.2,30.1 0,2 6.9,12.3 11.7,17.5 6.5,6.9 14.3,13.4 29.7,24.3 l 12.8,9.2 5.2,-3.4 c 8,-5.4 13.5,-10.7 28.2,-27 7.5,-8.4 16.1,-17.5 19.1,-20.3 l 5.5,-5 -6.3,-6.1 C 1748.9,90.2 1713.7,58 1713,58 c -0.4,0 -12.4,13.1 -26.8,29 z"
       id="path8"
       inkscape:connector-curvature="0"
       style="fill:#000000;stroke:none;stroke-width:0.1" />
    <path
       d="m 1601,103.9 c -1.5,2.9 -1.2,16.7 0.6,26.2 2,10.5 8.1,29.1 12.7,39 4.7,9.9 17.8,27 29.8,38.9 19.5,19.5 41.3,31.1 66.4,35.5 10.5,1.8 35,2.1 47,0.5 19.6,-2.6 44,-8.6 56,-13.7 25,-10.7 57.3,-32 64.1,-42.3 l 2.6,-3.9 -4,-8.3 c -2.6,-5.3 -7.3,-12.3 -13.1,-19.3 -5,-6.1 -13,-15.8 -17.8,-21.7 l -8.7,-10.7 -3.9,2.2 c -2.2,1.2 -9.9,6.7 -17.1,12.1 -30.9,23.4 -51.1,33.8 -76.1,39.2 -11.1,2.4 -32.3,2.4 -43.5,0 -10.4,-2.2 -22.4,-6.5 -29.9,-10.7 -21.9,-12.2 -49.2,-39.5 -59.2,-59.2 -3.1,-6.1 -4.2,-6.8 -5.9,-3.8 z"
       id="path10"
       inkscape:connector-curvature="0"
       style="fill:#000000;stroke:none;stroke-width:0.1" />
    <path
       d="m 1531.5,179.7 c -34,2.9 -75.5,16.6 -100.9,33.3 -11.5,7.5 -27.6,19.9 -27.6,21.2 0,1.7 41,70 41.8,69.6 0.4,-0.2 9.5,-4.7 20.2,-10 68.4,-33.8 104.3,-38 125.5,-14.5 15.3,16.9 16.7,24.5 6.9,38.9 -12.8,18.9 -33,28.6 -63.4,30.4 -9.3,0.6 -39.4,-1.3 -52.2,-3.2 l -3.8,-0.6 0.6,3.4 c 1.6,9.1 7.8,30.8 11.4,39.8 7.1,17.9 18.3,37.8 27.2,48.3 l 2.3,2.8 10.5,-1.2 c 13.9,-1.5 33.3,-0.6 43.3,2 21.5,5.6 34.7,19.5 40.8,42.9 2.6,9.7 2.8,26.9 0.5,35.7 -6.1,23.1 -23.7,41.2 -48.4,49.4 -40.1,13.5 -101,5.2 -136.3,-18.6 -24.9,-16.8 -47.9,-58 -64.3,-115 -8.9,-30.8 -13.7,-42.5 -16.5,-39.8 -2.9,2.9 -3.8,21.7 -2.1,44.5 2.4,31.8 8.1,60.5 17,85 5.3,14.8 17.2,38.9 25.1,51 25,38.5 62.2,68.3 101.1,81.1 25,8.2 70.4,8.6 94.8,0.8 15.5,-4.9 33.6,-17.4 49.6,-34.2 25.6,-26.7 36.3,-53.4 38.1,-94.2 1.2,-28.3 -3,-50.3 -14.7,-76.5 -3.8,-8.8 -7,-16.1 -7,-16.3 0,-0.3 13.2,-0.7 29.3,-1 38.9,-0.6 41.2,-1.4 57.8,-18.4 10.8,-11.1 21.4,-25.3 32,-43 13.9,-23.2 21.8,-34.2 31.9,-44.3 14.4,-14.5 24.6,-18.8 41.5,-17.6 18.3,1.3 27.7,5 33.8,13.3 11.9,16.4 17.8,41.2 17.8,74.1 -0.1,38 -9.8,62.9 -33.6,86.7 -31.7,31.8 -75.4,42.5 -107.8,26.5 -19.4,-9.5 -39.7,-39.3 -39.7,-58.1 0,-8.7 -7.1,6.2 -9.1,19.3 -1.4,9 -0.6,33.1 1.5,44.6 6,32.5 16.8,54.7 35.4,72.3 14.7,13.9 30.6,20.7 53.8,23 21.4,2.1 42.4,-1.7 60.9,-11.1 33.2,-16.6 57,-51.2 68.9,-100 18.5,-75.9 6.1,-154.7 -31.9,-203.5 -14.6,-18.6 -35.2,-34.7 -52,-40.5 -9.3,-3.2 -27,-4.5 -44.3,-3.1 -48.2,3.6 -68.8,21.4 -105.6,91 -10.6,20 -17.4,30.4 -25.8,39.5 -15.3,16.8 -31.8,21.3 -52.3,14.3 -8.3,-2.9 -30.5,-12.8 -30.5,-13.6 0,-0.3 4.4,-3.3 9.6,-6.6 5.5,-3.4 12,-8.6 15.3,-12.1 17.8,-18.9 35.4,-55.6 38.1,-79.4 4.4,-38.7 -19.1,-83.1 -52.7,-99.9 -14.7,-7.3 -38,-10.5 -61.8,-8.4 z"
       id="path12"
       inkscape:connector-curvature="0"
       style="fill:#000000;stroke:none;stroke-width:0.1" />
    <path
       d="m 292.5,725 c -61.7,6.3 -114.6,27.7 -163.2,66.2 -10.3,8.2 -31.6,29.1 -41.1,40.3 -38,45.2 -60.8,97.3 -69.4,158.5 -1.7,12.8 -1.7,60.2 0,73 7.1,50.4 22.2,91.2 48.7,131 42.2,63.4 106.2,108.4 180,126.6 26.7,6.6 38.3,7.8 72,7.8 26,0 31.9,-0.3 44,-2.2 36.3,-5.7 72.8,-18 102.2,-34.6 17.8,-9.9 40.4,-25.7 52.3,-36.6 l 3.5,-3.2 -5.7,3.1 c -35.9,19.3 -79.6,30.1 -121.8,30.1 -69.3,0 -134.3,-27 -183,-76 -42,-42.2 -67.9,-96.7 -74.1,-155.8 -1.5,-14.8 -0.7,-52.3 1.5,-65.2 6.8,-40 19.6,-73 40.5,-104 40.5,-60.4 101.4,-99.9 172.3,-112 54.4,-9.2 109.1,-0.8 160.1,24.6 l 11.2,5.6 -4.4,-3.8 c -18.4,-16.1 -41.9,-31.7 -64.6,-42.9 -30.8,-15.2 -60.4,-24.3 -94.6,-29 -13.6,-1.9 -53.6,-2.8 -66.4,-1.5 z"
       id="path14"
       inkscape:connector-curvature="0"
       style="fill:#000000;stroke:none;stroke-width:0.1" />
    <path
       d="m 966,724.9 c -4.6,1.4 -8.5,3.9 -12.1,7.8 -6.4,6.6 -7.3,9.4 -7.7,23 l -0.4,12.2 -4.7,0.6 c -75.6,9.9 -142.3,51.4 -184.3,114.5 -21.7,32.5 -37.4,74.3 -41.3,109.6 l -0.7,6.2 -11.7,0.4 c -8.9,0.3 -12.6,0.9 -16.1,2.5 -6,2.7 -10.8,7.6 -13.8,14.2 -2.1,4.6 -2.4,6.4 -2,12.7 0.6,9.1 4.1,15.4 11.2,20.1 6.4,4.4 10.3,5.3 22.2,5.3 h 10 l 1.3,9.2 c 5.7,43.7 25.6,89.8 53.9,125.3 9.7,12.1 28.5,31 40.7,40.8 36,29 82,49 126.3,54.8 l 9.2,1.3 v 10 c 0,11.9 0.9,15.8 5.3,22.2 4.7,7.1 11,10.6 20,11.2 9.2,0.6 15.8,-2 21.8,-8.5 6,-6.5 7.2,-10.1 7.7,-23.4 l 0.4,-11.7 6.2,-0.7 c 25.3,-2.8 55.7,-12.2 81.8,-25.2 77.9,-39 130.9,-113.6 142.3,-200.4 l 0.6,-4.7 12.2,-0.4 c 13.8,-0.4 17.4,-1.7 23.8,-8.5 5,-5.2 7,-9.6 7.6,-16.3 1,-11.1 -4.9,-21.5 -15.1,-26.7 -4.4,-2.3 -6.6,-2.7 -16.8,-3.1 l -11.7,-0.4 -0.6,-4.7 c -10.4,-78.1 -55,-147.4 -121.5,-188.6 -30.9,-19.1 -68.5,-32.5 -104.1,-37 l -4.7,-0.6 -0.4,-11.7 c -0.4,-10.2 -0.8,-12.4 -3.1,-16.8 -6,-11.7 -20,-18 -31.7,-14.5 z m -20,166.8 v 68.8 l -48.4,-48.4 c -26.7,-26.7 -48.3,-48.8 -48,-49.2 0.9,-1.5 18.2,-12.7 26.6,-17.2 18.9,-10.3 51.8,-21.1 68.6,-22.6 0.9,-0.1 1.2,14.3 1.2,68.6 z m 68.4,-66.2 c 25,5 50.9,15.8 72.4,30.1 6.1,4.1 11.2,7.6 11.2,7.7 0,0.1 -21.8,22 -48.5,48.7 l -48.5,48.5 v -68.8 c 0,-37.8 0.3,-68.7 0.6,-68.7 0.4,0 6.1,1.1 12.8,2.5 z M 859,950.5 907.5,999 h -68.8 -68.9 l 0.7,-5.3 c 2.3,-17.3 11.4,-44.3 21,-62.5 6,-11.2 17.6,-29.2 18.9,-29.2 0.1,0 21.9,21.8 48.6,48.5 z m 285.4,-37.2 c 14.2,21.2 25.1,47.5 30.1,72.3 1.4,6.7 2.5,12.4 2.5,12.8 0,0.3 -30.9,0.6 -68.7,0.6 h -68.8 l 48.5,-48.5 c 26.7,-26.7 48.6,-48.5 48.7,-48.5 0.1,0 3.6,5.1 7.7,11.3 z m -157.2,82.4 c 15.9,7.1 23.9,26.5 17.7,42.8 -4.8,12.9 -17.6,21.8 -31.3,21.7 -19.7,-0.1 -33.7,-14.1 -33.8,-33.8 0,-13.4 8.2,-25.7 20.8,-31 5,-2.1 7.1,-2.4 13.9,-2.1 5.3,0.2 9.6,1.1 12.7,2.4 z M 859,1102.5 c -26.7,26.7 -48.7,48.5 -49,48.5 -0.3,0 -3.7,-4.8 -7.7,-10.8 -11.7,-17.5 -21.2,-38.2 -26.6,-57.7 -2.5,-8.6 -5.7,-24.2 -5.7,-27.1 0,-1.2 10.7,-1.4 68.7,-1.4 h 68.8 z m 318,-48.1 c 0,0.3 -0.9,5.2 -2,11 -5.4,28.1 -17.1,55.8 -33,78.3 -2.8,4 -5.2,7.3 -5.3,7.3 -0.1,0 -22,-21.8 -48.7,-48.5 l -48.5,-48.5 h 68.8 c 37.8,0 68.7,0.2 68.7,0.4 z m -231,107.2 v 68.6 l -5.2,-0.7 c -9.1,-1.3 -28.4,-6.3 -38.6,-10.1 -16.9,-6.3 -34,-15.6 -52.7,-28.6 -0.6,-0.5 19.2,-21 47.5,-49.3 26.7,-26.7 48.6,-48.5 48.7,-48.5 0.2,0 0.3,30.9 0.3,68.6 z m 151.5,28.5 c -0.3,0.3 -4.5,3.4 -9.3,6.7 -16.4,11.3 -36.5,20.8 -56.7,26.8 -8,2.5 -25.9,6.4 -28.9,6.4 -1.4,0 -1.6,-6.5 -1.6,-68.7 v -68.8 l 48.4,48.4 c 26.7,26.7 48.3,48.8 48.1,49.2 z"
       id="path16"
       inkscape:connector-curvature="0"
       style="fill:#000000;stroke:none;stroke-width:0.1" />
    <path
       d="m 1312,726.6 c -6.6,5.6 -7.8,12.7 -3.2,18.7 1.5,1.9 5.2,6.5 8.2,10 10.8,12.7 13.9,19.4 17.4,38.2 3.6,18.9 10.4,27.1 31.2,37.8 19.5,10 25.7,16.8 25.5,27.6 -0.1,7.8 2.3,11.5 9.7,14.9 l 5.7,2.7 35.7,0.3 35.6,0.3 2.6,3.8 c 1.5,2.1 5.3,6 8.6,8.7 6.7,5.5 7.5,7.4 2.9,7.4 -8.8,0 -18,5.4 -19.5,11.5 l -0.6,2.5 -31.6,-0.2 -31.7,-0.3 -1.3,-2.8 c -1.2,-2.4 -1.8,-2.7 -6.3,-2.7 -9.5,0 -8.9,-2.1 -8.9,32.1 v 30.1 l 2.9,2.9 2.9,2.9 h 45.6 45.6 v 25.3 25.4 l -6.7,1.2 c -12.3,2.2 -20.3,7 -20.3,12.1 0,1.5 2.3,7.4 5.1,13.1 2.8,5.7 6.6,15 8.5,20.5 l 3.4,10.2 v 114 c 0,79.6 0.3,115.7 1.1,119.3 0.8,3.7 2.1,6.1 4.8,8.8 4.9,4.9 10.6,6.5 21.8,5.9 7.2,-0.3 9.7,-0.9 13.8,-3.2 2.8,-1.5 5.9,-3.9 7,-5.4 2,-2.7 2,-4.5 2.3,-174.5 L 1530,974 h 110 110 v 171.1 c 0,168.7 0,171.2 2,174.4 1.1,1.7 4.3,4.4 7.2,6 4.4,2.4 6.8,3 14.1,3.3 11.2,0.6 16.9,-1 21.8,-5.9 2.7,-2.7 4,-5.1 4.8,-8.8 0.8,-3.6 1.1,-39.7 1.1,-119.3 v -114 l 3.4,-10.2 c 1.9,-5.5 5.7,-14.8 8.5,-20.5 2.8,-5.7 5.1,-11.6 5.1,-13.1 0,-5.1 -8,-9.9 -20.2,-12.1 l -6.8,-1.2 V 998.3 973 h 45.6 45.6 l 2.9,-2.9 2.9,-2.9 v -30.1 c 0,-34.2 0.6,-32.1 -8.9,-32.1 -4.6,0 -5.2,0.3 -6.6,3 l -1.6,3 h -31.3 -31.4 l -0.6,-2.5 c -1.5,-6 -10.8,-11.5 -19.5,-11.5 -4.6,0 -3.8,-2.1 2.7,-7.4 3.1,-2.5 6.8,-6.2 8.2,-8.1 l 2.5,-3.4 23.5,-0.1 c 33.9,-0.1 47.5,-1.2 54.4,-4.3 7.2,-3.3 9.6,-7.1 9.5,-14.8 -0.2,-10.7 6.1,-17.7 24,-26.8 23.6,-12 29.6,-19.8 33.6,-43.2 2.4,-14.4 6.1,-21.1 23.3,-41.9 3.1,-3.9 4.2,-6 4.2,-8.6 0,-7.1 -6.4,-14.4 -12.6,-14.4 -4.6,0 -14.5,3.4 -21.9,7.5 -23.8,13.2 -66,25.9 -114.1,34.4 -53.8,9.5 -106.3,14 -174.9,14.8 -96.2,1.2 -175.1,-6.2 -240,-22.3 -27.6,-6.9 -56.9,-18.1 -71.5,-27.4 -5.5,-3.5 -15.7,-7 -20.4,-7 -2.3,0 -4.5,0.9 -6.6,2.6 z M 1610,897 v 20 h -24.9 c -24.1,0 -25,-0.1 -25.6,-2 -1.2,-3.7 -8.5,-11.9 -12.9,-14.5 -2.7,-1.6 -6.7,-2.9 -10.1,-3.2 -3,-0.3 -5.5,-0.9 -5.5,-1.4 0,-0.4 2.9,-3.3 6.4,-6.3 3.5,-3.1 7.4,-7.2 8.7,-9.1 l 2.4,-3.5 h 30.8 30.7 z m 130,-10.1 c 4.9,4.8 9,9 9,9.3 0,0.3 -2.5,0.8 -5.5,1.1 -9,0.9 -16.2,6.2 -22.8,16.9 L 1719,917 H 1694.5 1670 V 897.5 878 h 30.5 30.4 z"
       id="path18"
       inkscape:connector-curvature="0"
       style="fill:#000000;stroke:none;stroke-width:0.1" />
    <path
       d="m 465.5,931.5 c -22.6,29.8 -31.2,40.4 -32.4,40 -24.4,-7.6 -94.7,-28.5 -95.3,-28.3 -0.4,0.2 9.4,14.9 21.8,32.8 12.4,17.9 25.5,36.6 29,41.6 l 6.4,9.2 -29.1,41.7 c -15.9,23 -28.8,41.9 -28.6,42.1 0.2,0.2 21.9,-6.1 48.3,-14.1 26.3,-8 48.4,-14.3 49,-14.1 0.6,0.2 14.8,18.5 31.5,40.5 l 30.4,40.2 0.7,-20.3 c 0.5,-11.2 1.1,-34.2 1.5,-51.3 l 0.8,-31 47.7,-16.5 c 26.3,-9.1 47.9,-16.8 48.2,-17.1 0.2,-0.2 -20.9,-7.8 -47,-16.8 -26.1,-9.1 -47.8,-16.7 -48.3,-17 -0.5,-0.3 -1.4,-23.3 -2,-51 -0.6,-27.8 -1.3,-50.6 -1.5,-50.8 -0.2,-0.2 -14.2,17.9 -31.1,40.2 z"
       id="path20"
       inkscape:connector-curvature="0"
       style="fill:#000000;stroke:none;stroke-width:0.1" />
    <path
       d="m 295.7,1393.2 c -12,15.4 -24.6,27.7 -44.9,43.7 -10.4,8.2 -15.8,13.1 -15.8,14.3 0,1 1.1,4.1 2.5,6.8 2.8,5.5 3.1,8.2 1.3,9.8 -0.7,0.5 -5.6,3.3 -10.8,6.2 -29,16.1 -52.4,40.4 -67.5,70.3 -11.2,22.1 -15.5,40 -15.5,64.6 0,17.5 1.9,29.9 6.5,43.7 13.2,39.7 42.5,73.1 81.3,92.9 5.2,2.7 9.2,5.3 9.2,6.2 0,0.7 -2.4,6.7 -5.4,13.3 l -5.3,11.8 8.6,3.8 c 10.1,4.6 25.7,13.7 37,21.9 l 8.1,5.8 v 18.3 c 0,11.6 -0.4,18.5 -1,18.9 -1.8,1.1 -33.7,-17.6 -54.5,-32 -39.1,-27 -71.3,-57.9 -90.2,-86.6 -12,-18.4 -22.1,-42.2 -28.3,-66.8 -4.9,-19.8 -6.4,-31.9 -6.4,-51.1 0,-21.1 1.8,-29.9 9.4,-45.9 6,-12.5 11.1,-19.4 29.8,-41.1 18.8,-21.6 20.7,-24 19,-24 -5.1,0 -29.4,12.3 -40.2,20.4 -10.7,7.9 -29.3,26.1 -36.8,36 -7,9.3 -17.5,30.3 -21.8,43.5 -7.4,22.9 -9.3,40.6 -7,67.1 1.9,21.8 4.8,35.5 12.5,58 14.2,41.2 22,55 63,110 25.8,34.7 30.3,42.9 34.6,63.9 1,5.2 2.2,9.7 2.4,10 0.3,0.2 1.8,-0.7 3.3,-2 8.5,-7.9 43.1,-37.7 51.2,-44.2 5.2,-4.3 10.1,-7.7 11,-7.7 2.4,0 17.3,6.4 26.2,11.3 13.8,7.6 14,6.5 -1.3,13.2 -7.4,3.3 -16.5,7.6 -20.3,9.7 -14,7.7 -28.9,22.4 -33.7,33.3 -2.2,5 -3.7,18.3 -2.5,23 1.1,4.2 8.3,11.3 12.8,12.6 10.9,2.9 26.6,-6 29.9,-17 1,-3.5 0.9,-5.3 -1.4,-14.1 l -2.5,-10.2 4.6,-2.9 c 11.1,-7.1 23.6,-11.9 37,-14.3 l 3.2,-0.6 v 21.3 c 0,11.7 -0.4,22.7 -1,24.5 -0.5,1.9 -2.5,5.1 -4.4,7.2 -7.2,8 -9.2,16.6 -6.1,26.1 2.7,7.9 11.2,16.2 19,18.4 8.2,2.4 18.6,1.7 25.9,-1.9 10.6,-5.2 18.7,-17.7 17.1,-26.3 -0.8,-4.7 -5.6,-14 -9.2,-18.3 l -2.8,-3.4 -0.3,-21.4 c -0.4,-25.7 -0.3,-26.4 4.1,-25.5 11.5,2.2 39.7,15.1 39.7,18.2 0,0.9 -0.9,5 -2,9.1 -2.5,9.5 -2.5,13.1 0,17.9 4.8,9.4 18.8,15.8 28.8,13.1 8,-2.1 14.1,-13.7 12.7,-24.1 -1.2,-8.7 -6.8,-18.3 -16.4,-27.9 -12,-11.9 -25.6,-20.4 -47.4,-29.5 l -6.9,-2.9 2.3,-1.7 c 3.9,-2.9 20,-10.7 28.6,-13.8 l 8.2,-2.9 5.3,3.8 c 2.9,2 17.4,14.2 32.3,26.9 14.8,12.7 27.2,22.7 27.6,22.3 0.4,-0.4 1.3,-4.5 1.9,-9.1 2.6,-19.5 9.6,-31.4 48.2,-81.9 20.5,-26.8 22.5,-29.8 30.2,-45.2 15.2,-30.6 24.9,-58.5 29.8,-86 1.9,-10.4 2.3,-16.2 2.3,-34.5 0,-24.9 -1.7,-36.1 -8.2,-54.9 -12.1,-34.8 -38.1,-66 -70.8,-84.9 -9,-5.3 -24.9,-12 -27.3,-11.5 -1.8,0.4 4.6,8.7 22.7,29.3 15.2,17.3 21.3,25.7 26.1,36 6.1,12.8 7.3,19.9 7.8,44.6 0.5,26.1 -0.9,37 -7.3,59.3 -11.3,39.5 -28.4,67.6 -60.9,100.2 -22.3,22.2 -45.4,40.6 -69.9,55.8 -18.8,11.6 -39,22.7 -40.3,22.2 -1.1,-0.4 -1.4,-4.3 -1.4,-18.5 v -18 l 9.8,-7 c 11.5,-8.2 21.8,-14.4 35.3,-21.1 l 9.9,-5 -6.1,-12.1 c -3.3,-6.7 -5.7,-12.5 -5.2,-12.9 0.4,-0.5 3.7,-2 7.3,-3.4 22.5,-9.1 51.7,-33.4 67,-55.7 17.8,-25.9 26.1,-52.2 26.1,-82.7 0,-34.2 -10,-62.8 -31.7,-90.7 -15.7,-20.3 -41.7,-41.1 -60.8,-48.9 -3.1,-1.3 -5.9,-2.6 -6.2,-2.9 -0.3,-0.3 1.1,-4.3 3.1,-8.9 l 3.6,-8.3 -2.3,-1.5 c -20.1,-13.4 -46.6,-37.7 -59.3,-54.4 -3.3,-4.3 -6.9,-9 -8.1,-10.4 l -2,-2.5 z m 73.5,107.9 c 4.5,2.3 10.7,5.9 13.7,8.1 8.4,6.1 30,28.3 35.3,36.3 11.3,17.2 20,48.8 18.4,67.6 -0.8,9.8 -4.4,24.2 -8.6,34.2 -6.1,14.7 -24.9,40.5 -37.1,50.9 -7,6 -32.1,24.8 -33.1,24.8 -1.3,0 -11.6,-36 -17.5,-61 -4.7,-20.2 -4.2,-66.3 1.1,-95.1 4.6,-24.9 16.6,-69.9 18.7,-69.9 0.5,0 4.6,1.8 9.1,4.1 z m -113,10.9 c 24.3,84.3 24.8,134.8 2.2,198.7 -2,5.7 -4.2,10.3 -4.9,10.3 -1.8,0 -21.1,-11.7 -29.3,-17.8 -14.3,-10.7 -26.9,-26.4 -35.8,-44.7 -8.1,-16.8 -9.5,-22.9 -10.1,-43.2 -0.8,-25.5 2,-40.1 11.3,-58.5 8.2,-16.2 23.7,-34.9 37.4,-44.9 8.1,-6 22.2,-14 23.9,-13.7 0.9,0.2 2.9,5.4 5.3,13.8 z"
       id="path22"
       inkscape:connector-curvature="0"
       style="fill:#000000;stroke:none;stroke-width:0.1" />
    <path
       d="m 943.9,1466.5 c -15.6,42 -28.7,76.5 -29,76.5 -0.3,0 -32.2,-18 -70.8,-40.1 -38.7,-22 -70.5,-39.9 -70.7,-39.6 -0.2,0.2 11.7,34.5 26.6,76.3 14.8,41.7 27,76.4 27,77 0,0.6 -1.2,1.4 -2.7,1.7 -1.6,0.3 -36.8,6.7 -78.3,14.2 -41.5,7.5 -76.3,13.9 -77.3,14.3 -1.4,0.6 15.4,10.9 68.7,42.2 38.8,22.8 70.6,41.7 70.6,42 0,0.3 -23.4,28.6 -51.9,63 -28.6,34.4 -51.8,62.6 -51.7,62.8 0.2,0.1 36.5,-5.8 80.6,-13.3 44.2,-7.4 80.6,-13.3 80.9,-12.9 0.3,0.3 0.7,37 0.9,81.5 0.2,44.5 0.7,80.9 1,80.9 0.4,-0.1 24.3,-27.9 53.2,-62 28.9,-34 53,-61.7 53.5,-61.6 0.6,0.1 24.6,28.1 53.5,62.1 l 52.5,61.9 0.8,-81.9 c 0.5,-45.1 1,-82.2 1.3,-82.4 0.2,-0.2 36.3,5.7 80.1,13.2 43.8,7.5 79.9,13.5 80.1,13.2 0.2,-0.2 -23.1,-28.8 -51.9,-63.5 -31,-37.6 -51.7,-63.5 -51.1,-63.9 0.6,-0.3 32.4,-18.8 70.6,-41.1 49.6,-29 69,-40.7 67.8,-41.2 -1,-0.4 -36.3,-7.1 -78.7,-14.8 -42.3,-7.8 -77.9,-14.4 -79.1,-14.8 -2,-0.7 -0.7,-4.5 25.3,-77.1 15,-42 27.2,-76.5 27,-76.7 -0.2,-0.2 -31.8,17.4 -70.3,39.3 -38.4,21.8 -70.6,39.8 -71.4,40 -1.2,0.3 -7.8,-16.7 -29.5,-75.6 -15.4,-41.9 -28.3,-76.1 -28.6,-76.1 -0.3,0 -13.3,34.4 -29,76.5 z m 47.6,79 c 10.2,27.4 18.6,50 18.9,50.2 0.2,0.2 21.4,-11.6 47.1,-26.2 25.8,-14.6 47,-26.4 47.1,-26.2 0.2,0.2 -7.8,22.9 -17.7,50.6 -9.9,27.7 -17.9,50.4 -17.7,50.5 0.2,0.2 23.3,4.5 51.3,9.6 28.1,5.1 52,9.6 53.2,9.9 1.6,0.5 -8.4,6.7 -44.3,27.6 -25.5,14.8 -46.3,27.2 -46.3,27.5 0,0.3 15.4,19.2 34.3,42 18.9,22.8 34.3,41.6 34.2,41.7 -0.1,0.1 -23.8,-3.8 -52.7,-8.7 -28.8,-5 -52.7,-9 -53.1,-9 -0.5,0 -0.8,24.3 -0.8,54.1 0,30.6 -0.4,53.9 -0.9,53.7 -0.5,-0.2 -16.1,-18.3 -34.8,-40.3 -18.7,-22 -34.3,-40 -34.8,-40 -0.5,0 -16.4,18.2 -35.4,40.5 l -34.6,40.6 -0.6,-17.1 c -0.4,-9.3 -0.7,-33.6 -0.8,-53.8 -0.1,-34.6 -0.2,-36.8 -1.8,-36.3 -3.1,0.9 -104.5,17.7 -104.9,17.4 -0.1,-0.2 15,-18.7 33.7,-41.3 18.6,-22.5 33.9,-41.1 33.9,-41.4 0,-0.3 -15,-9.4 -33.3,-20.1 -18.2,-10.7 -39.3,-23 -46.7,-27.4 l -13.5,-8 53,-9.6 c 43.5,-7.9 53,-9.9 52.7,-11.2 -0.1,-0.8 -8.1,-23.7 -17.7,-50.8 -9.7,-27.1 -17.4,-49.4 -17.2,-49.6 0.2,-0.2 20.1,10.9 44.3,24.7 24.1,13.8 45.1,25.7 46.5,26.4 l 2.6,1.4 18.9,-50.9 c 10.4,-27.9 19,-50.7 19.2,-50.5 0.2,0.1 8.6,22.7 18.7,50 z"
       id="path24"
       inkscape:connector-curvature="0"
       style="fill:#000000;stroke:none;stroke-width:0.1" />
    <path
       d="m 1615.3,1392.1 c -5.5,1.6 -15.6,9.2 -20.5,15.4 l -4.8,5.9 v 15.3 15.4 l -3.7,-2.6 c -4.8,-3.2 -15.2,-6.5 -20.7,-6.5 -10.4,0 -20.5,5.8 -28.1,16.1 l -4.5,6.1 v 25.9 25.8 l -5.4,-2.4 c -20.3,-9 -38,-2.6 -47.9,17.1 l -2.6,5.1 -0.2,156.4 -0.1,156.4 2.2,13 c 6.9,40.8 25.2,76.7 51.3,101 29.9,27.9 71.8,42 119.2,40.2 24.7,-1 42.1,-5 61.3,-14.2 15.3,-7.3 24.8,-14.1 37.2,-26.5 17.9,-17.8 30.7,-39.6 40,-67.9 9.1,-27.9 11,-42 9.4,-72.6 -5.3,-100.1 -3.8,-168.9 4.5,-209.7 2.2,-10.6 1.7,-12.2 -5.6,-16.1 -10.7,-5.7 -28.7,-8.3 -40.2,-5.6 -11.5,2.6 -23.7,11.9 -29.9,22.9 l -3.2,5.5 v -69.7 -69.6 l -5.1,-7.7 c -5.9,-8.8 -14,-15.4 -21.3,-17.5 -2.8,-0.8 -7.5,-1.1 -12,-0.8 -6.2,0.4 -8.5,1.1 -15,4.6 l -7.6,4.1 v -20 c 0,-15.4 -0.3,-20.6 -1.4,-22.8 -2.4,-4.5 -14,-14.7 -20.3,-17.7 -4.5,-2.1 -7.5,-2.8 -13.8,-3 -4.4,-0.2 -9.4,0.1 -11.2,0.7 z m 20.3,14.4 c 2.7,1.3 6.8,4.4 9.1,6.7 l 4.1,4.3 0.7,128 c 0.7,127.5 0.7,128 2.8,130.2 2.6,2.9 6.1,2.9 8.8,0.2 l 2.1,-2.1 -0.7,-100.8 -0.7,-100.7 5.8,-4.8 c 7.6,-6.2 13.5,-8.8 19.9,-8.8 6.1,0 9.7,1.8 15.1,7.5 8.2,8.6 7.4,-3.8 7.4,119.6 v 110.3 l 2.5,2.4 c 2.9,3 4.5,3.1 7.7,0.5 2.5,-1.9 2.5,-2.1 3.1,-21.7 1.2,-44.4 10.8,-70.3 29.2,-79.3 7.3,-3.6 21.4,-3.9 30.5,-0.8 3.6,1.3 6.4,2.8 6.3,3.3 -8.5,49.3 -10.1,117.5 -4.8,212.2 1.1,21.4 1.1,26.1 -0.1,34.8 -5.7,39.6 -21.3,74.3 -43.7,97.4 -18.4,18.8 -39.9,30.2 -68.2,35.8 -12.4,2.5 -47.8,2.5 -61.2,0 -26.8,-5 -47.3,-14 -65.8,-29.1 -30.8,-24.9 -51.2,-66.3 -55.5,-112.6 -0.7,-7.9 -0.8,-58.1 -0.3,-160.5 l 0.8,-149 3.2,-4.7 c 7.1,-10.2 16.7,-12.1 30.1,-5.9 3.9,1.9 7.7,4 8.3,4.8 0.8,0.9 1.2,25.3 1.3,87.9 0.1,84.5 0.1,86.6 2,88 2.6,1.9 6.5,1.8 8.8,-0.3 1.7,-1.5 1.8,-6.6 1.8,-120.1 v -118.5 l 3.5,-4.3 c 9.2,-11.2 23.4,-11 35.9,0.7 l 4.6,4.2 v 108.3 c 0,107.1 0,108.4 2,110.4 1.1,1.1 3.1,2 4.5,2 1.4,0 3.4,-0.9 4.5,-2 2,-2 2,-3.3 2,-132.4 v -130.4 l 4.4,-4.5 c 8.7,-9 18.3,-11.1 28.2,-6.2 z"
       id="path26"
       inkscape:connector-curvature="0"
       style="fill:#000000;stroke:none;stroke-width:0.1" />
    <path
       d="m 1624.1,1721.1 c -49.9,6.2 -90.1,44.6 -98.8,94.4 -2.3,13.2 -1.3,34.7 2.1,47.8 8.1,31.4 31,59.4 60.4,74.1 13.5,6.8 34.4,11.6 50.2,11.6 50.1,0 95.4,-34 109.4,-82.2 7.4,-25.6 5.7,-53.6 -4.7,-77.7 -14.7,-33.8 -47,-59.7 -83.2,-66.6 -9.8,-1.9 -26.4,-2.6 -35.4,-1.4 z m 6.9,7.2 c 0,1.9 0.7,13.2 1.5,25.2 0.9,12 1.4,21.9 1.3,22 -0.2,0.2 -1.9,0.6 -3.8,1 l -3.5,0.6 -4.8,-24.3 c -2.6,-13.4 -4.8,-24.8 -4.7,-25.5 0,-1.3 3,-1.9 9.8,-2.2 4.1,-0.1 4.2,0 4.2,3.2 z m 27.8,-1.8 c 0.3,0.2 -1.7,11.6 -4.4,25.2 l -5,24.8 -3.4,-0.3 c -1.9,-0.2 -3.7,-0.5 -3.9,-0.7 -0.2,-0.2 0.4,-10.9 1.3,-23.8 0.9,-12.8 1.6,-24.2 1.6,-25.2 0,-1.6 0.7,-1.7 6.6,-1.2 3.7,0.4 6.9,0.9 7.2,1.2 z m -48.3,27.7 c 4.3,12.8 7.8,23.7 7.9,24.2 0,0.5 -1.4,1.5 -3.2,2.3 l -3.3,1.4 -11,-22.4 c -6,-12.4 -10.9,-22.9 -10.9,-23.4 0,-1.2 8.6,-5.2 11.2,-5.3 1.3,0 3.4,5.2 9.3,23.2 z m 70.4,-21.1 c 2.8,1.2 5.1,2.5 5.1,2.9 0,0.6 -20.8,44 -21.6,44.8 -0.6,0.8 -7.4,-2.3 -7.1,-3.3 0.2,-0.5 3.9,-11.2 8.2,-23.8 4.5,-13.2 8.3,-22.7 9,-22.7 0.7,0 3.5,1 6.4,2.1 z m -89.9,31.4 14.3,21.5 -2.4,2 c -1.3,1.1 -2.9,1.9 -3.5,1.7 -1.3,-0.2 -33.4,-36.7 -33.4,-37.9 0,-0.6 9.7,-8.8 10.4,-8.8 0.2,0 6.7,9.7 14.6,21.5 z m 118.2,-13.8 c 0.8,1 0.6,1.9 -0.9,3.6 -1.1,1.2 -8.4,9.5 -16.2,18.4 -7.9,9 -14.7,16.3 -15.1,16.3 -0.4,0 -1.9,-0.9 -3.3,-2.1 l -2.7,-2 14.2,-20.9 14.1,-20.9 4.4,3.2 c 2.4,1.7 4.9,3.7 5.5,4.4 z m -117.4,48.2 c -1.3,1.4 -2.4,2.7 -2.5,2.9 -0.2,0.6 -42.3,-27.8 -42.3,-28.6 0,-1.1 2.8,-5.2 5.8,-8.4 l 2.4,-2.7 19.4,17.1 19.4,17.1 z m 133.3,-31.4 c 2.4,3.2 3.8,5.9 3.3,6.4 -0.5,0.5 -9.8,6.8 -20.7,14 l -19.7,13.2 -2.5,-2.8 c -2.2,-2.6 -2.3,-2.9 -0.7,-4.5 1.8,-1.8 35.5,-31.7 35.9,-31.7 0.1,-0.1 2.1,2.4 4.4,5.4 z m -85.7,20.5 c 2.9,1.1 6.6,3.5 8.3,5.2 3,3.2 5.6,9.7 4.8,12.1 -0.2,0.7 -0.6,2.4 -0.9,3.9 -0.4,1.9 -1.4,2.8 -3.5,3.3 -6.5,1.4 -10.3,8.7 -7.7,14.9 1.4,3.5 5.9,7.6 8.3,7.6 2.5,0 3.7,5.4 3.7,17.7 0.1,10.2 -0.2,12.5 -1.6,13.9 -2.3,2.4 -4,0.8 -8.3,-7.5 l -3.4,-6.6 -0.1,16.4 v 16.4 l 6.5,-0.6 c 3.7,-0.4 6.7,-0.2 7,0.3 1,1.6 -4.5,3.1 -10.4,2.8 l -5.6,-0.3 -0.3,-22.3 c -0.2,-17.7 0,-22.3 1,-22 0.7,0.2 3.6,5.1 6.4,10.8 l 5.1,10.5 0.8,-4.9 c 0.4,-2.6 0.5,-8.2 0.1,-12.5 -0.5,-6.2 -1,-7.9 -2.8,-9.1 -5.6,-4 -9.7,-8.8 -10.3,-12.3 -1.1,-5.6 2.7,-12.6 8.3,-15.2 4.1,-1.9 4.2,-2.1 4.2,-6.6 0,-7.8 -6.3,-12.9 -18.9,-15.3 l -3.4,-0.6 0.6,49.5 c 0.6,40.8 0.4,49.5 -0.7,49.5 -1.6,0 -2.6,-28.1 -2.6,-72.9 v -29.4 l 5.1,0.7 c 2.8,0.4 7.4,1.6 10.3,2.6 z m 21.3,3.7 c 5,8.5 4,23.8 -1.9,28.8 -1.6,1.4 -3.9,2.5 -5.1,2.5 -1.8,0 -1.5,0.4 1.3,1.8 2.4,1.2 4.3,3.3 6,6.7 2.3,4.7 2.5,6.1 2.8,25.7 0.3,11.5 0.7,20.8 1.1,20.8 0.3,0 1.5,-0.7 2.5,-1.5 2.3,-1.7 4.6,-2 4.6,-0.5 0,1.2 -9,7.2 -10.3,6.7 -0.4,-0.1 -0.9,-10.3 -1,-22.7 -0.3,-27 -1.1,-29.9 -8.4,-33.1 -5.7,-2.4 -5.5,-4.9 0.5,-6.8 6.2,-1.9 7.7,-4.8 7.7,-14.6 0,-7.5 -0.3,-8.6 -3.3,-13.4 -1.8,-2.9 -2.9,-5.7 -2.6,-6.2 0.8,-1.4 3.1,0.7 6.1,5.8 z m -75.8,16.9 c 0.3,0.2 -0.3,1.9 -1.1,3.7 l -1.6,3.4 -23.9,-8.1 c -26.6,-9 -25.2,-8 -21.4,-16.9 l 2,-4.6 22.8,11 c 12.5,6.1 23,11.3 23.2,11.5 z m 155,-15.7 c 1.2,2.9 1.9,5.7 1.4,6.1 -0.9,0.9 -45.5,16.2 -45.8,15.8 -0.1,-0.2 -1,-1.8 -1.9,-3.6 l -1.7,-3.3 22.3,-10.9 c 12.3,-5.9 22.6,-10.5 22.9,-10.2 0.3,0.4 1.6,3.1 2.8,6.1 z m -125.4,-1.7 c 0.2,0.7 0.6,21.2 0.8,45.5 0.4,34.5 0.2,44.3 -0.8,44.3 -1.3,0 -2.5,-16.1 -2.5,-33.2 v -8.8 h -4.5 -4.5 v 16.5 c 0,9.1 -0.4,16.5 -0.9,16.5 -2.5,0 -11.1,-12.8 -11.1,-16.5 0,-2.4 2,-1.8 3,1 0.5,1.4 2.1,4.2 3.5,6.3 l 2.5,3.7 v -13.7 -13.7 l -3.7,-0.3 c -5.2,-0.4 -5.6,-2.8 -0.4,-2.8 h 4.1 v -14.6 c 0,-8.8 -0.4,-14.3 -0.9,-13.9 -0.6,0.3 -2.4,3 -4.1,6 -3.2,5.6 -5,6.9 -5,3.7 0,-2.6 9.8,-17.2 11.6,-17.2 1.2,0 1.4,3 1.4,18 v 18 h 4.5 4.5 v -23 c 0,-15.1 0.4,-23 1,-23 0.6,0 1.2,0.6 1.5,1.2 z m 61.1,9.4 c 1,3.8 -0.4,15.2 -2.5,19.8 -1.7,4 -1.7,4.3 0.2,10.1 1.5,4.7 2,9.1 2.1,20.9 0.1,10.2 -0.3,15 -1,15.3 -0.8,0.3 -1.3,-4.2 -1.7,-14.4 -0.4,-11.1 -1,-16.4 -2.6,-21.4 -1.9,-6.1 -2,-6.9 -0.6,-9.6 2.1,-4.2 3.8,-14 3.2,-18.5 -0.3,-2 -0.2,-3.9 0.1,-4.2 1.2,-1.2 2.2,-0.5 2.8,2 z m -96,26.2 c -0.3,1.9 -0.6,3.6 -0.8,3.7 -0.3,0.2 -49.7,-3.1 -50.6,-3.4 -0.4,-0.1 0.7,-9.7 1.4,-12.2 0.4,-1.4 3.5,-1 25.5,3.4 l 25.1,5 z m 167.7,-5.1 c 0.7,6.4 2.6,5.8 -22.8,7.3 -10.4,0.6 -20.6,1.1 -22.5,1.3 -3.5,0.2 -3.5,0.1 -3.5,-3.8 v -4 l 23.5,-4.6 c 26.4,-5.2 24.2,-5.5 25.3,3.8 z m -167.9,20.5 c 0.3,1.7 0.4,3.3 0.1,3.6 -0.2,0.3 -11.3,2.7 -24.7,5.3 -16.9,3.4 -24.4,4.6 -24.9,3.8 -0.8,-1.3 -2.1,-12 -1.6,-12.6 0.5,-0.5 35.1,-3 43.8,-3.2 l 6.7,-0.1 z m 147.5,-1.7 c 11.2,0.8 20.5,1.6 20.8,1.8 0.4,0.5 -1.4,12.7 -2,13.3 -0.2,0.2 -11,-1.8 -24,-4.3 -22.3,-4.5 -23.7,-4.9 -23.7,-6.9 0,-6.2 -1.1,-6.1 28.9,-3.9 z m -144,16.6 c 0.6,1.8 1.1,3.4 1.1,3.5 0,0.5 -43.7,22.4 -44.5,22.4 -0.9,0 -5.6,-11.1 -5.2,-12.3 0.2,-0.8 43.8,-16.2 46.9,-16.6 0.3,-0.1 1.1,1.3 1.7,3 z m 135.6,4.9 c 11.6,3.9 21.6,7.4 22.3,7.9 1,0.6 0.9,1.9 -0.8,6.2 -1.2,3 -2.5,5.8 -2.9,6.2 -0.6,0.6 -41.7,-18.9 -43.8,-20.7 -0.7,-0.6 2.3,-6.6 3.2,-6.6 0.5,0 10.5,3.2 22,7 z m -128.4,8.2 c 1,1.3 1.8,2.8 1.9,3.5 0,1 -35,32.5 -36.8,33 -1,0.3 -8.4,-9.6 -8,-10.7 0.2,-0.8 39.4,-27.7 40.6,-27.9 0.2,-0.1 1.2,0.9 2.3,2.1 z m 119.6,12.4 c 10.4,7 19,12.9 19.2,13 0.6,0.5 -3.6,6.8 -6.1,9.1 l -2.3,2.2 -17.8,-15.5 c -9.7,-8.5 -17.7,-16 -17.7,-16.5 0,-1.9 3.5,-5.8 4.7,-5.4 0.7,0.2 9.7,6.1 20,13.1 z m -106.1,3.1 c -0.3,0.7 -6.4,10.1 -13.7,20.8 l -13.1,19.6 -2.7,-1.8 c -4.2,-2.7 -8.1,-6 -8.1,-6.8 0,-0.3 7.2,-8.9 16.1,-19 l 16.1,-18.4 2.9,2.1 c 1.6,1.2 2.7,2.8 2.5,3.5 z m 90.9,13.5 15.9,18.1 -4,3.4 c -7.4,6.5 -5.9,7.5 -20.8,-14.8 l -13.4,-20.1 2.6,-2.4 c 1.5,-1.3 3,-2.4 3.3,-2.4 0.3,0 7.7,8.2 16.4,18.2 z m -79.5,-8.7 c 1.7,0.9 3,1.9 3,2.3 0,0.6 -15.1,45.3 -15.5,46 -0.5,0.6 -11.7,-4.3 -12.1,-5.3 -0.4,-1.1 20.3,-44.5 21.3,-44.5 0.2,0 1.7,0.7 3.3,1.5 z m 60.5,20.6 c 5.9,11.6 10.5,21.5 10.3,22.1 -0.4,1 -11.8,6.2 -12.3,5.6 -0.4,-0.5 -15.5,-44.9 -15.5,-45.7 0,-0.6 4.3,-2.7 6.2,-3 0.5,-0.1 5.5,9.4 11.3,21 z m -41.9,-9.7 c -0.3,3.3 -1,14 -1.6,23.6 -0.6,9.6 -1.3,18 -1.5,18.6 -0.2,0.8 -2.2,0.8 -6.6,0.2 -3.4,-0.4 -6.5,-1 -6.7,-1.3 -0.3,-0.3 1.2,-8.9 3.2,-19.2 2,-10.4 4.1,-21.1 4.7,-23.8 l 0.9,-5 4.1,0.3 4.1,0.4 z m 17.2,-1.7 c 4.2,19.6 8.4,42.4 8,42.8 -0.4,0.4 -13.1,2.4 -13.4,2.1 -0.6,-0.4 -3.3,-48 -2.8,-48.7 0.3,-0.5 2,-0.9 3.9,-0.9 3.2,0 3.4,0.2 4.3,4.7 z"
       id="path28"
       inkscape:connector-curvature="0"
       style="fill:#000000;stroke:none;stroke-width:0.1" />
    <path
       d="m 1181.5067,807.84111 c -4.2426,-2.26275 -8.768,-3.25266 -14.0714,-3.04057 -9.1923,0.14145 -11.8086,1.48496 -21.7081,10.81877 l -8.9096,8.34383 -3.7477,-2.89912 C 1072.6123,774.60711 996.10342,756.788 921.78642,771.70796 c -38.3252,7.63675 -78.9838,26.09223 -106.70238,48.29538 l -4.87904,3.88909 -8.55599,-7.99031 c -6.50538,-6.08112 -9.54594,-8.27315 -13.15218,-9.61665 -6.15183,-2.33345 -13.01076,-2.26274 -19.799,0.28284 -4.73762,1.76777 -6.22253,2.82844 -10.39446,7.56605 -6.01041,6.85892 -7.99029,13.78859 -6.29325,22.13244 1.41422,7.63675 3.53552,11.03086 11.9501,19.44543 l 7.07107,7.07107 -5.58614,7.42462 c -26.87006,34.93107 -45.39626,81.60013 -50.48744,126.71355 -1.69706,15.41493 -1.76777,42.07283 -0.0707,57.62923 4.94977,45.9619 23.33454,92.631 50.55815,128.0571 l 5.58612,7.4246 -7.0711,7.0711 c -8.41452,8.4146 -10.53585,11.8086 -11.95,19.4454 -1.69711,8.3438 0.28282,15.2735 6.22248,22.0617 6.08113,6.9296 12.58653,9.7581 21.42532,9.4045 8.83879,-0.3536 12.23298,-2.0506 21.99105,-11.1016 l 8.55596,-7.9903 4.8791,3.8891 c 19.86966,15.9099 48.01246,30.7592 75.66046,40.0222 82.6607,27.5065 172.88765,12.233 242.32555,-41.0829 l 3.7476,-2.8991 8.9095,8.3439 c 10.041,9.4752 13.5058,11.1015 22.8396,10.8187 7.2126,-0.1414 11.738,-1.8385 16.8998,-6.1518 8.556,-7.1418 11.738,-18.6677 8.2026,-29.5571 -1.485,-4.7376 -2.7578,-6.5761 -9.6876,-14.0715 l -7.9902,-8.5559 2.8991,-3.7477 c 47.8712,-62.5789 65.3366,-143.1184 47.4469,-219.27381 -8.3439,-35.35533 -25.4559,-71.41779 -47.4469,-99.77279 l -2.8991,-3.74765 7.9903,-8.55599 c 6.9297,-7.49532 8.2025,-9.33381 9.6873,-14.07142 4.0306,-12.51579 -1.4142,-26.87007 -12.1622,-32.66833 z m -132.0875,103.80327 -48.649,48.64893 10e-5,-68.44791 c -10e-5,-37.75951 0.3535,-68.66007 0.8485,-68.73079 1.697,-0.42425 21.8496,3.88911 30.9712,6.64679 20.6476,6.08116 51.5482,21.70822 64.4882,32.52694 0.7071,0.56567 -9.263,10.96017 -47.659,49.35604 z m 95.1765,1.55562 c 14.1422,21.21323 24.8195,47.16403 29.9107,72.47846 1.4142,7.21251 2.5456,13.29363 2.4749,13.36434 -0.071,0.0707 -30.9712,0.14143 -68.7308,0.14143 l -68.5893,1e-5 48.6489,-48.64899 c 26.7287,-26.72859 48.7903,-48.36612 49.0024,-48.15398 0.2829,0.28285 3.5356,5.09119 7.2832,10.81873 z m -198.27268,-21.49602 10e-5,68.58937 -48.649,-48.64896 -48.7197,-48.71967 4.2427,-3.25269 c 13.8592,-10.60661 39.3859,-23.26379 59.0434,-29.34492 12.1622,-3.67698 33.0925,-8.20246 34.0118,-7.28319 0.071,0.0709 0.071,30.90054 0.071,68.66006 z m 228.11268,175.50392 c -4.9497,25.0316 -15.8392,51.3359 -29.8399,72.4077 -3.7477,5.7275 -7.0004,10.5359 -7.2832,10.8187 -0.2124,0.212 -22.2738,-21.4253 -49.0025,-48.1539 l -48.649,-48.649 68.5894,0 c 37.7595,0 68.6601,0.071 68.7308,0.1414 0.071,0.071 -1.0607,6.1519 -2.5456,13.4351 z m -169.4229,-52.8916 c 6.2227,16.2635 -1.8384,35.6382 -17.74828,42.7799 -12.5158,5.7276 -27.8601,2.9699 -37.4767,-6.7882 -13.8592,-14.0007 -13.8592,-33.7997 10e-5,-47.8004 9.4752,-9.47522 23.9709,-12.37435 36.6281,-7.21248 5.0204,2.05059 6.7175,3.32339 11.3137,8.34388 3.60628,3.8891 6.01038,7.566 7.28308,10.6773 z M 838.84282,999.18419 c -37.75949,1e-5 -68.73077,-0.14141 -68.94291,-0.35355 -0.21214,-0.21208 0.77782,-6.0104 2.19204,-13.08147 4.10122,-20.64752 12.02081,-42.00214 21.99102,-59.60911 4.31335,-7.84888 13.08148,-21.14248 15.13209,-23.1931 0.84852,-0.84852 8.55599,6.5761 49.56816,47.58828 l 48.6489,48.64894 z m 258.87178,190.84811 c -0.2124,0.212 -4.3133,3.0406 -9.1924,6.364 -23.6881,16.0513 -51.5481,27.365 -78.701,32.0319 -4.8082,0.8485 -8.8388,1.4849 -8.9095,1.4142 -0.071,-0.071 -0.1415,-30.9712 -0.1415,-68.7308 l 10e-5,-68.5893 48.6489,48.6489 c 26.7286,26.7287 48.4368,48.7197 48.2954,48.8611 z m -239.14348,-87.5398 -48.50758,48.5076 -3.18195,-4.1719 c -5.51548,-7.354 -15.62703,-24.5367 -20.15257,-34.4362 -7.49532,-16.4049 -13.01075,-35.0725 -17.04125,-57.4878 -0.0707,-0.7778 28.42566,-1.2728 68.44795,-1.2728 37.7595,0 68.6601,0.071 68.7308,0.1414 0.1414,0.1415 -21.6375,22.0618 -48.2954,48.7197 z m 86.9741,127.2792 c -0.4243,10e-5 -5.5861,-0.7778 -11.3137,-1.8385 -19.5869,-3.6062 -40.5172,-11.1015 -59.0434,-21.1424 -7.4247,-3.8891 -22.8395,-13.7886 -24.961,-15.9099 -0.9899,-0.99 3.4649,-5.7276 47.447,-49.7097 l 48.6489,-48.6489 v 68.4479 c 10e-5,37.7596 -0.3535,68.6601 -0.7778,68.8015 z"
       id="path16-3"
       inkscape:connector-curvature="0"
       style="fill:#000000;stroke:none;stroke-width:0.1" />
  </g>
</svg>
