<svg xmlns="http://www.w3.org/2000/svg" width="900" height="825"><g transform="translate(120.952,608.887)"><path d="m -120.952,-383.887 h 900 v 600 h -900 z" fill="#fe0000" fill-rule="evenodd"/><path d="m -120.952,-383.887 h 450 v 300 h -450 z" fill="#000095" fill-rule="evenodd"/><g transform="matrix(3.75,0,0,3.75,104.04762,-233.8869)" fill="#fff"><path d="M 9.9833333e-5,-30.000028 -14.9999,25.980695 25.980831,-15.000025 -29.9999,-2.4866667e-5 25.980831,14.999975 -14.9999,-25.980745 9.9833333e-5,29.999975 15.0001,-25.980745 -25.980628,14.999975 30.000103,-2.4866667e-5 -25.980628,-15.000025 15.0001,25.980695 9.9833333e-5,-30.000028" paint-order="markers fill stroke"/><circle r="16" stroke="#000095" stroke-width="2"/></g><path d="m 779.048,-383.887 -900,-225 v 225 z" fill="#ffca2b"/><path d="m -77.23,-517.944 c 1.1,0 2.545,0.733 4.3,2.194 1.462,1.054 2.194,1.93 2.194,2.634 0,0.878 -0.76,1.55 -2.283,2.018 -2.4,0.47 -6.088,1.58 -11.06,3.337 l 2.018,1.054 c 1.64,1.054 2.458,2.107 2.458,3.16 0,0.4 -0.118,0.877 -0.35,1.404 -0.47,1.288 -0.85,3.6 -1.14,6.935 a 7.88,7.88 0 0 0 -0.087,1.14 l 2.194,-0.352 c 3.217,-0.584 5.06,-0.877 5.53,-0.877 0.994,0 2.107,0.294 3.337,0.877 0.994,0.586 1.492,1.2 1.492,1.844 0,0.47 -0.585,0.733 -1.755,0.8 -3.395,0.294 -7.082,0.76 -11.062,1.404 l -0.527,6.848 a 30.64,30.64 0 0 0 1.23,0.176 c 1.756,0.527 3.48,1.112 5.18,1.756 2.224,0.995 3.657,1.903 4.3,2.72 0.584,0.76 0.88,1.58 0.88,2.458 0,0.703 -0.176,1.435 -0.527,2.194 -0.35,0.586 -0.848,0.88 -1.492,0.88 -0.294,0 -0.732,-0.176 -1.317,-0.527 -0.937,-0.584 -2.194,-1.756 -3.775,-3.5 -1.93,-2.283 -3.395,-3.833 -4.4,-4.653 -0.058,0 -0.118,-0.028 -0.176,-0.087 l -0.087,4.828 -0.176,23.176 c 0,1.52 -0.4,3.1 -1.23,4.74 -0.585,1.406 -1.23,2.107 -1.93,2.107 -0.35,0 -0.937,-0.76 -1.755,-2.283 -1.113,-2.458 -1.668,-4.33 -1.668,-5.618 0,-0.643 0.204,-1.668 0.614,-3.072 0.527,-1.52 0.966,-4.565 1.317,-9.13 0.527,-4.214 0.88,-9.012 1.054,-14.397 -3.57,5.2 -6.848,9.16 -9.832,11.852 -2.693,2.517 -5.882,4.683 -9.57,6.496 -1.406,0.703 -2.664,1.054 -3.775,1.054 -0.47,0 -0.703,-0.117 -0.703,-0.35 4.74,-3.277 9.012,-7.17 12.817,-11.676 3.5,-3.862 6.73,-8.837 9.656,-14.924 a 285.42,285.42 0 0 0 -10.8,2.283 c -2.283,0.703 -3.775,1.054 -4.477,1.054 -0.937,0 -2.4,-0.4 -4.4,-1.228 -1.406,-0.82 -2.107,-1.55 -2.107,-2.196 0,-0.35 0.584,-0.584 1.755,-0.7 4.74,-0.47 11.9,-1.52 21.5,-3.16 -0.058,-4.155 -0.263,-7.08 -0.614,-8.78 -0.234,-1.637 -0.614,-2.897 -1.14,-3.775 a 4.63,4.63 0 0 1 -0.263,-0.614 c -0.06,0 -0.087,0.03 -0.087,0.087 -4.4,1.462 -7.55,2.194 -9.482,2.194 -1.406,0 -2.107,-0.233 -2.107,-0.703 0,-0.233 0.614,-0.556 1.844,-0.965 2.926,-1.054 6.497,-2.78 10.7,-5.18 3.57,-2.224 6.378,-4.33 8.428,-6.32 0.642,-0.4 1.08,-0.615 1.314,-0.615 z m 12.027,24.406 c 1.112,0 2.107,0.147 2.985,0.44 0.703,0.234 1.257,0.47 1.668,0.703 2.283,-0.233 4.798,-0.614 7.55,-1.14 3.453,-0.76 6.467,-1.58 9.042,-2.458 1.23,-0.4 2.02,-0.614 2.37,-0.614 0.88,0 2.224,0.498 4.038,1.493 2.107,1.462 3.16,2.545 3.16,3.248 0,0.4 -0.294,1.054 -0.877,1.93 -0.88,0.995 -1.58,2.4 -2.107,4.214 -1.054,3.16 -2.225,7.756 -3.5,13.783 -0.058,0.06 -0.087,0.118 -0.087,0.176 a 4.09,4.09 0 0 0 0.439,0.263 c 1.17,0.7 1.756,1.347 1.756,1.93 0,0.35 -0.234,0.557 -0.703,0.614 -2.05,0 -3.922,0.118 -5.618,0.35 l -7.813,0.88 c -1.462,0.175 -2.605,0.263 -3.424,0.263 a 4.84,4.84 0 0 1 -0.965,-0.087 v 0.44 c 0,0.877 -0.147,1.58 -0.44,2.107 -0.294,0.645 -0.614,0.965 -0.965,0.965 -0.47,0 -0.908,-0.35 -1.317,-1.054 -0.645,-0.994 -0.995,-2.018 -1.054,-3.072 l -0.965,-8.78 c -0.47,-4.505 -0.9,-7.638 -1.317,-9.393 -0.294,-1.93 -1.054,-3.716 -2.283,-5.355 -0.4,-0.352 -0.614,-0.643 -0.614,-0.88 -0.003,-0.646 0.35,-0.97 1.05,-0.97 z m 7.725,22.825 c 3.453,-0.293 6.673,-0.73 9.656,-1.317 a 19.51,19.51 0 0 1 1.406,-0.263 c 0,-0.057 0.028,-0.116 0.087,-0.176 0.76,-2.574 1.433,-5.97 2.018,-10.183 0.703,-3.804 1.054,-6.64 1.054,-8.516 0,-0.936 -1.024,-1.406 -3.072,-1.406 -0.82,0 -3.104,0.44 -6.848,1.317 l -6.145,1.492 a 23.01,23.01 0 0 0 0.263,3.424 c 0.82,6.733 1.346,11.94 1.58,15.628 z m 83.176,-39 c 1.112,0 2.516,0.4 4.214,1.23 1.054,0.47 1.58,1.083 1.58,1.844 0,0.47 -0.645,0.85 -1.93,1.14 -1.64,0.47 -5.24,1.054 -10.8,1.756 l -5.442,0.614 a 20.44,20.44 0 0 1 1.931,0.703 c 1.93,0.76 2.897,1.64 2.897,2.634 0,0.294 -0.205,0.995 -0.614,2.107 -0.47,2.517 -0.732,5.122 -0.8,7.813 l -0.175,14.485 a 128.07,128.07 0 0 1 4.916,-0.263 c 8.193,-0.703 14.454,-1.492 18.786,-2.37 1.813,-0.35 2.897,-0.527 3.25,-0.527 0.4,0 1.988,0.498 4.74,1.492 2.34,1.23 3.5,2.343 3.5,3.337 0,0.937 -1.6,1.404 -4.828,1.404 H 32.8 c -4.332,0 -9.776,0.205 -16.328,0.614 l -0.087,15.802 c -0.118,6.263 -0.557,11.763 -1.317,16.504 -0.76,2.926 -1.463,4.4 -2.107,4.4 -0.585,0 -1.024,-1.024 -1.317,-3.072 -0.234,-3.687 -0.35,-8.692 -0.35,-15 v -18.26 a 5.05,5.05 0 0 0 -0.965,0.087 c -6.44,0.352 -13.52,1.347 -21.245,2.985 -2,0.47 -3.278,0.703 -3.862,0.703 -1.054,0 -2.605,-0.4 -4.654,-1.23 -2.167,-0.936 -3.248,-1.668 -3.248,-2.194 0,-0.76 0.703,-1.2 2.107,-1.317 8.134,-0.117 14.134,-0.527 17.997,-1.23 4.4,-0.527 9.012,-0.994 13.87,-1.404 v -19.665 c 0,-2.574 -0.234,-4.7 -0.703,-6.408 -0.234,-0.82 -0.35,-1.317 -0.35,-1.492 v -0.263 c -3.687,0.4 -6.32,0.614 -7.9,0.614 -2.458,0 -4.156,-0.263 -5.092,-0.8 -0.937,-0.643 -1.404,-1.2 -1.404,-1.668 0,-0.292 1.054,-0.527 3.16,-0.703 4.68,-0.4 9.802,-1.083 15.363,-2.018 4.038,-0.643 7.256,-1.317 9.656,-2.02 0.815,-0.232 1.37,-0.35 1.664,-0.35 z M -7.574,-494 c 0.82,0 1.756,0.294 2.8,0.877 2.458,1.113 4.27,2.37 5.442,3.775 1.1,1.522 1.668,3.63 1.668,6.32 0,2.107 -0.8,3.16 -2.37,3.16 -0.645,0 -1.317,-0.467 -2.018,-1.404 -1.347,-1.697 -3.248,-5.268 -5.707,-10.7 -0.35,-0.584 -0.527,-1.023 -0.527,-1.317 0.116,-0.47 0.352,-0.703 0.703,-0.703 z m 40.12,-5.092 c 0.643,0 1.844,0.585 3.6,1.756 1.93,1.462 2.897,2.488 2.897,3.072 0,0.82 -0.352,1.522 -1.054,2.107 -2.926,2.8 -7.462,6.468 -13.607,10.975 -0.645,0.4 -1.23,0.614 -1.756,0.614 -0.234,0 -0.35,-0.116 -0.35,-0.352 0,-0.117 0.146,-0.32 0.44,-0.614 2.047,-2.75 3.744,-5.47 5.092,-8.163 1.873,-3.043 3.13,-5.735 3.775,-8.077 0.232,-0.88 0.555,-1.317 0.965,-1.317 z m 78.096,3.352 c 0.352,0 1.433,0.322 3.248,0.965 2.165,1.23 3.25,2.165 3.25,2.8 -0.06,0.877 -1.084,1.347 -3.073,1.404 -5.092,0.176 -11.004,0.674 -17.733,1.493 -3.278,0.4 -7.462,1.17 -12.554,2.283 0.117,0.175 0.176,0.4 0.176,0.7 -0.352,1.113 -0.557,1.874 -0.614,2.283 -0.527,4.74 -1.14,9.13 -1.844,13.17 h 0.087 c 6.262,-0.584 11.206,-1.26 14.837,-2.02 4.33,-0.936 8,-1.93 10.973,-2.985 1.17,-0.352 1.93,-0.527 2.283,-0.527 0.82,0 2.574,0.556 5.268,1.668 1.286,0.76 1.93,1.58 1.93,2.458 0,0.47 -0.35,1.113 -1.054,1.93 -1.406,1.756 -2.43,3.424 -3.073,5.004 -2.692,6.145 -5.24,11.06 -7.638,14.75 3.1,2.752 5.677,4.828 7.725,6.232 4.74,3.044 12.26,6.645 22.562,10.8 1.346,0.4 2.018,0.88 2.018,1.406 0,0.4 -0.674,0.7 -2.018,0.877 -7.375,0.994 -12.524,1.492 -15.45,1.492 -1.816,0 -3.658,-0.614 -5.53,-1.844 -1.698,-1.286 -5.912,-6.087 -12.64,-14.397 l -1.317,1.317 c -3.337,3.395 -7.9,6.263 -13.694,8.603 -4.916,2.165 -8.838,3.248 -11.763,3.248 -1.815,0 -2.72,-0.233 -2.72,-0.703 0,-0.176 0.35,-0.38 1.054,-0.614 5.5,-1.697 10.416,-3.92 14.748,-6.672 4.623,-3.1 8.107,-6.203 10.448,-9.306 a 67.37,67.37 0 0 0 -1.844,-2.283 c -2.926,-3.862 -5.707,-7.142 -8.34,-9.832 -2.693,-2.8 -5.122,-4.7 -7.286,-5.706 -0.058,-0.058 -0.118,-0.087 -0.176,-0.087 -0.7,3.57 -1.492,6.8 -2.37,9.656 -1.816,5.853 -4.127,11.033 -6.935,15.54 -3.278,4.448 -6.644,7.667 -10.096,9.656 -0.877,0.527 -1.58,0.76 -2.107,0.7 l -0.176,-0.7 c 3.16,-3.337 5.735,-6.788 7.725,-10.36 3.746,-6.262 6.378,-12.7 7.9,-19.314 1.462,-6.554 2.194,-13.02 2.194,-19.402 0,-1.17 -0.234,-2.398 -0.703,-3.687 a 16.75,16.75 0 0 0 -0.439,-0.703 6.24,6.24 0 0 0 -0.878,-0.439 c -1.58,-0.643 -2.37,-1.317 -2.37,-2.02 0,-0.233 0.556,-0.47 1.668,-0.7 12.583,-1.756 22.942,-3.453 31.078,-5.092 2.864,-0.7 4.62,-1.052 5.265,-1.052 z m -23.527,28.62 c 1.406,1.054 2.926,2.37 4.565,3.95 3.5,3.57 6.672,6.672 9.482,9.306 1.462,-2.574 2.75,-5.47 3.862,-8.692 1.23,-3.628 1.844,-6.115 1.844,-7.462 0,-0.47 -0.44,-0.703 -1.317,-0.703 -0.645,0 -1.698,0.147 -3.16,0.44 l -9.92,2.107 c -2.283,0.527 -4.07,0.88 -5.355,1.054 z m 116.145,-4.34 c 1.17,0 2.634,0.47 4.4,1.406 1.17,0.527 1.756,1.2 1.756,2.018 0,0.527 -0.937,0.966 -2.8,1.317 -1.698,0.4 -4.8,0.85 -9.306,1.317 l -2.194,15.187 c 6.848,-0.527 12.172,-1.17 15.978,-1.93 1.755,-0.293 2.8,-0.44 3.16,-0.44 0.4,0 2,0.498 4.74,1.492 2.34,1.23 3.5,2.34 3.5,3.337 0,0.937 -1.6,1.406 -4.828,1.406 h -13.783 c -5.442,0 -12.73,0.294 -21.86,0.877 -6.263,0.35 -13.14,1.23 -20.63,2.634 -1.874,0.352 -3.13,0.527 -3.775,0.527 -0.995,0 -2.517,-0.4 -4.565,-1.228 -2.165,-0.88 -3.248,-1.6 -3.248,-2.196 0,-0.76 0.672,-1.2 2.018,-1.317 7.958,-0.116 13.812,-0.47 17.558,-1.054 a 45.75,45.75 0 0 1 2.81,-0.263 l -1.317,-14.573 -3.95,0.087 c -2.752,0 -4.624,-0.263 -5.618,-0.8 -1.054,-0.76 -1.58,-1.404 -1.58,-1.93 0,-0.4 1.52,-0.703 4.565,-0.88 l 6.145,-0.44 -1.14,-12.38 c -0.058,-0.936 -0.4,-1.93 -1.054,-2.985 -0.4,-0.47 -0.614,-0.848 -0.614,-1.14 0,-1.17 0.672,-1.756 2.02,-1.756 1.228,0 2.75,0.35 4.565,1.054 1.286,0.645 1.93,1.317 1.93,2.018 0,0.586 -0.087,1.2 -0.263,1.844 -0.234,1.17 -0.35,2.167 -0.35,2.985 l 0.527,9.832 10.7,-1.317 5.53,-0.7 c 0.703,-8.252 1.054,-13.724 1.054,-16.417 0,-1.52 -0.205,-2.84 -0.614,-3.95 -0.294,-0.703 -0.44,-1.083 -0.44,-1.14 0,-1.17 0.672,-1.756 2.02,-1.756 1.17,0 2.7,0.557 4.565,1.668 1.756,1.23 2.634,2.283 2.634,3.16 0,0.4 -0.176,1.024 -0.527,1.844 -0.82,1.698 -1.464,4.448 -1.93,8.252 l -1.054,7.373 a 88.59,88.59 0 0 0 2.897,-0.527 c 1.108,-0.345 1.9,-0.52 2.368,-0.52 z m -29.848,30.55 c 0.527,0 1.902,0.38 4.125,1.14 2.047,0.877 3.073,1.874 3.073,2.985 0,0.645 -0.35,1.14 -1.054,1.493 -1.58,0.937 -3.337,2.312 -5.268,4.125 -3.278,3.104 -6.76,5.707 -10.447,7.813 -2.4,1.64 -4.477,2.722 -6.232,3.25 -0.995,0.527 -1.785,0.8 -2.37,0.8 -0.7,0 -1.054,-0.118 -1.054,-0.35 3.277,-2.225 6.3,-4.712 9.042,-7.462 3.628,-3.452 6.262,-6.585 7.9,-9.393 0.584,-0.703 0.877,-1.93 0.877,-3.687 -0.001,-0.47 0.467,-0.703 1.404,-0.703 z m 3.6,-8 13.43,-0.965 1.406,-14.924 a 6.29,6.29 0 0 1 -1.054,0.087 l -14.573,1.317 0.8,14.485 z m 13.87,9.393 c 0.643,0 1.726,0.234 3.248,0.703 2.925,1.17 5.822,2.576 8.7,4.214 3.687,2.458 6.087,4.683 7.2,6.672 0.994,1.874 1.493,3.833 1.493,5.882 0,0.82 -0.234,1.697 -0.703,2.634 -0.4,0.76 -0.995,1.14 -1.756,1.14 -0.4,0 -1.17,-0.38 -2.283,-1.14 -1.64,-1.228 -3.805,-3.718 -6.496,-7.462 -3.337,-4.74 -5.882,-7.958 -7.638,-9.656 -1.406,-1.17 -2.107,-2.047 -2.107,-2.634 a 0.31,0.31 0 0 1 0.353,-0.352 z m 103.165,-37.627 c 1.112,0 2.663,0.674 4.654,2.018 0.995,0.585 1.493,1.17 1.493,1.756 0,0.294 -0.262,0.965 -0.8,2.018 -0.586,1.23 -1.024,2.458 -1.317,3.687 l -0.352,1.14 2.107,-0.263 6.234,-0.8 c 0.292,0 1.17,0.263 2.632,0.8 1.873,0.995 2.8,1.756 2.8,2.283 -0.06,0.645 -0.85,0.995 -2.37,1.054 -3.747,0.06 -7.872,0.234 -12.38,0.527 l -1.23,4.917 a 10.47,10.47 0 0 1 -0.527,1.317 c 1.173,0.76 1.756,1.347 1.756,1.756 -0.06,0.645 -0.85,0.995 -2.37,1.054 -3.22,0.06 -6.907,0.263 -11.06,0.614 l -0.087,6.232 c 1.697,-0.233 3.364,-0.527 5.003,-0.878 l 2.722,-0.44 c 0.527,0 1.6,0.147 3.248,0.44 1.46,0.47 2.194,0.878 2.194,1.228 0,0.586 -0.9,1.054 -2.72,1.406 l -5.268,0.703 c -0.877,0.175 -2.605,0.44 -5.18,0.8 l -0.086,3.687 v 2.37 l 13.782,-2.107 c 1.055,-0.233 1.695,-0.35 1.932,-0.35 0.7,0 1.902,0.35 3.6,1.054 1.697,0.76 2.545,1.347 2.545,1.756 0,0.645 -0.525,1.084 -1.58,1.317 -0.643,0.234 -1.96,0.352 -3.95,0.352 -4.8,0 -9.892,0.323 -15.275,0.965 l -1.23,0.176 c -0.176,3.63 -0.498,6.906 -0.965,9.832 -0.47,2.167 -0.9,3.454 -1.317,3.862 0.643,0.234 1.257,0.4 1.846,0.527 6.145,1.464 12.17,2.4 18.082,2.8 l 12.82,0.44 c 1.697,0 2.546,0.205 2.546,0.614 0,0.409 -0.8,0.877 -2.37,1.404 -3.747,1.52 -7.872,3.043 -12.38,4.565 -3.453,1.286 -6.1,1.93 -7.903,1.93 -2.05,0 -5.093,-1.054 -9.128,-3.16 -11.824,-6.73 -21.86,-12.143 -30.1,-16.24 l -0.965,1.406 c -2,2.868 -4.684,5.413 -8.077,7.638 -3.57,2.576 -6.116,3.862 -7.638,3.862 -0.4,0 -0.614,-0.116 -0.614,-0.35 0,-0.116 0.263,-0.292 0.8,-0.527 2.34,-1.697 5.062,-4.36 8.165,-8 a 42.23,42.23 0 0 0 4.214,-5.97 c -2.283,-0.994 -4.565,-1.55 -6.848,-1.668 h -2.896 c -0.645,0 -1.2,-0.175 -1.668,-0.527 -0.527,-0.4 -0.8,-0.8 -0.8,-1.14 0,-0.4 0.263,-0.672 0.8,-0.8 0.467,0 1.14,-0.087 2.018,-0.263 1.1,-0.233 2.458,-0.35 4.038,-0.35 1.813,0 4.096,0.557 6.848,1.668 0.467,-0.936 0.877,-1.902 1.228,-2.897 1.756,-4.155 2.634,-7.286 2.634,-9.393 0,-0.47 -0.234,-0.703 -0.703,-0.703 -1.112,0 -2.634,0.263 -4.565,0.8 -2,0.82 -3.22,1.23 -3.687,1.23 -0.467,0 -0.88,-0.322 -1.23,-0.965 -0.527,-0.936 -0.8,-1.756 -0.8,-2.458 0,-0.47 0.322,-1.14 0.966,-2.02 1.46,-1.404 2.78,-3.1 3.95,-5.092 l 3.5,-7.023 c 0.527,-1.17 0.8,-2.048 0.8,-2.634 0,-0.47 -0.234,-0.703 -0.703,-0.703 -0.35,0 -1.376,0.205 -3.072,0.614 -4.332,0.995 -6.966,1.492 -7.9,1.492 -0.88,0 -1.756,-0.176 -2.634,-0.527 -0.527,-0.293 -0.8,-0.584 -0.8,-0.877 0,-0.293 0.614,-0.496 1.844,-0.614 4.798,-1.054 8.955,-2.34 12.466,-3.862 1.346,-0.643 2.283,-0.966 2.8,-0.966 0.936,0 2.312,0.557 4.127,1.668 1.17,0.937 1.756,1.6 1.756,2.02 0,0.76 -0.4,1.58 -1.23,2.458 -2.167,2.107 -3.747,3.95 -4.74,5.53 -3.805,5.853 -5.706,9.042 -5.706,9.57 0,0.234 0.233,0.352 0.7,0.352 0.76,0 2.574,-0.4 5.444,-1.23 1.1,-0.35 1.93,-0.527 2.458,-0.527 0.584,0 1.433,0.47 2.546,1.404 0.82,0.586 1.228,1.14 1.228,1.668 0,0.4 -0.175,0.9 -0.527,1.493 -0.7,0.877 -1.288,1.93 -1.755,3.16 -1.464,4.508 -2.868,8.165 -4.214,10.975 10.125,4.74 18.085,8.048 23.88,9.92 -0.234,-0.527 -0.437,-1.26 -0.614,-2.194 -0.176,-2.75 -0.294,-6.32 -0.352,-10.7 -4.274,0.585 -7.316,1.084 -9.13,1.492 -0.82,0.176 -1.433,0.263 -1.844,0.263 -0.527,0 -1.464,-0.352 -2.8,-1.054 -1.113,-0.527 -1.668,-0.966 -1.668,-1.317 0,-0.351 0.47,-0.584 1.404,-0.703 l 14.047,-1.756 v -6.058 h -0.44 c -2.985,0.4 -5.122,0.614 -6.4,0.614 -1.17,0 -2.078,-0.146 -2.722,-0.44 -1.17,-0.4 -1.756,-0.82 -1.756,-1.23 0,-0.584 0.936,-0.936 2.8,-1.054 a 197.85,197.85 0 0 0 8.516,-1.054 v -6.4 a 156.06,156.06 0 0 0 -5.355,0.703 c -0.82,0.176 -1.317,0.263 -1.493,0.263 -1.054,0 -2.137,-0.293 -3.248,-0.877 -1.288,-0.527 -1.93,-1.054 -1.93,-1.58 0,-0.116 0.467,-0.233 1.404,-0.352 l 10.623,-1.317 v -5.355 l -8.516,1.14 c -1.522,0.294 -2.458,0.44 -2.8,0.44 -1.112,0 -2.254,-0.293 -3.424,-0.88 -1.347,-0.527 -2.018,-1.054 -2.018,-1.58 0,-0.176 0.44,-0.38 1.317,-0.614 l 15.45,-1.58 v -6.935 c -4.332,0.645 -7.17,0.966 -8.516,0.966 -1.113,0 -2,-0.176 -2.634,-0.527 -0.585,-0.233 -0.878,-0.527 -0.878,-0.877 0,-0.643 0.878,-1.023 2.634,-1.14 2.164,-0.116 5.295,-0.496 9.393,-1.14 v -2.194 c 0,-2.283 -0.205,-4.214 -0.614,-5.794 -0.294,-0.7 -0.44,-1.17 -0.44,-1.404 0,-0.527 0.47,-0.848 1.406,-0.965 0.584,0 1.727,0.322 3.424,0.965 1.58,0.703 2.37,1.522 2.37,2.458 0,0.294 -0.176,0.937 -0.525,1.93 -0.234,1.347 -0.412,2.72 -0.525,4.127 l 6.32,-1.23 c 2.04,-0.705 3.386,-1.056 4.03,-1.056 z m -10.62,15.362 -0.086,5.18 4.916,-0.8 2.722,-0.527 v -0.44 c 0,-0.117 0.058,-0.496 0.176,-1.14 0.234,-0.82 0.47,-1.844 0.7,-3.072 l -3.948,0.35 -4.48,0.438 z m 0.087,-10.27 v 0.35 l -0.087,6.848 8.956,-0.965 c 0,-0.176 0.028,-0.352 0.086,-0.527 0.352,-1.93 0.525,-3.6 0.525,-5.004 0,-1.17 -0.674,-1.755 -2.018,-1.755 -1.3,0 -3.5,0.322 -6.672,0.965 -0.294,-0.001 -0.557,0.03 -0.8,0.087 z m 51.706,5.1 c 1.46,0 2.663,0.263 3.6,0.8 a 1.33,1.33 0 0 0 0.351,0.263 c 11.823,-0.7 23.234,-1.668 34.238,-2.897 2.458,-0.233 4.74,-0.643 6.848,-1.228 1.695,-0.47 2.78,-0.703 3.248,-0.703 1.46,0 3.628,0.937 6.496,2.8 1.637,1.112 2.456,2.018 2.456,2.72 0,0.47 -0.262,1.112 -0.8,1.93 -0.82,1.93 -1.23,5.736 -1.23,11.413 0,12.3 0.233,21.452 0.7,27.478 0.176,4.565 0.262,9.336 0.262,14.3 0,2.283 -0.5,4.33 -1.493,6.145 -0.995,1.637 -1.96,2.458 -2.896,2.458 -0.527,0 -1.024,-0.44 -1.493,-1.317 -0.877,-2.167 -2.018,-4.36 -3.424,-6.585 -4.624,0 -8.84,0.147 -12.644,0.44 l -20.192,0.965 c -3.746,0.234 -6.614,0.35 -8.603,0.35 -0.7,0 -1.317,-0.057 -1.844,-0.175 0,0.234 -0.03,0.4 -0.087,0.527 -0.294,2.515 -0.8,3.775 -1.493,3.775 -0.76,0 -1.52,-0.703 -2.283,-2.107 -0.995,-1.64 -1.493,-3.337 -1.493,-5.092 0,-1.112 0.144,-2.165 0.44,-3.16 0.525,-2.8 0.994,-6.935 1.406,-12.38 0.4,-5.208 0.614,-13.987 0.614,-26.337 0,-5.384 -0.524,-9.246 -1.578,-11.587 -0.353,-0.76 -0.527,-1.346 -0.527,-1.756 0.005,-0.7 0.47,-1.052 1.408,-1.052 z m 3.862,55.482 c 10.7,-0.293 20.63,-0.76 29.76,-1.404 5.442,-0.4 8.983,-0.614 10.62,-0.614 0.88,0 2.253,0.44 4.127,1.317 a 5.05,5.05 0 0 1 1.054,0.79 c 0.293,-0.176 0.496,-0.8 0.614,-1.844 0.234,-2.458 0.352,-9.335 0.352,-20.63 0,-8.78 -0.352,-17.264 -1.054,-25.458 -0.236,-3.102 -0.76,-5.092 -1.58,-5.97 -0.584,-0.4 -1.55,-0.614 -2.896,-0.614 -5.385,0 -11.033,0.294 -16.944,0.88 -7.843,0.7 -13.58,1.376 -17.207,2.018 -1.93,0.35 -3.57,0.527 -4.916,0.527 -0.237,0 -0.47,-0.028 -0.703,-0.087 l -1.228,51.1 z m 23.178,-16.768 c 0.233,0 0.35,0.234 0.35,0.703 0,0.175 -0.175,0.35 -0.524,0.527 -1.64,0.995 -4.16,2.34 -7.55,4.038 -1.815,0.937 -3.95,2.137 -6.4,3.6 -0.412,0.294 -0.733,0.44 -0.965,0.44 -0.878,0 -2.05,-0.584 -3.5,-1.755 -1.054,-0.994 -1.578,-1.785 -1.578,-2.37 0,-0.057 0.143,-0.117 0.438,-0.176 a 13.45,13.45 0 0 0 2.633,-0.44 c 3.337,-0.76 8.283,-2.077 14.837,-3.95 1.282,-0.408 2.044,-0.614 2.28,-0.614 z m -18.524,-14.396 c 0.88,0 1.637,0.147 2.283,0.44 a 8.09,8.09 0 0 1 0.615,0.176 c 1.406,-0.176 2.632,-0.38 3.686,-0.614 1.35,-0.352 2.664,-0.88 3.95,-1.58 0.525,-0.293 0.907,-0.44 1.14,-0.44 0.758,0 2.047,0.44 3.862,1.317 0.88,0.527 1.317,1.112 1.317,1.756 0,0.47 -0.205,0.937 -0.615,1.404 -0.525,0.703 -0.965,1.668 -1.316,2.897 l -1.055,3.5 c 0.818,0.527 1.23,1.024 1.23,1.492 0,0.294 -0.118,0.47 -0.353,0.527 -1.054,0 -2.05,0.118 -2.985,0.352 l -4.127,0.877 c -0.76,0.176 -1.347,0.263 -1.754,0.263 h -0.8 c -0.06,0.294 -0.146,0.556 -0.262,0.8 -0.177,0.4 -0.412,0.614 -0.7,0.614 -0.353,0 -0.674,-0.233 -0.966,-0.703 -0.47,-0.7 -0.7,-1.404 -0.7,-2.107 l -0.7,-3.687 c -0.295,-1.873 -0.585,-3.2 -0.878,-3.95 -0.176,-0.82 -0.645,-1.58 -1.406,-2.283 -0.294,-0.176 -0.44,-0.293 -0.44,-0.35 -10e-4,-0.467 0.32,-0.7 0.964,-0.7 z m 24.406,-12.292 c 0.47,0 1.46,0.147 2.986,0.44 1.406,0.47 2.107,0.877 2.107,1.23 0,0.645 -0.8,1.112 -2.37,1.404 l -5.266,0.88 -0.086,0.087 0.7,2.897 c 1.23,4.098 2.634,7.725 4.215,10.886 a 6.06,6.06 0 0 0 0.263,-0.79 c 1.054,-2.7 1.58,-5.18 1.58,-7.462 l -0.352,-1.668 c 0,-0.703 0.32,-1.054 0.965,-1.054 0.997,0 2.226,0.44 3.687,1.317 1.23,0.703 1.845,1.522 1.845,2.458 0,0.35 -0.118,0.732 -0.352,1.14 -1.054,1.756 -1.755,3.015 -2.107,3.775 -0.997,2.517 -2.018,4.828 -3.073,6.935 1.173,2 2.634,3.922 4.4,5.793 0.76,0.82 1.375,1.23 1.846,1.23 0.233,0 0.524,-0.82 0.876,-2.458 l 0.7,-3.6 c 0.118,-0.527 0.263,-0.8 0.44,-0.8 0.292,0 0.47,0.352 0.525,1.054 0.352,4.917 1.054,8.428 2.108,10.535 0.524,0.937 0.8,1.64 0.8,2.107 0,0.877 -0.44,1.317 -1.317,1.317 -0.937,0 -2.312,-0.527 -4.125,-1.58 a 22.51,22.51 0 0 1 -5.093,-5.179 76.54,76.54 0 0 1 -3.248,-4.828 c -0.4,0.645 -0.85,1.288 -1.317,1.93 -2.752,4.038 -5.912,7.023 -9.48,8.955 -1.697,0.937 -2.868,1.404 -3.5,1.404 -0.237,0 -0.353,-0.116 -0.353,-0.35 3.628,-3.337 6.672,-6.788 9.13,-10.36 1.23,-1.58 2.34,-3.424 3.337,-5.53 a 33.69,33.69 0 0 1 -1.316,-2.545 c -1.698,-3.746 -3.484,-8.72 -5.355,-14.924 l -6.586,1.054 c -2.985,0.527 -5.122,0.8 -6.408,0.8 -1.054,0 -1.903,-0.116 -2.546,-0.35 -1.054,-0.352 -1.58,-0.703 -1.58,-1.054 0,-0.527 0.8,-0.848 2.37,-0.966 a 169.48,169.48 0 0 0 13.87,-2.458 l -1.317,-4.828 c -0.353,-1.52 -0.85,-2.634 -1.493,-3.337 -0.47,-0.47 -0.7,-0.936 -0.7,-1.404 0,-0.468 0.44,-0.703 1.317,-0.703 1.406,0 2.867,0.294 4.387,0.877 0.76,0.234 1.14,0.966 1.14,2.196 0,2.05 0.176,4.156 0.525,6.32 l 0.525,-0.175 2.726,-0.618 z M 348.83,-432.9 c 1.46,-0.293 2.8,-0.7 4.038,-1.228 l 1.317,-0.527 c 0.177,-1.17 0.294,-2.224 0.353,-3.16 0.116,-1.054 0.175,-1.96 0.175,-2.72 0,-0.47 -0.322,-0.703 -0.965,-0.703 -0.584,0 -1.375,0.176 -2.37,0.527 -1.404,0.4 -2.455,0.674 -3.16,0.8 0.058,0.4 0.087,0.8 0.087,1.14 0.3,2.458 0.466,4.42 0.525,5.882 z m 22.736,-28.882 c 0.7,0 1.493,0.118 2.37,0.35 2.165,0.527 3.744,1.113 4.74,1.756 0.936,0.703 1.406,1.698 1.406,2.985 0,1.815 -0.674,2.72 -2.018,2.72 -0.585,0 -1.173,-0.263 -1.755,-0.8 -1.23,-0.936 -2.896,-2.925 -5.003,-5.97 -0.294,-0.35 -0.44,-0.584 -0.44,-0.703 0.057,-0.234 0.3,-0.35 0.7,-0.35 z" stroke="#000" stroke-width="1.323"/></g></svg>