<?xml version="1.0" encoding="UTF-8" standalone="no"?>
<!-- Created with Inkscape (http://www.inkscape.org/) -->

<svg
   version="1.1"
   id="svg9"
   xml:space="preserve"
   width="228.68947"
   height="45.310799"
   viewBox="0 0 228.68947 45.310798"
   xmlns="http://www.w3.org/2000/svg"
   xmlns:svg="http://www.w3.org/2000/svg"><defs
     id="defs13"><clipPath
       clipPathUnits="userSpaceOnUse"
       id="clipPath23"><path
         d="M 0,841.89 H 595.28 V 0 H 0 Z"
         id="path21" /></clipPath><clipPath
       clipPathUnits="userSpaceOnUse"
       id="clipPath2091"><path
         d="M 0,841.89 H 595.28 V 0 H 0 Z"
         id="path2089" /></clipPath></defs><g
     id="g15"
     transform="matrix(1.3333333,0,0,-1.3333333,-174.17327,631.74606)"><g
       id="g17"><g
         id="g19"
         clip-path="url(#clipPath23)" /></g><g
       id="g2085"
       transform="translate(92.607904,60.335453)"><g
         id="g2087"
         clip-path="url(#clipPath2091)"
         transform="translate(-35.078751,75.770103)"><g
           id="g2173"
           transform="translate(87.4028,328.9502)"><path
             d="m 0,0 c -0.171,1.189 -1.155,3.215 -4.248,3.211 -2.122,0 -3.489,-1.345 -3.489,-2.74 0,-1.233 0.767,-2.133 2.522,-2.448 l 3.422,-0.651 c 4.866,-0.905 7.388,-4.026 7.388,-7.67 0,-4.011 -3.344,-8.084 -9.432,-8.084 -7.066,0 -10.105,4.584 -10.465,8.184 l 5.232,1.26 c 0.216,-2.349 1.8,-4.4 5.3,-4.4 2.233,0 3.599,1.078 3.599,2.662 0,1.293 -1.051,2.233 -2.733,2.571 l -3.495,0.651 c -4.337,0.826 -6.959,3.704 -6.959,7.492 0,4.828 4.248,8.216 9.154,8.216 6.37,0 8.788,-3.817 9.321,-6.81 z"
             style="fill:#000000;fill-opacity:1;fill-rule:nonzero;stroke:none"
             id="path2175" /></g><g
           id="g2177"
           transform="translate(95.6749,311.102)"><path
             d="m 0,0 v 17.919 h 5.221 v -2.048 c 0.922,1.582 3.216,2.593 5.166,2.593 2.555,0 4.382,-1.045 5.3,-2.815 1.404,2.021 3.121,2.815 5.536,2.815 3.395,0 6.628,-1.982 6.628,-6.848 V 0 l -5.288,0.007 v 10.387 c 0,1.693 -0.911,3.015 -2.851,3.015 -1.937,0 -2.992,-1.482 -2.992,-3.066 V 0.007 L 11.32,0 v 10.394 c 0,1.693 -0.899,3.015 -2.883,3.015 -1.911,0 -2.96,-1.482 -2.96,-3.089 L 5.477,0 Z"
             style="fill:#000000;fill-opacity:1;fill-rule:nonzero;stroke:none"
             id="path2179" /></g><path
           d="m 126.903,329.028 h 5.488 v -17.92 h -5.488 z m 2.7,8.676 c 1.811,0 3.244,-1.439 3.244,-3.195 0,-1.77 -1.433,-3.221 -3.244,-3.221 -1.722,0 -3.177,1.451 -3.177,3.221 0,1.756 1.455,3.195 3.177,3.195"
           style="fill:#000000;fill-opacity:1;fill-rule:nonzero;stroke:none"
           id="path2181" /><path
           d="m 135.824,337.204 h 5.488 v -26.096 h -5.488 z"
           style="fill:#000000;fill-opacity:1;fill-rule:nonzero;stroke:none"
           id="path2183" /><g
           id="g2185"
           transform="translate(156.3321,322.2068)"><path
             d="M 0,0 C -0.074,1.378 -0.989,3.037 -3.588,3.037 -5.899,3.037 -7.044,1.338 -7.155,0 Z m 4.992,-5.95 c -0.882,-3.1 -3.715,-5.688 -8.27,-5.688 -4.939,0 -9.331,3.533 -9.331,9.554 0,5.766 4.288,9.45 8.943,9.45 5.543,0 8.965,-3.429 8.965,-9.195 0,-0.766 -0.066,-1.593 -0.107,-1.704 H -7.266 c 0.111,-2.022 1.945,-3.455 4.067,-3.455 1.977,0 3.088,0.927 3.599,2.338 z"
             style="fill:#000000;fill-opacity:1;fill-rule:nonzero;stroke:none"
             id="path2187" /></g><g
           id="g2189"
           transform="translate(176.3623,320.5959)"><path
             d="m 0,0 c 0,2.433 -1.755,3.955 -3.833,3.955 -2.044,0 -3.844,-1.522 -3.844,-3.955 0,-2.462 1.667,-3.977 3.844,-3.977 C -1.6,-3.977 0,-2.462 0,0 m -8.316,-9.139 c 0.344,-1.726 1.795,-2.981 3.839,-2.981 2.744,0 4.437,1.326 4.437,4.581 v 0.822 c -0.66,-0.971 -2.211,-2.015 -4.793,-2.015 -4.755,0 -8.321,3.748 -8.321,8.732 0,4.722 3.422,8.743 8.321,8.743 2.922,0 4.471,-1.277 4.966,-2.222 V 8.425 H 5.366 V -7.254 c 0,-5.151 -2.889,-9.621 -9.577,-9.621 -5.161,0 -8.443,3.166 -8.943,6.381 z"
             style="fill:#000000;fill-opacity:1;fill-rule:nonzero;stroke:none"
             id="path2191" /></g><g
           id="g2193"
           transform="translate(193.7198,315.3189)"><path
             d="M 0,0 C 2.206,0 4.084,1.738 4.084,4.766 4.084,7.877 2.251,9.492 0,9.492 -2.327,9.492 -4.093,7.877 -4.093,4.766 -4.093,1.811 -2.26,0 0,0 m 4.117,-1.918 c -0.778,-1.721 -2.6,-2.792 -4.828,-2.792 -5.248,0 -8.892,3.988 -8.892,9.514 0,5.339 3.41,9.45 8.709,9.45 3.211,0 4.615,-1.778 4.978,-2.6 v 2.048 H 9.383 V -1.006 c 0,-1.66 0.1,-2.811 0.144,-3.204 H 4.255 c -0.049,0.393 -0.138,1.366 -0.138,2.126 z"
             style="fill:#000000;fill-opacity:1;fill-rule:nonzero;stroke:none"
             id="path2195" /></g><g
           id="g2197"
           transform="translate(213.4053,329.0212)"><path
             d="M 0,0 H 3.484 V -4.799 H 0 v -6.699 c 0,-1.482 0.795,-1.871 1.984,-1.871 0.567,0 1.111,0.111 1.433,0.182 v -4.554 c -0.211,-0.105 -1.111,-0.501 -2.85,-0.501 -3.704,0 -5.982,2.2 -5.982,5.773 v 7.67 L -8.57,-4.803 V 0 h 0.889 c 1.889,0 2.777,1.267 2.777,2.922 V 5.233 H 0 Z"
             style="fill:#000000;fill-opacity:1;fill-rule:nonzero;stroke:none"
             id="path2199" /></g><g
           id="g2201"
           transform="translate(230.7646,322.2068)"><path
             d="M 0,0 C -0.077,1.378 -1,3.037 -3.599,3.037 -5.895,3.037 -7.055,1.338 -7.177,0 Z m 4.982,-5.95 c -0.871,-3.1 -3.711,-5.688 -8.259,-5.688 -4.944,0 -9.332,3.528 -9.332,9.554 0,5.766 4.282,9.45 8.943,9.45 5.544,0 8.966,-3.429 8.966,-9.195 0,-0.766 -0.078,-1.593 -0.101,-1.704 H -7.276 c 0.099,-2.022 1.955,-3.455 4.066,-3.455 1.982,0 3.099,0.927 3.61,2.338 z"
             style="fill:#000000;fill-opacity:1;fill-rule:nonzero;stroke:none"
             id="path2203" /></g><g
           id="g2205"
           transform="translate(241.3209,331.0542)"><path
             d="M 0,0 C 0.411,0 0.642,0.196 0.642,0.531 0.642,0.889 0.411,1.089 0,1.089 H -0.487 V 0 Z m -0.487,-1.982 h -0.677 v 3.673 h 1.266 c 0.709,0 1.242,-0.5 1.242,-1.151 0,-0.509 -0.331,-0.929 -0.811,-1.073 L 1.364,-1.982 H 0.56 l -0.762,1.371 h -0.285 z m 0.431,-0.897 c 1.467,0 2.613,1.175 2.613,2.717 0,1.527 -1.146,2.706 -2.613,2.706 -1.457,0 -2.606,-1.179 -2.606,-2.706 0,-1.542 1.149,-2.717 2.606,-2.717 m 0,6.078 c 1.854,0 3.353,-1.512 3.353,-3.361 0,-1.867 -1.499,-3.386 -3.353,-3.386 -1.844,0 -3.33,1.519 -3.33,3.386 0,1.849 1.486,3.361 3.33,3.361"
             style="fill:#000000;fill-opacity:1;fill-rule:nonzero;stroke:none"
             id="path2207" /></g></g></g></g></svg>
