<?xml version="1.0" encoding="UTF-8" standalone="no"?>
<!-- Created with Inkscape (http://www.inkscape.org/) -->
<svg
   xmlns:svg="http://www.w3.org/2000/svg"
   xmlns="http://www.w3.org/2000/svg"
   version="1.0"
   width="800"
   height="800"
   viewBox="0 0 15359.5 15386.5"
   id="svg2"
   xml:space="preserve">
 <defs
   id="defs4">
  <style
   type="text/css"
   id="style6" />
 
  
  
 </defs>
 <g
   id="_89013928">
   <polygon
   points="15340.9,0 15340.9,15367.9 0,15367.9 0,0 15340.9,0 "
   style="fill:#dc3727;fill-rule:nonzero"
   id="_89549984" />
   <polyline
   style="fill:none;fill-rule:nonzero;stroke:#dc3727;stroke-width:37.19789886"
   points="15340.9,0 15340.9,15367.9 0,15367.9 "
   class="fil1 str0"
   id="_88578832" />
   <path
   d="M 7577.35,7874.44 L 8025.141,7874.44 C 8510.765,7874.44 8895.339,8095.236 8895.339,8612.199 C 8895.339,9103.876 8523.36,9362.699 8031.341,9362.699 L 7577.35,9362.699 L 7577.35,7874.439 L 7577.35,7874.44 z M 8151.185,9905 C 9191.705,9905 9828.705,9362.701 9828.705,8599.46 C 9828.705,7924.722 9216.989,7546.4 8668.495,7521.26 L 8668.495,7508.519 C 8977.306,7426.703 9551.287,7136.344 9551.287,6430.119 C 9551.287,5830.998 9027.733,5490.505 8283.437,5490.505 L 6688.077,5490.505 L 6688.077,9905.005 L 8151.197,9905.005 L 8151.185,9905 z M 7577.35,6033 L 8037.687,6033 C 8422.408,6033 8712.425,6203.124 8712.425,6594.24 C 8712.425,7004.101 8365.586,7331.999 7854.822,7331.999 L 7577.351,7331.999 L 7577.351,6032.999 L 7577.35,6033 z "
   style="fill:#ffffff"
   id="_89177760" />
   <polygon
   points="10082,9905 10971.1,9905 10971.1,5490.7 10082,5490.7 10082,9905 "
   style="fill:#ffffff;fill-rule:nonzero"
   id="_89333160" />
   <path
   d="M 4823.53,5755.38 C 4520.772,5578.861 4092.117,5414.741 3631.44,5414.741 C 2080.16,5414.741 1121.65,6468.001 1121.65,7672.641 C 1121.65,8971.641 2086.551,9980.771 3619.04,9980.771 C 4047.89,9980.771 4520.773,9835.592 4792,9678.062 L 4546.113,9129.368 C 4312.723,9255.411 3997.224,9349.968 3656.779,9349.968 C 2792.781,9349.968 2067.619,8732.052 2067.619,7685.188 C 2067.619,6682.408 2723.416,6045.548 3631.449,6045.548 C 3972.088,6045.548 4331.669,6177.791 4546.118,6291.484 L 4823.541,5755.384 L 4823.53,5755.38 z "
   style="fill:#ffffff;fill-rule:nonzero"
   id="_89539152" />
   <line
   style="fill:none;fill-rule:nonzero;stroke:#ffffff;stroke-width:747.9130249"
   y2="5853.21"
   x2="13975.1"
   y1="5853.21"
   x1="11323.2"
   class="fil1 str1"
   id="_88499432" />
   <path
   d="M 4528.68,7945.23 L 5768.27,7945.23 C 5799.61,7466.831 5629.632,7139.616 5214.45,7139.616 C 4736.198,7139.616 4522.334,7523.458 4528.68,7945.23 z M 6554.94,8398.147 L 4516.13,8398.147 C 4496.994,8989.507 4912.566,9430.077 5434.705,9430.077 C 5701.632,9430.077 5943.565,9414.2117 6188.281,9234.422 L 6188.281,9782.726 C 5866.973,9945.821 5551.132,9971.303 5283.668,9971.303 C 4333.558,9971.303 3622.498,9297.786 3622.498,8259.713 C 3622.498,7290.662 4327.209,6673.963 5227.188,6673.963 C 6208.638,6673.963 6617.618,7460.636 6554.938,8398.153 L 6554.94,8398.147 z "
   style="fill:#ffffff"
   id="_88635264" />
   <line
   style="fill:none;stroke:#ffffff;stroke-width:875.03100586"
   y2="6099.4399"
   x2="12634.6"
   y1="9893.8203"
   x1="12635.1"
   class="fil4 str2"
   id="_89228120" />
  </g>
</svg>