<?xml version="1.0" encoding="UTF-8" standalone="no"?>
<svg xmlns:dc="http://purl.org/dc/elements/1.1/" xmlns:cc="http://creativecommons.org/ns#" xmlns:rdf="http://www.w3.org/1999/02/22-rdf-syntax-ns#" xmlns:svg="http://www.w3.org/2000/svg" xmlns="http://www.w3.org/2000/svg" id="svg66" version="1.2" viewBox="0 0 1200 268.30469" height="268.30469pt" width="1200pt">
  <metadata id="metadata72">
    <rdf:RDF>
      <cc:Work rdf:about="">
        <dc:format>image/svg+xml</dc:format>
        <dc:type rdf:resource="http://purl.org/dc/dcmitype/StillImage"/>
        <dc:title/>
      </cc:Work>
    </rdf:RDF>
  </metadata>
  <defs id="defs70"/>
  <g transform="translate(-360,-405.84766)" id="surface1">
    <path id="path61" d="m 556.97266,597.15234 c -0.53516,0 -0.89454,0.35938 -0.89454,0.89453 v 59.09375 c 0,0.53907 0.35938,0.89454 0.89454,0.89454 h 20.5039 c 8.6836,0 16.65235,-4.20704 16.65235,-16.02344 0,-9.49219 -3.9375,-12.98438 -8.95313,-14.95313 -0.53516,-0.17968 -0.80469,-0.44922 -0.80469,-0.80468 0,-0.44922 0.17969,-0.62891 1.07422,-1.16407 3.85156,-2.41797 7.42969,-4.57031 7.42969,-12.89453 0,-11.1914 -6.08594,-15.04297 -18.53125,-15.04297 z m 8.59375,26.94922 c -0.53516,0 -0.71485,-0.0898 -0.71485,-0.71484 v -19.16016 c 0,-0.35937 0.0899,-0.53906 0.53906,-0.53906 h 6.80469 c 9.3086,0 11.63672,2.41797 11.63672,9.3125 0,10.20703 -5.55078,11.10156 -14.32422,11.10156 z m -0.26563,27.3086 c -0.35937,0 -0.44922,-0.0899 -0.44922,-0.53516 v -20.05859 c 0,-0.625 0.17969,-0.80469 0.71485,-0.80469 h 6.6289 c 7.33985,0 12.89063,1.61328 12.89063,10.83594 0,8.95312 -3.22266,10.5625 -13.33985,10.5625 z m 40.01953,-41.27344 c -0.53906,0 -0.89453,0.35937 -0.89453,0.89453 v 31.06641 c 0,13.07421 4.11719,16.83593 19.875,16.83593 4.38672,0 11.10156,-0.89843 15.9375,-1.88281 0.53906,-0.0898 0.89453,-0.35937 0.89453,-0.89453 v -45.125 c 0,-0.53516 -0.35547,-0.89453 -0.89453,-0.89453 h -6.80469 c -0.53515,0 -0.89453,0.35937 -0.89453,0.89453 v 39.30469 c 0,0.6289 -0.26953,0.80468 -0.89453,0.98437 -1.96875,0.44922 -4.74609,0.71875 -7.43359,0.71875 -9.04297,0 -11.19141,-2.41797 -11.19141,-10.83594 v -30.17187 c 0,-0.53516 -0.35937,-0.89453 -0.89453,-0.89453 z m 84.51953,47.89844 c 0.53907,0 0.89453,-0.35547 0.89453,-0.89454 v -31.42578 c 0,-13.07422 -3.58203,-16.47656 -19.33984,-16.47656 -4.47656,0 -11.63672,0.98828 -16.47266,1.88281 -0.53906,0.0899 -0.89453,0.35547 -0.89453,0.89453 v 45.125 c 0,0.53907 0.35547,0.89454 0.89453,0.89454 h 6.80469 c 0.53516,0 0.89453,-0.35547 0.89453,-0.89454 v -39.57421 c 0,-0.625 0.26953,-0.80469 0.89453,-0.98438 1.96875,-0.44922 4.56641,-0.71484 7.87891,-0.71484 9.04297,0 10.74609,2.05859 10.74609,10.47265 v 30.80078 c 0,0.53907 0.35547,0.89454 0.89454,0.89454 z m 33.75391,0.89843 c 5.99609,0 11.19141,-0.89843 14.85937,-1.88281 0.53907,-0.17969 0.89844,-0.53516 0.89844,-1.07422 V 593.125 c 0,-0.53906 -0.35937,-0.89453 -0.89844,-0.89453 h -6.80078 c -0.53906,0 -0.89843,0.35547 -0.89843,0.89453 v 15.9375 c 0,0.44531 -0.0899,0.80469 -0.625,0.80469 -1.07422,0 -3.94141,-0.62891 -6.98438,-0.62891 -15.21875,0 -21.75781,7.25391 -21.75781,24.26563 0,18.35546 4.47656,25.42968 22.20703,25.42968 m 7.16016,-8.14843 c 0,0.35546 -0.0899,0.71484 -0.80469,0.98437 -1.52344,0.53516 -4.38672,0.625 -6.35547,0.625 -11.73047,0 -13.25,-4.02734 -13.25,-18.89062 0,-14.95313 3.13281,-17.63672 12.98047,-17.63672 2.50781,0 5.55078,0.35547 6.80469,0.80468 0.44531,0.17969 0.625,0.625 0.625,1.07422 z m 28.5625,-20.77344 c 0,-8.23828 2.14843,-14.32422 11.28125,-14.32422 7.78906,0 10.20703,3.75781 10.20703,11.81641 0,2.95703 -0.26953,3.13671 -1.07422,3.13671 h -19.87891 c -0.44531,0 -0.53515,-0.26953 -0.53515,-0.6289 m 27.57421,26.32422 c 0.44922,-0.17969 0.62891,-0.53907 0.62891,-0.89453 v -0.26954 l -0.35937,-4.74609 c -0.17969,-0.35937 -0.44532,-0.53516 -0.89454,-0.53516 -0.0898,0 -0.26953,0.0859 -0.44921,0.0859 -2.77344,1.16406 -7.33985,2.32813 -11.54688,2.32813 -9.49219,0 -14.95312,-2.86328 -14.95312,-14.77344 0,-0.44531 0.0898,-0.625 0.53515,-0.625 h 26.59375 c 1.52344,0 2.32813,-0.80469 2.32813,-4.38672 v -2.50781 c 0,-11.90625 -3.40235,-20.77344 -18.17578,-20.77344 -14.95313,0 -20.14454,10.65625 -20.14454,24.80469 0,13.69531 4.20704,24.89062 22.02344,24.89062 5.73047,0 10.56641,-0.89843 14.41406,-2.59765 m 23.63672,2.59765 c 10.92188,0 15.66797,-3.04687 15.66797,-13.61328 0,-5.37109 -2.5039,-8.86328 -10.20703,-13.96484 -7.33984,-4.83594 -9.30859,-6.17969 -9.30859,-10.11719 0,-4.92578 2.23828,-5.37109 8.86328,-5.37109 2.95312,0 6.35547,0.44531 8.68359,0.80468 0.35938,0.0898 0.71485,-0.0898 0.71485,-0.35937 l 0.35937,-5.73047 c 0,-0.44531 -0.26953,-0.53516 -0.53516,-0.625 -2.41796,-0.44922 -6,-0.71875 -10.20703,-0.71875 -11.73047,0 -15.84765,3.67188 -15.84765,12.89453 0,5.82031 2.77343,8.0586 10.11718,13.33985 7.33985,5.28515 9.22266,6.98437 9.22266,10.29687 0,5.64063 -1.25391,6.44531 -8.95312,6.44531 -2.95704,0 -6.62891,-0.26562 -9.76172,-0.89453 -0.35938,-0.0898 -0.71485,0.0899 -0.71485,0.35938 l -0.35937,5.73047 c 0,0.44531 0.26953,0.53515 0.53906,0.625 2.77344,0.53906 7.51953,0.89843 11.72656,0.89843 m 50.67578,-1.61328 c 3.49219,-9.3125 12.625,-40.46875 13.69922,-46.28906 0,-0.44922 -0.17968,-0.89453 -0.71484,-0.89453 h -6.89453 c -0.62891,0 -1.07422,0.26562 -1.16406,0.80469 -2.59766,11.37109 -7.25391,30.71093 -10.11719,39.57421 -0.17969,0.44922 -0.44922,0.53907 -1.34375,0.53907 -0.8086,0 -1.16406,-0.0899 -1.25391,-0.53907 -2.86328,-8.86328 -7.69922,-28.20312 -10.38672,-39.57421 -0.0898,-0.44532 -0.26953,-0.80469 -0.80468,-0.80469 h -7.34375 c -0.625,0 -0.80469,0.26562 -0.80469,0.80469 1.16406,5.91015 9.84765,36.53125 13.51953,46.3789 0.0898,0.26953 0.44922,0.71485 0.89453,0.71485 h 11.64063 c 0.6289,0 0.89453,-0.26563 1.07421,-0.71485 m 29.36719,-27.30859 c 0,-8.23828 2.14844,-14.32422 11.28125,-14.32422 7.78906,0 10.20703,3.75781 10.20703,11.81641 0,2.95703 -0.26953,3.13671 -1.07422,3.13671 h -19.8789 c -0.44531,0 -0.53516,-0.26953 -0.53516,-0.6289 m 27.57422,26.32422 c 0.44922,-0.17969 0.62891,-0.53907 0.62891,-0.89453 v -0.26954 l -0.35938,-4.74609 c -0.17969,-0.35937 -0.44531,-0.53516 -0.89453,-0.53516 -0.0898,0 -0.26953,0.0859 -0.44922,0.0859 -2.77344,1.16406 -7.33984,2.32813 -11.54687,2.32813 -9.49219,0 -14.95313,-2.86328 -14.95313,-14.77344 0,-0.44531 0.0899,-0.625 0.53516,-0.625 h 26.59375 c 1.52344,0 2.32812,-0.80469 2.32812,-4.38672 v -2.50781 c 0,-11.90625 -3.40234,-20.77344 -18.17578,-20.77344 -14.95312,0 -20.14453,10.65625 -20.14453,24.80469 0,13.69531 4.20703,24.89062 22.02344,24.89062 5.73047,0 10.5664,-0.89843 14.41406,-2.59765 m 12.98438,-44.32032 v 45.125 c 0,0.53907 0.35546,0.89454 0.89453,0.89454 h 6.625 c 0.625,0.0898 1.07422,-0.26563 1.07422,-0.89454 V 617.9257 c 0,-0.44922 0.0898,-0.80469 0.625,-1.07422 1.34375,-0.71875 4.38671,-0.89453 6,-0.89453 2.95703,0 5.37109,0.17578 7.61328,0.53516 0.44531,0.0898 0.625,-0.0899 0.625,-0.35938 l 0.44531,-5.73047 c 0,-0.44531 -0.0898,-0.625 -0.53516,-0.71484 -1.96875,-0.35547 -5.46093,-0.44922 -8.23828,-0.44922 -5.1914,0 -10.29687,0.98828 -14.23437,1.88281 -0.53907,0.0899 -0.89453,0.35547 -0.89453,0.89453 m 48.16796,-6.53515 c 0,-3.85156 1.16407,-7.07422 6,-7.07422 2.0586,0 3.84766,0.26953 5.01172,0.53906 0.53907,0.0859 0.89453,0.0859 1.07422,-0.53906 l 0.44922,-4.38672 c 0.0898,-0.53906 -0.0898,-0.98437 -0.62891,-1.16406 -0.625,-0.17969 -3.13281,-0.625 -6.53515,-0.625 -12.89063,0 -13.96875,8.41406 -13.96875,12.98047 v 4.38672 c 0,0.35937 -0.17578,0.53906 -0.53516,0.53906 H 963 c -0.53516,0 -0.89453,0.35937 -0.89453,0.89453 v 4.83594 c 0,0.53515 0.35937,0.89453 0.89453,0.89453 h 7.16406 c 0.35938,0 0.53516,0.17969 0.53516,0.53515 v 39.84375 c 0,0.53907 0.35937,0.89454 0.89844,0.89454 h 6.80468 c 0.53516,0 0.89453,-0.35547 0.89453,-0.89454 v -39.84375 c 0,-0.35546 0.17969,-0.53515 0.53907,-0.53515 h 9.21875 c 0.53906,0 0.89453,-0.35938 0.89453,-0.89453 v -4.83594 c 0,-0.53516 -0.35547,-0.89453 -0.89453,-0.89453 h -9.21875 c -0.35938,0 -0.53907,-0.17969 -0.53907,-0.53906 z m 32.23043,10.65234 c 7.6993,0 10.5664,1.70313 10.5664,8.59766 v 4.5664 c 0,0.35547 -0.1796,0.44532 -0.539,0.53516 l -11.1914,1.34375 c -13.16018,1.61328 -15.21877,6.26563 -15.21877,14.86328 0,9.75781 4.47266,12.89453 20.05467,12.89453 5.9961,0 11.5469,-0.71875 14.0547,-1.52343 0.9844,-0.35938 1.1641,-0.80469 1.1641,-1.34375 v -32.23047 c 0,-10.47657 -5.7305,-14.59766 -16.8321,-14.59766 -5.9961,0 -10.4765,0.62891 -13.87496,1.61328 -0.53907,0.17969 -0.62891,0.71485 -0.53907,1.25391 l 0.625,4.38672 c 0.0898,0.53906 0.80863,0.53906 1.34373,0.44922 2.8672,-0.44922 7.1641,-0.8086 10.3867,-0.8086 m 10.5664,35.63672 c 0,0.26953 -0.09,0.44531 -0.8085,0.625 -1.3399,0.35938 -4.3868,0.53906 -6.8946,0.53906 -8.9531,0 -10.4726,-0.89453 -10.4726,-7.96875 0,-7.16406 1.9687,-8.77343 9.4882,-8.77343 h 8.1485 c 0.3594,0 0.539,0.17968 0.539,0.53515 z m 31.7813,7.16406 c 10.9258,0 15.6719,-3.04687 15.6719,-13.61328 0,-5.37109 -2.5078,-8.86328 -10.2071,-13.96484 -7.3437,-4.83594 -9.3125,-6.17969 -9.3125,-10.11719 0,-4.92578 2.2383,-5.37109 8.8633,-5.37109 2.9532,0 6.3555,0.44531 8.6836,0.80468 0.3594,0.0898 0.7149,-0.0898 0.7149,-0.35937 l 0.3593,-5.73047 c 0,-0.44531 -0.2656,-0.53516 -0.5351,-0.625 -2.418,-0.44922 -6,-0.71875 -10.207,-0.71875 -11.7305,0 -15.8477,3.67188 -15.8477,12.89453 0,5.82031 2.7734,8.0586 10.1172,13.33985 7.3398,5.28515 9.2226,6.98437 9.2226,10.29687 0,5.64063 -1.2539,6.44531 -8.9531,6.44531 -2.957,0 -6.6289,-0.26562 -9.7617,-0.89453 -0.3594,-0.0898 -0.7148,0.0899 -0.7148,0.35938 l -0.3594,5.73047 c 0,0.44531 0.2695,0.53515 0.539,0.625 2.7735,0.53906 7.5196,0.89843 11.7266,0.89843 m 35.9023,0 c 10.9219,0 15.668,-3.04687 15.668,-13.61328 0,-5.37109 -2.5039,-8.86328 -10.207,-13.96484 -7.3399,-4.83594 -9.3086,-6.17969 -9.3086,-10.11719 0,-4.92578 2.2383,-5.37109 8.8633,-5.37109 2.9531,0 6.3554,0.44531 8.6836,0.80468 0.3593,0.0898 0.7148,-0.0898 0.7148,-0.35937 l 0.3594,-5.73047 c 0,-0.44531 -0.2695,-0.53516 -0.5352,-0.625 -2.4179,-0.44922 -6,-0.71875 -10.207,-0.71875 -11.7305,0 -15.8477,3.67188 -15.8477,12.89453 0,5.82031 2.7735,8.0586 10.1172,13.33985 7.3399,5.28515 9.2227,6.98437 9.2227,10.29687 0,5.64063 -1.2539,6.44531 -8.957,6.44531 -2.9532,0 -6.625,-0.26562 -9.7579,-0.89453 -0.3593,-0.0898 -0.7148,0.0899 -0.7148,0.35938 l -0.3594,5.73047 c 0,0.44531 0.2696,0.53515 0.5391,0.625 2.7734,0.53906 7.5195,0.89843 11.7265,0.89843 m 27.3086,-48.79687 c -0.539,0 -0.8984,0.35937 -0.8984,0.89453 v 31.06641 c 0,13.07421 4.1211,16.83593 19.8789,16.83593 4.3867,0 11.1016,-0.89843 15.9375,-1.88281 0.5352,-0.0898 0.8945,-0.35937 0.8945,-0.89453 v -45.125 c 0,-0.53516 -0.3593,-0.89453 -0.8945,-0.89453 h -6.8047 c -0.539,0 -0.8945,0.35937 -0.8945,0.89453 v 39.30469 c 0,0.6289 -0.2695,0.80468 -0.8984,0.98437 -1.9688,0.44922 -4.7461,0.71875 -7.4297,0.71875 -9.043,0 -11.1914,-2.41797 -11.1914,-10.83594 v -30.17187 c 0,-0.53516 -0.3594,-0.89453 -0.8946,-0.89453 z m 84.5196,47.89844 c 0.5351,0 0.8945,-0.35547 0.8945,-0.89454 v -31.42578 c 0,-13.07422 -3.582,-16.47656 -19.3398,-16.47656 -4.4766,0 -11.6407,0.98828 -16.4766,1.88281 -0.5352,0.0899 -0.8945,0.35547 -0.8945,0.89453 v 45.125 c 0,0.53907 0.3593,0.89454 0.8945,0.89454 h 6.8047 c 0.539,0 0.8984,-0.35547 0.8984,-0.89454 v -39.57421 c 0,-0.625 0.2656,-0.80469 0.8946,-0.98438 1.9687,-0.44922 4.5664,-0.71484 7.8789,-0.71484 9.0429,0 10.7421,2.05859 10.7421,10.47265 v 30.80078 c 0,0.53907 0.3594,0.89454 0.8985,0.89454 z m 49.5078,-46.10938 c 0,-0.625 -0.1758,-0.98437 -0.8945,-1.16406 -4.9219,-1.07422 -11.461,-1.52344 -15.7579,-1.52344 -15.2187,0 -21.3086,6.98438 -21.3086,23.19141 0,17.46093 4.4766,22.83203 22.0274,22.83203 2.5039,0 4.7422,-0.0898 6.8008,-0.26953 0.4492,0 0.6289,0.17968 0.6289,0.6289 0,9.75782 -2.1485,12.08594 -12.1758,12.08594 -4.2109,0 -10.7461,-0.89453 -13.9688,-1.87891 -0.5351,-0.17968 -0.9843,0.0859 -1.0742,0.53516 l -0.8945,4.47656 c -0.09,0.44922 0,0.89453 0.3594,0.98438 4.1172,1.43359 11.2812,2.32812 16.5625,2.32812 12.3554,0 19.6953,-3.04297 19.6953,-16.74218 z m -15.7578,37.15625 c -11.7266,0 -13.25,-2.68359 -13.25,-16.65234 0,-14.05469 2.6875,-16.5625 12.5351,-16.5625 3.043,0 5.9102,0.35547 7.2539,0.80468 0.5352,0.17969 0.625,0.625 0.625,1.07422 v 29.72657 c 0,0.53515 -0.09,0.80468 -0.625,1.07421 -0.9882,0.44532 -3.0468,0.53516 -6.539,0.53516 m 39.3047,9.85156 c 10.9257,0 15.6679,-3.04687 15.6679,-13.61328 0,-5.37109 -2.5039,-8.86328 -10.207,-13.96484 -7.3398,-4.83594 -9.3086,-6.17969 -9.3086,-10.11719 0,-4.92578 2.2383,-5.37109 8.8633,-5.37109 2.9531,0 6.3555,0.44531 8.6836,0.80468 0.3594,0.0898 0.7187,-0.0898 0.7187,-0.35937 l 0.3555,-5.73047 c 0,-0.44531 -0.2695,-0.53516 -0.5352,-0.625 -2.4179,-0.44922 -6,-0.71875 -10.207,-0.71875 -11.7305,0 -15.8476,3.67188 -15.8476,12.89453 0,5.82031 2.7734,8.0586 10.1171,13.33985 7.3399,5.28515 9.2227,6.98437 9.2227,10.29687 0,5.64063 -1.2539,6.44531 -8.9531,6.44531 -2.9571,0 -6.625,-0.26562 -9.7617,-0.89453 -0.3555,-0.0898 -0.7149,0.0899 -0.7149,0.35938 l -0.3594,5.73047 c 0,0.44531 0.2696,0.53515 0.5391,0.625 2.7734,0.53906 7.5195,0.89843 11.7266,0.89843 m 63.3906,-47.00781 c 0,-0.625 -0.1797,-0.98437 -0.8945,-1.16406 -4.9258,-1.07422 -11.461,-1.52344 -15.7579,-1.52344 -15.2226,0 -21.3086,6.98438 -21.3086,23.19141 0,17.46093 4.4766,22.83203 22.0235,22.83203 2.5078,0 4.7461,-0.0898 6.8047,-0.26953 0.4492,0 0.6289,0.17968 0.6289,0.6289 0,9.75782 -2.1524,12.08594 -12.1797,12.08594 -4.207,0 -10.7422,-0.89453 -13.9649,-1.87891 -0.539,-0.17968 -0.9882,0.0859 -1.0781,0.53516 l -0.8945,4.47656 c -0.09,0.44922 0,0.89453 0.3594,0.98438 4.1172,1.43359 11.2812,2.32812 16.5625,2.32812 12.3593,0 19.6992,-3.04297 19.6992,-16.74218 z m -15.7578,37.15625 c -11.7305,0 -13.2539,-2.68359 -13.2539,-16.65234 0,-14.05469 2.6875,-16.5625 12.5351,-16.5625 3.0469,0 5.9102,0.35547 7.2539,0.80468 0.5391,0.17969 0.625,0.625 0.625,1.07422 v 29.72657 c 0,0.53515 -0.086,0.80468 -0.625,1.07421 -0.9843,0.44532 -3.0429,0.53516 -6.5351,0.53516 m 35.7226,-19.07031 c 0,-8.23828 2.1485,-14.32422 11.2813,-14.32422 7.789,0 10.207,3.75781 10.207,11.81641 0,2.95703 -0.2695,3.13671 -1.0742,3.13671 h -19.875 c -0.4492,0 -0.5391,-0.26953 -0.5391,-0.6289 m 27.5782,26.32422 c 0.4453,-0.17969 0.625,-0.53907 0.625,-0.89453 v -0.26954 l -0.3594,-4.74609 c -0.1758,-0.35937 -0.4453,-0.53516 -0.8946,-0.53516 -0.09,0 -0.2695,0.0859 -0.4453,0.0859 -2.7773,1.16406 -7.3437,2.32813 -11.5507,2.32813 -9.4922,0 -14.9532,-2.86328 -14.9532,-14.77344 0,-0.44531 0.09,-0.625 0.5391,-0.625 h 26.5898 c 1.5235,0 2.3282,-0.80469 2.3282,-4.38672 v -2.50781 c 0,-11.90625 -3.4024,-20.77344 -18.1758,-20.77344 -14.9531,0 -20.1446,10.65625 -20.1446,24.80469 0,13.69531 4.2071,24.89062 22.0235,24.89062 5.7305,0 10.5664,-0.89843 14.418,-2.59765 m 12.9804,-44.32032 v 45.125 c 0,0.53907 0.3594,0.89454 0.8946,0.89454 h 6.625 c 0.6289,0.0898 1.0742,-0.26563 1.0742,-0.89454 v -39.21484 c 0,-0.44922 0.09,-0.80469 0.6289,-1.07422 1.3398,-0.71875 4.3867,-0.89453 5.9961,-0.89453 2.957,0 5.3711,0.17578 7.6133,0.53516 0.4453,0.0898 0.625,-0.0899 0.625,-0.35938 l 0.4492,-5.73047 c 0,-0.44531 -0.09,-0.625 -0.5391,-0.71484 -1.9687,-0.35547 -5.4609,-0.44922 -8.2383,-0.44922 -5.1914,0 -10.2968,0.98828 -14.2343,1.88281 -0.5352,0.0899 -0.8946,0.35547 -0.8946,0.89453 m 39.6641,46.01954 c 0.5351,0 0.8945,-0.35547 0.8945,-0.89454 v -46.10937 c 0,-0.53516 -0.3594,-0.89453 -0.8945,-0.89453 h -6.8047 c -0.5391,0 -0.8984,0.35937 -0.8984,0.89453 v 46.10937 c 0,0.53907 0.3593,0.89454 0.8984,0.89454 z m 0.4453,-57.30079 c 0.5391,0 0.8945,-0.35937 0.8945,-0.89453 v -7.52343 c 0,-0.53516 -0.3554,-0.89454 -0.8945,-0.89454 h -7.6094 c -0.539,0 -0.8945,0.35938 -0.8945,0.89454 v 7.52343 c 0,0.53516 0.3555,0.89453 0.8945,0.89453 z m 40.3789,56.94532 c 0.2695,-0.0899 0.4492,-0.26953 0.3594,-0.71875 l -0.5352,-5.28125 c -0.09,-0.44922 -0.539,-0.35938 -0.8984,-0.26953 -1.7891,0.44921 -4.832,0.89453 -7.3399,0.89453 -8.4179,0 -11.0117,-4.65625 -11.0117,-17.81641 0,-13.96875 2.418,-18.80078 11.0117,-18.80078 2.8633,0 6,0.53516 7.6993,1.16406 0.3593,0.17969 0.539,-0.0898 0.539,-0.35937 l 0.3555,-5.3711 c 0,-0.44922 -0.09,-0.53906 -0.3555,-0.625 -1.7929,-0.71875 -4.9258,-1.25781 -9.1328,-1.25781 -14.1484,0 -19.0703,9.58203 -19.0703,25.16016 0,15.9375 4.9219,24.53515 19.0703,24.53515 3.4883,0 6.9805,-0.53906 9.3086,-1.2539 m 10.6563,-0.53907 c 0,0.53907 0.3554,0.89454 0.8945,0.89454 h 6.8047 c 0.5351,0 0.8945,-0.35547 0.8945,-0.89454 v -39.57421 c 0,-0.625 0.2695,-0.80469 0.8945,-0.98438 1.9727,-0.44922 5.0157,-0.71484 8.3282,-0.71484 8.5937,0 10.2968,2.32422 10.2968,10.74218 v 30.53125 c 0,0.53907 0.3555,0.89454 0.8946,0.89454 h 6.8047 c 0.5351,0 0.8945,-0.35547 0.8945,-0.89454 V 625.625 c 0,-13.07031 -4.4766,-16.38672 -16.7422,-16.38672 -2.8672,0 -7.6094,0.62891 -10.3867,0.98828 -0.7149,0 -0.9844,-0.17969 -0.9844,-0.71875 V 593.125 c 0,-0.53906 -0.3594,-0.89453 -0.8945,-0.89453 h -6.8047 c -0.5391,0 -0.8945,0.35547 -0.8945,0.89453 z m 67.9531,1.07422 c 0.4492,-0.0898 0.8047,-0.625 0.8047,-1.16406 l 0.1797,-3.75781 c 0,-0.71875 -0.4454,-0.89844 -0.8946,-0.89844 h -3.6719 c -2.8632,0 -3.9375,-1.07422 -3.9375,-3.75781 v -31.33985 c 0,-0.35546 0.1758,-0.53515 0.5352,-0.53515 h 8.418 c 0.5351,0 0.8945,-0.35938 0.8945,-0.89453 v -4.83594 c 0,-0.53516 -0.3594,-0.89453 -0.8945,-0.89453 h -8.418 c -0.3594,0 -0.5352,-0.17969 -0.5352,-0.53906 v -11.19141 c 0,-0.53516 -0.3593,-0.89453 -0.8945,-0.89453 h -6.8086 c -0.5351,0 -0.8945,0.35937 -0.8945,0.89453 v 11.19141 c 0,0.35937 -0.1758,0.53906 -0.5352,0.53906 h -7.164 c -0.5352,0 -0.8946,0.35937 -0.8946,0.89453 v 4.83594 c 0,0.53515 0.3594,0.89453 0.8946,0.89453 h 7.164 c 0.3594,0 0.5352,0.17969 0.5352,0.53515 v 32.41407 c 0,5.73047 3.1367,9.22265 9.8516,9.22265 2.1484,0 4.3867,-0.35937 6.2656,-0.71875" style="fill:#000000;fill-opacity:1;fill-rule:nonzero;stroke:none"/>
    <path id="path63" d="m 520.99609,456.3125 c 1.52344,-0.87891 3.47266,-0.35938 4.35157,1.16406 l 13.04296,22.58985 c 2.63672,4.57031 8.48047,6.13671 13.05079,3.49609 l -28.69532,-49.69922 c -5.92578,-10.26562 -18.91797,-13.87891 -29.27734,-8.28125 -1.51172,0.79297 -0.95703,2.79688 0.67578,2.88672 8.41016,1.47656 13.33984,7.44922 13.33984,14.59375 0,8.25391 -8.92187,14.94141 -19.84375,14.94141 -10.92187,0 -18.76562,-6.6875 -18.76562,-14.94141 v -36.30469 c 0,-0.5039 -0.40625,-0.91015 -0.91016,-0.91015 h -19.77343 c -9.46094,0 -17.13282,7.66796 -17.13282,17.13281 0,0.58594 0.0391,1.16015 0.0977,1.73047 0.004,0.0156 0.004,0.11718 0.082,0.16015 0.0742,0.0391 0.16406,0.0156 0.18359,0.008 1.73047,-0.48829 3.61719,-0.77344 5.36719,-0.77344 5.10156,0 6.56641,2.11719 6.56641,5.0664 v 13.89063 c 0,8.25391 -8.625,14.94141 -19.55078,14.94141 -10.92188,0 -19.77735,-6.6875 -19.77735,-14.94141 0,-7.1875 4.89063,-13.23828 13.4961,-14.61719 1.75781,-0.28125 1.70703,-2.19922 0.3164,-2.9375 -10.35547,-5.51562 -23.24218,-1.86328 -29.14453,8.35547 L 360,483.5625 c 4.57031,2.64062 10.41406,1.07422 13.05469,-3.49609 l 13.04297,-22.58985 c 0.8789,-1.52344 2.82421,-2.04297 4.34765,-1.16406 1.52344,0.87891 2.04688,2.82812 1.16797,4.35156 l -30.10547,52.14453 c 4.57031,2.63672 10.41406,1.07422 13.05469,-3.5 l 22.14062,-38.34765 c 0.87891,-1.52735 2.82813,-2.04688 4.35157,-1.16797 1.52343,0.8789 2.04687,2.82812 1.16797,4.35156 l -33.41016,57.86328 -1.58984,2.75781 c 4.57031,2.63672 10.41406,1.07422 13.05078,-3.5 l 29.03906,-50.29296 c 0.88281,-1.52344 2.82812,-2.04688 4.35156,-1.16797 1.52735,0.8789 2.04688,2.82812 1.16797,4.35156 l -39.07422,67.67578 c 4.57031,2.64063 10.41797,1.07422 13.05469,-3.49609 l 34.51172,-59.77735 c 0.88281,-1.52734 2.82812,-2.04687 4.35156,-1.16797 1.52344,0.87891 2.04688,2.82813 1.16797,4.35157 l -39.76953,68.8789 -1.82031,3.15625 c 4.57031,2.63672 10.41406,1.07422 13.05468,-3.5 l 34.64063,-59.99609 c 0.63672,2.33984 0.99609,4.80078 0.99609,7.34766 v 2.80078 c 0,4.10937 -0.89062,8.01172 -2.48437,11.52734 l -17.85547,30.92578 c 1.35156,0.77735 2.8125,1.17969 4.26953,1.25391 l -7.40234,12.80859 h -11.04297 c -1.82032,0 -3.30078,1.48047 -3.30078,3.30078 v 4.58985 c 0,0.49218 0.33593,0.91406 0.8125,1.03125 0.48046,0.11328 0.96484,-0.11328 1.1875,-0.55078 0.64062,-1.26563 1.92578,-1.80469 4.30078,-1.80469 h 3.40234 l -4.74219,7.13281 c -0.50781,0.72266 -0.70312,1.59766 -0.55078,2.46875 0.15625,0.86719 0.63672,1.62109 1.35938,2.12891 l 3.75781,2.6289 c 0.40234,0.28516 0.94141,0.25391 1.30859,-0.0703 0.36719,-0.32812 0.46094,-0.85547 0.23047,-1.28906 -0.66797,-1.25 -0.36719,-2.61328 0.9961,-4.5625 l 3.73828,-5.67578 v 9.5625 c 0,1.82031 1.48437,3.30078 3.30468,3.30078 h 4.58594 c 0.49219,0 0.91406,-0.33594 1.03125,-0.8125 0.11328,-0.47656 -0.11328,-0.96485 -0.55078,-1.1875 -1.26562,-0.64063 -1.80469,-1.92578 -1.80469,-4.30078 v -9.32422 h 3.80469 c 2.375,0 3.66016,0.53906 4.30078,1.80469 0.22266,0.4375 0.71094,0.66796 1.1875,0.55078 0.48047,-0.11719 0.8125,-0.53907 0.8125,-1.03125 v -4.58985 c 0,-1.82031 -1.48047,-3.30078 -3.30078,-3.30078 h -5.77734 l 5.125,-8.87109 c 0.78906,1.19922 1.84375,2.24609 3.17187,3.01172 L 441.625,540.64062 v 33.58594 c 0,4.20313 -2.94531,7.71875 -6.88281,8.60547 1.04687,2.02344 3.16015,3.40625 5.59375,3.40625 h 0.54297 c 2.60156,0 4.83593,-1.57812 5.79687,-3.82812 1.39063,5.46093 4.64063,10.17578 9.03516,13.44531 4.39453,-3.26953 7.64843,-7.98438 9.03906,-13.44531 0.96094,2.25 3.19141,3.82812 5.79687,3.82812 h 0.53907 c 2.4375,0 4.54687,-1.38281 5.59765,-3.40625 -3.9414,-0.89062 -6.88281,-4.40234 -6.88281,-8.60547 v -33.61719 l 11.82031,20.47657 c 1.33985,-0.77344 2.40625,-1.82813 3.19532,-3.03907 l 5.14062,8.89844 h -5.77734 c -1.82032,0 -3.30078,1.48047 -3.30078,3.30078 v 4.58985 c 0,0.49218 0.33593,0.91406 0.8125,1.03125 0.47656,0.11718 0.96484,-0.11328 1.1875,-0.55078 0.64062,-1.26563 1.92578,-1.80469 4.30468,-1.80469 h 3.80078 v 9.32422 c 0,2.375 -0.53906,3.66015 -1.80468,4.30078 -0.4375,0.22265 -0.66407,0.71094 -0.55078,1.1875 0.11718,0.47656 0.53906,0.8125 1.03125,0.8125 h 4.58593 c 1.82422,0 3.30469,-1.48047 3.30469,-3.30078 v -9.5625 l 3.73828,5.67578 c 1.36328,1.94922 1.66406,3.3125 0.9961,4.5625 -0.23047,0.43359 -0.13672,0.96094 0.23046,1.28906 0.36719,0.32422 0.90625,0.35547 1.3086,0.0703 l 3.75781,-2.6289 c 0.72266,-0.50782 1.20313,-1.26172 1.35938,-2.12891 0.15234,-0.87109 -0.043,-1.74609 -0.54688,-2.46875 l -4.74609,-7.13281 h 3.40234 c 2.375,0 3.66016,0.53906 4.30078,1.80469 0.22266,0.4375 0.70703,0.66406 1.1875,0.55078 0.48047,-0.11719 0.8125,-0.53907 0.8125,-1.03125 v -4.58985 c 0,-1.82031 -1.48047,-3.30078 -3.30078,-3.30078 h -11.04297 l -7.40234,-12.8125 c 1.44531,-0.0781 2.89062,-0.48047 4.23047,-1.25 l -17.78125,-30.80078 c -1.62891,-3.54687 -2.54297,-7.49219 -2.54297,-11.65234 v -2.80078 c 0,-2.54297 0.35156,-5 0.98828,-7.33985 l 34.63281,59.98828 c 2.64063,4.57422 8.48438,6.13672 13.05469,3.5 l -41.57422,-72.03515 c -0.87891,-1.52344 -0.35937,-3.47266 1.16406,-4.35157 1.52735,-0.8789 3.47266,-0.35937 4.35157,1.16797 L 522.75,548.51953 c 2.69141,4.42188 8.42969,5.91406 12.93359,3.3125 l -39.07031,-67.67578 c -0.87891,-1.52344 -0.35937,-3.47266 1.16406,-4.35156 1.52344,-0.87891 3.47266,-0.35547 4.35157,1.16797 l 29.03906,50.29687 c 2.64062,4.57031 8.48437,6.13281 13.05469,3.49609 l -35,-60.62109 c -0.87891,-1.52344 -0.35938,-3.47266 1.16406,-4.35156 1.52344,-0.87891 3.47265,-0.35938 4.35156,1.16797 l 22.14453,38.34765 c 2.63672,4.57422 8.48438,6.13672 13.05469,3.5 l -30.10938,-52.14453 c -0.8789,-1.52344 -0.35546,-3.47265 1.16797,-4.35156 M 418.78516,567.5 c -0.17579,0.3125 -0.17579,0.69922 0,1.00781 0.18359,0.3086 0.51562,0.50391 0.875,0.50391 h 7.60937 c 0.67969,0 1.23438,0.55469 1.23438,1.23437 v 2.10938 l -0.0742,-0.043 c -1.39063,-0.77734 -3.03907,-0.86719 -4.16016,-0.86719 h -4.85937 c -0.55469,0 -1.00782,0.45313 -1.00782,1.00781 v 10.38282 c 0,1.12109 0.0899,2.77343 0.86328,4.16015 l 0.0391,0.0742 h -2.10547 c -0.67969,0 -1.23438,-0.55469 -1.23438,-1.23437 v -12.95313 c 0,-0.44531 -0.28125,-0.83203 -0.70312,-0.96094 -0.0937,-0.0312 -0.19531,-0.0469 -0.29688,-0.0469 -0.33203,0 -0.64453,0.16016 -0.83593,0.43359 l -5.66407,8.46094 c -0.64453,0.91797 -1.51953,2.32422 -1.67968,3.90625 l -0.008,0.082 -1.72656,-1.20703 c -0.26953,-0.19141 -0.44922,-0.47266 -0.50781,-0.79687 -0.0586,-0.32813 0.0156,-0.65235 0.20703,-0.92969 l 5.89453,-8.79297 c 0.21875,-0.30469 0.24609,-0.70703 0.0703,-1.03906 -0.17578,-0.33594 -0.51562,-0.54688 -0.89453,-0.54688 h -5.42187 c -1.1211,0 -2.76953,0.0899 -4.16407,0.86719 l -0.0742,0.043 v -2.10938 c 0,-0.67968 0.55859,-1.23437 1.23828,-1.23437 h 11.65234 c 0.35938,0 0.69531,-0.19531 0.875,-0.50391 l 7.89844,-13.67578 c 0.39844,0.44922 0.8125,0.79688 1.26172,1.05859 l 0.39062,0.22266 c 0.46875,0.26953 0.98828,0.46484 1.55078,0.58594 z m 29.8164,-146.73047 h -0.66406 c -3.26953,0 -7.74219,0 -12.97266,-0.18359 -0.0937,-0.004 -0.17578,-0.043 -0.23437,-0.10938 -0.0625,-0.0664 -0.0899,-0.15234 -0.0859,-0.24219 l 0.0234,-0.46484 c 0.375,-3.56641 3.11328,-7.67578 5.53125,-8.30469 0.0976,-0.0234 0.20703,-0.004 0.28906,0.0625 0.082,0.0664 0.12891,0.16407 0.125,0.26953 -0.15625,4.40235 2.70313,7.35547 8.04297,8.31641 0.17187,0.0273 0.28906,0.18359 0.27344,0.35547 -0.0156,0.17187 -0.15625,0.30078 -0.32813,0.30078 m 9.41016,-8.36719 c -0.17969,1.02735 -1.07422,1.80078 -2.07813,1.80078 -0.0351,0 -0.0469,-0.004 -0.0625,-0.004 0.008,0 -0.0195,0.004 -0.0391,0 -1.01562,-0.004 -1.90234,-0.77735 -2.08203,-1.79688 -0.004,-0.0156 -0.004,-0.0312 0,-0.043 0.18359,-1.02734 1.07422,-1.80078 2.07812,-1.80078 0.0352,0 0.0469,0 0.0625,0.004 -0.008,-0.004 0.0195,-0.004 0.0391,-0.004 1.01562,0.008 1.90234,0.77735 2.08203,1.80078 0.004,0.0117 0.004,0.0274 0,0.043 m 29.95703,143.71094 0.38672,-0.22266 c 0.46094,-0.26953 0.88281,-0.625 1.28515,-1.08203 l 7.91797,13.69922 c 0.17578,0.3086 0.51172,0.50391 0.8711,0.50391 h 11.65234 c 0.68359,0 1.23828,0.55469 1.23828,1.23437 v 2.10547 l -0.0742,-0.0391 c -1.39062,-0.77734 -3.04297,-0.86719 -4.16406,-0.86719 h -5.42187 c -0.37891,0 -0.71875,0.21094 -0.89454,0.54688 -0.17187,0.33203 -0.14843,0.73437 0.0664,1.03515 l 5.90234,8.80078 c 0.1875,0.27344 0.26172,0.60157 0.20313,0.92579 -0.0586,0.32421 -0.23828,0.60546 -0.50781,0.79687 l -1.72657,1.20703 -0.008,-0.082 c -0.16015,-1.58203 -1.03515,-2.98828 -1.67578,-3.90234 l -5.67187,-8.47266 c -0.2461,-0.35156 -0.75,-0.50391 -1.12891,-0.37891 -0.41797,0.12891 -0.70313,0.51563 -0.70313,0.96094 v 12.95313 c 0,0.67968 -0.55468,1.23437 -1.23437,1.23437 h -2.10547 l 0.0391,-0.0742 c 0.77344,-1.38672 0.86328,-3.03906 0.86328,-4.16015 v -10.38282 c 0,-0.55468 -0.44921,-1.00781 -1.00781,-1.00781 h -4.85547 c -1.12109,0 -2.77343,0.0899 -4.16406,0.86719 l -0.0742,0.0391 v -2.10547 c 0,-0.67968 0.55469,-1.23437 1.23438,-1.23437 h 7.60937 c 0.35938,0 0.69531,-0.19531 0.875,-0.50391 0.17969,-0.30859 0.17969,-0.69531 0,-1.00781 l -6.24609,-10.80859 c 0.54687,-0.11719 1.05859,-0.3125 1.51953,-0.57813" style="fill:#000000;fill-opacity:1;fill-rule:nonzero;stroke:none"/>
  </g>
</svg>