<?xml version="1.0" encoding="utf-8"?>
<!DOCTYPE svg PUBLIC "-//W3C//DTD SVG 1.1//EN" "http://www.w3.org/Graphics/SVG/1.1/DTD/svg11.dtd">
<svg version="1.1" id="VARG" xmlns="http://www.w3.org/2000/svg" xmlns:xlink="http://www.w3.org/1999/xlink" x="0px" y="0px"
 width="172.3px" height="58.833px" viewBox="0 0 172.3 58.833" enable-background="new 0 0 172.3 58.833" xml:space="preserve">
<g>
<path fill="#022899" d="M51.947,25.286c0.431,0.659,0.401,1.519,0.489,2.294c-0.03,1.636,0.114,3.587-0.174,5.252
c-0.144,0.688-0.603,1.407-1.32,1.664c-1.148,0.518-2.698,0.374-3.759-0.229c-0.891-0.631-1.004-1.695-1.12-2.698
c-0.086-1.98-0.23-4.076,0.315-5.884c0.43-1.119,1.608-1.406,2.669-1.491C50.167,24.195,51.258,24.367,51.947,25.286"/>
<path fill="#022899" d="M36.878,50.397c0.087,0.172-0.142,0.116-0.2,0.172c-3.043,0.661-6.428,0.691-9.472-0.056
c-0.056-0.145,0.144-0.173,0.231-0.26C30.106,48.503,34.269,48.503,36.878,50.397 M26.604,49.736
c-0.143,0.174-0.373,0.345-0.573,0.459c-2.411-0.632-4.651-1.722-6.717-3.215v-0.083c0.69-0.433,1.377-0.891,2.125-1.207
C23.073,47.326,24.767,48.559,26.604,49.736z M44.8,46.897c-1.608,1.29-3.473,2.151-5.366,2.869l-1.35,0.429
c-0.229-0.114-0.43-0.285-0.631-0.459l0.057-0.086c1.836-1.091,3.5-2.409,5.081-3.989C43.364,45.978,44.111,46.408,44.8,46.897z
 M41.729,45.26c-0.918,1.061-2.095,1.98-3.186,2.755c-0.66,0.401-1.32,0.832-2.01,1.175L35.3,48.647l0.085-0.204
c1.035-1.403,1.952-2.84,2.756-4.359l0.086-0.059C39.462,44.313,40.639,44.714,41.729,45.26z M25.944,44.055
c0.832,1.577,1.865,3.069,2.899,4.563c-0.403,0.229-0.89,0.372-1.291,0.602c-1.896-0.948-3.703-2.268-5.225-3.846v-0.087
c1.12-0.545,2.297-0.947,3.502-1.263L25.944,44.055z M37.281,43.796l0.028,0.086c-0.803,1.549-1.808,3.043-2.898,4.448
c-0.489,0.057-0.948-0.144-1.435-0.171l-0.489-0.06c-0.057-1.692-0.086-3.185,0-4.878C34.123,43.252,35.76,43.423,37.281,43.796z
 M31.628,48.071c-0.604,0.145-1.263,0.145-1.837,0.289c-1.177-1.407-2.153-2.929-2.985-4.507l0.142-0.116
c1.492-0.287,3.042-0.515,4.65-0.515L31.628,48.071z M25.6,41.472c-0.287,0-0.603-0.059-0.803,0.028l0.717,1.692l-0.086,0.085
c-1.292,0.375-2.554,0.835-3.789,1.351l-0.116-0.059c-0.803-0.889-1.578-1.864-2.209-2.84c-0.144-0.487-0.717-0.202-1.035-0.258
c0.69,1.263,1.609,2.381,2.528,3.528c-0.776,0.459-1.55,0.978-2.354,1.35c-1.721-1.321-3.331-3.042-4.534-4.85
c-0.347-0.058-0.576-0.028-0.919,0c2.066,3.271,5.278,6.141,8.638,7.834l0.028-0.027l0.03,0.086c2.267,1.12,4.678,1.922,7.23,2.267
c8.812,1.177,17.222-2.64,22.1-10.159c-0.258-0.028-0.631-0.028-0.918,0c-1.205,1.752-2.727,3.442-4.392,4.766l-0.287-0.03
c-0.717-0.459-1.492-0.833-2.181-1.293c0.919-1.118,1.809-2.237,2.498-3.471h-0.89c-0.718,1.062-1.464,2.181-2.411,3.128
c-1.263-0.517-2.411-0.976-3.702-1.322L38.6,43.166c0.203-0.575,0.575-1.12,0.689-1.693h-0.774l-0.776,1.549
c-1.692-0.375-3.558-0.574-5.28-0.688c-0.087-0.258,0.029-0.632-0.087-0.86h-0.744c-0.06,0.343,0.084,0.603-0.087,0.89
c-1.78,0.085-3.501,0.284-5.166,0.632L25.6,41.472z M7.404,19.43l-1.779,0.027c-0.029,1.523-0.029,3.301,0,4.851
c0.975,0.03,1.894,0,2.842,0.088v9.757l-0.029,0.402l-2.842,0.057c-0.058,1.607-0.058,3.158,0,4.735h12.658v-4.735
c-0.949-0.057-2.01,0.027-2.929-0.086l0.03-10.074l0.056-0.085l2.842-0.029c0.026-1.636,0.056-3.386-0.03-4.881L7.404,19.43z
 M56.166,21.152c-3.729-2.412-9.414-2.583-13.259-0.401c-2.095,1.091-3.472,3.243-3.903,5.451
c-0.775,3.647-0.575,7.979,2.181,10.706c3.214,2.87,7.893,3.501,12.055,2.325c0.196-0.041,0.825-0.202,1.254-0.436l0.122-0.053
c1.291-0.545,2.527-1.435,3.444-2.64c2.125-3.158,2.267-7.894,0.977-11.45C58.518,23.277,57.456,22.042,56.166,21.152z
 M31.828,20.233c-3.157-1.348-7.576-1.493-10.448,0.603c-1.865,1.378-2.439,3.845-1.95,6.027c0.372,2.066,2.324,3.59,4.19,4.305
c2.555,0.918,5.223,1.578,7.807,2.47c0.258,0.113,0.602,0.371,0.545,0.687c0,0.259-0.259,0.404-0.459,0.519
c-2.697,0.744-5.625,0.172-7.578-1.896c-0.23-0.287-0.374-0.632-0.602-0.918l-3.875,0.029c-0.058,2.325-0.087,4.993,0,7.289
l4.304-0.029l0.058-1.378c0.489,0.23,0.977,0.52,1.464,0.777c2.984,1.263,6.83,1.549,9.788,0c2.151-1.206,3.299-3.531,2.984-6.028
c-0.317-2.439-2.612-4.65-4.938-5.251l-6.943-2.039l-0.519-0.258c-0.229-0.202-0.372-0.459-0.314-0.774
c0.545-0.948,1.808-0.661,2.755-0.631c2.009,0.285,4.075,0.975,5.253,2.84c1.262,0,2.725,0.028,4.103-0.028
c0.057-2.354-0.028-4.422-0.058-6.803c-1.292-0.029-2.871-0.029-4.161,0.029c-0.06,0.343,0.056,0.833-0.086,1.178L31.828,20.233z
 M34.153,10.475c1.119,1.435,2.209,2.899,2.955,4.477c-1.548,0.374-3.126,0.575-4.736,0.575c-0.057-1.521-0.028-3.216,0-4.793
C32.947,10.647,33.578,10.562,34.153,10.475z M31.456,10.705c0.085,1.492,0.027,3.214,0.027,4.792
c-0.803,0.115-1.521-0.029-2.323-0.086c-0.775-0.114-1.752-0.201-2.525-0.459c0.832-1.577,1.806-3.098,2.984-4.505L31.456,10.705z
 M28.671,10.16l-0.086,0.23c-1.091,1.376-1.95,2.869-2.813,4.332l-0.116,0.028c-1.175-0.315-2.324-0.689-3.414-1.175l0.057-0.172
c1.58-1.523,3.245-2.786,5.08-3.76C27.809,9.815,28.24,9.959,28.671,10.16z M41.585,13.431l-0.057,0.087
c-1.119,0.488-2.268,0.948-3.501,1.205c-0.89-1.521-1.864-3.042-2.955-4.505c0.4-0.23,0.888-0.402,1.319-0.631
C38.256,10.533,40.065,11.88,41.585,13.431z M26.518,9.097c-1.778,1.12-3.529,2.439-5.138,4.047
c-0.773-0.288-1.491-0.718-2.182-1.206V11.88c1.81-1.348,3.818-2.353,5.942-3.041L25.4,8.667v0.058
c0.229,0.057,0.402-0.201,0.603-0.029C26.175,8.84,26.375,8.954,26.518,9.097z M44.6,11.824l-0.058,0.115l-1.981,1.119h-0.142
c-1.522-1.55-3.302-2.897-5.109-3.96c0.058-0.201,0.345-0.344,0.545-0.487C40.266,9.241,42.532,10.333,44.6,11.824z M36.706,8.323
V8.38c-2.497,1.836-6.542,2.01-9.183,0.315c-0.145-0.114-0.43-0.172-0.459-0.373C30.106,7.605,33.694,7.547,36.706,8.323z
 M33.75,7.032c-0.773-0.087-1.722-0.116-2.553-0.03c-0.315-0.028-0.688,0-1.063,0.03c-6.889,0.544-13.229,4.132-17.192,10.246
c0.288-0.03,0.631,0.085,0.919-0.03c0.69-0.976,1.463-1.922,2.325-2.841c0.747-0.718,1.435-1.407,2.239-1.922
c0.745,0.488,1.58,0.89,2.295,1.349c-0.891,1.118-1.807,2.238-2.467,3.444c0.201,0.085,0.573,0.056,0.861,0
c0.715-1.062,1.492-2.125,2.409-3.071c1.235,0.459,2.44,0.946,3.704,1.291l0.115,0.115l-0.717,1.666
c0.315,0.056,0.516,0.026,0.831,0c0.26-0.489,0.459-1.035,0.747-1.521c1.665,0.373,3.416,0.574,5.194,0.631
c0.231,0.201,0.059,0.631,0.144,0.89h0.774c0.086-0.289-0.028-0.604,0.086-0.861c1.665-0.086,3.415-0.259,5.024-0.66l0.142,0.027
l0.776,1.494c0.257,0,0.602,0.056,0.804-0.058l-0.719-1.665l0.058-0.058c1.32-0.345,2.554-0.861,3.816-1.378
c0.89,0.948,1.722,2.067,2.469,3.159c0.314,0,0.631,0.026,0.862-0.058c-0.344-0.631-0.775-1.263-1.235-1.809
c-0.374-0.545-0.775-1.033-1.264-1.55v-0.143l2.009-1.176l0.287-0.115c1.751,1.35,3.302,2.984,4.534,4.793
c0.344,0,0.633,0.114,0.92-0.029c-3.846-5.854-10.188-9.615-17.048-10.159l-0.028,0.058L33.75,7.032z M64,58.833H0V0h64V58.833z"/>
</g>
<line fill="none" stroke="#022899" x1="71.805" y1="7.167" x2="71.805" y2="55.167"/>
<g>
<path fill="#022899" d="M78.788,10.797h1.14v8.563h-1.14V10.797z"/>
<path fill="#022899" d="M81.68,13.161h0.96v0.983h0.024c0.432-0.768,1.127-1.128,2.015-1.128c1.631,0,2.135,0.936,2.135,2.267
v4.078h-1.02v-4.197c0-0.756-0.479-1.248-1.259-1.248c-1.236,0-1.836,0.828-1.836,1.943v3.502h-1.02V13.161z"/>
<path fill="#022899" d="M89.768,13.161h1.234v0.899h-1.234v3.85c0,0.468,0.132,0.552,0.768,0.552h0.467v0.899h-0.779
c-1.055,0-1.475-0.216-1.475-1.355V14.06h-1.056v-0.899h1.056v-1.859h1.02V13.161z"/>
<path fill="#022899" d="M97.421,17.394c-0.276,1.367-1.259,2.11-2.65,2.11c-1.979,0-2.915-1.367-2.975-3.262
c0-1.859,1.224-3.227,2.915-3.227c2.194,0,2.865,2.051,2.807,3.55h-4.643c-0.035,1.08,0.576,2.039,1.932,2.039
c0.84,0,1.427-0.407,1.607-1.211H97.421z M96.438,15.667c-0.048-0.971-0.779-1.751-1.787-1.751c-1.067,0-1.703,0.804-1.775,1.751
H96.438z"/>
<path fill="#022899" d="M98.539,13.161h0.96v1.307h0.024c0.491-0.995,1.175-1.487,2.278-1.451v1.08
c-1.643,0-2.242,0.935-2.242,2.506v2.759h-1.021V13.161z"/>
<path fill="#022899" d="M102.787,13.161h0.959v0.983h0.024c0.432-0.768,1.128-1.128,2.015-1.128c1.632,0,2.135,0.936,2.135,2.267
v4.078h-1.02v-4.197c0-0.756-0.479-1.248-1.259-1.248c-1.235,0-1.835,0.828-1.835,1.943v3.502h-1.02V13.161z"/>
<path fill="#022899" d="M114.952,19.336c-0.18,0.108-0.408,0.168-0.731,0.168c-0.528,0-0.864-0.287-0.864-0.959
c-0.563,0.659-1.319,0.959-2.183,0.959c-1.127,0-2.051-0.503-2.051-1.738c0-1.403,1.044-1.703,2.099-1.907
c1.128-0.216,2.087-0.145,2.087-0.912c0-0.887-0.731-1.031-1.379-1.031c-0.863,0-1.499,0.264-1.547,1.176h-1.02
c0.06-1.535,1.247-2.075,2.626-2.075c1.116,0,2.327,0.252,2.327,1.703v3.19c0,0.479,0,0.695,0.324,0.695
c0.083,0,0.18-0.012,0.312-0.06V19.336z M113.297,16.159c-0.396,0.288-1.163,0.3-1.847,0.42c-0.672,0.12-1.248,0.359-1.248,1.115
c0,0.672,0.576,0.911,1.2,0.911c1.343,0,1.895-0.839,1.895-1.403V16.159z"/>
<path fill="#022899" d="M117.318,13.161h1.235v0.899h-1.235v3.85c0,0.468,0.132,0.552,0.768,0.552h0.468v0.899h-0.779
c-1.056,0-1.476-0.216-1.476-1.355V14.06h-1.055v-0.899h1.055v-1.859h1.02V13.161z"/>
<path fill="#022899" d="M120.763,12.044h-1.02v-1.247h1.02V12.044z M119.743,13.161h1.02v6.2h-1.02V13.161z"/>
<path fill="#022899" d="M125.022,13.016c1.967,0,3.01,1.428,3.01,3.25c0,1.812-1.043,3.238-3.01,3.238s-3.011-1.427-3.011-3.238
C122.012,14.444,123.056,13.016,125.022,13.016z M125.022,18.605c1.067,0,1.931-0.839,1.931-2.339c0-1.511-0.863-2.351-1.931-2.351
s-1.932,0.84-1.932,2.351C123.091,17.766,123.955,18.605,125.022,18.605z"/>
<path fill="#022899" d="M129.235,13.161h0.96v0.983h0.023c0.432-0.768,1.127-1.128,2.015-1.128c1.632,0,2.135,0.936,2.135,2.267
v4.078h-1.02v-4.197c0-0.756-0.479-1.248-1.259-1.248c-1.235,0-1.835,0.828-1.835,1.943v3.502h-1.02V13.161z"/>
<path fill="#022899" d="M141.4,19.336c-0.18,0.108-0.408,0.168-0.731,0.168c-0.528,0-0.864-0.287-0.864-0.959
c-0.563,0.659-1.319,0.959-2.183,0.959c-1.127,0-2.051-0.503-2.051-1.738c0-1.403,1.044-1.703,2.099-1.907
c1.128-0.216,2.087-0.145,2.087-0.912c0-0.887-0.731-1.031-1.379-1.031c-0.863,0-1.499,0.264-1.547,1.176h-1.02
c0.06-1.535,1.247-2.075,2.626-2.075c1.115,0,2.327,0.252,2.327,1.703v3.19c0,0.479,0,0.695,0.323,0.695
c0.084,0,0.181-0.012,0.313-0.06V19.336z M139.745,16.159c-0.396,0.288-1.163,0.3-1.847,0.42c-0.672,0.12-1.248,0.359-1.248,1.115
c0,0.672,0.576,0.911,1.2,0.911c1.343,0,1.895-0.839,1.895-1.403V16.159z"/>
<path fill="#022899" d="M142.41,10.797h1.02v8.563h-1.02V10.797z"/>
<path fill="#022899" d="M82.362,26.593c2.722,0,4.102,2.159,4.102,4.486c0,2.326-1.38,4.485-4.102,4.485
c-2.723,0-4.102-2.159-4.102-4.485C78.26,28.752,79.64,26.593,82.362,26.593z M82.362,34.605c2.087,0,2.962-1.799,2.962-3.525
c0-1.728-0.875-3.526-2.962-3.526S79.4,29.352,79.4,31.08C79.4,32.806,80.275,34.605,82.362,34.605z"/>
<path fill="#022899" d="M87.656,29.161h0.959v1.307h0.024c0.492-0.995,1.176-1.487,2.278-1.451v1.08
c-1.643,0-2.242,0.935-2.242,2.506v2.759h-1.02V29.161z"/>
<path fill="#022899" d="M96.701,34.833c0,2.015-0.923,3.046-2.878,3.046c-1.163,0-2.507-0.468-2.566-1.823h1.019
c0.049,0.744,0.936,1.008,1.607,1.008c1.332,0,1.859-0.96,1.859-2.351v-0.408h-0.023c-0.336,0.756-1.152,1.128-1.932,1.128
c-1.847,0-2.771-1.451-2.771-3.143c0-1.463,0.72-3.274,2.866-3.274c0.779,0,1.476,0.348,1.848,1.031h0.012v-0.887h0.959V34.833z
 M95.694,32.134c0-1.091-0.479-2.219-1.763-2.219c-1.308,0-1.836,1.067-1.836,2.255c0,1.115,0.408,2.363,1.752,2.363
C95.19,34.534,95.694,33.298,95.694,32.134z"/>
<path fill="#022899" d="M103.733,35.336c-0.18,0.108-0.408,0.168-0.731,0.168c-0.528,0-0.864-0.287-0.864-0.959
c-0.563,0.659-1.319,0.959-2.183,0.959c-1.127,0-2.051-0.503-2.051-1.738c0-1.403,1.044-1.703,2.099-1.907
c1.128-0.216,2.087-0.145,2.087-0.912c0-0.887-0.731-1.031-1.379-1.031c-0.863,0-1.499,0.264-1.547,1.176h-1.02
c0.06-1.535,1.247-2.075,2.626-2.075c1.116,0,2.327,0.252,2.327,1.703v3.19c0,0.479,0,0.695,0.324,0.695
c0.083,0,0.18-0.012,0.312-0.06V35.336z M102.078,32.159c-0.396,0.288-1.163,0.3-1.847,0.42c-0.672,0.12-1.248,0.359-1.248,1.115
c0,0.672,0.576,0.911,1.2,0.911c1.343,0,1.895-0.839,1.895-1.403V32.159z"/>
<path fill="#022899" d="M104.684,29.161h0.959v0.983h0.024c0.432-0.768,1.128-1.128,2.015-1.128c1.632,0,2.135,0.936,2.135,2.267
v4.078h-1.02v-4.197c0-0.756-0.479-1.248-1.259-1.248c-1.235,0-1.835,0.828-1.835,1.943v3.502h-1.02V29.161z"/>
<path fill="#022899" d="M112.435,28.044h-1.02v-1.247h1.02V28.044z M111.415,29.161h1.02v6.2h-1.02V29.161z"/>
<path fill="#022899" d="M113.516,34.582l3.742-4.521h-3.502v-0.899h4.821v0.695l-3.79,4.605h3.958v0.899h-5.229V34.582z"/>
<path fill="#022899" d="M125.272,35.336c-0.18,0.108-0.408,0.168-0.731,0.168c-0.528,0-0.864-0.287-0.864-0.959
c-0.563,0.659-1.319,0.959-2.183,0.959c-1.127,0-2.051-0.503-2.051-1.738c0-1.403,1.044-1.703,2.099-1.907
c1.128-0.216,2.087-0.145,2.087-0.912c0-0.887-0.731-1.031-1.379-1.031c-0.863,0-1.499,0.264-1.547,1.176h-1.02
c0.06-1.535,1.247-2.075,2.626-2.075c1.116,0,2.327,0.252,2.327,1.703v3.19c0,0.479,0,0.695,0.324,0.695
c0.083,0,0.18-0.012,0.312-0.06V35.336z M123.617,32.159c-0.396,0.288-1.163,0.3-1.847,0.42c-0.672,0.12-1.248,0.359-1.248,1.115
c0,0.672,0.576,0.911,1.2,0.911c1.343,0,1.895-0.839,1.895-1.403V32.159z"/>
<path fill="#022899" d="M127.638,29.161h1.235v0.899h-1.235v3.85c0,0.468,0.132,0.552,0.768,0.552h0.468v0.899h-0.779
c-1.056,0-1.476-0.216-1.476-1.355V30.06h-1.055v-0.899h1.055v-1.859h1.02V29.161z"/>
<path fill="#022899" d="M131.082,28.044h-1.02v-1.247h1.02V28.044z M130.063,29.161h1.02v6.2h-1.02V29.161z"/>
<path fill="#022899" d="M135.342,29.016c1.967,0,3.01,1.428,3.01,3.25c0,1.812-1.043,3.238-3.01,3.238s-3.011-1.427-3.011-3.238
C132.331,30.444,133.375,29.016,135.342,29.016z M135.342,34.605c1.067,0,1.931-0.839,1.931-2.339c0-1.511-0.863-2.351-1.931-2.351
s-1.932,0.84-1.932,2.351C133.41,33.766,134.274,34.605,135.342,34.605z"/>
<path fill="#022899" d="M139.555,29.161h0.959v0.983h0.024c0.432-0.768,1.128-1.128,2.015-1.128c1.632,0,2.135,0.936,2.135,2.267
v4.078h-1.02v-4.197c0-0.756-0.479-1.248-1.259-1.248c-1.235,0-1.835,0.828-1.835,1.943v3.502h-1.02V29.161z"/>
<path fill="#022899" d="M149.982,30.06h-1.044v-0.899h1.044v-0.924c0-1.008,0.6-1.535,1.715-1.535c0.192,0,0.468,0.036,0.66,0.096
v0.888c-0.181-0.06-0.396-0.084-0.576-0.084c-0.492,0-0.779,0.156-0.779,0.695v0.864h1.199v0.899h-1.199v5.301h-1.02V30.06z"/>
<path fill="#022899" d="M155.789,29.016c1.967,0,3.01,1.428,3.01,3.25c0,1.812-1.043,3.238-3.01,3.238s-3.011-1.427-3.011-3.238
C152.778,30.444,153.822,29.016,155.789,29.016z M155.789,34.605c1.067,0,1.931-0.839,1.931-2.339c0-1.511-0.863-2.351-1.931-2.351
s-1.932,0.84-1.932,2.351C153.857,33.766,154.722,34.605,155.789,34.605z"/>
<path fill="#022899" d="M159.966,29.161h0.96v1.307h0.023c0.492-0.995,1.176-1.487,2.279-1.451v1.08
c-1.644,0-2.243,0.935-2.243,2.506v2.759h-1.02V29.161z"/>
<path fill="#022899" d="M83.693,45.304c-0.132-1.224-0.947-1.751-2.123-1.751c-0.959,0-1.918,0.348-1.918,1.463
c0,1.056,1.367,1.212,2.747,1.523c1.367,0.312,2.734,0.792,2.734,2.471c0,1.823-1.787,2.555-3.346,2.555
c-1.919,0-3.539-0.936-3.539-3.022h1.079c0,1.439,1.2,2.063,2.495,2.063c1.031,0,2.171-0.323,2.171-1.559
c0-1.176-1.367-1.38-2.734-1.68s-2.747-0.695-2.747-2.267c0-1.739,1.547-2.507,3.107-2.507c1.75,0,3.082,0.828,3.154,2.711H83.693z
"/>
<path fill="#022899" d="M87.764,45.161h1.234v0.899h-1.234v3.85c0,0.468,0.132,0.552,0.768,0.552h0.467v0.899h-0.779
c-1.055,0-1.475-0.216-1.475-1.355V46.06h-1.056v-0.899h1.056v-1.859h1.02V45.161z"/>
<path fill="#022899" d="M95.621,51.336c-0.18,0.108-0.408,0.168-0.732,0.168c-0.527,0-0.863-0.287-0.863-0.959
c-0.563,0.659-1.318,0.959-2.183,0.959c-1.127,0-2.051-0.503-2.051-1.738c0-1.403,1.044-1.703,2.099-1.907
c1.128-0.216,2.088-0.145,2.088-0.912c0-0.887-0.732-1.031-1.38-1.031c-0.864,0-1.499,0.264-1.548,1.176h-1.019
c0.06-1.535,1.247-2.075,2.626-2.075c1.115,0,2.327,0.252,2.327,1.703v3.19c0,0.479,0,0.695,0.323,0.695
c0.084,0,0.18-0.012,0.313-0.06V51.336z M93.966,48.159c-0.396,0.288-1.163,0.3-1.847,0.42c-0.672,0.12-1.248,0.359-1.248,1.115
c0,0.672,0.576,0.911,1.199,0.911c1.344,0,1.896-0.839,1.896-1.403V48.159z"/>
<path fill="#022899" d="M96.572,45.161h0.959v0.983h0.023c0.432-0.768,1.128-1.128,2.016-1.128c1.631,0,2.135,0.936,2.135,2.267
v4.078h-1.02v-4.197c0-0.756-0.479-1.248-1.26-1.248c-1.234,0-1.834,0.828-1.834,1.943v3.502h-1.02V45.161z"/>
<path fill="#022899" d="M108.785,51.361h-1.02v-0.84h-0.024c-0.335,0.684-1.127,0.983-1.979,0.983
c-1.907,0-2.854-1.511-2.854-3.262s0.936-3.227,2.83-3.227c0.636,0,1.548,0.24,2.003,0.972h0.024v-3.19h1.02V51.361z
 M105.906,50.605c1.367,0,1.896-1.175,1.896-2.339c0-1.223-0.552-2.351-1.955-2.351c-1.392,0-1.859,1.188-1.859,2.399
C103.987,49.478,104.588,50.605,105.906,50.605z"/>
<path fill="#022899" d="M115.854,51.336c-0.18,0.108-0.408,0.168-0.731,0.168c-0.528,0-0.864-0.287-0.864-0.959
c-0.563,0.659-1.319,0.959-2.183,0.959c-1.127,0-2.051-0.503-2.051-1.738c0-1.403,1.044-1.703,2.099-1.907
c1.128-0.216,2.087-0.145,2.087-0.912c0-0.887-0.731-1.031-1.379-1.031c-0.863,0-1.499,0.264-1.547,1.176h-1.02
c0.06-1.535,1.247-2.075,2.626-2.075c1.115,0,2.327,0.252,2.327,1.703v3.19c0,0.479,0,0.695,0.323,0.695
c0.084,0,0.181-0.012,0.313-0.06V51.336z M114.198,48.159c-0.396,0.288-1.163,0.3-1.847,0.42c-0.672,0.12-1.248,0.359-1.248,1.115
c0,0.672,0.576,0.911,1.2,0.911c1.343,0,1.895-0.839,1.895-1.403V48.159z"/>
<path fill="#022899" d="M116.769,45.161h0.96v1.307h0.023c0.492-0.995,1.176-1.487,2.279-1.451v1.08
c-1.644,0-2.243,0.935-2.243,2.506v2.759h-1.02V45.161z"/>
<path fill="#022899" d="M126.126,51.361h-1.02v-0.84h-0.024c-0.335,0.684-1.127,0.983-1.979,0.983
c-1.907,0-2.854-1.511-2.854-3.262s0.936-3.227,2.831-3.227c0.635,0,1.547,0.24,2.002,0.972h0.024v-3.19h1.02V51.361z
 M123.247,50.605c1.368,0,1.896-1.175,1.896-2.339c0-1.223-0.552-2.351-1.955-2.351c-1.392,0-1.859,1.188-1.859,2.399
C121.328,49.478,121.928,50.605,123.247,50.605z"/>
<path fill="#022899" d="M128.78,44.044h-1.02v-1.247h1.02V44.044z M127.761,45.161h1.02v6.2h-1.02V45.161z"/>
<path fill="#022899" d="M129.861,50.582l3.742-4.521h-3.502v-0.899h4.821v0.695l-3.79,4.605h3.958v0.899h-5.229V50.582z"/>
<path fill="#022899" d="M141.618,51.336c-0.18,0.108-0.408,0.168-0.731,0.168c-0.528,0-0.864-0.287-0.864-0.959
c-0.563,0.659-1.319,0.959-2.183,0.959c-1.127,0-2.051-0.503-2.051-1.738c0-1.403,1.044-1.703,2.099-1.907
c1.128-0.216,2.087-0.145,2.087-0.912c0-0.887-0.731-1.031-1.379-1.031c-0.863,0-1.499,0.264-1.547,1.176h-1.02
c0.06-1.535,1.247-2.075,2.626-2.075c1.116,0,2.327,0.252,2.327,1.703v3.19c0,0.479,0,0.695,0.324,0.695
c0.083,0,0.18-0.012,0.312-0.06V51.336z M139.963,48.159c-0.396,0.288-1.163,0.3-1.847,0.42c-0.672,0.12-1.248,0.359-1.248,1.115
c0,0.672,0.576,0.911,1.2,0.911c1.343,0,1.895-0.839,1.895-1.403V48.159z"/>
<path fill="#022899" d="M143.984,45.161h1.235v0.899h-1.235v3.85c0,0.468,0.132,0.552,0.768,0.552h0.468v0.899h-0.779
c-1.056,0-1.476-0.216-1.476-1.355V46.06h-1.055v-0.899h1.055v-1.859h1.02V45.161z"/>
<path fill="#022899" d="M147.429,44.044h-1.02v-1.247h1.02V44.044z M146.409,45.161h1.02v6.2h-1.02V45.161z"/>
<path fill="#022899" d="M151.688,45.016c1.967,0,3.01,1.428,3.01,3.25c0,1.812-1.043,3.238-3.01,3.238s-3.011-1.427-3.011-3.238
C148.678,46.444,149.722,45.016,151.688,45.016z M151.688,50.605c1.067,0,1.931-0.839,1.931-2.339c0-1.511-0.863-2.351-1.931-2.351
s-1.932,0.84-1.932,2.351C149.757,49.766,150.621,50.605,151.688,50.605z"/>
<path fill="#022899" d="M155.901,45.161h0.96v0.983h0.023c0.432-0.768,1.127-1.128,2.015-1.128c1.632,0,2.135,0.936,2.135,2.267
v4.078h-1.02v-4.197c0-0.756-0.479-1.248-1.259-1.248c-1.235,0-1.835,0.828-1.835,1.943v3.502h-1.02V45.161z"/>
</g>
</svg>
