<svg height="316.227766" viewBox="0 0 79 79" width="316.227766" xmlns="http://www.w3.org/2000/svg"><g fill="none" fill-rule="evenodd"><path d="m20.1217823 3.19919071h-15.76796778c-.76989119 0-1.3764334.65659046-1.31594956 1.42435193l4.03495391 50.83730996h13.04896343zm54.0961752 0h-15.7679678v52.26166189h13.0487504l4.0353799-50.83730996c.0604838-.76776147-.5462713-1.42435193-1.3161625-1.42435193" fill="#f40027"/><g fill="#231f20"><path d="m74.8930551.97204353c1.587275 0 2.8374164 1.3504509 2.7121893 2.92941998l-5.65098 71.22590259c-.1120229 1.4119996-1.2929486 2.5007088-2.7121893 2.5007088h-59.91222917c-1.4194536 0-2.60037936-1.0887092-2.71218928-2.5007088l-5.65098-71.22590259c-.12544008-1.57896908 1.12491431-2.92941998 2.71218928-2.92941998zm0-.95837077h-71.21418917c-1.0241789 0-2.00959702.43126684-2.70409637 1.18305547-.69300855.74987188-1.04398523 1.76340221-.96326911 2.78055306l5.65098 71.22568961c.15035773 1.8971482 1.7612725 3.3834748 3.66736548 3.3834748h59.91222917c1.906093 0 3.5170078-1.4863266 3.6675785-3.3834748l5.65098-71.22568961c.0805031-1.01715085-.2706865-2.03068118-.9634821-2.78055306-.6942864-.75178863-1.6799175-1.18305547-2.7040964-1.18305547z" transform="translate(0 .2)"/><path d="m46.6912063 63.7453289c-.2136102 0-.3797278-.1854979-.356301-.3976173.0040465-.0359922.0046854-.0474926.0046854-.0477056.0583541-.8919237-.2472597-1.4149812-1.2488636-1.4149812l-3.0989451.0034075-.8282453 3.7757679 4.4361918.000213c.2283052 0 .3978303.2112675.348634.4340354l-.4323318 1.9469835c-.0359921.163349-.1808126.2792053-.3475691.2792053h-4.5942165s-.5104921 2.3132941-.5288077 2.4131776c-.1708029.7466774.3394762 1.1344981.6817211 1.3010416.0174636.0083059.0349273.0166118.0526039.0244917.1467372.0655952.2272404.2251107.1923131.3822835l-.2359722 1.0642175c-.0359922.1622841-.1801737.2781405-.3465043.2781405h-5.4022295c-.2268144 0-.3952747-.2097768-.3462913-.4310539l2.3533326-10.6619813c.2398057-.9406942-.3107251-1.3234036-.7062127-1.4741872-.0134172-.0048984-.0270474-.0093708-.0400386-.0144821-.1767662-.0628265-.2789924-.2474726-.2381019-.4306279l.207647-.9385645c.0396126-.1780439.1976373-.3049748.3801537-.3049748h12.0113673c.2278793 0 .3974045.2112675.3482081.4338225l-.7771322 3.5008219c-.0362051.1627101-.1803867.2785664-.3471432.2785664zm-18.065502-3.9101527c.0389737-.1769791.1959336-.3030581.3771721-.3030581h5.873535c.2289442 0 .3988952.2119064.3492729.4355262l-.1991281.9025723c-.0342884.1531264-.1610063.2621677-.3169013.2789924-.0270473.0027686-.044085.0044724-.044298.0044724-.4425543.0589931-1.2418356.2029616-1.8967222.7153705l-4.8825797 4.0605105c-.0004259.000426-.0004259.0012778-.0002129.0017038l3.7574523 5.0851153c.7281488.9362217 1.0874314 1.1059599 1.8196266 1.1172473.2402316.0044724.4127384.229796.3607734.4640645l-.2050914.9142857c-.0359921.1614322-.1791088.2760108-.3443745.2760108h-2.9260125c-3.240358.0004259-4.1348374-1.4207315-6.8340354-6.3552761-.000639-.0008519-.0021298-.0006389-.0023427.000213l-.7879938 3.5996406c-.1196898.5594756.348847.8557186.6921567.9952148.014908.0061762.029816.0117134.0436591.0172507.1639879.0643173.2570563.2385278.2187215.4101827l-.2338424 1.0554856c-.0362052.1618582-.1797478.2772887-.3456524.2772887h-6.7805797c-.2385279 0-.415294-.2206383-.3639679-.4534159l.199554-.9019334c.0359922-.1637749.1725068-.2862334.3388374-.304336.006815-.0010648.0134171-.0017037.0198063-.0023426.6214502-.0717714 1.2733553-.4644904 1.675658-2.3869822l1.5376527-7.0395527c.1978503-.9377126-.2711124-1.2944395-.6755449-1.4528901-.0034076-.0014908-.0272603-.0097967-.0643173-.022362-.1852851-.0632525-.2939004-.2559915-.2513062-.4472397l.2089249-.9404812c.0391867-.177831.1972114-.3043359.3790889-.3043359h6.4494093c.2255366 0 .393358.2087118.3445875.4291371l-.2055173.9279159c-.0298159.1356627-.1305514.244917-.2632325.2860204-.0159728.0048983-.0325846.0100097-.0491963.015121-.3017803.0981797-.779262.3456524-.9257862.9466573l-.8591261 3.9176068c-.000213.0014908.0012778.0023426.0023426.0014908l5.0024825-4.1576254c.3000765-.2474726.2236198-.578217-.1205418-.7106852 0 0-.0008518-.000213-.0021297-.0006389-.1955076-.059206-.3124288-.2591861-.2681308-.4587401zm33.698446-.007667c.2144621.0587801.3443745.2762238.2960301.4936675l-.7609464 3.4243652c-.0362051.163349-.1810256.2794183-.3482081.2794183h-1.082533c-.2044524 0-.3671625-.1716548-.3565139-.3756813.0025556-.044511.0029816-.0626136.0029816-.0636784.051965-1.1163955-.653183-1.9512429-2.2489768-1.9510299-2.6527703.0004259-4.5822901 2.1772054-4.835087 5.0369838-.2611028 2.9528468 1.8025889 4.6687564 4.6600246 4.6683305 1.4650295-.000213 2.6248711-.2828259 3.2750724-.4887691.2581212-.081568.5096403.1420518.4589531.4082659l-.3358557 1.7693654c-.0285381.1509967-.1375794.2738811-.2841037.3205218-.585458.1863499-2.2295963.6244318-4.746065.6248578-5.9787428.0010648-8.4046987-3.4379955-8.0290173-6.9437157.3339389-3.1219461 2.3993344-7.720635 10.5439952-7.7221258 1.5598016-.0002129 2.8076004.2496024 3.7902499.519224m-10.2762903-35.9474227c-.3222256 1.7137799-.682573 2.573758-.9140728 3.6313734-.2402316 1.0993577-.7123889 2.706652-1.1707031 2.7481814-.4632125.1392832-.6493494-.3961266-.9464444.0002129-.1771921.2359722-.3143456.5475492-.4721573.7488071-.1007354.1316162-.200193.4250907-.2016838.5852451 0 .3092343-.0170377 1.3082825-.2939004 2.6184819-.4172107 1.9770124-1.1758144 3.4173372-1.9638082 4.3265116-1.5093275 1.7408272-2.9230308 2.0210974-3.0912781 2.1099065-.2161659.1145785-.5437157.0468536-.6508403-.0044724-.1086153-.0494094-.1916741-.1797478-.37845-.3624772-.192526-.1799607-.259399.0939204-.26664.163775-.007454.0651692.0977538.8889421-.1122359 1.2616418-.4525639.8016239-.8878772.8712656-1.1302386 1.8696749-.081568.3371336-.0247046.8463479-.4274333.6157-.9843533-.5622442-2.3946491-2.0847759-2.6866327-3.5606669-.0888091-.4495823-.0057503-.9509167.2683438-1.8055705.1584506-.5015474.2708994-1.060171.2708994-1.3817577 0-.57055-.2229809-1.0542078 0-1.1038301.4133773-.0917907.6016439.9781771.793531.867219.333939-.1921001.0860404-1.3219127.0860404-1.3219127s-.1371535-.3211607-.7226115-.4585272c-.3369206-.0787994-.4427673-.3311703-.0834848-.5075106.2681309-.1314032.5797079-.3043359.9428239-.2502412 2.4270207.3439486 3.1253536-.1437556 4.1069382-.4084789.192739-.0511131.3062527-.0736881.4572493-.0023427.1499318.0696416.5528735.2900669.6346545.497075.0832717.2050913-.0027687 1.0105487.125866 1.616665.1311903.6086719.5588366.0555855.6651093-.1850721.1075505-.2387408.2176567-.8273934.2398057-.9771122.0236398-.148867.148441-.7750025.3731257-.9615654.444684-.3690792.6012179-.8542278.6727762-1.0439852.0736881-.1899704.1897575-.7756414.1688863-1.631147-.0210842-.8538019-.1754884-.9464444-.3818575-1.1300257-.2036006-.1829423-.4483046-.1475891-.9683805-.6235799-.4636384-.4255166-.845496-1.1129879-1.1809257-1.5457455-.3364946-.4314799-.8942664-.8953313-1.5308376-1.0510133-.6340155-.1529134-.370783.4319057-.3367076.5963196.0266214.1158563.1759143.6348674-.0357792.8060963-.2070081.170377-1.4897341 1.0326977-2.6338158.733686-1.3634422-.355875-1.8345346-1.1149046-1.8626469-1.8481647-.0195933-.51965.2293701-1.0207714.5398822-1.6162391.1818775-.3482081.2551396-.9296197.3281888-1.4871785.0581412-.4459618.177618-1.0910519.2747329-1.3204219.0698546-.1654787.2342685-.3452265.6041996-.3241423.3656717.0204452.6056903.2025357.6725633.5181591.237037 1.0968021.6235799 1.3738778.7545572 1.4626868.1324682.0883831.3799408-.088809.4764168-.1531264.0975408-.0632524.3456524-.3141326.2677049-.4487305-.118412-.2084988-.1837942-.333513-.2099897-.4557585-.0451499-.2087119.2159529-.1833683.2687698-.1416259.4274333.3367076.830375.3663106 1.5689594.489408 1.2918838.215314 1.4771688-.2608898 2.3648331-.1069116.1150045.0200193.333939.1162823.4054973.2493894.0587801.1139396.1667566.3761073.2751589.4221091.1075505.0417423.370996.0579282.5068717.0824199.1878407.0317327.5241223.0106485.4676849.3577917-.1446075.9302586-1.2181957 1.186889-1.719956 1.2731423-.2072211.0355662-.3022063.0526039-.3358558.0822069-.1086153.0954112-.1126618.3867559.0123524.5750225.088596.1324681.4943063.140774 1.0499484.0340754.5794949-.111171 1.1359888-.3908023 1.5753486-1.0757179.4655552-.7253802.7215467-2.3224519.7756414-2.6208246.0526039-.2979469.1720808-.7969386.3362816-.8991648.1622842-.1020132.9183322-.3315963 1.0248178-.3128548.1269309.021936.2191475.0830588.2789924.3754684.059419.2953911-.051539 2.0551728-.0536687 2.3205351-.0031946.2832518.1420518.2806961.2229809.2434261.1763402-.081355.6470068-.3948487.7534924-.7573258.0787994-.2689828-.148015-.6608499-.0340754-1.0329108.1774051-.5801337.3520415-.7345379.4730092-.7228245.7375196.0702805.8885162.3935709.712176 1.3308576m-10.4553992 9.4889354c-.274307.1003095-1.0661342.2845297-1.4496955.3079565-.3869688.0217231-1.6136834.1047819-1.8196266.0949852-.2527969-.014695-.5941899-.1380054-.8716915-.3916542-.0560114-.051539-.1167083-.2283052.1096802-.2325646.4206183-.007454 1.1310905-.2319258 3.5772786-.0249177.2615288.0217231.3852651.0330106.4472397.0389738.0641044.0066021.2806962.1105321.0068151.207221m-6.0162257-.993511c-1.1907225-.015121-1.7416792-.4587401-1.8268677-.5912083-.081781-.1284217.0555855-.2278793.1799607-.2679179.2811221-.089022.7807528-.3416059.9835014-.4955841.2036006-.1518486.7647799-.5013344 1.0480317-.6836378.13332-.0871053.8989518-.4204054 1.3464044-.1084024.6719244.4687498 1.2995508.7820305 2.4485309.71175.7392233-.0451499.7226115-.6416825 1.3240424-.8316529.5435028-.1712289.6478587-.3045489.8180227-.4042195.2193605-.043872.3814316-.0992446.6195335.1224585.3017803.2811221.4110346.5023993.7603075.897248.4781205.5396693 1.0054374.7914013 1.1687864.823347.1622841.0332235.2792053.1652657.2809091.2197864.0014908.0536688-.0651692.2214901-.5473362.3592825-1.609211.4610829-3.351742.1654787-4.2487771-.1929519-.4553326-.1818775-.8978869-.2314998-1.3975175.0138431-.5034641.2468337-1.8462481.4414895-2.9575322.4278593m-.5720409 6.6189345c-.912156.0281122-3.2965825-1.4109348-4.3367342-5.495511-.2698346-1.0508003.3925061-1.9033243.8035406-2.0496356.2430003-.089235.3705701-.1173472.452564-.1282087.0843366-.0106486.4996306-.0080929.4851486.4608698-.0142691.3801538.3013544 3.5476757 1.1281089 4.6941001.2050913.2843166.3948487.2947522.488982.0436591.0864664-.2332036.230009-.534132.2762238-.6484976.0338624-.0822069.3345779-.5424378.4240258-.1931649.1895444.7419919.6340155 2.268783.8210043 2.6629929.3098732.6538218-.2010449.6429603-.5428638.6533959m-4.7929187-12.1889854c-.0641044-.2751589.0583541-.6868324.7062128-.2713254.103717.066447.4080529.2046654.7462513.3017803.2048784.058993.3375595-.0272603.3954877-.1761273.0600579-.1475891.2280923-.4421284-.0602709-.5833283-.2868723-.1433297-.9969185-.2666401-1.4022029-1.2644105-.0728362-.178044.0498353-.3831354.1637749-.4357393.1152175-.051539.2574823-.0253435.3903764.1005225.1318292.1237363.4148681.3969785.6685168.4069881.2336295.0110745.2717514-.0836977.319031-.1386443.1961466-.2204253.7586037-1.0427074 1.9252604-.9000166.4806762.05878.9245084.1656916 1.0863665.177831.1154305.0076669.4355263.021936.741992-.0355662.3492729-.0653822.8706266-.1737846.615487.1211806-.207434.2393798-.3807927.3390503-.1991282.5988753.0093708.0134172.0187415.0259825.0274733.0383348.1637749.2308609.1682473.5379655.0017038.7664837l-.0202323.02939c-.2576952.3347909-.7907623.7202689-1.8926758.7901235-.5019733.0319456-.533493.0134171-.5441416.3005024-.0038335.1107451-.0023427.1690992.0136302.2464078.0302419.1443945.1226714.2044524.4713054.2261755.252584.0153339.7149446-.0342884.7157965-.0345013.1137267-.0340754.2474726.0383348.1746365.133107-.0115005.0140561-.0577153.0832718-.0658082.0939203-.2500283.3230775-.3279757.6184686-.3511896.7948089-.0198063.1495058-.1060597.2832518-.2383149.3518285-.0019167.0008519-.0034075.0017038-.0053243.0025557-.1607933.0826328-.8109946.2229809-1.3225516.6455159-.5092144.4225351-1.5738578.7705301-2.0313201.2513062-.4581012-.5175203-.8312269-1.6758711-1.0301421-2.5379788m-.3309574-5.117061c-.1431167.0151209-.2645103-.0721973-.4208312-.1058467-.1812386-.0396127-.2921966.0157598-.3673755-.0841237-.066447-.1024392-.0543077-.1993411.0494093-.2387408.1032911-.0387608.178683-.0097967.2832519-.029816.2127583-.0404645.4719443-.2838907.6638314-.0138431.1239493.1754883.0176767.4478786-.2082859.4723703m-1.7678746 6.4913647c-.460018-.3062527-.4353133-.7074906-.5522345-1.1021264-.2483245-.8371901-.5151776-1.8451832-.7458255-2.7026056-.1397091-.5181591-.1752753-1.7344381.5281688-1.7344381.3543842 0 .6188946.111171.7321953.44511.252158.7428438-.222768.6135702-.1011614 1.4916508.0866793.6208113.2050914 1.2326778.4012379 2.2873116.0900869.4860005.2485375 1.6556387-.1786829 1.3711091m-1.438621-11.9853848c.2564174-.6938605.7228245-1.2852817 1.0412166-1.7029184.2913447-.3820705.1537653-.8861735.0046854-1.3378856-.096263-.4161459-.363755-.8465608-.4044325-.9602875-.029603-.0798642-.0304549-.1439686-.0048983-.200406.0187415-.0127783.0347143-.0232139.0543077-.0357792l.563309-.0481315c1.6121926-.2061562 3.0339889-.7724468 3.463552-1.0135303.2114804-.118625.4359522-.2119064.6655352-.2896409.2691957-.0913647.5475492-.1829424.8263286-.2197864.2108416-.0345014.4606569-.067086.6742671-.0905128.318818-.0362051.822708.1869888.7106851.2534358-.2698346.1616452-1.5225317.4514991-2.624658 1.7672357-.675332.8046055-.8320788 1.3023194-1.0597451 1.6728894-.2306479.3718479-.415507.460444-.7396493.7402882-.1584506.1352368-.4815281.4184886-.6397657.8693488-.1599415.4546937-.7754285 2.0417557-.8557187 4.5620578-.0087318.2926226-.0596319.6016439-.3369205.7077036 0 0-.0014908.0004259-.0021297.0008519-.2278793.0922165-.4123124.2427872-.4504343.0785864-.1463113-.5530864-.4853615-1.7461516-.6272004-2.5017737-.044937-.2385278-.0977538-.474287-.1541912-.7100462-.1544042-.6440252-.2244718-1.2158531-.104143-1.5416991m4.9028119 6.1288875c-.2930485.185924-.5803467.4012379-.7988553.5426509-.26664.1759142-.6416825.0074539-.5320022-.3665236.0538817-.1816645.3120029-.6472197.7456124-.7294267.0564374-.0117134.2715384-.0526039.4514991-.0743269.2099897-.022362.4336096-.0413165.5475492-.0462148.3073176-.0134172.3407541.2329906.1324681.3603474-.1382183.0849755-.3516155.1901834-.5462713.3134937m.4042195.5505308c.0783734-.0638914.1130877-.0641044.3775981-.2095637.1880536-.104143.4027287-.2327777.6195334-.3735517.3927191-.2553525 1.1362018-.5194369 1.4518253-.5160294.2280922.0027686.6267745.1011614.8388938.3322352.2214902.2415094.281974.5226315-.007028.4738611-.2862334-.0494093-.5903564-.1267179-1.1413131 0-.6163389.1405611-1.0348275.3767462-1.3321354.5098533-.304123.140774-.6120794.1746364-.7138797.169951-.0981798-.0066021-.378024-.1563209-.0934944-.3867558m4.5516222 5.4588799c.0719843.1322552.0951982.3543842.074753.4459619-.0212972.1126618-.4161459.259612-.7447606-.2314998-.3277628-.4881302-.1742105-1.0884962.0210841-1.3242555.3090214-.3784499.7820306-.103291.7138798.0364181-.2366111.4853616-.1314033.941972-.0649563 1.0733753m9.8550331-4.7920668c-.1209676.0609098-.5767262-.0920036-.7028052-.1627101-.252371-.1414129-.4316928-.2415094-.771169-.5313633-.2251106-.1901834-.6352933-.2796313-1.0237529-.2608899-.297308.0144821-.593338.0781605-.8216433.1314033-.2251106.0545207-.2423613-.1501447-.1752753-.2274533.0675119-.0768826.3835613-.3665236 1.0733752-.5471232.1003095-.0264085.2943264-.0174637.3922931-.0070281.2877242.0321587.6320988.2234069.8797844.4640644.2474726.2423614.7483811.6689428 1.0190676.8342086.1288476.0770956.4159329.1607933.1301254.3068916m-.281548-1.1408872s-.4265815-.2913447-.5630961-.5281688c-.0672989-.1171342-.0519649-.214888.1284217-.2163788.6395528-.0066021 1.2252238-.021936 1.5103924.2172307.207434.1746365.2131842.5392433.1113839.7745766-.1175601.2687697-.3520415.192526-.4860004.1733586-.133533-.0202323-.7011015-.4206183-.7011015-.4206183m3.2058567-.9573059c-.0969019.1047819-.1825164.0417424-.3820705.0913647-.155682.0379089-.259186.125653-.4025157.1128748-.2263885-.0204453-.3377724-.2909188-.2170177-.4683239.1872017-.2736681.4510732-.0353532.6642574.0019168.1045689.0183155.1797478-.0123524.2838907.0249176.104143.037057.1184121.13332.0534558.23725m-18.4367109-12.36149213c.0977538-.15120961.3350038-.37206083.5718279-.54307676.2483245-.17783103 1.4701408-1.0931816 2.6050647-1.43883399.2104156-.06261355.2642974-.09434628.3986823-.12650494.170164-.04429803.3143456-.4108216-.0398257-.46427739-.3716349-.05366877-.5230574-.02939004-.7211207-.02278793-.1980633.00425942-.2936874-.10201325-.1499318-.25790822.1460983-.15674687.4091178-.31647533.8719044-.50218629 1.0103358-.40251572 2.8009983-.61740374 3.6360587-.69173072 1.0895611-.09392034 1.2213903-.0905128 1.9301587-.03599215.6642575.05004825 1.1851852.17399754 1.431806.21744368 1.2503544.2261755 2.6908921.80524442 3.9717014 1.50826262.6742671.39996007 1.3238295.84656085 1.9286679 1.3178663 1.8349606 1.4305281 3.9425244 4.15144922 3.6349939 9.88250642-.0366311.6766097-.1167083 1.0518651-.1610063 1.2152141-.0457888.1659046-.2653622.4491565-.3816445.074327-.3790889-1.2260757-.8667932-3.3873082-1.9763735-5.0940601-.1544042-.2378889-.3927191-.2157399-.3690793.0349273.0087319.1045689.0600579 1.1977505.0330106 1.409018-.1797478 1.4077402.2515191.8593391.8868124 2.3697314.1967855.467259.4500083 1.3911285.5134738 1.9868091.0163987.1497188.036631.3232904.0404645.489834.0042594.2104156-.1000965.2244717-.1000965.2244717-.4346744-.0014908-1.1924262-.20786-1.6013311-.2208512-.4649163-.014908-3.6920701-.0474926-4.9047286.0481315-1.2137233.0926425-1.8752121.5292336-2.5622575 1.0919038-.1139396.0932814-.2764367.1805996-.3678014.2261755-.0460018.0230009-.0971149.029816-.1473761.0210841-.0557985-.0095837-.1463113-.0268344-.2898539-.0566503-.2962431-.0609098-.6546738-.0849756-.9443147.0038335-.289215.0864663-.4255166.1610062-.7381585-.0202323-.44511-.2602509-1.1278959-1.2993378-3.5104056-1.3185052-1.350025-.0106486-3.1206682-.0289641-4.1631626.0170377-.3369206.014695-.5126219.0526039-.5990883.0504742-.007241-.0396127-.0091577-.0945593-.0093707-.1054208-.0178896-1.9024725 1.223733-1.4807893 1.3659978-1.9750957.3545972-1.2322518.437656-4.1961732 2.5897308-6.0160128 1.0288643-.8695617 1.5636352-.9061928 2.5185984-.9061928 1.0290772 0 2.0328109.2685568 2.5447938.5222056.4074141.2012579.6093109.3360687.7694653.2176567.1599414-.1218196.5882267-.5100663.7647799-.6433863.177405-.1360886.110532-.3473561-.0568634-.4855745-.1610063-.1305514-1.6877974-2.05070048-4.0283518-2.4376693-.5360487-.08923497-.9319623-.17059-1.4190276-.17186782-.2632325-.00979668-.497075-.01086154-1.1085156.06325247-.8957572.10861535-2.0668863.60718112-2.8203786.9061928-.0406776-.04323317.1150044-.29581711.1620711-.36354198m-.7730858 26.68594053c.0230009.9826495.5929121 3.5770657 3.8884297 6.0390137 1.3743037 1.0265216 2.0044857 1.4895212 2.1857243 1.6151742l-.0008519.007454c.0905128.0632525-.4872783.0485575-.6463678.0638914-.2579083.0244917-1.1366278-.0551596-1.8400719.0751789-.6346544.1169212-.5484011.2698346-.6114406.7290007-.0500482.3639679-.0031945.9406941-.0212971 1.4322318-.0189544.4915378-.0460018.8408107.1622841 1.0789126.2053043.2336294.3350038.2711124 1.2060564.2172307.8284583-.0506872 3.122372-.052391 3.3988087-.1086154.3548101-.0726232.2981598.0560115.0937073.4949453-.3503377.7520016-1.4929286 4.1997936-3.2686832 7.4759309-.2489634.4589531.4510732.2419354 1.0484576.5298725 1.0799774.5211408 1.0446242.6659612 1.3283019.1226715.3075305-.5890786 1.8658414-4.256657 2.1071379-5.3890253.0310938-.1478021.0945592-.2757978.1190509-.0538818.0172507.1599415.0400386 4.7931317-.089022 6.2545406-.0068151.0773086.0119264.1580247.0662341.2138232.0779475.0800772.1952947.1133007.2951782.1367276.0010649 0 .0019167 0 .0029816-.000213.5362617-.1788959 1.1858241-.3105121 1.7372067-.2195734.0489834-.0057502.0956241-.0163988.1403481-.0302419.029603-.0247047.0562244-.0538817.0751789-.0883831.0430202-.0779475.0649562-.1659046.0841236-.252158.0017038-.0066021.0031946-.0129912.0044724-.0202323.0268344-.1230974.0487705-.2478985.0621876-.3733386.007667-.074114.0127783-.148654.0176767-.2229809.0059632-.096476.0102226-.193165.0134172-.289854.0042594-.1164953.007028-.2332035.0085188-.3492729.0021297-.1348108.0029816-.2694086.0029816-.4040065 0-.1499318-.0014908-.3007154-.0036205-.4510732-.0025557-.1639879-.0063891-.1092542-.0110745-.2730291-.0051113-.1754884-.0115005-.3514027-.0189545-.526678-.0078799-.1850721-.0170377-.3701441-.0276862-.5552162-.0106486-.192526-.022788-.3846261-.0366311-.5769392-.0140561-.1976373-.029816-.3952747-.0474926-.592912-.0174636-.2008319-.0364181-.4012379-.0577152-.6020698-.0212971-.2016838-.044511-.4033676-.0696416-.6046255-.0251306-.2008319-.052178-.400812-.081994-.601005-.028964-.1978503-.0604838-.3948487-.0947722-.5916342-.0334365-.1921001-.0696416-.2747329-.1086153-.4659811-.0381219-.1848591-.0787994-.3690793-.1233104-.5524476-.0423813-.1754883-.0883831-.3501247-.1384313-.5234834-.0400386-.1377924-.0824199-.2749459-.1277828-.4123124-.0080929-.0215101-.0451499-.2095637-.0402516-.2340554.0140561-.0677249.0992446-.0187415.1923131-.0366311 0 0 .0436591-.0083058.0683638-.0123523.5897175-.0792253 1.616239-.0264084 1.8479518-.0168247.2283052.0068151 1.3951749.118199 1.7240025.148228.326272.0315197.7228246.1073375.7053609-.8834049-.0046854-.2642974-.0055372-.4216831-.0046854-.6680909.000426-.0332235.000426-.0675119.000426-.1003095.0006389-.0626135.0010648-.1241622.0017038-.1833683.0010648-.036418.0010648-.0692156.0019167-.1039299.000213-.0338625.0006389-.0675119.0010648-.0998836.000426-.0302419.0010649-.0613357.0014908-.0894479.0019168-.0536688.0029816-.1052078.0051114-.1522745.0004259-.014908.0004259-.0283252.0012778-.0425942.0004259-.0359922.0019167-.0685768.0036205-.0992447.0004259-.0153339.0010649-.0300289.0019167-.0447239.0010649-.0281122.0027687-.0506872.0038335-.0713454.0008519-.0066021.0008519-.0161858.0017038-.021936.0027686-.029816.0042594-.0619747.0053243-.0971149.007454-.2417225-.0236398-.6847027-.4815281-.8024758-.5273169-.1318293-1.4545939-.163349-2.2883764-.0909388-.1162823.0104356-.1420519 0-.1062727-.0325846l.0008519-.007454c.1797478-.1279957 1.3834614-.793318 2.7605338-2.0257828 1.5148647-1.3589698 2.2379022-2.0813684 2.7011147-3.0646568 0 0 1.6579815-3.2167182 1.5747097-5.9406209-.0168247-.5501048.0717713-.5038901.4140162-.4938804.1026521.0029816.4945193-.0244917.7053608-.1642009.7034442-.1601544 1.3246814-2.5614056 1.3246814-2.5614056s1.0563376-3.6462813 1.3123291-5.1375062c.2278792-1.3263852.1737845-2.1013877-.6352934-2.4953845l-.1354497-.0764567c-.0609098-.0347143-.0911517-.1060597-.0726232-.1735716.0155469-.0564374.0321586-.1226715.0406775-.1722938.3954877-1.3740907 1.1025523-3.1134272.9421849-3.8183621-.0278992-.2023227-.199554-.2681308-.258973-.3085954-.0824199-.0557985-.3961266-.4054973-.4832319-.6514791-.0129912-.0357792-.0176766-.0732622-.0210841-.1109581-.2231939-2.5946291-1.1451466-5.8496822-3.8914113-8.68432995-.0040464-.00276863-.1886925-.1720808-.3013544-.27494593-.2353332-.21169345-.5360487-.47513893-.882127-.73475092-.7313434-.54669728-1.3148847-.96625071-2.5175335-1.56661675-.0928555-.04578883-.9960667-.4568234-2.3307577-.78309541-.1248012-.03364946-.2508802-.06623407-.3778111-.09605005-.1961466-.04600179-.5023993-.10243918-.8514592-.15035772-.8222821-.12884763-1.735503-.19785032-2.6849289-.13928322v.00042594c-.1133008.00553726-.245343.01213937-.2802702.01256531-.0566504.00106486-.1162824.00383348-.1742106.00617617-.0645303.00255565-.1275698.00383348-.1946557.00638913-.2010449.00958371-.4659812.04003861-.7441217.07965126-.4491564.06516922-.9308974.15483013-1.2277794.22447174-.3322352.08071611-.7799008.1742105-1.3395894.33457788-.229796.06708595-.4612958.1386443-.6913048.21318425-.0649562.02065822-.1294865.04067752-.1935909.06133573-.2485374.08199395-.4983528.16675652-.7509367.25769525-.1831553.06431733-.9613524.4012379-1.1306645.47918539-.0811421.03769592-.192952.08561445-.3137067.13459785-.5486141.17399754-.6638315.49111178-.6836378.66553526-.0127783.11202289-.0383349.2231939-.0860404.32520714-.7905494 1.67991748-2.6497887 1.84262754-3.3879472 1.87947157-.193165.00937073-.3637549.03769592-.3026322.22511064.1573858.48237996 1.0269475 1.38175764 1.5591628 1.54510664-.007667.0768826-.4559715.1742105-.5498919.1991282-.2142491.0557984-1.0955243-.0215101-1.1389704-.0127783-.0038335.0004259-.0068151.0010648-.0104356.0012778-.9992613.0841237-1.3061529.7645669-1.3958138 1.0872184-.0278992.0998835-.0119264.20786.0453629.2947523.2204253.3360686.452564.6101627.6274134 1.0535689.0019167.0046854.0038335.0097967.0055373.014482.0453628.1167083.0868922.2455559.1230974.3899505.0212971.1901833.1733586.3880336-.0189545.7609464-.340754.6604239-1.1926392.867006-1.320209 1.5231706-.1812385.9328142.1407741 1.5434028.4936675 3.0853149.2421483 1.0569765.503677 2.1495192.6908788 2.6451034.0097967.0261954-.0055372.0532428-.0327976.0585671-.0749659.014269-.2046654.0415294-.2483245.0560114-.4934544.1963595-.6484975.5850321-.7049349 1.3447007-.1237363 1.6801304 1.1168214 4.2719909 1.5012345 6.4924295.1294866.749233.474713 1.9499651 1.0490966 2.4415028.1326811.1135137.4097567.1863499.5818375.2161658.4489435.0779475.6440252-.2061562.6695817.244704.0055373.0937074.03727.3469303.0415294.489834.0770956 1.5934511.9313234 3.1751888.9313234 3.1751888"/></g></g></svg>